<?xml version="1.0" encoding="iso-8859-1"?>
<svg version="1.2" baseProfile="tiny" class="logocolor bis" xmlns="http://www.w3.org/2000/svg" xmlns:xlink="http://www.w3.org/1999/xlink" viewBox="0 0 215 70" xml:space="preserve">
<g>
	<g>
		<linearGradient id="SVGID_1_" gradientUnits="userSpaceOnUse" x1="40.3701" y1="17.3887" x2="40.3701" y2="28.7051">
			<stop  offset="0" stop-opacity=".2" class="secondarycolor"/>
			<stop  offset="1" class="secondarycolor"/>
		</linearGradient>
		<path fill-rule="evenodd" clip-rule="evenodd" class="secondarycolor" fill="url(#SVGID_1_)" d="M27.729,28.705c1.662-4.475,4.704-9.683,11.588-11.107
			c6.453-1.229,10.531,3.082,13.693,9.433c-2.09-3.886-6.775-9.513-13.479-7.182c-3.718,1.592-5.306,5.359-6.7,8.79L27.729,28.705z"
			/>
		<polygon fill-rule="evenodd" clip-rule="evenodd" class="secondarycolor" points="30.23,26.017 32.918,28.598 30.23,31.206 27.729,28.705 
					"/>
		<path fill-rule="evenodd" clip-rule="evenodd" class="primarycolor" d="M77.101,28.145l-0.119,0.563c0.653,0.059,1.008,0.356,1.008,0.89
			c0,0.088-0.029,0.237-0.059,0.356l-4.039,16.909c-0.089,0.415-0.148,0.711-0.148,0.949c0,0.622,0.42,0.89,1.25,0.89h9.79
			c1.602,0,1.839-1.276,2.373-4.302h-0.534c-0.296,0.771-0.741,1.067-1.513,1.067h-6.555l1.602-6.614h5.042
			c1.602,0,1.899-0.445,2.284-2.966h-6.556l1.039-4.569h6.021c1.424,0,1.572-0.742,1.987-3.173H77.101L77.101,28.145z
			 M101.158,28.145l-0.118,0.563c0.712,0.178,0.95,0.415,0.95,1.008c0,0.148-0.031,0.327-0.06,0.475l-0.475,2.077h-2.789
			c-1.839,0-3.5,0.09-5.102,1.098c-0.682,0.445-1.335,1.187-1.721,2.076c-0.475,1.098-1.009,2.789-1.602,5.133
			c-0.504,2.017-0.865,3.618-0.865,4.924c0,2.403,1.34,3.476,4.158,3.476c1.572,0,2.521-0.029,3.115-0.657l1.335-1.424
			c-0.06,0.356-0.09,0.623-0.09,0.801c0,0.652,0.356,1.009,1.039,1.009h4.064l0.148-0.563c-0.771-0.089-1.156-0.356-1.156-0.742
			c0-0.207,0.029-0.475,0.118-0.801l4.094-16.968c0.058-0.237,0.089-0.445,0.089-0.563c0-0.593-0.417-0.919-1.217-0.919H101.158
			L101.158,28.145z M100.713,35.323l-1.898,7.861c-0.445,1.869-1.038,2.58-2.61,2.58c-1.631,0-2.284-0.563-2.284-1.869
			c0-1.038,0.445-3.797,1.632-6.703c0.534-1.334,1.898-1.899,4.152-1.899C100.031,35.293,100.357,35.293,100.713,35.323
			L100.713,35.323z M108.04,32.268l-0.119,0.564c0.624,0.03,0.979,0.355,0.979,0.86c0,0.178,0,0.386-0.061,0.624l-2.762,11.45
			c-0.061,0.237-0.09,0.475-0.09,0.712c0,1.514,1.459,2.497,4.305,2.497c1.989,0,3.295-0.806,4.688-2.468
			c-0.146,0.684-0.237,1.128-0.237,1.366c0,0.593,0.327,0.83,0.979,0.83h4.241l0.148-0.563c-0.652-0.148-0.918-0.356-0.918-0.802
			c0-0.178,0.028-0.385,0.087-0.622l3.057-12.815c0.059-0.267,0.089-0.474,0.089-0.652c0-0.594-0.386-0.979-1.009-0.979h-4.034
			l-0.118,0.564c0.593,0,0.889,0.296,0.889,0.801c0,0.148-0.028,0.355-0.089,0.623l-2.372,9.462
			c-0.326,1.336-1.572,2.195-3.322,2.195c-1.187,0-1.78-0.475-1.78-1.335c0-0.148,0.029-0.326,0.06-0.505l2.463-10.322
			c0.058-0.208,0.087-0.386,0.087-0.534c0-0.594-0.385-0.95-1.097-0.95H108.04L108.04,32.268z M130.881,32.268
			c-2.58,0-4.45,1.128-5.399,3.145c-0.829,1.78-1.453,4.302-2.195,7.505c-0.211,0.891-0.301,1.603-0.301,2.166
			c0,2.403,1.43,3.619,4.158,3.619h3.886c1.986,0,2.997-0.386,3.292-1.691l0.654-2.759l-0.594-0.029
			c-0.387,1.008-1.276,1.424-2.849,1.424h-2.016c-1.336,0-2.077-0.653-2.077-1.603c0-1.067,0.474-2.788,1.156-5.25
			c0.267-1.009,0.564-1.69,0.771-2.047c0.622-0.979,1.425-1.424,2.67-1.424h1.662c1.037,0,1.543-0.178,1.749-1.008l0.504-2.047
			H130.881L130.881,32.268z M141.204,32.268c-0.208,0.712-0.298,1.305-0.298,1.78c0,0.919,0.417,1.217,1.454,1.217h4.064
			c0.831,0,1.186,0.266,1.186,0.978c0,1.128-0.504,1.543-1.63,1.543h-3.769c-3.263,0-5.521,2.907-5.521,7.269
			c0,2.55,1.34,3.92,4.01,3.92c1.423,0,2.313-0.148,2.699-0.361c0.385-0.237,0.889-1.009,1.778-2.224
			c-0.147,0.593-0.237,1.008-0.237,1.305c0,0.713,0.445,1.009,1.425,1.009h3.737l0.148-0.563c-0.593-0.089-0.919-0.356-0.919-0.831
			c0-0.326,0.119-0.683,0.207-1.097l2.284-9.642c0.119-0.476,0.237-0.95,0.237-1.514c0-1.838-1.187-2.788-3.501-2.788H141.204
			L141.204,32.268z M143.993,40.396h2.639l-1.275,5.131c-0.563,0.09-1.157,0.119-1.81,0.119c-1.868,0-2.641-0.268-2.641-1.69
			C140.906,41.79,142.033,40.396,143.993,40.396L143.993,40.396z M159.535,29.391c-0.979,2.076-2.58,3.263-4.834,3.56l-0.535,2.195
			h1.572l-2.521,10.531c-0.088,0.415-0.153,0.771-0.153,1.008c0,1.188,0.778,2.018,2.112,2.018h4.865
			c1.304,0,1.986-0.208,2.225-1.037l1.007-3.383h-0.593c-0.476,1.097-1.186,1.453-2.491,1.453h-1.363
			c-0.713,0-1.069-0.356-1.069-1.038c0-0.237,0.06-0.534,0.148-0.92l1.78-7.268c0.267-1.068,0.682-1.364,1.929-1.364h1.423
			c1.01,0,1.306-0.207,1.484-1.039l0.385-1.839h-4.212l0.682-2.877H159.535L159.535,29.391z M168.82,27.907l-0.475,1.779
			c-0.06,0.238-0.06,0.416-0.06,0.504c0,0.564,0.416,0.891,1.216,0.891h2.819l0.504-2.017c0.029-0.148,0.059-0.297,0.059-0.416
			c0-0.504-0.325-0.742-0.979-0.742H168.82L168.82,27.907z M166.774,32.268l-0.148,0.564c0.652,0.208,0.918,0.416,0.918,0.919
			c0,0.148-0.028,0.356-0.087,0.623l-3.15,12.963c-0.028,0.179-0.06,0.297-0.06,0.416c0,0.563,0.445,0.949,1.073,0.949h4.123
			l0.178-0.563c-0.652,0-1.037-0.297-1.037-0.86c0-0.147,0.028-0.356,0.089-0.623l3.055-12.667c0.088-0.326,0.119-0.593,0.119-0.771
			c0-0.624-0.298-0.95-0.831-0.95H166.774L166.774,32.268z M183.83,37.251c0,0.563-0.327,2.729-1.394,5.963
			c-0.594,1.779-1.366,2.67-2.937,2.67c-1.514,0-2.403-0.83-2.403-2.195c0-0.268,0.267-2.462,1.394-5.874
			c0.594-1.779,1.366-2.669,3.025-2.669C182.999,35.146,183.83,35.917,183.83,37.251L183.83,37.251z M172.583,44.786
			c0,2.492,2.229,4.188,6.382,4.188c3.619,0,5.636-0.687,7.002-3.446c0.681-1.364,1.067-2.966,1.512-4.806
			c0.416-1.661,0.771-3.174,0.771-4.687c0-2.402-2.282-3.975-6.644-3.975c-2.907,0-4.627,0.504-6.229,2.64
			c-0.595,0.801-1.484,3.114-2.285,6.882C172.76,43.154,172.583,44.252,172.583,44.786L172.583,44.786z M202.311,46.655l2.817-11.54
			c0.061-0.207,0.09-0.415,0.09-0.593c0-1.454-1.483-2.462-4.095-2.462c-2.135,0-3.382,0.653-4.952,2.522l0.206-0.98
			c0.061-0.207,0.09-0.355,0.09-0.503c0-0.564-0.327-0.831-1.008-0.831h-4.153l-0.179,0.564c0.623,0.119,0.949,0.355,0.949,0.801
			c0,0.148-0.029,0.355-0.089,0.623L188.927,47.1c-0.059,0.237-0.089,0.444-0.089,0.623c0,0.623,0.387,0.979,1.015,0.979h4.152
			l0.088-0.563c-0.592,0-0.948-0.297-0.948-0.802c0-0.147,0.06-0.355,0.119-0.622l2.283-9.464c0.326-1.305,1.483-2.165,3.204-2.165
			c1.275,0,1.868,0.444,1.868,1.306c0,0.178,0,0.385-0.059,0.593l-2.492,10.234c-0.059,0.207-0.059,0.355-0.059,0.504
			c0,0.594,0.386,0.979,1.097,0.979h4.063l0.09-0.563c-0.683-0.03-1.039-0.326-1.039-0.92
			C202.221,47.07,202.252,46.863,202.311,46.655L202.311,46.655z"/>
		<polygon fill-rule="evenodd" clip-rule="evenodd" class="secondarycolor" points="2.151,51.374 204.542,51.374 204.542,52.611 
			2.151,52.611 2.151,51.374 		"/>
		<path fill-rule="evenodd" clip-rule="evenodd" class="primarycolor" d="M32.151,31.3c-1.367,5.333-4.071,15.873-4.103,15.977
			c-0.39,1.221,0.477,1.325,0.623,1.418c0.021,0.015-3.673,0.006-4.397,0.006c-0.187,0-0.401-0.022-0.704-0.36
			c-0.16-0.179-0.235-0.559-0.182-0.746c1.287-5.012,2.573-9.997,3.832-15.007c0.214,0.08,0.875,0.464,2.038,0.375
			C31.186,32.812,32.151,31.3,32.151,31.3z"/>
		<path fill-rule="evenodd" clip-rule="evenodd" class="primarycolor" d="M47.063,34.047c-0.054,0.161-0.163,0.375-0.455,0.53
			c-0.373,0.197-0.751,0.167-0.885,0.167c-1.259,0-2.519-0.027-3.779,0c-0.535,0-1.098,0.025-1.634,0.134
			c-0.161,0.026-0.398,0.099-0.534,0.176c-0.32,0.181-0.508,0.729-0.559,0.885c-0.192,0.58-0.297,1.046-0.25,1.308
			c0.095,0.531,0.75,0.844,0.995,0.901c0.108,0.025,1.688,0.374,1.688,0.374s1.489,0.321,2.064,0.536
			c1.773,0.666,2.17,1.232,2.332,1.528c0.134,0.241,0.276,0.585,0.268,1.582c-0.012,1.551-0.369,2.399-0.507,2.802
			c-0.127,0.372-0.43,1.186-0.68,1.542c-0.398,0.564-0.689,0.855-1.332,1.283c-0.831,0.536-1.956,0.909-2.787,0.909h-0.536
			c-2.948,0-5.869,0.028-8.79,0c-0.107,0-0.495-0.02-0.697-0.321c-0.243-0.362-0.107-0.75-0.08-0.829l0.884-2.814h0.215
			c0,0.054-0.024,0.135-0.027,0.187c-0.04,0.811,0.378,0.983,0.537,0.993c0.831,0.051,1.929,0.054,2.732,0.08
			c1.179,0,2.39,0.029,3.564-0.08c0.325-0.03,0.762-0.111,1.215-0.316c0.464-0.207,0.634-0.48,0.733-0.646
			c0.151-0.247,0.195-0.377,0.303-0.62c0.081-0.188,0.186-0.489,0.241-0.938c0.012-0.099,0.031-0.488-0.229-0.791
			c-0.319-0.373-0.896-0.495-1.029-0.55c0,0-2.122-0.515-2.884-0.724c-0.803-0.222-1.989-0.703-2.289-0.884
			c-0.297-0.178-0.951-0.454-0.884-1.903c0.126-2.767,1.136-3.98,1.393-4.313c0.466-0.6,0.992-1.099,1.555-1.475
			c0.946-0.632,1.93-0.616,2.6-0.616h8.039L47.063,34.047z"/>
		<path fill-rule="evenodd" clip-rule="evenodd" class="primarycolor" d="M51.269,28.14h-0.187c1.563,0,3.124,0,4.685,0
			c0.53,0,1.324,0.503,1.192,1.032L54.868,37.8c1.87-1.649,4.547-4.062,4.822-4.413c0.112-0.141-0.028-0.729-0.614-0.866
			c-0.024-0.02-0.027-0.014-0.027-0.014c1.827,0,3.626-0.026,5.427,0c0.291,0,0.608,0.134,0.688,0.381
			c0.084,0.256,0.006,0.293-0.028,0.351c-0.424,0.402-5.398,4.959-5.398,4.959h1.589c0.288,0.015,0.53,0.004,0.82,0.053
			c0.798,0.135,1.599,1.06,1.429,1.827c-0.202,0.909-0.752,3.293-1.694,7.146c-0.053,0.263-0.08,0.501,0.027,0.793
			c0.132,0.289,0.317,0.477,0.635,0.607c0.052,0.026,0.128,0.041,0.211,0.079c-1.694,0-3.388,0-5.056,0
			c-0.21,0-0.516-0.115-0.635-0.236c-0.131-0.135-0.229-0.318-0.105-0.821c0.445-1.826,0.926-3.652,1.376-5.479
			c0.026-0.159,0.053-0.317,0.053-0.504c-0.026-0.316-0.132-0.608-0.424-0.82c-0.159-0.104-0.331-0.185-0.635-0.212H54.18
			c-0.556,2.251-1.105,4.528-1.694,6.776c-0.044,0.166-0.097,0.317-0.105,0.477c-0.013,0.246,0.09,0.547,0.37,0.689
			c0.119,0.058,0.292,0.13,0.239,0.13c-1.376,0-2.753-0.006-4.156,0c-0.245,0.003-0.532-0.101-0.665-0.203
			c-0.368-0.29-0.235-0.695-0.155-1.093c1.402-6.061,2.832-12.147,4.208-18.237C52.327,28.696,51.612,28.326,51.269,28.14z"/>
		<path fill-rule="evenodd" clip-rule="evenodd" class="primarycolor" d="M3.156,48.704c4.207,0,8.28,0.003,12.434,0
			c1.106,0,2.204-0.358,3.02-0.988c0.489-0.377,0.738-0.809,0.866-1.074c0.155-0.324,0.241-0.617,0.322-0.912
			c0.482-1.634,0.942-3.304,1.429-4.929c0.018-0.059,0.355-1.209,0.098-1.771c-0.15-0.327-0.455-0.643-0.75-0.831
			c-0.295-0.187-0.607-0.346-0.912-0.455c-0.28-0.101-0.537-0.142-0.83-0.215c-0.094-0.022,0.144-0.06,0.241-0.08
			c0.536-0.113,1.018-0.242,1.5-0.482c0.241-0.107,0.429-0.241,0.563-0.374c0.241-0.269,0.428-0.643,0.535-0.966
			c0.35-0.884,0.617-2.331,0.832-3.269c0.053-0.215,0.194-0.815,0.188-1.152c-0.003-0.188,0.006-1.21-0.68-1.984
			c-0.488-0.549-0.86-0.72-1.224-0.857c-0.516-0.195-1.206-0.214-1.42-0.214c-4.369,0-13.192-0.028-13.187-0.01
			c0.013,0.039,1.065,0.076,1.17,0.565c0.034,0.157,0.012,0.41-0.015,0.544c-1.688,6.084-3.403,12.14-5.091,18.196
			c-0.027,0.135-0.054,0.267-0.081,0.402c-0.054,0.294,0.054,0.59,0.322,0.724c0.106,0.053,0.188,0.079,0.321,0.106
			C2.888,48.704,3.049,48.704,3.156,48.704L3.156,48.704z M10.606,36.083c0.455-1.608,0.884-3.216,1.339-4.851
			c1.313,0,2.626-0.004,3.912,0c0.571,0.002,1.292,0.031,1.624,0.636c0.271,0.494,0.029,1.716-0.042,1.963
			c-0.132,0.457-0.319,0.994-0.589,1.367c-0.077,0.107-0.282,0.464-1.002,0.759c-0.327,0.134-1.061,0.126-1.329,0.126
			C13.231,36.083,11.919,36.083,10.606,36.083L10.606,36.083z M8.301,45.274c0.509-2.037,1.045-4.1,1.582-6.137
			c-0.028-0.027,4.233,0,4.287,0c0.295,0,0.803,0.089,1.073,0.396c0.436,0.494,0.511,1.042,0.455,1.266
			c-0.286,1.129-0.6,2.353-0.884,3.377c-0.011,0.039-0.054,0.115-0.112,0.196c-0.456,0.638-1.553,0.896-1.953,0.902
			c-0.053,0.001-0.16,0-0.214,0H8.301z"/>
	</g>
	<g>
		<path class="primarycolor" d="M208.993,29.27c-0.026-0.586-0.513-0.771-0.94-0.771c-0.322,0-0.866,0.089-0.866,0.665
			c0,0.322,0.228,0.428,0.449,0.481l1.082,0.248c0.492,0.116,0.861,0.412,0.861,1.014c0,0.898-0.834,1.146-1.483,1.146
			c-0.703,0-0.978-0.211-1.146-0.364c-0.322-0.291-0.386-0.607-0.386-0.961h0.48c0,0.687,0.56,0.888,1.046,0.888
			c0.37,0,0.992-0.096,0.992-0.64c0-0.396-0.185-0.523-0.809-0.671l-0.775-0.179c-0.248-0.058-0.809-0.232-0.809-0.893
			c0-0.591,0.386-1.172,1.305-1.172c1.325,0,1.458,0.792,1.479,1.209H208.993z"/>
		<path class="primarycolor" d="M213.352,31.953v-2.239c0-0.111,0.012-0.592,0.012-0.946h-0.012l-1.066,3.185h-0.507l-1.067-3.179H210.7
			c0,0.348,0.011,0.829,0.011,0.94v2.239h-0.497v-3.792h0.735l1.082,3.206h0.011l1.078-3.206h0.729v3.792H213.352z"/>
	</g>
</g>
</svg>
