<?xml version="1.0" encoding="iso-8859-1"?>
<svg version="1.2" baseProfile="tiny" class="logocolor cctv" xmlns="http://www.w3.org/2000/svg" xmlns:xlink="http://www.w3.org/1999/xlink" viewBox="0 0 215 70" xml:space="preserve">
<g>
	<g>
	<path class="primarycolor" d="M5.897,25.436h6.81l3.271,3.368v4.095h-5.269v-2.453H8.295v8.959h2.414v-2.767h5.269v4.521l-3.471,3.368h-6.61
		l-3.313-3.424V28.689L5.897,25.436z"/>
	<path class="primarycolor" d="M31.279,25.436h8.452v5.01h-1.528v9.031h2.084v-2.98h5.025v8.031H31.279v-5.051h1.285v-9.031h-1.285V25.436z"/>
	<path class="primarycolor" d="M46.062,25.436h8.452v5.01h-1.528v9.031h2.084v-2.98h5.025v8.031H46.062v-5.051h1.284v-9.031h-1.284V25.436z"/>
	<path class="primarycolor" d="M60.845,25.436h14.506v6.107h-5.07v-1.098H67.84v1.982h4.497v4.823H67.84v2.226h2.441v-1.355h5.07v6.406H60.845v-5.051
		h1.284v-9.031h-1.284V25.436z"/>
	<path class="primarycolor" d="M75.965,28.804l3.312-3.368h6.981l3.24,3.31v3.297H84.26v-1.598h-2.655v9.031h2.655v-1.641h-0.928v-4.651h6.167v11.343
		H79.277l-3.312-3.368V28.804z"/>
	<path class="primarycolor" d="M90.186,25.436h14.506v6.107h-5.069v-1.098h-2.441v1.982h4.497v4.823h-4.497v2.226h2.441v-1.355h5.069v6.406H90.186v-5.051
		h1.286v-9.031h-1.286V25.436z"/>
	<path class="primarycolor" d="M110.465,25.436h6.809l3.27,3.375v4.104h-5.268v-2.46h-2.412v8.979h2.412V36.66h5.268v4.532l-3.47,3.373h-6.608
		l-3.313-3.431V28.696L110.465,25.436z"/>
	<path class="primarycolor" d="M120.884,25.436h8.452v5.019h-1.528v9.051h2.083v-2.989h5.025v8.05h-14.032v-5.061h1.286v-9.051h-1.286V25.436z"/>
	<path class="primarycolor" d="M135.345,25.436h8.223v5.019h-1.299v9.051h1.299v5.061h-8.223v-5.061h1.283v-9.051h-1.283V25.436z"/>
	<path class="primarycolor" d="M147.362,25.436h6.809l3.27,3.375v4.104h-5.268v-2.46h-2.412v8.979h2.412V36.66h5.268v4.532l-3.47,3.373h-6.608
		l-3.311-3.431V28.696L147.362,25.436z"/>
	<path class="primarycolor" d="M157.854,25.436h7.809v4.661h-1.114v2.46l2.198-2.46h-0.3v-4.661h7.952v5.004h-1.962l-2.508,2.7l2.871,6.365h1.896v5.061
		h-8.149v-4.947l1.026,0.007l-1.133-2.516l-1.779,1.868v0.641h1.057v4.947h-7.864v-5.061h1.313v-9.065h-1.313V25.436z"/>
	<g>
		<path class="secondarycolor" d="M174.918,25.436h16.202v7.007h-4.455v-1.988h-0.87v9.051h1.327v5.061h-8.253v-5.061h1.401v-9.051h-0.872
			v1.988h-4.48V25.436z"/>
		<path class="secondarycolor" d="M191.56,25.436h8.28v5.019l-0.907,0.003l1.521,4.804l1.527-4.807h-0.912v-5.019h8.192v5.019h-1.957
			l-4.395,14.111h-4.74l-4.597-14.111h-2.013V25.436z"/>
	</g>
	<path class="primarycolor" d="M211.178,25.583c0.697,0,1.237,0.54,1.237,1.214c0,0.688-0.54,1.22-1.245,1.22c-0.696,0-1.25-0.533-1.25-1.22
		c0-0.674,0.554-1.214,1.25-1.214 M211.163,25.826c-0.533,0-0.932,0.437-0.932,0.971c0,0.539,0.398,0.97,0.946,0.97
		c0.535,0.006,0.926-0.431,0.926-0.97c0-0.534-0.391-0.971-0.934-0.971H211.163z M210.979,27.426h-0.279v-1.207
		c0.109-0.022,0.263-0.045,0.464-0.045c0.23,0,0.333,0.037,0.423,0.096c0.065,0.052,0.117,0.149,0.117,0.26
		c0,0.14-0.104,0.243-0.25,0.288v0.015c0.118,0.038,0.185,0.133,0.221,0.297c0.039,0.185,0.06,0.259,0.089,0.295h-0.304
		c-0.037-0.044-0.06-0.148-0.095-0.289c-0.024-0.133-0.097-0.192-0.254-0.192h-0.132V27.426z M210.986,26.745h0.134
		c0.154,0,0.279-0.051,0.279-0.178c0-0.111-0.082-0.185-0.259-0.185c-0.072,0-0.125,0.006-0.154,0.014V26.745z"/>
	<path class="primarycolor" d="M20.023,25.436h7.152l3.312,3.368v12.355l-3.312,3.368h-7.21l-3.256-3.368v-12.47L20.023,25.436z M22.293,30.445v9.031
		h2.554v-9.031H22.293z"/>
</g>
</svg>
