<?xml version="1.0" encoding="iso-8859-1"?>
<svg version="1.2" baseProfile="tiny" class="logocolor du" xmlns="http://www.w3.org/2000/svg" xmlns:xlink="http://www.w3.org/1999/xlink" viewBox="0 0 215 70" xml:space="preserve">
<g>
	<g>
		<path fill="none" d="M7.441,4.533H4.623l0.002,13.934h3.058c4.081,0,6.916-2.899,6.916-7.141
			C14.599,7.138,11.845,4.533,7.441,4.533z"/>
		<path class="primarycolor" d="M12.193,3.245c-1.181-0.376-2.497-0.591-3.946-0.591L0.231,2.657l1.707,1.318v15.268l-1.706,1.317
			l7.129-0.001c4.214,0,7.06-1.288,8.832-3.972c0.994-1.531,1.53-3.355,1.53-5.235C17.724,7.54,15.522,4.347,12.193,3.245z
			 M7.683,18.467H4.625L4.623,4.533h2.818c4.403,0,7.158,2.604,7.158,6.793C14.599,15.567,11.764,18.467,7.683,18.467z"/>
	</g>
	<polygon class="primarycolor" points="68.308,19.246 68.308,3.974 70.012,2.656 63.936,2.656 65.641,3.975 65.641,19.244 63.937,20.561 
		70.01,20.561 	"/>
	<polygon class="primarycolor" points="97.688,19.246 97.688,3.974 99.393,2.656 93.315,2.656 95.022,3.975 95.022,19.244 93.317,20.561 
		99.389,20.561 	"/>
	<polygon class="primarycolor" points="97.688,42.525 97.688,27.253 99.393,25.937 93.315,25.937 95.022,27.254 95.022,42.525 
		93.317,43.84 99.389,43.84 	"/>
	<polygon class="primarycolor" points="175.688,42.525 175.688,27.253 177.394,25.937 171.317,25.937 173.022,27.254 173.022,42.525 
		171.317,43.84 177.392,43.84 	"/>
	<path class="primarycolor" d="M70.64,25.938h-5.674l1.706,1.317l0.001,9.112c-0.001,2.426-0.623,5.486-4.518,5.486
		c-4.758,0-4.611-4.152-4.611-4.986l0.001-9.612l1.706-1.317h-6.376l1.703,1.314l0.004,9.277c0,5.699,4.132,7.686,6.88,7.686
		c2.958,0,7.466-1.17,7.466-8.027l0.006-8.933L70.64,25.938z"/>
	<path class="primarycolor" d="M116.81,16.836c0,0-0.734,0.707-1.451,1.065c-1.18,0.617-2.443,0.939-3.73,0.939
		c-4.295,0-7.147-2.925-7.147-7.435c0-4.429,2.959-7.251,7.147-7.251c1.074,0,2.121,0.216,3.086,0.618
		c1.021,0.456,1.396,0.89,2.096,1.729l-0.002-4.53l-1.123,0.872c-0.34-0.072-0.719-0.147-1.078-0.207
		c-0.521-0.087-2.018-0.332-3.543-0.332c-5.584,0-9.61,3.893-9.61,9.262c0,3.65,2.146,7.114,5.288,8.483
		c1.288,0.564,2.765,0.859,4.349,0.859c1.639,0,2.795-0.154,4.586-0.66l1.131,0.869L116.81,16.836z"/>
	<polygon class="primarycolor" points="180.083,25.928 180.083,29.847 181.624,27.875 186.312,27.867 186.31,42.518 184.603,43.838 
		190.726,43.838 189.019,42.518 189.022,27.867 193.731,27.875 195.274,29.847 195.276,25.94 	"/>
	<g>
		<path fill="none" d="M150.394,30.862c0-2.509-1.941-3.102-4.357-3.102h-1.949v6.067h1.977c0.805,0,1.621-0.107,2.186-0.27
			C149.349,33.209,150.394,32.601,150.394,30.862z"/>
		<path class="primarycolor" d="M154.485,43.01c-0.506-0.41-1.215-1.564-1.834-2.479l-3.27-5.266c0.902-0.297,1.686-0.686,2.006-0.943
			c1.316-1.061,1.744-2.391,1.744-3.689c0-2.952-2.209-4.698-5.941-4.698l-7.416,0.002l1.705,1.316v15.269l-1.705,1.316l5.984,0.002
			l-1.676-1.295l0.004-6.758h0.805c0.398-0.012,1.059-0.012,1.754-0.045l5.029,8.098h4.375
			C155.245,43.492,154.771,43.24,154.485,43.01z M146.063,33.828h-1.977v-6.067h1.949c2.416,0,4.357,0.593,4.357,3.102
			c0,1.738-1.045,2.347-2.145,2.696C147.685,33.721,146.868,33.828,146.063,33.828z"/>
	</g>
	<path class="primarycolor" d="M120.372,25.937h-5.783l1.705,1.317l-5.295,11.701l-4.784-10.632c-0.136-0.29-0.34-0.716-0.54-1.126
		l1.632-1.261h-6.427l1.657,1.28l8.139,17.348l8.016-17.329L120.372,25.937z"/>
	<polygon class="primarycolor" points="212.853,27.255 214.769,25.937 208.646,25.937 210.345,27.251 206.419,33.693 202.343,27.246 
		204.038,25.937 197.235,25.937 199.153,27.255 199.978,28.539 204.729,35.947 204.728,42.521 203.024,43.838 209.204,43.838 
		207.522,42.537 207.521,35.947 	"/>
	<path class="primarycolor" d="M164.751,33.777c-1.697-0.783-4.857-1.193-4.857-3.705c0-1.153,1.338-2.338,3.061-2.357
		c1.682-0.019,2.607,0.611,3.232,1.056c0.33,0.235,0.641,0.502,1.105,1.315v-3.845h-0.002l-0.002-0.955l-1.102,0.865
		c-0.092-0.021-0.205-0.045-0.352-0.082l-0.492-0.161c-1.074-0.269-1.695-0.322-2.447-0.322c-3.033,0-5.695,2.088-5.695,4.747
		c0,3.894,3.555,4.671,5.596,5.556c2.553,1.107,3.031,2.074,2.928,3.203c-0.164,1.793-1.135,2.842-3.857,2.842
		c-1.449,0-3.479-0.779-4.82-2.283v3.096h-0.002l0.004,1.709l1.305-0.998c1.191,0.359,2.238,0.732,3.408,0.732
		c4.697,0,6.693-3.018,6.764-4.717C168.595,37.76,168.554,35.533,164.751,33.777z"/>
	<polygon class="primarycolor" points="134.681,41.715 126.579,41.719 126.575,35.438 133.132,35.438 134.448,37.139 134.45,31.555 
		133.132,33.262 126.575,33.264 126.575,27.707 134.688,27.703 136.003,29.404 135.999,25.932 122.163,25.937 123.866,27.252 
		123.858,42.523 122.153,43.84 136.001,43.84 135.999,40.006 	"/>
	<polygon class="primarycolor" points="89.224,44.299 89.227,27.255 90.931,25.938 85.425,25.938 87.129,27.254 87.13,38.545 
		73.789,25.443 73.786,42.518 72.078,43.838 77.586,43.836 75.879,42.518 75.882,31.191 	"/>
	<polygon class="primarycolor" points="89.224,21.026 89.227,3.98 90.931,2.663 85.425,2.663 87.129,3.979 87.13,15.271 73.789,2.169 
		73.786,19.244 72.078,20.563 77.586,20.561 75.879,19.244 75.882,7.917 	"/>
	<polygon class="primarycolor" points="157.513,21.026 157.515,3.98 159.22,2.663 153.714,2.663 155.417,3.979 155.417,15.271 
		142.075,2.169 142.073,19.244 140.366,20.563 145.874,20.561 144.167,19.244 144.169,7.917 	"/>
	<path class="primarycolor" d="M56.792,9.969"/>
	<polygon class="primarycolor" points="61.875,20.561 60.168,19.243 58.735,2.182 50.761,15.735 43.287,2.173 41.661,19.242 
		39.954,20.561 45.41,20.561 43.711,19.248 43.71,19.242 44.667,9.925 50.621,21.017 56.792,9.969 57.529,19.312 55.911,20.561 	"/>
	<path class="primarycolor" d="M29.582,20.91c-5.073,0-9.149-4.081-9.149-9.478c0-5.395,3.861-9.127,9.149-9.127
		c5.315,0,9.176,3.732,9.176,9.154C38.758,16.829,34.683,20.91,29.582,20.91z M29.712,4.219c-3.49,0-6.272,3.16-6.272,7.322
		c0,4.24,2.76,7.463,6.143,7.463c3.463,0,6.17-3.114,6.17-7.41C35.752,7.165,33.283,4.219,29.712,4.219z"/>
	<g>
		<path fill="none" d="M134.093,13.326c-0.004-0.009-0.004-0.019-0.006-0.025c-0.842-3.658-2.631-6.885-4.941-8.344
			c-2.268,1.434-4.08,4.779-4.926,8.315c-0.006,0.018-0.008,0.035-0.012,0.054H134.093z"/>
		<path class="primarycolor" d="M133.173,20.561h5.713l-1.654-1.279c-0.117-2.109-0.496-6.397-1.719-9.601
			c-2.32-6.08-6.428-7.542-6.428-7.542s-4.061,1.51-6.48,7.553c-1.361,3.402-1.697,7.521-1.777,9.575l-1.676,1.294h6.277
			l-1.785-1.495c0.023-0.511,0-1.759,0.359-3.908l10.32-0.003c0.244,1.379,0.359,3.032,0.416,4.145L133.173,20.561z M129.146,4.957
			c2.311,1.459,4.1,4.686,4.941,8.344c0.002,0.007,0.002,0.017,0.006,0.025h-9.885c0.004-0.019,0.006-0.036,0.012-0.054
			C125.065,9.736,126.878,6.391,129.146,4.957z"/>
	</g>
	<g>
		<polygon fill="none" points="16.824,27.756 16.822,27.756 16.822,27.756 		"/>
		<polygon fill="none" points="19.53,27.756 19.528,27.756 19.53,27.756 		"/>
		<path fill="none" d="M15.824,28.619c0.027-0.004,0.053-0.008,0.08-0.009c0.088-0.001,0.174,0.011,0.257,0.031
			c0.005-0.076,0.019-0.152,0.043-0.227c0.027-0.1,0.015-0.213-0.04-0.298c-0.022-0.035-0.059-0.075-0.113-0.097
			c-0.105-0.018-0.194-0.004-0.272,0.056l-0.027,0.019l-0.013,0.008c-0.096,0.066-0.134,0.167-0.143,0.302
			C15.626,28.61,15.763,28.621,15.824,28.619z"/>
		<path fill="none" d="M30.675,57.563c0.153,0.414,0.801,1.961,1.996,1.961c1.089,0,0.81-1.701,0.81-1.701s1.246,1.363,1.246,2.637
			c0,0.719-0.605,1.275-1.454,1.275c-0.847,0-1.549-0.557-2.082-1.297c-0.46-0.641-0.811-1.996-0.992-2.742
			c-0.148,0.07-0.309,0.109-0.454,0.131c0.173,1.965,1.247,4.361,1.247,6.035c0,1.15-0.776,2.406-1.28,3.1
			c2.446-1.338,6.341-4.301,9.705-8.93l-0.613-0.469H30.675z"/>
		<path fill="none" d="M20.142,28.392c0.029,0.083,0.044,0.168,0.05,0.253c0.074-0.019,0.151-0.028,0.229-0.029
			c0.103-0.004,0.208-0.052,0.271-0.13c0.026-0.032,0.053-0.079,0.057-0.137c-0.016-0.105-0.056-0.187-0.137-0.242l-0.026-0.02
			l-0.012-0.011c-0.092-0.071-0.201-0.075-0.332-0.042c-0.167,0.084-0.157,0.201-0.138,0.266
			C20.118,28.33,20.131,28.36,20.142,28.392z"/>
		<path fill="none" d="M17.738,30.243c0.099,0.052,0.217,0.07,0.305,0.054c0.04-0.005,0.081-0.008,0.122-0.008
			c0.066,0,0.132,0.008,0.195,0.019l0.001-0.006c0.089,0.018,0.209-0.002,0.309-0.054l0.615-0.846l-0.003-0.003
			c0.003-0.005,0.081-0.088,0.303-0.45c0.078-0.127,0.096-0.256,0.051-0.382c-0.048-0.14-0.175-0.269-0.314-0.319
			c-0.185-0.067-0.278-0.028-0.463,0.048c-0.168,0.068-0.378,0.154-0.683,0.154c-0.306,0-0.515-0.086-0.684-0.154
			c-0.186-0.076-0.278-0.115-0.463-0.048c-0.14,0.051-0.266,0.18-0.315,0.319c-0.031,0.088-0.029,0.178,0,0.268L17.738,30.243z"/>
		<path fill="none" d="M38.936,50.049c0.941,0.182,2.076,0.848,3.212,0.848c0.848,0,1.388-0.611,1.634-0.965
			c0,0,0.03-0.063,0.054-0.117c0.016-0.037,0.022-0.082,0.036-0.121l-4.939,0.002L38.936,50.049z"/>
		<path fill="none" d="M40.798,51.559c-0.588-0.43-1.311-0.799-1.865-0.992v0.723c0.447,0.232,1.367,0.834,1.367,1.836
			c0,1.045-1.157,0.893-1.157,0.893s0.173,0.967,1.378,0.967c0.446,0,1.226-0.551,1.226-1.609
			C41.748,52.512,41.499,52.068,40.798,51.559z"/>
		<polygon fill="none" points="21.238,29 21.238,29.001 21.239,29.002 		"/>
		<path fill="none" d="M38.934,43.572v4.563c0.447-0.232,1.367-0.834,1.367-1.836c0-1.047-1.157-0.895-1.157-0.895
			s0.173-0.965,1.378-0.965c0.446,0,1.226,0.551,1.226,1.609c0,0.863-0.249,1.305-0.95,1.818c-0.588,0.428-1.311,0.652-1.865,0.797
			v0.432c0.941-0.148,2.131-0.768,3.27-0.768c0.808,0,1.453,0.533,1.823,0.934c1.192-3.402,1.938-7.277,1.938-11.635
			c0,0,0-0.059,0-0.16h-0.046L38.934,43.572z"/>
		<polygon fill="none" points="22.075,31.575 22.075,31.577 22.075,31.577 		"/>
		<circle fill="none" cx="18.165" cy="31.41" r="0.585"/>
		<path fill="none" d="M20.873,32.65l-1.656-0.538c-0.11,0.018-0.217,0.072-0.279,0.138c-0.076,0.07-0.167,0.135-0.26,0.182
			c-0.083,0.038-0.168,0.125-0.218,0.225v1.047h0.005c-0.001,0.006-0.015,0.119,0.018,0.541c0.012,0.15,0.073,0.264,0.183,0.34
			c0.122,0.084,0.299,0.115,0.442,0.074c0.189-0.055,0.242-0.141,0.347-0.313c0.095-0.154,0.214-0.346,0.461-0.525l0,0
			c0.248-0.18,0.467-0.234,0.644-0.277c0.194-0.047,0.292-0.07,0.402-0.234c0.083-0.121,0.11-0.301,0.067-0.442
			C21.002,32.777,20.949,32.706,20.873,32.65z"/>
		<polygon fill="none" points="19.229,35.178 19.23,35.178 19.229,35.178 		"/>
		<path fill="none" d="M21.355,31.105c-0.118-0.139-0.265-0.312-0.359-0.602c-0.094-0.291-0.077-0.518-0.063-0.698
			c0.015-0.2,0.022-0.301-0.098-0.455c-0.092-0.117-0.253-0.197-0.401-0.201c-0.093-0.001-0.178,0.027-0.254,0.082l-1.019,1.404
			c-0.02,0.111-0.004,0.232,0.04,0.313c0.042,0.094,0.078,0.198,0.092,0.303c0.011,0.09,0.067,0.198,0.147,0.277l0.994,0.323
			l0.002-0.004c0.004,0.001,0.107,0.05,0.521,0.149c0.145,0.035,0.273,0.012,0.379-0.069c0.118-0.09,0.201-0.249,0.206-0.396
			C21.55,31.334,21.485,31.259,21.355,31.105z"/>
		<polygon fill="none" points="21.419,33.586 21.42,33.586 21.42,33.586 		"/>
		<path fill="none" d="M18.429,35.063c-0.023-0.012-0.047-0.023-0.068-0.039c-0.073-0.051-0.135-0.109-0.19-0.176
			c-0.046,0.055-0.099,0.105-0.157,0.148c-0.087,0.064-0.148,0.17-0.153,0.275c-0.002,0.039,0.003,0.094,0.034,0.141
			c0.075,0.078,0.155,0.121,0.254,0.117h0.033l0.015,0.004c0.117,0.002,0.207-0.057,0.293-0.162
			C18.585,35.186,18.479,35.098,18.429,35.063z"/>
		<path fill="none" d="M17.618,32.402c-0.092-0.052-0.178-0.118-0.252-0.19c-0.062-0.067-0.171-0.123-0.282-0.14
			c0,0-1.111,0.352-1.504,0.514c-0.138,0.057-0.227,0.15-0.266,0.278c-0.043,0.142-0.016,0.319,0.067,0.442
			c0.11,0.164,0.208,0.188,0.402,0.234c0.177,0.043,0.397,0.098,0.644,0.277c0.247,0.178,0.366,0.371,0.461,0.525
			c0.105,0.172,0.158,0.258,0.347,0.311c0.142,0.041,0.32,0.012,0.442-0.072c0.077-0.055,0.128-0.127,0.157-0.217v-1.74
			C17.786,32.525,17.7,32.439,17.618,32.402z"/>
		<polygon fill="none" points="14.273,31.57 14.273,31.573 14.273,31.573 		"/>
		<polygon fill="none" points="14.924,33.584 14.925,33.584 14.924,33.584 		"/>
		<path fill="none" d="M14.412,32.311c-0.039,0.01-0.087,0.031-0.124,0.076c-0.05,0.094-0.066,0.184-0.033,0.277l0.009,0.032
			l0.004,0.014c0.032,0.112,0.116,0.18,0.242,0.229c0.208,0.035,0.259-0.095,0.276-0.153c0.006-0.025,0.009-0.051,0.017-0.076
			c0.025-0.085,0.063-0.162,0.108-0.234c-0.067-0.028-0.132-0.063-0.193-0.105C14.63,32.309,14.513,32.284,14.412,32.311z"/>
		<path fill="none" d="M17.062,31.219c0-0.007,0.002-0.012,0.003-0.019c0-0.001,0.001-0.004,0.001-0.007l0,0
			c0.021-0.105,0.058-0.204,0.106-0.297l-0.003-0.002c0.045-0.081,0.061-0.203,0.041-0.315c0,0-0.673-0.942-0.948-1.267
			c-0.097-0.113-0.214-0.17-0.348-0.167c-0.148,0.004-0.309,0.084-0.4,0.201c-0.121,0.154-0.114,0.255-0.098,0.455
			c0.014,0.182,0.03,0.406-0.064,0.697l0,0c-0.095,0.29-0.241,0.463-0.358,0.603c-0.13,0.151-0.195,0.229-0.188,0.426
			c0.005,0.147,0.089,0.308,0.207,0.397c0.074,0.057,0.159,0.083,0.253,0.083l1.657-0.539
			C16.994,31.397,17.045,31.303,17.062,31.219z"/>
		<path fill="none" d="M16.313,48.418c-1.106,0-1.623,0.912-1.757,1.199c-0.025,0.055-0.038,0.088-0.038,0.088h0.068h0.816
			l4.251,0.002l0.005-0.412c-0.002,0-0.005-0.002-0.007-0.002C18.698,49.109,17.466,48.418,16.313,48.418z"/>
		<path fill="none" d="M25.947,51.84c-0.003-0.012-0.006-0.027-0.015-0.027s-0.015,0.016-0.018,0.027l-0.278,0.752
			c-0.003,0.012,0,0.018,0.012,0.018h0.286h0.268c0.015,0,0.018-0.006,0.015-0.016l-0.057-0.158L25.947,51.84z"/>
		<path fill="none" d="M24.935,49.365c0.062,0.02,0.148,0.029,0.221,0.029c0.116,0,0.153-0.012,0.206-0.051
			c0.086-0.063,0.17-0.195,0.17-0.434c0-0.41-0.272-0.529-0.443-0.529c-0.072,0-0.124,0.002-0.154,0.012
			c-0.02,0.006-0.025,0.018-0.025,0.041v0.879C24.91,49.344,24.915,49.355,24.935,49.365z"/>
		<path fill="none" d="M27.136,45.736c-0.008,0-0.014,0.016-0.017,0.025l-0.279,0.752c-0.002,0.012,0,0.02,0.011,0.02h0.554
			c0.015,0,0.018-0.008,0.015-0.018l-0.27-0.754C27.148,45.752,27.145,45.736,27.136,45.736z"/>
		<path fill="none" d="M25.699,43.93c-0.563,0.133-1.093,0.26-1.462,0.26c-0.454,0-0.959-0.197-1.317-0.371v10.594
			c0.123,0.037,0.304,0.084,0.537,0.121c0.233,0.035,0.52,0.064,0.85,0.064c0.51,0,1.029-0.117,1.531-0.23
			c0.497-0.111,1.009-0.229,1.508-0.229c0.616,0,1.233,0.219,1.64,0.4V44.104c-0.315-0.15-1.037-0.461-1.64-0.461
			C26.914,43.643,26.296,43.789,25.699,43.93z M24.24,45.473c0.208-0.191,0.483-0.307,0.914-0.307c0.179,0,0.287,0.012,0.42,0.029
			c0.11,0.014,0.203,0.041,0.289,0.049c0.032,0.004,0.043,0.018,0.043,0.035c0,0.021-0.008,0.057-0.014,0.158
			c-0.006,0.096-0.004,0.256-0.009,0.314c-0.003,0.043-0.008,0.064-0.035,0.064c-0.023,0-0.028-0.021-0.028-0.063
			c-0.003-0.09-0.041-0.191-0.113-0.268c-0.095-0.102-0.321-0.18-0.587-0.18c-0.252,0-0.417,0.064-0.544,0.18
			c-0.211,0.195-0.266,0.469-0.266,0.75c0,0.689,0.524,1.031,0.912,1.031c0.257,0,0.413-0.029,0.529-0.162
			c0.049-0.055,0.087-0.139,0.098-0.191c0.009-0.047,0.015-0.059,0.038-0.059c0.02,0,0.026,0.021,0.026,0.043
			c0,0.035-0.035,0.287-0.064,0.387c-0.014,0.049-0.025,0.063-0.075,0.084c-0.116,0.045-0.336,0.066-0.521,0.066
			c-0.396,0-0.729-0.088-0.992-0.316c-0.284-0.248-0.359-0.572-0.359-0.854C23.901,46.068,23.962,45.727,24.24,45.473z
			 M24.91,49.699c0,0.221,0.002,0.406,0.014,0.51c0.009,0.084,0.026,0.148,0.113,0.16c0.043,0.006,0.107,0.012,0.141,0.012
			c0.023,0,0.035,0.01,0.035,0.023c0,0.02-0.021,0.029-0.058,0.029c-0.168,0-0.382-0.01-0.425-0.01c-0.056,0-0.238,0.01-0.354,0.01
			c-0.038,0-0.058-0.01-0.058-0.029c0-0.014,0.012-0.023,0.047-0.023c0.043,0,0.078-0.006,0.104-0.012
			c0.058-0.012,0.072-0.076,0.084-0.16c0.012-0.104,0.014-0.287,0.014-0.504c0-0.035,0-0.072,0-0.111v-0.51
			c0-0.439,0-0.52-0.005-0.613c-0.006-0.098-0.029-0.145-0.125-0.166c-0.023-0.004-0.072-0.008-0.113-0.008
			c-0.032,0-0.049-0.006-0.049-0.025s0.021-0.027,0.063-0.027c0.153,0,0.335,0.01,0.396,0.01c0.099,0,0.319-0.01,0.408-0.01
			c0.045,0,0.091,0.002,0.136,0.006c0.14,0.008,0.278,0.039,0.396,0.119c0.08,0.055,0.19,0.197,0.196,0.385
			c0,0.004,0.001,0.008,0.001,0.012c0,0.215-0.09,0.412-0.382,0.648c0.077,0.096,0.146,0.186,0.214,0.27
			c0.159,0.199,0.294,0.365,0.414,0.492c0.162,0.168,0.281,0.188,0.324,0.197c0.032,0.004,0.058,0.008,0.081,0.008
			s0.035,0.01,0.035,0.023c0,0.023-0.021,0.029-0.055,0.029h-0.275c-0.162,0-0.234-0.016-0.31-0.057
			c-0.125-0.066-0.234-0.201-0.396-0.426c-0.063-0.086-0.13-0.184-0.186-0.26c-0.046-0.066-0.083-0.119-0.101-0.139
			c-0.015-0.018-0.032-0.02-0.053-0.02l-0.251-0.006c-0.015,0-0.023,0.006-0.023,0.023v0.041
			C24.91,49.629,24.91,49.662,24.91,49.699z M24.41,53.252c0.009,0.08,0.026,0.145,0.113,0.154c0.041,0.008,0.104,0.014,0.147,0.014
			c0.032,0,0.046,0.008,0.046,0.023c0,0.02-0.023,0.027-0.055,0.027c-0.191,0-0.373-0.008-0.454-0.008
			c-0.067,0-0.249,0.008-0.365,0.008c-0.038,0-0.058-0.008-0.058-0.027c0-0.016,0.012-0.023,0.046-0.023
			c0.043,0,0.078-0.006,0.104-0.014c0.058-0.01,0.075-0.074,0.084-0.158c0.015-0.121,0.015-0.35,0.015-0.615v-1.188l-0.431,0.012
			c-0.168,0.006-0.238,0.02-0.281,0.084c-0.029,0.043-0.043,0.078-0.049,0.102c-0.006,0.023-0.015,0.035-0.032,0.035
			c-0.021,0-0.027-0.014-0.027-0.047c0-0.047,0.055-0.311,0.061-0.332c0.009-0.037,0.018-0.055,0.035-0.055
			c0.023,0,0.052,0.027,0.125,0.033c0.084,0.01,0.194,0.016,0.29,0.016h1.146c0.186,0,0.254-0.029,0.278-0.029
			c0.02,0,0.023,0.016,0.023,0.061c0,0.061-0.009,0.26-0.009,0.336c-0.002,0.029-0.009,0.047-0.025,0.047
			c-0.024,0-0.029-0.016-0.033-0.059l-0.002-0.031c-0.005-0.076-0.084-0.156-0.341-0.162l-0.365-0.01v1.188
			C24.396,52.898,24.396,53.127,24.41,53.252z M27.076,53.471c-0.104,0-0.316,0-0.547-0.004c-0.052-0.004-0.087-0.004-0.087-0.023
			c0-0.018,0.012-0.023,0.041-0.027c0.02-0.006,0.04-0.031,0.025-0.066l-0.223-0.574c-0.005-0.014-0.014-0.02-0.029-0.02h-0.51
			h-0.156c-0.015,0-0.021,0.006-0.026,0.021l-0.065,0.17l-0.079,0.205c-0.029,0.072-0.044,0.143-0.044,0.178
			c0,0.053,0.026,0.09,0.116,0.09h0.044c0.035,0,0.043,0.006,0.043,0.023c0,0.023-0.018,0.027-0.049,0.027
			c-0.093,0-0.217-0.008-0.306-0.008c-0.032,0-0.191,0.008-0.342,0.008c-0.022,0-0.035-0.002-0.044-0.01
			c-0.005-0.004-0.01-0.01-0.01-0.018c0-0.018,0.012-0.023,0.035-0.023c0.009,0,0.02,0,0.03-0.002
			c0.022-0.002,0.043-0.002,0.06-0.004c0.118-0.016,0.174-0.098,0.226-0.217c0.007-0.016,0.013-0.027,0.02-0.045l0.727-1.816
			c0.034-0.084,0.052-0.115,0.081-0.115c0.026,0,0.044,0.025,0.072,0.092c0.038,0.088,0.198,0.49,0.363,0.904
			c0.134,0.336,0.272,0.68,0.354,0.877c0.11,0.258,0.194,0.299,0.255,0.313c0.043,0.01,0.086,0.014,0.121,0.014
			c0.023,0,0.038,0.002,0.038,0.023C27.208,53.467,27.183,53.471,27.076,53.471z M27.341,50.227c0.009,0.08,0.029,0.131,0.116,0.143
			c0.04,0.006,0.104,0.012,0.147,0.012c0.032,0,0.046,0.01,0.046,0.023c0,0.02-0.023,0.029-0.055,0.029
			c-0.191,0-0.373-0.01-0.452-0.01c-0.066,0-0.249,0.01-0.365,0.01c-0.037,0-0.058-0.01-0.058-0.029
			c0-0.014,0.012-0.023,0.046-0.023c0.043,0,0.078-0.006,0.104-0.012c0.057-0.012,0.075-0.061,0.083-0.145
			c0.014-0.123,0.014-0.352,0.014-0.631v-0.51c0-0.439,0-0.52-0.005-0.613c-0.006-0.098-0.035-0.148-0.099-0.162
			c-0.032-0.008-0.069-0.012-0.104-0.012c-0.029,0-0.046-0.006-0.046-0.029c0-0.016,0.022-0.023,0.069-0.023
			c0.11,0,0.292,0.01,0.376,0.01c0.072,0,0.243-0.01,0.353-0.01c0.039,0,0.061,0.008,0.061,0.023c0,0.023-0.017,0.029-0.046,0.029
			c-0.029,0-0.052,0.004-0.087,0.008c-0.079,0.016-0.101,0.064-0.108,0.166c-0.005,0.094-0.005,0.174-0.005,0.613v0.51
			C27.329,49.873,27.329,50.102,27.341,50.227z M28.453,51.328c0,0.037-0.012,0.121-0.012,0.346c0,0.064-0.008,0.088-0.031,0.088
			c-0.021,0-0.029-0.018-0.029-0.053c0-0.025-0.014-0.115-0.075-0.191c-0.043-0.055-0.127-0.141-0.315-0.141
			c-0.214,0-0.345,0.123-0.345,0.297c0,0.135,0.067,0.234,0.307,0.418l0.082,0.061c0.347,0.27,0.475,0.463,0.475,0.738
			c0,0.166-0.064,0.367-0.272,0.502c-0.144,0.094-0.307,0.119-0.46,0.119c-0.167,0-0.298-0.02-0.422-0.074
			c-0.046-0.021-0.055-0.035-0.055-0.1c0-0.158,0.012-0.332,0.015-0.377s0.012-0.076,0.035-0.076c0.026,0,0.029,0.025,0.029,0.049
			c0,0.037,0.012,0.098,0.026,0.146c0.063,0.215,0.234,0.293,0.414,0.293c0.261,0,0.388-0.176,0.388-0.33
			c0-0.143-0.043-0.277-0.284-0.463l-0.132-0.104c-0.319-0.25-0.429-0.451-0.429-0.686c0-0.318,0.266-0.547,0.668-0.547
			c0.188,0,0.31,0.027,0.385,0.049C28.439,51.299,28.453,51.307,28.453,51.328z M28.254,47.33c0.043,0.01,0.087,0.012,0.122,0.012
			c0.023,0,0.038,0.004,0.038,0.023c0,0.023-0.026,0.029-0.133,0.029c-0.104,0-0.316,0-0.547-0.006
			c-0.052-0.002-0.086-0.002-0.086-0.023c0-0.018,0.011-0.023,0.041-0.025c0.02-0.006,0.041-0.031,0.026-0.066l-0.222-0.574
			c-0.006-0.016-0.015-0.021-0.029-0.021h-0.666c-0.015,0-0.021,0.006-0.026,0.023l-0.145,0.375
			c-0.029,0.072-0.043,0.143-0.043,0.176c0,0.053,0.026,0.09,0.116,0.09h0.043c0.035,0,0.043,0.006,0.043,0.023
			c0,0.023-0.018,0.029-0.049,0.029c-0.093,0-0.217-0.008-0.307-0.008c-0.032,0-0.191,0.008-0.342,0.008
			c-0.037,0-0.055-0.006-0.055-0.029c0-0.018,0.012-0.023,0.034-0.023c0.027,0,0.067-0.002,0.09-0.006
			c0.133-0.018,0.188-0.115,0.246-0.26l0.727-1.816c0.035-0.084,0.052-0.115,0.081-0.115c0.027,0,0.043,0.023,0.073,0.092
			c0.07,0.158,0.533,1.34,0.718,1.779C28.109,47.275,28.193,47.316,28.254,47.33z"/>
		<path fill="none" d="M21.623,44.072v11.385c0.123,0.031,0.293,0.072,0.491,0.115c0.506,0.113,1.204,0.236,1.814,0.236
			c0.625,0,1.331-0.121,1.954-0.227c0.523-0.092,0.975-0.168,1.322-0.168c0.537,0,1.026,0.166,1.305,0.281
			c0.097-0.164,0.208-0.342,0.338-0.541c-0.342-0.16-0.937-0.396-1.501-0.396c-0.43,0-0.887,0.104-1.372,0.213
			c-0.535,0.119-1.088,0.244-1.667,0.244c-0.669,0-1.18-0.104-1.487-0.188c-0.203-0.057-0.318-0.105-0.33-0.109l-0.188-0.08V43.773
			C22.082,43.871,21.803,43.994,21.623,44.072z"/>
		<path fill="none" d="M22.486,43.018l0.15-0.064l0.139,0.086c0.235,0.148,0.956,0.533,1.461,0.533c0.297,0,0.817-0.123,1.321-0.242
			c0.632-0.15,1.286-0.303,1.788-0.303c0.056,0,0.113,0.002,0.17,0.006c-0.299-0.666-0.979-1.877-1.979-1.877
			c-1.09,0-0.811,1.773-0.811,1.773S23.6,42.063,23.6,40.639c0-0.803,0.605-1.424,1.453-1.424s1.549,0.621,2.082,1.449
			c0.44,0.684,0.78,1.738,0.967,2.463c0.234,0.059,0.458,0.133,0.652,0.207c-0.158-1.135-0.903-2.631-0.903-3.996
			c0-0.998,0.62-1.584,1.052-1.871H12.641l7.115,6.07h1.553C21.417,43.49,22.486,43.018,22.486,43.018z"/>
		<path fill="none" d="M28.207,56.24c-0.235-0.092-0.609-0.209-1.003-0.209c-0.294,0-0.743,0.078-1.218,0.158
			c-0.647,0.111-1.38,0.236-2.058,0.236c-0.912,0-1.963-0.242-2.441-0.365c-0.15-0.039-0.245-0.066-0.259-0.07l-0.222-0.066v-11.77
			H20.27v12.791c0.018,0,0.043,0,0.075,0c0.752-0.002,5.282-0.014,7.592-0.02C27.97,56.771,28.047,56.555,28.207,56.24z"/>
		<path fill="none" d="M33.628,39.215c-0.848,0-1.55,0.621-2.082,1.449c-0.435,0.676-0.772,1.717-0.961,2.439
			c0.192-0.041,0.389-0.068,0.582-0.074c0.3-0.668,0.979-1.873,1.977-1.873c1.089,0,0.811,1.773,0.811,1.773
			s1.126-0.867,1.126-2.291C35.081,39.836,34.476,39.215,33.628,39.215z"/>
		<path fill="none" d="M19.419,45.381c0,0-0.176-0.967-1.399-0.967c-0.452,0-1.244,0.551-1.244,1.611
			c0,0.861,0.252,1.305,0.964,1.816c0.62,0.445,1.352,0.797,1.913,0.973v-0.693c-0.445-0.225-1.407-0.83-1.407-1.848
			C18.245,45.229,19.419,45.381,19.419,45.381z"/>
		<path fill="none" d="M21.736,32.29c-0.024,0.022-0.049,0.045-0.075,0.064c-0.07,0.054-0.146,0.095-0.227,0.126
			c0.041,0.064,0.074,0.135,0.099,0.209c0.035,0.097,0.113,0.182,0.207,0.218c0.039,0.016,0.091,0.027,0.148,0.011
			c0.096-0.047,0.16-0.11,0.187-0.204l0.011-0.031l0.006-0.015c0.04-0.108,0.01-0.214-0.062-0.329
			C21.899,32.207,21.792,32.253,21.736,32.29z"/>
		<path fill="none" d="M31.616,49.365c0.061,0.02,0.147,0.029,0.219,0.029c0.116,0,0.154-0.012,0.206-0.051
			c0.087-0.063,0.171-0.195,0.171-0.434c0-0.41-0.272-0.529-0.443-0.529c-0.072,0-0.125,0.002-0.153,0.012
			c-0.021,0.006-0.027,0.018-0.027,0.041v0.879C31.589,49.344,31.596,49.355,31.616,49.365z"/>
		<path fill="none" d="M34.658,56.426c-0.678,0-1.411-0.125-2.058-0.236c-0.475-0.08-0.924-0.158-1.218-0.158
			c-0.396,0-0.769,0.117-1.003,0.209c0.166,0.328,0.242,0.549,0.273,0.705h7.663V44.154H37.58v11.77l-0.222,0.066
			c-0.02,0.006-0.192,0.055-0.454,0.119C36.371,56.238,35.46,56.426,34.658,56.426z"/>
		<path fill="none" d="M32.613,51.814c-0.009,0-0.014,0.014-0.017,0.025l-0.279,0.752c-0.001,0.004,0,0.008,0,0.012
			c0.001,0.004,0.004,0.006,0.011,0.008c0,0,0,0,0,0h0.554c0.014,0,0.018-0.008,0.014-0.018l-0.269-0.754
			C32.624,51.828,32.622,51.814,32.613,51.814z"/>
		<path fill="none" d="M36.284,54.838l-0.188,0.08c-0.015,0.006-0.206,0.086-0.54,0.162c-0.31,0.068-0.743,0.135-1.278,0.135
			c-0.578,0-1.131-0.125-1.667-0.244c-0.484-0.109-0.941-0.213-1.371-0.213c-0.565,0-1.159,0.236-1.502,0.396
			c0.13,0.199,0.241,0.377,0.338,0.541c0.279-0.115,0.768-0.281,1.306-0.281c0.346,0,0.798,0.076,1.322,0.168
			c0.622,0.105,1.329,0.227,1.954,0.227c0.529,0,1.125-0.094,1.604-0.189c0.289-0.059,0.536-0.119,0.701-0.162V44.072
			c-0.181-0.078-0.458-0.201-0.679-0.299V54.838z"/>
		<path fill="none" d="M32.888,43.93c-0.598-0.141-1.216-0.287-1.646-0.287c-0.603,0-1.324,0.311-1.64,0.461v10.436
			c0.406-0.182,1.024-0.4,1.64-0.4c0.499,0,1.011,0.117,1.507,0.229c0.502,0.113,1.022,0.23,1.531,0.23
			c0.224,0,0.425-0.014,0.605-0.033c0.352-0.039,0.619-0.104,0.783-0.152V43.818c-0.358,0.174-0.864,0.371-1.317,0.371
			C33.98,44.189,33.449,44.063,32.888,43.93z M30.546,45.207c0.154,0,0.318,0.008,0.42,0.008c0.072,0,0.211-0.008,0.356-0.008
			c0.035,0,0.067,0.006,0.067,0.025c0,0.021-0.018,0.027-0.044,0.027c-0.046,0-0.089,0.002-0.113,0.02
			c-0.021,0.014-0.029,0.033-0.029,0.061c0,0.037,0.026,0.119,0.066,0.223l0.498,1.314h0.012c0.124-0.318,0.501-1.25,0.57-1.443
			c0.015-0.037,0.026-0.08,0.026-0.105c0-0.023-0.012-0.047-0.038-0.055c-0.034-0.012-0.078-0.014-0.116-0.014
			c-0.026,0-0.049-0.004-0.049-0.023c0-0.023,0.026-0.029,0.081-0.029c0.145,0,0.266,0.008,0.304,0.008
			c0.049,0,0.186-0.008,0.272-0.008c0.037,0,0.061,0.006,0.061,0.025c0,0.021-0.017,0.027-0.046,0.027c-0.028,0-0.089,0-0.142,0.033
			c-0.038,0.025-0.081,0.074-0.159,0.26c-0.113,0.271-0.191,0.43-0.348,0.785c-0.186,0.422-0.321,0.738-0.384,0.883
			c-0.076,0.168-0.093,0.215-0.134,0.215c-0.038,0-0.055-0.041-0.11-0.178l-0.729-1.768c-0.066-0.16-0.115-0.191-0.22-0.221
			c-0.043-0.01-0.09-0.01-0.113-0.01c-0.026,0-0.035-0.01-0.035-0.027C30.471,45.209,30.503,45.207,30.546,45.207z M31.604,50.209
			c0.009,0.084,0.026,0.148,0.113,0.16c0.043,0.006,0.107,0.012,0.142,0.012c0.023,0,0.035,0.01,0.035,0.023
			c0,0.02-0.02,0.029-0.059,0.029c-0.167,0-0.381-0.01-0.426-0.01c-0.054,0-0.236,0.01-0.352,0.01c-0.038,0-0.058-0.01-0.058-0.029
			c0-0.014,0.011-0.023,0.046-0.023c0.043,0,0.078-0.006,0.104-0.012c0.057-0.012,0.072-0.076,0.084-0.16
			c0.014-0.121,0.014-0.348,0.014-0.615v-0.51c0-0.439,0-0.52-0.006-0.613c-0.006-0.098-0.028-0.145-0.124-0.166
			c-0.023-0.004-0.072-0.008-0.113-0.008c-0.032,0-0.049-0.006-0.049-0.025s0.021-0.027,0.064-0.027c0.153,0,0.335,0.01,0.396,0.01
			c0.098,0,0.318-0.01,0.408-0.01c0.182,0,0.377,0.018,0.533,0.125c0.081,0.055,0.197,0.203,0.197,0.396
			c0,0.215-0.089,0.412-0.382,0.648c0.258,0.324,0.458,0.582,0.628,0.762c0.162,0.168,0.281,0.188,0.325,0.197
			c0.032,0.004,0.057,0.008,0.081,0.008c0.023,0,0.035,0.01,0.035,0.023c0,0.023-0.021,0.029-0.055,0.029h-0.275
			c-0.162,0-0.234-0.016-0.31-0.057c-0.125-0.066-0.234-0.201-0.396-0.426c-0.116-0.158-0.249-0.355-0.287-0.398
			c-0.015-0.018-0.032-0.02-0.052-0.02l-0.251-0.006c-0.015,0-0.024,0.006-0.024,0.023v0.041
			C31.589,49.861,31.589,50.088,31.604,50.209z M31.091,53.252c0.009,0.08,0.026,0.145,0.113,0.154
			c0.04,0.008,0.104,0.014,0.147,0.014c0.032,0,0.046,0.008,0.046,0.023c0,0.02-0.023,0.027-0.055,0.027
			c-0.19,0-0.374-0.008-0.454-0.008c-0.067,0-0.249,0.008-0.365,0.008c-0.038,0-0.058-0.008-0.058-0.027
			c0-0.016,0.012-0.023,0.047-0.023c0.043,0,0.078-0.006,0.104-0.014c0.057-0.01,0.075-0.074,0.084-0.158
			c0.014-0.121,0.014-0.35,0.014-0.615v-1.188l-0.431,0.012c-0.168,0.006-0.237,0.02-0.28,0.084
			c-0.029,0.043-0.043,0.078-0.05,0.102c-0.005,0.023-0.014,0.035-0.032,0.035c-0.021,0-0.026-0.014-0.026-0.047
			c0-0.047,0.055-0.311,0.061-0.332c0.008-0.037,0.017-0.055,0.035-0.055c0.023,0,0.052,0.027,0.124,0.033
			c0.084,0.01,0.194,0.016,0.29,0.016h1.146c0.185,0,0.254-0.029,0.277-0.029c0.021,0,0.024,0.016,0.024,0.061
			c0,0.061-0.009,0.26-0.009,0.336c-0.003,0.029-0.009,0.047-0.026,0.047c-0.022,0-0.029-0.016-0.032-0.059l-0.002-0.031
			c-0.007-0.076-0.084-0.156-0.342-0.162l-0.365-0.01v1.188C31.076,52.898,31.076,53.127,31.091,53.252z M33.756,53.473
			c-0.065,0-0.175,0-0.303-0.002c-0.076,0-0.158-0.002-0.244-0.004c-0.053-0.004-0.087-0.004-0.087-0.023
			c0-0.018,0.011-0.023,0.041-0.027c0.02-0.004,0.041-0.031,0.025-0.066l-0.222-0.574c-0.006-0.014-0.015-0.02-0.029-0.02h-0.667
			c-0.015,0-0.021,0.006-0.026,0.023l-0.144,0.375c-0.029,0.07-0.043,0.141-0.043,0.176c0,0.053,0.026,0.09,0.116,0.09h0.043
			c0.035,0,0.043,0.006,0.043,0.023c0,0.023-0.018,0.029-0.049,0.029c-0.093,0-0.217-0.01-0.307-0.01
			c-0.032,0-0.191,0.01-0.341,0.01c-0.038,0-0.055-0.006-0.055-0.029c0-0.018,0.011-0.023,0.034-0.023
			c0.026,0,0.066-0.004,0.089-0.006c0.133-0.018,0.188-0.115,0.247-0.26l0.726-1.818c0.035-0.084,0.052-0.115,0.081-0.115
			c0.026,0,0.043,0.027,0.072,0.092c0.07,0.16,0.533,1.34,0.718,1.781c0.11,0.26,0.194,0.299,0.254,0.314
			c0.043,0.008,0.087,0.012,0.122,0.012c0.023,0,0.038,0.004,0.038,0.023C33.889,53.467,33.863,53.473,33.756,53.473z
			 M34.021,50.227c0.008,0.08,0.029,0.131,0.116,0.143c0.04,0.006,0.104,0.012,0.147,0.012c0.032,0,0.046,0.01,0.046,0.023
			c0,0.02-0.023,0.029-0.055,0.029c-0.191,0-0.374-0.01-0.451-0.01c-0.067,0-0.249,0.01-0.365,0.01c-0.038,0-0.058-0.01-0.058-0.029
			c0-0.014,0.012-0.023,0.046-0.023c0.043,0,0.078-0.006,0.104-0.012c0.058-0.012,0.076-0.061,0.084-0.145
			c0.014-0.123,0.014-0.352,0.014-0.631v-0.51c0-0.439,0-0.52-0.005-0.613c-0.006-0.098-0.035-0.148-0.099-0.162
			c-0.009-0.004-0.02-0.002-0.029-0.004l0,0c-0.025-0.004-0.05-0.008-0.076-0.008c-0.028,0-0.046-0.006-0.046-0.029
			c0-0.016,0.023-0.023,0.069-0.023c0.034,0,0.076,0.002,0.119,0.002c0.095,0.004,0.2,0.008,0.257,0.008
			c0.072,0,0.243-0.01,0.354-0.01c0.037,0,0.061,0.008,0.061,0.023c0,0.023-0.018,0.029-0.046,0.029s-0.052,0.004-0.087,0.008
			c-0.078,0.016-0.102,0.064-0.107,0.166c-0.006,0.094-0.006,0.174-0.006,0.613v0.51C34.009,49.873,34.009,50.102,34.021,50.227z
			 M35.093,51.293c0.025,0.006,0.04,0.014,0.04,0.035c0,0.037-0.011,0.121-0.011,0.346c0,0.064-0.009,0.088-0.031,0.088
			c-0.021,0-0.03-0.018-0.03-0.053c0-0.025-0.014-0.115-0.075-0.191c-0.043-0.055-0.127-0.141-0.316-0.141
			c-0.214,0-0.344,0.123-0.344,0.297c0,0.135,0.066,0.234,0.307,0.418l0.081,0.061c0.347,0.27,0.475,0.463,0.475,0.738
			c0,0.166-0.064,0.367-0.272,0.502c-0.145,0.094-0.307,0.119-0.46,0.119c-0.167,0-0.297-0.02-0.422-0.074
			c-0.046-0.021-0.055-0.035-0.055-0.1c0-0.158,0.012-0.332,0.014-0.377c0.003-0.045,0.012-0.076,0.035-0.076
			c0.026,0,0.028,0.025,0.028,0.049c0,0.037,0.011,0.098,0.027,0.146c0.063,0.215,0.234,0.293,0.414,0.293
			c0.26,0,0.388-0.176,0.388-0.33c0-0.143-0.043-0.277-0.284-0.463l-0.133-0.104c-0.318-0.25-0.428-0.451-0.428-0.686
			c0-0.318,0.267-0.547,0.668-0.547C34.896,51.244,35.018,51.271,35.093,51.293z M34.373,45.209c0,0.021-0.015,0.055-0.023,0.188
			c-0.003,0.029-0.009,0.156-0.014,0.191c-0.003,0.014-0.009,0.031-0.029,0.031s-0.026-0.014-0.026-0.041
			c0-0.02-0.003-0.068-0.017-0.104c-0.02-0.051-0.049-0.086-0.195-0.104c-0.048-0.006-0.353-0.012-0.41-0.012
			c-0.014,0-0.02,0.008-0.02,0.029v0.732c0,0.02,0.002,0.031,0.02,0.031c0.064,0,0.396,0,0.462-0.006
			c0.07-0.006,0.113-0.014,0.139-0.043c0.021-0.023,0.032-0.037,0.047-0.037c0.012,0,0.021,0.006,0.021,0.021
			c0,0.02-0.015,0.064-0.023,0.213c-0.006,0.057-0.012,0.172-0.012,0.193c0,0.023,0,0.055-0.026,0.055
			c-0.021,0-0.026-0.012-0.026-0.025c-0.003-0.029-0.003-0.066-0.012-0.105c-0.014-0.057-0.055-0.1-0.162-0.111
			c-0.055-0.006-0.341-0.01-0.411-0.01c-0.015,0-0.017,0.012-0.017,0.029v0.229c0,0.1-0.003,0.363,0,0.447
			c0.006,0.201,0.052,0.244,0.347,0.244c0.076,0,0.197,0,0.272-0.035c0.076-0.033,0.11-0.094,0.13-0.213
			c0.006-0.031,0.012-0.043,0.032-0.043c0.024,0,0.024,0.023,0.024,0.053c0,0.064-0.024,0.262-0.039,0.32
			c-0.02,0.074-0.046,0.074-0.156,0.074c-0.437,0-0.63-0.016-0.801-0.016c-0.067,0-0.25,0.008-0.365,0.008
			c-0.038,0-0.058-0.008-0.058-0.029c0-0.014,0.012-0.023,0.046-0.023c0.044,0,0.079-0.006,0.104-0.012
			c0.058-0.012,0.073-0.074,0.084-0.158c0.014-0.121,0.014-0.35,0.014-0.617v-0.508c0-0.441,0-0.523-0.005-0.615
			c-0.006-0.098-0.03-0.145-0.125-0.164c-0.023-0.006-0.073-0.008-0.113-0.008c-0.032,0-0.049-0.006-0.049-0.027
			c0-0.02,0.02-0.025,0.063-0.025c0.153,0,0.336,0.008,0.417,0.008c0.093,0,0.669,0,0.724-0.002
			c0.055-0.006,0.102-0.014,0.125-0.018c0.015-0.004,0.032-0.014,0.046-0.014C34.37,45.182,34.373,45.195,34.373,45.209z"/>
		<path fill="none" d="M28.146,57.543h-0.233c-0.138,0.383-0.788,1.98-2.003,1.98c-1.089,0-0.81-1.701-0.81-1.701
			s-1.246,1.363-1.246,2.637c0,0.719,0.605,1.275,1.453,1.275c0.847,0,1.549-0.557,2.082-1.297c0.461-0.643,0.813-2.002,0.993-2.746
			C28.296,57.65,28.215,57.604,28.146,57.543z"/>
		<path fill="none" d="M30.049,57.051c-0.003-0.023-0.012-0.055-0.023-0.088c-0.001-0.008-0.002-0.012-0.005-0.018
			c-0.012-0.035-0.066-0.162-0.077-0.186c-0.012-0.025-0.024-0.053-0.038-0.082c-0.012-0.023-0.026-0.051-0.039-0.078
			c-0.016-0.029-0.077-0.148-0.092-0.176c-0.019-0.037-0.039-0.072-0.059-0.107c-0.016-0.027-0.093-0.166-0.117-0.207
			c-0.016-0.027-0.031-0.055-0.047-0.082c-0.028-0.047-0.113-0.188-0.126-0.209c0.014,0.021,0.027,0.045,0.041,0.066
			c-0.014-0.021-0.027-0.045-0.041-0.066c-0.043-0.07-0.087-0.143-0.133-0.213c-0.014,0.021-0.027,0.043-0.042,0.066
			c-0.115,0.182-0.224,0.365-0.321,0.537c-0.002,0.002-0.002,0.004-0.004,0.006c-0.028,0.049-0.055,0.1-0.082,0.146
			c-0.006,0.012-0.013,0.023-0.019,0.035c-0.025,0.047-0.048,0.09-0.07,0.133c-0.006,0.01-0.011,0.02-0.016,0.029
			c-0.071,0.141-0.127,0.262-0.163,0.355c-0.001,0.004-0.002,0.008-0.003,0.01c0,0-0.001,0-0.001,0.002
			c-0.006,0.018-0.011,0.031-0.015,0.047c-0.01,0.029-0.011,0.045-0.014,0.066c0.011,0.016,0.019,0.041,0.038,0.055
			c0.007,0.004,0.017,0.008,0.025,0.016c-0.009-0.008-0.018-0.012-0.025-0.016c0.007,0.004,0.05,0.029,0.066,0.037
			c0.013,0.008,0.029,0.012,0.044,0.02c0.013,0.004,0.024,0.01,0.037,0.012c0.021,0.01,0.045,0.016,0.068,0.021
			c-0.023-0.006-0.047-0.012-0.068-0.021c0.021,0.01,0.085,0.025,0.094,0.029c0.029,0.006,0.06,0.012,0.09,0.02
			c0.004,0,0.008,0,0.012,0.002c0.107,0.018,0.223,0.027,0.333,0.025c0.013,0,0.026,0,0.039,0l0.014-0.002
			C29.31,57.236,29.954,57.186,30.049,57.051z"/>
		<path fill="none" d="M28.871,57.83c-0.165,1.965-1.185,4.359-1.185,6.031c0,1.52,1.304,3.021,1.582,3.324
			c0.003,0.002,0.008,0.004,0.012,0.006c0.005-0.002,0.011-0.004,0.016-0.008l-0.005-9.328
			C29.209,57.857,29.053,57.855,28.871,57.83z"/>
		<path fill="none" d="M29.31,37.434L29.31,37.434c0,0,0.04,0.01,0.1,0.033C29.35,37.443,29.311,37.434,29.31,37.434z"/>
		<path fill="none" d="M29.313,43.559c0.128-0.063,0.322-0.15,0.555-0.24c0.155-1.133,0.862-2.621,0.862-3.98
			c0-1.285-1-1.754-1.32-1.871h-0.1L29.313,43.559z"/>
		<path fill="none" d="M14.826,50.361c1.029,2.713,2.413,5.268,4.142,7.652l0.684-0.531v-6.23c-0.445,0.227-1.407,0.83-1.407,1.848
			c0,1.047,1.174,0.895,1.174,0.895s-0.176,0.965-1.399,0.965c-0.452,0-1.244-0.551-1.244-1.609c0-0.863,0.252-1.307,0.964-1.816
			c0.583-0.418,1.339-0.699,1.913-0.863v-0.369c-0.958,0.143-2.175,0.77-3.339,0.77C15.64,51.07,15.147,50.711,14.826,50.361z"/>
		<polygon fill="none" points="26.045,33.584 26.045,33.584 26.045,33.584 		"/>
		<path fill="none" d="M28.15,28.248c-0.139,0.051-0.266,0.18-0.315,0.319c-0.031,0.088-0.029,0.178,0,0.268l1.024,1.408
			c0.098,0.052,0.216,0.07,0.305,0.054c0.04-0.005,0.08-0.008,0.121-0.008c0.067,0,0.132,0.008,0.196,0.019l0.001-0.006
			c0.089,0.018,0.209-0.002,0.309-0.054l0.614-0.846l-0.002-0.003c0.003-0.005,0.081-0.088,0.303-0.45
			c0.079-0.127,0.096-0.256,0.052-0.382c-0.049-0.14-0.175-0.269-0.314-0.319c-0.185-0.067-0.278-0.028-0.463,0.048
			c-0.168,0.068-0.377,0.154-0.683,0.154s-0.515-0.086-0.683-0.154C28.428,28.22,28.335,28.181,28.15,28.248z"/>
		<path fill="none" d="M12.586,26.582v10.139h33.378V26.582c-0.713,0-16.689,0-16.689,0S13.3,26.582,12.586,26.582z M22.596,32.851
			l-0.017,0.04l0.01-0.028c-0.148,0.509-0.641,0.622-0.968,0.696c-0.076,0.018-0.185,0.041-0.225,0.063
			c-0.224,0.322-0.482,0.387-0.71,0.441c-0.151,0.037-0.294,0.072-0.456,0.191c-0.162,0.117-0.239,0.242-0.321,0.373
			c-0.123,0.201-0.264,0.428-0.64,0.539c-0.031,0.033-0.089,0.129-0.128,0.195c-0.171,0.287-0.449,0.721-0.979,0.703
			c-0.52,0.008-0.789-0.422-0.958-0.705c-0.04-0.068-0.098-0.164-0.129-0.195c-0.376-0.113-0.518-0.338-0.641-0.539
			c-0.082-0.133-0.159-0.258-0.321-0.375c-0.162-0.117-0.305-0.152-0.456-0.189c-0.229-0.055-0.487-0.119-0.71-0.441
			c-0.04-0.021-0.149-0.047-0.225-0.063c-0.327-0.076-0.82-0.188-0.968-0.697l-0.01-0.04c-0.159-0.486,0.166-0.858,0.382-1.106
			c0.051-0.059,0.125-0.143,0.145-0.182c-0.009-0.395,0.163-0.598,0.314-0.776c0.101-0.119,0.196-0.23,0.258-0.422
			c0.062-0.189,0.05-0.336,0.039-0.491c-0.019-0.234-0.037-0.499,0.201-0.813c0.006-0.044-0.003-0.155-0.01-0.232
			c-0.03-0.334-0.076-0.838,0.364-1.137l0.035-0.021c0.414-0.302,0.868-0.108,1.17,0.021c0.071,0.03,0.174,0.074,0.218,0.081
			c0.371-0.129,0.618-0.03,0.835,0.06c0.145,0.06,0.28,0.114,0.48,0.114c0.2,0,0.335-0.055,0.48-0.114
			c0.217-0.09,0.463-0.188,0.834-0.06c0.044-0.007,0.148-0.051,0.219-0.081c0.308-0.132,0.773-0.332,1.193-0.006l0.032,0.027
			c0.414,0.301,0.371,0.791,0.341,1.119c-0.007,0.076-0.017,0.188-0.01,0.232c0.238,0.313,0.219,0.578,0.201,0.813
			c-0.012,0.154-0.023,0.302,0.039,0.492c0.062,0.189,0.157,0.302,0.257,0.42c0.152,0.18,0.324,0.384,0.314,0.776
			c0.021,0.039,0.094,0.124,0.145,0.182C22.443,31.97,22.776,32.351,22.596,32.851z M36.367,31.713
			c0.051-0.059,0.125-0.143,0.145-0.182c-0.009-0.395,0.163-0.598,0.314-0.776c0.101-0.119,0.196-0.23,0.258-0.422
			c0.062-0.189,0.051-0.336,0.039-0.491c-0.018-0.234-0.037-0.499,0.201-0.813c0.007-0.044-0.003-0.155-0.01-0.232
			c-0.031-0.334-0.076-0.838,0.363-1.137l0.036-0.021c0.414-0.302,0.868-0.108,1.17,0.021c0.072,0.03,0.174,0.074,0.219,0.081
			c0.371-0.129,0.617-0.03,0.834,0.06c0.144,0.06,0.28,0.114,0.48,0.114c0.2,0,0.336-0.055,0.48-0.114
			c0.217-0.09,0.463-0.188,0.835-0.06c0.044-0.007,0.147-0.051,0.218-0.081c0.308-0.132,0.773-0.332,1.192-0.006l0.033,0.027
			c0.414,0.301,0.37,0.791,0.34,1.119c-0.007,0.076-0.017,0.188-0.01,0.232c0.238,0.313,0.219,0.578,0.202,0.813
			c-0.012,0.154-0.023,0.302,0.039,0.492c0.062,0.189,0.157,0.302,0.258,0.42c0.152,0.18,0.323,0.384,0.314,0.776
			c0.021,0.039,0.094,0.124,0.145,0.182c0.22,0.253,0.553,0.634,0.374,1.134l-0.017,0.04l0.009-0.028
			c-0.148,0.509-0.641,0.622-0.967,0.696c-0.076,0.018-0.185,0.041-0.225,0.063c-0.224,0.322-0.482,0.387-0.711,0.441
			c-0.151,0.037-0.293,0.072-0.456,0.191c-0.162,0.117-0.239,0.242-0.32,0.373c-0.124,0.201-0.264,0.428-0.64,0.539
			c-0.032,0.033-0.09,0.129-0.129,0.195c-0.171,0.287-0.448,0.721-0.979,0.703c-0.52,0.008-0.788-0.422-0.958-0.705
			c-0.039-0.068-0.097-0.164-0.129-0.195c-0.376-0.113-0.517-0.338-0.641-0.539c-0.082-0.133-0.159-0.258-0.321-0.375
			c-0.162-0.117-0.305-0.152-0.456-0.189c-0.229-0.055-0.487-0.119-0.71-0.441c-0.04-0.021-0.149-0.047-0.224-0.063
			c-0.327-0.076-0.821-0.188-0.968-0.697l-0.01-0.04C35.826,32.333,36.15,31.961,36.367,31.713z M29.776,27.801
			c0.217-0.09,0.464-0.188,0.835-0.06c0.044-0.007,0.147-0.051,0.219-0.081c0.307-0.132,0.773-0.332,1.192-0.006l0.033,0.027
			c0.413,0.301,0.37,0.791,0.34,1.119c-0.007,0.076-0.017,0.188-0.01,0.232c0.238,0.313,0.219,0.578,0.202,0.813
			c-0.012,0.154-0.023,0.302,0.039,0.492c0.062,0.189,0.157,0.302,0.257,0.42c0.152,0.18,0.324,0.384,0.314,0.776
			c0.021,0.039,0.094,0.124,0.145,0.182c0.221,0.253,0.554,0.634,0.375,1.134l-0.017,0.04l0.01-0.028
			c-0.148,0.509-0.642,0.622-0.968,0.696c-0.076,0.018-0.185,0.041-0.226,0.063c-0.223,0.322-0.482,0.387-0.71,0.441
			c-0.151,0.037-0.294,0.072-0.456,0.191c-0.162,0.117-0.239,0.242-0.321,0.373c-0.124,0.201-0.264,0.428-0.641,0.539
			c-0.031,0.033-0.089,0.129-0.128,0.195c-0.172,0.287-0.449,0.721-0.979,0.703c-0.52,0.008-0.788-0.422-0.958-0.705
			c-0.04-0.068-0.098-0.164-0.129-0.195c-0.377-0.113-0.518-0.338-0.641-0.539c-0.082-0.133-0.159-0.258-0.32-0.375
			c-0.162-0.117-0.305-0.152-0.456-0.189c-0.229-0.055-0.487-0.119-0.71-0.441c-0.04-0.021-0.149-0.047-0.225-0.063
			c-0.326-0.076-0.82-0.188-0.968-0.697l-0.009-0.04c-0.16-0.486,0.165-0.858,0.381-1.106c0.051-0.059,0.125-0.143,0.146-0.182
			c-0.009-0.395,0.162-0.598,0.314-0.776c0.101-0.119,0.196-0.23,0.258-0.422c0.062-0.189,0.051-0.336,0.039-0.491
			c-0.018-0.234-0.037-0.499,0.201-0.813c0.007-0.044-0.002-0.155-0.01-0.232c-0.03-0.334-0.076-0.838,0.363-1.137l0.035-0.021
			c0.414-0.302,0.868-0.108,1.171,0.021c0.071,0.03,0.174,0.074,0.218,0.081c0.371-0.129,0.618-0.03,0.835,0.06
			c0.145,0.06,0.28,0.114,0.48,0.114S29.632,27.86,29.776,27.801z"/>
		<path fill="none" d="M28.182,31.219c0.001-0.007,0.002-0.012,0.004-0.019c0-0.001,0-0.004,0.001-0.007h0
			c0.021-0.105,0.057-0.204,0.105-0.297l-0.002-0.002c0.045-0.081,0.06-0.203,0.039-0.315c0,0-0.672-0.942-0.948-1.267
			c-0.097-0.113-0.214-0.17-0.347-0.167c-0.149,0.004-0.31,0.084-0.401,0.201c-0.121,0.154-0.113,0.255-0.098,0.455
			c0.013,0.182,0.031,0.406-0.064,0.697l0,0c-0.094,0.29-0.241,0.463-0.358,0.603c-0.13,0.151-0.195,0.229-0.188,0.426
			c0.005,0.147,0.087,0.308,0.207,0.397c0.074,0.057,0.159,0.083,0.253,0.083l1.657-0.539
			C28.114,31.397,28.166,31.303,28.182,31.219z"/>
		<path fill="none" d="M28.739,32.402c-0.091-0.052-0.179-0.118-0.252-0.19c-0.062-0.067-0.17-0.123-0.282-0.14
			c0,0-1.111,0.352-1.503,0.514c-0.138,0.057-0.228,0.15-0.267,0.278c-0.043,0.142-0.016,0.319,0.067,0.442
			c0.109,0.164,0.208,0.188,0.402,0.234c0.177,0.043,0.397,0.098,0.644,0.277c0.247,0.178,0.366,0.371,0.462,0.525
			c0.105,0.172,0.158,0.258,0.347,0.311c0.142,0.041,0.32,0.012,0.442-0.072c0.076-0.055,0.128-0.127,0.157-0.217v-1.74
			C28.905,32.525,28.82,32.439,28.739,32.402z"/>
		<path fill="none" d="M26.945,28.619c0.026-0.004,0.052-0.008,0.079-0.009c0.088-0.001,0.174,0.011,0.257,0.031
			c0.005-0.076,0.019-0.152,0.042-0.227c0.028-0.1,0.015-0.213-0.04-0.298c-0.023-0.035-0.059-0.075-0.113-0.097
			c-0.104-0.018-0.194-0.004-0.272,0.056l-0.027,0.019l-0.013,0.008c-0.097,0.066-0.135,0.167-0.144,0.302
			C26.746,28.61,26.883,28.621,26.945,28.619z"/>
		<polygon fill="none" points="27.943,27.756 27.942,27.756 27.942,27.756 		"/>
		<circle fill="none" cx="29.285" cy="31.41" r="0.585"/>
		<path fill="none" d="M25.533,32.311c-0.039,0.01-0.087,0.031-0.125,0.076c-0.049,0.094-0.066,0.184-0.032,0.277l0.009,0.032
			l0.003,0.014c0.033,0.112,0.118,0.18,0.243,0.229c0.208,0.035,0.259-0.095,0.276-0.153c0.005-0.025,0.009-0.051,0.017-0.076
			c0.025-0.085,0.063-0.162,0.108-0.234c-0.068-0.028-0.132-0.063-0.193-0.105C25.751,32.309,25.634,32.284,25.533,32.311z"/>
		<polygon fill="none" points="25.394,31.57 25.394,31.573 25.394,31.573 		"/>
		<polygon fill="none" points="30.651,27.756 30.649,27.756 30.651,27.756 		"/>
		<polygon fill="none" points="32.359,29 32.359,29.001 32.36,29.002 		"/>
		<path fill="none" d="M31.262,28.392c0.03,0.083,0.045,0.168,0.05,0.253c0.074-0.019,0.15-0.028,0.229-0.029
			c0.103-0.004,0.207-0.052,0.271-0.13c0.026-0.032,0.053-0.079,0.057-0.137c-0.016-0.105-0.056-0.187-0.138-0.242l-0.025-0.02
			l-0.013-0.011c-0.091-0.071-0.2-0.075-0.331-0.042c-0.167,0.084-0.157,0.201-0.138,0.266C31.238,28.33,31.251,28.36,31.262,28.392
			z"/>
		<path fill="none" d="M29.549,35.063c-0.023-0.012-0.047-0.023-0.068-0.039c-0.073-0.051-0.135-0.109-0.19-0.176
			c-0.045,0.055-0.099,0.105-0.157,0.148c-0.087,0.064-0.148,0.17-0.154,0.275c-0.002,0.039,0.004,0.094,0.034,0.141
			c0.075,0.078,0.155,0.121,0.254,0.117h0.033l0.015,0.004c0.117,0.002,0.207-0.057,0.293-0.162
			C29.706,35.186,29.599,35.098,29.549,35.063z"/>
		<path fill="none" d="M32.653,32.689c0.036,0.097,0.114,0.182,0.208,0.218c0.039,0.016,0.092,0.027,0.148,0.011
			c0.095-0.047,0.16-0.11,0.188-0.204l0.011-0.031l0.006-0.015c0.04-0.108,0.01-0.214-0.062-0.329
			c-0.132-0.132-0.24-0.086-0.296-0.049c-0.023,0.022-0.048,0.045-0.075,0.064c-0.07,0.054-0.146,0.095-0.226,0.126
			C32.596,32.545,32.629,32.615,32.653,32.689z"/>
		<polygon fill="none" points="33.196,31.575 33.196,31.577 33.196,31.577 		"/>
		<path fill="none" d="M30.321,30.949c0.042,0.094,0.078,0.198,0.093,0.303c0.011,0.09,0.067,0.198,0.147,0.277l0.995,0.323
			l0.002-0.004c0.005,0.001,0.108,0.05,0.521,0.149c0.146,0.035,0.273,0.012,0.379-0.069c0.119-0.09,0.201-0.249,0.206-0.396
			c0.007-0.198-0.058-0.273-0.188-0.427c-0.118-0.139-0.264-0.312-0.359-0.602c-0.094-0.291-0.078-0.518-0.063-0.698
			c0.015-0.2,0.022-0.301-0.098-0.455c-0.091-0.117-0.253-0.197-0.401-0.201c-0.093-0.001-0.178,0.027-0.253,0.082l-1.02,1.404
			C30.262,30.747,30.276,30.868,30.321,30.949z"/>
		<polygon fill="none" points="30.349,35.178 30.351,35.178 30.349,35.178 		"/>
		<polygon fill="none" points="32.54,33.586 32.54,33.586 32.54,33.586 		"/>
		<path fill="none" d="M31.994,32.65l-1.657-0.538c-0.11,0.018-0.218,0.072-0.279,0.138c-0.075,0.07-0.167,0.135-0.26,0.182
			c-0.082,0.038-0.168,0.125-0.218,0.225v1.047h0.004c0,0.006-0.014,0.119,0.019,0.541c0.011,0.15,0.073,0.264,0.183,0.34
			c0.122,0.084,0.3,0.115,0.442,0.074c0.19-0.055,0.243-0.141,0.348-0.313c0.095-0.154,0.214-0.346,0.461-0.525h0
			c0.247-0.18,0.466-0.234,0.644-0.277c0.195-0.047,0.292-0.07,0.402-0.234c0.083-0.121,0.11-0.301,0.067-0.442
			C32.123,32.777,32.069,32.706,31.994,32.65z"/>
		<path fill="none" d="M36.505,32.696l0.003,0.014c0.032,0.112,0.116,0.18,0.242,0.229c0.208,0.035,0.259-0.095,0.277-0.153
			c0.005-0.025,0.008-0.051,0.016-0.076c0.025-0.085,0.063-0.162,0.108-0.234c-0.067-0.028-0.132-0.063-0.193-0.105
			c-0.087-0.062-0.205-0.086-0.305-0.06c-0.039,0.01-0.087,0.031-0.124,0.076c-0.05,0.094-0.066,0.184-0.033,0.277L36.505,32.696z"
			/>
		<path fill="none" d="M43.114,32.65l-1.656-0.538c-0.111,0.018-0.218,0.072-0.28,0.138c-0.075,0.07-0.167,0.135-0.259,0.182
			c-0.083,0.038-0.168,0.125-0.219,0.225v1.047h0.005c0,0.006-0.015,0.119,0.019,0.541c0.012,0.15,0.073,0.264,0.183,0.34
			c0.123,0.084,0.3,0.115,0.442,0.074c0.189-0.055,0.242-0.141,0.347-0.313c0.096-0.154,0.215-0.346,0.461-0.525l0,0
			c0.248-0.18,0.468-0.234,0.645-0.277c0.194-0.047,0.292-0.07,0.402-0.234c0.083-0.121,0.11-0.301,0.067-0.442
			C43.243,32.777,43.19,32.706,43.114,32.65z"/>
		<path fill="none" d="M43.774,32.689c0.036,0.097,0.113,0.182,0.207,0.218c0.039,0.016,0.091,0.027,0.148,0.011
			c0.095-0.047,0.16-0.11,0.187-0.204l0.012-0.031l0.005-0.015c0.04-0.108,0.01-0.214-0.062-0.329
			c-0.132-0.132-0.24-0.086-0.295-0.049c-0.024,0.022-0.049,0.045-0.075,0.064c-0.07,0.054-0.147,0.095-0.227,0.126
			C43.716,32.545,43.75,32.615,43.774,32.689z"/>
		<polygon fill="none" points="43.66,33.586 43.661,33.586 43.661,33.586 		"/>
		<path fill="none" d="M41.442,30.949c0.042,0.094,0.078,0.198,0.092,0.303c0.011,0.09,0.067,0.198,0.147,0.277l0.995,0.323
			l0.002-0.004c0.004,0.001,0.108,0.05,0.521,0.149c0.146,0.035,0.273,0.012,0.379-0.069c0.118-0.09,0.201-0.249,0.206-0.396
			c0.007-0.198-0.058-0.273-0.188-0.427c-0.118-0.139-0.265-0.312-0.359-0.602c-0.094-0.291-0.077-0.518-0.063-0.698
			c0.015-0.2,0.023-0.301-0.098-0.455c-0.092-0.117-0.253-0.197-0.401-0.201c-0.093-0.001-0.177,0.027-0.254,0.082l-1.02,1.404
			C41.382,30.747,41.397,30.868,41.442,30.949z"/>
		<path fill="none" d="M42.383,28.392c0.029,0.083,0.044,0.168,0.05,0.253c0.074-0.019,0.151-0.028,0.229-0.029
			c0.103-0.004,0.207-0.052,0.271-0.13c0.026-0.032,0.053-0.079,0.057-0.137c-0.017-0.105-0.056-0.187-0.138-0.242l-0.025-0.02
			l-0.012-0.011c-0.093-0.071-0.201-0.075-0.332-0.042c-0.168,0.084-0.157,0.201-0.139,0.266
			C42.359,28.33,42.373,28.36,42.383,28.392z"/>
		<polygon fill="none" points="43.479,29 43.479,29.001 43.48,29.002 		"/>
		<path fill="none" d="M39.859,32.402c-0.092-0.052-0.179-0.118-0.252-0.19c-0.062-0.067-0.17-0.123-0.282-0.14
			c0,0-1.111,0.352-1.504,0.514c-0.138,0.057-0.228,0.15-0.266,0.278c-0.043,0.142-0.016,0.319,0.067,0.442
			c0.11,0.164,0.208,0.188,0.403,0.234c0.177,0.043,0.396,0.098,0.644,0.277c0.247,0.178,0.366,0.371,0.461,0.525
			c0.105,0.172,0.158,0.258,0.347,0.311c0.143,0.041,0.32,0.012,0.442-0.072c0.077-0.055,0.128-0.127,0.157-0.217v-1.74
			C40.026,32.525,39.941,32.439,39.859,32.402z"/>
		<polygon fill="none" points="37.165,33.584 37.166,33.584 37.166,33.584 		"/>
		<circle fill="none" cx="40.406" cy="31.41" r="0.585"/>
		<path fill="none" d="M40.669,35.063c-0.022-0.012-0.046-0.023-0.068-0.039c-0.073-0.051-0.135-0.109-0.19-0.176
			c-0.046,0.055-0.099,0.105-0.157,0.148c-0.088,0.064-0.148,0.17-0.154,0.275c-0.002,0.039,0.003,0.094,0.034,0.141
			c0.075,0.078,0.155,0.121,0.254,0.117h0.033l0.015,0.004c0.117,0.002,0.207-0.057,0.294-0.162
			C40.826,35.186,40.72,35.098,40.669,35.063z"/>
		<polygon fill="none" points="41.47,35.178 41.472,35.178 41.47,35.178 		"/>
		<polygon fill="none" points="44.316,31.575 44.316,31.577 44.316,31.577 		"/>
		<path fill="none" d="M37.252,31.925c0.075,0.057,0.16,0.083,0.254,0.083l1.657-0.539c0.072-0.071,0.123-0.166,0.14-0.25
			c0-0.007,0.002-0.012,0.003-0.019c0-0.001,0.001-0.004,0.001-0.007h0c0.021-0.105,0.058-0.204,0.105-0.297l-0.002-0.002
			c0.045-0.081,0.061-0.203,0.04-0.315c0,0-0.673-0.942-0.948-1.267c-0.097-0.113-0.214-0.17-0.347-0.167
			c-0.148,0.004-0.31,0.084-0.401,0.201c-0.121,0.154-0.114,0.255-0.098,0.455c0.014,0.182,0.031,0.406-0.063,0.697l0,0
			c-0.095,0.29-0.241,0.463-0.359,0.603c-0.129,0.151-0.195,0.229-0.188,0.426C37.051,31.675,37.134,31.835,37.252,31.925z"/>
		<path fill="none" d="M38.065,28.619c0.026-0.004,0.053-0.008,0.079-0.009c0.088-0.001,0.175,0.011,0.257,0.031
			c0.005-0.076,0.019-0.152,0.042-0.227c0.028-0.1,0.015-0.213-0.04-0.298c-0.022-0.035-0.059-0.075-0.113-0.097
			c-0.104-0.018-0.194-0.004-0.272,0.056l-0.027,0.019l-0.013,0.008c-0.096,0.066-0.134,0.167-0.144,0.302
			C37.867,28.61,38.003,28.621,38.065,28.619z"/>
		<polygon fill="none" points="36.514,31.57 36.514,31.573 36.515,31.573 		"/>
		<path fill="none" d="M39.979,30.243c0.099,0.052,0.217,0.07,0.305,0.054c0.04-0.005,0.081-0.008,0.122-0.008
			c0.066,0,0.132,0.008,0.196,0.019l0.001-0.006c0.089,0.018,0.209-0.002,0.309-0.054l0.615-0.846l-0.003-0.003
			c0.003-0.005,0.08-0.088,0.303-0.45c0.078-0.127,0.096-0.256,0.052-0.382c-0.049-0.14-0.176-0.269-0.315-0.319
			c-0.185-0.067-0.278-0.028-0.464,0.048c-0.168,0.068-0.377,0.154-0.683,0.154c-0.306,0-0.515-0.086-0.683-0.154
			c-0.186-0.076-0.278-0.115-0.463-0.048c-0.14,0.051-0.266,0.18-0.315,0.319c-0.03,0.088-0.029,0.178,0,0.268L39.979,30.243z"/>
		<polygon fill="none" points="41.771,27.756 41.769,27.756 41.771,27.756 		"/>
		<polygon fill="none" points="39.064,27.756 39.063,27.756 39.063,27.756 		"/>
		<path class="primarycolor" d="M24.26,47.119c0.263,0.229,0.596,0.316,0.992,0.316c0.185,0,0.405-0.021,0.521-0.066
			c0.049-0.021,0.061-0.035,0.075-0.084c0.029-0.1,0.064-0.352,0.064-0.387c0-0.021-0.006-0.043-0.026-0.043
			c-0.023,0-0.029,0.012-0.038,0.059c-0.011,0.053-0.049,0.137-0.098,0.191c-0.116,0.133-0.271,0.162-0.529,0.162
			c-0.388,0-0.912-0.342-0.912-1.031c0-0.281,0.055-0.555,0.266-0.75c0.127-0.115,0.292-0.18,0.544-0.18
			c0.266,0,0.492,0.078,0.587,0.18c0.072,0.076,0.11,0.178,0.113,0.268c0,0.041,0.005,0.063,0.028,0.063
			c0.027,0,0.032-0.021,0.035-0.064c0.005-0.059,0.003-0.219,0.009-0.314c0.005-0.102,0.014-0.137,0.014-0.158
			c0-0.018-0.011-0.031-0.043-0.035c-0.086-0.008-0.179-0.035-0.289-0.049c-0.133-0.018-0.241-0.029-0.42-0.029
			c-0.431,0-0.706,0.115-0.914,0.307c-0.278,0.254-0.338,0.596-0.338,0.793C23.901,46.547,23.976,46.871,24.26,47.119z"/>
		<path class="primarycolor" d="M24.933,49.527l0.251,0.006c0.021,0,0.038,0.002,0.053,0.02c0.017,0.02,0.054,0.072,0.101,0.139
			c0.055,0.076,0.123,0.174,0.186,0.26c0.163,0.225,0.272,0.359,0.396,0.426c0.075,0.041,0.148,0.057,0.31,0.057h0.275
			c0.035,0,0.055-0.006,0.055-0.029c0-0.014-0.012-0.023-0.035-0.023s-0.049-0.004-0.081-0.008c-0.043-0.01-0.162-0.029-0.324-0.197
			c-0.12-0.127-0.255-0.293-0.414-0.492c-0.067-0.084-0.137-0.174-0.214-0.27c0.292-0.236,0.382-0.434,0.382-0.648
			c0-0.004-0.001-0.008-0.001-0.012c-0.006-0.188-0.116-0.33-0.196-0.385c-0.118-0.08-0.256-0.111-0.396-0.119
			c-0.045-0.004-0.091-0.006-0.136-0.006c-0.089,0-0.309,0.01-0.408,0.01c-0.061,0-0.243-0.01-0.396-0.01
			c-0.043,0-0.063,0.008-0.063,0.027s0.018,0.025,0.049,0.025c0.041,0,0.09,0.004,0.113,0.008c0.095,0.021,0.119,0.068,0.125,0.166
			c0.005,0.094,0.005,0.174,0.005,0.613v0.51c0,0.039,0,0.076,0,0.111c0,0.217-0.002,0.4-0.014,0.504
			c-0.012,0.084-0.026,0.148-0.084,0.16c-0.026,0.006-0.061,0.012-0.104,0.012c-0.035,0-0.047,0.01-0.047,0.023
			c0,0.02,0.021,0.029,0.058,0.029c0.116,0,0.298-0.01,0.354-0.01c0.043,0,0.257,0.01,0.425,0.01c0.037,0,0.058-0.01,0.058-0.029
			c0-0.014-0.012-0.023-0.035-0.023c-0.034,0-0.098-0.006-0.141-0.012c-0.087-0.012-0.104-0.076-0.113-0.16
			c-0.012-0.104-0.013-0.289-0.014-0.51c0-0.037,0-0.07,0-0.107v-0.041C24.91,49.533,24.918,49.527,24.933,49.527z M24.91,48.434
			c0-0.023,0.005-0.035,0.025-0.041c0.03-0.01,0.082-0.012,0.154-0.012c0.171,0,0.443,0.119,0.443,0.529
			c0,0.238-0.084,0.371-0.17,0.434c-0.052,0.039-0.09,0.051-0.206,0.051c-0.073,0-0.159-0.01-0.221-0.029
			c-0.02-0.01-0.025-0.021-0.025-0.053V48.434z"/>
		<path class="primarycolor" d="M27.334,48.471c0.007-0.102,0.029-0.15,0.108-0.166c0.035-0.004,0.058-0.008,0.087-0.008
			c0.029,0,0.046-0.006,0.046-0.029c0-0.016-0.022-0.023-0.061-0.023c-0.109,0-0.28,0.01-0.353,0.01c-0.084,0-0.266-0.01-0.376-0.01
			c-0.047,0-0.069,0.008-0.069,0.023c0,0.023,0.018,0.029,0.046,0.029c0.035,0,0.072,0.004,0.104,0.012
			c0.063,0.014,0.093,0.064,0.099,0.162c0.005,0.094,0.005,0.174,0.005,0.613v0.51c0,0.279,0,0.508-0.014,0.631
			c-0.009,0.084-0.026,0.133-0.083,0.145c-0.026,0.006-0.062,0.012-0.104,0.012c-0.035,0-0.046,0.01-0.046,0.023
			c0,0.02,0.021,0.029,0.058,0.029c0.116,0,0.298-0.01,0.365-0.01c0.079,0,0.261,0.01,0.452,0.01c0.032,0,0.055-0.01,0.055-0.029
			c0-0.014-0.014-0.023-0.046-0.023c-0.043,0-0.107-0.006-0.147-0.012c-0.086-0.012-0.107-0.063-0.116-0.143
			c-0.012-0.125-0.012-0.354-0.012-0.633v-0.51C27.329,48.645,27.329,48.564,27.334,48.471z"/>
		<path class="primarycolor" d="M24.761,51.455c0.257,0.006,0.336,0.086,0.341,0.162l0.002,0.031c0.003,0.043,0.009,0.059,0.033,0.059
			c0.017,0,0.023-0.018,0.025-0.047c0-0.076,0.009-0.275,0.009-0.336c0-0.045-0.004-0.061-0.023-0.061
			c-0.023,0-0.092,0.029-0.278,0.029h-1.146c-0.096,0-0.206-0.006-0.29-0.016c-0.073-0.006-0.101-0.033-0.125-0.033
			c-0.017,0-0.026,0.018-0.035,0.055c-0.006,0.021-0.061,0.285-0.061,0.332c0,0.033,0.006,0.047,0.027,0.047
			c0.017,0,0.025-0.012,0.032-0.035c0.005-0.023,0.02-0.059,0.049-0.102c0.043-0.064,0.113-0.078,0.281-0.084l0.431-0.012v1.188
			c0,0.266,0,0.494-0.015,0.615c-0.009,0.084-0.026,0.148-0.084,0.158c-0.026,0.008-0.061,0.014-0.104,0.014
			c-0.035,0-0.046,0.008-0.046,0.023c0,0.02,0.02,0.027,0.058,0.027c0.116,0,0.298-0.008,0.365-0.008
			c0.081,0,0.263,0.008,0.454,0.008c0.032,0,0.055-0.008,0.055-0.027c0-0.016-0.014-0.023-0.046-0.023
			c-0.043,0-0.107-0.006-0.147-0.014c-0.087-0.01-0.104-0.074-0.113-0.154c-0.014-0.125-0.014-0.354-0.014-0.619v-1.188
			L24.761,51.455z"/>
		<path class="primarycolor" d="M28.027,51.244c-0.402,0-0.668,0.229-0.668,0.547c0,0.234,0.11,0.436,0.429,0.686l0.132,0.104
			c0.24,0.186,0.284,0.32,0.284,0.463c0,0.154-0.127,0.33-0.388,0.33c-0.18,0-0.35-0.078-0.414-0.293
			c-0.015-0.049-0.026-0.109-0.026-0.146c0-0.023-0.003-0.049-0.029-0.049c-0.023,0-0.032,0.031-0.035,0.076
			s-0.015,0.219-0.015,0.377c0,0.064,0.009,0.078,0.055,0.1c0.125,0.055,0.255,0.074,0.422,0.074c0.153,0,0.316-0.025,0.46-0.119
			c0.208-0.135,0.272-0.336,0.272-0.502c0-0.275-0.127-0.469-0.475-0.738l-0.082-0.061c-0.24-0.184-0.307-0.283-0.307-0.418
			c0-0.174,0.13-0.297,0.345-0.297c0.188,0,0.272,0.086,0.315,0.141c0.061,0.076,0.075,0.166,0.075,0.191
			c0,0.035,0.009,0.053,0.029,0.053c0.023,0,0.031-0.023,0.031-0.088c0-0.225,0.012-0.309,0.012-0.346
			c0-0.021-0.014-0.029-0.041-0.035C28.337,51.271,28.216,51.244,28.027,51.244z"/>
		<path class="primarycolor" d="M27.208,45.145c-0.028,0-0.045,0.031-0.081,0.115l-0.727,1.816c-0.057,0.145-0.113,0.242-0.246,0.26
			c-0.023,0.004-0.063,0.006-0.09,0.006c-0.022,0-0.034,0.006-0.034,0.023c0,0.023,0.018,0.029,0.055,0.029
			c0.15,0,0.31-0.008,0.342-0.008c0.09,0,0.214,0.008,0.307,0.008c0.032,0,0.049-0.006,0.049-0.029c0-0.018-0.009-0.023-0.043-0.023
			h-0.043c-0.09,0-0.116-0.037-0.116-0.09c0-0.033,0.014-0.104,0.043-0.176l0.145-0.375c0.006-0.018,0.012-0.023,0.026-0.023h0.666
			c0.015,0,0.023,0.006,0.029,0.021l0.222,0.574c0.015,0.035-0.006,0.061-0.026,0.066c-0.029,0.002-0.041,0.008-0.041,0.025
			c0,0.021,0.034,0.021,0.086,0.023c0.231,0.006,0.443,0.006,0.547,0.006c0.107,0,0.133-0.006,0.133-0.029
			c0-0.02-0.015-0.023-0.038-0.023c-0.035,0-0.079-0.002-0.122-0.012c-0.061-0.014-0.145-0.055-0.254-0.314
			c-0.186-0.439-0.648-1.621-0.718-1.779C27.252,45.168,27.235,45.145,27.208,45.145z M27.406,46.533h-0.554
			c-0.011,0-0.014-0.008-0.011-0.02l0.279-0.752c0.003-0.01,0.008-0.025,0.017-0.025c0.009,0,0.012,0.016,0.015,0.025l0.27,0.754
			C27.424,46.525,27.421,46.533,27.406,46.533z"/>
		<path class="primarycolor" d="M30.506,45.26c0.022,0,0.069,0,0.113,0.01c0.104,0.029,0.154,0.061,0.22,0.221l0.729,1.768
			c0.056,0.137,0.073,0.178,0.11,0.178c0.041,0,0.058-0.047,0.134-0.215c0.063-0.145,0.199-0.461,0.384-0.883
			c0.156-0.355,0.234-0.514,0.348-0.785c0.078-0.186,0.121-0.234,0.159-0.26c0.052-0.033,0.113-0.033,0.142-0.033
			c0.029,0,0.046-0.006,0.046-0.027c0-0.02-0.023-0.025-0.061-0.025c-0.086,0-0.223,0.008-0.272,0.008
			c-0.038,0-0.159-0.008-0.304-0.008c-0.055,0-0.081,0.006-0.081,0.029c0,0.02,0.023,0.023,0.049,0.023
			c0.038,0,0.082,0.002,0.116,0.014c0.026,0.008,0.038,0.031,0.038,0.055c0,0.025-0.012,0.068-0.026,0.105
			c-0.069,0.193-0.446,1.125-0.57,1.443h-0.012l-0.498-1.314c-0.041-0.104-0.066-0.186-0.066-0.223c0-0.027,0.008-0.047,0.029-0.061
			c0.023-0.018,0.066-0.02,0.113-0.02c0.026,0,0.044-0.006,0.044-0.027c0-0.02-0.032-0.025-0.067-0.025
			c-0.145,0-0.284,0.008-0.356,0.008c-0.102,0-0.266-0.008-0.42-0.008c-0.043,0-0.075,0.002-0.075,0.025
			C30.471,45.25,30.48,45.26,30.506,45.26z"/>
		<path class="primarycolor" d="M34.184,45.213c-0.055,0.002-0.63,0.002-0.724,0.002c-0.081,0-0.263-0.008-0.417-0.008
			c-0.043,0-0.063,0.006-0.063,0.025c0,0.021,0.018,0.027,0.049,0.027c0.04,0,0.09,0.002,0.113,0.008
			c0.095,0.02,0.119,0.066,0.125,0.164c0.005,0.092,0.005,0.174,0.005,0.615v0.508c0,0.268,0,0.496-0.014,0.617
			c-0.011,0.084-0.026,0.146-0.084,0.158c-0.026,0.006-0.061,0.012-0.104,0.012c-0.034,0-0.046,0.01-0.046,0.023
			c0,0.021,0.021,0.029,0.058,0.029c0.116,0,0.298-0.008,0.365-0.008c0.17,0,0.364,0.016,0.801,0.016c0.11,0,0.136,0,0.156-0.074
			c0.015-0.059,0.039-0.256,0.039-0.32c0-0.029,0-0.053-0.024-0.053c-0.02,0-0.026,0.012-0.032,0.043
			c-0.02,0.119-0.054,0.18-0.13,0.213c-0.075,0.035-0.196,0.035-0.272,0.035c-0.295,0-0.341-0.043-0.347-0.244
			c-0.003-0.084,0-0.348,0-0.447v-0.229c0-0.018,0.002-0.029,0.017-0.029c0.069,0,0.356,0.004,0.411,0.01
			c0.107,0.012,0.148,0.055,0.162,0.111c0.009,0.039,0.009,0.076,0.012,0.105c0,0.014,0.006,0.025,0.026,0.025
			c0.026,0,0.026-0.031,0.026-0.055c0-0.021,0.006-0.137,0.012-0.193c0.008-0.148,0.023-0.193,0.023-0.213
			c0-0.016-0.009-0.021-0.021-0.021c-0.015,0-0.026,0.014-0.047,0.037c-0.026,0.029-0.069,0.037-0.139,0.043
			c-0.066,0.006-0.398,0.006-0.462,0.006c-0.018,0-0.02-0.012-0.02-0.031v-0.732c0-0.021,0.006-0.029,0.02-0.029
			c0.058,0,0.362,0.006,0.41,0.012c0.146,0.018,0.175,0.053,0.195,0.104c0.014,0.035,0.017,0.084,0.017,0.104
			c0,0.027,0.006,0.041,0.026,0.041s0.026-0.018,0.029-0.031c0.005-0.035,0.011-0.162,0.014-0.191
			c0.008-0.133,0.023-0.166,0.023-0.188c0-0.014-0.003-0.027-0.018-0.027c-0.014,0-0.031,0.01-0.046,0.014
			C34.286,45.199,34.239,45.207,34.184,45.213z"/>
		<path class="primarycolor" d="M31.613,49.527l0.251,0.006c0.021,0,0.038,0.002,0.052,0.02c0.038,0.043,0.17,0.24,0.287,0.398
			c0.162,0.225,0.271,0.359,0.396,0.426c0.076,0.041,0.148,0.057,0.31,0.057h0.275c0.035,0,0.055-0.006,0.055-0.029
			c0-0.014-0.012-0.023-0.035-0.023c-0.024,0-0.049-0.004-0.081-0.008c-0.043-0.01-0.163-0.029-0.325-0.197
			c-0.17-0.18-0.37-0.438-0.628-0.762c0.293-0.236,0.382-0.434,0.382-0.648c0-0.193-0.116-0.342-0.197-0.396
			c-0.156-0.107-0.351-0.125-0.533-0.125c-0.089,0-0.31,0.01-0.408,0.01c-0.061,0-0.243-0.01-0.396-0.01
			c-0.043,0-0.064,0.008-0.064,0.027s0.018,0.025,0.049,0.025c0.041,0,0.09,0.004,0.113,0.008c0.096,0.021,0.118,0.068,0.124,0.166
			c0.006,0.094,0.006,0.174,0.006,0.613v0.51c0,0.268,0,0.494-0.014,0.615c-0.012,0.084-0.027,0.148-0.084,0.16
			c-0.026,0.006-0.061,0.012-0.104,0.012c-0.035,0-0.046,0.01-0.046,0.023c0,0.02,0.02,0.029,0.058,0.029
			c0.116,0,0.298-0.01,0.352-0.01c0.044,0,0.258,0.01,0.426,0.01c0.039,0,0.059-0.01,0.059-0.029c0-0.014-0.012-0.023-0.035-0.023
			c-0.035,0-0.098-0.006-0.142-0.012c-0.087-0.012-0.104-0.076-0.113-0.16c-0.015-0.121-0.015-0.348-0.015-0.617v-0.041
			C31.589,49.533,31.599,49.527,31.613,49.527z M31.589,48.434c0-0.023,0.006-0.035,0.027-0.041c0.028-0.01,0.081-0.012,0.153-0.012
			c0.17,0,0.443,0.119,0.443,0.529c0,0.238-0.084,0.371-0.171,0.434c-0.052,0.039-0.09,0.051-0.206,0.051
			c-0.072,0-0.159-0.01-0.219-0.029c-0.021-0.01-0.027-0.021-0.027-0.053V48.434z"/>
		<path class="primarycolor" d="M31.441,51.455c0.258,0.006,0.335,0.086,0.342,0.162l0.002,0.031c0.003,0.043,0.009,0.059,0.032,0.059
			c0.018,0,0.023-0.018,0.026-0.047c0-0.076,0.009-0.275,0.009-0.336c0-0.045-0.003-0.061-0.024-0.061
			c-0.022,0-0.092,0.029-0.277,0.029h-1.146c-0.095,0-0.206-0.006-0.29-0.016c-0.072-0.006-0.101-0.033-0.124-0.033
			c-0.018,0-0.026,0.018-0.035,0.055c-0.006,0.021-0.061,0.285-0.061,0.332c0,0.033,0.005,0.047,0.026,0.047
			c0.018,0,0.027-0.012,0.032-0.035c0.006-0.023,0.021-0.059,0.05-0.102c0.043-0.064,0.112-0.078,0.28-0.084l0.431-0.012v1.188
			c0,0.266,0,0.494-0.014,0.615c-0.009,0.084-0.027,0.148-0.084,0.158c-0.026,0.008-0.061,0.014-0.104,0.014
			c-0.035,0-0.047,0.008-0.047,0.023c0,0.02,0.021,0.027,0.058,0.027c0.116,0,0.298-0.008,0.365-0.008
			c0.08,0,0.263,0.008,0.454,0.008c0.032,0,0.055-0.008,0.055-0.027c0-0.016-0.015-0.023-0.046-0.023
			c-0.043,0-0.107-0.006-0.147-0.014c-0.087-0.01-0.104-0.074-0.113-0.154c-0.015-0.125-0.015-0.354-0.015-0.619v-1.188
			L31.441,51.455z"/>
		<path class="primarycolor" d="M34.04,51.791c0,0.234,0.11,0.436,0.428,0.686l0.133,0.104c0.24,0.186,0.284,0.32,0.284,0.463
			c0,0.154-0.127,0.33-0.388,0.33c-0.179,0-0.35-0.078-0.414-0.293c-0.016-0.049-0.027-0.109-0.027-0.146
			c0-0.023-0.002-0.049-0.028-0.049c-0.023,0-0.032,0.031-0.035,0.076c-0.002,0.045-0.014,0.219-0.014,0.377
			c0,0.064,0.009,0.078,0.055,0.1c0.125,0.055,0.255,0.074,0.422,0.074c0.154,0,0.316-0.025,0.46-0.119
			c0.208-0.135,0.272-0.336,0.272-0.502c0-0.275-0.127-0.469-0.475-0.738l-0.081-0.061c-0.241-0.184-0.307-0.283-0.307-0.418
			c0-0.174,0.129-0.297,0.344-0.297c0.188,0,0.272,0.086,0.316,0.141c0.061,0.076,0.075,0.166,0.075,0.191
			c0,0.035,0.009,0.053,0.03,0.053c0.022,0,0.031-0.023,0.031-0.088c0-0.225,0.011-0.309,0.011-0.346
			c0-0.021-0.015-0.029-0.04-0.035c-0.075-0.021-0.197-0.049-0.385-0.049C34.306,51.244,34.04,51.473,34.04,51.791z"/>
		<path class="primarycolor" d="M33.852,53.42c-0.035,0-0.078-0.004-0.122-0.012c-0.061-0.016-0.145-0.055-0.254-0.314
			c-0.186-0.441-0.648-1.621-0.718-1.781c-0.029-0.064-0.046-0.092-0.072-0.092c-0.029,0-0.046,0.031-0.081,0.115l-0.726,1.818
			c-0.059,0.145-0.113,0.242-0.247,0.26c-0.023,0.002-0.063,0.006-0.089,0.006c-0.023,0-0.034,0.006-0.034,0.023
			c0,0.023,0.017,0.029,0.055,0.029c0.15,0,0.309-0.01,0.341-0.01c0.09,0,0.214,0.01,0.307,0.01c0.032,0,0.049-0.006,0.049-0.029
			c0-0.018-0.008-0.023-0.043-0.023h-0.043c-0.09,0-0.116-0.037-0.116-0.09c0-0.035,0.014-0.105,0.043-0.176l0.144-0.375
			c0.006-0.018,0.012-0.023,0.026-0.023h0.667c0.014,0,0.023,0.006,0.029,0.02l0.222,0.574c0.015,0.035-0.005,0.063-0.025,0.066
			c-0.03,0.004-0.041,0.01-0.041,0.027c0,0.02,0.034,0.02,0.087,0.023c0.086,0.002,0.167,0.004,0.244,0.004
			c0.128,0.002,0.238,0.002,0.303,0.002c0.107,0,0.133-0.006,0.133-0.029C33.889,53.424,33.875,53.42,33.852,53.42z M32.882,52.611
			h-0.554c0,0,0,0,0,0c-0.007-0.002-0.01-0.004-0.011-0.008c0-0.004-0.001-0.008,0-0.012l0.279-0.752
			c0.003-0.012,0.008-0.025,0.017-0.025s0.011,0.014,0.015,0.025l0.269,0.754C32.9,52.604,32.896,52.611,32.882,52.611z"/>
		<path class="primarycolor" d="M34.009,49.084c0-0.439,0-0.52,0.006-0.613c0.005-0.102,0.029-0.15,0.107-0.166
			c0.035-0.004,0.058-0.008,0.087-0.008s0.046-0.006,0.046-0.029c0-0.016-0.023-0.023-0.061-0.023c-0.11,0-0.281,0.01-0.354,0.01
			c-0.058,0-0.162-0.004-0.257-0.008l-0.013,0.012l0.013-0.012c-0.043,0-0.084-0.002-0.119-0.002c-0.046,0-0.069,0.008-0.069,0.023
			c0,0.023,0.018,0.029,0.046,0.029c0.025,0,0.05,0.004,0.076,0.008l0,0c0.009,0.002,0.02,0,0.029,0.004
			c0.063,0.014,0.092,0.064,0.099,0.162c0.005,0.094,0.005,0.174,0.005,0.613v0.51c0,0.279,0,0.508-0.014,0.631
			c-0.009,0.084-0.026,0.133-0.084,0.145c-0.026,0.006-0.061,0.012-0.104,0.012c-0.034,0-0.046,0.01-0.046,0.023
			c0,0.02,0.021,0.029,0.058,0.029c0.116,0,0.298-0.01,0.365-0.01c0.078,0,0.26,0.01,0.451,0.01c0.032,0,0.055-0.01,0.055-0.029
			c0-0.014-0.015-0.023-0.046-0.023c-0.043,0-0.107-0.006-0.147-0.012c-0.087-0.012-0.108-0.063-0.116-0.143
			c-0.012-0.125-0.012-0.354-0.012-0.633V49.084z"/>
		
			<line fill="none" stroke="#283F6E" stroke-width="0" stroke-linecap="round" stroke-linejoin="round" x1="33.571" y1="48.258" x2="33.584" y2="48.246"/>
		<path class="primarycolor" d="M27.171,53.42c-0.035,0-0.078-0.004-0.121-0.014c-0.061-0.014-0.145-0.055-0.255-0.313
			c-0.083-0.197-0.22-0.541-0.354-0.877c-0.166-0.414-0.325-0.816-0.363-0.904c-0.028-0.066-0.046-0.092-0.072-0.092
			c-0.028,0-0.046,0.031-0.081,0.115l-0.727,1.816c-0.006,0.018-0.013,0.029-0.02,0.045c-0.052,0.119-0.108,0.201-0.226,0.217
			c-0.016,0.002-0.038,0.002-0.06,0.004c-0.01,0.002-0.021,0.002-0.03,0.002c-0.023,0-0.035,0.006-0.035,0.023
			c0,0.008,0.005,0.014,0.01,0.018c0.009,0.008,0.022,0.01,0.044,0.01c0.151,0,0.311-0.008,0.342-0.008
			c0.089,0,0.213,0.008,0.306,0.008c0.032,0,0.049-0.004,0.049-0.027c0-0.018-0.009-0.023-0.043-0.023h-0.044
			c-0.089,0-0.116-0.037-0.116-0.09c0-0.035,0.015-0.105,0.044-0.178l0.079-0.205l0.065-0.17c0.006-0.016,0.011-0.021,0.026-0.021
			h0.156h0.51c0.015,0,0.024,0.006,0.029,0.02l0.223,0.574c0.015,0.035-0.005,0.061-0.025,0.066
			c-0.029,0.004-0.041,0.01-0.041,0.027c0,0.02,0.035,0.02,0.087,0.023c0.231,0.004,0.443,0.004,0.547,0.004
			c0.107,0,0.132-0.004,0.132-0.027C27.208,53.422,27.194,53.42,27.171,53.42z M26.202,52.609h-0.268h-0.286
			c-0.012,0-0.015-0.006-0.012-0.018l0.278-0.752c0.003-0.012,0.009-0.027,0.018-0.027s0.012,0.016,0.015,0.027l0.213,0.596
			l0.057,0.158C26.22,52.604,26.217,52.609,26.202,52.609z"/>
		<path fill="none" stroke="#283F6E" stroke-width="0" stroke-linecap="round" stroke-linejoin="round" d="M29.426,55.818
			c0.014,0.021,0.027,0.045,0.041,0.066"/>
		<path fill="none" stroke="#283F6E" stroke-width="0" stroke-linecap="round" stroke-linejoin="round" d="M28.796,57.184
			c-0.023-0.006-0.047-0.012-0.068-0.021"/>
		<path fill="none" stroke="#283F6E" stroke-width="0" stroke-linecap="round" stroke-linejoin="round" d="M28.581,57.094
			c0.007,0.004,0.017,0.008,0.025,0.016"/>
		<path class="primarycolor" d="M11.84,25.836v11.791c0,8.043,2.299,15.193,6.832,21.252c3.465,4.629,7.665,7.721,10.44,9.068l0.163,0.08
			l0.164-0.08c4.804-2.334,17.271-12.332,17.271-30.32V25.836H11.84z M19.652,50.67c-0.573,0.164-1.33,0.445-1.913,0.863
			c-0.712,0.51-0.964,0.953-0.964,1.816c0,1.059,0.792,1.609,1.244,1.609c1.223,0,1.399-0.965,1.399-0.965s-1.174,0.152-1.174-0.895
			c0-1.018,0.962-1.621,1.407-1.848v6.23l-0.684,0.531c-1.729-2.385-3.113-4.939-4.142-7.652c0.321,0.35,0.813,0.709,1.487,0.709
			c1.164,0,2.38-0.627,3.339-0.77V50.67z M19.654,49.707l-4.251-0.002h-0.816h-0.068c0,0,0.013-0.033,0.038-0.088
			c0.135-0.287,0.651-1.199,1.757-1.199c1.152,0,2.384,0.691,3.339,0.875c0.002,0,0.004,0.002,0.007,0.002L19.654,49.707z
			 M19.652,48.121v0.693c-0.561-0.176-1.292-0.527-1.913-0.973c-0.712-0.512-0.964-0.955-0.964-1.816
			c0-1.061,0.792-1.611,1.244-1.611c1.223,0,1.399,0.967,1.399,0.967s-1.174-0.152-1.174,0.893
			C18.245,47.291,19.207,47.896,19.652,48.121z M12.641,37.467h16.261c-0.432,0.287-1.052,0.873-1.052,1.871
			c0,1.365,0.745,2.861,0.903,3.996c-0.195-0.074-0.418-0.148-0.652-0.207c-0.187-0.725-0.527-1.779-0.967-2.463
			c-0.533-0.828-1.235-1.449-2.082-1.449S23.6,39.836,23.6,40.639c0,1.424,1.126,2.291,1.126,2.291s-0.279-1.773,0.811-1.773
			c1,0,1.68,1.211,1.979,1.877c-0.058-0.004-0.114-0.006-0.17-0.006c-0.502,0-1.156,0.152-1.788,0.303
			c-0.503,0.119-1.023,0.242-1.321,0.242c-0.505,0-1.227-0.385-1.461-0.533l-0.139-0.086l-0.15,0.064c0,0-1.069,0.473-1.177,0.52
			h-1.553L12.641,37.467z M28.984,54.539c-0.407-0.182-1.023-0.4-1.64-0.4c-0.499,0-1.011,0.117-1.508,0.229
			c-0.502,0.113-1.021,0.23-1.531,0.23c-0.33,0-0.617-0.029-0.85-0.064c-0.232-0.037-0.414-0.084-0.537-0.121V43.818
			c0.358,0.174,0.863,0.371,1.317,0.371c0.37,0,0.9-0.127,1.462-0.26c0.598-0.141,1.215-0.287,1.646-0.287
			c0.603,0,1.324,0.311,1.64,0.461V54.539z M22.489,54.918c0.011,0.004,0.126,0.053,0.33,0.109c0.308,0.084,0.818,0.188,1.487,0.188
			c0.578,0,1.131-0.125,1.667-0.244c0.485-0.109,0.942-0.213,1.372-0.213c0.565,0,1.16,0.236,1.501,0.396
			c-0.13,0.199-0.241,0.377-0.338,0.541c-0.278-0.115-0.768-0.281-1.305-0.281c-0.347,0-0.799,0.076-1.322,0.168
			c-0.623,0.105-1.328,0.227-1.954,0.227c-0.61,0-1.308-0.123-1.814-0.236c-0.198-0.043-0.368-0.084-0.491-0.115V44.072
			c0.18-0.078,0.459-0.201,0.679-0.299v11.064L22.489,54.918z M20.345,56.945c-0.032,0-0.057,0-0.075,0V44.154h0.735v11.77
			l0.222,0.066c0.015,0.004,0.109,0.031,0.259,0.07c0.478,0.123,1.529,0.365,2.441,0.365c0.678,0,1.411-0.125,2.058-0.236
			c0.475-0.08,0.923-0.158,1.218-0.158c0.394,0,0.768,0.117,1.003,0.209c-0.159,0.314-0.236,0.531-0.27,0.686
			C25.627,56.932,21.098,56.943,20.345,56.945z M25.306,61.734c-0.848,0-1.453-0.557-1.453-1.275c0-1.273,1.246-2.637,1.246-2.637
			s-0.279,1.701,0.81,1.701c1.215,0,1.865-1.598,2.003-1.98h0.233c0.07,0.061,0.151,0.107,0.236,0.148
			c-0.181,0.744-0.532,2.104-0.993,2.746C26.855,61.178,26.153,61.734,25.306,61.734z M29.279,67.191
			c-0.004-0.002-0.008-0.004-0.012-0.006c-0.277-0.303-1.582-1.805-1.582-3.324c0-1.672,1.02-4.066,1.185-6.031
			c0.182,0.025,0.338,0.027,0.419,0.025l0.005,9.328C29.29,67.188,29.284,67.189,29.279,67.191z M29.31,57.236l-0.014,0.002
			c-0.013,0-0.026,0-0.039,0c-0.11,0.002-0.226-0.008-0.333-0.025c-0.003-0.002-0.008-0.002-0.012-0.002
			c-0.031-0.008-0.062-0.014-0.09-0.02c-0.009-0.004-0.072-0.02-0.094-0.029c-0.013-0.002-0.024-0.008-0.037-0.012
			c-0.015-0.008-0.031-0.012-0.044-0.02c-0.016-0.008-0.059-0.033-0.066-0.037c-0.019-0.014-0.027-0.039-0.038-0.055
			c0.003-0.021,0.004-0.037,0.014-0.066c0.004-0.016,0.009-0.029,0.015-0.047c0-0.002,0.001-0.002,0.001-0.002
			c0.001-0.002,0.002-0.006,0.003-0.01c0.035-0.094,0.091-0.215,0.163-0.355c0.005-0.01,0.01-0.02,0.016-0.029
			c0.022-0.043,0.045-0.086,0.07-0.133c0.006-0.012,0.013-0.023,0.019-0.035c0.027-0.047,0.054-0.098,0.082-0.146
			c0.001-0.002,0.002-0.004,0.004-0.006c0.097-0.172,0.207-0.355,0.321-0.537c0.015-0.023,0.028-0.045,0.042-0.066
			c0.045,0.07,0.089,0.143,0.133,0.213c0.014,0.021,0.098,0.162,0.126,0.209c0.016,0.027,0.031,0.055,0.047,0.082
			c0.024,0.041,0.102,0.18,0.117,0.207c0.021,0.035,0.041,0.07,0.059,0.107c0.015,0.027,0.077,0.146,0.092,0.176
			c0.013,0.027,0.027,0.055,0.039,0.078c0.014,0.029,0.025,0.057,0.038,0.082c0.01,0.023,0.065,0.15,0.077,0.186
			c0.002,0.006,0.003,0.01,0.005,0.018c0.011,0.033,0.02,0.064,0.023,0.088C29.954,57.186,29.31,57.236,29.31,57.236z M29.31,37.434
			c0,0,0.04,0.01,0.1,0.033c0.32,0.117,1.32,0.586,1.32,1.871c0,1.359-0.707,2.848-0.862,3.98c-0.233,0.09-0.427,0.178-0.555,0.24
			l-0.002-6.092h0.1C29.35,37.443,29.311,37.434,29.31,37.434L29.31,37.434z M36.963,55.457c-0.165,0.043-0.412,0.104-0.701,0.162
			c-0.479,0.096-1.075,0.189-1.604,0.189c-0.625,0-1.332-0.121-1.954-0.227c-0.523-0.092-0.976-0.168-1.322-0.168
			c-0.538,0-1.027,0.166-1.306,0.281c-0.097-0.164-0.208-0.342-0.338-0.541c0.343-0.16,0.937-0.396,1.502-0.396
			c0.43,0,0.887,0.104,1.371,0.213c0.535,0.119,1.089,0.244,1.667,0.244c0.535,0,0.968-0.066,1.278-0.135
			c0.334-0.076,0.525-0.156,0.54-0.162l0.188-0.08V43.773c0.221,0.098,0.498,0.221,0.679,0.299V55.457z M37.358,55.99l0.222-0.066
			v-11.77h0.736v12.791h-7.663c-0.031-0.156-0.107-0.377-0.273-0.705c0.234-0.092,0.607-0.209,1.003-0.209
			c0.294,0,0.743,0.078,1.218,0.158c0.647,0.111,1.38,0.236,2.058,0.236c0.802,0,1.712-0.188,2.246-0.316
			C37.167,56.045,37.338,55.996,37.358,55.99z M35.667,54.412c-0.164,0.049-0.431,0.113-0.783,0.152
			c-0.18,0.02-0.381,0.033-0.605,0.033c-0.509,0-1.028-0.117-1.531-0.23c-0.496-0.111-1.008-0.229-1.507-0.229
			c-0.616,0-1.234,0.219-1.64,0.4V44.104c0.315-0.15,1.037-0.461,1.64-0.461c0.43,0,1.048,0.146,1.646,0.287
			c0.562,0.133,1.093,0.26,1.462,0.26c0.453,0,0.958-0.197,1.317-0.371V54.412z M33.955,42.93c0,0,0.279-1.773-0.811-1.773
			c-0.998,0-1.677,1.205-1.977,1.873c-0.193,0.006-0.39,0.033-0.582,0.074c0.188-0.723,0.526-1.764,0.961-2.439
			c0.532-0.828,1.234-1.449,2.082-1.449s1.453,0.621,1.453,1.424C35.081,42.063,33.955,42.93,33.955,42.93z M29.714,66.961
			c0.503-0.693,1.28-1.949,1.28-3.1c0-1.674-1.074-4.07-1.247-6.035c0.145-0.021,0.306-0.061,0.454-0.131
			c0.181,0.746,0.532,2.102,0.992,2.742c0.533,0.74,1.234,1.297,2.082,1.297c0.848,0,1.454-0.557,1.454-1.275
			c0-1.273-1.246-2.637-1.246-2.637s0.279,1.701-0.81,1.701c-1.195,0-1.843-1.547-1.996-1.961h8.131l0.613,0.469
			C36.056,62.66,32.161,65.623,29.714,66.961z M40.522,54.984c-1.205,0-1.378-0.967-1.378-0.967s1.157,0.152,1.157-0.893
			c0-1.002-0.92-1.604-1.367-1.836v-0.723c0.554,0.193,1.277,0.563,1.865,0.992c0.701,0.51,0.95,0.953,0.95,1.816
			C41.748,54.434,40.968,54.984,40.522,54.984z M43.836,49.814c-0.024,0.055-0.054,0.117-0.054,0.117
			c-0.246,0.354-0.786,0.965-1.634,0.965c-1.137,0-2.271-0.666-3.212-0.848l-0.003-0.354l4.939-0.002
			C43.858,49.732,43.852,49.777,43.836,49.814z M45.964,37.627c0,4.357-0.746,8.232-1.938,11.635c-0.37-0.4-1.015-0.934-1.823-0.934
			c-1.139,0-2.329,0.619-3.27,0.768v-0.432c0.554-0.145,1.277-0.369,1.865-0.797c0.701-0.514,0.95-0.955,0.95-1.818
			c0-1.059-0.78-1.609-1.226-1.609c-1.205,0-1.378,0.965-1.378,0.965s1.157-0.152,1.157,0.895c0,1.002-0.92,1.604-1.367,1.836
			v-4.563l6.985-6.105h0.046C45.964,37.568,45.964,37.627,45.964,37.627z M45.964,36.721H12.586V26.582c0.714,0,16.689,0,16.689,0
			s15.976,0,16.689,0V36.721z"/>
		<path class="primarycolor" d="M22.077,31.535c0.009-0.393-0.162-0.597-0.314-0.776c-0.101-0.118-0.195-0.23-0.257-0.42
			c-0.062-0.19-0.051-0.338-0.039-0.492c0.018-0.235,0.037-0.5-0.201-0.813c-0.007-0.044,0.003-0.156,0.01-0.232
			c0.03-0.328,0.073-0.818-0.341-1.119l-0.032-0.027c-0.42-0.326-0.885-0.126-1.193,0.006c-0.07,0.03-0.174,0.074-0.219,0.081
			c-0.371-0.129-0.617-0.03-0.834,0.06c-0.145,0.06-0.28,0.114-0.48,0.114c-0.2,0-0.336-0.055-0.48-0.114
			c-0.217-0.09-0.464-0.188-0.835-0.06c-0.044-0.007-0.147-0.051-0.218-0.081c-0.303-0.13-0.757-0.323-1.17-0.021l-0.035,0.021
			c-0.439,0.299-0.394,0.803-0.364,1.137c0.007,0.077,0.017,0.188,0.01,0.232c-0.238,0.313-0.22,0.578-0.201,0.813
			c0.011,0.155,0.022,0.302-0.039,0.491c-0.062,0.191-0.157,0.303-0.258,0.422c-0.151,0.179-0.323,0.382-0.314,0.776
			c-0.021,0.039-0.094,0.123-0.145,0.182c-0.216,0.248-0.541,0.62-0.382,1.106l0.01,0.04c0.148,0.51,0.642,0.621,0.968,0.697
			c0.076,0.016,0.185,0.041,0.225,0.063c0.224,0.322,0.482,0.387,0.71,0.441c0.151,0.037,0.294,0.072,0.456,0.189
			c0.162,0.117,0.239,0.242,0.321,0.375c0.123,0.201,0.264,0.426,0.641,0.539c0.031,0.031,0.089,0.127,0.129,0.195
			c0.169,0.283,0.438,0.713,0.958,0.705c0.53,0.018,0.808-0.416,0.979-0.703c0.04-0.066,0.097-0.162,0.128-0.195
			c0.376-0.111,0.517-0.338,0.64-0.539c0.082-0.131,0.16-0.256,0.321-0.373c0.162-0.119,0.305-0.154,0.456-0.191
			c0.228-0.055,0.486-0.119,0.71-0.441c0.04-0.021,0.149-0.045,0.225-0.063c0.327-0.074,0.82-0.188,0.968-0.696l-0.01,0.028
			l0.017-0.04c0.18-0.5-0.153-0.881-0.374-1.134C22.171,31.659,22.098,31.574,22.077,31.535z M22.075,31.575v0.002l0,0
			C22.075,31.576,22.075,31.575,22.075,31.575z M21.238,29l0.001,0.002C21.239,29.002,21.239,29.001,21.238,29L21.238,29z
			 M20.242,28.034c0.131-0.033,0.24-0.029,0.332,0.042l0.012,0.011l0.026,0.02c0.081,0.056,0.121,0.137,0.137,0.242
			c-0.003,0.058-0.03,0.104-0.057,0.137c-0.063,0.078-0.168,0.126-0.271,0.13c-0.078,0.001-0.155,0.011-0.229,0.029
			c-0.005-0.085-0.021-0.17-0.05-0.253c-0.011-0.031-0.024-0.062-0.038-0.092C20.085,28.235,20.075,28.118,20.242,28.034z
			 M19.53,27.756L19.53,27.756c0,0-0.001,0-0.001,0H19.53z M16.824,27.756c-0.001,0-0.001,0-0.002,0l0,0H16.824z M16.715,28.567
			c0.049-0.14,0.175-0.269,0.315-0.319c0.185-0.067,0.277-0.028,0.463,0.048c0.168,0.068,0.378,0.154,0.684,0.154
			c0.305,0,0.514-0.086,0.683-0.154c0.186-0.076,0.279-0.115,0.463-0.048c0.139,0.051,0.266,0.18,0.314,0.319
			c0.044,0.126,0.027,0.255-0.051,0.382c-0.223,0.362-0.3,0.445-0.303,0.45l0.003,0.003l-0.615,0.846
			c-0.099,0.052-0.22,0.071-0.309,0.054l-0.001,0.006c-0.063-0.011-0.129-0.019-0.195-0.019c-0.042,0-0.082,0.003-0.122,0.008
			c-0.088,0.017-0.206-0.002-0.305-0.054l-1.023-1.408C16.686,28.745,16.684,28.655,16.715,28.567z M18.75,31.409
			c0,0.323-0.262,0.586-0.584,0.586c-0.323,0-0.585-0.263-0.585-0.586c0-0.322,0.263-0.585,0.585-0.585
			C18.487,30.824,18.75,31.087,18.75,31.409z M15.737,28.103l0.013-0.008l0.027-0.019c0.078-0.06,0.167-0.073,0.272-0.056
			c0.055,0.021,0.091,0.062,0.113,0.097c0.055,0.085,0.067,0.198,0.04,0.298c-0.024,0.074-0.038,0.15-0.043,0.227
			c-0.083-0.021-0.169-0.032-0.257-0.031c-0.026,0.001-0.053,0.005-0.08,0.009c-0.061,0.002-0.198-0.009-0.229-0.215
			C15.603,28.27,15.641,28.169,15.737,28.103z M14.273,31.57c0,0.002,0,0.002,0,0.003l0,0V31.57z M14.802,32.71
			c-0.008,0.025-0.011,0.051-0.017,0.076c-0.017,0.059-0.068,0.188-0.276,0.153c-0.125-0.05-0.209-0.117-0.242-0.229l-0.004-0.014
			l-0.009-0.032c-0.033-0.094-0.017-0.184,0.033-0.277c0.037-0.045,0.085-0.066,0.124-0.076c0.101-0.026,0.218-0.002,0.305,0.06
			c0.062,0.043,0.126,0.077,0.193,0.105C14.865,32.548,14.828,32.625,14.802,32.71z M14.924,33.584L14.924,33.584
			C14.925,33.584,14.925,33.584,14.924,33.584L14.924,33.584z M15.012,31.925c-0.118-0.09-0.202-0.25-0.207-0.397
			c-0.006-0.197,0.059-0.274,0.188-0.426c0.117-0.14,0.264-0.313,0.358-0.603l0,0c0.094-0.291,0.078-0.516,0.064-0.697
			c-0.016-0.2-0.023-0.301,0.098-0.455c0.091-0.117,0.252-0.197,0.4-0.201c0.134-0.003,0.25,0.054,0.348,0.167
			c0.275,0.324,0.948,1.267,0.948,1.267c0.02,0.112,0.004,0.234-0.041,0.315l0.003,0.002c-0.048,0.093-0.085,0.191-0.106,0.297l0,0
			c0,0.003-0.001,0.006-0.001,0.007c-0.001,0.007-0.003,0.012-0.003,0.019c-0.017,0.084-0.068,0.179-0.14,0.25l-1.657,0.539
			C15.171,32.008,15.086,31.981,15.012,31.925z M17.836,34.365c-0.029,0.09-0.081,0.162-0.157,0.217
			c-0.123,0.084-0.3,0.113-0.442,0.072c-0.189-0.053-0.242-0.139-0.347-0.311c-0.096-0.154-0.214-0.348-0.461-0.525
			c-0.247-0.18-0.467-0.234-0.644-0.277c-0.194-0.047-0.292-0.07-0.402-0.234c-0.083-0.123-0.11-0.301-0.067-0.442
			c0.039-0.128,0.128-0.222,0.266-0.278c0.393-0.162,1.504-0.514,1.504-0.514c0.111,0.017,0.22,0.072,0.282,0.14
			c0.074,0.072,0.16,0.139,0.252,0.19c0.082,0.037,0.167,0.123,0.218,0.223V34.365z M18.489,35.371
			c-0.087,0.105-0.177,0.164-0.293,0.162l-0.015-0.004h-0.033c-0.099,0.004-0.179-0.039-0.254-0.117
			c-0.03-0.047-0.036-0.102-0.034-0.141c0.005-0.105,0.066-0.211,0.153-0.275c0.059-0.043,0.111-0.094,0.157-0.148
			c0.055,0.066,0.118,0.125,0.19,0.176c0.021,0.016,0.045,0.027,0.068,0.039C18.479,35.098,18.585,35.186,18.489,35.371z
			 M19.229,35.178L19.229,35.178c0,0,0.001,0,0.001,0H19.229z M20.962,33.309c-0.11,0.164-0.208,0.188-0.402,0.234
			c-0.177,0.043-0.396,0.098-0.644,0.277l0,0c-0.247,0.18-0.366,0.371-0.461,0.525c-0.105,0.172-0.158,0.258-0.347,0.313
			c-0.143,0.041-0.32,0.01-0.442-0.074c-0.11-0.076-0.171-0.189-0.183-0.34c-0.033-0.422-0.02-0.535-0.018-0.541h-0.005v-1.047
			c0.05-0.1,0.136-0.187,0.218-0.225c0.092-0.047,0.184-0.111,0.26-0.182c0.062-0.065,0.169-0.12,0.279-0.138l1.656,0.538
			c0.077,0.056,0.13,0.127,0.157,0.216C21.073,33.008,21.045,33.188,20.962,33.309z M21.337,31.929
			c-0.106,0.081-0.234,0.104-0.379,0.069c-0.414-0.1-0.517-0.148-0.521-0.149l-0.002,0.004l-0.994-0.323
			c-0.081-0.079-0.136-0.188-0.147-0.277c-0.015-0.104-0.05-0.209-0.092-0.303c-0.044-0.081-0.06-0.202-0.04-0.313l1.019-1.404
			c0.077-0.055,0.161-0.083,0.254-0.082c0.148,0.004,0.309,0.084,0.401,0.201c0.121,0.154,0.113,0.255,0.098,0.455
			c-0.014,0.181-0.031,0.407,0.063,0.698c0.094,0.29,0.241,0.463,0.359,0.602c0.129,0.153,0.195,0.229,0.188,0.427
			C21.538,31.68,21.456,31.839,21.337,31.929z M21.419,33.586C21.419,33.586,21.419,33.586,21.419,33.586h0.001H21.419z
			 M22.093,32.668l-0.006,0.015l-0.011,0.031c-0.027,0.094-0.091,0.157-0.187,0.204c-0.057,0.017-0.109,0.005-0.148-0.011
			c-0.094-0.036-0.172-0.121-0.207-0.218c-0.025-0.074-0.058-0.145-0.099-0.209c0.08-0.031,0.156-0.072,0.227-0.126
			c0.026-0.02,0.051-0.042,0.075-0.064c0.055-0.037,0.163-0.083,0.295,0.049C22.103,32.454,22.133,32.56,22.093,32.668z"/>
		<path class="primarycolor" d="M27.981,27.741c-0.044-0.007-0.147-0.051-0.218-0.081c-0.303-0.13-0.757-0.323-1.171-0.021l-0.035,0.021
			c-0.439,0.299-0.393,0.803-0.363,1.137c0.007,0.077,0.017,0.188,0.01,0.232c-0.238,0.313-0.219,0.578-0.201,0.813
			c0.012,0.155,0.022,0.302-0.039,0.491c-0.062,0.191-0.157,0.303-0.258,0.422c-0.152,0.179-0.323,0.382-0.314,0.776
			c-0.021,0.039-0.094,0.123-0.146,0.182c-0.217,0.248-0.541,0.62-0.381,1.106l0.009,0.04c0.148,0.51,0.642,0.621,0.968,0.697
			c0.076,0.016,0.185,0.041,0.225,0.063c0.224,0.322,0.482,0.387,0.71,0.441c0.151,0.037,0.294,0.072,0.456,0.189
			c0.161,0.117,0.238,0.242,0.32,0.375c0.124,0.201,0.264,0.426,0.641,0.539c0.031,0.031,0.089,0.127,0.129,0.195
			c0.169,0.283,0.438,0.713,0.958,0.705c0.531,0.018,0.808-0.416,0.979-0.703c0.039-0.066,0.097-0.162,0.128-0.195
			c0.377-0.111,0.517-0.338,0.641-0.539c0.082-0.131,0.159-0.256,0.321-0.373c0.162-0.119,0.305-0.154,0.456-0.191
			c0.228-0.055,0.487-0.119,0.71-0.441c0.041-0.021,0.149-0.045,0.226-0.063c0.326-0.074,0.819-0.188,0.968-0.696l-0.01,0.028
			l0.017-0.04c0.18-0.5-0.154-0.881-0.375-1.134c-0.051-0.058-0.125-0.143-0.145-0.182c0.009-0.393-0.162-0.597-0.314-0.776
			c-0.101-0.118-0.196-0.23-0.257-0.42c-0.062-0.19-0.051-0.338-0.039-0.492c0.017-0.235,0.036-0.5-0.202-0.813
			c-0.007-0.044,0.003-0.156,0.01-0.232c0.03-0.328,0.073-0.818-0.34-1.119l-0.033-0.027c-0.419-0.326-0.885-0.126-1.192,0.006
			c-0.072,0.03-0.175,0.074-0.219,0.081c-0.371-0.129-0.618-0.03-0.835,0.06c-0.144,0.06-0.28,0.114-0.48,0.114
			s-0.335-0.055-0.48-0.114C28.599,27.711,28.352,27.612,27.981,27.741z M27.943,27.756C27.943,27.756,27.943,27.756,27.943,27.756
			L27.943,27.756L27.943,27.756z M26.858,28.103l0.013-0.008l0.027-0.019c0.078-0.06,0.167-0.073,0.272-0.056
			c0.055,0.021,0.09,0.062,0.113,0.097c0.055,0.085,0.068,0.198,0.04,0.298c-0.023,0.074-0.037,0.15-0.042,0.227
			c-0.083-0.021-0.169-0.032-0.257-0.031c-0.027,0.001-0.053,0.005-0.079,0.009c-0.062,0.002-0.199-0.009-0.23-0.215
			C26.724,28.27,26.762,28.169,26.858,28.103z M25.394,31.57c0,0.002,0,0.002,0,0.003h0V31.57z M25.923,32.71
			c-0.008,0.025-0.011,0.051-0.017,0.076c-0.017,0.059-0.068,0.188-0.276,0.153c-0.125-0.05-0.209-0.117-0.243-0.229l-0.003-0.014
			l-0.009-0.032c-0.034-0.094-0.017-0.184,0.032-0.277c0.037-0.045,0.086-0.066,0.125-0.076c0.101-0.026,0.218-0.002,0.305,0.06
			c0.061,0.043,0.125,0.077,0.193,0.105C25.986,32.548,25.948,32.625,25.923,32.71z M26.045,33.584L26.045,33.584L26.045,33.584
			L26.045,33.584z M26.133,31.925c-0.119-0.09-0.202-0.25-0.207-0.397c-0.007-0.197,0.058-0.274,0.188-0.426
			c0.117-0.14,0.264-0.313,0.358-0.603l0,0c0.095-0.291,0.077-0.516,0.064-0.697c-0.015-0.2-0.023-0.301,0.098-0.455
			c0.091-0.117,0.252-0.197,0.401-0.201c0.133-0.003,0.25,0.054,0.347,0.167c0.275,0.324,0.948,1.267,0.948,1.267
			c0.021,0.112,0.006,0.234-0.039,0.315l0.002,0.002c-0.048,0.093-0.084,0.191-0.105,0.297h0c0,0.003-0.001,0.006-0.001,0.007
			c-0.002,0.007-0.003,0.012-0.004,0.019c-0.016,0.084-0.068,0.179-0.139,0.25l-1.657,0.539
			C26.292,32.008,26.207,31.981,26.133,31.925z M28.956,34.365c-0.029,0.09-0.081,0.162-0.157,0.217
			c-0.122,0.084-0.3,0.113-0.442,0.072c-0.189-0.053-0.242-0.139-0.347-0.311c-0.096-0.154-0.215-0.348-0.462-0.525
			c-0.247-0.18-0.467-0.234-0.644-0.277c-0.194-0.047-0.292-0.07-0.402-0.234c-0.083-0.123-0.11-0.301-0.067-0.442
			c0.039-0.128,0.128-0.222,0.267-0.278c0.392-0.162,1.503-0.514,1.503-0.514c0.112,0.017,0.221,0.072,0.282,0.14
			c0.074,0.072,0.161,0.139,0.252,0.19c0.082,0.037,0.167,0.123,0.217,0.223V34.365z M28.7,31.409c0-0.322,0.263-0.585,0.584-0.585
			c0.323,0,0.585,0.263,0.585,0.585c0,0.323-0.263,0.586-0.585,0.586C28.963,31.995,28.7,31.732,28.7,31.409z M29.609,35.371
			c-0.086,0.105-0.176,0.164-0.293,0.162l-0.015-0.004h-0.033c-0.1,0.004-0.179-0.039-0.254-0.117
			c-0.03-0.047-0.036-0.102-0.034-0.141c0.006-0.105,0.067-0.211,0.154-0.275c0.058-0.043,0.111-0.094,0.157-0.148
			c0.055,0.066,0.117,0.125,0.19,0.176c0.021,0.016,0.045,0.027,0.068,0.039C29.599,35.098,29.706,35.186,29.609,35.371z
			 M30.349,35.178L30.349,35.178c0,0,0.001,0,0.001,0H30.349z M32.083,33.309c-0.11,0.164-0.208,0.188-0.402,0.234
			c-0.177,0.043-0.397,0.098-0.644,0.277h0c-0.247,0.18-0.366,0.371-0.461,0.525c-0.105,0.172-0.158,0.258-0.348,0.313
			c-0.142,0.041-0.32,0.01-0.442-0.074c-0.109-0.076-0.171-0.189-0.183-0.34c-0.033-0.422-0.019-0.535-0.019-0.541H29.58v-1.047
			c0.05-0.1,0.136-0.187,0.218-0.225c0.092-0.047,0.185-0.111,0.26-0.182c0.062-0.065,0.169-0.12,0.279-0.138l1.657,0.538
			c0.076,0.056,0.129,0.127,0.156,0.216C32.193,33.008,32.166,33.188,32.083,33.309z M32.54,33.586
			C32.54,33.586,32.54,33.586,32.54,33.586L32.54,33.586L32.54,33.586z M33.196,31.575v0.002l0,0
			C33.196,31.576,33.196,31.575,33.196,31.575z M32.856,32.29c0.056-0.037,0.164-0.083,0.296,0.049
			c0.072,0.115,0.102,0.221,0.062,0.329l-0.006,0.015l-0.011,0.031c-0.028,0.094-0.092,0.157-0.188,0.204
			c-0.056,0.017-0.109,0.005-0.148-0.011c-0.094-0.036-0.172-0.121-0.208-0.218c-0.024-0.074-0.057-0.145-0.098-0.209
			c0.08-0.031,0.156-0.072,0.226-0.126C32.808,32.335,32.833,32.313,32.856,32.29z M32.359,29l0.001,0.002
			C32.359,29.002,32.359,29.001,32.359,29L32.359,29z M31.363,28.034c0.131-0.033,0.24-0.029,0.331,0.042l0.013,0.011l0.025,0.02
			c0.082,0.056,0.122,0.137,0.138,0.242c-0.003,0.058-0.031,0.104-0.057,0.137c-0.063,0.078-0.168,0.126-0.271,0.13
			c-0.079,0.001-0.155,0.011-0.229,0.029c-0.005-0.085-0.021-0.17-0.05-0.253c-0.011-0.031-0.024-0.062-0.038-0.092
			C31.206,28.235,31.196,28.118,31.363,28.034z M31.301,29.231c0.076-0.055,0.16-0.083,0.253-0.082
			c0.148,0.004,0.31,0.084,0.401,0.201c0.121,0.154,0.113,0.255,0.098,0.455c-0.014,0.181-0.031,0.407,0.063,0.698
			c0.095,0.29,0.241,0.463,0.359,0.602c0.129,0.153,0.195,0.229,0.188,0.427c-0.005,0.147-0.087,0.307-0.206,0.396
			c-0.106,0.081-0.234,0.104-0.379,0.069c-0.413-0.1-0.516-0.148-0.521-0.149l-0.002,0.004l-0.995-0.323
			c-0.08-0.079-0.136-0.188-0.147-0.277c-0.015-0.104-0.051-0.209-0.093-0.303c-0.044-0.081-0.059-0.202-0.04-0.313L31.301,29.231z
			 M30.651,27.756L30.651,27.756c-0.001,0-0.001,0-0.002,0H30.651z M29.979,28.296c0.185-0.076,0.278-0.115,0.463-0.048
			c0.139,0.051,0.266,0.18,0.314,0.319c0.044,0.126,0.027,0.255-0.052,0.382c-0.222,0.362-0.299,0.445-0.303,0.45l0.002,0.003
			l-0.614,0.846c-0.1,0.052-0.22,0.071-0.309,0.054l-0.001,0.006c-0.063-0.011-0.128-0.019-0.196-0.019
			c-0.041,0-0.081,0.003-0.121,0.008c-0.089,0.017-0.207-0.002-0.305-0.054l-1.024-1.408c-0.029-0.09-0.031-0.18,0-0.268
			c0.049-0.14,0.176-0.269,0.315-0.319c0.185-0.067,0.278-0.028,0.463,0.048c0.168,0.068,0.377,0.154,0.683,0.154
			S29.812,28.364,29.979,28.296z"/>
		<path class="primarycolor" d="M35.996,32.859c0.147,0.51,0.641,0.621,0.968,0.697c0.075,0.016,0.184,0.041,0.224,0.063
			c0.224,0.322,0.482,0.387,0.71,0.441c0.151,0.037,0.294,0.072,0.456,0.189c0.162,0.117,0.239,0.242,0.321,0.375
			c0.124,0.201,0.264,0.426,0.641,0.539c0.032,0.031,0.09,0.127,0.129,0.195c0.17,0.283,0.438,0.713,0.958,0.705
			c0.531,0.018,0.808-0.416,0.979-0.703c0.04-0.066,0.098-0.162,0.129-0.195c0.376-0.111,0.517-0.338,0.64-0.539
			c0.082-0.131,0.159-0.256,0.32-0.373c0.163-0.119,0.305-0.154,0.456-0.191c0.229-0.055,0.487-0.119,0.711-0.441
			c0.04-0.021,0.149-0.045,0.225-0.063c0.326-0.074,0.819-0.188,0.967-0.696l-0.009,0.028l0.017-0.04
			c0.179-0.5-0.154-0.881-0.374-1.134c-0.051-0.058-0.125-0.143-0.145-0.182c0.009-0.393-0.162-0.597-0.314-0.776
			c-0.101-0.118-0.196-0.23-0.258-0.42c-0.062-0.19-0.051-0.338-0.039-0.492c0.018-0.235,0.037-0.5-0.202-0.813
			c-0.007-0.044,0.003-0.156,0.01-0.232c0.03-0.328,0.073-0.818-0.34-1.119l-0.033-0.027c-0.419-0.326-0.884-0.126-1.192,0.006
			c-0.071,0.03-0.174,0.074-0.218,0.081c-0.372-0.129-0.618-0.03-0.835,0.06c-0.144,0.06-0.28,0.114-0.48,0.114
			c-0.2,0-0.336-0.055-0.48-0.114c-0.217-0.09-0.464-0.188-0.834-0.06c-0.045-0.007-0.147-0.051-0.219-0.081
			c-0.302-0.13-0.756-0.323-1.17-0.021l-0.036,0.021c-0.438,0.299-0.394,0.803-0.363,1.137c0.007,0.077,0.017,0.188,0.01,0.232
			c-0.238,0.313-0.219,0.578-0.201,0.813c0.012,0.155,0.022,0.302-0.039,0.491c-0.062,0.191-0.157,0.303-0.258,0.422
			c-0.152,0.179-0.323,0.382-0.314,0.776c-0.021,0.039-0.094,0.123-0.145,0.182c-0.217,0.248-0.541,0.62-0.382,1.106L35.996,32.859z
			 M37.165,33.584L37.165,33.584L37.165,33.584L37.165,33.584z M40.077,34.365c-0.029,0.09-0.081,0.162-0.157,0.217
			c-0.123,0.084-0.3,0.113-0.442,0.072c-0.189-0.053-0.242-0.139-0.347-0.311c-0.095-0.154-0.214-0.348-0.461-0.525
			c-0.247-0.18-0.467-0.234-0.644-0.277c-0.195-0.047-0.292-0.07-0.403-0.234c-0.083-0.123-0.11-0.301-0.067-0.442
			c0.039-0.128,0.128-0.222,0.266-0.278c0.393-0.162,1.504-0.514,1.504-0.514c0.111,0.017,0.22,0.072,0.282,0.14
			c0.074,0.072,0.161,0.139,0.252,0.19c0.082,0.037,0.167,0.123,0.217,0.223V34.365z M39.821,31.409
			c0-0.322,0.262-0.585,0.585-0.585s0.584,0.263,0.584,0.585c0,0.323-0.262,0.586-0.584,0.586S39.821,31.732,39.821,31.409z
			 M40.73,35.371c-0.087,0.105-0.177,0.164-0.294,0.162l-0.015-0.004h-0.033c-0.099,0.004-0.179-0.039-0.254-0.117
			c-0.031-0.047-0.036-0.102-0.034-0.141c0.006-0.105,0.066-0.211,0.154-0.275c0.058-0.043,0.111-0.094,0.157-0.148
			c0.055,0.066,0.117,0.125,0.19,0.176c0.021,0.016,0.045,0.027,0.068,0.039C40.72,35.098,40.826,35.186,40.73,35.371z
			 M41.47,35.178L41.47,35.178c0,0,0,0,0.001,0H41.47z M43.204,33.309c-0.11,0.164-0.208,0.188-0.402,0.234
			c-0.177,0.043-0.397,0.098-0.645,0.277l0,0c-0.247,0.18-0.366,0.371-0.461,0.525c-0.105,0.172-0.158,0.258-0.347,0.313
			c-0.142,0.041-0.32,0.01-0.442-0.074c-0.109-0.076-0.171-0.189-0.183-0.34c-0.033-0.422-0.019-0.535-0.019-0.541H40.7v-1.047
			c0.051-0.1,0.136-0.187,0.219-0.225c0.092-0.047,0.184-0.111,0.259-0.182c0.062-0.065,0.169-0.12,0.28-0.138l1.656,0.538
			c0.076,0.056,0.129,0.127,0.157,0.216C43.313,33.008,43.286,33.188,43.204,33.309z M43.66,33.586
			C43.66,33.586,43.661,33.586,43.66,33.586L43.66,33.586L43.66,33.586z M44.316,31.575v0.002l0,0
			C44.316,31.576,44.316,31.575,44.316,31.575z M43.977,32.29c0.055-0.037,0.164-0.083,0.295,0.049
			c0.071,0.115,0.102,0.221,0.062,0.329l-0.005,0.015l-0.012,0.031c-0.027,0.094-0.092,0.157-0.187,0.204
			c-0.057,0.017-0.109,0.005-0.148-0.011c-0.094-0.036-0.171-0.121-0.207-0.218c-0.025-0.074-0.058-0.145-0.099-0.209
			c0.08-0.031,0.157-0.072,0.227-0.126C43.928,32.335,43.953,32.313,43.977,32.29z M43.479,29l0.001,0.002
			C43.48,29.002,43.479,29.001,43.479,29L43.479,29z M42.483,28.034c0.131-0.033,0.239-0.029,0.332,0.042l0.012,0.011l0.025,0.02
			c0.082,0.056,0.121,0.137,0.138,0.242c-0.004,0.058-0.031,0.104-0.057,0.137c-0.064,0.078-0.168,0.126-0.271,0.13
			c-0.079,0.001-0.155,0.011-0.229,0.029c-0.005-0.085-0.021-0.17-0.05-0.253c-0.011-0.031-0.024-0.062-0.039-0.092
			C42.326,28.235,42.315,28.118,42.483,28.034z M42.421,29.231c0.077-0.055,0.161-0.083,0.254-0.082
			c0.148,0.004,0.31,0.084,0.401,0.201c0.121,0.154,0.113,0.255,0.098,0.455c-0.014,0.181-0.031,0.407,0.063,0.698
			c0.094,0.29,0.241,0.463,0.359,0.602c0.13,0.153,0.195,0.229,0.188,0.427c-0.005,0.147-0.088,0.307-0.206,0.396
			c-0.106,0.081-0.233,0.104-0.379,0.069c-0.414-0.1-0.518-0.148-0.521-0.149l-0.002,0.004l-0.995-0.323
			c-0.08-0.079-0.136-0.188-0.147-0.277c-0.015-0.104-0.051-0.209-0.092-0.303c-0.045-0.081-0.06-0.202-0.041-0.313L42.421,29.231z
			 M41.771,27.756L41.771,27.756c-0.001,0-0.001,0-0.002,0H41.771z M39.064,27.756c0,0-0.001,0-0.002,0l0,0H39.064z M38.956,28.567
			c0.049-0.14,0.175-0.269,0.315-0.319c0.185-0.067,0.278-0.028,0.463,0.048c0.168,0.068,0.377,0.154,0.683,0.154
			c0.305,0,0.515-0.086,0.683-0.154c0.186-0.076,0.279-0.115,0.464-0.048c0.139,0.051,0.266,0.18,0.315,0.319
			c0.044,0.126,0.026,0.255-0.052,0.382c-0.223,0.362-0.3,0.445-0.303,0.45l0.003,0.003l-0.615,0.846
			c-0.1,0.052-0.22,0.071-0.309,0.054l-0.001,0.006c-0.063-0.011-0.129-0.019-0.196-0.019c-0.041,0-0.082,0.003-0.122,0.008
			c-0.088,0.017-0.206-0.002-0.305-0.054l-1.023-1.408C38.926,28.745,38.925,28.655,38.956,28.567z M37.979,28.103l0.013-0.008
			l0.027-0.019c0.078-0.06,0.167-0.073,0.272-0.056c0.055,0.021,0.091,0.062,0.113,0.097c0.055,0.085,0.068,0.198,0.04,0.298
			c-0.023,0.074-0.038,0.15-0.042,0.227c-0.083-0.021-0.169-0.032-0.257-0.031c-0.026,0.001-0.053,0.005-0.079,0.009
			c-0.062,0.002-0.198-0.009-0.23-0.215C37.844,28.27,37.882,28.169,37.979,28.103z M37.234,31.102
			c0.118-0.14,0.264-0.313,0.359-0.603l0,0c0.094-0.291,0.077-0.516,0.063-0.697c-0.016-0.2-0.023-0.301,0.098-0.455
			c0.091-0.117,0.252-0.197,0.401-0.201c0.133-0.003,0.25,0.054,0.347,0.167c0.275,0.324,0.948,1.267,0.948,1.267
			c0.021,0.112,0.005,0.234-0.04,0.315l0.002,0.002c-0.048,0.093-0.085,0.191-0.105,0.297h0c0,0.003-0.001,0.006-0.001,0.007
			c0,0.007-0.002,0.012-0.003,0.019c-0.018,0.084-0.068,0.179-0.14,0.25l-1.657,0.539c-0.094,0-0.179-0.026-0.254-0.083
			c-0.118-0.09-0.201-0.25-0.207-0.397C37.04,31.33,37.105,31.253,37.234,31.102z M36.514,31.57c0,0.002,0,0.002,0,0.003h0V31.57z
			 M36.529,32.387c0.037-0.045,0.085-0.066,0.124-0.076c0.101-0.026,0.218-0.002,0.305,0.06c0.061,0.043,0.125,0.077,0.193,0.105
			c-0.045,0.072-0.083,0.149-0.108,0.234c-0.008,0.025-0.011,0.051-0.016,0.076c-0.018,0.059-0.068,0.188-0.277,0.153
			c-0.125-0.05-0.209-0.117-0.242-0.229l-0.003-0.014l-0.009-0.032C36.463,32.57,36.479,32.48,36.529,32.387z"/>
	</g>
</g>
</svg>
