<?xml version="1.0" encoding="iso-8859-1"?>
<svg version="1.2" baseProfile="tiny" class="logocolor ftuo" xmlns="http://www.w3.org/2000/svg" xmlns:xlink="http://www.w3.org/1999/xlink" viewBox="0 0 215 70" xml:space="preserve">
<g>
	<g>
<path class="white knockout" d="M35.561,2.257C17.506,2.257,2.818,16.944,2.818,35c0,18.054,14.688,32.743,32.743,32.743
	C53.613,67.743,68.3,53.054,68.3,35C68.3,16.944,53.613,2.257,35.561,2.257z"/>
<path class="primarycolor knockout" d="M25.554,47.908c-1.705,0.627-6.102,2.04-7.355,0.468c-0.864-1.085-0.088-3.386,2.299-6.838
	C21.632,44.043,23.387,46.23,25.554,47.908z M52.175,21.448c-1.93,0-4.598,0.959-5.639,1.365c1.99,1.81,3.547,4.078,4.491,6.622
	c2.688-3.521,3.773-5.92,3.19-7.111C53.934,21.743,53.247,21.448,52.175,21.448z M61.784,35c0,14.459-11.764,26.224-26.223,26.224
	C21.099,61.224,9.335,49.459,9.335,35c0-14.459,11.766-26.224,26.226-26.224C50.02,8.776,61.784,20.541,61.784,35z M51.249,30.025
	c1.101-1.354,4.847-6.202,3.859-8.339c-0.307-0.666-1.052-1.003-2.214-1.003c-1.523,0-3.813,0.588-6.791,1.736
	c-2.909-2.472-6.642-3.989-10.659-3.989c-3.046,0-5.919,0.91-8.394,2.446l-2.183-4.018l2.023-0.289l-2.023-0.635l2.341-2.311
	l-2.83,1.445l-0.463-2.399l-0.317,2.512l-1.907-2.077l1.069,2.425l-2.483-0.55l2.166,1.301l-2.456,2.397l3.063-1.589l-0.059,2.108
	l1.07-1.877l2.951,3.581c-4.716,2.947-7.944,8.217-7.944,14.1c0,2.275,0.501,4.457,1.387,6.448c-1.399,1.895-4.33,6.255-3.037,7.952
	c0.342,0.449,0.958,0.673,1.842,0.673c1.477,0,3.715-0.634,6.675-1.881c2.732,1.996,6.064,3.202,9.626,3.202
	c8.938,0,16.491-7.506,16.491-16.395C52.052,33.275,51.766,31.604,51.249,30.025z"/>
<path class="secondarycolor" d="M35.561,61.224C21.099,61.224,9.335,49.459,9.335,35c0-14.459,11.766-26.224,26.226-26.224
	C50.02,8.776,61.784,20.541,61.784,35C61.784,49.459,50.02,61.224,35.561,61.224z M35.561,61.888
	c14.825,0,26.888-12.061,26.888-26.888c0-14.829-12.063-26.89-26.888-26.89C20.733,8.11,8.67,20.171,8.67,35
	C8.67,49.827,20.733,61.888,35.561,61.888z"/>
<path fill-rule="evenodd" clip-rule="evenodd" class="secondarycolor" d="M19.916,53.809l0.367-0.627l-0.777,0.284L19.916,53.809
	L19.916,53.809z M18.585,53.583c0.057,0.026,0.111,0.038,0.167,0.026c0.054-0.01,0.179-0.049,0.377-0.118l1.512-0.543l0.047,0.039
	l-0.804,1.375c-0.052,0.089-0.079,0.149-0.076,0.186c0.002,0.031,0.03,0.076,0.085,0.133l-0.029,0.033l-0.523-0.439l0.028-0.033
	c0.068,0.044,0.115,0.072,0.141,0.077c0.043,0.011,0.08-0.003,0.113-0.043c0.009-0.011,0.017-0.021,0.027-0.033
	c0.009-0.013,0.017-0.026,0.021-0.033l0.192-0.314l-0.467-0.392l-0.323,0.138c-0.023,0.006-0.045,0.017-0.067,0.029
	c-0.039,0.021-0.066,0.043-0.084,0.063c-0.023,0.027-0.029,0.054-0.022,0.081c0.011,0.026,0.038,0.059,0.084,0.101l-0.028,0.033
	l-0.399-0.332L18.585,53.583L18.585,53.583z M21.613,55.283c0.17-0.091,0.306-0.208,0.411-0.354c0.102-0.139,0.152-0.28,0.154-0.426
	c0-0.148-0.088-0.284-0.266-0.417c-0.05-0.033-0.089-0.054-0.117-0.059c-0.027-0.007-0.053,0.001-0.077,0.019l-1.105,0.877
	c-0.022,0.017-0.036,0.031-0.045,0.039c-0.01,0.01-0.018,0.021-0.024,0.03c-0.024,0.032-0.03,0.06-0.019,0.087
	c0.01,0.027,0.048,0.062,0.108,0.106C20.958,55.424,21.286,55.454,21.613,55.283L21.613,55.283z M20.055,54.82
	c0.055,0.031,0.099,0.05,0.128,0.05c0.047,0,0.105-0.027,0.174-0.083l0.998-0.792c0.029-0.024,0.054-0.047,0.073-0.063
	c0.021-0.019,0.038-0.037,0.05-0.053c0.026-0.033,0.032-0.07,0.017-0.103c-0.014-0.031-0.055-0.072-0.119-0.122l0.027-0.038
	l0.579,0.423c0.107,0.078,0.194,0.156,0.263,0.234c0.065,0.077,0.113,0.172,0.14,0.279c0.017,0.082,0.021,0.162,0.01,0.247
	c-0.018,0.124-0.068,0.242-0.149,0.357c-0.164,0.225-0.392,0.357-0.685,0.396c-0.322,0.045-0.633-0.047-0.938-0.266l-0.593-0.431
	L20.055,54.82L20.055,54.82z M23.849,56.484l0.243-0.687l-0.71,0.429L23.849,56.484L23.849,56.484z M22.501,56.515
	c0.062,0.017,0.116,0.017,0.168-0.003s0.168-0.083,0.349-0.188l1.381-0.822l0.054,0.032l-0.527,1.497
	c-0.035,0.102-0.048,0.166-0.04,0.197c0.009,0.034,0.045,0.071,0.109,0.114l-0.023,0.041l-0.598-0.332l0.022-0.038
	c0.077,0.032,0.127,0.049,0.155,0.05c0.043,0.004,0.077-0.018,0.102-0.064c0.007-0.01,0.013-0.023,0.018-0.038
	c0.008-0.015,0.013-0.025,0.017-0.036l0.128-0.343l-0.532-0.297l-0.293,0.194c-0.021,0.014-0.039,0.027-0.06,0.044
	c-0.033,0.028-0.056,0.056-0.07,0.08c-0.016,0.031-0.018,0.059-0.005,0.081c0.015,0.025,0.048,0.053,0.101,0.083l-0.021,0.04
	l-0.455-0.253L22.501,56.515L22.501,56.515z M24.553,57.045l0.046,0.028c-0.016,0.027-0.023,0.044-0.026,0.049
	c-0.059,0.128-0.07,0.246-0.038,0.357c0.036,0.109,0.105,0.188,0.208,0.236c0.103,0.049,0.198,0.05,0.288,0.007
	c0.088-0.043,0.153-0.107,0.191-0.188c0.014-0.031,0.024-0.068,0.03-0.105c0.007-0.061,0.002-0.12-0.015-0.181l-0.078-0.244
	c-0.059-0.19-0.093-0.32-0.101-0.394c-0.009-0.074,0.004-0.144,0.037-0.212c0.048-0.102,0.13-0.18,0.248-0.23
	c0.118-0.05,0.25-0.043,0.399,0.027c0.067,0.031,0.13,0.074,0.189,0.128c0.061,0.057,0.098,0.085,0.111,0.095
	c0.026,0.011,0.053,0.017,0.077,0.008c0.025-0.007,0.045-0.018,0.064-0.027l0.057,0.025l-0.334,0.452l-0.04-0.024
	c0.051-0.121,0.076-0.217,0.076-0.282c-0.002-0.12-0.07-0.211-0.2-0.272c-0.081-0.038-0.159-0.046-0.23-0.021
	c-0.073,0.021-0.125,0.067-0.158,0.138c-0.025,0.056-0.036,0.109-0.031,0.156c0.005,0.051,0.023,0.124,0.054,0.225l0.115,0.351
	c0.02,0.063,0.03,0.13,0.033,0.197c0.002,0.07-0.016,0.143-0.051,0.215c-0.059,0.132-0.161,0.229-0.3,0.287
	c-0.136,0.056-0.282,0.051-0.434-0.021c-0.078-0.036-0.152-0.091-0.22-0.159c-0.066-0.067-0.111-0.107-0.13-0.116
	c-0.029-0.014-0.054-0.015-0.074-0.007c-0.018,0.005-0.041,0.021-0.064,0.045l-0.044-0.021L24.553,57.045L24.553,57.045z
	 M25.773,58.19c0.08,0.021,0.138,0.032,0.175,0.028c0.063-0.008,0.119-0.047,0.17-0.115l0.9-1.223
	c-0.2-0.075-0.336-0.111-0.411-0.106c-0.076,0.005-0.186,0.067-0.329,0.186l-0.041-0.025l0.259-0.356l1.38,0.528l-0.275,0.38
	l-0.044-0.023l0.042-0.089c0.031-0.077,0.034-0.146,0.013-0.199c-0.019-0.053-0.083-0.098-0.189-0.138l-0.144-0.055l-0.854,1.147
	c-0.02,0.026-0.036,0.047-0.047,0.067c-0.021,0.03-0.035,0.056-0.042,0.075c-0.02,0.051-0.017,0.087,0.01,0.112
	c0.026,0.023,0.085,0.055,0.175,0.093l-0.017,0.042l-0.749-0.287L25.773,58.19L25.773,58.19z M28.296,58.081
	c0.013,0.006,0.028,0.01,0.044,0.016c0.134,0.043,0.256,0.05,0.369,0.017c0.112-0.031,0.192-0.119,0.24-0.265
	c0.036-0.112,0.028-0.196-0.021-0.256c-0.05-0.06-0.124-0.106-0.223-0.138c-0.035-0.012-0.064-0.017-0.087-0.017
	c-0.021,0.005-0.042,0.019-0.061,0.048l-0.367,0.546C28.249,58.058,28.285,58.073,28.296,58.081L28.296,58.081z M27.214,58.734
	c0.063,0.016,0.108,0.018,0.138,0.007c0.044-0.012,0.092-0.056,0.141-0.129l0.704-1.063c0.014-0.022,0.029-0.047,0.045-0.075
	c0.018-0.03,0.029-0.056,0.037-0.08c0.014-0.038,0.009-0.07-0.018-0.096c-0.023-0.024-0.066-0.049-0.132-0.074l0.015-0.043
	l0.653,0.213c0.124,0.041,0.225,0.092,0.298,0.146c0.14,0.111,0.183,0.246,0.13,0.407c-0.05,0.153-0.157,0.249-0.32,0.288
	c-0.091,0.022-0.207,0.022-0.35,0.011l0.032,0.726c0.004,0.068,0.018,0.127,0.038,0.166c0.021,0.042,0.063,0.072,0.122,0.095
	l-0.014,0.043l-0.391-0.127l-0.045-0.959l-0.167-0.07l-0.33,0.502c-0.014,0.023-0.026,0.041-0.037,0.062
	c-0.023,0.039-0.038,0.068-0.046,0.093c-0.013,0.041-0.007,0.072,0.015,0.098c0.025,0.023,0.068,0.048,0.131,0.071l-0.014,0.044
	l-0.648-0.213L27.214,58.734L27.214,58.734z M30.261,58.902l0.057-0.729l-0.575,0.598L30.261,58.902L30.261,58.902z M28.967,59.277
	c0.063,0,0.117-0.014,0.161-0.045c0.045-0.031,0.141-0.124,0.288-0.274l1.122-1.149l0.06,0.015l-0.122,1.589
	c-0.008,0.101-0.003,0.166,0.014,0.198c0.018,0.025,0.061,0.056,0.136,0.084l-0.013,0.039l-0.664-0.163l0.011-0.043
	c0.082,0.012,0.135,0.013,0.162,0.011c0.043-0.009,0.07-0.042,0.084-0.088c0.002-0.015,0.005-0.029,0.007-0.044
	c0.003-0.017,0.005-0.028,0.007-0.039l0.034-0.365l-0.593-0.148l-0.23,0.264c-0.017,0.019-0.033,0.037-0.046,0.058
	c-0.025,0.036-0.041,0.067-0.048,0.095c-0.009,0.036-0.003,0.062,0.017,0.082c0.02,0.017,0.06,0.036,0.118,0.055L29.46,59.45
	l-0.504-0.127L28.967,59.277L28.967,59.277z M31.697,59.867c0.064,0.002,0.109-0.005,0.137-0.021
	c0.041-0.021,0.079-0.072,0.114-0.151l0.486-1.18l0.039-0.102c0.004-0.01,0.007-0.022,0.009-0.031
	c0.003-0.011,0.003-0.021,0.006-0.027c0.005-0.045-0.006-0.076-0.035-0.096c-0.026-0.019-0.077-0.036-0.146-0.05l0.005-0.044
	l0.681,0.083c0.141,0.017,0.251,0.049,0.334,0.094c0.154,0.086,0.22,0.218,0.198,0.397c-0.014,0.109-0.058,0.2-0.133,0.279
	c-0.145,0.149-0.379,0.203-0.703,0.162c-0.039-0.006-0.079-0.011-0.118-0.018c-0.038-0.009-0.075-0.019-0.109-0.029l-0.212,0.512
	c-0.013,0.028-0.022,0.056-0.029,0.076c-0.014,0.034-0.02,0.061-0.023,0.081c-0.005,0.043,0.003,0.077,0.03,0.097
	c0.025,0.021,0.072,0.037,0.144,0.051l-0.005,0.045l-0.676-0.082L31.697,59.867L31.697,59.867z M32.561,59.059
	c0.024,0.005,0.056,0.01,0.096,0.016c0.134,0.017,0.244,0.01,0.326-0.019c0.151-0.051,0.24-0.175,0.264-0.369
	c0.014-0.117-0.008-0.203-0.067-0.258c-0.06-0.055-0.142-0.089-0.25-0.102c-0.043-0.006-0.077-0.006-0.099,0
	c-0.023,0.006-0.04,0.023-0.055,0.056L32.5,59.041C32.516,59.047,32.536,59.051,32.561,59.059L32.561,59.059z M33.524,60.083
	c0.065-0.005,0.111-0.015,0.135-0.031c0.04-0.026,0.072-0.08,0.099-0.166l0.384-1.214c0.012-0.04,0.021-0.075,0.026-0.1
	c0.01-0.026,0.012-0.051,0.014-0.068c0.001-0.043-0.015-0.075-0.047-0.093c-0.032-0.019-0.087-0.029-0.167-0.034l0.001-0.044
	l1.379,0.049l-0.102,0.417l-0.056-0.007c0.004-0.026,0.007-0.053,0.007-0.078c0.003-0.023,0.003-0.034,0.003-0.025
	c0.006-0.092-0.024-0.153-0.091-0.182c-0.065-0.033-0.202-0.052-0.408-0.061c-0.094-0.002-0.153,0-0.18,0.009
	c-0.023,0.008-0.041,0.027-0.052,0.059l-0.204,0.638c0.243,0.002,0.391-0.01,0.442-0.03c0.051-0.021,0.106-0.093,0.167-0.219
	l0.05,0.015l-0.212,0.635l-0.055-0.014c0.012-0.054,0.018-0.086,0.02-0.1c0.002-0.01,0.003-0.024,0.003-0.039
	c0.003-0.058-0.017-0.096-0.059-0.117c-0.041-0.017-0.116-0.027-0.229-0.032l-0.158-0.007l-0.193,0.614
	c-0.005,0.018-0.01,0.036-0.016,0.052c-0.002,0.017-0.005,0.033-0.005,0.05c0,0.029,0.005,0.05,0.021,0.066
	c0.027,0.024,0.081,0.041,0.165,0.041c0.247,0.01,0.425-0.011,0.533-0.06c0.11-0.048,0.219-0.147,0.333-0.296l0.042,0.022
	l-0.187,0.443l-1.407-0.052V60.083L33.524,60.083z M36.158,59.181c0.014,0,0.03,0,0.048,0c0.139-0.006,0.256-0.042,0.351-0.109
	c0.095-0.068,0.141-0.18,0.136-0.332c-0.005-0.117-0.041-0.195-0.109-0.232c-0.067-0.04-0.153-0.061-0.256-0.056
	c-0.037,0-0.065,0.006-0.085,0.017c-0.021,0.01-0.036,0.031-0.043,0.062l-0.158,0.641C36.105,59.175,36.145,59.178,36.158,59.181
	L36.158,59.181z M35.363,60.165c0.065-0.008,0.109-0.02,0.133-0.04c0.037-0.028,0.067-0.086,0.088-0.173l0.297-1.238
	c0.007-0.023,0.012-0.053,0.017-0.086c0.007-0.031,0.008-0.061,0.008-0.084c-0.001-0.044-0.017-0.071-0.049-0.087
	c-0.031-0.016-0.081-0.023-0.149-0.026l-0.002-0.043l0.687-0.022c0.132-0.006,0.243,0.007,0.331,0.038
	c0.167,0.054,0.254,0.166,0.261,0.336c0.005,0.158-0.063,0.286-0.204,0.38c-0.076,0.051-0.185,0.092-0.325,0.131l0.28,0.67
	c0.028,0.065,0.058,0.114,0.093,0.143c0.033,0.03,0.081,0.046,0.145,0.046l0.002,0.047l-0.41,0.013l-0.373-0.886l-0.179-0.006
	l-0.138,0.583c-0.005,0.024-0.01,0.045-0.016,0.07c-0.007,0.043-0.009,0.077-0.009,0.102c0.001,0.042,0.018,0.072,0.047,0.088
	c0.03,0.015,0.08,0.021,0.147,0.021l0,0.045l-0.681,0.024L35.363,60.165L35.363,60.165z M38.259,59.481h0.052
	c0.002,0.03,0.006,0.048,0.006,0.054c0.021,0.139,0.075,0.247,0.163,0.32c0.091,0.074,0.191,0.104,0.302,0.087
	c0.112-0.016,0.196-0.067,0.245-0.151c0.052-0.085,0.072-0.172,0.058-0.264c-0.004-0.033-0.016-0.069-0.032-0.105
	c-0.027-0.055-0.064-0.101-0.11-0.143l-0.199-0.162c-0.152-0.126-0.253-0.217-0.299-0.274c-0.046-0.059-0.075-0.123-0.084-0.197
	c-0.016-0.113,0.011-0.222,0.081-0.327c0.072-0.109,0.187-0.174,0.351-0.198c0.072-0.009,0.148-0.007,0.229,0.008
	c0.081,0.013,0.129,0.019,0.144,0.017c0.03-0.005,0.053-0.017,0.07-0.036c0.016-0.018,0.029-0.037,0.038-0.058l0.064-0.008
	l-0.035,0.563h-0.048c-0.024-0.132-0.054-0.223-0.09-0.278c-0.068-0.1-0.173-0.137-0.316-0.119
	c-0.089,0.012-0.157,0.048-0.205,0.107c-0.048,0.057-0.067,0.124-0.057,0.199c0.009,0.064,0.027,0.112,0.059,0.149
	c0.031,0.04,0.087,0.092,0.169,0.158l0.286,0.233c0.05,0.04,0.096,0.091,0.135,0.147c0.038,0.057,0.064,0.127,0.075,0.208
	c0.021,0.144-0.01,0.277-0.096,0.4c-0.083,0.125-0.209,0.197-0.376,0.223c-0.085,0.01-0.176,0.005-0.271-0.015
	c-0.093-0.021-0.15-0.029-0.171-0.026c-0.032,0.004-0.055,0.016-0.067,0.032c-0.012,0.018-0.021,0.041-0.029,0.072l-0.047,0.01
	L38.259,59.481L38.259,59.481z M40.882,57.771c0.096,0,0.155,0,0.174-0.002c0.032-0.009,0.055-0.019,0.067-0.032
	c0.009-0.014,0.016-0.029,0.021-0.052l0.056-0.011l0.016,0.561l-0.051,0.003c-0.032-0.104-0.073-0.185-0.125-0.242
	c-0.095-0.105-0.224-0.143-0.384-0.107c-0.247,0.053-0.425,0.219-0.532,0.5c-0.095,0.244-0.114,0.492-0.06,0.743
	c0.039,0.185,0.11,0.319,0.217,0.393c0.104,0.079,0.224,0.105,0.358,0.076c0.135-0.029,0.256-0.089,0.358-0.183
	c0.059-0.054,0.131-0.146,0.218-0.272l0.053,0.025c-0.072,0.148-0.164,0.272-0.273,0.37c-0.109,0.096-0.238,0.164-0.389,0.193
	c-0.227,0.049-0.415,0.016-0.567-0.103c-0.151-0.118-0.246-0.272-0.287-0.461c-0.057-0.275-0.011-0.549,0.143-0.822
	c0.167-0.304,0.409-0.485,0.726-0.556C40.699,57.776,40.786,57.771,40.882,57.771L40.882,57.771z M41.723,59.378
	c0.062-0.021,0.101-0.044,0.121-0.069c0.029-0.036,0.044-0.098,0.045-0.188l0.012-1.272c0-0.051-0.002-0.089-0.003-0.107
	c0-0.021-0.002-0.04-0.008-0.062c-0.01-0.042-0.033-0.067-0.065-0.074c-0.032-0.009-0.084-0.008-0.156,0.005l-0.012-0.04l0.662-0.18
	l0.012,0.045c-0.068,0.027-0.113,0.057-0.134,0.083c-0.021,0.027-0.033,0.087-0.033,0.173l-0.011,1.271c0,0.046,0,0.084,0.003,0.111
	c0.001,0.026,0.007,0.048,0.011,0.064c0.011,0.042,0.034,0.067,0.068,0.074c0.035,0.006,0.083,0.004,0.145-0.01l0.011,0.042
	l-0.657,0.176L41.723,59.378L41.723,59.378z M42.809,59.101c0.061-0.026,0.098-0.051,0.116-0.075
	c0.027-0.038,0.038-0.103,0.035-0.192l-0.079-1.271c-0.003-0.039-0.007-0.075-0.01-0.101c-0.002-0.028-0.006-0.051-0.014-0.07
	c-0.014-0.04-0.04-0.062-0.077-0.066c-0.036-0.01-0.092,0.001-0.167,0.026l-0.016-0.042l1.305-0.45l0.056,0.428l-0.056,0.013
	c-0.005-0.026-0.013-0.054-0.019-0.074c-0.008-0.024-0.011-0.033-0.008-0.027c-0.028-0.087-0.077-0.135-0.152-0.14
	c-0.07-0.005-0.205,0.027-0.398,0.096c-0.09,0.028-0.145,0.053-0.165,0.071c-0.021,0.016-0.03,0.039-0.029,0.072l0.038,0.67
	c0.227-0.088,0.361-0.149,0.402-0.187c0.039-0.039,0.065-0.128,0.077-0.264l0.053-0.006l0.029,0.668l-0.055,0.005
	c-0.009-0.054-0.015-0.085-0.017-0.097c-0.001-0.012-0.006-0.026-0.01-0.038c-0.02-0.055-0.052-0.085-0.097-0.086
	c-0.045-0.004-0.121,0.012-0.227,0.049l-0.149,0.052l0.039,0.64c0.003,0.021,0.003,0.038,0.005,0.055
	c0.004,0.017,0.008,0.032,0.013,0.048c0.009,0.027,0.023,0.046,0.043,0.053c0.033,0.017,0.091,0.011,0.169-0.015
	c0.234-0.083,0.394-0.164,0.477-0.249c0.084-0.086,0.151-0.219,0.203-0.397l0.049,0.009l-0.017,0.479l-1.333,0.459L42.809,59.101
	L42.809,59.101z M44.511,58.524c0.067-0.046,0.107-0.094,0.119-0.147c0.011-0.054,0.003-0.169-0.022-0.346l-0.18-1.193
	c0-0.005-0.015-0.017-0.04-0.031c-0.026-0.02-0.048-0.03-0.07-0.034c-0.021-0.003-0.042-0.003-0.065,0.002
	c-0.023,0.003-0.055,0.013-0.095,0.023l-0.019-0.04l0.407-0.183l1.08,1.021l0.008-0.004l-0.168-1.081
	c-0.005-0.033-0.011-0.063-0.018-0.086c-0.005-0.024-0.01-0.044-0.016-0.054c-0.02-0.049-0.055-0.07-0.102-0.07
	c-0.03,0-0.073,0.012-0.128,0.032l-0.02-0.042l0.506-0.226l0.017,0.042c-0.068,0.049-0.108,0.102-0.12,0.15
	c-0.011,0.048-0.002,0.164,0.023,0.342l0.171,1.222c0.006,0.04,0.01,0.067,0.013,0.087c0.002,0.018,0.009,0.06,0.021,0.134
	l-0.045,0.021l-1.194-1.125l-0.012,0.006l0.188,1.179c0.004,0.018,0.009,0.044,0.015,0.074c0.007,0.029,0.014,0.051,0.021,0.066
	c0.02,0.048,0.056,0.071,0.106,0.068c0.031,0,0.071-0.012,0.124-0.035l0.018,0.043l-0.503,0.224L44.511,58.524L44.511,58.524z
	 M46.569,57.61c0.07-0.045,0.113-0.083,0.137-0.112c0.035-0.054,0.042-0.121,0.025-0.204l-0.333-1.481
	c-0.188,0.099-0.306,0.179-0.35,0.24c-0.047,0.06-0.071,0.184-0.076,0.37l-0.046,0.014l-0.098-0.431l1.304-0.696l0.104,0.459
	l-0.045,0.017l-0.039-0.089c-0.041-0.075-0.089-0.121-0.143-0.139c-0.052-0.02-0.128-0.004-0.229,0.05l-0.137,0.072l0.309,1.4
	c0.005,0.029,0.012,0.056,0.02,0.08c0.01,0.035,0.018,0.059,0.029,0.078c0.024,0.048,0.055,0.071,0.091,0.066
	c0.035-0.006,0.096-0.027,0.184-0.071l0.022,0.039l-0.708,0.375L46.569,57.61L46.569,57.61z M47.938,56.88
	c0.054-0.038,0.085-0.073,0.099-0.101c0.019-0.043,0.016-0.106-0.008-0.195l-0.341-1.223c-0.015-0.052-0.025-0.086-0.031-0.104
	c-0.007-0.021-0.016-0.038-0.025-0.056c-0.024-0.038-0.052-0.057-0.085-0.057s-0.083,0.019-0.148,0.053l-0.023-0.038l0.59-0.354
	l0.023,0.037c-0.058,0.047-0.094,0.087-0.106,0.12c-0.011,0.03-0.006,0.089,0.017,0.173l0.34,1.227
	c0.013,0.041,0.023,0.077,0.034,0.106c0.009,0.023,0.019,0.043,0.024,0.057c0.025,0.038,0.054,0.056,0.089,0.054
	c0.037-0.004,0.081-0.021,0.136-0.052l0.022,0.04l-0.583,0.349L47.938,56.88L47.938,56.88z M49.42,55.136l-0.514-0.522l0.076,0.828
	L49.42,55.136L49.42,55.136z M48.858,56.359c0.039-0.046,0.063-0.101,0.068-0.153c0.006-0.054,0-0.187-0.016-0.397l-0.133-1.599
	l0.05-0.036l1.119,1.134c0.072,0.072,0.125,0.112,0.157,0.121c0.036,0.005,0.086-0.011,0.152-0.049l0.025,0.038l-0.56,0.391
	l-0.027-0.038c0.063-0.053,0.101-0.091,0.114-0.113c0.022-0.037,0.019-0.079-0.012-0.122c-0.008-0.011-0.016-0.021-0.026-0.034
	c-0.01-0.011-0.018-0.021-0.026-0.03l-0.253-0.265l-0.499,0.352l0.045,0.346c0.003,0.023,0.007,0.047,0.014,0.072
	c0.011,0.042,0.023,0.075,0.04,0.101c0.021,0.027,0.045,0.042,0.072,0.039c0.029,0,0.067-0.021,0.12-0.054l0.025,0.037l-0.424,0.297
	L48.858,56.359L48.858,56.359z M50.443,55.275c0.054-0.057,0.081-0.115,0.075-0.171c-0.002-0.058-0.04-0.169-0.109-0.33
	l-0.488-1.144c-0.019-0.038-0.05-0.048-0.098-0.032c-0.047,0.018-0.091,0.042-0.134,0.075l-0.028-0.036l0.394-0.317l0.969,0.958
	l0.006-0.005l-0.132-1.635l0.359-0.292l0.027,0.035c-0.051,0.053-0.081,0.098-0.089,0.131c-0.008,0.034,0.005,0.091,0.041,0.172
	l0.509,1.168c0.014,0.032,0.027,0.061,0.039,0.085c0.014,0.027,0.027,0.047,0.041,0.063c0.031,0.039,0.063,0.054,0.099,0.045
	c0.037-0.011,0.085-0.039,0.145-0.086l0.028,0.036l-0.588,0.478l-0.028-0.036c0.055-0.054,0.088-0.097,0.104-0.13
	c0.022-0.059,0.017-0.126-0.017-0.203l-0.534-1.221l-0.007,0.007l0.165,1.839l-0.036,0.029l-1.066-1.048l-0.008,0.007l0.491,1.11
	c0.011,0.021,0.024,0.047,0.036,0.07s0.024,0.043,0.033,0.056c0.031,0.038,0.07,0.052,0.115,0.04c0.03-0.006,0.067-0.03,0.116-0.063
	l0.029,0.033l-0.428,0.347L50.443,55.275L50.443,55.275z"/>
<polygon class="secondarycolor" points="19.986,18.677 22.442,16.28 20.276,14.979 22.759,15.529 21.69,13.104 23.597,15.181 23.915,12.669 
	24.378,15.068 27.208,13.623 24.867,15.934 26.891,16.569 24.867,16.858 27.166,21.088 24.06,17.319 22.99,19.196 23.049,17.088 
	19.986,18.677 "/>
<path class="secondarycolor" d="M35.561,51.395c8.938,0,16.491-7.506,16.491-16.395c0-8.98-7.605-16.57-16.608-16.57
	c-8.877,0-16.377,7.59-16.377,16.57C19.066,43.889,26.62,51.395,35.561,51.395z M35.561,50.729c-8.581,0-15.828-7.203-15.828-15.729
	c0-8.62,7.195-15.903,15.711-15.903c4.191,0,8.185,1.705,11.248,4.801c2.983,3.019,4.695,7.065,4.695,11.102
	C51.387,43.526,44.138,50.729,35.561,50.729z"/>
<path class="secondarycolor" d="M50.328,37.162c-0.098-0.474-0.114-0.579-0.238-0.614c-0.405-0.111-0.905-0.09-1.103,0.284l0.057,0.349
	L50.328,37.162L50.328,37.162z"/>
<path class="secondarycolor" d="M29.818,31.784c0.004,0,0.012-0.001,0.019-0.001C29.821,31.708,29.818,31.742,29.818,31.784z"/>
<path class="secondarycolor" d="M26.285,47.652l-0.045-0.009c-0.064,0.028-6.484,2.686-8.041,0.732c-0.871-1.093-0.081-3.416,2.347-6.909
	c0.385-0.523,0.646-0.851,0.657-0.865l-0.063-0.051c-0.027,0.033-0.126,0.157-0.278,0.354l-0.013-0.009
	c-0.099,0.137-0.195,0.272-0.289,0.407c-1.352,1.813-4.468,6.357-3.143,8.097c0.342,0.449,0.958,0.673,1.842,0.673
	c1.572,0,3.994-0.708,7.244-2.12l0.013-0.067L26.285,47.652z"/>
<path class="secondarycolor" d="M55.108,21.686c-0.307-0.666-1.052-1.003-2.214-1.003c-1.591,0-4.007,0.634-7.181,1.885l-0.014,0.067
	l0.347,0.348l0.045,0.009c0.036-0.015,3.651-1.543,6.084-1.543c1.071,0,1.759,0.294,2.042,0.875c0.603,1.233-0.563,3.75-3.466,7.479
	l-0.007,0.036l0.145,0.521l0.071,0.016C51.175,30.121,56.238,24.13,55.108,21.686z"/>
<path class="secondarycolor" d="M28.786,31.345c0-0.147,0.038-0.268,0.083-0.268c0.044,0,0.082,0.121,0.082,0.268
	c0,0.146-0.038,0.263-0.082,0.263C28.823,31.607,28.786,31.49,28.786,31.345L28.786,31.345z"/>
<path class="secondarycolor" d="M28.902,32.067c0-0.08,0.038-0.143,0.083-0.143c0.045,0,0.081,0.063,0.081,0.143
	c0,0.079-0.036,0.141-0.081,0.141C28.94,32.208,28.902,32.146,28.902,32.067L28.902,32.067z"/>
<path class="secondarycolor" d="M28.932,32.631c0-0.069,0.037-0.122,0.08-0.122c0.048,0,0.083,0.053,0.083,0.122
	c0,0.065-0.035,0.122-0.083,0.122C28.968,32.752,28.932,32.696,28.932,32.631L28.932,32.631z"/>
<path class="secondarycolor" d="M50.318,30.194l-0.046,0.047c-6.956,7.141-13.667,12.8-23.811,17.207l-0.055,0.024l0.323,0.321l0.025-0.011
	c9.588-4.127,15.968-9.355,23.749-16.994l0.019-0.018L50.318,30.194z"/>
<path class="secondarycolor" d="M34.044,22.89c0.119-0.275,0.434-0.108,0.616-0.248c0.028-0.022-0.009-0.13,0.018-0.149
	c0.073-0.042,0.215-0.045,0.265,0.004c0.093,0.091,0.142,0.25,0.255,0.312c0.283,0.15,0.54-0.258,0.782-0.123
	c0.187,0.104,0.252,0.386,0.44,0.523c0.39,0.286,0.933-0.028,1.286,0.281c0.247,0.217,0.219,0.601,0.492,0.833
	c0.333,0.282,0.821,0.303,1.058,0.663c0.396,0.6,0.011,0.632,0.072,0.541c-0.112,0.17-0.379,0.333-0.48,0.3
	c-0.515-0.15-1.289,0.107-1.645-0.475c-0.114-0.185-0.536-0.22-0.855-0.145c-0.008,0.002,0.006,0.086-0.007,0.092
	c-0.159,0.063-0.368,0.145-0.497,0.044c-0.451-0.354-0.955-0.241-1.364-0.504c-0.238-0.152-0.268-0.559-0.215-0.916
	C33.756,23.807,33.88,23.268,34.044,22.89L34.044,22.89z M41.257,22.654c0.037,0.019,0.096,0.032,0.105,0.062
	c0.031,0.107,0.01,0.226,0.01,0.343c0.215-0.067,0.351,0.104,0.516,0.184c0.045,0.023,0.125,0.366,0.114,0.433
	c0.183,0.002,0.345-0.342,0.434-0.422c0.191-0.181-0.209-0.327-0.356-0.505C41.92,22.558,41.538,22.802,41.257,22.654L41.257,22.654
	z M42.463,23.651c-0.032-0.016-0.098,0.054-0.166,0.042c0.142,0.125-0.097,0.391,0.116,0.393c0.027,0,0.11,0.209,0.167,0.226
	C42.541,24.179,42.624,23.724,42.463,23.651L42.463,23.651z M38.761,23.399c-0.163,0.138,0.039,1.054,0.381,0.813
	C39.438,24.003,39.02,23.185,38.761,23.399L38.761,23.399z M40.68,28.546c-0.093,0.169-0.428,0.182-0.262,0.311
	c0.114,0.085,0.22,0.241,0.378,0.258c0.327,0.03,0.668,0.073,0.97-0.022c0.32-0.099,0.026-0.6,0.106-0.525
	c-0.155-0.142-0.461-0.065-0.594-0.266c-0.035-0.051-0.151-0.117-0.08-0.217c-0.159-0.024-0.3,0.096-0.461,0.058
	c0.005,0.229,0.05,0.495-0.231,0.578 M33.992,25.831c0.019-0.019,0.058,0.001,0.076-0.019c-0.066,0.342,0.399,0.399,0.718,0.365
	c-0.015,0.059,0.013,0.1,0.06,0.112c0.074,0.017,0.153,0.005,0.229,0.005c-0.016-0.055,0.015-0.091,0.059-0.111
	c0.107-0.054,0.204,0.048,0.274,0.081c0.268,0.132,0.009,0.504,0.192,0.718c0.102,0.118,0.17,0.251,0.29,0.343
	c0.038,0.029,0.122,0.031,0.159,0c0.059-0.046-0.061-0.157,0.061-0.228c0.171-0.099,0.346-0.228,0.38-0.405
	c0.031-0.153-0.01-0.275-0.458-0.719c-0.067-0.064-0.166-0.151-0.268-0.187C35.152,25.587,34.608,25.882,33.992,25.831
	L33.992,25.831z M32.879,23.982c0.014-0.053-0.034-0.084-0.04-0.053c-0.024,0.098-0.083,0.194-0.061,0.28
	c0.058,0.233,0.29,0.348,0.158,0.582c0.069-0.01,0.136,0.016,0.166,0.064c0.128,0.216,0.021,0.673,0.413,0.571
	c-0.15-0.209,0.161-0.173,0.331-0.317c0.029-0.026-0.022-0.385-0.052-0.428c-0.06-0.091-0.162-0.158-0.204-0.244
	c-0.042-0.094-0.076-0.224-0.145-0.26C33.274,24.086,33.081,24.011,32.879,23.982L32.879,23.982z M32.753,25.691
	c-0.233-0.084-0.198,0.147-0.263,0.265c-0.062,0.107,0.04,0.269,0.115,0.311c0.377,0.22,0.429,0.359,0.446-0.205
	c0.112,0.023,0.318-0.084,0.213-0.135C33.1,25.842,32.926,25.752,32.753,25.691L32.753,25.691z M31.876,24.568
	c-0.016-0.043-0.134-0.048-0.211-0.065c-0.003,0.192-0.265,0.191-0.274,0.347c-0.005,0.081,0.129,0.073,0.142,0.045
	C31.289,25.319,31.864,24.531,31.876,24.568L31.876,24.568z M31.086,25.952c-0.034-0.012-0.098-0.01-0.102-0.001
	c-0.078,0.314,0.172,0.402,0.45,0.402c-0.04-0.139-0.021-0.22-0.171-0.184C31.255,26.075,31.188,25.989,31.086,25.952L31.086,25.952
	z M32.127,26.466c0.035,0.075-0.206,0.099-0.172,0.175c-0.207-0.068-0.398,0.125-0.263,0.261c0.172,0.173,0.371,0.168,0.558,0.366
	c0.057,0.059,0.124,0.105,0.142,0.075c0.072-0.13,0.174-0.418,0.032-0.594c-0.096-0.115-0.114-0.317-0.2-0.365
	c-0.179-0.102-0.153,0.31-0.384,0.311 M25.108,29.499c-0.063,0.226-0.083,0.452,0.095,0.479c0.066,0.008,0.29-0.167,0.367-0.246
	C25.345,29.796,25.221,29.661,25.108,29.499L25.108,29.499z M23.865,27.913c0.037,0.159-0.222,0.312-0.081,0.435
	c0.038,0.037,0.247,0.058,0.229-0.026c-0.049-0.241,0.198-0.204,0.114-0.398C24.112,27.889,23.961,27.913,23.865,27.913
	L23.865,27.913z M24.385,28.951c-0.063,0.006-0.145-0.029-0.167,0.059c-0.037,0.135-0.021,0.147,0.037,0.209
	c0.034,0.038,0.231-0.051,0.24-0.095C24.508,29.045,24.526,28.941,24.385,28.951L24.385,28.951z M25.945,29.703
	c0.003,0.063,0.096,0.096,0.059,0.173c0.005,0-0.129,0.325,0.404-0.173C26.254,29.703,26.1,29.703,25.945,29.703L25.945,29.703z
	 M40.197,37.7c-0.162-0.126-0.094,0.162-0.162,0.181c-0.215,0.062-0.459,0.023-0.681,0.096c-0.011,0.004-0.013,0.086,0,0.094
	c0.336,0.148,0.659,0.003,1.093,0.126C40.42,38.002,40.335,37.806,40.197,37.7L40.197,37.7z M40.968,37.215
	c0.059-0.021,0.116-0.039,0.175-0.058c-0.219-0.071-0.118,0.157-0.231,0.23c0.063,0.004,0.096,0.095,0.172,0.058
	c-0.03,0.339-0.046,0.723,0.404,0.692c0,0.077-0.018,0.196,0.01,0.209c-0.211-0.091,0.53-0.018,0.674-0.106
	c0.028-0.017,0.028-0.123,0-0.145c-0.157-0.111-0.438-0.316-0.315-0.36c0.267-0.096,0.354-0.339,0.233-0.496
	c-0.059-0.077-0.275-0.024-0.429-0.024c0.057,0.205-0.083,0.369-0.284,0.278c-0.106-0.048-0.061-0.229-0.179-0.272
	C41.128,37.198,41.045,37.215,40.968,37.215L40.968,37.215z M43.163,38.14c0.119,0.04,0.172-0.021,0.291-0.02
	c0.107,0.002-0.033-0.078,0-0.155c-0.135,0-0.271,0-0.405,0C43.072,38.023,42.976,38.078,43.163,38.14L43.163,38.14z M44.614,36.992
	c-0.129,0.073,0.085,0.089,0.053,0.165c0.091,0.037,0.16-0.039,0.224-0.071c0.036-0.021-0.064-0.189-0.111-0.2
	C44.704,36.867,44.675,36.962,44.614,36.992L44.614,36.992z M50.1,38.531c0.024-0.047,0.12-0.047,0.15-0.077
	c0.294-0.289,0.426-0.81,0.201-1.109c-0.048-0.064-0.075-0.151-0.102-0.238h-1.311c-0.241,0.456-0.742,0.512-1.198,0.622
	c-0.008,0.002,0.004,0.088-0.005,0.092c-0.278,0.084-0.605,0.259-0.784-0.058c-0.042-0.071-0.05-0.193-0.096-0.268
	c-0.019-0.033-0.109-0.033-0.163-0.044c-0.385-0.072-0.635,0.572-0.862,0.374c-0.171-0.151-0.465-0.236-0.595-0.121
	c-0.159,0.136-2.037,1.501-2.122,1.66c-0.104,0.194-0.247,0.436-0.419,0.505c-0.293,0.115-0.531,0.412-0.657,0.697
	c-0.311,0.074-0.638,0.09-0.858-0.108c-0.231-0.208-0.516-0.474-0.433-0.835c-0.175-0.017-0.291,0.058-0.426,0.132
	c-0.23,0.125-0.596,0.123-0.821-0.047c-0.309-0.236,0.025-0.74-0.229-0.976c-0.161-0.147-0.538-0.263-0.682-0.063
	c-0.226,0.311-0.269,0.755-0.494,1.026c-0.246,0.297-0.81-0.046-1.082-0.325c-0.189-0.193-0.396-0.412-0.494-0.635
	c-0.208-0.475-0.021-1.076,0.478-1.354c0.172-0.093,0.337-0.438,0.502-0.537l-0.001-0.043c0.04-0.025,0.078-0.047,0.117-0.074
	c0.313-0.217,0.599-0.07,0.888-0.107c0.228-0.031,0.447-0.01,0.536,0.213c0.02,0.043,0.031,0.094,0.038,0.151
	c0.019-0.02,0.047-0.053,0.052-0.052c0.171,0.123,0.07,0.354,0.146,0.501c0.042,0.078,0.226,0.094,0.252-0.004
	c0.057-0.204,0.084-0.396,0.048-0.597c-0.072-0.392-0.252-0.775-0.247-1.178c0-0.027,0.12-0.09,0.131-0.122
	c0.077-0.249-0.136-0.501,0.099-0.659c0.06-0.039,0.277,0.07,0.29,0.02c0.129-0.511,0.022-1.033-0.078-1.549
	c-0.159,0.048-0.218-0.106-0.27-0.186c-0.119-0.193,0.146-0.295,0.193-0.456c0.053-0.18-0.036-0.405,0.046-0.558
	c0.082-0.151,0.227-0.247,0.122-0.404c-0.023-0.037-0.047-0.073-0.042,0.12h-0.004c-0.103-0.164-0.185-0.328-0.076-0.477
	c0.317-0.429,0.155-0.897,0.054-1.346c-0.021-0.097-0.229-0.075-0.299-0.142c-0.161-0.154,0.103-0.289,0.174-0.432
	c0.094-0.193,0.404-0.22,0.478-0.424c0.112-0.311-0.099-0.584-0.335-0.785c-0.048-0.041-0.173-0.041-0.204,0
	c-0.049,0.06,0.015,0.194-0.032,0.265c-0.048,0.073-0.131-0.057-0.214-0.048c0-0.039,0.011-0.089-0.008-0.11
	c-0.088-0.091-0.236-0.035-0.33-0.083c-0.087-0.04-0.227-0.018-0.273-0.203c-0.017-0.067-0.241-0.038-0.289-0.089
	c-0.195-0.214-0.479-0.271-0.719-0.324c0.042,0.193-0.162,0.209-0.2,0.303c-0.096,0.236-0.047,0.529,0.027,0.795
	c-0.04-0.188-0.346-0.106-0.289-0.348c-0.104,0.019-0.181-0.102-0.289-0.056c0.076-0.214-0.343-0.276-0.289-0.464
	c0.016-0.055-0.026-0.112-0.054-0.102c-0.387,0.143-0.514,0.506-0.309,0.828c0.257,0.403,0.543,0.79,0.57,1.295
	c0.011,0.203,0.213,0.368,0.398,0.463c0.193,0.099,0.287,0.435,0.461,0.66c0.156,0.2-0.005,0.453-0.315,0.377
	c-0.345-0.08-0.445-0.473-0.757-0.552c-0.112-0.028-0.23-0.051-0.337-0.092c-0.265-0.104-0.198-0.474-0.419-0.605
	c-0.126-0.075-0.342,0.164-0.429-0.028c-0.064-0.144-0.143-0.28-0.26-0.315c-0.474-0.139-1.022-0.161-1.132-0.72
	c-0.055-0.288-0.041-0.572-0.007-0.861c0.031-0.236,0.321-0.313,0.372-0.525c0.051-0.216,0.064-0.575-0.152-0.575
	c-0.37,0-0.572,0.433-0.84,0.724c-0.157,0.168-0.463,0.224-0.715,0.076c-0.017-0.008-0.005-0.065-0.005-0.105
	c-0.112,0.003-0.193-0.179-0.271-0.1c-0.158,0.157-0.263,0.262-0.458,0.307c-0.165,0.038-0.186,0.203-0.37,0.247
	c-0.275,0.064-0.47-0.096-0.706-0.184c-0.452-0.167-0.997-0.066-1.405-0.363c-0.277-0.204-0.456-0.528-0.595-0.868
	c-0.109-0.265-0.481-0.408-0.743-0.174c-0.471,0.417-0.755,0.973-1.288,1.309c0.077-0.048,0.096,0.02,0.114,0
	c-0.056,0.162-0.317,0.192-0.357,0.259c-0.244,0.407-0.288,1.002-0.089,1.378c0.215,0.399,0.76-0.07,1.109-0.261
	c0.313-0.171,0.697,0.045,0.996,0.266c0.383,0.284,0.607,0.678,0.869,1.086c0.207,0.324,0.212,0.678,0.199,1.041
	c-0.014,0.001-0.028,0.001-0.041,0.004c0.003,0.019,0.009,0.043,0.017,0.078h0.023c-0.001,0.016-0.001,0.03-0.002,0.042h0.149
	c0.104,0.252,0.097,0.649-0.135,0.772c-0.172,0.09-0.038,0.324-0.07,0.493c0.056,0,0.142-0.017,0.158,0.01
	c0.111,0.191,0.214,0.606,0.404,0.799c-0.252-0.059-0.346,0.081-0.363,0.292c-0.047,0.632-0.064,1.272,0.11,1.898
	c0.068,0.242,0.166,0.461,0.284,0.664h0.048l0.003,0.012c0.242,0.424,0.569,1.056,0.896,1.459c0.018,0.025,0.039,0.049,0.055,0.079
	c0,0,0.002,0.008,0.005,0.018c0.013,0.024,0.023,0.05,0.023,0.081c0-0.008,0-0.019,0.001-0.031c0.016,0.03,0.032,0.063,0.039,0.074
	c0.04,0.105,0.112,0.18,0.09,0.276c0.545,0.286,0.924,0.395,1.152,0.896c0.079,0.174,0.011,0.456,0.216,0.538
	c0.165,0.07,0.397,0.076,0.555-0.001c0.037-0.02,0.012-0.167,0.012-0.265c-0.124,0.008-0.198-0.115-0.205-0.174
	c-0.062-0.553-0.637-0.482-0.854-0.83c-0.111-0.178-0.341-0.555-0.234-0.525c0.72,0.19,1.297,0.828,1.607,1.578
	c0.057,0.135,0.193,0.271,0.332,0.339c0.521,0.251,1.118,0.192,1.672,0.243c1.365,0.122,2.726,0.143,4.095,0.22
	c0.451,0.027,0.579,0.761,1.032,0.669c0.058-0.013,0.222-0.068,0.286-0.229c0.067-0.173,0.43,0.056,0.565-0.098
	c0.269-0.306,0.733-0.727,1.03-0.245c0.192,0.313,0.161,0.727,0.014,1.067c-0.139,0.318-0.455,0.566-0.414,0.929
	c0.081,0.709,0.429,1.832,1.424,1.668c0.032-0.004,0.175,0.212,0.267,0.159c0.336-0.195,0.708-0.029,1.053,0.004
	c0.276,0.026,0.4,0.272,0.214,0.531c-0.179,0.248-0.477,0.383-0.595,0.654c-0.117,0.276-0.4,0.412-0.462,0.69
	c-0.053,0.229,0.203,0.204,0.296,0.36c0.089,0.145,0.048,0.128,0.059,0.3c0,0,3.381-1.994,5.692-7.83
	C50.524,39.086,49.878,38.946,50.1,38.531z M48.865,27.195l-1.16-1.787l-0.967-1.04c-2.12-2.258-5.436-4.526-10.371-4.938
	c0,0-5.866-0.909-11.962,4.669h-0.356c0.054,0.124-0.177,0.137-0.212,0.259c-0.053,0.184-0.088,0.43,0,0.52
	c0.213,0.218,0.619-0.044,0.809-0.294c0.141-0.183,0.48-0.233,0.645-0.011c0.341,0.461-0.161,0.864-0.419,1.171
	c-0.196,0.234-0.544,0.024-0.832,0.03c0.085,0.379-0.278,0.888,0.173,1.097c-0.016-0.057,0.013-0.097,0.059-0.111
	c0.054-0.016,0.133,0.015,0.161-0.013c0.244-0.238,0.636-0.402,0.919-0.201c0.164,0.118,0.346,0.257,0.363,0.498
	c0.125-0.059,0.133,0.117,0.23,0.115c-0.051-0.168,0.128-0.254,0.198-0.318c0.273-0.237,0.688,0.01,1.005-0.113
	c0.104-0.039,0.218-0.198,0.221-0.321c0.004-0.5-0.073-1.075-0.198-2.039h0.194c0.332-0.491,0.128-1.282,0.778-1.478
	c0.636-0.193,1.162-0.259,1.68-0.58c0.062-0.038,0.175,0.079,0.274,0.03c0.33-0.155,0.624-0.351,0.86-0.637
	c0.022-0.025,0.074-0.122-0.048-0.108c0.33-0.244,0.657-0.313,1.007-0.539c0.455-0.295,0.921-0.499,1.43-0.632
	c1.226-0.329,2.169,0.552,3.138,1.247c0.297,0.214,0.704,0.136,1.069,0.04c-0.016-0.056,0.014-0.094,0.059-0.112
	c0.338-0.139,0.7,0.024,0.959,0.245c0.145,0.125,0.545,0.061,0.611-0.146c0.042-0.14,0.064-0.399-0.078-0.555
	c-0.191-0.21-0.356-0.345-0.281-0.644c-0.057,0-0.13-0.021-0.165,0.009c-0.116,0.104-0.173,0.28-0.266,0.366
	c-0.329,0.295-0.878,0.096-1.093-0.227c-0.128-0.19-0.08-0.727,0.309-0.603c0.241,0.075,0.461,0.19,0.7,0.265
	c0.084,0.027,0.186,0.032,0.295-0.021c0.17-0.085,0.364,0.088,0.55-0.016c0.007,0.001,0.015,0.002,0.022,0.002l0.053,0.11
	c0.036-0.026,0.07-0.067,0.05-0.095c0.183,0.039,0.351,0.13,0.424,0.24c0.233,0.348,0.038,0.848,0.249,1.225
	c0.014,0.027,0.082,0.097,0.143,0.132c0.122-0.235,0.254-0.6,0.564-0.433c0.335,0.181,0.616,0.43,0.952,0.645
	c0.085,0.057,0.237-0.016,0.323,0.038c0.209,0.128,0.364,0.322,0.554,0.472c0.11,0.086,0.253,0.217,0.384,0.231
	c0.339,0.037,0.576,0.203,0.576,0.492c0.343,0.042,0.386,0.327,0.536,0.567c0.103,0.162,0.28,0.273,0.454,0.339
	c0.074,0.028,0.227,0.084,0.268-0.042c0.063-0.197-0.032-0.422-0.134-0.549c-0.391-0.479-0.747-0.915-1.223-1.317
	c-0.092-0.076-0.086-0.25-0.133-0.382c0.078,0,0.18-0.026,0.218,0.013c0.245,0.253,0.528,0.46,0.8,0.622
	c0.428,0.251,0.734,0.632,0.917,1.052c0.081,0.186,0.085,0.364,0.132,0.546c0.054,0.201,0.055,0.405,0.1,0.614
	c0.071,0.327,0.277,0.56,0.531,0.774c0.061,0.052,0.028,0.156,0.074,0.219c0.114,0.155,0.255,0.266,0.375,0.414
	c0.055,0.069,0.046,0.174,0.111,0.238c0.177,0.18,0.325,0.396,0.551,0.495c0.069,0.028,0.167,0.074,0.172,0.145
	c0.011,0.168-0.025,0.347,0.059,0.502c0.074,0.143,0.204,0.236,0.313,0.35c-0.028,0.257,0.15,0.181,0.347,0.477
	c0.238,0.093,0.258,0.303,0.547,0.367c0.039,0.011,0.086,0.033,0.104,0.081l0-0.006c0.136,0.146,0.361,0.234,0.361,0.234
	c0.038-0.014,0.137-0.1,0.177-0.113c0.215-0.078,0.432,0.161,0.685,0.185C50.091,29.183,48.865,27.195,48.865,27.195z
	 M40.042,36.826c-0.054-0.003-0.117-0.007-0.142,0.045c-0.022,0.049-0.032,0.125,0.029,0.15c0.041,0.016,0.05-0.004,0.086-0.034
	c0.023-0.02,0.083,0.013,0.093-0.034c0.022-0.103-0.084-0.129-0.169-0.112"/>
<path class="secondarycolor" d="M17.366,56.076c-0.205-0.165-0.35-0.252-0.434-0.254c-0.085-0.005-0.214,0.081-0.38,0.254l-1.668,1.727
	c-0.136,0.145-0.2,0.258-0.19,0.354c0.008,0.092,0.096,0.23,0.264,0.411l-0.071,0.074l-2.55-2.463l0.537-0.587l0.133,0.128
	c-0.145,0.215-0.194,0.389-0.15,0.526c0.042,0.136,0.197,0.333,0.463,0.591l0.656,0.632c0.063,0.061,0.114,0.092,0.15,0.092
	c0.034-0.004,0.077-0.027,0.129-0.081l0.859-0.891l-0.691-0.67c-0.204-0.196-0.36-0.298-0.464-0.3
	c-0.104-0.004-0.249,0.056-0.433,0.177l-0.113-0.11l0.893-0.922l0.112,0.106c-0.113,0.191-0.166,0.338-0.158,0.439
	c0.007,0.106,0.111,0.256,0.314,0.451l0.691,0.67l0.843-0.873c0.143-0.146,0.207-0.267,0.193-0.36
	c-0.015-0.092-0.109-0.232-0.277-0.42l0.07-0.069l1.342,1.296L17.366,56.076L17.366,56.076z M14.386,53.133l0.083-0.06l-2.104-2.898
	l-0.97,0.302l0.1,0.136c0.385-0.038,0.671,0.004,0.859,0.123c0.188,0.123,0.456,0.422,0.803,0.9c0.088,0.123,0.15,0.208,0.181,0.254
	c0.03,0.045,0.059,0.088,0.083,0.133c0.043,0.074,0.058,0.132,0.046,0.173c-0.016,0.041-0.047,0.078-0.098,0.114l-2.155,1.565
	c-0.15,0.109-0.271,0.146-0.365,0.11c-0.095-0.033-0.218-0.147-0.371-0.339l-0.083,0.062L11.5,55.23l0.083-0.061
	c-0.132-0.21-0.195-0.359-0.188-0.455c0.006-0.093,0.09-0.194,0.248-0.312l1.996-1.449c0.17-0.125,0.298-0.173,0.384-0.144
	C14.104,52.839,14.225,52.946,14.386,53.133L14.386,53.133z M10.834,48.662c-0.132,0.368-0.459,0.684-0.982,0.939
	c-0.527,0.258-0.975,0.321-1.344,0.194c-0.374-0.124-0.647-0.368-0.824-0.728c-0.167-0.344-0.193-0.704-0.075-1.074
	c0.118-0.372,0.45-0.69,0.994-0.955c0.538-0.262,0.989-0.326,1.356-0.195c0.366,0.13,0.634,0.371,0.806,0.724
	C10.94,47.928,10.965,48.292,10.834,48.662L10.834,48.662z M8.61,50.299c0.516,0.248,1.04,0.237,1.572-0.021
	c0.509-0.247,0.83-0.638,0.969-1.17c0.136-0.524,0.066-1.068-0.207-1.628c-0.253-0.523-0.616-0.902-1.081-1.132
	c-0.522-0.256-1.052-0.255-1.592,0.011c-0.534,0.261-0.86,0.666-0.987,1.22c-0.115,0.515-0.041,1.041,0.221,1.579
	C7.768,49.693,8.134,50.075,8.61,50.299L8.61,50.299z M7.057,43.462c0.126,0.176,0.265,0.493,0.418,0.945l-1.308,0.399
	C6.088,44.832,6.032,44.827,6,44.796c-0.037-0.036-0.08-0.144-0.135-0.322c-0.081-0.268-0.118-0.492-0.107-0.672
	c0.02-0.337,0.184-0.552,0.492-0.646C6.569,43.059,6.837,43.159,7.057,43.462L7.057,43.462z M9.56,45.076l0.095-0.029l-0.54-1.768
	l-0.096,0.027c0.058,0.246,0.069,0.412,0.04,0.502c-0.031,0.086-0.147,0.161-0.343,0.222L7.673,44.35L7.55,43.998l1.168-2.016
	l-0.313-1.026L8.31,40.985c0.028,0.131,0.036,0.24,0.023,0.334c-0.014,0.092-0.05,0.19-0.108,0.296l-0.943,1.724
	c-0.153-0.34-0.332-0.592-0.536-0.754c-0.206-0.163-0.44-0.207-0.704-0.126c-0.395,0.122-0.593,0.438-0.598,0.946
	c-0.002,0.266,0.053,0.586,0.164,0.951l0.538,1.764l0.1-0.031c-0.055-0.236-0.063-0.394-0.024-0.479
	c0.037-0.084,0.146-0.156,0.334-0.214l2.297-0.702c0.22-0.067,0.37-0.079,0.449-0.038C9.38,44.694,9.466,44.837,9.56,45.076
	L9.56,45.076z M8.279,40.341l0.099-0.017l-0.309-1.945l-0.099,0.017c0.024,0.271,0.021,0.448-0.018,0.536S7.79,39.08,7.576,39.113
	L5.139,39.5c-0.2,0.031-0.336,0.014-0.406-0.059c-0.071-0.07-0.133-0.236-0.186-0.505l-0.102,0.019l0.308,1.944l0.1-0.017
	c-0.03-0.269-0.023-0.446,0.024-0.536c0.044-0.087,0.167-0.147,0.368-0.18l2.437-0.386c0.213-0.035,0.351-0.015,0.415,0.055
	C8.16,39.907,8.22,40.075,8.279,40.341L8.279,40.341z M7.638,36.385c-0.029,0.052-0.088,0.079-0.177,0.08l-2.82,0.048
	c-0.093,0.003-0.152-0.022-0.18-0.075c-0.028-0.053-0.042-0.155-0.048-0.302c-0.009-0.602,0.105-1.086,0.345-1.453
	c0.279-0.432,0.704-0.649,1.272-0.66c0.638-0.014,1.093,0.239,1.364,0.75c0.177,0.331,0.271,0.759,0.28,1.279
	C7.678,36.219,7.666,36.329,7.638,36.385L7.638,36.385z M7.81,37.719h0.099L7.877,35.87c-0.009-0.496-0.067-0.914-0.178-1.252
	c-0.06-0.186-0.144-0.363-0.256-0.534c-0.177-0.27-0.389-0.471-0.641-0.601c-0.25-0.133-0.517-0.197-0.792-0.191
	c-0.767,0.013-1.292,0.4-1.578,1.158c-0.158,0.423-0.233,0.935-0.223,1.539l0.033,1.793l0.102-0.002
	c0.01-0.247,0.043-0.404,0.101-0.478c0.055-0.072,0.186-0.112,0.387-0.115l2.467-0.044c0.211-0.002,0.341,0.033,0.395,0.105
	C7.745,37.32,7.784,37.479,7.81,37.719L7.81,37.719z M6.858,30.096l-0.214,1.518l-1.406-0.967L6.858,30.096L6.858,30.096z
	 M7.869,33.14l0.184-1.307l-0.1-0.013c-0.033,0.153-0.063,0.254-0.092,0.308c-0.048,0.084-0.119,0.12-0.212,0.107
	c-0.046-0.005-0.107-0.032-0.18-0.075c-0.077-0.044-0.283-0.178-0.617-0.402l0.243-1.723l0.567-0.199
	c0.081-0.029,0.155-0.047,0.227-0.062c0.07-0.011,0.12-0.016,0.147-0.011c0.081,0.011,0.127,0.047,0.141,0.105
	c0.012,0.061,0.01,0.185-0.001,0.38l0.099,0.014l0.234-1.678l-0.098-0.01c-0.039,0.15-0.088,0.256-0.146,0.315
	c-0.059,0.058-0.201,0.126-0.422,0.208l-3.345,1.202l-0.018,0.129l2.502,1.753c0.374,0.263,0.601,0.443,0.681,0.542
	c0.079,0.097,0.115,0.23,0.107,0.402L7.869,33.14L7.869,33.14z M9.351,25.697l0.094,0.037l0.737-1.826l-0.092-0.038
	c-0.117,0.246-0.213,0.396-0.292,0.451c-0.078,0.054-0.216,0.043-0.417-0.039l-2.287-0.923c-0.189-0.078-0.295-0.164-0.319-0.26
	c-0.025-0.096,0.007-0.273,0.098-0.526l-0.096-0.039l-0.737,1.826L6.137,24.4c0.111-0.247,0.21-0.397,0.296-0.449
	c0.083-0.054,0.22-0.042,0.409,0.033L9.13,24.91c0.198,0.081,0.307,0.168,0.325,0.262C9.473,25.265,9.437,25.439,9.351,25.697
	L9.351,25.697z M10.297,23.271l0.087,0.047l0.758-1.366l-0.087-0.049c-0.135,0.199-0.246,0.315-0.331,0.349
	c-0.134,0.048-0.332-0.001-0.597-0.149l-1.89-1.047l4.089-1.102l0.053-0.098l-2.553-1.416c-0.255-0.141-0.396-0.268-0.427-0.382
	c-0.029-0.113,0.006-0.287,0.112-0.518l-0.09-0.05l-0.758,1.368l0.091,0.048c0.134-0.204,0.244-0.322,0.33-0.357
	c0.133-0.05,0.333-0.001,0.601,0.145l1.622,0.901l-3.579,0.947L7.175,21.54l0.088,0.05c0.071-0.118,0.131-0.201,0.185-0.25
	c0.053-0.049,0.145-0.094,0.276-0.134l0.121-0.035l2.139,1.186c0.257,0.141,0.401,0.267,0.435,0.374
	C10.451,22.839,10.41,23.018,10.297,23.271L10.297,23.271z M12.359,17.923l-0.097,0.119l1.043,0.588l0.092-0.112
	c-0.031-0.035-0.052-0.078-0.067-0.121c-0.012-0.048,0.005-0.102,0.053-0.162c0.021-0.025,0.128-0.104,0.319-0.237
	c0.19-0.133,0.354-0.282,0.482-0.44c0.259-0.319,0.395-0.641,0.406-0.967c0.016-0.327-0.089-0.585-0.315-0.767
	c-0.168-0.136-0.361-0.199-0.578-0.183c-0.215,0.017-0.512,0.109-0.889,0.276l-0.602,0.266c-0.224,0.099-0.41,0.156-0.556,0.172
	c-0.143,0.019-0.27-0.016-0.381-0.108c-0.125-0.102-0.178-0.23-0.162-0.391c0.016-0.161,0.08-0.313,0.195-0.456
	c0.148-0.183,0.35-0.322,0.611-0.418c0.259-0.097,0.563-0.077,0.906,0.064l0.102-0.126l-1.01-0.63l-0.086,0.107
	c0.035,0.05,0.055,0.099,0.061,0.145c0.006,0.043-0.018,0.099-0.069,0.161c-0.02,0.025-0.12,0.1-0.303,0.229
	c-0.184,0.124-0.321,0.247-0.417,0.364c-0.231,0.286-0.346,0.574-0.343,0.865c0.005,0.289,0.116,0.525,0.332,0.701
	c0.165,0.132,0.375,0.181,0.63,0.145c0.135-0.021,0.292-0.07,0.469-0.146l0.588-0.256c0.338-0.149,0.571-0.235,0.701-0.262
	c0.203-0.038,0.373,0,0.513,0.117c0.158,0.125,0.229,0.285,0.218,0.476c-0.01,0.191-0.083,0.368-0.216,0.533
	c-0.246,0.305-0.554,0.478-0.921,0.521C12.861,18.016,12.622,17.992,12.359,17.923L12.359,17.923z M13.124,13.02l0.602,0.726
	l0.121-0.109c-0.149-0.266-0.204-0.477-0.166-0.63c0.04-0.156,0.198-0.357,0.471-0.604l0.276-0.248l1.855,2.06
	c0.161,0.181,0.236,0.313,0.224,0.405c-0.012,0.091-0.116,0.237-0.314,0.439l0.067,0.075l1.442-1.3l-0.067-0.075
	c-0.212,0.17-0.365,0.263-0.458,0.279c-0.095,0.016-0.213-0.06-0.358-0.22l-1.898-2.107l0.274-0.246
	c0.288-0.259,0.504-0.395,0.654-0.408c0.148-0.016,0.353,0.062,0.608,0.23l0.118-0.107l-0.657-0.679L13.124,13.02L13.124,13.02z
	 M18.897,12.771l0.056,0.082l1.615-1.131l-0.059-0.081c-0.23,0.144-0.394,0.215-0.488,0.22c-0.095,0.004-0.205-0.082-0.328-0.259
	l-1.416-2.022c-0.117-0.167-0.16-0.298-0.127-0.389c0.032-0.095,0.155-0.225,0.372-0.389l-0.059-0.086L16.85,9.849l0.06,0.083
	c0.227-0.145,0.391-0.218,0.492-0.216c0.097,0.001,0.207,0.086,0.323,0.253l1.416,2.021c0.123,0.177,0.167,0.309,0.13,0.397
	C19.233,12.476,19.109,12.602,18.897,12.771L18.897,12.771z M19.402,8.102L19.81,8.95l0.144-0.075
	c-0.081-0.295-0.083-0.512-0.008-0.653c0.078-0.14,0.279-0.297,0.603-0.47l0.327-0.174l1.303,2.449
	c0.113,0.211,0.151,0.361,0.12,0.447c-0.034,0.084-0.17,0.2-0.411,0.35l0.048,0.088L23.646,10L23.6,9.91
	c-0.247,0.114-0.418,0.167-0.513,0.161c-0.095-0.008-0.193-0.109-0.294-0.297l-1.332-2.507l0.327-0.173
	c0.34-0.181,0.584-0.261,0.731-0.238c0.15,0.022,0.329,0.146,0.536,0.369l0.142-0.074l-0.474-0.816L19.402,8.102L19.402,8.102z
	 M25.666,5.273L23.87,5.857l0.032,0.098c0.244-0.062,0.41-0.077,0.497-0.044c0.09,0.029,0.167,0.141,0.229,0.332l0.534,1.649
	c0.106,0.326,0.259,0.567,0.458,0.723c0.367,0.292,0.894,0.326,1.578,0.103c0.693-0.225,1.101-0.565,1.226-1.021
	c0.067-0.249,0.041-0.554-0.077-0.918l-0.446-1.373c-0.09-0.278-0.109-0.465-0.06-0.564c0.05-0.104,0.195-0.204,0.434-0.306
	l-0.032-0.099l-1.465,0.477l0.032,0.098c0.236-0.056,0.408-0.061,0.515-0.013c0.105,0.044,0.205,0.21,0.298,0.498l0.447,1.372
	c0.108,0.336,0.14,0.602,0.094,0.796c-0.086,0.345-0.386,0.602-0.901,0.771c-0.472,0.151-0.839,0.116-1.099-0.11
	c-0.141-0.125-0.257-0.326-0.346-0.602L25.27,6.036c-0.062-0.194-0.066-0.33-0.011-0.408c0.053-0.077,0.201-0.163,0.439-0.256
	L25.666,5.273L25.666,5.273z M29.583,4.211l0.093,0.938l0.161-0.021c0.024-0.306,0.095-0.511,0.214-0.616
	c0.123-0.106,0.365-0.186,0.728-0.236l0.367-0.051l0.386,2.746c0.034,0.237,0.021,0.391-0.04,0.461
	c-0.06,0.067-0.229,0.13-0.505,0.188l0.014,0.099l1.921-0.27l-0.013-0.1c-0.271,0.021-0.45,0.013-0.537-0.026
	c-0.086-0.04-0.145-0.167-0.174-0.379l-0.395-2.812l0.366-0.051c0.383-0.054,0.638-0.042,0.769,0.028
	c0.132,0.071,0.258,0.248,0.376,0.531l0.158-0.023l-0.167-0.927L29.583,4.211L29.583,4.211z M34.474,7.195l-0.002,0.099l3.595,0.127
	l0.334-0.927l-0.184-0.007c-0.184,0.311-0.382,0.504-0.6,0.579c-0.218,0.074-0.55,0.104-1.002,0.087
	c-0.414-0.015-0.665-0.034-0.749-0.058c-0.081-0.021-0.12-0.088-0.116-0.198l0.047-1.373l1.024,0.036
	c0.28,0.009,0.458,0.052,0.535,0.125c0.075,0.071,0.134,0.215,0.176,0.432l0.156,0.005l0.045-1.284l-0.157-0.006
	c-0.053,0.214-0.122,0.354-0.202,0.421c-0.082,0.068-0.263,0.098-0.547,0.089l-1.024-0.036l0.043-1.238
	c0.003-0.072,0.015-0.121,0.037-0.145c0.025-0.026,0.085-0.037,0.184-0.034l0.904,0.031c0.389,0.015,0.639,0.059,0.75,0.135
	c0.109,0.076,0.188,0.239,0.235,0.485l0.171,0.005l0.003-0.796l-3.533-0.124L34.595,3.73c0.247,0.023,0.403,0.067,0.475,0.13
	c0.068,0.063,0.101,0.19,0.092,0.389l-0.086,2.465c-0.006,0.209-0.048,0.339-0.124,0.39C34.879,7.152,34.72,7.181,34.474,7.195
	L34.474,7.195z M43.083,7.809c-0.176-0.351-0.172-0.804,0.007-1.357c0.181-0.558,0.446-0.926,0.792-1.105
	c0.351-0.181,0.715-0.209,1.095-0.085c0.366,0.119,0.642,0.35,0.827,0.691c0.186,0.345,0.184,0.803-0.002,1.379
	c-0.186,0.568-0.454,0.938-0.803,1.111c-0.348,0.171-0.708,0.197-1.08,0.077C43.536,8.394,43.257,8.157,43.083,7.809L43.083,7.809z
	 M43.45,5.069c-0.536,0.202-0.894,0.584-1.077,1.148c-0.172,0.535-0.118,1.039,0.169,1.51c0.283,0.462,0.72,0.79,1.315,0.982
	c0.553,0.179,1.075,0.182,1.565,0.007c0.547-0.195,0.912-0.581,1.099-1.15c0.183-0.564,0.118-1.083-0.194-1.559
	c-0.288-0.44-0.717-0.752-1.288-0.938C44.468,4.885,43.941,4.885,43.45,5.069L43.45,5.069z M46.377,9.393l-0.043,0.091l1.675,0.818
	l0.045-0.091c-0.219-0.123-0.351-0.228-0.395-0.311c-0.04-0.084-0.017-0.22,0.074-0.402l0.532-1.089l0.865,0.419
	c0.254,0.125,0.399,0.236,0.438,0.333c0.04,0.096,0.036,0.252-0.015,0.467l0.141,0.069l0.563-1.155l-0.141-0.067
	c-0.137,0.171-0.256,0.272-0.357,0.3c-0.101,0.029-0.28-0.018-0.535-0.142L48.36,8.209l0.542-1.112
	c0.032-0.066,0.064-0.105,0.099-0.12c0.034-0.011,0.091,0.004,0.172,0.043l0.817,0.398c0.333,0.163,0.542,0.302,0.623,0.42
	c0.085,0.114,0.09,0.296,0.021,0.544L50.8,8.465l0.328-0.727l-3.185-1.553l-0.046,0.092c0.217,0.121,0.342,0.226,0.379,0.312
	c0.038,0.085,0.015,0.215-0.07,0.394l-1.055,2.157c-0.104,0.216-0.2,0.335-0.282,0.359C46.787,9.522,46.622,9.486,46.377,9.393
	L46.377,9.393z M54.703,10.132l-0.659,0.674l0.121,0.109c0.249-0.175,0.453-0.252,0.611-0.23c0.158,0.024,0.373,0.161,0.648,0.408
	l0.275,0.248l-1.857,2.06c-0.159,0.177-0.286,0.267-0.377,0.265c-0.091-0.002-0.248-0.09-0.468-0.267l-0.068,0.075l1.442,1.298
	l0.067-0.075c-0.19-0.191-0.297-0.334-0.323-0.428c-0.025-0.091,0.034-0.216,0.179-0.376l1.897-2.108l0.276,0.248
	c0.288,0.257,0.444,0.461,0.472,0.607c0.031,0.147-0.023,0.356-0.164,0.627l0.118,0.107l0.604-0.724L54.703,10.132L54.703,10.132z
	 M55.62,15.765l-0.077,0.064l2.312,2.756l0.912-0.37l-0.118-0.143c-0.353,0.073-0.628,0.055-0.831-0.057
	c-0.2-0.113-0.445-0.342-0.735-0.687c-0.268-0.317-0.419-0.516-0.46-0.595c-0.037-0.075-0.013-0.148,0.07-0.22l1.053-0.883
	l0.657,0.785c0.182,0.216,0.271,0.377,0.268,0.48c-0.003,0.106-0.071,0.245-0.204,0.422l0.101,0.12l0.982-0.826l-0.1-0.12
	c-0.195,0.102-0.345,0.146-0.449,0.13c-0.105-0.016-0.247-0.13-0.429-0.349l-0.658-0.783l0.948-0.794
	c0.055-0.047,0.098-0.071,0.132-0.07c0.036,0.002,0.085,0.038,0.147,0.113l0.582,0.693c0.25,0.299,0.383,0.515,0.402,0.648
	c0.016,0.133-0.051,0.298-0.202,0.5l0.108,0.128l0.596-0.527l-2.274-2.71l-0.077,0.067c0.147,0.198,0.22,0.344,0.217,0.439
	c0,0.093-0.073,0.202-0.225,0.329l-1.889,1.586c-0.162,0.134-0.284,0.189-0.372,0.167C55.922,16.039,55.794,15.94,55.62,15.765
	L55.62,15.765z M63.137,20.124c-0.079-0.247-0.18-0.473-0.303-0.678c-0.357-0.593-0.81-0.975-1.362-1.146
	c-0.525-0.165-1.019-0.106-1.482,0.172c-0.452,0.272-0.729,0.666-0.831,1.179c-0.109,0.556,0.02,1.142,0.388,1.752
	c0.223,0.375,0.516,0.669,0.879,0.886c0.212,0.129,0.424,0.213,0.634,0.262l0.023-0.16c-0.237-0.091-0.432-0.188-0.584-0.29
	c-0.269-0.178-0.49-0.415-0.667-0.708c-0.245-0.409-0.323-0.825-0.231-1.244c0.094-0.417,0.354-0.755,0.778-1.008
	c0.461-0.277,0.9-0.369,1.315-0.273c0.416,0.095,0.744,0.345,0.982,0.741c0.239,0.397,0.305,0.787,0.202,1.166
	c-0.057,0.201-0.167,0.402-0.333,0.607l0.078,0.13l1.035-0.695l-0.07-0.121c-0.064,0.013-0.123,0.004-0.177-0.029
	c-0.054-0.035-0.097-0.078-0.128-0.131C63.265,20.51,63.217,20.373,63.137,20.124L63.137,20.124z M60.965,23.614l-0.094,0.031
	l0.602,1.749l0.095-0.032c-0.064-0.236-0.083-0.4-0.05-0.488c0.03-0.088,0.142-0.166,0.332-0.231l1.08-0.372l0.657,1.909
	l-1.019,0.352c-0.226,0.078-0.378,0.095-0.453,0.053c-0.075-0.043-0.166-0.182-0.272-0.423l-0.094,0.035l0.601,1.745l0.096-0.032
	c-0.063-0.237-0.08-0.4-0.049-0.487c0.031-0.086,0.142-0.163,0.333-0.229l2.332-0.801c0.188-0.066,0.322-0.075,0.401-0.027
	c0.081,0.051,0.167,0.188,0.261,0.417l0.096-0.033l-0.603-1.75l-0.097,0.035c0.068,0.239,0.084,0.402,0.051,0.488
	c-0.032,0.087-0.144,0.162-0.331,0.228l-1.023,0.351l-0.656-1.907l1.021-0.353c0.188-0.064,0.322-0.071,0.402-0.022
	c0.08,0.051,0.168,0.188,0.261,0.416l0.098-0.035l-0.602-1.748l-0.098,0.034c0.066,0.236,0.082,0.397,0.05,0.484
	c-0.033,0.09-0.143,0.166-0.331,0.232l-2.271,0.781c-0.227,0.077-0.379,0.096-0.455,0.053
	C61.164,23.993,61.072,23.853,60.965,23.614L60.965,23.614z M62.681,28.613l-0.098,0.014l0.218,1.547l0.099-0.012
	c-0.011-0.244,0.006-0.4,0.055-0.479c0.078-0.115,0.266-0.199,0.565-0.239l2.141-0.3l-2.602,3.338l0.017,0.112l2.891-0.405
	c0.288-0.042,0.479-0.025,0.57,0.048c0.091,0.071,0.166,0.232,0.223,0.48l0.102-0.016l-0.218-1.547l-0.102,0.014
	c0.016,0.245,0,0.408-0.049,0.488c-0.077,0.118-0.266,0.201-0.568,0.241l-1.836,0.26l2.287-2.911l-0.158-1.13l-0.103,0.016
	c0.016,0.135,0.016,0.237,0.003,0.307c-0.013,0.069-0.059,0.164-0.14,0.272l-0.076,0.104l-2.422,0.34
	c-0.29,0.041-0.48,0.027-0.571-0.04C62.819,29.05,62.744,28.884,62.681,28.613L62.681,28.613z M63.762,35.167
	c0.29-0.267,0.726-0.388,1.309-0.366c0.583,0.02,1.009,0.173,1.28,0.457c0.269,0.286,0.398,0.628,0.383,1.029
	c-0.013,0.385-0.161,0.712-0.439,0.985c-0.279,0.271-0.719,0.398-1.325,0.377c-0.596-0.021-1.026-0.178-1.289-0.465
	c-0.261-0.287-0.385-0.627-0.37-1.019C63.324,35.765,63.475,35.431,63.762,35.167L63.762,35.167z M66.498,34.766
	c-0.343-0.458-0.81-0.699-1.401-0.719c-0.563-0.021-1.033,0.172-1.406,0.578c-0.366,0.398-0.56,0.909-0.582,1.533
	c-0.021,0.583,0.121,1.084,0.424,1.508c0.34,0.472,0.809,0.719,1.413,0.74c0.589,0.018,1.07-0.188,1.443-0.617
	c0.342-0.397,0.524-0.896,0.545-1.496C66.954,35.693,66.81,35.184,66.498,34.766L66.498,34.766z M63.062,39.141l-0.098-0.019
	l-0.745,3.502l0.874,0.52l0.035-0.166c-0.287-0.262-0.447-0.503-0.484-0.723c-0.036-0.22,0.007-0.618,0.13-1.197
	c0.032-0.149,0.056-0.25,0.067-0.303c0.013-0.054,0.027-0.104,0.043-0.152c0.026-0.081,0.059-0.13,0.099-0.148
	c0.041-0.016,0.091-0.016,0.15-0.006l2.607,0.557c0.179,0.037,0.29,0.103,0.326,0.194c0.038,0.094,0.038,0.263-0.003,0.503
	l0.101,0.021l0.392-1.839l-0.102-0.022c-0.066,0.238-0.136,0.388-0.21,0.443c-0.072,0.058-0.206,0.066-0.399,0.024l-2.413-0.512
	c-0.204-0.044-0.324-0.106-0.36-0.19C63.035,39.548,63.033,39.385,63.062,39.141L63.062,39.141z M61.967,44.938
	c0.362-0.153,0.813-0.117,1.355,0.103c0.542,0.217,0.891,0.506,1.046,0.864c0.155,0.364,0.157,0.73,0.009,1.101
	c-0.145,0.357-0.394,0.614-0.75,0.775c-0.357,0.16-0.813,0.127-1.374-0.1c-0.555-0.223-0.907-0.515-1.054-0.877
	c-0.147-0.358-0.147-0.722,0-1.083C61.35,45.349,61.606,45.089,61.967,44.938L61.967,44.938z M64.675,45.493
	c-0.166-0.547-0.521-0.932-1.071-1.152c-0.522-0.212-1.027-0.189-1.518,0.063c-0.48,0.248-0.838,0.663-1.072,1.24
	c-0.218,0.543-0.255,1.063-0.116,1.563c0.157,0.558,0.515,0.951,1.074,1.175c0.548,0.225,1.071,0.193,1.567-0.085
	c0.458-0.255,0.799-0.661,1.024-1.218C64.786,46.522,64.824,45.998,64.675,45.493L64.675,45.493z M61.271,52.916
	c0.185-0.178,0.348-0.372,0.488-0.59c0.389-0.597,0.529-1.188,0.423-1.773c-0.096-0.526-0.359-0.933-0.793-1.214
	c-0.491-0.32-1.019-0.369-1.578-0.145c-0.508,0.2-0.938,0.576-1.292,1.12c-0.193,0.296-0.347,0.635-0.464,1.014
	c-0.119,0.381-0.15,0.589-0.095,0.625l0.914,0.594c0.153,0.098,0.226,0.201,0.226,0.309c0,0.065-0.04,0.169-0.121,0.313l0.087,0.054
	l0.923-1.421l-0.087-0.057c-0.145,0.197-0.257,0.313-0.339,0.344c-0.085,0.034-0.217-0.007-0.394-0.125l-0.744-0.482
	c-0.05-0.03-0.081-0.073-0.086-0.124c-0.003-0.05,0.02-0.153,0.067-0.308c0.032-0.098,0.071-0.193,0.12-0.293
	c0.048-0.098,0.094-0.18,0.138-0.248c0.259-0.396,0.595-0.654,1.012-0.767c0.417-0.117,0.839-0.034,1.269,0.246
	c0.518,0.335,0.804,0.714,0.853,1.131c0.051,0.419-0.041,0.809-0.273,1.168c-0.229,0.352-0.511,0.576-0.848,0.668
	c-0.188,0.051-0.434,0.06-0.734,0.028l-0.083,0.127l1.008,0.591l0.079-0.123c-0.033-0.054-0.05-0.107-0.054-0.156
	c-0.005-0.052,0.02-0.117,0.072-0.195C60.982,53.196,61.083,53.092,61.271,52.916L61.271,52.916z M58.445,56.426l1.292-1.338
	l-0.074-0.072c-0.124,0.12-0.269,0.186-0.427,0.202c-0.158,0.016-0.474,0.004-0.946-0.033l-1.372-0.115l-0.692-0.668
	c-0.173-0.17-0.257-0.3-0.251-0.396c0.008-0.093,0.11-0.252,0.309-0.481l-0.071-0.066l-1.415,1.461l0.072,0.069
	c0.211-0.199,0.364-0.312,0.461-0.335c0.096-0.021,0.222,0.04,0.375,0.19l0.777,0.751l0.216,1.578
	c0.044,0.33,0.043,0.586-0.003,0.77c-0.029,0.118-0.087,0.229-0.178,0.331l0.075,0.071l1.011-1.048l-0.073-0.072
	c-0.104,0.105-0.182,0.174-0.236,0.206c-0.09,0.056-0.163,0.056-0.22,0.002c-0.013-0.014-0.026-0.034-0.041-0.066
	c-0.017-0.032-0.031-0.082-0.042-0.147l-0.236-1.555l1.57,0.148c0.073,0.007,0.126,0.019,0.16,0.032
	c0.037,0.016,0.061,0.031,0.079,0.047c0.056,0.056,0.064,0.116,0.027,0.19c-0.038,0.072-0.11,0.164-0.223,0.274L58.445,56.426
	L58.445,56.426z M23.812,61.261l-0.009-0.002l-0.847,0.845l-1.309-0.581l-0.002,0.007l0.776,1.129l-0.878,0.854l0.006,0.015
	l1.331-0.182l0.756,1.11l0.014-0.005l0.053-1.223l1.349-0.182l0.004-0.009l-1.314-0.583L23.812,61.261L23.812,61.261z M29.98,62.414
	c0-0.005-0.003-0.013-0.009-0.021l-0.038-0.012l-1.272,0.249l-0.017,0.072c0.083-0.012,0.171-0.021,0.263-0.026
	c0.093-0.009,0.168-0.005,0.224,0.005c0.086,0.017,0.136,0.054,0.152,0.103c0.016,0.051,0.015,0.117-0.004,0.202l-0.52,2.452
	c-0.034,0.159-0.096,0.254-0.184,0.286c-0.089,0.03-0.262,0.024-0.521-0.021l-0.018,0.079l1.794,0.383l0.016-0.075
	c-0.236-0.058-0.393-0.114-0.473-0.17c-0.078-0.056-0.104-0.151-0.074-0.287l0.677-3.188C29.98,62.43,29.981,62.418,29.98,62.414
	L29.98,62.414z M33,64.911c-0.162,0.055-0.315,0.075-0.462,0.063c-0.319-0.029-0.532-0.157-0.634-0.392
	c-0.102-0.234-0.141-0.484-0.118-0.745c0.028-0.319,0.112-0.552,0.255-0.7c0.146-0.149,0.325-0.215,0.536-0.197
	c0.293,0.026,0.503,0.164,0.635,0.41c0.13,0.248,0.18,0.559,0.146,0.934c-0.007,0.072-0.018,0.166-0.036,0.28
	c-0.016,0.113-0.029,0.183-0.038,0.198C33.257,64.805,33.164,64.857,33,64.911L33,64.911z M33.695,63.362
	c-0.23-0.338-0.585-0.529-1.06-0.57c-0.398-0.036-0.738,0.061-1.015,0.287c-0.277,0.225-0.433,0.53-0.464,0.911
	c-0.027,0.3,0.057,0.57,0.251,0.804c0.197,0.237,0.478,0.371,0.846,0.402c0.092,0.009,0.195,0.005,0.311-0.005
	c0.218-0.019,0.413-0.072,0.581-0.16l0.12-0.061c-0.049,0.149-0.152,0.33-0.309,0.542c-0.156,0.212-0.355,0.396-0.601,0.561
	c-0.173,0.112-0.398,0.201-0.673,0.266c-0.153,0.038-0.343,0.066-0.572,0.09l0.023,0.112c0.361-0.01,0.663-0.036,0.904-0.086
	c0.431-0.088,0.795-0.247,1.092-0.478c0.254-0.201,0.456-0.438,0.603-0.711c0.147-0.268,0.234-0.541,0.257-0.815
	C34.027,64.063,33.928,63.701,33.695,63.362L33.695,63.362z M35.574,66.353c-0.201-0.115-0.362-0.17-0.487-0.167
	c-0.098,0.001-0.168,0.022-0.215,0.064c-0.044,0.04-0.067,0.089-0.065,0.143c0.001,0.145,0.112,0.243,0.329,0.295
	c0.131,0.032,0.302,0.047,0.515,0.043c0.522-0.009,0.951-0.15,1.286-0.424c0.338-0.273,0.503-0.612,0.497-1.008
	c-0.003-0.18-0.046-0.347-0.129-0.505c-0.083-0.161-0.202-0.302-0.361-0.426c-0.184-0.145-0.413-0.255-0.686-0.324
	c-0.164-0.043-0.425-0.086-0.782-0.13l0.268-0.479l1.258-0.025c0.046,0,0.087-0.002,0.127-0.005c0.039-0.006,0.062-0.018,0.07-0.034
	l0.243-0.506l-0.05-0.035c-0.061,0.055-0.111,0.092-0.148,0.113c-0.038,0.02-0.089,0.032-0.158,0.032l-1.395,0.022l-0.686,1.309
	c-0.004,0.009-0.008,0.02-0.013,0.03c-0.002,0.007-0.005,0.021-0.009,0.035c0.018,0.015,0.033,0.026,0.043,0.03
	c0.014,0.001,0.042,0.001,0.091,0c0.285-0.004,0.595,0.047,0.929,0.155c0.602,0.193,0.908,0.526,0.913,0.993
	c0.005,0.268-0.083,0.493-0.268,0.682c-0.182,0.186-0.398,0.281-0.646,0.286C35.934,66.52,35.778,66.465,35.574,66.353
	L35.574,66.353z M40.729,65.99c-0.11,0.133-0.288,0.215-0.535,0.252c-0.235,0.032-0.439-0.015-0.611-0.137
	c-0.171-0.127-0.273-0.308-0.306-0.552c-0.021-0.145,0-0.301,0.062-0.465c0.062-0.165,0.18-0.31,0.35-0.431
	c0.45,0.185,0.752,0.329,0.9,0.431c0.152,0.103,0.243,0.251,0.269,0.445C40.884,65.706,40.841,65.858,40.729,65.99L40.729,65.99z
	 M40.325,63.829c-0.066,0.092-0.191,0.21-0.376,0.358c-0.264-0.095-0.482-0.199-0.655-0.322c-0.17-0.124-0.268-0.27-0.292-0.438
	c-0.021-0.148,0.025-0.284,0.14-0.405c0.114-0.121,0.271-0.196,0.468-0.225c0.253-0.035,0.452-0.003,0.593,0.101
	c0.145,0.1,0.227,0.234,0.25,0.405C40.481,63.497,40.437,63.674,40.325,63.829L40.325,63.829z M38.854,64.194
	c0.118,0.101,0.333,0.224,0.643,0.374c-0.259,0.197-0.438,0.358-0.535,0.486c-0.15,0.198-0.209,0.41-0.177,0.638
	c0.038,0.266,0.191,0.461,0.463,0.587c0.274,0.127,0.585,0.167,0.936,0.117c0.39-0.055,0.688-0.187,0.895-0.396
	c0.209-0.207,0.295-0.438,0.26-0.697c-0.032-0.228-0.139-0.412-0.321-0.557c-0.179-0.145-0.469-0.306-0.865-0.479
	c0.251-0.159,0.429-0.298,0.536-0.411c0.187-0.192,0.263-0.396,0.234-0.605c-0.028-0.204-0.157-0.371-0.381-0.499
	c-0.227-0.125-0.513-0.166-0.858-0.116c-0.375,0.054-0.669,0.176-0.882,0.375c-0.211,0.197-0.3,0.414-0.266,0.65
	C38.565,63.867,38.67,64.044,38.854,64.194L38.854,64.194z M45.46,61.979l-0.008,0.004v1.197l-1.336,0.512l0.002,0.009l1.346,0.247
	l-0.016,1.228l0.011,0.005l0.814-1.068l1.319,0.248l0.007-0.012l-0.828-0.9l0.824-1.083l-0.003-0.008l-1.341,0.516L45.46,61.979
	L45.46,61.979z"/>
<rect x="76.291" y="44.496" class="primarycolor" width="137.559" height="0.853"/>
<path class="tertiarycolor" d="M89.362,19.542h-2.359c-0.34,1.115-0.726,2.359-1.155,3.733c-0.429,1.372-0.799,2.778-1.107,4.215h2.198
	c0.932-0.035,1.554-0.28,1.867-0.737c0.311-0.456,0.532-0.913,0.661-1.368c0.128-0.458,0.383-0.701,0.768-0.738
	c0.178,0.006,0.273,0.123,0.291,0.356c-0.017,0.19-0.176,0.675-0.477,1.454c-0.3,0.779-0.637,1.974-1.01,3.586
	c-0.128,0.681-0.236,1.2-0.326,1.559c-0.092,0.357-0.274,0.537-0.546,0.542c-0.231,0-0.35-0.227-0.355-0.68
	c0.044-0.419,0.086-1.034,0.13-1.842c0.01-0.396-0.085-0.668-0.288-0.82c-0.202-0.148-0.581-0.221-1.135-0.213H84.45
	c-0.075,0.329-0.23,0.904-0.468,1.729c-0.237,0.826-0.496,1.727-0.775,2.701c-0.281,0.976-0.523,1.855-0.729,2.635
	c-0.204,0.781-0.313,1.291-0.322,1.529c0.01,0.296,0.11,0.494,0.303,0.594c0.193,0.099,0.415,0.159,0.667,0.183
	c0.252,0.024,0.475,0.077,0.667,0.157c0.191,0.077,0.293,0.22,0.302,0.423c0.039,0.274-0.199,0.405-0.71,0.389
	c-0.228-0.006-0.522-0.027-0.884-0.064c-0.363-0.037-0.973-0.059-1.831-0.066c-0.888,0.008-1.577,0.029-2.064,0.066
	c-0.488,0.037-0.877,0.059-1.167,0.064c-0.404-0.027-0.599-0.168-0.582-0.42c0.009-0.245,0.113-0.394,0.311-0.444
	c0.199-0.052,0.441-0.086,0.723-0.104c0.269-0.023,0.524-0.107,0.768-0.251c0.243-0.145,0.418-0.405,0.524-0.783
	c0.463-1.867,0.956-3.743,1.479-5.632c0.526-1.887,1.024-3.638,1.494-5.249c0.47-1.612,0.853-2.938,1.153-3.978
	c0.298-1.038,0.453-1.644,0.462-1.813c-0.008-0.329-0.097-0.546-0.267-0.65c-0.169-0.106-0.371-0.17-0.604-0.19
	c-0.221-0.027-0.418-0.07-0.595-0.13c-0.175-0.059-0.268-0.167-0.278-0.322c-0.021-0.35,0.183-0.522,0.614-0.518
	c0.49,0.042,1.869,0.086,4.136,0.129c1.382-0.005,2.583-0.026,3.607-0.064c1.021-0.038,1.813-0.059,2.37-0.064
	c0.35,0.011,0.521,0.119,0.519,0.323c-0.012,0.127-0.096,0.432-0.255,0.911c-0.159,0.479-0.335,1.01-0.527,1.593
	c-0.19,0.583-0.34,1.094-0.447,1.535c-0.124,0.564-0.225,0.93-0.303,1.099c-0.079,0.168-0.17,0.244-0.279,0.225
	c-0.258,0.039-0.389-0.134-0.389-0.516v-1.907c0.003-0.896-0.137-1.486-0.418-1.772C90.373,19.648,89.943,19.518,89.362,19.542
	L89.362,19.542z M93.318,36.805c0.011-0.455,0.194-1.315,0.55-2.585c0.357-1.268,0.818-2.791,1.384-4.565
	c0.567-1.773,1.172-3.647,1.814-5.617c0.644-1.972,1.257-3.888,1.842-5.748c0.223-0.718,0.382-1.235,0.476-1.554
	c0.095-0.32,0.141-0.49,0.138-0.514c-0.016-0.177-0.113-0.275-0.291-0.291c-0.158,0.019-0.391,0.127-0.702,0.324
	c-0.311,0.195-0.821,0.369-1.526,0.517c-0.486,0.092-1.035,0.136-1.649,0.129c-0.415-0.005-0.714,0.024-0.897,0.087
	c-0.18,0.063-0.269,0.198-0.266,0.406c-0.043,0.236,0.14,0.355,0.549,0.361l0.646,0.033c0.293,0.02,0.468,0.077,0.521,0.173
	c0.054,0.095,0.075,0.21,0.06,0.343c-0.014,0.363-0.203,1.152-0.564,2.369c-0.362,1.219-0.811,2.66-1.346,4.327
	c-0.536,1.666-1.071,3.356-1.607,5.07c-0.536,1.71-0.985,3.244-1.346,4.596c-0.361,1.351-0.549,2.324-0.565,2.913
	c0.038,1.164,0.512,1.745,1.422,1.745c0.614-0.024,1.223-0.292,1.83-0.803c0.607-0.511,1.161-1.118,1.665-1.82
	c0.501-0.703,0.905-1.355,1.209-1.956c0.303-0.599,0.458-1,0.466-1.202c0-0.178-0.097-0.273-0.291-0.291
	c-0.145-0.016-0.275,0.114-0.387,0.391c-0.113,0.277-0.404,0.805-0.873,1.579c-0.362,0.566-0.705,1.041-1.029,1.429
	c-0.326,0.386-0.597,0.589-0.813,0.605C93.437,37.251,93.296,37.102,93.318,36.805L93.318,36.805z M100.809,35.448
	c0.005-0.918,0.142-1.988,0.412-3.206c0.271-1.22,0.65-2.415,1.14-3.588c0.487-1.171,1.061-2.146,1.72-2.92
	c0.658-0.777,1.377-1.178,2.157-1.207c0.716-0.012,1.271,0.22,1.665,0.694c0.393,0.474,0.592,1.255,0.597,2.342
	c-0.005,0.917-0.143,1.986-0.412,3.205c-0.271,1.22-0.649,2.417-1.139,3.588c-0.489,1.172-1.063,2.146-1.72,2.922
	c-0.659,0.774-1.377,1.177-2.157,1.207c-0.716,0.01-1.271-0.222-1.664-0.696S100.815,36.537,100.809,35.448L100.809,35.448z
	 M98.032,33.185c0.019,1.925,0.447,3.424,1.284,4.5c0.836,1.073,1.959,1.621,3.369,1.639c1.343-0.021,2.545-0.342,3.605-0.965
	c1.061-0.626,1.962-1.425,2.703-2.403c0.741-0.978,1.308-2.009,1.697-3.094c0.39-1.083,0.586-2.097,0.589-3.037
	c-0.021-1.923-0.447-3.423-1.285-4.5c-0.835-1.075-1.957-1.622-3.368-1.639c-1.344,0.02-2.545,0.342-3.605,0.966
	c-1.06,0.623-1.96,1.425-2.703,2.402c-0.742,0.979-1.308,2.009-1.697,3.092C98.23,31.231,98.034,32.243,98.032,33.185L98.032,33.185
	z M116.438,31.49c0.376-1.35,0.724-2.618,1.042-3.806c0.32-1.188,0.489-2.148,0.511-2.884c0.021-0.764-0.346-1.141-1.101-1.13
	c-0.563,0.021-1.112,0.26-1.646,0.715c-0.534,0.454-1.019,0.992-1.45,1.614c-0.432,0.623-0.775,1.195-1.032,1.719
	s-0.387,0.864-0.395,1.025c0.017,0.247,0.113,0.364,0.292,0.355c0.051,0.018,0.159-0.091,0.323-0.328
	c0.164-0.236,0.466-0.708,0.904-1.418c0.264-0.434,0.519-0.808,0.769-1.122c0.248-0.313,0.453-0.478,0.622-0.492
	c0.182-0.005,0.269,0.101,0.257,0.323c-0.008,0.272-0.13,0.851-0.362,1.738c-0.232,0.886-0.521,1.917-0.866,3.095
	c-0.345,1.176-0.688,2.339-1.032,3.483c-0.344,1.143-0.633,2.112-0.865,2.9c-0.232,0.789-0.354,1.24-0.364,1.352
	c-0.01,0.117,0.108,0.173,0.357,0.16h1.583c0.26,0.003,0.426-0.041,0.496-0.128s0.131-0.227,0.182-0.42
	c0.367-1.103,0.815-2.327,1.347-3.676c0.531-1.347,1.08-2.647,1.647-3.896c0.564-1.25,1.083-2.281,1.554-3.091
	c0.472-0.811,0.829-1.23,1.074-1.259c0.156-0.025,0.231,0.06,0.227,0.258c-0.043,0.334-0.087,0.701-0.129,1.1
	c-0.006,0.56,0.295,0.862,0.904,0.905c0.544-0.032,0.991-0.365,1.337-0.998c0.346-0.634,0.525-1.378,0.537-2.234
	c-0.006-0.606-0.109-1.041-0.311-1.3c-0.203-0.26-0.477-0.386-0.82-0.379c-0.679,0.025-1.337,0.419-1.972,1.182
	c-0.635,0.762-1.249,1.741-1.841,2.934c-0.594,1.194-1.164,2.449-1.712,3.768L116.438,31.49L116.438,31.49z M124.137,34.542
	c-0.2,0.615-0.366,1.226-0.501,1.834c-0.135,0.607-0.205,1.105-0.21,1.495c0.032,0.984,0.387,1.469,1.065,1.453
	c0.686-0.025,1.349-0.309,1.988-0.844c0.64-0.536,1.216-1.173,1.729-1.907c0.511-0.734,0.917-1.412,1.218-2.033
	c0.301-0.622,0.455-1.029,0.461-1.226c0-0.167-0.096-0.252-0.29-0.258c-0.086-0.021-0.204,0.118-0.351,0.416
	c-0.148,0.297-0.482,0.882-1.007,1.75c-0.558,0.875-0.983,1.44-1.28,1.694c-0.295,0.256-0.505,0.369-0.626,0.341
	c-0.167,0-0.253-0.13-0.258-0.389c0.019-0.36,0.202-1.074,0.556-2.142c0.352-1.068,0.758-2.262,1.221-3.585
	c0.462-1.322,0.869-2.545,1.222-3.669c0.352-1.125,0.537-1.923,0.556-2.397c-0.007-0.496-0.122-0.853-0.344-1.07
	c-0.221-0.217-0.504-0.325-0.852-0.319c-0.621,0.02-1.235,0.251-1.839,0.695c-0.604,0.442-1.155,0.975-1.651,1.594
	c-0.495,0.621-0.892,1.207-1.189,1.76c-0.298,0.551-0.449,0.947-0.458,1.186c0,0.221,0.098,0.328,0.291,0.322
	c0.148,0.008,0.296-0.145,0.444-0.46c0.148-0.316,0.473-0.84,0.978-1.574c0.382-0.542,0.691-0.922,0.928-1.14
	c0.238-0.219,0.436-0.325,0.591-0.316c0.205,0.017,0.312,0.146,0.323,0.389c-0.038,0.345-0.188,0.883-0.452,1.615L124.137,34.542
	L124.137,34.542z M128.271,20.551c0.003,0.383,0.104,0.708,0.304,0.974c0.199,0.266,0.486,0.405,0.86,0.416
	c0.47-0.015,0.886-0.259,1.242-0.732c0.358-0.47,0.548-1.077,0.566-1.82c-0.037-1.099-0.383-1.648-1.033-1.648
	c-0.505,0.024-0.949,0.307-1.333,0.848C128.495,19.13,128.293,19.785,128.271,20.551L128.271,20.551z M138.952,32.604
	c-0.149,0.511-0.322,1.107-0.522,1.783c-0.199,0.677-0.377,1.333-0.529,1.97c-0.153,0.636-0.233,1.153-0.242,1.546
	c0.011,0.567,0.135,0.949,0.377,1.148c0.24,0.196,0.535,0.288,0.884,0.273c0.651-0.026,1.266-0.313,1.843-0.854
	c0.577-0.54,1.089-1.173,1.533-1.899c0.446-0.727,0.795-1.381,1.05-1.961c0.254-0.583,0.383-0.928,0.389-1.036
	c-0.027-0.222-0.135-0.328-0.324-0.323c-0.093-0.006-0.213,0.145-0.354,0.457c-0.143,0.313-0.423,0.827-0.84,1.547
	c-0.764,1.298-1.304,1.964-1.615,2.003c-0.119-0.044-0.172-0.119-0.162-0.226c0.011-0.389,0.185-1.205,0.522-2.447
	c0.339-1.244,0.782-2.759,1.331-4.549c0.549-1.791,1.145-3.703,1.787-5.737c0.641-2.033,1.27-4.036,1.884-6.008
	c0.225-0.718,0.384-1.235,0.478-1.554c0.095-0.32,0.141-0.49,0.137-0.514c-0.016-0.177-0.112-0.275-0.29-0.291
	c-0.157,0.019-0.392,0.127-0.703,0.324c-0.312,0.195-0.819,0.369-1.527,0.517c-0.484,0.092-1.034,0.135-1.646,0.129
	c-0.405,0.004-0.661,0.052-0.769,0.146c-0.106,0.092-0.151,0.206-0.137,0.339c0.017,0.248,0.145,0.366,0.388,0.355
	c0.514,0.001,0.835,0.063,0.965,0.187c0.132,0.122,0.186,0.297,0.165,0.525c0.005,0.181-0.021,0.424-0.075,0.727
	c-0.056,0.303-0.17,0.74-0.345,1.308l-1.13,3.587c-0.426-0.226-0.964-0.355-1.615-0.387c-1.625,0.042-3.171,0.675-4.639,1.902
	c-1.468,1.225-2.669,2.791-3.604,4.693c-0.937,1.903-1.421,3.896-1.45,5.973c0.011,1.032,0.221,1.803,0.625,2.309
	c0.404,0.509,0.93,0.762,1.572,0.761c0.635-0.021,1.274-0.292,1.918-0.813c0.645-0.521,1.262-1.159,1.854-1.917
	c0.591-0.757,1.124-1.501,1.599-2.23c0.475-0.73,0.858-1.319,1.155-1.76H138.952L138.952,32.604z M141.019,25.689
	c-0.022,0.748-0.304,1.737-0.847,2.966c-0.545,1.232-1.214,2.482-2.012,3.756c-0.798,1.272-1.591,2.345-2.375,3.221
	c-0.785,0.873-1.433,1.33-1.938,1.366c-0.594-0.027-0.896-0.425-0.906-1.195c0.013-0.911,0.23-1.994,0.651-3.247
	c0.422-1.255,0.972-2.492,1.65-3.712c0.68-1.221,1.411-2.239,2.196-3.05c0.786-0.813,1.548-1.236,2.287-1.267
	C140.626,24.542,141.058,24.93,141.019,25.689L141.019,25.689z M155.395,26.099c-0.011,0.359-0.196,0.961-0.562,1.804
	c-0.362,0.844-0.837,1.792-1.425,2.846c-0.588,1.054-1.225,2.072-1.907,3.058c-0.686,0.986-1.355,1.799-2.008,2.44
	c-0.653,0.644-1.229,0.975-1.725,0.999c-0.603-0.044-0.914-0.441-0.938-1.195c0.013-0.864,0.233-1.912,0.665-3.146
	s1.001-2.458,1.715-3.675c0.712-1.219,1.495-2.236,2.351-3.052c0.856-0.817,1.713-1.242,2.573-1.273
	c0.378-0.001,0.68,0.096,0.908,0.293C155.271,25.396,155.389,25.697,155.395,26.099L155.395,26.099z M156.977,23.676
	c-0.29-0.007-0.499,0.071-0.626,0.234c-0.125,0.163-0.261,0.452-0.406,0.865c-0.561-0.448-1.313-0.684-2.264-0.712
	c-1.05,0.021-2.135,0.408-3.248,1.158c-1.116,0.752-2.152,1.741-3.116,2.97c-0.964,1.229-1.743,2.569-2.341,4.024
	c-0.597,1.453-0.904,2.895-0.923,4.322c0.002,0.82,0.177,1.486,0.524,1.993c0.35,0.507,0.863,0.769,1.544,0.783
	c0.794-0.02,1.554-0.296,2.281-0.826s1.405-1.189,2.036-1.98c0.631-0.79,1.196-1.586,1.702-2.386
	c0.507-0.801,0.933-1.483,1.281-2.044l0.066,0.064c-0.252,0.943-0.523,1.933-0.816,2.974c-0.291,1.039-0.45,1.997-0.476,2.875
	c0.004,0.394,0.1,0.712,0.281,0.952c0.184,0.242,0.423,0.365,0.721,0.372c0.689-0.024,1.333-0.299,1.931-0.823
	c0.596-0.523,1.119-1.144,1.569-1.863c0.452-0.718,0.802-1.38,1.057-1.989c0.252-0.607,0.381-1.01,0.387-1.205
	c-0.006-0.14-0.093-0.215-0.26-0.225c-0.093-0.014-0.182,0.078-0.263,0.274c-0.081,0.196-0.273,0.579-0.577,1.146
	c-0.396,0.707-0.752,1.273-1.067,1.7c-0.313,0.428-0.539,0.647-0.678,0.66c-0.204,0.025-0.312-0.093-0.323-0.358
	c0.01-0.266,0.142-0.845,0.396-1.734c0.256-0.893,0.57-1.933,0.948-3.122c0.375-1.19,0.751-2.366,1.127-3.526
	c0.376-1.162,0.691-2.146,0.945-2.952c0.255-0.806,0.388-1.271,0.397-1.396c0.037-0.157-0.134-0.231-0.518-0.226H156.977
	L156.977,23.676z M169.389,18.56c-0.484,0.011-0.71-0.107-0.678-0.355c0.007-0.519-0.008-0.862-0.045-1.03
	c-0.036-0.167-0.141-0.244-0.312-0.23c-0.21,0.005-0.37,0.156-0.483,0.453c-0.072,0.186-0.211,0.583-0.413,1.188
	c-0.202,0.604-0.419,1.274-0.653,2.011c-0.235,0.734-0.436,1.389-0.606,1.962c-0.168,0.575-0.258,0.921-0.268,1.042
	c0.019,0.244,0.146,0.373,0.389,0.389c0.159-0.023,0.322-0.243,0.491-0.658c0.171-0.415,0.362-0.888,0.578-1.419
	c0.217-0.531,0.473-0.98,0.773-1.347c0.361-0.417,0.809-0.714,1.341-0.897c0.532-0.182,1.106-0.271,1.728-0.267
	c0.458-0.011,0.771,0.01,0.937,0.064c-0.471,1.69-0.999,3.581-1.58,5.668c-0.581,2.09-1.16,4.188-1.738,6.294
	c-0.578,2.107-1.098,4.032-1.56,5.775c-0.074,0.268-0.23,0.453-0.47,0.553c-0.236,0.103-0.489,0.166-0.758,0.19
	c-0.282,0.029-0.525,0.085-0.723,0.175c-0.198,0.087-0.303,0.233-0.312,0.439c-0.006,0.232,0.166,0.351,0.517,0.355
	c0.195-0.005,0.514-0.026,0.953-0.064c0.44-0.037,1.08-0.059,1.924-0.064c0.94,0.006,1.626,0.027,2.05,0.064
	c0.427,0.038,0.755,0.06,0.985,0.064c0.317-0.001,0.532-0.038,0.647-0.112s0.168-0.177,0.161-0.308
	c-0.009-0.188-0.104-0.321-0.286-0.395c-0.184-0.077-0.4-0.126-0.65-0.155c-0.238-0.021-0.451-0.068-0.639-0.142
	c-0.189-0.072-0.287-0.241-0.299-0.504c0.014-0.365,0.195-1.234,0.542-2.605c0.347-1.372,0.78-2.991,1.296-4.857
	c0.516-1.869,1.036-3.73,1.556-5.587c0.521-1.855,0.964-3.452,1.323-4.787c0.106-0.018,0.227-0.031,0.364-0.044
	c0.137-0.013,0.34-0.02,0.606-0.02c0.628-0.019,1.147,0.035,1.559,0.161c0.411,0.127,0.624,0.44,0.638,0.938
	c-0.004,0.236-0.038,0.588-0.102,1.059c-0.062,0.469-0.124,0.931-0.186,1.382c-0.063,0.452-0.097,0.769-0.1,0.952
	c0.011,0.285,0.119,0.425,0.321,0.42c0.068,0.013,0.159-0.047,0.271-0.179c0.113-0.131,0.228-0.417,0.345-0.854
	c0.435-1.707,0.815-3.084,1.139-4.132c0.322-1.048,0.493-1.61,0.509-1.684c-0.006-0.189-0.123-0.295-0.355-0.324
	c-0.177,0.019-0.311,0.141-0.401,0.368c-0.09,0.23-0.235,0.458-0.438,0.687c-0.2,0.227-0.558,0.35-1.068,0.368H169.389
	L169.389,18.56z M186.028,25.947c0.017,0.826-0.145,1.652-0.485,2.479c-0.34,0.824-0.958,1.542-1.85,2.153
	c-0.895,0.611-2.161,1.006-3.804,1.185c0.178-0.784,0.454-1.63,0.825-2.536c0.371-0.906,0.84-1.816,1.404-2.73
	c0.499-0.775,0.972-1.302,1.417-1.579c0.447-0.277,0.878-0.409,1.296-0.392c0.334,0,0.614,0.119,0.841,0.359
	C185.899,25.125,186.02,25.478,186.028,25.947L186.028,25.947z M188.807,26.918c-0.001-0.928-0.296-1.691-0.889-2.294
	c-0.59-0.604-1.468-0.916-2.632-0.937c-1.577,0.032-3.045,0.563-4.406,1.588c-1.36,1.025-2.463,2.346-3.307,3.965
	c-0.843,1.618-1.277,3.331-1.303,5.142c0.012,1.396,0.377,2.563,1.096,3.501c0.718,0.94,1.721,1.421,3.009,1.442
	c1.06-0.025,2.003-0.297,2.83-0.813s1.527-1.127,2.102-1.832c0.572-0.706,1.009-1.357,1.306-1.949
	c0.298-0.594,0.448-0.98,0.449-1.158c-0.02-0.222-0.14-0.328-0.354-0.323c-0.124-0.018-0.254,0.107-0.383,0.371
	c-0.131,0.267-0.477,0.778-1.038,1.535c-0.49,0.665-1.046,1.218-1.672,1.665c-0.627,0.446-1.297,0.677-2.013,0.695
	c-0.635-0.001-1.132-0.267-1.489-0.796c-0.357-0.53-0.539-1.32-0.545-2.371c0.026-0.623,0.06-1.067,0.097-1.333
	c0.036-0.267,0.1-0.405,0.193-0.413c0.24-0.022,0.617-0.062,1.133-0.124c0.515-0.062,1.085-0.148,1.707-0.26
	c0.625-0.111,1.217-0.252,1.78-0.424c1.241-0.364,2.266-0.945,3.073-1.737C188.36,29.266,188.778,28.219,188.807,26.918
	L188.807,26.918z M188.62,34.025c0.007,1.662,0.363,2.958,1.071,3.884c0.705,0.93,1.716,1.399,3.03,1.415
	c1.038-0.022,1.957-0.28,2.761-0.773c0.805-0.493,1.484-1.086,2.039-1.778c0.555-0.693,0.977-1.351,1.263-1.975
	c0.286-0.622,0.433-1.072,0.434-1.354c0.011-0.188-0.105-0.296-0.355-0.323c-0.2,0.019-0.406,0.303-0.621,0.852
	c-0.217,0.549-0.698,1.245-1.446,2.087c-0.941,0.953-1.868,1.438-2.779,1.455c-0.691,0.001-1.241-0.245-1.655-0.74
	c-0.415-0.494-0.628-1.25-0.639-2.264c0.007-0.97,0.152-2.021,0.441-3.155c0.286-1.137,0.666-2.221,1.142-3.256
	c0.476-1.033,1.003-1.881,1.579-2.544c0.576-0.664,1.161-1.007,1.749-1.029c0.753-0.012,1.121,0.657,1.098,2.003
	c0.01,0.548,0.138,0.955,0.381,1.22c0.244,0.265,0.547,0.397,0.913,0.395c0.555-0.006,0.995-0.187,1.316-0.54
	c0.321-0.354,0.487-0.842,0.492-1.463c0.006-0.695-0.249-1.274-0.763-1.737c-0.516-0.461-1.326-0.701-2.436-0.718
	c-1.688,0.042-3.209,0.59-4.563,1.647c-1.355,1.056-2.43,2.369-3.228,3.943S188.64,32.433,188.62,34.025L188.62,34.025z
	 M210.7,26.884c-0.058,0.232-0.222,0.511-0.318,0.793l-2.78,7.755c-0.375,1.066-0.56,1.906-0.549,2.52
	c0.011,0.455,0.144,0.811,0.4,1.065c0.256,0.254,0.576,0.383,0.957,0.389c0.639-0.026,1.275-0.299,1.91-0.821
	c0.637-0.521,1.22-1.141,1.749-1.861c0.529-0.719,0.956-1.389,1.274-2.007c0.321-0.618,0.484-1.037,0.495-1.256
	c-0.005-0.189-0.124-0.295-0.356-0.323c-0.104-0.008-0.209,0.119-0.312,0.383c-0.1,0.264-0.342,0.707-0.723,1.329
	c-0.408,0.658-0.787,1.191-1.143,1.599c-0.354,0.407-0.662,0.617-0.924,0.63c-0.264-0.026-0.383-0.2-0.356-0.518
	c0.018-0.4,0.193-1.084,0.524-2.048c0.333-0.965,0.719-2.029,1.157-3.194c0.437-1.165,0.821-2.249,1.153-3.254
	c0.293-0.882,0.61-1.694,0.545-2.21c-0.006-0.337-0.11-0.721-0.275-1.012c-0.438-0.772-1.207-1.139-2.051-1.158
	c-0.635,0.02-1.283,0.3-1.945,0.843c-0.661,0.543-1.301,1.227-1.919,2.054c-0.619,0.825-1.179,1.672-1.683,2.542
	s-0.917,1.64-1.302,2.25l4.038-13.086c0.224-0.718,0.383-1.235,0.477-1.554c0.095-0.32,0.14-0.49,0.138-0.514
	c-0.017-0.177-0.112-0.275-0.29-0.291c-0.176,0.018-0.399,0.121-0.671,0.313c-0.272,0.19-0.609,0.366-1.01,0.528
	c-0.45,0.159-0.892,0.276-1.329,0.347s-0.791,0.107-1.062,0.104c-0.392,0.004-0.644,0.047-0.757,0.13
	c-0.112,0.083-0.161,0.192-0.149,0.323c0.006,0.142,0.052,0.239,0.135,0.287c0.081,0.05,0.167,0.072,0.254,0.068l0.809,0.098
	c0.349,0.021,0.521,0.204,0.517,0.548c-0.028,0.292-0.104,0.647-0.227,1.066l-5.008,17.415c-0.168,0.636-0.252,1.046-0.259,1.228
	c-0.031,0.27,0.097,0.409,0.389,0.421h1.162c0.311,0.021,0.524-0.044,0.643-0.191c0.116-0.148,0.274-0.511,0.47-1.082
	c0.195-0.572,0.568-1.483,1.116-2.732c0.333-0.746,0.762-1.635,1.287-2.667c0.524-1.035,1.092-2.055,1.703-3.065
	c0.61-1.008,1.209-1.85,1.8-2.524c0.588-0.674,1.113-1.024,1.575-1.05C210.444,25.49,211.149,25.762,210.7,26.884L210.7,26.884z
	 M83.267,55.024c0,1.721-0.641,3.011-2.333,3.011c-1.785,0-2.368-1.2-2.368-3.021v-2.445c0-1.176,0.023-1.369,0.7-1.425l0.279-0.022
	c0.07-0.046,0.047-0.238-0.023-0.272c-0.572,0.022-0.957,0.034-1.435,0.034c-0.467,0-0.863-0.012-1.447-0.034
	c-0.069,0.034-0.093,0.227-0.022,0.272l0.291,0.022c0.677,0.056,0.7,0.249,0.7,1.425v2.671c0,1.347,0.292,2.173,0.911,2.672
	c0.571,0.476,1.376,0.621,2.181,0.621c0.864,0,1.727-0.294,2.229-0.825c0.653-0.681,0.816-1.721,0.816-2.704v-1.279
	c0-0.634,0-1.937,0.164-2.309c0.07-0.147,0.292-0.25,0.583-0.271l0.28-0.022c0.059-0.067,0.07-0.215-0.023-0.272
	c-0.42,0.022-0.734,0.034-1.225,0.034c-0.454,0-0.887-0.012-1.33-0.034c-0.07,0.046-0.093,0.192-0.023,0.272l0.292,0.022
	c0.292,0.021,0.501,0.102,0.583,0.236c0.199,0.341,0.221,1.643,0.221,2.344V55.024z M93.655,53.724c0-0.521-0.024-1.924,0.178-2.331
	c0.048-0.092,0.286-0.182,0.667-0.237l0.167-0.023c0.071-0.067,0.071-0.226-0.024-0.283c-0.404,0.022-0.713,0.034-1.225,0.034
	c-0.453,0-0.857-0.012-1.405-0.034c-0.095,0.034-0.106,0.216-0.023,0.283l0.202,0.023c0.476,0.056,0.667,0.123,0.738,0.225
	c0.226,0.341,0.238,1.812,0.238,2.344v2.421c0,0.238,0,0.419-0.047,0.476h-0.024c-0.559-0.544-1.142-1.177-1.964-2.048l-1.154-1.233
	c-0.394-0.418-1.797-1.913-2.035-2.49c-0.155,0.022-0.357,0.034-0.548,0.034c-0.214,0-0.845,0-1.345-0.034
	c-0.095,0.046-0.095,0.216-0.024,0.283l0.203,0.023c0.285,0.034,0.571,0.112,0.737,0.271c0.25,0.261,0.262,0.499,0.262,0.815v3.271
	c0,0.542,0.012,1.923-0.155,2.331c-0.059,0.124-0.25,0.192-0.523,0.226l-0.32,0.035c-0.072,0.067-0.06,0.226,0.023,0.283
	c0.417-0.022,0.738-0.035,1.238-0.035c0.44,0,0.857,0.013,1.392,0.035c0.084-0.058,0.095-0.193,0.024-0.283l-0.369-0.035
	c-0.297-0.022-0.535-0.09-0.606-0.214c-0.203-0.341-0.214-1.811-0.214-2.343v-2.467c0-0.341,0.012-0.602,0.06-0.735H87.8
	c0.249,0.249,1.059,1.176,1.38,1.527l2.761,2.986c1.036,1.121,1.381,1.518,1.523,1.709c0.131,0,0.202-0.057,0.226-0.124
	c-0.035-0.295-0.035-1.642-0.035-1.979V53.724z M97.848,56.632c0,1.199-0.023,1.357-0.711,1.437l-0.292,0.035
	c-0.07,0.067-0.046,0.248,0.023,0.283c0.583-0.022,0.979-0.035,1.469-0.035c0.467,0,0.865,0.013,1.448,0.035
	c0.07-0.035,0.092-0.239,0.023-0.283l-0.292-0.035c-0.688-0.079-0.711-0.237-0.711-1.437v-4.029c0-1.199,0.024-1.392,0.711-1.447
	l0.292-0.023c0.069-0.045,0.047-0.249-0.023-0.283c-0.583,0.022-0.98,0.034-1.448,0.034c-0.49,0-0.887-0.012-1.469-0.034
	c-0.07,0.034-0.093,0.238-0.023,0.283l0.292,0.023c0.688,0.056,0.711,0.248,0.711,1.447V56.632z M105.035,56.993
	c0.199,0.477,0.408,1.03,0.536,1.506c0.059,0.022,0.117,0.033,0.176,0.033c0.046,0,0.093-0.011,0.127-0.033
	c0.199-0.6,0.747-1.913,1.213-2.955l0.63-1.391c0.525-1.154,0.979-2.071,1.307-2.603c0.151-0.236,0.326-0.374,0.606-0.396
	l0.351-0.023c0.058-0.057,0.058-0.237-0.023-0.283c-0.386,0.022-0.747,0.034-1.132,0.034c-0.443,0-0.887-0.012-1.214-0.034
	c-0.082,0.046-0.104,0.216-0.023,0.283l0.209,0.023c0.409,0.044,0.525,0.135,0.525,0.215c0,0.079-0.013,0.203-0.105,0.441
	c-0.198,0.485-0.746,1.764-1.085,2.534c-0.268,0.601-0.758,1.767-1.12,2.513c-0.583-1.29-1.121-2.593-1.657-3.904
	c-0.362-0.86-0.56-1.473-0.583-1.584c0.011-0.092,0.104-0.159,0.548-0.215l0.175-0.023c0.082-0.067,0.058-0.237-0.023-0.283
	c-0.49,0.022-0.898,0.034-1.411,0.034c-0.502,0-0.875-0.012-1.214-0.034c-0.093,0.058-0.104,0.216-0.023,0.283l0.21,0.023
	c0.501,0.056,0.676,0.294,0.945,0.927L105.035,56.993z M112.425,56.654c0,1.188-0.065,1.358-0.811,1.414l-0.431,0.035
	c-0.079,0.067-0.053,0.248,0.025,0.283c0.772-0.022,1.216-0.035,1.777-0.035h1.177c1.161,0,2.325,0.013,3.501,0.035
	c0.17-0.306,0.496-1.178,0.589-1.574c-0.053-0.102-0.236-0.135-0.327-0.078c-0.34,0.588-0.692,0.983-0.928,1.097
	c-0.287,0.126-0.667,0.17-1.674,0.17c-1.149,0-1.423-0.124-1.58-0.262c-0.209-0.191-0.249-0.575-0.249-1.176v-1.595
	c0-0.296,0.04-0.306,0.432-0.306h0.759c0.509,0,0.823,0.01,1.006,0.056c0.261,0.057,0.353,0.228,0.405,0.431l0.118,0.44
	c0.063,0.069,0.287,0.069,0.339-0.011c0-0.249-0.052-0.679-0.052-1.087c0-0.43,0.052-0.871,0.052-1.143
	c-0.052-0.079-0.275-0.079-0.339-0.011l-0.105,0.463c-0.065,0.283-0.157,0.352-0.313,0.398c-0.157,0.043-0.563,0.065-1.11,0.065
	h-0.759c-0.392,0-0.432,0-0.432-0.316v-2.263c0-0.43,0-0.452,0.393-0.452h0.94c0.575,0,0.993,0.011,1.269,0.066
	c0.679,0.148,0.797,0.545,0.993,1.076c0.065,0.066,0.273,0.045,0.325-0.022c-0.052-0.499-0.13-1.313-0.208-1.506
	c-0.157,0.034-0.929,0.034-1.764,0.034h-2.457c-0.536,0-0.979-0.01-1.543-0.034c-0.078,0.034-0.104,0.238-0.025,0.283l0.21,0.023
	c0.771,0.079,0.797,0.248,0.797,1.425V56.654z M121.052,56.654c0,1.188-0.023,1.335-0.699,1.414l-0.292,0.035
	c-0.07,0.079-0.047,0.248,0.022,0.283c0.55-0.022,0.969-0.035,1.459-0.035c0.467,0,0.863,0.013,1.39,0.035
	c0.067-0.035,0.093-0.227,0.021-0.283l-0.245-0.035c-0.676-0.09-0.699-0.226-0.699-1.414v-1.426c0-0.237,0.023-0.25,0.548-0.25
	c0.468,0,0.654,0.114,0.829,0.362c0.362,0.51,0.84,1.291,1.144,1.709c0.828,1.144,1.423,1.426,2.414,1.426
	c0.222,0,0.408-0.021,0.514-0.056c0.058-0.046,0.047-0.136-0.013-0.157c-0.313-0.024-0.605-0.149-0.804-0.318
	c-0.794-0.646-1.413-1.55-2.345-3.009c-0.06-0.092-0.116-0.205-0.06-0.272c0.584-0.227,1.46-0.814,1.46-1.891
	c0-0.792-0.409-1.301-0.969-1.583c-0.537-0.283-1.226-0.341-1.948-0.341c-1.145,0-1.949,0.034-2.602,0.091
	c-0.095,0.045-0.095,0.226-0.014,0.282l0.375,0.046c0.479,0.057,0.513,0.249,0.513,1.324V56.654z M122.009,51.563
	c0-0.318,0.035-0.364,0.758-0.364c1.295,0,1.868,0.85,1.868,1.744c0,0.77-0.269,1.164-0.584,1.402
	c-0.339,0.249-0.782,0.294-1.202,0.294c-0.596,0-0.771-0.022-0.805-0.056c-0.035-0.046-0.035-0.17-0.035-0.374V51.563z
	 M133.253,56.439c0-1.076-0.76-1.731-1.53-2.174l-0.98-0.565c-0.453-0.26-1.041-0.735-1.041-1.391c0-0.522,0.257-1.256,1.458-1.256
	c1.176,0,1.506,0.733,1.666,1.278c0.061,0.066,0.257,0.034,0.306-0.035c0-0.475-0.111-1.107-0.22-1.381
	c-0.099,0-0.27-0.021-0.43-0.067c-0.317-0.078-0.759-0.146-1.14-0.146c-1.592,0-2.499,0.871-2.499,1.946
	c0,0.927,0.711,1.573,1.323,1.946l1.165,0.701c0.893,0.531,1.004,1.087,1.004,1.585c0,0.678-0.502,1.302-1.531,1.302
	c-1.421,0-1.924-1.109-2.107-1.687c-0.049-0.067-0.231-0.045-0.294,0.034c0.025,0.531,0.185,1.334,0.331,1.583
	c0.232,0.125,0.882,0.419,1.911,0.419C132.237,58.532,133.253,57.684,133.253,56.439z M136.73,56.632
	c0,1.199-0.022,1.357-0.711,1.437l-0.291,0.035c-0.07,0.067-0.047,0.248,0.022,0.283c0.583-0.022,0.979-0.035,1.47-0.035
	c0.468,0,0.864,0.013,1.447,0.035c0.069-0.035,0.094-0.239,0.023-0.283l-0.291-0.035c-0.688-0.079-0.712-0.237-0.712-1.437v-4.029
	c0-1.199,0.023-1.392,0.712-1.447l0.291-0.023c0.07-0.045,0.046-0.249-0.023-0.283c-0.583,0.022-0.979,0.034-1.447,0.034
	c-0.49,0-0.887-0.012-1.47-0.034c-0.069,0.034-0.093,0.238-0.022,0.283l0.291,0.023c0.688,0.056,0.711,0.248,0.711,1.447V56.632z
	 M144.524,51.619c0-0.374-0.011-0.385,0.338-0.385h0.829c0.641,0,1.085,0.09,1.353,0.282c0.175,0.125,0.257,0.544,0.293,0.826
	c0.058,0.068,0.256,0.068,0.303-0.023c-0.034-0.339,0.047-1.255,0.175-1.72c-0.021-0.045-0.151-0.056-0.209-0.032
	c-0.176,0.293-0.281,0.315-0.911,0.315h-4.725c-0.536,0-0.922,0.012-0.991-0.351c-0.035-0.033-0.187-0.023-0.222,0
	c-0.083,0.452-0.257,1.177-0.443,1.686c0.046,0.092,0.209,0.148,0.303,0.079c0.129-0.283,0.244-0.531,0.524-0.78
	c0.293-0.26,0.934-0.282,1.436-0.282h0.643c0.35,0,0.35,0.011,0.35,0.362v5.058c0,1.188-0.059,1.358-0.725,1.414l-0.419,0.035
	c-0.094,0.057-0.07,0.248,0,0.283c0.746-0.022,1.155-0.035,1.621-0.035c0.468,0,0.864,0.013,1.528,0.035
	c0.07-0.035,0.095-0.239,0.024-0.283l-0.373-0.035c-0.677-0.056-0.701-0.226-0.701-1.414V51.619z M153.137,56.044
	c0-0.872,0.041-0.973,0.615-1.834l0.823-1.232c0.653-0.974,1.045-1.688,1.725-1.788l0.365-0.058
	c0.093-0.067,0.079-0.226-0.025-0.283c-0.444,0.022-0.811,0.034-1.216,0.034c-0.403,0-0.784-0.012-1.254-0.034
	c-0.104,0.046-0.117,0.205-0.026,0.283l0.235,0.023c0.313,0.034,0.549,0.112,0.549,0.181c0,0.136-0.483,0.905-0.85,1.493
	c-0.392,0.656-0.823,1.313-1.228,1.912c-0.51-0.78-0.993-1.675-1.477-2.511c-0.066-0.114-0.405-0.759-0.405-0.872
	c0-0.091,0.091-0.147,0.549-0.203l0.17-0.023c0.078-0.067,0.078-0.249-0.04-0.283c-0.325,0.022-0.797,0.034-1.398,0.034
	c-0.627,0-1.097-0.012-1.515-0.034c-0.091,0.046-0.104,0.205-0.026,0.283l0.365,0.058c0.393,0.056,0.589,0.111,1.033,0.859
	l1.541,2.603c0.38,0.634,0.419,0.78,0.419,1.402v0.578c0,1.211-0.026,1.369-0.784,1.437l-0.405,0.035
	c-0.078,0.067-0.053,0.248,0.026,0.283c0.692-0.022,1.163-0.035,1.712-0.035c0.521,0,0.966,0.013,1.777,0.035
	c0.078-0.035,0.104-0.216,0.026-0.283l-0.496-0.035c-0.706-0.045-0.786-0.226-0.786-1.437V56.044z M166.341,58.532
	c2.253,0,4.049-1.663,4.049-3.948c0-1.992-1.354-3.882-4.049-3.882c-2.402,0-4.152,1.731-4.152,3.995
	C162.188,56.734,163.751,58.532,166.341,58.532z M166.493,58.183c-2.299,0-3.138-2.173-3.138-3.848c0-2.479,1.574-3.281,2.787-3.281
	c2.229,0,3.081,2.013,3.081,3.882C169.224,57.164,167.893,58.183,166.493,58.183z M179.901,53.724c0-0.521-0.024-1.924,0.179-2.331
	c0.047-0.092,0.285-0.182,0.665-0.237l0.167-0.023c0.072-0.067,0.072-0.226-0.024-0.283c-0.403,0.022-0.714,0.034-1.225,0.034
	c-0.452,0-0.857-0.012-1.404-0.034c-0.096,0.034-0.106,0.216-0.023,0.283l0.202,0.023c0.477,0.056,0.666,0.123,0.738,0.225
	c0.227,0.341,0.237,1.812,0.237,2.344v2.421c0,0.238,0,0.419-0.049,0.476h-0.022c-0.559-0.544-1.143-1.177-1.965-2.048l-1.153-1.233
	c-0.393-0.418-1.797-1.913-2.035-2.49c-0.154,0.022-0.357,0.034-0.547,0.034c-0.215,0-0.845,0-1.344-0.034
	c-0.097,0.046-0.097,0.216-0.025,0.283l0.203,0.023c0.286,0.034,0.571,0.112,0.737,0.271c0.25,0.261,0.262,0.499,0.262,0.815v3.271
	c0,0.542,0.013,1.923-0.155,2.331c-0.059,0.124-0.249,0.192-0.522,0.226l-0.321,0.035c-0.071,0.067-0.06,0.226,0.023,0.283
	c0.416-0.022,0.738-0.035,1.237-0.035c0.441,0,0.856,0.013,1.392,0.035c0.084-0.058,0.097-0.193,0.024-0.283l-0.368-0.035
	c-0.297-0.022-0.536-0.09-0.606-0.214c-0.203-0.341-0.215-1.811-0.215-2.343v-2.467c0-0.341,0.012-0.602,0.059-0.735h0.024
	c0.25,0.249,1.06,1.176,1.381,1.527l2.761,2.986c1.035,1.121,1.38,1.518,1.523,1.709c0.13,0,0.201-0.057,0.226-0.124
	c-0.035-0.295-0.035-1.642-0.035-1.979V53.724z M183.962,56.654c0,1.188-0.025,1.347-0.748,1.414l-0.376,0.035
	c-0.074,0.067-0.049,0.248,0.025,0.283c0.699-0.022,1.099-0.035,1.621-0.035h1.149c1.286,0,2.473,0.013,3.109,0.035
	c0.175-0.306,0.523-1.462,0.523-1.585c0-0.08-0.236-0.124-0.311-0.067c-0.25,0.576-0.575,0.983-0.825,1.12
	c-0.2,0.103-0.462,0.146-1.522,0.146c-0.987,0-1.224-0.137-1.361-0.262c-0.225-0.214-0.261-0.508-0.261-1.221V52.58
	c0-1.188,0.024-1.369,0.761-1.425l0.299-0.023c0.076-0.045,0.05-0.249-0.024-0.283c-0.625,0.022-1.049,0.034-1.536,0.034
	c-0.499,0-0.923-0.012-1.622-0.034c-0.074,0.034-0.1,0.238-0.025,0.283l0.312,0.023c0.787,0.056,0.813,0.237,0.813,1.425V56.654z
	 M192.133,56.632c0,1.199-0.022,1.357-0.711,1.437l-0.292,0.035c-0.07,0.067-0.046,0.248,0.023,0.283
	c0.583-0.022,0.979-0.035,1.47-0.035c0.468,0,0.863,0.013,1.446,0.035c0.069-0.035,0.093-0.239,0.023-0.283l-0.292-0.035
	c-0.688-0.079-0.71-0.237-0.71-1.437v-4.029c0-1.199,0.022-1.392,0.71-1.447l0.292-0.023c0.069-0.045,0.046-0.249-0.023-0.283
	c-0.583,0.022-0.979,0.034-1.446,0.034c-0.49,0-0.887-0.012-1.47-0.034c-0.069,0.034-0.094,0.238-0.023,0.283l0.292,0.023
	c0.688,0.056,0.711,0.248,0.711,1.447V56.632z M203.559,53.724c0-0.521-0.024-1.924,0.179-2.331
	c0.048-0.092,0.285-0.182,0.665-0.237l0.168-0.023c0.071-0.067,0.071-0.226-0.025-0.283c-0.402,0.022-0.713,0.034-1.225,0.034
	c-0.451,0-0.856-0.012-1.404-0.034c-0.095,0.034-0.106,0.216-0.023,0.283l0.202,0.023c0.477,0.056,0.666,0.123,0.738,0.225
	c0.227,0.341,0.238,1.812,0.238,2.344v2.421c0,0.238,0,0.419-0.048,0.476h-0.024c-0.559-0.544-1.142-1.177-1.964-2.048l-1.154-1.233
	c-0.393-0.418-1.796-1.913-2.034-2.49c-0.154,0.022-0.357,0.034-0.547,0.034c-0.215,0-0.845,0-1.346-0.034
	c-0.096,0.046-0.096,0.216-0.023,0.283l0.203,0.023c0.284,0.034,0.57,0.112,0.737,0.271c0.25,0.261,0.262,0.499,0.262,0.815v3.271
	c0,0.542,0.012,1.923-0.155,2.331c-0.059,0.124-0.249,0.192-0.522,0.226l-0.321,0.035c-0.072,0.067-0.061,0.226,0.022,0.283
	c0.418-0.022,0.739-0.035,1.238-0.035c0.44,0,0.856,0.013,1.392,0.035c0.084-0.058,0.096-0.193,0.025-0.283l-0.37-0.035
	c-0.298-0.022-0.535-0.09-0.606-0.214c-0.203-0.341-0.214-1.811-0.214-2.343v-2.467c0-0.341,0.011-0.602,0.059-0.735h0.023
	c0.25,0.249,1.06,1.176,1.381,1.527l2.761,2.986c1.035,1.121,1.381,1.518,1.523,1.709c0.131,0,0.201-0.057,0.227-0.124
	c-0.036-0.295-0.036-1.642-0.036-1.979V53.724z M207.694,56.654c0,1.188-0.066,1.358-0.811,1.414l-0.432,0.035
	c-0.077,0.067-0.052,0.248,0.027,0.283c0.771-0.022,1.215-0.035,1.776-0.035h1.176c1.164,0,2.325,0.013,3.502,0.035
	c0.169-0.306,0.497-1.178,0.588-1.574c-0.052-0.102-0.235-0.135-0.326-0.078c-0.341,0.588-0.693,0.983-0.928,1.097
	c-0.288,0.126-0.667,0.17-1.672,0.17c-1.15,0-1.426-0.124-1.581-0.262c-0.21-0.191-0.248-0.575-0.248-1.176v-1.595
	c0-0.296,0.038-0.306,0.43-0.306h0.759c0.509,0,0.822,0.01,1.005,0.056c0.262,0.057,0.353,0.228,0.405,0.431l0.118,0.44
	c0.065,0.069,0.288,0.069,0.34-0.011c0-0.249-0.052-0.679-0.052-1.087c0-0.43,0.052-0.871,0.052-1.143
	c-0.052-0.079-0.274-0.079-0.34-0.011l-0.104,0.463c-0.066,0.283-0.157,0.352-0.313,0.398c-0.157,0.043-0.563,0.065-1.11,0.065
	h-0.759c-0.392,0-0.43,0-0.43-0.316v-2.263c0-0.43,0-0.452,0.391-0.452h0.941c0.574,0,0.993,0.011,1.267,0.066
	c0.681,0.148,0.798,0.545,0.993,1.076c0.066,0.066,0.274,0.045,0.328-0.022c-0.054-0.499-0.132-1.313-0.21-1.506
	c-0.157,0.034-0.928,0.034-1.765,0.034h-2.456c-0.535,0-0.979-0.01-1.542-0.034c-0.079,0.034-0.104,0.238-0.026,0.283l0.209,0.023
	c0.771,0.079,0.798,0.248,0.798,1.425V56.654z"/>
<path class="secondarycolor" d="M35.561,67.743C17.505,67.743,2.818,53.054,2.818,35c0-18.056,14.688-32.743,32.743-32.743
	C53.613,2.257,68.3,16.944,68.3,35C68.3,53.054,53.613,67.743,35.561,67.743z M35.561,68.406c18.419,0,33.406-14.984,33.406-33.406
	c0-18.42-14.987-33.407-33.406-33.407C17.14,1.593,2.153,16.58,2.151,35C2.151,53.422,17.14,68.406,35.561,68.406z"/>
</svg>
