<?xml version="1.0" encoding="iso-8859-1"?>
<svg version="1.2" baseProfile="tiny" class="logocolor ju" xmlns="http://www.w3.org/2000/svg" xmlns:xlink="http://www.w3.org/1999/xlink" viewBox="0 0 215 70" xml:space="preserve">
<g>
	<g>
			<path class="primarycolor" d="M6.477,11.976c0-0.479,0-5.779-0.089-7.066c-0.03-0.658-0.3-1.019-1.467-1.019H3.603
				c-0.12,0-0.209-0.03-0.209-0.149V2.933c0-0.15,0.03-0.209,0.209-0.209c0.33,0,1.437,0.089,4.281,0.089
				c2.545,0,3.593-0.089,4.042-0.089c0.18,0,0.24,0.06,0.24,0.179v0.749c0,0.179-0.06,0.239-0.24,0.239H10.43
				c-0.809,0-1.078,0.24-1.108,0.869c-0.03,0.479-0.09,4.312-0.09,7.935v1.377c0,3.803-0.12,6.737-0.12,7.426
				c0,1.976-0.209,3.473-1.107,5c-1.228,2.126-3.293,4.073-5.569,4.073c-0.539,0-2.036-0.42-2.036-1.737
				c0-0.898,0.719-1.437,1.677-1.437c1.018,0,2.006,0.659,2.335,1.587c0.659-0.209,1.317-0.898,1.646-1.887
				c0.749-2.156,0.419-10.838,0.419-13.024V11.976z"/>
			<path class="primarycolor" d="M16.281,20.621c-0.289,0.723-1.879,5.117-2.023,5.724c-0.029,0.203-0.087,0.491-0.087,0.637
				c0,0.404,0.347,0.636,0.983,0.636h1.359c0.202,0,0.289,0.058,0.289,0.202v0.665c0,0.202-0.087,0.26-0.231,0.26
				c-0.405,0-1.59-0.087-3.295-0.087c-2.11,0-2.747,0.087-3.151,0.087c-0.145,0-0.203-0.058-0.203-0.231V27.82
				c0-0.145,0.116-0.202,0.231-0.202h1.012c0.867,0,1.271-0.405,1.676-1.33c0.203-0.463,2.313-5.811,3.151-8.181
				c0.203-0.579,2.544-6.794,2.805-7.575c0.086-0.289,0.231-0.665,0.028-0.983c-0.086-0.116-0.202-0.26-0.202-0.375
				c0-0.087,0.058-0.203,0.26-0.261c0.809-0.173,2.082-1.041,2.399-1.445c0.145-0.145,0.231-0.26,0.376-0.26
				c0.174,0,0.232,0.173,0.318,0.492c0.549,1.821,2.804,8.297,3.353,10.146c0.665,2.255,2.545,7.632,2.949,8.471
				c0.492,0.954,1.243,1.301,1.966,1.301h0.954c0.173,0,0.231,0.087,0.231,0.202v0.723c0,0.145-0.087,0.202-0.29,0.202
				c-0.521,0-1.127-0.087-3.469-0.087c-2.399,0-3.411,0.087-4.076,0.087c-0.145,0-0.231-0.087-0.231-0.26V27.82
				c0-0.173,0.086-0.202,0.26-0.202h0.723c0.809,0,1.069-0.289,0.867-1.099c-0.231-1.041-1.417-4.741-1.822-5.897H16.281z
				 M23.046,19.581c-0.26-0.867-2.602-8.094-2.746-8.528c-0.087-0.203-0.145-0.405-0.231-0.405c-0.115,0-0.231,0.203-0.318,0.434
				c-0.145,0.375-2.891,7.777-3.094,8.5H23.046z"/>
			<path class="primarycolor" d="M32.528,26.432c-2.082-1.966-3.093-5.319-3.093-8.095c0-2.688,0.867-5.464,2.949-7.661
				c1.475-1.561,4.077-2.92,7.228-2.92c2.63,0,4.798,0.983,5.84,1.59c0.375,0.231,0.521,0.202,0.578,0l0.231-0.838
				c0.058-0.173,0.116-0.173,0.376-0.173c0.26,0,0.317,0.058,0.317,0.463c0,0.549,0.579,4.799,0.723,5.608
				c0.029,0.145,0,0.261-0.115,0.29l-0.434,0.115c-0.145,0.03-0.203,0-0.29-0.23c-0.405-0.954-1.041-2.342-2.255-3.585
				c-1.214-1.243-2.746-2.226-5.03-2.226c-5.175,0-7.256,4.596-7.227,8.816c0,1.677,0.521,4.944,2.775,7.431
				c1.966,2.197,3.614,2.428,5.551,2.428c3.266,0,5.811-1.792,7.14-3.672c0.088-0.145,0.145-0.173,0.232-0.086l0.376,0.289
				c0.086,0.058,0.144,0.116,0.057,0.26c-1.734,2.516-4.539,4.856-8.615,4.856C36.431,29.091,34.263,28.022,32.528,26.432z"/>
			<path class="primarycolor" d="M52.042,16.314c0-0.521-0.087-6.158-0.087-6.39c0-0.318-0.144-0.693-0.867-0.693h-1.012
				c-0.173,0-0.231-0.058-0.231-0.202V8.277c0-0.116,0.058-0.173,0.231-0.173c0.347,0,1.214,0.086,3.382,0.086
				c1.937,0,2.891-0.086,3.267-0.086c0.174,0,0.232,0.057,0.232,0.173v0.752c0,0.144-0.058,0.202-0.203,0.202H55.54
				c-0.578,0-0.81,0.202-0.81,0.896c0,0.434-0.087,4.943-0.087,6.359v1.446h0.521c0.462,0,0.781-0.116,1.185-0.404
				c0.636-0.463,5.984-7.286,6.244-7.661c0.261-0.405,0.116-0.694-0.26-0.694h-0.405c-0.115,0-0.145-0.058-0.145-0.203V8.306
				c0-0.145,0.058-0.202,0.173-0.202c0.347,0,1.532,0.086,2.862,0.086c0.838,0,1.851-0.086,2.197-0.086
				c0.145,0,0.203,0.057,0.203,0.144v0.781c0,0.144-0.087,0.202-0.231,0.202h-0.607c-0.405,0-1.07,0.174-1.59,0.55
				c-1.07,0.78-5.493,5.897-6.736,7.516c0.26,0.318,7.488,9.28,7.748,9.598c0.491,0.607,1.33,0.723,2.023,0.723h1.012
				c0.145,0,0.203,0.087,0.203,0.202v0.723c0,0.145-0.059,0.202-0.232,0.202c-0.29,0-1.388-0.087-3.556-0.087
				c-2.399,0-3.527,0.087-3.931,0.087c-0.116,0-0.173-0.058-0.173-0.173V27.82c0-0.115,0.057-0.173,0.173-0.173h0.434
				c0.549,0,0.607-0.492,0.462-0.78c-0.26-0.578-5.376-7.343-5.753-7.632c-0.462-0.376-0.838-0.434-1.271-0.434h-0.55v2.082
				c0,1.445,0.058,5.695,0.087,6.1c0.029,0.375,0.289,0.636,0.665,0.636h1.272c0.144,0,0.231,0.058,0.231,0.173v0.751
				c0,0.115-0.029,0.202-0.174,0.202c-0.347,0-1.214-0.087-3.267-0.087c-2.284,0-3.209,0.087-3.469,0.087
				c-0.145,0-0.202-0.058-0.202-0.202v-0.751c0-0.145,0.086-0.173,0.202-0.173h1.186c0.52,0,0.723-0.231,0.78-0.521
				c0.029-0.261,0.087-5.493,0.087-9.107V16.314z"/>
			<path class="primarycolor" d="M73.175,27.588c-0.347-0.26-0.521-0.347-0.665-0.347c-0.174,0-0.289,0.203-0.462,0.492
				c-0.173,0.318-0.318,0.347-0.521,0.347c-0.173,0-0.318-0.146-0.26-0.463c0.116-0.723,0.405-4.395,0.491-5.233
				c0.029-0.173,0.087-0.173,0.203-0.173l0.434,0.029c0.116,0,0.173,0.057,0.173,0.23c0.029,0.925,0.087,1.879,1.041,3.354
				c0.868,1.358,2.458,2.14,4.048,2.14c1.734,0,3.931-1.07,3.931-3.672c0-2.978-2.139-4.076-4.452-4.886
				c-0.896-0.318-2.978-1.041-4.22-2.342c-0.954-0.954-1.445-2.313-1.445-4.221c0-1.446,0.896-2.862,1.792-3.7
				c1.041-0.983,2.486-1.388,4.047-1.388c1.648,0,2.92,0.492,3.412,0.723c0.26,0.145,0.405,0.115,0.549-0.029l0.376-0.347
				c0.145-0.116,0.231-0.174,0.376-0.174c0.144,0,0.23,0.231,0.23,0.491c0,1.012,0.376,3.96,0.405,4.597
				c0,0.145-0.029,0.202-0.145,0.232l-0.347,0.086c-0.086,0.028-0.144,0-0.173-0.086c-0.231-0.839-0.607-1.966-1.792-3.209
				c-0.78-0.839-1.792-1.243-3.151-1.243c-2.572,0-3.498,1.908-3.498,3.382c0,0.809,0.173,1.763,0.896,2.515
				c0.839,0.838,2.458,1.475,3.296,1.734c1.995,0.636,3.614,1.127,4.654,2.399c0.752,0.896,1.272,2.024,1.272,3.932
				c0,3.411-2.082,6.331-5.897,6.331C75.748,29.091,74.331,28.485,73.175,27.588z"/>
			<path class="primarycolor" d="M89.653,27.213c-2.053-1.243-4.25-4.365-4.25-8.586c0-1.764,0.463-4.51,2.689-7.199
				c2.543-3.093,5.406-3.672,7.834-3.672c1.821,0,4.192,0.376,6.475,2.285c2.111,1.821,3.961,4.654,3.961,8.644
				c0,2.11-0.665,4.308-2.167,6.332c-1.764,2.341-4.337,4.075-8.326,4.075C94.452,29.091,91.937,28.629,89.653,27.213z
				 M103.53,18.916c0-6.331-4.51-10.06-7.719-10.06c-0.434,0-2.4-0.347-4.567,1.706c-1.937,1.85-2.891,4.771-2.891,7.141
				c0,7.604,5.291,10.292,7.747,10.292C102.46,27.994,103.53,21.489,103.53,18.916z"/>
			<path class="primarycolor" d="M108.762,11.949c0-1.706-0.867-2.66-1.908-2.689l-1.186-0.029c-0.144,0-0.173-0.115-0.173-0.202V8.277
				c0-0.116,0.03-0.173,0.173-0.173c0.145,0,0.376,0.029,0.81,0.029c0.433,0.028,1.07,0.058,2.052,0.058
				c0.982,0,1.59-0.058,1.937-0.058c0.378,0,0.608,0.115,0.839,0.375c0.146,0.173,5.754,7.458,6.072,7.864
				c0.316,0.404,5.203,6.389,5.896,7.314h0.115v-3.441c0-2.573-0.028-3.989-0.086-5.435c-0.029-1.127-0.174-3.96-0.347-4.452
				c-0.23-0.722-0.78-1.127-1.591-1.127h-0.926c-0.114,0-0.173-0.058-0.173-0.202V8.277c0-0.116,0.059-0.173,0.173-0.173
				c0.406,0,1.332,0.086,3.181,0.086c1.734,0,2.429-0.086,2.805-0.086c0.202,0,0.231,0.086,0.231,0.202v0.724
				c0,0.115-0.058,0.202-0.174,0.202h-0.779c-0.782,0-1.07,0.492-1.13,1.59c-0.114,1.937-0.114,4.799-0.114,6.678v10.812
				c0,0.405-0.029,0.694-0.146,0.694c-0.346,0-0.606-0.347-0.693-0.462c-0.027-0.058-1.733-2.197-3.527-4.452
				c-2.021-2.515-4.134-5.175-4.307-5.349c-0.318-0.289-5.636-6.967-5.81-7.199h-0.176v6.418c0,2.688,0.231,7.401,0.29,7.979
				c0.115,1.128,0.288,1.677,1.07,1.677h0.867c0.202,0,0.23,0.087,0.23,0.26v0.635c0,0.174-0.028,0.231-0.23,0.231
				c-0.29,0-2.023-0.087-2.805-0.087c-0.607,0-2.602,0.087-2.891,0.087c-0.115,0-0.145-0.058-0.145-0.202v-0.751
				c0-0.086,0.03-0.173,0.174-0.173h0.982c0.838,0,1.157-0.347,1.301-1.763c0.058-0.549,0.115-3.845,0.115-8.991V11.949z"/>
			<path class="primarycolor" d="M128.218,8.306c0-0.145,0.029-0.202,0.203-0.202c0.29,0,1.243,0.086,3.498,0.086
				c2.429,0,3.729-0.086,3.989-0.086s0.289,0.086,0.289,0.202v0.665c0,0.145-0.029,0.26-0.231,0.26h-1.388
				c-0.81,0-1.214,0.26-1.214,0.751c0,0.232,0.03,0.579,0.116,0.983c0.173,1.04,1.242,4.48,1.764,6.1
				c0.347,1.099,2.023,6.071,2.688,7.834h0.058c0.606-1.359,2.863-7.314,3.094-7.979c0.289-0.781,1.388-4.105,1.822-5.377
				c0.23-0.722,0.403-1.243,0.403-1.647c0-0.347-0.202-0.665-0.926-0.665h-0.751c-0.115,0-0.144-0.086-0.144-0.26V8.306
				c0-0.145,0.028-0.202,0.173-0.202c0.261,0,1.591,0.086,3.411,0.086c2.11,0,2.834-0.086,3.094-0.086
				c0.174,0,0.203,0.057,0.203,0.202v0.724c0,0.115-0.029,0.202-0.203,0.202h-0.78c-0.954,0-1.503,0.462-2.053,1.127
				c-0.752,0.925-3.064,6.852-3.557,8.066c-0.347,0.954-4.075,10.147-4.221,10.436c-0.114,0.231-0.26,0.376-0.404,0.376
				c-0.23,0-0.347-0.29-0.492-0.665c-0.924-2.66-3.265-9.251-3.642-10.292l-0.29-0.983c-0.693-2.053-2.053-6.244-2.427-7.112
				c-0.29-0.665-0.579-0.954-1.187-0.954h-0.751c-0.116,0-0.146-0.086-0.146-0.202V8.306z"/>
			<path class="primarycolor" d="M153.456,16.545c0-0.693-0.086-5.897-0.116-6.331c-0.057-0.694-0.346-0.983-1.445-0.983h-1.676
				c-0.145,0-0.232-0.058-0.232-0.173v-0.78c0-0.116,0.088-0.173,0.203-0.173c0.348,0,1.821,0.086,4.51,0.086
				c2.573,0,3.498-0.086,3.902-0.086c0.146,0,0.203,0.086,0.203,0.202v0.724c0,0.144-0.087,0.202-0.23,0.202h-1.359
				c-0.577,0-1.012,0.231-1.012,0.81c0,0.289-0.087,6.678-0.087,7.024v2.226c0,0.289,0.087,6.967,0.087,7.285
				c0,0.896,0.435,1.041,1.358,1.041h1.186c0.144,0,0.231,0.058,0.231,0.202v0.751c0,0.116-0.088,0.173-0.261,0.173
				c-0.347,0-1.503-0.087-4.019-0.087c-2.746,0-3.989,0.087-4.309,0.087c-0.144,0-0.229-0.058-0.229-0.173v-0.78
				c0-0.116,0.086-0.173,0.229-0.173h1.62c0.579,0,1.186-0.087,1.301-0.838c0.059-0.434,0.145-6.678,0.145-8.211V16.545z"/>
			<path class="primarycolor" d="M163.603,15.707c0-1.85-0.057-4.915-0.087-5.436c-0.057-0.751-0.202-1.041-1.069-1.041h-1.358
				c-0.173,0-0.202-0.145-0.202-0.289V8.306c0-0.145,0.029-0.202,0.202-0.202c0.317,0,1.358,0.086,3.758,0.086
				c2.805,0,4.019-0.086,4.279-0.086c0.231,0,0.261,0.086,0.261,0.231V9c0,0.145-0.059,0.231-0.29,0.231h-1.733
				c-0.897,0-1.013,0.289-1.013,1.127c0,0.376-0.087,4.741-0.087,6.765v2.486c0,0.492,0,6.736,0.087,7.921
				c0.637,0.058,6.36,0.116,7.257,0c1.705-0.26,3.44-3.729,3.844-4.856c0.058-0.116,0.116-0.173,0.231-0.116l0.463,0.174
				c0.087,0.058,0.087,0.086,0.059,0.26c-0.088,0.202-1.243,4.973-1.417,5.752c-0.752-0.058-9.077-0.087-12.171-0.087
				c-2.284,0-3.325,0.087-3.7,0.087c-0.203,0-0.232-0.058-0.232-0.202V27.82c0-0.145,0.029-0.202,0.203-0.202h1.388
				c1.069,0,1.242-0.405,1.242-0.781c0-0.548,0.087-7.747,0.087-9.511V15.707z"/>
			<path class="primarycolor" d="M181.584,15.707c0-1.85-0.057-4.915-0.086-5.436c-0.059-0.751-0.203-1.041-1.069-1.041h-1.359
				c-0.174,0-0.202-0.145-0.202-0.289V8.306c0-0.145,0.028-0.202,0.202-0.202c0.318,0,1.359,0.086,3.759,0.086
				c2.804,0,4.018-0.086,4.278-0.086c0.232,0,0.26,0.086,0.26,0.231V9c0,0.145-0.058,0.231-0.289,0.231h-1.734
				c-0.896,0-1.012,0.289-1.012,1.127c0,0.376-0.086,4.741-0.086,6.765v2.486c0,0.492,0,6.736,0.086,7.921
				c0.636,0.058,6.359,0.116,7.256,0c1.706-0.26,3.44-3.729,3.846-4.856c0.058-0.116,0.115-0.173,0.231-0.116l0.463,0.174
				c0.086,0.058,0.086,0.086,0.057,0.26c-0.087,0.202-1.243,4.973-1.417,5.752c-0.751-0.058-9.077-0.087-12.17-0.087
				c-2.285,0-3.325,0.087-3.701,0.087c-0.201,0-0.23-0.058-0.23-0.202V27.82c0-0.145,0.029-0.202,0.202-0.202h1.388
				c1.069,0,1.243-0.405,1.243-0.781c0-0.548,0.086-7.747,0.086-9.511V15.707z"/>
			<path class="primarycolor" d="M202.398,17.585c0.232,0,3.326-0.115,3.672-0.173c0.839-0.145,1.069-0.375,1.33-1.272
				c0.088-0.289,0.202-0.867,0.231-1.417c0-0.144,0.087-0.202,0.202-0.202l0.722,0.029c0.146,0,0.204,0.116,0.174,0.231
				c-0.087,0.492-0.087,2.862-0.087,3.296c0,1.012,0.117,2.4,0.174,3.006c0,0.145-0.057,0.202-0.174,0.231l-0.635,0.087
				c-0.146,0.029-0.202-0.058-0.231-0.26c-0.058-0.376-0.231-1.041-0.318-1.359c-0.173-0.606-0.492-1.041-1.243-1.127
				c-1.359-0.145-3.354-0.145-3.816-0.145v1.792c0,1.562,0.059,4.366,0.059,4.944c0.028,1.503,0.751,2.082,1.647,2.254
				c0.578,0.116,1.417,0.203,2.141,0.203c0.49,0,1.937-0.029,2.543-0.087c0.491-0.058,1.764-0.376,2.515-1.012
				c0.347-0.289,1.967-2.371,2.371-3.035c0.086-0.145,0.173-0.261,0.346-0.174l0.464,0.261c0.146,0.087,0.146,0.173,0.057,0.404
				l-1.531,4.25c-0.086,0.26-0.289,0.434-0.636,0.434c-0.29,0-2.573-0.087-11.564-0.087c-2.167,0-3.18,0.087-3.7,0.087
				c-0.174,0-0.261-0.058-0.261-0.202v-0.78c0-0.116,0.087-0.145,0.29-0.145h1.156c1.33,0,1.445-0.203,1.445-1.272v-6.852v-2.833
				c0-2.399-0.059-6.013-0.087-6.302c-0.115-0.925-0.404-1.127-1.475-1.127h-1.04c-0.144,0-0.231-0.029-0.231-0.202V8.248
				c0-0.087,0.058-0.144,0.202-0.144c0.637,0,1.648,0.086,3.557,0.086h1.271c2.862,0,5.726-0.029,8.586-0.029
				c0.463,0,1.013-0.057,1.156-0.057c0.145,0,0.203,0.057,0.231,0.144c0.115,0.404,1.389,4.366,1.476,4.655
				c0.027,0.115,0.027,0.202-0.087,0.26l-0.434,0.23c-0.087,0.058-0.203-0.029-0.232-0.086c-0.058-0.116-2.197-2.862-2.891-3.295
				c-0.607-0.405-1.417-0.752-2.197-0.781l-5.146-0.115V17.585z"/>
		</g>
		<g>
			<path class="primarycolor" d="M12.663,48.442c-0.842-0.335-1.276-0.88-1.475-1.66c-0.148-0.559-0.198-1.388-0.198-3.012v-2.948
				c0-0.434-0.086-0.632-0.471-0.632H9.938c-0.074,0-0.087-0.024-0.087-0.111v-0.273c0-0.074,0.013-0.099,0.111-0.099
				c0.124,0,0.731,0.037,1.697,0.037c0.967,0,1.562-0.037,1.698-0.037c0.099,0,0.111,0.024,0.111,0.074v0.322
				c0,0.063-0.012,0.087-0.099,0.087H12.75c-0.36,0-0.57,0.236-0.595,0.508c-0.012,0.112-0.025,0.979-0.025,1.61v0.818
				c0,0.656,0.05,2.229,0.063,2.626c0.012,0.57,0.111,1.152,0.396,1.574c0.458,0.669,1.251,0.892,1.97,0.892
				c0.707,0,1.425-0.234,1.858-0.682c0.483-0.52,0.645-1.264,0.645-2.181v-2.651c0-0.941-0.025-1.659-0.062-1.97
				c-0.037-0.322-0.235-0.545-0.557-0.545h-0.545c-0.075,0-0.087-0.037-0.087-0.099v-0.299c0-0.062,0.012-0.086,0.087-0.086
				c0.124,0,0.693,0.037,1.524,0.037c0.855,0,1.251-0.037,1.363-0.037s0.124,0.05,0.124,0.086v0.273
				c0,0.074-0.012,0.124-0.074,0.124h-0.508c-0.458,0-0.496,0.347-0.533,0.496c-0.024,0.124-0.024,1.883-0.024,2.057
				s-0.024,2.341-0.062,2.825c-0.074,1.016-0.347,1.796-1.041,2.391c-0.495,0.459-1.251,0.743-2.329,0.743
				C13.691,48.702,13.072,48.615,12.663,48.442z"/>
			<path class="primarycolor" d="M34.048,41.355c0-0.731-0.372-1.14-0.817-1.153l-0.508-0.012c-0.062,0-0.074-0.05-0.074-0.087v-0.322
				c0-0.05,0.012-0.074,0.074-0.074s0.161,0.013,0.347,0.013c0.186,0.012,0.458,0.024,0.88,0.024c0.421,0,0.681-0.024,0.83-0.024
				c0.161,0,0.26,0.05,0.358,0.161c0.062,0.074,2.466,3.196,2.602,3.37c0.136,0.173,2.23,2.738,2.528,3.134h0.049V44.91
				c0-1.102-0.012-1.709-0.037-2.329c-0.012-0.482-0.074-1.696-0.148-1.908c-0.099-0.31-0.334-0.482-0.681-0.482h-0.397
				c-0.049,0-0.074-0.024-0.074-0.087v-0.322c0-0.05,0.025-0.074,0.074-0.074c0.174,0,0.57,0.037,1.363,0.037
				c0.743,0,1.041-0.037,1.202-0.037c0.086,0,0.099,0.037,0.099,0.086v0.311c0,0.05-0.025,0.087-0.074,0.087h-0.335
				c-0.334,0-0.458,0.21-0.483,0.682c-0.05,0.829-0.05,2.057-0.05,2.862v4.633c0,0.174-0.012,0.299-0.061,0.299
				c-0.149,0-0.26-0.149-0.297-0.199c-0.013-0.024-0.744-0.941-1.512-1.909c-0.868-1.076-1.772-2.216-1.846-2.291
				c-0.137-0.124-2.417-2.986-2.491-3.085h-0.075v2.751c0,1.151,0.099,3.172,0.124,3.419c0.05,0.483,0.124,0.72,0.458,0.72h0.372
				c0.087,0,0.099,0.036,0.099,0.11v0.272c0,0.074-0.012,0.1-0.099,0.1c-0.124,0-0.867-0.037-1.202-0.037
				c-0.26,0-1.115,0.037-1.239,0.037c-0.049,0-0.062-0.025-0.062-0.087v-0.322c0-0.037,0.013-0.073,0.075-0.073h0.421
				c0.359,0,0.496-0.149,0.558-0.757c0.024-0.236,0.049-1.647,0.049-3.853V41.355z"/>
			<path class="primarycolor" d="M57.279,43.325c0-0.298-0.037-2.528-0.05-2.714c-0.025-0.297-0.149-0.421-0.619-0.421h-0.719
				c-0.063,0-0.099-0.024-0.099-0.074v-0.335c0-0.05,0.037-0.074,0.086-0.074c0.149,0,0.781,0.037,1.933,0.037
				c1.104,0,1.5-0.037,1.673-0.037c0.062,0,0.087,0.037,0.087,0.086v0.311c0,0.063-0.038,0.087-0.099,0.087h-0.583
				c-0.248,0-0.434,0.099-0.434,0.347c0,0.124-0.037,2.861-0.037,3.011v0.953c0,0.125,0.037,2.987,0.037,3.124
				c0,0.383,0.186,0.446,0.583,0.446h0.508c0.063,0,0.099,0.024,0.099,0.086v0.321c0,0.05-0.037,0.075-0.112,0.075
				c-0.148,0-0.644-0.037-1.722-0.037c-1.177,0-1.709,0.037-1.845,0.037c-0.063,0-0.1-0.025-0.1-0.075v-0.334
				c0-0.049,0.037-0.073,0.1-0.073h0.694c0.247,0,0.507-0.037,0.557-0.359c0.025-0.187,0.062-2.863,0.062-3.52V43.325z"/>
			<path class="primarycolor" d="M73.869,39.793c0-0.062,0.012-0.086,0.086-0.086c0.124,0,0.533,0.037,1.499,0.037
				c1.041,0,1.599-0.037,1.71-0.037s0.124,0.037,0.124,0.086v0.286c0,0.062-0.013,0.111-0.099,0.111h-0.596
				c-0.346,0-0.52,0.111-0.52,0.322c0,0.099,0.013,0.247,0.049,0.421c0.075,0.446,0.534,1.921,0.757,2.614
				c0.148,0.472,0.867,2.602,1.151,3.357h0.025c0.26-0.582,1.226-3.135,1.326-3.42c0.124-0.334,0.595-1.759,0.78-2.304
				c0.1-0.31,0.173-0.533,0.173-0.706c0-0.149-0.086-0.285-0.396-0.285h-0.322c-0.049,0-0.063-0.037-0.063-0.111v-0.286
				c0-0.062,0.013-0.086,0.075-0.086c0.112,0,0.682,0.037,1.462,0.037c0.905,0,1.214-0.037,1.326-0.037
				c0.075,0,0.087,0.024,0.087,0.086v0.311c0,0.05-0.012,0.087-0.087,0.087h-0.334c-0.409,0-0.644,0.198-0.88,0.482
				c-0.322,0.397-1.313,2.938-1.523,3.457c-0.148,0.41-1.747,4.349-1.809,4.473c-0.05,0.1-0.112,0.162-0.173,0.162
				c-0.1,0-0.148-0.124-0.21-0.286c-0.396-1.141-1.4-3.964-1.561-4.41l-0.125-0.421c-0.297-0.879-0.879-2.677-1.041-3.048
				c-0.124-0.285-0.248-0.409-0.508-0.409h-0.322c-0.05,0-0.062-0.037-0.062-0.087V39.793z"/>
			<path class="primarycolor" d="M99.243,43.771c0.099,0,1.425-0.049,1.574-0.074c0.359-0.062,0.459-0.16,0.571-0.545
				c0.037-0.124,0.086-0.372,0.098-0.607c0-0.063,0.038-0.087,0.086-0.087l0.311,0.014c0.062,0,0.086,0.049,0.074,0.099
				c-0.037,0.21-0.037,1.227-0.037,1.412c0,0.434,0.049,1.028,0.074,1.289c0,0.062-0.025,0.086-0.075,0.1l-0.272,0.036
				c-0.063,0.013-0.087-0.024-0.1-0.111c-0.024-0.16-0.099-0.446-0.136-0.582c-0.075-0.261-0.211-0.446-0.533-0.483
				c-0.582-0.062-1.438-0.062-1.636-0.062v0.767c0,0.67,0.025,1.872,0.025,2.12c0.012,0.644,0.322,0.891,0.707,0.966
				c0.248,0.051,0.606,0.087,0.917,0.087c0.21,0,0.829-0.012,1.089-0.036c0.211-0.025,0.757-0.162,1.079-0.434
				c0.148-0.125,0.843-1.017,1.017-1.301c0.036-0.063,0.073-0.113,0.148-0.075l0.199,0.11c0.062,0.038,0.062,0.075,0.024,0.174
				l-0.657,1.821c-0.037,0.111-0.124,0.187-0.272,0.187c-0.124,0-1.103-0.037-4.956-0.037c-0.93,0-1.363,0.037-1.586,0.037
				c-0.075,0-0.112-0.025-0.112-0.087v-0.335c0-0.049,0.037-0.061,0.124-0.061h0.496c0.57,0,0.62-0.087,0.62-0.546v-2.938v-1.213
				c0-1.029-0.025-2.578-0.038-2.702c-0.049-0.396-0.173-0.482-0.631-0.482h-0.447c-0.062,0-0.099-0.013-0.099-0.087V39.77
				c0-0.038,0.024-0.063,0.087-0.063c0.272,0,0.706,0.037,1.523,0.037h0.546c1.227,0,2.453-0.013,3.679-0.013
				c0.199,0,0.435-0.024,0.496-0.024c0.062,0,0.087,0.024,0.099,0.063c0.05,0.173,0.595,1.87,0.632,1.994
				c0.013,0.05,0.013,0.087-0.038,0.112l-0.185,0.099c-0.038,0.024-0.087-0.013-0.1-0.037c-0.024-0.05-0.941-1.228-1.238-1.413
				c-0.26-0.173-0.607-0.322-0.941-0.334l-2.206-0.05V43.771z"/>
			<path class="primarycolor" d="M119.253,42.879c0-0.917,0-1.71-0.014-2.068c-0.012-0.41-0.16-0.62-0.47-0.62h-0.496
				c-0.062,0-0.074-0.037-0.074-0.087v-0.311c0-0.062,0.013-0.086,0.074-0.086c0.112,0,0.496,0.037,1.536,0.037
				c0.694,0,1.847-0.037,2.069-0.037c1.028,0,1.847,0.31,2.317,0.756c0.409,0.397,0.644,0.954,0.644,1.413
				c0,1.548-0.706,2.13-2.291,2.478v0.024c0.296,0.111,0.47,0.335,0.569,0.471c0.148,0.161,1.028,1.425,1.128,1.586
				c0.061,0.123,0.854,1.251,1.089,1.424c0.261,0.188,0.546,0.213,0.893,0.213c0.086,0,0.1,0.049,0.1,0.098v0.273
				c0,0.074-0.014,0.111-0.1,0.111c-0.1,0-0.421-0.037-0.967-0.037c-0.359,0-0.816,0.024-1.002,0.037
				c-0.137-0.125-0.409-0.546-0.52-0.707c-0.101-0.148-0.77-1.325-0.832-1.424c-0.049-0.086-0.644-0.979-0.793-1.152
				c-0.322-0.385-0.619-0.718-1.338-0.718c-0.111,0-0.235,0-0.409,0.035v0.695c0,0.73,0.012,2.119,0.025,2.304
				c0.024,0.26,0.123,0.484,0.309,0.484h0.781c0.088,0,0.1,0.036,0.1,0.098v0.273c0,0.086-0.012,0.111-0.137,0.111
				c-0.136,0-0.445-0.037-1.623-0.037c-1.127,0-1.411,0.037-1.549,0.037c-0.099,0-0.099-0.037-0.099-0.1v-0.285
				c0-0.062,0-0.098,0.063-0.098h0.507c0.273,0,0.483-0.087,0.483-0.422c0.025-1.227,0.025-2.392,0.025-3.568V42.879z
				 M120.367,44.106c0.187,0.036,0.322,0.049,0.558,0.049c2.255,0,2.688-1.549,2.688-2.069c0-0.57-0.261-1.115-0.619-1.413
				c-0.483-0.384-1.028-0.569-2.057-0.569c-0.149,0-0.31,0.025-0.422,0.099c-0.086,0.063-0.148,0.198-0.148,0.397V44.106z"/>
			<path class="primarycolor" d="M141.195,48.059c-0.15-0.113-0.224-0.149-0.286-0.149c-0.073,0-0.124,0.087-0.197,0.211
				c-0.075,0.136-0.137,0.148-0.224,0.148c-0.074,0-0.137-0.063-0.111-0.197c0.05-0.311,0.174-1.885,0.21-2.243
				c0.013-0.075,0.038-0.075,0.087-0.075l0.187,0.013c0.049,0,0.075,0.024,0.075,0.099c0.011,0.397,0.036,0.807,0.445,1.438
				c0.371,0.582,1.053,0.916,1.735,0.916c0.742,0,1.685-0.458,1.685-1.574c0-1.274-0.918-1.746-1.909-2.092
				c-0.384-0.138-1.275-0.446-1.809-1.005c-0.409-0.409-0.618-0.991-0.618-1.809c0-0.619,0.383-1.227,0.767-1.586
				c0.446-0.422,1.066-0.595,1.734-0.595c0.707,0,1.252,0.211,1.462,0.31c0.113,0.062,0.174,0.05,0.236-0.012l0.16-0.149
				c0.063-0.05,0.1-0.074,0.162-0.074s0.098,0.099,0.098,0.211c0,0.434,0.162,1.697,0.174,1.97c0,0.063-0.012,0.087-0.061,0.1
				l-0.148,0.037c-0.038,0.012-0.063,0-0.074-0.037c-0.1-0.359-0.261-0.843-0.77-1.376c-0.334-0.359-0.768-0.533-1.35-0.533
				c-1.104,0-1.499,0.818-1.499,1.451c0,0.346,0.073,0.755,0.384,1.077c0.358,0.359,1.052,0.632,1.411,0.743
				c0.855,0.272,1.55,0.483,1.996,1.028c0.321,0.384,0.545,0.867,0.545,1.686c0,1.462-0.892,2.713-2.527,2.713
				C142.298,48.702,141.689,48.442,141.195,48.059z"/>
			<path class="primarycolor" d="M160.895,43.325c0-0.298-0.037-2.528-0.05-2.714c-0.024-0.297-0.149-0.421-0.62-0.421h-0.718
				c-0.063,0-0.099-0.024-0.099-0.074v-0.335c0-0.05,0.036-0.074,0.086-0.074c0.149,0,0.78,0.037,1.934,0.037
				c1.103,0,1.499-0.037,1.672-0.037c0.062,0,0.087,0.037,0.087,0.086v0.311c0,0.063-0.037,0.087-0.099,0.087h-0.583
				c-0.248,0-0.434,0.099-0.434,0.347c0,0.124-0.037,2.861-0.037,3.011v0.953c0,0.125,0.037,2.987,0.037,3.124
				c0,0.383,0.186,0.446,0.583,0.446h0.507c0.063,0,0.1,0.024,0.1,0.086v0.321c0,0.05-0.037,0.075-0.111,0.075
				c-0.148,0-0.645-0.037-1.722-0.037c-1.178,0-1.711,0.037-1.847,0.037c-0.062,0-0.099-0.025-0.099-0.075v-0.334
				c0-0.049,0.037-0.073,0.099-0.073h0.693c0.248,0,0.508-0.037,0.558-0.359c0.025-0.187,0.063-2.863,0.063-3.52V43.325z"/>
			<path class="primarycolor" d="M180.755,40.19h-0.31c-0.396,0-1.475,0-1.958,0.148c-0.557,0.174-0.929,1.041-1.103,1.438
				c-0.024,0.062-0.062,0.074-0.124,0.062l-0.223-0.062c-0.037-0.013-0.074-0.025-0.049-0.099c0.124-0.447,0.558-2.045,0.581-2.181
				c0.025-0.162,0.075-0.198,0.125-0.198c0.062,0,0.099,0.012,0.148,0.049l0.161,0.111c0.223,0.161,0.346,0.198,0.706,0.211
				c0.657,0.025,1.177,0.074,2.342,0.074h0.594c1.351,0,1.885-0.049,2.491-0.074c0.272-0.013,0.435-0.05,0.645-0.173l0.234-0.149
				c0.063-0.037,0.101-0.049,0.149-0.049c0.062,0,0.086,0.036,0.111,0.198c0.025,0.147,0.26,1.685,0.359,2.229
				c0.013,0.063-0.013,0.087-0.073,0.1l-0.2,0.05c-0.049,0.012-0.061,0-0.098-0.087c-0.1-0.235-0.472-1.189-0.88-1.389
				c-0.372-0.185-1.536-0.21-2.144-0.21h-0.347v3.531c0,0.173,0,3.643,0.012,3.854c0.025,0.31,0.124,0.496,0.422,0.496h0.78
				c0.111,0,0.124,0.036,0.124,0.122v0.261c0,0.063-0.013,0.1-0.124,0.1c-0.124,0-0.521-0.037-1.734-0.037
				c-1.189,0-1.71,0.037-1.883,0.037c-0.1,0-0.112-0.05-0.112-0.125v-0.235c0-0.086,0.013-0.122,0.087-0.122h0.842
				c0.249,0,0.396-0.149,0.409-0.299c0.037-0.359,0.037-4.162,0.037-4.397V40.19z"/>
			<path class="primarycolor" d="M204.222,46.212c0,0.484,0.037,1.288,0.05,1.426c0.037,0.396,0.223,0.434,0.545,0.434h0.482
				c0.088,0,0.088,0.036,0.088,0.086v0.285c0,0.074,0,0.111-0.088,0.111c-0.148,0-0.632-0.037-1.672-0.037
				c-1.115,0-1.499,0.037-1.636,0.037c-0.05,0-0.074-0.037-0.074-0.1v-0.297c0-0.05,0.012-0.086,0.087-0.086h0.606
				c0.323,0,0.422-0.126,0.435-0.311c0.013-0.174,0.037-1.151,0.037-2.305v-0.719c-0.162-0.322-2.218-3.815-2.578-4.25
				c-0.161-0.186-0.445-0.297-0.645-0.297h-0.31c-0.074,0-0.086-0.037-0.086-0.087v-0.322c0-0.05,0.012-0.074,0.086-0.074
				c0.113,0,0.694,0.037,1.45,0.037c1.275,0,1.722-0.037,1.847-0.037c0.073,0,0.087,0.024,0.087,0.063v0.31
				c0,0.062-0.014,0.111-0.087,0.111h-0.409c-0.371,0-0.422,0.111-0.371,0.409c0.036,0.197,1.561,2.886,1.932,3.593
				c0.458-0.719,2.193-3.296,2.243-3.52c0.05-0.21,0.111-0.482-0.409-0.482h-0.335c-0.073,0-0.087-0.037-0.087-0.111v-0.298
				c0-0.05,0.014-0.074,0.087-0.074c0.124,0,0.633,0.037,1.463,0.037c0.73,0,1.004-0.037,1.114-0.037
				c0.087,0,0.101,0.024,0.101,0.074v0.298c0,0.074-0.014,0.111-0.101,0.111h-0.31c-0.185,0-0.396,0.074-0.606,0.272
				c-0.248,0.235-2.465,3.444-2.937,4.125V46.212z"/>
		</g>
	</g>
	<g>
		<rect x="1.482" y="32.822" class="primarycolor" width="213.058" height="1.034"/>
	</g>
	<g>
		<path class="primarycolor" d="M17.198,64.663l0.969-0.089c0.046,0.388,0.151,0.707,0.318,0.955c0.167,0.249,0.424,0.45,0.775,0.604
			c0.351,0.152,0.745,0.229,1.184,0.229c0.389,0,0.732-0.057,1.03-0.174c0.298-0.117,0.52-0.277,0.666-0.48
			c0.146-0.202,0.218-0.423,0.218-0.661c0-0.241-0.07-0.452-0.21-0.632c-0.14-0.181-0.371-0.333-0.694-0.455
			c-0.207-0.082-0.664-0.207-1.373-0.378s-1.205-0.331-1.49-0.482c-0.37-0.193-0.646-0.434-0.827-0.722
			c-0.182-0.287-0.273-0.609-0.273-0.964c0-0.393,0.111-0.757,0.332-1.098c0.222-0.34,0.545-0.598,0.97-0.774
			c0.424-0.176,0.897-0.264,1.417-0.264c0.572,0,1.078,0.092,1.515,0.277c0.437,0.184,0.774,0.456,1.009,0.813
			c0.235,0.358,0.362,0.765,0.379,1.218l-0.98,0.078c-0.053-0.484-0.23-0.854-0.534-1.102c-0.304-0.249-0.751-0.373-1.343-0.373
			c-0.617,0-1.067,0.114-1.349,0.34c-0.283,0.228-0.423,0.5-0.423,0.82c0,0.277,0.1,0.505,0.3,0.684
			c0.196,0.181,0.708,0.363,1.538,0.553c0.829,0.188,1.398,0.353,1.708,0.491c0.45,0.209,0.782,0.471,0.998,0.789
			c0.214,0.317,0.322,0.682,0.322,1.097c0,0.411-0.117,0.798-0.353,1.162c-0.236,0.363-0.574,0.646-1.015,0.848
			c-0.441,0.201-0.938,0.302-1.488,0.302c-0.7,0-1.286-0.101-1.758-0.306c-0.472-0.204-0.843-0.509-1.111-0.919
			C17.354,65.641,17.212,65.18,17.198,64.663z"/>
		<path class="primarycolor" d="M34.594,64.432l1.025,0.258c-0.214,0.844-0.6,1.482-1.158,1.926c-0.558,0.44-1.239,0.661-2.045,0.661
			c-0.833,0-1.511-0.17-2.033-0.508c-0.522-0.341-0.92-0.833-1.192-1.476c-0.273-0.644-0.41-1.336-0.41-2.073
			c0-0.805,0.154-1.508,0.461-2.108c0.308-0.599,0.746-1.055,1.313-1.365c0.569-0.311,1.193-0.467,1.875-0.467
			c0.774,0,1.424,0.197,1.951,0.59c0.528,0.396,0.895,0.951,1.103,1.664L34.47,61.77c-0.179-0.562-0.438-0.971-0.779-1.227
			c-0.34-0.258-0.768-0.385-1.284-0.385c-0.592,0-1.088,0.141-1.485,0.426c-0.399,0.283-0.678,0.667-0.839,1.147
			c-0.162,0.479-0.242,0.974-0.242,1.483c0,0.658,0.096,1.23,0.287,1.721c0.192,0.489,0.489,0.854,0.893,1.1
			c0.403,0.241,0.841,0.361,1.313,0.361c0.573,0,1.057-0.164,1.454-0.494S34.453,65.081,34.594,64.432z"/>
		<path class="primarycolor" d="M41.243,67.152v-7.738h1.025v3.176h4.021v-3.176h1.025v7.738h-1.025v-3.648h-4.021v3.648H41.243z"/>
		<path class="primarycolor" d="M53.029,63.38c0-1.282,0.345-2.286,1.036-3.012c0.69-0.727,1.582-1.089,2.675-1.089
			c0.715,0,1.361,0.17,1.935,0.511c0.575,0.341,1.013,0.816,1.314,1.427c0.302,0.608,0.452,1.301,0.452,2.073
			c0,0.783-0.159,1.485-0.476,2.104c-0.317,0.62-0.767,1.087-1.348,1.404c-0.582,0.318-1.209,0.478-1.882,0.478
			c-0.73,0-1.382-0.176-1.956-0.526c-0.575-0.354-1.01-0.833-1.305-1.441C53.176,64.703,53.029,64.06,53.029,63.38z M54.087,63.393
			c0,0.933,0.25,1.665,0.752,2.201c0.503,0.538,1.132,0.803,1.89,0.803c0.771,0,1.406-0.27,1.904-0.81
			c0.499-0.543,0.748-1.31,0.748-2.304c0-0.628-0.106-1.178-0.32-1.647c-0.213-0.468-0.524-0.832-0.936-1.091
			c-0.409-0.258-0.87-0.387-1.381-0.387c-0.726,0-1.35,0.248-1.872,0.746C54.348,61.4,54.087,62.23,54.087,63.393z"/>
		<path class="primarycolor" d="M65.765,63.38c0-1.282,0.345-2.286,1.036-3.012c0.69-0.727,1.583-1.089,2.676-1.089
			c0.715,0,1.36,0.17,1.934,0.511c0.575,0.341,1.012,0.816,1.314,1.427c0.301,0.608,0.452,1.301,0.452,2.073
			c0,0.783-0.159,1.485-0.475,2.104c-0.317,0.62-0.767,1.087-1.349,1.404c-0.581,0.318-1.208,0.478-1.881,0.478
			c-0.729,0-1.381-0.176-1.956-0.526c-0.574-0.354-1.01-0.833-1.306-1.441C65.912,64.703,65.765,64.06,65.765,63.38z M66.824,63.393
			c0,0.933,0.25,1.665,0.753,2.201c0.501,0.538,1.131,0.803,1.889,0.803c0.771,0,1.406-0.27,1.905-0.81
			c0.498-0.543,0.748-1.31,0.748-2.304c0-0.628-0.107-1.178-0.32-1.647c-0.213-0.468-0.525-0.832-0.935-1.091
			c-0.412-0.258-0.872-0.387-1.382-0.387c-0.726,0-1.35,0.248-1.874,0.746C67.085,61.4,66.824,62.23,66.824,63.393z"/>
		<path class="primarycolor" d="M78.772,67.152v-7.738h1.025v6.826h3.819v0.912H78.772z"/>
		<path class="primarycolor" d="M95.771,63.38c0-1.282,0.346-2.286,1.037-3.012c0.691-0.727,1.583-1.089,2.675-1.089
			c0.716,0,1.361,0.17,1.936,0.511c0.574,0.341,1.012,0.816,1.313,1.427c0.301,0.608,0.452,1.301,0.452,2.073
			c0,0.783-0.159,1.485-0.477,2.104c-0.316,0.62-0.767,1.087-1.348,1.404c-0.581,0.318-1.209,0.478-1.881,0.478
			c-0.729,0-1.381-0.176-1.956-0.526c-0.574-0.354-1.01-0.833-1.306-1.441C95.919,64.703,95.771,64.06,95.771,63.38z M96.83,63.393
			c0,0.933,0.251,1.665,0.754,2.201c0.501,0.538,1.131,0.803,1.888,0.803c0.772,0,1.407-0.27,1.905-0.81
			c0.5-0.543,0.748-1.31,0.748-2.304c0-0.628-0.106-1.178-0.32-1.647c-0.213-0.468-0.525-0.832-0.935-1.091
			c-0.411-0.258-0.871-0.387-1.382-0.387c-0.726,0-1.349,0.248-1.873,0.746C97.092,61.4,96.83,62.23,96.83,63.393z"/>
		<path class="primarycolor" d="M108.879,67.152v-7.738h5.216v0.912h-4.19v2.399h3.627v0.913h-3.627v3.514H108.879z"/>
		<path class="primarycolor" d="M127.071,67.152v-7.738h1.049l4.065,6.076v-6.076h0.98v7.738h-1.048l-4.067-6.075v6.075H127.071z"/>
		<path class="primarycolor" d="M144.299,59.414h1.024v4.467c0,0.776-0.087,1.394-0.265,1.851c-0.175,0.456-0.494,0.828-0.953,1.115
			c-0.461,0.287-1.063,0.43-1.811,0.43c-0.725,0-1.319-0.125-1.78-0.374c-0.463-0.249-0.792-0.612-0.989-1.083
			c-0.197-0.473-0.296-1.119-0.296-1.938v-4.467h1.025v4.461c0,0.671,0.063,1.165,0.187,1.483c0.126,0.319,0.341,0.563,0.646,0.736
			c0.305,0.171,0.678,0.258,1.119,0.258c0.753,0,1.289-0.17,1.611-0.511c0.32-0.341,0.481-0.998,0.481-1.967V59.414z"/>
		<path class="primarycolor" d="M151.364,67.152v-7.738h3.436c0.689,0,1.217,0.068,1.575,0.208c0.359,0.14,0.646,0.385,0.862,0.736
			c0.215,0.352,0.322,0.739,0.322,1.164c0,0.55-0.178,1.012-0.534,1.388c-0.355,0.375-0.905,0.615-1.647,0.716
			c0.27,0.132,0.476,0.261,0.615,0.387c0.299,0.275,0.583,0.62,0.85,1.031l1.342,2.108h-1.281l-1.024-1.612
			c-0.301-0.463-0.547-0.82-0.741-1.066c-0.193-0.248-0.366-0.42-0.521-0.518c-0.152-0.097-0.309-0.165-0.468-0.202
			c-0.116-0.023-0.307-0.037-0.571-0.037h-1.189v3.436H151.364z M152.389,62.827h2.205c0.468,0,0.835-0.048,1.098-0.144
			c0.266-0.099,0.465-0.252,0.604-0.467c0.138-0.211,0.206-0.443,0.206-0.691c0-0.365-0.133-0.666-0.398-0.901
			c-0.267-0.236-0.687-0.353-1.261-0.353h-2.453V62.827z"/>
		<path class="primarycolor" d="M163.149,64.663l0.969-0.089c0.046,0.388,0.152,0.707,0.317,0.955c0.166,0.249,0.426,0.45,0.776,0.604
			c0.351,0.152,0.745,0.229,1.184,0.229c0.39,0,0.732-0.057,1.03-0.174s0.519-0.277,0.666-0.48c0.145-0.202,0.218-0.423,0.218-0.661
			c0-0.241-0.07-0.452-0.209-0.632c-0.142-0.181-0.372-0.333-0.693-0.455c-0.209-0.082-0.667-0.207-1.374-0.378
			c-0.708-0.171-1.205-0.331-1.489-0.482c-0.373-0.193-0.646-0.434-0.829-0.722c-0.181-0.287-0.272-0.609-0.272-0.964
			c0-0.393,0.111-0.757,0.332-1.098c0.221-0.34,0.545-0.598,0.969-0.774c0.425-0.176,0.898-0.264,1.418-0.264
			c0.572,0,1.076,0.092,1.514,0.277c0.438,0.184,0.773,0.456,1.01,0.813c0.235,0.358,0.361,0.765,0.379,1.218l-0.98,0.078
			c-0.052-0.484-0.229-0.854-0.532-1.102c-0.304-0.249-0.752-0.373-1.344-0.373c-0.618,0-1.066,0.114-1.35,0.34
			c-0.283,0.228-0.423,0.5-0.423,0.82c0,0.277,0.101,0.505,0.3,0.684c0.196,0.181,0.709,0.363,1.538,0.553
			c0.828,0.188,1.397,0.353,1.708,0.491c0.45,0.209,0.783,0.471,0.997,0.789c0.216,0.317,0.322,0.682,0.322,1.097
			c0,0.411-0.117,0.798-0.353,1.162c-0.236,0.363-0.574,0.646-1.015,0.848c-0.441,0.201-0.937,0.302-1.488,0.302
			c-0.699,0-1.286-0.101-1.757-0.306c-0.474-0.204-0.846-0.509-1.113-0.919C163.306,65.641,163.163,65.18,163.149,64.663z"/>
		<path class="primarycolor" d="M175.207,67.152v-7.738h1.024v7.738H175.207z"/>
		<path class="primarycolor" d="M182.344,67.152v-7.738h1.05l4.063,6.076v-6.076h0.98v7.738h-1.048l-4.066-6.075v6.075H182.344z"/>
		<path class="primarycolor" d="M198.119,64.111v-0.912h3.277v2.869c-0.504,0.401-1.025,0.702-1.561,0.906
			c-0.534,0.201-1.084,0.302-1.647,0.302c-0.761,0-1.453-0.161-2.075-0.487c-0.619-0.325-1.09-0.797-1.407-1.412
			c-0.315-0.615-0.475-1.304-0.475-2.063c0-0.752,0.159-1.453,0.475-2.105c0.313-0.653,0.768-1.138,1.359-1.455
			c0.591-0.315,1.272-0.474,2.043-0.474c0.562,0,1.065,0.091,1.52,0.271c0.452,0.182,0.808,0.434,1.063,0.757
			c0.258,0.324,0.454,0.747,0.586,1.269l-0.92,0.252c-0.118-0.393-0.263-0.702-0.434-0.927c-0.175-0.225-0.42-0.407-0.741-0.542
			c-0.32-0.135-0.676-0.201-1.067-0.201c-0.468,0-0.873,0.071-1.214,0.213c-0.343,0.144-0.617,0.331-0.827,0.563
			c-0.209,0.234-0.373,0.488-0.487,0.765c-0.198,0.481-0.295,1.001-0.295,1.559c0,0.691,0.118,1.27,0.354,1.734
			c0.239,0.464,0.586,0.81,1.039,1.035c0.454,0.226,0.935,0.337,1.448,0.337c0.442,0,0.875-0.085,1.298-0.257
			c0.422-0.171,0.743-0.353,0.963-0.548v-1.447H198.119z"/>
	</g>
</g>
</svg>
