<?xml version="1.0" encoding="iso-8859-1"?>
<svg version="1.2" baseProfile="tiny" class="logocolor msu" xmlns="http://www.w3.org/2000/svg" xmlns:xlink="http://www.w3.org/1999/xlink" viewBox="0 0 215 70" xml:space="preserve">
<g>
	<path class="primarycolor" d="M117.469,31.468c0.346-0.072,0.887-0.128,1.439-0.128c0.785,0,1.291,0.136,1.672,0.444
		c0.318,0.234,0.506,0.598,0.506,1.076c0,0.587-0.387,1.103-1.033,1.338v0.018c0.582,0.145,1.26,0.624,1.26,1.527
		c0,0.523-0.209,0.922-0.516,1.222c-0.426,0.39-1.111,0.568-2.107,0.568c-0.541,0-0.957-0.036-1.221-0.072V31.468z M118.258,33.963
		h0.713c0.832,0,1.32-0.436,1.32-1.021c0-0.714-0.543-0.994-1.338-0.994c-0.361,0-0.57,0.026-0.695,0.055V33.963z M118.258,36.884
		c0.152,0.025,0.379,0.035,0.658,0.035c0.813,0,1.563-0.297,1.563-1.184c0-0.832-0.711-1.175-1.57-1.175h-0.65V36.884z"/>
	<path class="primarycolor" d="M122.385,34.469c0-0.515-0.01-0.957-0.037-1.365h0.697l0.025,0.859h0.039c0.197-0.589,0.678-0.957,1.213-0.957
		c0.09,0,0.15,0.006,0.223,0.026v0.749c-0.082-0.019-0.16-0.026-0.27-0.026c-0.561,0-0.959,0.425-1.068,1.021
		c-0.02,0.109-0.035,0.234-0.035,0.37v2.333h-0.787V34.469z"/>
	<path class="primarycolor" d="M129.254,35.256c0,1.618-1.121,2.321-2.18,2.321c-1.184,0-2.094-0.864-2.094-2.25c0-1.462,0.955-2.323,2.168-2.323
		C128.404,33.004,129.254,33.918,129.254,35.256 M125.783,35.302c0,0.956,0.551,1.682,1.33,1.682c0.758,0,1.326-0.717,1.326-1.702
		c0-0.74-0.369-1.678-1.309-1.678C126.189,33.604,125.783,34.469,125.783,35.302"/>
	<path class="primarycolor" d="M133.375,36.432c0,0.379,0.018,0.751,0.072,1.048h-0.723l-0.063-0.553h-0.027c-0.244,0.346-0.717,0.649-1.34,0.649
		c-0.885,0-1.336-0.622-1.336-1.255c0-1.058,0.939-1.637,2.629-1.626v-0.09c0-0.362-0.1-1.014-0.996-1.014
		c-0.404,0-0.83,0.127-1.139,0.326l-0.18-0.525c0.363-0.234,0.887-0.389,1.436-0.389c1.34,0,1.666,0.914,1.666,1.79V36.432z
		 M132.607,35.246c-0.869-0.017-1.855,0.136-1.855,0.985c0,0.516,0.344,0.76,0.75,0.76c0.57,0,0.936-0.362,1.059-0.733
		c0.027-0.08,0.047-0.171,0.047-0.251V35.246z"/>
	<path class="primarycolor" d="M138.48,31.062v5.286c0,0.391,0.008,0.835,0.035,1.132h-0.713l-0.035-0.76h-0.02c-0.244,0.488-0.777,0.857-1.492,0.857
		c-1.057,0-1.871-0.892-1.871-2.222c-0.008-1.457,0.896-2.35,1.963-2.35c0.668,0,1.119,0.313,1.318,0.668h0.018v-2.612H138.48z
		 M137.684,34.886c0-0.101-0.008-0.237-0.035-0.334c-0.117-0.508-0.553-0.924-1.148-0.924c-0.82,0-1.309,0.724-1.309,1.691
		c0,0.885,0.432,1.618,1.291,1.618c0.533,0,1.021-0.354,1.166-0.948c0.027-0.11,0.035-0.221,0.035-0.345V34.886z"/>
	<path class="primarycolor" d="M146.088,37.28c-0.291,0.146-0.867,0.297-1.609,0.297c-1.717,0-3.008-1.091-3.008-3.089c0-1.91,1.291-3.199,3.182-3.199
		c0.756,0,1.238,0.159,1.445,0.27l-0.191,0.642c-0.299-0.145-0.723-0.252-1.227-0.252c-1.43,0-2.379,0.913-2.379,2.512
		c0,1.492,0.857,2.449,2.342,2.449c0.477,0,0.965-0.099,1.283-0.253L146.088,37.28z"/>
	<path class="primarycolor" d="M150.949,35.256c0,1.618-1.119,2.321-2.182,2.321c-1.182,0-2.094-0.864-2.094-2.25c0-1.462,0.959-2.323,2.168-2.323
		C150.1,33.004,150.949,33.918,150.949,35.256 M147.479,35.302c0,0.956,0.553,1.682,1.328,1.682c0.762,0,1.33-0.717,1.33-1.702
		c0-0.74-0.371-1.678-1.313-1.678C147.885,33.604,147.479,34.469,147.479,35.302"/>
	<rect x="151.994" y="31.062" class="primarycolor"  width="0.799" height="6.418"/>
	<rect x="154.174" y="31.062" class="primarycolor" width="0.795" height="6.418"/>
	<path class="primarycolor" d="M156.793,35.437c0.02,1.077,0.705,1.518,1.504,1.518c0.568,0,0.91-0.098,1.209-0.226l0.135,0.57
		c-0.277,0.127-0.758,0.278-1.455,0.278c-1.346,0-2.15-0.892-2.15-2.213c0-1.32,0.777-2.36,2.053-2.36
		c1.426,0,1.807,1.257,1.807,2.062c0,0.164-0.018,0.29-0.029,0.371H156.793z M159.127,34.867c0.01-0.507-0.209-1.295-1.105-1.295
		c-0.805,0-1.154,0.744-1.219,1.295H159.127z"/>
	<path class="primarycolor" d="M164.656,36.848c0,1.002-0.197,1.617-0.623,1.996c-0.424,0.397-1.041,0.525-1.594,0.525c-0.523,0-1.102-0.128-1.453-0.364
		l0.199-0.603c0.289,0.181,0.742,0.342,1.281,0.342c0.814,0,1.412-0.426,1.412-1.526v-0.489h-0.02
		c-0.242,0.407-0.711,0.732-1.393,0.732c-1.084,0-1.861-0.921-1.861-2.134c0-1.481,0.967-2.321,1.973-2.321
		c0.758,0,1.174,0.395,1.365,0.758h0.018l0.035-0.66h0.697c-0.018,0.318-0.037,0.671-0.037,1.202V36.848z M163.871,34.831
		c0-0.136-0.012-0.252-0.045-0.362c-0.146-0.461-0.535-0.841-1.111-0.841c-0.762,0-1.303,0.642-1.303,1.653
		c0,0.86,0.434,1.575,1.289,1.575c0.49,0,0.934-0.307,1.105-0.813c0.047-0.138,0.064-0.293,0.064-0.426V34.831z"/>
	<path class="primarycolor" d="M166.461,35.437c0.02,1.077,0.707,1.518,1.502,1.518c0.572,0,0.914-0.098,1.211-0.226l0.139,0.57
		c-0.281,0.127-0.762,0.278-1.459,0.278c-1.346,0-2.15-0.892-2.15-2.213c0-1.32,0.777-2.36,2.053-2.36
		c1.428,0,1.807,1.257,1.807,2.062c0,0.164-0.018,0.29-0.027,0.371H166.461z M168.795,34.867c0.01-0.507-0.209-1.295-1.102-1.295
		c-0.807,0-1.16,0.744-1.223,1.295H168.795z"/>
	<path class="primarycolor" d="M176.512,35.256c0,1.618-1.121,2.321-2.18,2.321c-1.184,0-2.094-0.864-2.094-2.25c0-1.462,0.957-2.323,2.168-2.323
		C175.664,33.004,176.512,33.918,176.512,35.256 M173.043,35.302c0,0.956,0.549,1.682,1.326,1.682c0.76,0,1.33-0.717,1.33-1.702
		c0-0.74-0.373-1.678-1.313-1.678S173.043,34.469,173.043,35.302"/>
	<path class="primarycolor" d="M177.639,37.479v-3.77h-0.615v-0.606h0.615v-0.21c0-0.613,0.135-1.173,0.508-1.525c0.297-0.288,0.695-0.406,1.066-0.406
		c0.279,0,0.523,0.063,0.678,0.127l-0.109,0.614c-0.115-0.055-0.279-0.1-0.506-0.1c-0.678,0-0.85,0.597-0.85,1.266v0.234h1.057
		v0.606h-1.057v3.77H177.639z"/>
	<path class="primarycolor" d="M182.229,31.468c0.346-0.072,0.885-0.128,1.438-0.128c0.789,0,1.295,0.136,1.672,0.444
		c0.316,0.234,0.506,0.598,0.506,1.076c0,0.587-0.387,1.103-1.029,1.338v0.018c0.578,0.145,1.256,0.624,1.256,1.527
		c0,0.523-0.209,0.922-0.518,1.222c-0.422,0.39-1.107,0.568-2.104,0.568c-0.541,0-0.959-0.036-1.221-0.072V31.468z M183.016,33.963
		h0.715c0.832,0,1.32-0.436,1.32-1.021c0-0.714-0.543-0.994-1.34-0.994c-0.361,0-0.57,0.026-0.695,0.055V33.963z M183.016,36.884
		c0.154,0.025,0.381,0.035,0.658,0.035c0.814,0,1.564-0.297,1.564-1.184c0-0.832-0.713-1.175-1.572-1.175h-0.65V36.884z"/>
	<path class="primarycolor" d="M190.807,36.286c0,0.452,0.008,0.85,0.035,1.193h-0.707l-0.045-0.713h-0.018c-0.207,0.353-0.67,0.811-1.445,0.811
		c-0.686,0-1.512-0.378-1.512-1.915v-2.559h0.797v2.423c0,0.833,0.254,1.393,0.979,1.393c0.533,0,0.9-0.369,1.047-0.723
		c0.045-0.119,0.07-0.264,0.07-0.407v-2.686h0.799V36.286z"/>
	<path class="primarycolor" d="M192.061,36.665c0.234,0.154,0.65,0.318,1.049,0.318c0.58,0,0.848-0.291,0.848-0.653c0-0.378-0.227-0.587-0.813-0.804
		c-0.785-0.28-1.156-0.714-1.156-1.238c0-0.705,0.57-1.284,1.51-1.284c0.441,0,0.832,0.127,1.074,0.271l-0.197,0.579
		c-0.172-0.107-0.488-0.252-0.895-0.252c-0.471,0-0.734,0.27-0.734,0.595c0,0.363,0.264,0.525,0.834,0.742
		c0.758,0.29,1.146,0.669,1.146,1.318c0,0.771-0.598,1.318-1.637,1.318c-0.479,0-0.922-0.123-1.229-0.304L192.061,36.665z"/>
	<path class="primarycolor" d="M196.68,31.875c0.006,0.271-0.191,0.488-0.508,0.488c-0.279,0-0.48-0.218-0.48-0.488c0-0.281,0.209-0.496,0.5-0.496
		C196.488,31.379,196.68,31.594,196.68,31.875 M195.793,33.104h0.795v4.376h-0.795V33.104z"/>
	<path class="primarycolor" d="M197.951,34.288c0-0.451-0.01-0.824-0.037-1.185h0.705l0.047,0.723h0.018c0.219-0.417,0.725-0.822,1.447-0.822
		c0.605,0,1.543,0.362,1.543,1.863v2.612h-0.793v-2.521c0-0.705-0.262-1.293-1.014-1.293c-0.521,0-0.93,0.37-1.064,0.811
		c-0.035,0.102-0.055,0.235-0.055,0.372v2.631h-0.797V34.288z"/>
	<path class="primarycolor" d="M203.455,35.437c0.016,1.077,0.703,1.518,1.5,1.518c0.568,0,0.914-0.098,1.211-0.226l0.137,0.57
		c-0.281,0.127-0.76,0.278-1.457,0.278c-1.346,0-2.15-0.892-2.15-2.213c0-1.32,0.775-2.36,2.055-2.36
		c1.426,0,1.805,1.257,1.805,2.062c0,0.164-0.018,0.29-0.029,0.371H203.455z M205.787,34.867c0.01-0.507-0.209-1.295-1.102-1.295
		c-0.807,0-1.158,0.744-1.223,1.295H205.787z"/>
	<path class="primarycolor" d="M207.475,36.665c0.234,0.154,0.65,0.318,1.051,0.318c0.578,0,0.846-0.291,0.846-0.653c0-0.378-0.225-0.587-0.811-0.804
		c-0.787-0.28-1.158-0.714-1.158-1.238c0-0.705,0.568-1.284,1.51-1.284c0.443,0,0.832,0.127,1.076,0.271l-0.199,0.579
		c-0.172-0.107-0.486-0.252-0.896-0.252c-0.467,0-0.73,0.27-0.73,0.595c0,0.363,0.264,0.525,0.832,0.742
		c0.758,0.29,1.148,0.669,1.148,1.318c0,0.771-0.598,1.318-1.635,1.318c-0.48,0-0.924-0.123-1.23-0.304L207.475,36.665z"/>
	<path class="primarycolor" d="M211.1,36.665c0.234,0.154,0.65,0.318,1.047,0.318c0.58,0,0.85-0.291,0.85-0.653c0-0.378-0.227-0.587-0.811-0.804
		c-0.789-0.28-1.16-0.714-1.16-1.238c0-0.705,0.57-1.284,1.51-1.284c0.443,0,0.834,0.127,1.076,0.271l-0.197,0.579
		c-0.174-0.107-0.49-0.252-0.898-0.252c-0.467,0-0.729,0.27-0.729,0.595c0,0.363,0.262,0.525,0.83,0.742
		c0.76,0.29,1.15,0.669,1.15,1.318c0,0.771-0.598,1.318-1.641,1.318c-0.477,0-0.922-0.123-1.227-0.304L211.1,36.665z"/>
	<rect x="109.092" y="20.086" class="primarycolor" width="0.279" height="29.828"/>
	<path class="primarycolor" d="M2.788,39.479v3.873c0,0.646,0.21,1.56,1.352,1.56c1.042,0,1.42-0.718,1.42-1.635l-0.018-3.798
		c0-0.217-0.104-0.346-0.236-0.42h1.017c-0.129,0.074-0.228,0.203-0.228,0.42l-0.026,3.78c0,1.572-0.886,2.185-2.08,2.185
		c-1.026,0-2.333-0.485-2.333-2.121v-3.844c0-0.217-0.138-0.346-0.278-0.42h1.684C2.92,39.134,2.788,39.263,2.788,39.479"/>
	<path class="primarycolor" d="M17.613,39.479c0-0.217-0.088-0.346-0.228-0.42h0.976c-0.134,0.074-0.232,0.203-0.232,0.42v6.126
		c0,0-4.21-5.229-4.21-5.309v4.638c0,0.203,0.098,0.331,0.248,0.416h-0.976c0.132-0.085,0.229-0.213,0.229-0.416v-4.942
		c0-0.355,0.007-0.369-0.156-0.578c-0.091-0.115-0.211-0.242-0.396-0.354h1.508l3.238,4.073V39.479z"/>
	<path class="primarycolor" d="M26.929,39.06c-0.148,0.074-0.228,0.203-0.228,0.421v5.454c0,0.203,0.08,0.331,0.228,0.416h-1.591
		c0.145-0.085,0.231-0.213,0.231-0.416V39.48c0-0.218-0.087-0.347-0.231-0.421H26.929z"/>
	<path class="primarycolor" d="M37.621,39.526c0.079-0.244,0.043-0.37-0.186-0.467h1.072c-0.229,0.16-0.246,0.223-0.335,0.446
		c-0.149,0.361-2.263,6.036-2.263,6.036s-2.289-5.69-2.454-6.036c-0.104-0.187-0.21-0.334-0.474-0.446h1.939
		c-0.227,0.097-0.247,0.286-0.184,0.514c0.018,0.078,1.484,3.884,1.484,3.884S37.613,39.592,37.621,39.526"/>
	<path class="primarycolor" d="M48.271,39.875c-0.167-0.238-0.35-0.315-0.681-0.33c-0.266-0.019-1.494-0.019-1.494-0.019v2.127h1.324
		c0.124,0,0.274-0.153,0.319-0.262v0.979c-0.045-0.13-0.195-0.269-0.319-0.269h-1.324v2.718c0.176,0.029,0.708,0.069,1.14,0.046
		c0.763-0.017,1.115,0,1.438-0.578l-0.185,1.063h-3.771c0.149-0.093,0.261-0.197,0.261-0.416v-5.455c0-0.217-0.12-0.346-0.261-0.42
		h3.527L48.271,39.875z"/>
	<path class="primarycolor" d="M57.884,42.163c0.598,0.062,0.861,0.484,0.99,0.691c0,0,1.055,1.756,1.363,2.125
		c0.163,0.222,0.558,0.371,0.558,0.371l-1.139,0.021c-0.332,0-0.621-0.219-0.782-0.438c-0.393-0.581-0.777-1.261-1.097-1.779
		c-0.227-0.369-0.426-0.763-0.805-0.763c-0.108,0-0.385,0.018-0.385,0.018v2.524c0,0.203,0.095,0.331,0.242,0.416h-1.585
		c0.143-0.085,0.229-0.213,0.229-0.416v-5.455c0-0.217-0.086-0.346-0.229-0.42h1.896c1.813,0,2.225,0.933,2.225,1.556
		C59.366,41.61,58.506,42.113,57.884,42.163 M56.587,39.526v2.408c0,0,0.242,0.02,0.394,0.02c0.598,0,1.228-0.347,1.228-1.284
		c0-0.425-0.245-1.164-1.112-1.164C56.83,39.506,56.587,39.526,56.587,39.526"/>
	<path class="primarycolor" d="M70.42,43.501c0,1.155-0.964,1.943-2.045,1.943c-0.799,0-1.375-0.291-1.681-0.444l-0.043-1.566
		c0.164,0.66,0.691,1.525,1.603,1.525c0.87,0,1.134-0.652,1.134-1.111c0-0.882-0.764-1.006-1.564-1.455
		c-0.806-0.475-1.158-0.97-1.158-1.678c0-1.255,1.115-1.755,1.914-1.755c0.297,0,0.876,0.062,1.324,0.339l0.045,1.37
		c-0.122-0.49-0.624-1.231-1.467-1.231c-0.665,0-0.931,0.493-0.931,0.892c0,0.561,0.378,0.774,1.203,1.171
		C69.571,41.907,70.42,42.213,70.42,43.501"/>
	<path class="primarycolor" d="M78.858,39.06c-0.147,0.074-0.229,0.203-0.229,0.421v5.454c0,0.203,0.082,0.331,0.229,0.416h-1.587
		c0.141-0.085,0.227-0.213,0.227-0.416V39.48c0-0.218-0.086-0.347-0.227-0.421H78.858z"/>
	<path class="primarycolor" d="M88.384,39.526v5.408c0,0.203,0.098,0.331,0.226,0.416h-1.568c0.141-0.085,0.228-0.213,0.228-0.416v-5.408
		c-0.647,0-1.4,0.065-1.4,0.065c-0.214,0-0.362,0.214-0.44,0.366V39.06h4.809v0.898c-0.082-0.152-0.205-0.351-0.411-0.366
		C89.827,39.592,89.026,39.526,88.384,39.526"/>
	<path class="primarycolor" d="M101.321,39.06c-0.269,0.097-0.47,0.354-0.58,0.563l-1.4,2.816v2.495c0,0.203,0.169,0.331,0.309,0.416
		h-1.755c0.132-0.085,0.3-0.197,0.3-0.416v-2.46l-1.723-2.969c-0.125-0.224-0.219-0.317-0.455-0.446h1.982
		c-0.22,0.097-0.371,0.142-0.139,0.577l1.235,2.271l1.156-2.381c0.125-0.207,0.065-0.399-0.185-0.467H101.321z"/>
	<path class="primarycolor" d="M8.19,24.559h2.061c-0.196,0.103-0.319,0.281-0.319,0.58v7.576c0,0.279,0.123,0.464,0.319,0.578H8.067
		c0.196-0.114,0.32-0.299,0.32-0.578v-6.46c0-0.156,0.021-0.294,0.021-0.294l-0.11,0.294l-2.924,7.216l-2.946-7.013l-0.086-0.346
		v0.346v6.257c0,0.279,0.132,0.464,0.34,0.578H1.332c0.182-0.114,0.315-0.299,0.315-0.578v-7.576c0-0.245-0.195-0.477-0.39-0.58
		h2.144l2.438,5.894L8.19,24.559z"/>
	<path class="primarycolor" d="M14.427,24.559c-0.204,0.103-0.318,0.281-0.318,0.58v7.576c0,0.279,0.114,0.464,0.318,0.578h-2.203
		c0.194-0.114,0.314-0.299,0.314-0.578v-7.576c0-0.298-0.12-0.477-0.314-0.58H14.427z"/>
	<path class="primarycolor" d="M23.772,27.076c-0.743-1.785-2.167-1.963-2.753-1.963c-2.081,0-3.265,1.603-3.265,3.671
		c0,1.761,0.84,3.931,3.351,3.931c0.571,0,1.949-0.205,2.754-1.966c0.023-0.053-0.111,1.85-0.111,1.85
		c-1.009,0.604-2.094,0.824-3.094,0.824c-2.398,0-4.534-1.735-4.534-4.471c0-2.248,1.583-4.535,4.677-4.535
		c1.002,0,1.916,0.205,2.865,0.668C23.662,25.085,23.798,27.127,23.772,27.076"/>
	<path class="primarycolor" d="M30.912,24.559h2.205c-0.206,0.103-0.339,0.281-0.339,0.58v7.576c0,0.279,0.134,0.464,0.339,0.578h-2.205
		c0.195-0.114,0.317-0.299,0.317-0.578v-3.931h-3.788v3.931c0,0.279,0.107,0.464,0.314,0.578h-2.207
		c0.197-0.114,0.319-0.299,0.319-0.578v-7.576c0-0.298-0.122-0.477-0.319-0.58h2.207c-0.208,0.103-0.314,0.281-0.314,0.58v3.016
		h3.788v-3.016C31.229,24.84,31.106,24.662,30.912,24.559"/>
	<path class="primarycolor" d="M37.284,24.559c-0.208,0.103-0.318,0.281-0.318,0.58v7.576c0,0.279,0.11,0.464,0.318,0.578h-2.207
		c0.195-0.114,0.318-0.299,0.318-0.578v-7.576c0-0.298-0.123-0.477-0.318-0.58H37.284z"/>
	<path class="primarycolor" d="M46.554,25.085l0.086,2.042c-0.624-1.745-2.17-2.015-2.742-2.015c-2.073,0-3.266,1.603-3.266,3.671
		c0,1.761,0.832,3.931,3.351,3.931c0.254,0,0.976-0.026,1.548-0.424v-2.235c0-0.294-0.123-0.475-0.317-0.589h2.182
		c-0.182,0.114-0.318,0.295-0.318,0.589v1.901c0,0.255,0.136,0.488,0.195,0.527c-1.024,0.604-2.755,0.938-3.729,0.938
		c-2.426,0-4.568-1.735-4.568-4.471c0-2.248,1.595-4.535,4.717-4.535C44.69,24.417,45.593,24.651,46.554,25.085"/>
	<path class="primarycolor" d="M55.448,32.66c0.123,0.272,0.205,0.414,0.608,0.634H53.45c0.317-0.185,0.375-0.361,0.293-0.634
		c-0.037-0.127-0.354-0.907-0.694-1.779h-2.987c-0.366,0.872-0.658,1.63-0.684,1.767c-0.106,0.312-0.046,0.49,0.283,0.646H47.98
		c0.341-0.245,0.451-0.389,0.57-0.634c0.235-0.484,3.439-8.371,3.439-8.371S55.231,32.176,55.448,32.66 M52.767,30.211
		c-0.569-1.427-1.241-3.147-1.241-3.147s-0.83,2.182-1.22,3.147H52.767z"/>
	<path class="primarycolor" d="M62.955,25.139c0-0.298-0.122-0.477-0.315-0.58h1.349c-0.18,0.103-0.317,0.281-0.317,0.58v8.515
		c0,0-5.848-7.27-5.848-7.372v6.433c0,0.279,0.136,0.464,0.344,0.578h-1.354c0.184-0.114,0.318-0.299,0.318-0.578v-6.859
		c0-0.498,0.011-0.513-0.22-0.808c-0.123-0.154-0.293-0.336-0.55-0.488h2.095l4.499,5.652V25.139z"/>
	<path class="primarycolor" d="M73.978,30.724c0,1.604-1.339,2.699-2.839,2.699c-1.108,0-1.913-0.401-2.338-0.621l-0.06-2.169
		c0.23,0.913,0.961,2.118,2.229,2.118c1.205,0,1.572-0.912,1.572-1.538c0-1.232-1.061-1.402-2.17-2.03
		c-1.121-0.657-1.609-1.351-1.609-2.324c0-1.746,1.549-2.441,2.658-2.441c0.414,0,1.218,0.089,1.837,0.476l0.062,1.9
		c-0.168-0.68-0.865-1.708-2.036-1.708c-0.924,0-1.29,0.68-1.29,1.232c0,0.785,0.523,1.079,1.67,1.632
		C72.797,28.512,73.978,28.939,73.978,30.724"/>
	<path class="primarycolor" d="M78.84,25.202v7.513c0,0.279,0.135,0.464,0.317,0.579h-2.18c0.195-0.115,0.316-0.3,0.316-0.579v-7.513
		c-0.902,0-1.95,0.088-1.95,0.088c-0.292,0-0.5,0.3-0.608,0.516v-1.247h6.678v1.247c-0.111-0.216-0.282-0.488-0.574-0.516
		C80.839,25.29,79.731,25.202,78.84,25.202"/>
	<path class="primarycolor" d="M87.757,32.66c0.124,0.272,0.207,0.414,0.613,0.634h-2.61c0.318-0.185,0.377-0.361,0.293-0.634
		c-0.036-0.127-0.355-0.907-0.695-1.779h-2.985c-0.364,0.872-0.657,1.63-0.679,1.767c-0.112,0.312-0.05,0.49,0.276,0.646h-1.68
		c0.342-0.245,0.449-0.389,0.573-0.634c0.232-0.484,3.436-8.371,3.436-8.371S87.541,32.176,87.757,32.66 M85.076,30.211
		c-0.57-1.427-1.24-3.147-1.24-3.147s-0.826,2.182-1.22,3.147H85.076z"/>
	<path class="primarycolor" d="M91.55,25.202v7.513c0,0.279,0.134,0.464,0.313,0.579h-2.177c0.191-0.115,0.315-0.3,0.315-0.579v-7.513
		c-0.901,0-1.95,0.088-1.95,0.088c-0.293,0-0.5,0.3-0.607,0.516v-1.247h6.676v1.247c-0.11-0.216-0.279-0.488-0.571-0.516
		C93.55,25.29,92.439,25.202,91.55,25.202"/>
	<path class="primarycolor" d="M100.369,25.69c-0.232-0.333-0.488-0.435-0.95-0.463c-0.368-0.025-2.071-0.025-2.071-0.025v2.953h1.841
		c0.167,0,0.376-0.205,0.438-0.359v1.363c-0.062-0.183-0.271-0.375-0.438-0.375h-1.841v3.775c0.248,0.04,0.985,0.089,1.586,0.065
		c1.059-0.025,1.549,0,1.994-0.807l-0.252,1.476h-5.239c0.206-0.13,0.365-0.271,0.365-0.578v-7.576c0-0.298-0.172-0.477-0.365-0.58
		h4.897L100.369,25.69z"/>
	<rect x="1.233" y="35.557" class="primarycolor" width="99.907" height="0.675"/>
</g>
</svg>
