<?xml version="1.0" encoding="iso-8859-1"?>
<svg version="1.2" baseProfile="tiny" class="logocolor msu" xmlns="http://www.w3.org/2000/svg" xmlns:xlink="http://www.w3.org/1999/xlink" viewBox="0 0 215 70" xml:space="preserve">
<g>
	<polygon class="primarycolor" points="111.291,48.994 111.291,21.006 112.003,21.006 112.003,48.994 111.291,48.994 	"/>
	<g>
		<g>
			<path class="primarycolor" d="M2.708,39.164v3.932c0,0.656,0.213,1.586,1.371,1.586c1.059,0,1.442-0.732,1.442-1.661l-0.018-3.856
				c0-0.216-0.107-0.349-0.24-0.424h1.032c-0.134,0.075-0.232,0.208-0.232,0.424l-0.026,3.838c0,1.595-0.899,2.214-2.11,2.214
				c-1.042,0-2.368-0.487-2.368-2.148v-3.903c0-0.216-0.143-0.349-0.285-0.424h1.709C2.842,38.815,2.708,38.948,2.708,39.164z"/>
			<path class="primarycolor" d="M17.752,39.164c0-0.216-0.089-0.349-0.231-0.424h0.988c-0.133,0.075-0.231,0.208-0.231,0.424v6.221
				c0,0-4.273-5.312-4.273-5.386V44.7c0,0.207,0.098,0.338,0.25,0.423h-0.988c0.133-0.085,0.231-0.216,0.231-0.423v-5.012
				c0-0.366,0.008-0.375-0.16-0.592c-0.089-0.112-0.214-0.243-0.401-0.356h1.532l3.284,4.129V39.164z"/>
			<path class="primarycolor" d="M27.207,38.74c-0.152,0.075-0.231,0.208-0.231,0.424V44.7c0,0.207,0.08,0.338,0.231,0.423h-1.612
				c0.143-0.085,0.231-0.216,0.231-0.423v-5.536c0-0.216-0.089-0.349-0.231-0.424H27.207z"/>
			<path class="primarycolor" d="M38.059,39.21c0.08-0.243,0.045-0.375-0.187-0.47h1.086c-0.232,0.16-0.25,0.227-0.338,0.45
				c-0.151,0.367-2.297,6.129-2.297,6.129S34,39.539,33.83,39.19c-0.106-0.188-0.214-0.337-0.481-0.45h1.968
				c-0.231,0.095-0.249,0.292-0.187,0.518c0.019,0.084,1.505,3.941,1.505,3.941S38.05,39.276,38.059,39.21z"/>
			<path class="primarycolor" d="M48.865,39.567c-0.168-0.245-0.355-0.32-0.693-0.339c-0.268-0.019-1.514-0.019-1.514-0.019v2.158h1.344
				c0.125,0,0.276-0.149,0.321-0.262v0.994c-0.045-0.132-0.196-0.271-0.321-0.271h-1.344v2.759c0.178,0.027,0.721,0.065,1.157,0.046
				c0.775-0.019,1.131,0,1.46-0.591l-0.187,1.08H45.26c0.151-0.095,0.267-0.197,0.267-0.423v-5.536c0-0.216-0.124-0.349-0.267-0.424
				h3.579L48.865,39.567z"/>
			<path class="primarycolor" d="M58.623,41.885c0.606,0.065,0.873,0.497,1.006,0.704c0,0,1.068,1.783,1.38,2.158
				c0.168,0.225,0.57,0.376,0.57,0.376l-1.158,0.019c-0.338,0-0.631-0.216-0.792-0.441c-0.4-0.592-0.792-1.277-1.113-1.802
				c-0.231-0.376-0.436-0.778-0.818-0.778c-0.107,0-0.392,0.019-0.392,0.019V44.7c0,0.207,0.098,0.338,0.249,0.423h-1.61
				c0.142-0.085,0.231-0.216,0.231-0.423v-5.536c0-0.216-0.089-0.349-0.231-0.424h1.922c1.843,0,2.261,0.948,2.261,1.578
				C60.126,41.331,59.254,41.838,58.623,41.885z M57.305,39.21v2.449c0,0,0.249,0.02,0.401,0.02c0.605,0,1.246-0.356,1.246-1.305
				c0-0.432-0.249-1.184-1.13-1.184C57.554,39.19,57.305,39.21,57.305,39.21z"/>
			<path class="primarycolor" d="M71.344,43.246c0,1.173-0.979,1.97-2.074,1.97c-0.811,0-1.397-0.29-1.709-0.45l-0.044-1.586
				c0.168,0.667,0.703,1.549,1.628,1.549c0.881,0,1.148-0.666,1.148-1.126c0-0.901-0.774-1.023-1.584-1.482
				c-0.819-0.479-1.175-0.986-1.175-1.7c0-1.276,1.13-1.782,1.94-1.782c0.303,0,0.89,0.066,1.344,0.347l0.045,1.39
				c-0.125-0.498-0.632-1.248-1.487-1.248c-0.676,0-0.943,0.497-0.943,0.901c0,0.571,0.382,0.787,1.22,1.191
				C70.48,41.632,71.344,41.942,71.344,43.246z"/>
			<path class="primarycolor" d="M79.908,38.74c-0.151,0.075-0.232,0.208-0.232,0.424V44.7c0,0.207,0.081,0.338,0.232,0.423h-1.612
				c0.143-0.085,0.232-0.216,0.232-0.423v-5.536c0-0.216-0.089-0.349-0.232-0.424H79.908z"/>
			<path class="primarycolor" d="M89.576,39.21v5.49c0,0.207,0.098,0.338,0.231,0.423h-1.593c0.143-0.085,0.231-0.216,0.231-0.423v-5.49
				c-0.658,0-1.424,0.066-1.424,0.066c-0.213,0-0.365,0.216-0.445,0.374v-0.91h4.878v0.91c-0.08-0.158-0.205-0.355-0.419-0.374
				C91.035,39.276,90.226,39.21,89.576,39.21z"/>
			<path class="primarycolor" d="M102.706,38.74c-0.276,0.095-0.48,0.356-0.587,0.573l-1.424,2.852V44.7c0,0.207,0.168,0.338,0.311,0.423
				h-1.78c0.133-0.085,0.303-0.197,0.303-0.423v-2.497l-1.745-3.013c-0.125-0.224-0.222-0.318-0.462-0.45h2.012
				c-0.223,0.095-0.375,0.142-0.143,0.582l1.255,2.31l1.175-2.422c0.126-0.207,0.063-0.403-0.187-0.47H102.706z"/>
		</g>
		<g>
			<path class="primarycolor" d="M8.19,24.024h2.09c-0.198,0.104-0.322,0.287-0.322,0.586v7.69c0,0.287,0.124,0.469,0.322,0.586H8.067
				c0.198-0.118,0.321-0.3,0.321-0.586v-6.555c0-0.157,0.025-0.3,0.025-0.3l-0.111,0.3l-2.968,7.324l-2.992-7.116l-0.086-0.352
				c0,0,0,0.234,0,0.352V32.3c0,0.287,0.136,0.469,0.346,0.586H1.229c0.186-0.118,0.322-0.3,0.322-0.586v-7.69
				c0-0.247-0.198-0.482-0.396-0.586h2.177l2.473,5.982L8.19,24.024z"/>
			<path class="primarycolor" d="M14.521,24.024c-0.21,0.104-0.321,0.287-0.321,0.586v7.69c0,0.287,0.111,0.469,0.321,0.586h-2.239
				c0.199-0.118,0.322-0.3,0.322-0.586v-7.69c0-0.299-0.124-0.482-0.322-0.586H14.521z"/>
			<path class="primarycolor" d="M24.003,26.578c-0.754-1.812-2.2-1.994-2.794-1.994c-2.114,0-3.314,1.63-3.314,3.728
				c0,1.785,0.854,3.988,3.4,3.988c0.582,0,1.979-0.208,2.795-1.994c0.024-0.052-0.111,1.876-0.111,1.876
				c-1.027,0.612-2.127,0.834-3.141,0.834c-2.436,0-4.6-1.76-4.6-4.536c0-2.281,1.607-4.6,4.748-4.6
				c1.014,0,1.941,0.208,2.906,0.677C23.893,24.558,24.029,26.63,24.003,26.578z"/>
			<path class="primarycolor" d="M31.25,24.024h2.238c-0.209,0.104-0.347,0.287-0.347,0.586v7.69c0,0.287,0.137,0.469,0.347,0.586H31.25
				c0.198-0.118,0.321-0.3,0.321-0.586v-3.988h-3.846V32.3c0,0.287,0.112,0.469,0.323,0.586h-2.239
				c0.198-0.118,0.321-0.3,0.321-0.586v-7.69c0-0.299-0.124-0.482-0.321-0.586h2.239c-0.211,0.104-0.323,0.287-0.323,0.586v3.063
				h3.846V24.61C31.571,24.311,31.447,24.128,31.25,24.024z"/>
			<path class="primarycolor" d="M37.715,24.024c-0.21,0.104-0.322,0.287-0.322,0.586v7.69c0,0.287,0.112,0.469,0.322,0.586h-2.238
				c0.198-0.118,0.322-0.3,0.322-0.586v-7.69c0-0.299-0.124-0.482-0.322-0.586H37.715z"/>
			<path class="primarycolor" d="M47.125,24.558l0.087,2.072c-0.631-1.772-2.201-2.046-2.783-2.046c-2.102,0-3.314,1.63-3.314,3.728
				c0,1.785,0.841,3.988,3.401,3.988c0.259,0,0.989-0.026,1.57-0.43v-2.268c0-0.3-0.124-0.482-0.321-0.6h2.213
				c-0.186,0.117-0.322,0.299-0.322,0.6v1.929c0,0.26,0.136,0.495,0.198,0.534c-1.039,0.612-2.794,0.952-3.784,0.952
				c-2.461,0-4.637-1.76-4.637-4.536c0-2.281,1.619-4.6,4.786-4.6C45.233,23.881,46.147,24.115,47.125,24.558z"/>
			<path class="primarycolor" d="M56.151,32.248c0.123,0.274,0.209,0.417,0.618,0.639h-2.646c0.322-0.182,0.384-0.365,0.297-0.639
				c-0.037-0.13-0.358-0.925-0.705-1.812h-3.029c-0.371,0.887-0.668,1.656-0.693,1.798c-0.111,0.314-0.049,0.496,0.284,0.652H48.57
				c0.346-0.248,0.458-0.391,0.581-0.639c0.235-0.495,3.488-8.498,3.488-8.498S55.928,31.752,56.151,32.248z M53.43,29.758
				c-0.582-1.446-1.261-3.193-1.261-3.193s-0.841,2.216-1.237,3.193H53.43z"/>
			<path class="primarycolor" d="M63.767,24.61c0-0.299-0.124-0.482-0.321-0.586h1.372c-0.186,0.104-0.321,0.287-0.321,0.586v8.641
				c0,0-5.936-7.376-5.936-7.481v6.53c0,0.287,0.136,0.469,0.347,0.586h-1.373c0.187-0.118,0.321-0.3,0.321-0.586V25.34
				c0-0.509,0.014-0.522-0.222-0.821c-0.123-0.157-0.296-0.339-0.557-0.496h2.127l4.563,5.734V24.61z"/>
			<path class="primarycolor" d="M74.956,30.279c0,1.629-1.36,2.737-2.881,2.737c-1.125,0-1.941-0.404-2.374-0.626l-0.061-2.201
				c0.234,0.925,0.976,2.15,2.262,2.15c1.224,0,1.595-0.925,1.595-1.563c0-1.251-1.076-1.421-2.201-2.06
				c-1.137-0.664-1.631-1.368-1.631-2.358c0-1.773,1.57-2.476,2.695-2.476c0.42,0,1.237,0.091,1.867,0.482l0.062,1.929
				c-0.172-0.69-0.877-1.733-2.064-1.733c-0.94,0-1.311,0.69-1.311,1.251c0,0.795,0.531,1.095,1.694,1.655
				C73.756,28.038,74.956,28.468,74.956,30.279z"/>
			<path class="primarycolor" d="M79.89,24.676V32.3c0,0.287,0.136,0.469,0.322,0.586h-2.213c0.197-0.118,0.321-0.3,0.321-0.586v-7.624
				c-0.915,0-1.979,0.09-1.979,0.09c-0.296,0-0.507,0.3-0.618,0.521v-1.264h6.776v1.264c-0.111-0.221-0.284-0.495-0.581-0.521
				C81.918,24.766,80.793,24.676,79.89,24.676z"/>
			<path class="primarycolor" d="M88.94,32.248c0.124,0.274,0.21,0.417,0.618,0.639h-2.646c0.32-0.182,0.382-0.365,0.296-0.639
				c-0.038-0.13-0.359-0.925-0.705-1.812h-3.03c-0.371,0.887-0.668,1.656-0.692,1.798c-0.111,0.314-0.049,0.496,0.285,0.652h-1.708
				c0.347-0.248,0.458-0.391,0.582-0.639c0.235-0.495,3.487-8.498,3.487-8.498S88.717,31.752,88.94,32.248z M86.219,29.758
				c-0.58-1.446-1.261-3.193-1.261-3.193s-0.84,2.216-1.237,3.193H86.219z"/>
			<path class="primarycolor" d="M92.787,24.676V32.3c0,0.287,0.135,0.469,0.321,0.586h-2.213c0.198-0.118,0.321-0.3,0.321-0.586v-7.624
				c-0.915,0-1.978,0.09-1.978,0.09c-0.297,0-0.508,0.3-0.619,0.521v-1.264h6.776v1.264c-0.111-0.221-0.284-0.495-0.582-0.521
				C94.814,24.766,93.689,24.676,92.787,24.676z"/>
			<path class="primarycolor" d="M101.738,25.17c-0.235-0.339-0.494-0.443-0.965-0.469c-0.371-0.025-2.102-0.025-2.102-0.025v2.998h1.868
				c0.173,0,0.383-0.209,0.445-0.365v1.381c-0.063-0.182-0.272-0.377-0.445-0.377h-1.868v3.832c0.248,0.039,1.002,0.09,1.608,0.064
				c1.076-0.026,1.57,0,2.028-0.821l-0.26,1.499H96.73c0.21-0.13,0.371-0.274,0.371-0.586v-7.69c0-0.299-0.174-0.482-0.371-0.586
				h4.971L101.738,25.17z"/>
		</g>
		<rect x="1.13" y="35.185" class="primarycolor" width="101.391" height="0.685"/>
	</g>
	<rect x="185.076" y="31.09" fill="none" width="1.777" height="0"/>
	<g display="none">
	</g>
	<g>
		<path class="primarycolor" d="M119.898,28.083c0.352-0.083,0.915-0.138,1.469-0.138c0.804,0,1.322,0.138,1.701,0.453
			c0.323,0.24,0.525,0.61,0.525,1.1c0,0.609-0.405,1.137-1.053,1.368v0.028c0.592,0.138,1.285,0.628,1.285,1.552
			c0,0.536-0.213,0.952-0.536,1.248c-0.426,0.397-1.128,0.583-2.145,0.583c-0.555,0-0.979-0.038-1.247-0.075V28.083z
			 M120.702,30.635h0.73c0.841,0,1.34-0.453,1.34-1.054c0-0.72-0.546-1.016-1.359-1.016c-0.369,0-0.582,0.027-0.711,0.055V30.635z
			 M120.702,33.61c0.166,0.028,0.388,0.038,0.675,0.038c0.831,0,1.599-0.305,1.599-1.211c0-0.841-0.729-1.201-1.608-1.201h-0.665
			V33.61z"/>
		<path class="primarycolor" d="M124.647,31.143c0-0.527-0.01-0.979-0.037-1.396h0.712l0.037,0.888h0.027
			c0.204-0.601,0.702-0.979,1.248-0.979c0.083,0,0.147,0.008,0.222,0.018v0.767c-0.084-0.018-0.166-0.018-0.277-0.018
			c-0.573,0-0.979,0.425-1.09,1.034c-0.019,0.112-0.027,0.25-0.027,0.379v2.384h-0.814V31.143z"/>
		<path class="primarycolor" d="M131.395,31.947c0,1.654-1.155,2.375-2.228,2.375c-1.201,0-2.145-0.887-2.145-2.301
			c0-1.488,0.989-2.365,2.219-2.365C130.525,29.655,131.395,30.588,131.395,31.947z M127.854,31.992c0,0.98,0.556,1.72,1.35,1.72
			c0.775,0,1.358-0.73,1.358-1.737c0-0.758-0.379-1.71-1.34-1.71C128.271,30.264,127.854,31.152,127.854,31.992z"/>
		<path class="primarycolor" d="M135.331,33.148c0,0.388,0.018,0.767,0.063,1.072h-0.729l-0.064-0.564h-0.027
			c-0.25,0.352-0.731,0.665-1.368,0.665c-0.905,0-1.367-0.637-1.367-1.284c0-1.081,0.96-1.673,2.689-1.663v-0.093
			c0-0.361-0.102-1.035-1.018-1.026c-0.425,0-0.859,0.12-1.174,0.333l-0.184-0.545c0.368-0.231,0.914-0.388,1.479-0.388
			c1.367,0,1.7,0.933,1.7,1.82V33.148z M134.545,31.938c-0.887-0.019-1.895,0.138-1.895,1.007c0,0.536,0.352,0.776,0.758,0.776
			c0.591,0,0.971-0.369,1.1-0.748c0.027-0.092,0.037-0.185,0.037-0.259V31.938z"/>
		<path class="primarycolor" d="M140.266,27.659v5.406c0,0.397,0.019,0.85,0.037,1.155h-0.721l-0.037-0.776h-0.027
			c-0.24,0.499-0.777,0.877-1.507,0.877c-1.081,0-1.922-0.914-1.922-2.273c-0.01-1.488,0.923-2.393,2.005-2.393
			c0.693,0,1.146,0.323,1.35,0.674h0.019v-2.671H140.266z M139.462,31.568c0-0.102-0.01-0.241-0.037-0.343
			c-0.12-0.507-0.563-0.934-1.175-0.934c-0.84,0-1.34,0.739-1.34,1.72c0,0.905,0.453,1.654,1.323,1.654
			c0.545,0,1.044-0.369,1.191-0.971c0.027-0.11,0.037-0.221,0.037-0.351V31.568z"/>
		<path class="primarycolor" d="M147.492,34.026c-0.287,0.148-0.887,0.295-1.646,0.295c-1.756,0-3.068-1.108-3.068-3.161
			c0-1.959,1.321-3.271,3.253-3.271c0.769,0,1.267,0.166,1.479,0.278l-0.203,0.655c-0.296-0.148-0.729-0.258-1.247-0.258
			c-1.46,0-2.43,0.934-2.43,2.568c0,1.534,0.877,2.505,2.384,2.505c0.498,0,0.997-0.102,1.321-0.26L147.492,34.026z"/>
		<path class="primarycolor" d="M152.196,31.947c0,1.654-1.155,2.375-2.228,2.375c-1.201,0-2.144-0.887-2.144-2.301
			c0-1.488,0.988-2.365,2.217-2.365C151.327,29.655,152.196,30.588,152.196,31.947z M148.656,31.992c0,0.98,0.555,1.72,1.35,1.72
			c0.776,0,1.357-0.73,1.357-1.737c0-0.758-0.378-1.71-1.34-1.71C149.072,30.264,148.656,31.152,148.656,31.992z"/>
		<path class="primarycolor" d="M152.99,27.659h0.813v6.562h-0.813V27.659z"/>
		<path class="primarycolor" d="M154.94,27.659h0.813v6.562h-0.813V27.659z"/>
		<path class="primarycolor" d="M157.343,32.131c0.018,1.1,0.711,1.553,1.534,1.553c0.581,0,0.942-0.102,1.238-0.231l0.148,0.583
			c-0.288,0.129-0.786,0.286-1.498,0.286c-1.377,0-2.199-0.914-2.199-2.263c0-1.35,0.794-2.403,2.098-2.403
			c1.469,0,1.849,1.275,1.849,2.097c0,0.167-0.01,0.287-0.028,0.379H157.343z M159.727,31.548c0.009-0.507-0.213-1.312-1.128-1.312
			c-0.831,0-1.183,0.749-1.247,1.312H159.727z"/>
		<path class="primarycolor" d="M165.114,33.564c0,1.035-0.213,1.654-0.638,2.051c-0.443,0.397-1.072,0.536-1.636,0.536
			c-0.536,0-1.128-0.13-1.487-0.37l0.203-0.628c0.296,0.194,0.758,0.361,1.312,0.361c0.831,0,1.442-0.435,1.442-1.571v-0.49h-0.02
			c-0.24,0.416-0.73,0.748-1.423,0.748c-1.109,0-1.903-0.942-1.903-2.181c0-1.515,0.989-2.365,2.024-2.365
			c0.776,0,1.191,0.397,1.395,0.767h0.019l0.027-0.675h0.721c-0.027,0.314-0.036,0.684-0.036,1.22V33.564z M164.301,31.512
			c0-0.138-0.01-0.259-0.046-0.36c-0.148-0.48-0.536-0.869-1.137-0.869c-0.775,0-1.331,0.656-1.331,1.691
			c0,0.878,0.453,1.608,1.321,1.608c0.508,0,0.962-0.314,1.127-0.832c0.047-0.139,0.065-0.296,0.065-0.435V31.512z"/>
		<path class="primarycolor" d="M166.676,32.131c0.02,1.1,0.712,1.553,1.534,1.553c0.582,0,0.942-0.102,1.238-0.231l0.148,0.583
			c-0.287,0.129-0.786,0.286-1.497,0.286c-1.377,0-2.199-0.914-2.199-2.263c0-1.35,0.795-2.403,2.097-2.403
			c1.471,0,1.85,1.275,1.85,2.097c0,0.167-0.011,0.287-0.027,0.379H166.676z M169.061,31.548c0.009-0.507-0.213-1.312-1.127-1.312
			c-0.832,0-1.183,0.749-1.249,1.312H169.061z"/>
		<path class="primarycolor" d="M176.397,31.947c0,1.654-1.155,2.375-2.227,2.375c-1.202,0-2.145-0.887-2.145-2.301
			c0-1.488,0.989-2.365,2.218-2.365C175.528,29.655,176.397,30.588,176.397,31.947z M172.857,31.992c0,0.98,0.556,1.72,1.35,1.72
			c0.776,0,1.359-0.73,1.359-1.737c0-0.758-0.379-1.71-1.341-1.71C173.274,30.264,172.857,31.152,172.857,31.992z"/>
		<path class="primarycolor" d="M177.274,34.22v-3.854h-0.618v-0.619h0.618v-0.212c0-0.628,0.148-1.201,0.518-1.562
			c0.305-0.295,0.712-0.416,1.091-0.416c0.297,0,0.537,0.065,0.693,0.129l-0.111,0.629c-0.12-0.056-0.277-0.103-0.518-0.103
			c-0.693,0-0.867,0.601-0.867,1.294v0.24h1.08v0.619h-1.08v3.854H177.274z"/>
		<path class="primarycolor" d="M181.414,28.083c0.352-0.083,0.915-0.138,1.471-0.138c0.804,0,1.321,0.138,1.699,0.453
			c0.324,0.24,0.528,0.61,0.528,1.1c0,0.609-0.407,1.137-1.055,1.368v0.028c0.592,0.138,1.284,0.628,1.284,1.552
			c0,0.536-0.213,0.952-0.535,1.248c-0.426,0.397-1.128,0.583-2.145,0.583c-0.555,0-0.979-0.038-1.248-0.075V28.083z
			 M182.219,30.635h0.729c0.841,0,1.341-0.453,1.341-1.054c0-0.72-0.545-1.016-1.358-1.016c-0.37,0-0.582,0.027-0.712,0.055V30.635z
			 M182.219,33.61c0.166,0.028,0.388,0.038,0.675,0.038c0.832,0,1.599-0.305,1.599-1.211c0-0.841-0.73-1.201-1.607-1.201h-0.666
			V33.61z"/>
		<path class="primarycolor" d="M189.907,32.991c0,0.471,0.01,0.878,0.037,1.229h-0.72l-0.048-0.729h-0.018
			c-0.204,0.359-0.684,0.831-1.479,0.831c-0.703,0-1.544-0.397-1.544-1.959v-2.615h0.813v2.467c0,0.851,0.268,1.433,0.997,1.433
			c0.546,0,0.926-0.379,1.073-0.749c0.046-0.111,0.073-0.258,0.073-0.416v-2.735h0.813V32.991z"/>
		<path class="primarycolor" d="M190.915,33.398c0.249,0.147,0.675,0.314,1.081,0.314c0.582,0,0.859-0.287,0.859-0.666
			c0-0.388-0.231-0.592-0.822-0.813c-0.813-0.296-1.192-0.73-1.192-1.266c0-0.721,0.592-1.312,1.543-1.312
			c0.453,0,0.851,0.119,1.091,0.277l-0.193,0.592c-0.177-0.111-0.5-0.269-0.915-0.269c-0.48,0-0.74,0.277-0.74,0.61
			c0,0.37,0.26,0.536,0.841,0.767c0.768,0.286,1.174,0.674,1.174,1.34c0,0.794-0.618,1.349-1.663,1.349
			c-0.489,0-0.943-0.129-1.257-0.313L190.915,33.398z"/>
		<path class="primarycolor" d="M195.359,28.49c0,0.277-0.193,0.5-0.518,0.5c-0.296,0-0.489-0.222-0.489-0.5s0.203-0.508,0.509-0.508
			C195.157,27.982,195.359,28.204,195.359,28.49z M194.454,34.22v-4.473h0.813v4.473H194.454z"/>
		<path class="primarycolor" d="M196.386,30.958c0-0.472-0.011-0.841-0.038-1.211h0.722l0.046,0.739h0.019
			c0.222-0.417,0.739-0.831,1.479-0.831c0.619,0,1.58,0.369,1.58,1.903v2.662h-0.813v-2.579c0-0.721-0.269-1.322-1.036-1.322
			c-0.525,0-0.942,0.379-1.09,0.832c-0.037,0.102-0.055,0.24-0.055,0.379v2.689h-0.813V30.958z"/>
		<path class="primarycolor" d="M201.736,32.131c0.019,1.1,0.712,1.553,1.534,1.553c0.581,0,0.942-0.102,1.238-0.231l0.147,0.583
			c-0.286,0.129-0.784,0.286-1.497,0.286c-1.377,0-2.198-0.914-2.198-2.263c0-1.35,0.794-2.403,2.097-2.403
			c1.47,0,1.849,1.275,1.849,2.097c0,0.167-0.009,0.287-0.028,0.379H201.736z M204.12,31.548c0.01-0.507-0.213-1.312-1.127-1.312
			c-0.832,0-1.184,0.749-1.247,1.312H204.12z"/>
		<path class="primarycolor" d="M205.57,33.398c0.25,0.147,0.676,0.314,1.082,0.314c0.582,0,0.859-0.287,0.859-0.666
			c0-0.388-0.23-0.592-0.821-0.813c-0.814-0.296-1.193-0.73-1.193-1.266c0-0.721,0.592-1.312,1.545-1.312
			c0.452,0,0.849,0.119,1.09,0.277l-0.194,0.592c-0.176-0.111-0.499-0.269-0.916-0.269c-0.479,0-0.738,0.277-0.738,0.61
			c0,0.37,0.259,0.536,0.842,0.767c0.766,0.286,1.173,0.674,1.173,1.34c0,0.794-0.619,1.349-1.663,1.349
			c-0.49,0-0.943-0.129-1.257-0.313L205.57,33.398z"/>
		<path class="primarycolor" d="M209,33.398c0.25,0.147,0.675,0.314,1.082,0.314c0.581,0,0.859-0.287,0.859-0.666
			c0-0.388-0.231-0.592-0.823-0.813c-0.813-0.296-1.191-0.73-1.191-1.266c0-0.721,0.592-1.312,1.542-1.312
			c0.453,0,0.852,0.119,1.092,0.277l-0.194,0.592c-0.177-0.111-0.5-0.269-0.915-0.269c-0.48,0-0.74,0.277-0.74,0.61
			c0,0.37,0.26,0.536,0.842,0.767c0.768,0.286,1.173,0.674,1.173,1.34c0,0.794-0.619,1.349-1.663,1.349
			c-0.49,0-0.942-0.129-1.257-0.313L209,33.398z"/>
		<path class="primarycolor" d="M122.208,40.506h-1.854v1.727h2.073v0.519h-2.698v-4.789h2.593v0.519h-1.968v1.513h1.854V40.506z"/>
		<path class="primarycolor" d="M123.325,39.312l0.49,0.738c0.136,0.192,0.242,0.363,0.354,0.555h0.016
			c0.113-0.199,0.226-0.376,0.348-0.562l0.476-0.731h0.683l-1.172,1.663l1.2,1.776h-0.704l-0.511-0.775
			c-0.135-0.199-0.249-0.391-0.369-0.596h-0.015c-0.114,0.205-0.227,0.39-0.362,0.596l-0.498,0.775h-0.688l1.222-1.756l-1.165-1.684
			H123.325z"/>
		<path class="primarycolor" d="M126.39,41.145c0.014,0.845,0.546,1.194,1.179,1.194c0.448,0,0.725-0.079,0.953-0.179l0.112,0.448
			c-0.22,0.1-0.604,0.22-1.15,0.22c-1.059,0-1.691-0.703-1.691-1.741c0-1.037,0.611-1.847,1.612-1.847
			c1.131,0,1.422,0.981,1.422,1.613c0,0.128-0.007,0.22-0.021,0.291H126.39z M128.223,40.696c0.007-0.391-0.164-1.008-0.868-1.008
			c-0.638,0-0.909,0.575-0.958,1.008H128.223z"/>
		<path class="primarycolor" d="M131.875,42.63c-0.163,0.078-0.525,0.198-0.986,0.198c-1.038,0-1.712-0.703-1.712-1.755
			c0-1.059,0.725-1.833,1.846-1.833c0.369,0,0.697,0.093,0.867,0.186l-0.143,0.477c-0.148-0.078-0.383-0.164-0.725-0.164
			c-0.788,0-1.215,0.59-1.215,1.3c0,0.795,0.512,1.286,1.194,1.286c0.355,0,0.589-0.086,0.768-0.164L131.875,42.63z"/>
		<path class="primarycolor" d="M135.309,41.806c0,0.362,0.007,0.675,0.028,0.945h-0.554l-0.035-0.562h-0.015
			c-0.156,0.276-0.525,0.639-1.137,0.639c-0.54,0-1.188-0.306-1.188-1.505v-2.012h0.626v1.896c0,0.654,0.207,1.102,0.768,1.102
			c0.419,0,0.71-0.29,0.824-0.575c0.034-0.085,0.057-0.198,0.057-0.319v-2.104h0.625V41.806z"/>
		<path class="primarycolor" d="M136.924,38.487v0.824h0.896v0.476h-0.896v1.854c0,0.428,0.12,0.668,0.469,0.668
			c0.171,0,0.27-0.015,0.362-0.042l0.027,0.476c-0.12,0.043-0.312,0.085-0.553,0.085c-0.292,0-0.527-0.1-0.676-0.263
			c-0.171-0.192-0.241-0.496-0.241-0.902v-1.876h-0.533v-0.476h0.533v-0.64L136.924,38.487z"/>
		<path class="primarycolor" d="M139.042,38.346c0,0.213-0.149,0.384-0.398,0.384c-0.227,0-0.376-0.171-0.376-0.384
			c0-0.214,0.156-0.391,0.391-0.391C138.886,37.955,139.042,38.125,139.042,38.346z M138.345,42.751v-3.439h0.626v3.439H138.345z"/>
		<path class="primarycolor" d="M140.072,39.312l0.676,1.926c0.112,0.319,0.206,0.604,0.276,0.888h0.021
			c0.079-0.284,0.179-0.568,0.292-0.888l0.668-1.926h0.653l-1.349,3.439h-0.598l-1.308-3.439H140.072z"/>
		<path class="primarycolor" d="M143.35,41.145c0.015,0.845,0.547,1.194,1.18,1.194c0.448,0,0.725-0.079,0.952-0.179l0.113,0.448
			c-0.22,0.1-0.604,0.22-1.151,0.22c-1.059,0-1.69-0.703-1.69-1.741c0-1.037,0.611-1.847,1.612-1.847
			c1.13,0,1.422,0.981,1.422,1.613c0,0.128-0.008,0.22-0.022,0.291H143.35z M145.183,40.696c0.007-0.391-0.164-1.008-0.867-1.008
			c-0.639,0-0.909,0.575-0.958,1.008H145.183z"/>
		<path class="primarycolor" d="M147.736,38.033c0.376-0.063,0.823-0.107,1.313-0.107c0.888,0,1.521,0.213,1.939,0.598
			c0.434,0.391,0.683,0.945,0.683,1.719c0,0.782-0.249,1.421-0.69,1.862c-0.453,0.446-1.192,0.688-2.124,0.688
			c-0.446,0-0.809-0.021-1.121-0.057V38.033z M148.354,42.268c0.156,0.021,0.383,0.027,0.625,0.027c1.328,0,2.039-0.738,2.039-2.031
			c0.007-1.13-0.634-1.847-1.939-1.847c-0.32,0-0.562,0.027-0.725,0.063V42.268z"/>
		<path class="primarycolor" d="M152.647,41.145c0.015,0.845,0.546,1.194,1.18,1.194c0.447,0,0.725-0.079,0.952-0.179l0.112,0.448
			c-0.219,0.1-0.604,0.22-1.15,0.22c-1.059,0-1.69-0.703-1.69-1.741c0-1.037,0.611-1.847,1.612-1.847
			c1.13,0,1.422,0.981,1.422,1.613c0,0.128-0.008,0.22-0.022,0.291H152.647z M154.48,40.696c0.007-0.391-0.163-1.008-0.867-1.008
			c-0.639,0-0.91,0.575-0.958,1.008H154.48z"/>
		<path class="primarycolor" d="M155.925,39.312l0.675,1.926c0.113,0.319,0.206,0.604,0.276,0.888h0.021
			c0.079-0.284,0.178-0.568,0.291-0.888l0.669-1.926h0.653l-1.351,3.439h-0.597l-1.307-3.439H155.925z"/>
		<path class="primarycolor" d="M159.201,41.145c0.014,0.845,0.548,1.194,1.18,1.194c0.448,0,0.725-0.079,0.951-0.179l0.115,0.448
			c-0.222,0.1-0.604,0.22-1.152,0.22c-1.059,0-1.69-0.703-1.69-1.741c0-1.037,0.61-1.847,1.612-1.847
			c1.13,0,1.421,0.981,1.421,1.613c0,0.128-0.007,0.22-0.021,0.291H159.201z M161.034,40.696c0.007-0.391-0.163-1.008-0.866-1.008
			c-0.641,0-0.909,0.575-0.96,1.008H161.034z"/>
		<path class="primarycolor" d="M162.236,37.706h0.625v5.045h-0.625V37.706z"/>
		<path class="primarycolor" d="M166.849,41.003c0,1.271-0.889,1.825-1.712,1.825c-0.925,0-1.648-0.682-1.648-1.769
			c0-1.144,0.76-1.819,1.704-1.819C166.181,39.24,166.849,39.958,166.849,41.003z M164.127,41.038c0,0.753,0.427,1.321,1.037,1.321
			c0.598,0,1.045-0.562,1.045-1.335c0-0.583-0.291-1.315-1.031-1.315C164.446,39.709,164.127,40.392,164.127,41.038z"/>
		<path class="primarycolor" d="M167.461,40.435c0-0.441-0.014-0.796-0.028-1.123h0.555l0.034,0.591h0.015
			c0.249-0.421,0.661-0.662,1.223-0.662c0.838,0,1.464,0.704,1.464,1.741c0,1.236-0.762,1.847-1.57,1.847
			c-0.455,0-0.853-0.198-1.059-0.539h-0.015v1.868h-0.618V40.435z M168.079,41.351c0,0.093,0.007,0.178,0.028,0.256
			c0.114,0.434,0.49,0.732,0.938,0.732c0.661,0,1.045-0.541,1.045-1.329c0-0.682-0.362-1.271-1.023-1.271
			c-0.426,0-0.83,0.299-0.945,0.768c-0.021,0.078-0.042,0.17-0.042,0.248V41.351z"/>
		<path class="primarycolor" d="M171.328,40.242c0-0.362-0.014-0.646-0.028-0.931h0.547l0.028,0.561h0.022
			c0.191-0.326,0.511-0.632,1.086-0.632c0.462,0,0.816,0.284,0.966,0.689h0.015c0.106-0.199,0.249-0.341,0.391-0.448
			c0.207-0.155,0.426-0.241,0.754-0.241c0.461,0,1.136,0.299,1.136,1.491v2.02h-0.611v-1.939c0-0.669-0.248-1.06-0.745-1.06
			c-0.362,0-0.633,0.263-0.746,0.562c-0.029,0.092-0.05,0.198-0.05,0.313v2.125h-0.611v-2.062c0-0.547-0.241-0.938-0.718-0.938
			c-0.382,0-0.674,0.313-0.774,0.625c-0.035,0.086-0.049,0.199-0.049,0.307v2.067h-0.611V40.242z"/>
		<path class="primarycolor" d="M177.428,41.145c0.014,0.845,0.546,1.194,1.179,1.194c0.448,0,0.725-0.079,0.952-0.179l0.113,0.448
			c-0.22,0.1-0.604,0.22-1.151,0.22c-1.058,0-1.69-0.703-1.69-1.741c0-1.037,0.611-1.847,1.613-1.847
			c1.129,0,1.421,0.981,1.421,1.613c0,0.128-0.008,0.22-0.021,0.291H177.428z M179.26,40.696c0.007-0.391-0.163-1.008-0.867-1.008
			c-0.639,0-0.909,0.575-0.958,1.008H179.26z"/>
		<path class="primarycolor" d="M180.462,40.242c0-0.362-0.007-0.646-0.028-0.931h0.555l0.035,0.568h0.015
			c0.17-0.319,0.568-0.64,1.137-0.64c0.477,0,1.215,0.284,1.215,1.464v2.047h-0.626v-1.982c0-0.554-0.205-1.017-0.796-1.017
			c-0.404,0-0.725,0.291-0.838,0.64c-0.027,0.079-0.043,0.185-0.043,0.292v2.067h-0.625V40.242z"/>
		<path class="primarycolor" d="M184.955,38.487v0.824h0.895v0.476h-0.895v1.854c0,0.428,0.12,0.668,0.469,0.668
			c0.17,0,0.27-0.015,0.361-0.042l0.029,0.476c-0.121,0.043-0.313,0.085-0.554,0.085c-0.292,0-0.527-0.1-0.676-0.263
			c-0.171-0.192-0.241-0.496-0.241-0.902v-1.876h-0.533v-0.476h0.533v-0.64L184.955,38.487z"/>
		<path class="primarycolor" d="M187.728,38.019c0.298-0.049,0.688-0.093,1.186-0.093c0.611,0,1.06,0.143,1.344,0.398
			c0.256,0.228,0.419,0.576,0.419,1.002c0,0.434-0.128,0.774-0.369,1.022c-0.334,0.348-0.86,0.525-1.464,0.525
			c-0.186,0-0.355-0.007-0.498-0.042v1.919h-0.617V38.019z M188.345,40.328c0.135,0.035,0.306,0.049,0.513,0.049
			c0.746,0,1.2-0.369,1.2-1.016c0-0.639-0.454-0.944-1.129-0.944c-0.271,0-0.477,0.021-0.584,0.049V40.328z"/>
		<path class="primarycolor" d="M191.196,40.385c0-0.405-0.007-0.753-0.028-1.073h0.547l0.028,0.682h0.021
			c0.156-0.461,0.54-0.753,0.959-0.753c0.064,0,0.114,0.008,0.17,0.014v0.591c-0.063-0.015-0.127-0.015-0.212-0.015
			c-0.44,0-0.753,0.327-0.84,0.796c-0.014,0.085-0.021,0.191-0.021,0.291v1.834h-0.625V40.385z"/>
		<path class="primarycolor" d="M196.384,41.003c0,1.271-0.889,1.825-1.712,1.825c-0.924,0-1.648-0.682-1.648-1.769
			c0-1.144,0.76-1.819,1.705-1.819C195.716,39.24,196.384,39.958,196.384,41.003z M193.663,41.038c0,0.753,0.426,1.321,1.036,1.321
			c0.598,0,1.044-0.562,1.044-1.335c0-0.583-0.29-1.315-1.029-1.315C193.982,39.709,193.663,40.392,193.663,41.038z"/>
		<path class="primarycolor" d="M199.938,42.246c0,0.795-0.164,1.271-0.49,1.577c-0.341,0.306-0.824,0.412-1.258,0.412
			c-0.413,0-0.866-0.099-1.145-0.284l0.157-0.483c0.228,0.149,0.581,0.277,1.008,0.277c0.64,0,1.109-0.334,1.109-1.207V42.16h-0.015
			c-0.185,0.32-0.562,0.576-1.095,0.576c-0.853,0-1.463-0.725-1.463-1.677c0-1.165,0.761-1.819,1.557-1.819
			c0.597,0,0.916,0.306,1.072,0.59h0.015l0.021-0.519h0.554c-0.021,0.241-0.027,0.525-0.027,0.938V42.246z M199.313,40.669
			c0-0.107-0.007-0.198-0.035-0.277c-0.114-0.369-0.412-0.668-0.874-0.668c-0.597,0-1.022,0.505-1.022,1.301
			c0,0.675,0.348,1.235,1.016,1.235c0.391,0,0.738-0.24,0.866-0.64c0.035-0.106,0.05-0.227,0.05-0.334V40.669z"/>
		<path class="primarycolor" d="M200.75,40.385c0-0.405-0.007-0.753-0.029-1.073h0.548l0.028,0.682h0.021
			c0.156-0.461,0.54-0.753,0.959-0.753c0.064,0,0.114,0.008,0.171,0.014v0.591c-0.063-0.015-0.127-0.015-0.214-0.015
			c-0.44,0-0.752,0.327-0.838,0.796c-0.015,0.085-0.021,0.191-0.021,0.291v1.834h-0.625V40.385z"/>
		<path class="primarycolor" d="M205.276,41.927c0,0.298,0.014,0.589,0.051,0.824h-0.562l-0.05-0.434h-0.021
			c-0.193,0.269-0.563,0.511-1.053,0.511c-0.696,0-1.051-0.489-1.051-0.987c0-0.831,0.738-1.286,2.067-1.279v-0.07
			c0-0.276-0.078-0.796-0.782-0.789c-0.326,0-0.66,0.093-0.902,0.256l-0.142-0.419c0.284-0.178,0.703-0.299,1.137-0.299
			c1.052,0,1.307,0.718,1.307,1.4V41.927z M204.673,40.995c-0.683-0.014-1.456,0.106-1.456,0.774c0,0.413,0.271,0.598,0.583,0.598
			c0.454,0,0.745-0.285,0.845-0.576c0.021-0.07,0.028-0.142,0.028-0.198V40.995z"/>
		<path class="primarycolor" d="M206.109,40.242c0-0.362-0.014-0.646-0.027-0.931h0.547l0.027,0.561h0.022
			c0.192-0.326,0.512-0.632,1.088-0.632c0.46,0,0.816,0.284,0.966,0.689h0.014c0.107-0.199,0.249-0.341,0.391-0.448
			c0.206-0.155,0.426-0.241,0.754-0.241c0.461,0,1.136,0.299,1.136,1.491v2.02h-0.611v-1.939c0-0.669-0.249-1.06-0.746-1.06
			c-0.361,0-0.632,0.263-0.745,0.562c-0.028,0.092-0.05,0.198-0.05,0.313v2.125h-0.61v-2.062c0-0.547-0.242-0.938-0.719-0.938
			c-0.383,0-0.674,0.313-0.774,0.625c-0.034,0.086-0.05,0.199-0.05,0.307v2.067h-0.611V40.242z"/>
		<path class="primarycolor" d="M211.776,42.117c0.19,0.115,0.517,0.242,0.831,0.242c0.446,0,0.661-0.22,0.661-0.512
			c0-0.298-0.178-0.454-0.634-0.625c-0.624-0.228-0.916-0.562-0.916-0.973c0-0.555,0.454-1.01,1.188-1.01
			c0.347,0,0.652,0.093,0.837,0.214l-0.148,0.454c-0.136-0.084-0.384-0.206-0.704-0.206c-0.369,0-0.568,0.214-0.568,0.469
			c0,0.284,0.199,0.413,0.647,0.59c0.589,0.221,0.901,0.52,0.901,1.03c0,0.611-0.475,1.037-1.279,1.037
			c-0.376,0-0.725-0.1-0.966-0.242L211.776,42.117z"/>
	</g>
</g>
</svg>
