<?xml version="1.0" encoding="iso-8859-1"?>
<svg version="1.2" baseProfile="tiny" class="logocolor msu" xmlns="http://www.w3.org/2000/svg" xmlns:xlink="http://www.w3.org/1999/xlink" viewBox="0 0 215 70" xml:space="preserve">
<g>
	<g>
		<g>
			<path class="primarycolor" d="M3.952,38.377v3.359c0,0.561,0.183,1.356,1.172,1.356c0.905,0,1.233-0.626,1.233-1.42l-0.015-3.296
				c0-0.186-0.091-0.299-0.206-0.362h0.882c-0.115,0.063-0.198,0.177-0.198,0.362l-0.023,3.279c0,1.363-0.769,1.893-1.803,1.893
				c-0.89,0-2.023-0.416-2.023-1.837v-3.335c0-0.186-0.122-0.299-0.244-0.362h1.461C4.066,38.078,3.952,38.191,3.952,38.377z"/>
			<path class="primarycolor" d="M16.811,38.377c0-0.186-0.076-0.299-0.198-0.362h0.844c-0.114,0.063-0.198,0.177-0.198,0.362v5.316
				c0,0-3.652-4.538-3.652-4.604v4.02c0,0.176,0.084,0.288,0.213,0.36h-0.845c0.114-0.072,0.199-0.185,0.199-0.36v-4.283
				c0-0.313,0.007-0.321-0.138-0.506c-0.076-0.097-0.183-0.208-0.342-0.305h1.308l2.808,3.529V38.377z"/>
			<path class="primarycolor" d="M24.892,38.015c-0.129,0.063-0.199,0.177-0.199,0.362v4.731c0,0.176,0.069,0.288,0.199,0.36h-1.377
				c0.122-0.072,0.198-0.185,0.198-0.36v-4.731c0-0.186-0.077-0.299-0.198-0.362H24.892z"/>
			<path class="primarycolor" d="M34.167,38.416c0.068-0.209,0.038-0.32-0.16-0.401h0.928c-0.198,0.137-0.213,0.192-0.29,0.386
				c-0.129,0.312-1.963,5.237-1.963,5.237s-1.986-4.941-2.13-5.237c-0.091-0.162-0.183-0.289-0.411-0.386h1.682
				c-0.198,0.081-0.214,0.249-0.161,0.441c0.016,0.072,1.286,3.369,1.286,3.369S34.158,38.473,34.167,38.416z"/>
			<path class="primarycolor" d="M43.403,38.721c-0.144-0.209-0.304-0.272-0.593-0.289c-0.228-0.016-1.293-0.016-1.293-0.016v1.845h1.149
				c0.106,0,0.236-0.128,0.273-0.226v0.851c-0.038-0.111-0.167-0.232-0.273-0.232h-1.149v2.358c0.152,0.024,0.616,0.057,0.988,0.039
				c0.662-0.015,0.967,0,1.249-0.504l-0.161,0.922h-3.271c0.129-0.08,0.228-0.168,0.228-0.36v-4.731
				c0-0.186-0.106-0.299-0.228-0.362h3.059L43.403,38.721z"/>
			<path class="primarycolor" d="M51.742,40.702c0.518,0.056,0.746,0.425,0.86,0.602c0,0,0.913,1.524,1.179,1.845
				c0.145,0.191,0.487,0.32,0.487,0.32l-0.99,0.017c-0.289,0-0.54-0.185-0.677-0.377c-0.342-0.506-0.677-1.092-0.951-1.54
				c-0.198-0.321-0.373-0.666-0.7-0.666c-0.092,0-0.335,0.016-0.335,0.016v2.19c0,0.176,0.084,0.288,0.213,0.36h-1.376
				c0.121-0.072,0.198-0.185,0.198-0.36v-4.731c0-0.186-0.077-0.299-0.198-0.362h1.643c1.575,0,1.932,0.811,1.932,1.348
				C53.028,40.228,52.282,40.662,51.742,40.702z M50.616,38.416v2.093c0,0,0.213,0.017,0.343,0.017c0.518,0,1.064-0.305,1.064-1.115
				c0-0.369-0.213-1.01-0.966-1.01C50.829,38.4,50.616,38.416,50.616,38.416z"/>
			<path class="primarycolor" d="M62.615,41.865c0,1.003-0.836,1.684-1.772,1.684c-0.693,0-1.194-0.248-1.461-0.385l-0.038-1.356
				c0.144,0.571,0.602,1.325,1.391,1.325c0.755,0,0.983-0.569,0.983-0.962c0-0.771-0.663-0.875-1.355-1.269
				c-0.7-0.408-1.004-0.842-1.004-1.451c0-1.092,0.966-1.524,1.659-1.524c0.259,0,0.761,0.057,1.148,0.296l0.039,1.188
				c-0.107-0.425-0.541-1.066-1.271-1.066c-0.578,0-0.806,0.425-0.806,0.77c0,0.489,0.327,0.675,1.043,1.02
				C61.877,40.485,62.615,40.75,62.615,41.865z"/>
			<path class="primarycolor" d="M69.935,38.015c-0.129,0.063-0.198,0.177-0.198,0.362v4.731c0,0.176,0.069,0.288,0.198,0.36h-1.377
				c0.122-0.072,0.198-0.185,0.198-0.36v-4.731c0-0.186-0.077-0.299-0.198-0.362H69.935z"/>
			<path class="primarycolor" d="M78.197,38.416v4.692c0,0.176,0.085,0.288,0.198,0.36h-1.362c0.122-0.072,0.198-0.185,0.198-0.36v-4.692
				c-0.564,0-1.218,0.057-1.218,0.057c-0.182,0-0.313,0.185-0.38,0.319v-0.777h4.17v0.777c-0.069-0.135-0.175-0.305-0.358-0.319
				C79.445,38.473,78.753,38.416,78.197,38.416z"/>
			<path class="primarycolor" d="M89.42,38.015c-0.237,0.081-0.412,0.305-0.503,0.489l-1.216,2.438v2.167c0,0.176,0.143,0.288,0.266,0.36
				h-1.521c0.114-0.072,0.259-0.168,0.259-0.36v-2.135L85.213,38.4c-0.107-0.193-0.191-0.273-0.396-0.386h1.719
				c-0.19,0.081-0.32,0.121-0.121,0.497l1.072,1.974l1.004-2.069c0.107-0.178,0.053-0.346-0.16-0.401H89.42z"/>
		</g>
		<g>
			<path class="primarycolor" d="M8.638,25.436h1.786c-0.168,0.089-0.274,0.246-0.274,0.501v6.573c0,0.245,0.105,0.401,0.274,0.501H8.532
				c0.17-0.1,0.275-0.256,0.275-0.501v-5.604c0-0.134,0.021-0.256,0.021-0.256l-0.096,0.256l-2.537,6.26l-2.558-6.082l-0.074-0.3
				c0,0,0,0.2,0,0.3v5.426c0,0.245,0.116,0.401,0.296,0.501H2.688c0.159-0.1,0.275-0.256,0.275-0.501v-6.573
				c0-0.211-0.169-0.412-0.338-0.501h1.86l2.113,5.113L8.638,25.436z"/>
			<path class="primarycolor" d="M14.049,25.436c-0.18,0.089-0.275,0.246-0.275,0.501v6.573c0,0.245,0.095,0.401,0.275,0.501h-1.913
				c0.169-0.1,0.274-0.256,0.274-0.501v-6.573c0-0.255-0.105-0.412-0.274-0.501H14.049z"/>
			<path class="primarycolor" d="M22.154,27.619c-0.645-1.549-1.881-1.704-2.389-1.704c-1.808,0-2.833,1.392-2.833,3.186
				c0,1.525,0.729,3.409,2.907,3.409c0.497,0,1.691-0.179,2.388-1.705c0.021-0.044-0.095,1.604-0.095,1.604
				c-0.878,0.524-1.818,0.714-2.685,0.714c-2.082,0-3.932-1.504-3.932-3.877c0-1.949,1.374-3.933,4.059-3.933
				c0.867,0,1.659,0.179,2.483,0.58C22.059,25.893,22.175,27.664,22.154,27.619z"/>
			<path class="primarycolor" d="M28.346,25.436h1.913c-0.18,0.089-0.296,0.246-0.296,0.501v6.573c0,0.245,0.116,0.401,0.296,0.501h-1.913
				c0.169-0.1,0.275-0.256,0.275-0.501v-3.409h-3.287v3.409c0,0.245,0.096,0.401,0.275,0.501h-1.913
				c0.169-0.1,0.274-0.256,0.274-0.501v-6.573c0-0.255-0.105-0.412-0.274-0.501h1.913c-0.18,0.089-0.275,0.246-0.275,0.501v2.619
				h3.287v-2.619C28.621,25.682,28.516,25.524,28.346,25.436z"/>
			<path class="primarycolor" d="M33.873,25.436c-0.18,0.089-0.275,0.246-0.275,0.501v6.573c0,0.245,0.095,0.401,0.275,0.501H31.96
				c0.169-0.1,0.274-0.256,0.274-0.501v-6.573c0-0.255-0.105-0.412-0.274-0.501H33.873z"/>
			<path class="primarycolor" d="M41.916,25.893l0.074,1.771c-0.539-1.516-1.881-1.749-2.378-1.749c-1.796,0-2.832,1.392-2.832,3.186
				c0,1.525,0.719,3.409,2.906,3.409c0.222,0,0.845-0.022,1.342-0.368v-1.938c0-0.257-0.105-0.413-0.274-0.514h1.892
				c-0.159,0.101-0.275,0.257-0.275,0.514v1.648c0,0.222,0.116,0.422,0.169,0.456c-0.888,0.523-2.389,0.813-3.234,0.813
				c-2.104,0-3.963-1.504-3.963-3.877c0-1.949,1.384-3.933,4.09-3.933C40.298,25.313,41.081,25.514,41.916,25.893z"/>
			<path class="primarycolor" d="M49.629,32.465c0.105,0.233,0.179,0.356,0.528,0.546h-2.261c0.274-0.156,0.327-0.313,0.254-0.546
				c-0.032-0.111-0.307-0.791-0.604-1.549h-2.589c-0.316,0.758-0.57,1.415-0.592,1.537c-0.095,0.268-0.042,0.424,0.244,0.558h-1.458
				c0.296-0.212,0.391-0.334,0.497-0.546c0.2-0.424,2.98-7.264,2.98-7.264S49.439,32.041,49.629,32.465z M47.305,30.337
				c-0.498-1.236-1.078-2.729-1.078-2.729s-0.719,1.894-1.057,2.729H47.305z"/>
			<path class="primarycolor" d="M56.139,25.937c0-0.255-0.106-0.412-0.275-0.501h1.173c-0.159,0.089-0.275,0.246-0.275,0.501v7.386
				c0,0-5.073-6.305-5.073-6.394v5.581c0,0.245,0.116,0.401,0.296,0.501h-1.173c0.159-0.1,0.275-0.256,0.275-0.501v-5.949
				c0-0.435,0.01-0.445-0.19-0.702c-0.105-0.133-0.253-0.289-0.476-0.423h1.818l3.9,4.901V25.937z"/>
			<path class="primarycolor" d="M65.702,30.782c0,1.393-1.162,2.34-2.462,2.34c-0.961,0-1.659-0.346-2.029-0.535l-0.053-1.883
				c0.2,0.791,0.834,1.839,1.934,1.839c1.047,0,1.363-0.791,1.363-1.337c0-1.069-0.919-1.215-1.881-1.76
				c-0.972-0.568-1.395-1.17-1.395-2.017c0-1.515,1.343-2.117,2.304-2.117c0.36,0,1.058,0.079,1.597,0.413l0.052,1.648
				c-0.147-0.59-0.751-1.481-1.765-1.481c-0.804,0-1.12,0.591-1.12,1.069c0,0.68,0.455,0.936,1.448,1.414
				C64.677,28.866,65.702,29.234,65.702,30.782z"/>
			<path class="primarycolor" d="M69.919,25.992v6.518c0,0.245,0.116,0.401,0.275,0.501h-1.892c0.169-0.1,0.275-0.256,0.275-0.501v-6.518
				c-0.782,0-1.691,0.078-1.691,0.078c-0.253,0-0.434,0.257-0.529,0.446v-1.081h5.792v1.081c-0.096-0.189-0.243-0.424-0.497-0.446
				C71.653,26.07,70.691,25.992,69.919,25.992z"/>
			<path class="primarycolor" d="M77.655,32.465c0.105,0.233,0.18,0.356,0.528,0.546h-2.261c0.274-0.156,0.327-0.313,0.253-0.546
				c-0.032-0.111-0.307-0.791-0.602-1.549h-2.59c-0.318,0.758-0.571,1.415-0.591,1.537c-0.096,0.268-0.043,0.424,0.243,0.558h-1.459
				c0.295-0.212,0.391-0.334,0.497-0.546c0.2-0.424,2.98-7.264,2.98-7.264S77.464,32.041,77.655,32.465z M75.33,30.337
				c-0.497-1.236-1.079-2.729-1.079-2.729s-0.718,1.894-1.057,2.729H75.33z"/>
			<path class="primarycolor" d="M80.942,25.992v6.518c0,0.245,0.116,0.401,0.274,0.501h-1.891c0.169-0.1,0.275-0.256,0.275-0.501v-6.518
				c-0.783,0-1.69,0.078-1.69,0.078c-0.254,0-0.434,0.257-0.528,0.446v-1.081h5.791v1.081c-0.095-0.189-0.242-0.424-0.497-0.446
				C82.675,26.07,81.713,25.992,80.942,25.992z"/>
			<path class="primarycolor" d="M88.593,26.416c-0.2-0.29-0.422-0.379-0.824-0.401c-0.317-0.022-1.797-0.022-1.797-0.022v2.563h1.596
				c0.148,0,0.329-0.18,0.38-0.313v1.181c-0.052-0.156-0.232-0.323-0.38-0.323h-1.596v3.275c0.212,0.032,0.856,0.077,1.374,0.055
				c0.92-0.022,1.343,0,1.733-0.701l-0.221,1.281h-4.544c0.179-0.112,0.316-0.234,0.316-0.501v-6.573
				c0-0.255-0.148-0.412-0.316-0.501h4.248L88.593,26.416z"/>
		</g>
		<rect x="2.604" y="34.976" class="primarycolor" width="86.658" height="0.585"/>
	</g>
	<g>
		<rect x="95.914" y="21.7" class="primarycolor" width="0.322" height="26.6"/>
	</g>
	<g>
		<path class="primarycolor" d="M104.981,32.941h-1.539l0.109-0.563h3.735l-0.109,0.563h-1.547l-0.891,4.704h-0.649L104.981,32.941z"/>
		<path class="primarycolor" d="M106.833,37.646l1.055-5.549h0.649l-0.47,2.438h0.017c0.319-0.461,0.781-0.758,1.352-0.758
			c0.43,0,0.938,0.265,0.938,1.016c0,0.203-0.023,0.445-0.063,0.641l-0.422,2.212h-0.648l0.422-2.181
			c0.023-0.141,0.047-0.313,0.047-0.523c0-0.352-0.164-0.626-0.586-0.626c-0.5,0-1.133,0.587-1.29,1.438l-0.352,1.892H106.833z"/>
		<path class="primarycolor" d="M113.733,37.426c-0.281,0.165-0.743,0.306-1.25,0.306c-1,0-1.438-0.688-1.438-1.524
			c0-1.141,0.844-2.43,2.063-2.43c0.72,0,1.109,0.43,1.109,0.968c0,0.994-1.116,1.259-2.516,1.235
			c-0.031,0.165-0.008,0.516,0.078,0.719c0.148,0.337,0.454,0.509,0.844,0.509c0.446,0,0.782-0.141,1.017-0.266L113.733,37.426z
			 M113.593,34.762c0-0.305-0.235-0.477-0.579-0.477c-0.617,0-1.077,0.602-1.234,1.195c1.017,0.008,1.813-0.125,1.813-0.711V34.762z
			"/>
		<path class="primarycolor" d="M116.483,36.816c0.305,0.188,0.751,0.345,1.22,0.345c0.695,0,1.102-0.368,1.102-0.899
			c0-0.492-0.281-0.773-0.992-1.047c-0.859-0.305-1.392-0.75-1.392-1.493c0-0.82,0.68-1.43,1.703-1.43
			c0.54,0,0.931,0.125,1.165,0.258l-0.188,0.555c-0.172-0.094-0.523-0.25-1.001-0.25c-0.718,0-0.991,0.43-0.991,0.79
			c0,0.492,0.32,0.734,1.047,1.016c0.891,0.344,1.344,0.773,1.344,1.547c0,0.813-0.602,1.524-1.844,1.524
			c-0.509,0-1.063-0.156-1.345-0.344L116.483,36.816z"/>
		<path class="primarycolor" d="M123.149,37.505c-0.18,0.094-0.578,0.227-1.086,0.227c-1.142,0-1.883-0.782-1.883-1.938
			c0-1.164,0.797-2.009,2.031-2.009c0.407,0,0.766,0.102,0.953,0.196l-0.156,0.531c-0.163-0.094-0.422-0.18-0.797-0.18
			c-0.867,0-1.337,0.641-1.337,1.43c0,0.875,0.563,1.414,1.313,1.414c0.391,0,0.648-0.101,0.844-0.187L123.149,37.505z"/>
		<path class="primarycolor" d="M123.955,32.097h0.688v2.36h0.016c0.109-0.195,0.281-0.368,0.492-0.485
			c0.203-0.116,0.445-0.194,0.703-0.194c0.508,0,1.32,0.312,1.32,1.617v2.251h-0.688v-2.173c0-0.609-0.227-1.125-0.875-1.125
			c-0.445,0-0.797,0.313-0.922,0.688c-0.04,0.094-0.047,0.195-0.047,0.328v2.282h-0.688V32.097z"/>
		<path class="primarycolor" d="M131.714,35.723c0,1.399-0.969,2.009-1.883,2.009c-1.024,0-1.813-0.75-1.813-1.946
			c0-1.267,0.828-2.008,1.875-2.008C130.98,33.777,131.714,34.566,131.714,35.723z M128.713,35.762c0,0.828,0.478,1.454,1.149,1.454
			c0.656,0,1.148-0.617,1.148-1.47c0-0.641-0.32-1.454-1.133-1.454S128.713,35.043,128.713,35.762z"/>
		<path class="primarycolor" d="M136.004,35.723c0,1.399-0.969,2.009-1.883,2.009c-1.024,0-1.813-0.75-1.813-1.946
			c0-1.267,0.829-2.008,1.876-2.008C135.271,33.777,136.004,34.566,136.004,35.723z M133.003,35.762
			c0,0.828,0.478,1.454,1.149,1.454c0.656,0,1.148-0.617,1.148-1.47c0-0.641-0.32-1.454-1.133-1.454S133.003,35.043,133.003,35.762z
			"/>
		<path class="primarycolor" d="M136.871,32.097h0.688v5.549h-0.688V32.097z"/>
		<path class="primarycolor" d="M143.795,35.723c0,1.399-0.969,2.009-1.883,2.009c-1.024,0-1.813-0.75-1.813-1.946
			c0-1.267,0.828-2.008,1.875-2.008C143.061,33.777,143.795,34.566,143.795,35.723z M140.794,35.762
			c0,0.828,0.477,1.454,1.148,1.454c0.657,0,1.149-0.617,1.149-1.47c0-0.641-0.32-1.454-1.133-1.454
			C141.146,34.292,140.794,35.043,140.794,35.762z"/>
		<path class="primarycolor" d="M144.732,37.646v-3.259h-0.531v-0.524h0.531v-0.18c0-0.531,0.117-1.015,0.438-1.32
			c0.258-0.25,0.603-0.352,0.923-0.352c0.241,0,0.453,0.055,0.586,0.109l-0.095,0.531c-0.102-0.047-0.241-0.086-0.438-0.086
			c-0.586,0-0.733,0.516-0.733,1.094v0.203h0.914v0.524h-0.914v3.259H144.732z"/>
		<path class="primarycolor" d="M149.304,32.378v2.204h2.548v-2.204h0.688v5.268h-0.688v-2.471h-2.548v2.471h-0.68v-5.268H149.304z"/>
		<path class="primarycolor" d="M157.118,35.723c0,1.399-0.969,2.009-1.884,2.009c-1.023,0-1.813-0.75-1.813-1.946
			c0-1.267,0.828-2.008,1.876-2.008C156.384,33.777,157.118,34.566,157.118,35.723z M154.117,35.762
			c0,0.828,0.478,1.454,1.149,1.454c0.656,0,1.148-0.617,1.148-1.47c0-0.641-0.32-1.454-1.134-1.454
			C154.47,34.292,154.117,35.043,154.117,35.762z"/>
		<path class="primarycolor" d="M157.892,36.942c0.203,0.133,0.563,0.273,0.906,0.273c0.5,0,0.735-0.25,0.735-0.563
			c0-0.328-0.196-0.508-0.703-0.696c-0.681-0.241-1.001-0.617-1.001-1.07c0-0.609,0.492-1.109,1.305-1.109
			c0.383,0,0.72,0.108,0.93,0.233l-0.171,0.501c-0.149-0.094-0.423-0.22-0.774-0.22c-0.406,0-0.633,0.235-0.633,0.517
			c0,0.313,0.227,0.453,0.719,0.641c0.656,0.25,0.992,0.579,0.992,1.141c0,0.665-0.516,1.142-1.413,1.142
			c-0.415,0-0.798-0.109-1.063-0.266L157.892,36.942z"/>
		<path class="primarycolor" d="M161.08,35.098c0-0.484-0.017-0.876-0.031-1.235h0.617l0.032,0.649h0.015
			c0.281-0.461,0.727-0.734,1.345-0.734c0.913,0,1.602,0.773,1.602,1.922c0,1.36-0.828,2.032-1.719,2.032
			c-0.501,0-0.938-0.219-1.165-0.594h-0.016v2.056h-0.68V35.098z M161.76,36.105c0,0.102,0.016,0.196,0.031,0.281
			c0.125,0.478,0.54,0.806,1.031,0.806c0.727,0,1.148-0.594,1.148-1.462c0-0.758-0.397-1.406-1.125-1.406
			c-0.468,0-0.906,0.336-1.039,0.851c-0.023,0.087-0.047,0.188-0.047,0.282V36.105z"/>
		<path class="primarycolor" d="M166.292,32.8c0.008,0.234-0.164,0.422-0.438,0.422c-0.241,0-0.414-0.188-0.414-0.422
			c0-0.242,0.181-0.43,0.431-0.43C166.128,32.37,166.292,32.558,166.292,32.8z M165.526,37.646v-3.783h0.687v3.783H165.526z"/>
		<path class="primarycolor" d="M168.184,32.956v0.906h0.983v0.524h-0.983v2.039c0,0.47,0.133,0.735,0.515,0.735
			c0.188,0,0.298-0.016,0.399-0.047l0.03,0.516c-0.132,0.055-0.344,0.102-0.608,0.102c-0.321,0-0.579-0.109-0.742-0.297
			c-0.196-0.203-0.267-0.539-0.267-0.985v-2.063h-0.586v-0.524h0.586v-0.694L168.184,32.956z"/>
		<path class="primarycolor" d="M172.598,36.739c0,0.328,0.017,0.648,0.063,0.906h-0.626l-0.055-0.477h-0.023
			c-0.211,0.297-0.617,0.563-1.157,0.563c-0.765,0-1.156-0.539-1.156-1.086c0-0.915,0.813-1.415,2.274-1.407V35.16
			c0-0.313-0.086-0.875-0.859-0.875c-0.353,0-0.719,0.109-0.985,0.281l-0.156-0.454c0.313-0.203,0.767-0.335,1.243-0.335
			c1.157,0,1.438,0.789,1.438,1.547V36.739z M171.935,35.716c-0.75-0.017-1.603,0.116-1.603,0.851c0,0.446,0.297,0.656,0.647,0.656
			c0.493,0,0.806-0.312,0.915-0.633c0.023-0.07,0.04-0.147,0.04-0.218V35.716z"/>
		<path class="primarycolor" d="M173.707,32.097h0.688v5.549h-0.688V32.097z"/>
		<path class="primarycolor" d="M176.317,32.8c0.008,0.234-0.163,0.422-0.438,0.422c-0.242,0-0.414-0.188-0.414-0.422
			c0-0.242,0.18-0.43,0.43-0.43C176.154,32.37,176.317,32.558,176.317,32.8z M175.552,37.646v-3.783h0.688v3.783H175.552z"/>
		<path class="primarycolor" d="M178.208,32.956v0.906h0.985v0.524h-0.985v2.039c0,0.47,0.133,0.735,0.517,0.735
			c0.188,0,0.296-0.016,0.398-0.047l0.031,0.516c-0.134,0.055-0.344,0.102-0.61,0.102c-0.319,0-0.577-0.109-0.742-0.297
			c-0.194-0.203-0.265-0.539-0.265-0.985v-2.063h-0.586v-0.524h0.586v-0.694L178.208,32.956z"/>
		<path class="primarycolor" d="M180.286,33.862l0.829,2.236c0.086,0.25,0.18,0.547,0.242,0.773h0.015c0.071-0.227,0.149-0.516,0.243-0.79
			l0.75-2.22h0.728l-1.032,2.697c-0.492,1.297-0.828,1.961-1.298,2.367c-0.335,0.297-0.671,0.414-0.844,0.446l-0.171-0.579
			c0.171-0.054,0.397-0.164,0.601-0.336c0.188-0.148,0.423-0.414,0.579-0.766c0.031-0.07,0.055-0.125,0.055-0.164
			s-0.017-0.094-0.047-0.18l-1.399-3.486H180.286z"/>
		<path class="primarycolor" d="M185.397,32.448c0.297-0.063,0.765-0.109,1.242-0.109c0.681,0,1.117,0.117,1.446,0.383
			c0.273,0.203,0.438,0.517,0.438,0.931c0,0.508-0.337,0.953-0.891,1.156v0.016c0.5,0.124,1.086,0.539,1.086,1.321
			c0,0.453-0.18,0.797-0.445,1.054c-0.367,0.337-0.962,0.493-1.821,0.493c-0.47,0-0.828-0.031-1.055-0.063V32.448z M186.077,34.605
			h0.617c0.719,0,1.142-0.375,1.142-0.884c0-0.617-0.469-0.859-1.157-0.859c-0.312,0-0.493,0.023-0.602,0.047V34.605z
			 M186.077,37.13c0.133,0.023,0.328,0.031,0.57,0.031c0.703,0,1.353-0.258,1.353-1.024c0-0.719-0.617-1.016-1.36-1.016h-0.563
			V37.13z"/>
		<path class="primarycolor" d="M192.773,36.613c0,0.392,0.009,0.735,0.032,1.032h-0.609l-0.039-0.617h-0.017
			c-0.18,0.305-0.577,0.703-1.25,0.703c-0.595,0-1.305-0.328-1.305-1.656v-2.213h0.687v2.095c0,0.719,0.22,1.204,0.845,1.204
			c0.461,0,0.781-0.321,0.906-0.626c0.04-0.101,0.063-0.227,0.063-0.352v-2.321h0.687V36.613z"/>
		<path class="primarycolor" d="M193.82,36.942c0.203,0.133,0.564,0.273,0.907,0.273c0.5,0,0.734-0.25,0.734-0.563
			c0-0.328-0.194-0.508-0.703-0.696c-0.68-0.241-1-0.617-1-1.07c0-0.609,0.492-1.109,1.306-1.109c0.383,0,0.718,0.108,0.93,0.233
			l-0.173,0.501c-0.147-0.094-0.422-0.22-0.773-0.22c-0.406,0-0.633,0.235-0.633,0.517c0,0.313,0.227,0.453,0.72,0.641
			c0.656,0.25,0.992,0.579,0.992,1.141c0,0.665-0.516,1.142-1.415,1.142c-0.414,0-0.797-0.109-1.063-0.266L193.82,36.942z"/>
		<path class="primarycolor" d="M197.775,32.8c0.008,0.234-0.164,0.422-0.438,0.422c-0.243,0-0.414-0.188-0.414-0.422
			c0-0.242,0.18-0.43,0.43-0.43C197.611,32.37,197.775,32.558,197.775,32.8z M197.01,37.646v-3.783h0.688v3.783H197.01z"/>
		<path class="primarycolor" d="M198.839,34.887c0-0.392-0.009-0.712-0.032-1.024h0.609l0.04,0.626h0.016
			c0.188-0.359,0.624-0.711,1.25-0.711c0.523,0,1.336,0.312,1.336,1.609v2.259h-0.688v-2.181c0-0.609-0.227-1.117-0.875-1.117
			c-0.453,0-0.806,0.32-0.923,0.703c-0.03,0.086-0.047,0.203-0.047,0.32v2.274h-0.687V34.887z"/>
		<path class="primarycolor" d="M203.559,35.879c0.015,0.931,0.609,1.313,1.297,1.313c0.492,0,0.789-0.086,1.048-0.196l0.117,0.493
			c-0.243,0.109-0.657,0.242-1.259,0.242c-1.165,0-1.859-0.773-1.859-1.915s0.671-2.039,1.773-2.039
			c1.234,0,1.563,1.086,1.563,1.781c0,0.141-0.015,0.25-0.023,0.32H203.559z M205.574,35.387c0.008-0.438-0.18-1.118-0.953-1.118
			c-0.695,0-1.001,0.642-1.056,1.118H205.574z"/>
		<path class="primarycolor" d="M206.996,36.942c0.203,0.133,0.563,0.273,0.906,0.273c0.5,0,0.734-0.25,0.734-0.563
			c0-0.328-0.194-0.508-0.703-0.696c-0.68-0.241-1-0.617-1-1.07c0-0.609,0.492-1.109,1.306-1.109c0.383,0,0.719,0.108,0.93,0.233
			l-0.173,0.501c-0.147-0.094-0.421-0.22-0.773-0.22c-0.406,0-0.633,0.235-0.633,0.517c0,0.313,0.227,0.453,0.72,0.641
			c0.656,0.25,0.992,0.579,0.992,1.141c0,0.665-0.516,1.142-1.415,1.142c-0.414,0-0.797-0.109-1.063-0.266L206.996,36.942z"/>
		<path class="primarycolor" d="M210.091,36.942c0.203,0.133,0.563,0.273,0.906,0.273c0.5,0,0.735-0.25,0.735-0.563
			c0-0.328-0.195-0.508-0.704-0.696c-0.68-0.241-1-0.617-1-1.07c0-0.609,0.492-1.109,1.306-1.109c0.383,0,0.719,0.108,0.93,0.233
			l-0.173,0.501c-0.147-0.094-0.421-0.22-0.773-0.22c-0.406,0-0.633,0.235-0.633,0.517c0,0.313,0.227,0.453,0.72,0.641
			c0.656,0.25,0.992,0.579,0.992,1.141c0,0.665-0.516,1.142-1.415,1.142c-0.414,0-0.797-0.109-1.063-0.266L210.091,36.942z"/>
	</g>
</g>
</svg>
