<?xml version="1.0" encoding="iso-8859-1"?>
<svg version="1.2" baseProfile="tiny" class="logocolor nd" xmlns="http://www.w3.org/2000/svg" xmlns:xlink="http://www.w3.org/1999/xlink" viewBox="0 0 215 70" xml:space="preserve">
<g>
	<g>
		<path class="primarycolor" d="M62.333,38.375c0,0.729,0,3.723,0.069,4.281c-0.191,0.275-0.532,0.367-0.822,0.346
			c-0.39-0.515-1.098-1.341-2.85-3.336l-5.699-6.505c-1.586-1.773-2.365-2.699-2.776-3.066c-0.073,0-0.073,0.271-0.073,1.562v4.742
			c0,1.829,0.026,4.072,0.437,4.803c0.22,0.362,0.631,0.507,1.245,0.606l0.533,0.069c0.216,0.172,0.194,0.639-0.048,0.708
			c-0.903-0.044-1.85-0.069-2.779-0.069c-1.017,0-1.674,0.025-2.53,0.069c-0.194-0.12-0.242-0.536-0.047-0.708l0.536-0.114
			c0.463-0.08,0.9-0.172,1.076-0.562c0.313-0.756,0.313-2.879,0.313-4.803v-5.769c0-1.898,0.025-2.287-0.805-2.993
			c-0.268-0.214-0.947-0.415-1.288-0.492l-0.368-0.07c-0.169-0.145-0.146-0.632,0.103-0.709c0.918,0.104,2.258,0.077,2.871,0.077
			c0.507,0,1.091-0.027,1.675-0.077c0.418,1.056,3.073,4.116,3.921,5.042l2.438,2.633c1.025,1.124,3.283,3.697,3.533,3.85
			c0.07-0.075,0.07-0.194,0.07-0.589v-4.748c0-1.821-0.022-4.066-0.466-4.795c-0.217-0.363-0.606-0.51-1.215-0.613l-0.558-0.07
			c-0.217-0.167-0.195-0.632,0.051-0.709c0.944,0.05,1.847,0.077,2.798,0.077c1.047,0,1.678-0.027,2.556-0.077
			c0.198,0.125,0.246,0.542,0.051,0.709l-0.562,0.125c-0.466,0.07-0.874,0.173-1.05,0.559c-0.338,0.756-0.338,2.871-0.338,4.795
			V38.375z"/>
		<path class="primarycolor" d="M74.373,27.029c3.877,0,5.534,4.261,5.534,7.938c0,4.893-2.244,6.965-5.02,6.965
			c-4.164,0-5.604-4.582-5.604-7.938C69.283,28.808,71.942,27.029,74.373,27.029z M74.692,26.056c-5.111,0-8.717,3.676-8.717,8.64
			c0,4.336,3.166,8.203,8.673,8.203c4.909,0,8.566-3.572,8.566-8.37C83.214,30.095,80.317,26.056,74.692,26.056z"/>
		<path class="primarycolor" d="M90.746,28.489c0-1.023-0.019-1.065-0.654-1.065h-0.72c-2.236,0-2.893,0.266-3.793,2.234
			c-0.176,0.145-0.683,0.074-0.782-0.168c0.411-1.318,0.782-2.824,0.947-3.683c0.048-0.07,0.151-0.092,0.271-0.092
			c0.096,0,0.195,0.022,0.243,0.092c0.125,0.611,0.466,0.638,2.119,0.638h8.636c1.19,0,1.557-0.077,1.851-0.638
			c0.096-0.044,0.195-0.092,0.29-0.092c0.147,0,0.272,0.048,0.319,0.12c-0.246,0.995-0.441,3.093-0.367,3.872
			c-0.125,0.2-0.536,0.249-0.752,0.075c-0.316-1.904-0.778-2.357-3.382-2.357H94.23c-0.635,0-0.661,0.042-0.661,1.065V39.01
			c0,2.582,0.224,2.651,1.369,2.776l0.874,0.092c0.168,0.172,0.147,0.609-0.048,0.708c-1.417-0.044-2.507-0.069-3.58-0.069
			c-1.069,0-2.218,0.025-3.775,0.069c-0.195-0.099-0.221-0.584-0.048-0.708l1.021-0.114c1.142-0.103,1.363-0.172,1.363-2.754V28.489
			z"/>
		<path class="primarycolor" d="M106.677,28.538c0-1.114,0.026-1.197,1.292-1.197c2.119,0,3.363,1.682,3.363,3.609
			c0,2.313-1.098,3.48-3.484,3.48c-1.171,0-1.171-0.048-1.171-0.826V28.538z M103.854,39.01c0,2.582-0.216,2.651-1.362,2.799
			l-0.537,0.069c-0.216,0.172-0.146,0.609,0.048,0.708c1.12-0.044,2.218-0.069,3.29-0.069c1.068,0,2.163,0.025,3.231,0.069
			c0.202-0.099,0.228-0.536,0.052-0.708l-0.533-0.069c-1.146-0.147-1.366-0.217-1.366-2.799v-3.113c0-0.515,0.026-0.54,0.756-0.54
			c0.801,0,1.072,0.096,1.51,0.826c0.584,0.951,1.271,2.293,1.924,3.315c1.487,2.266,2.754,3.213,5.089,3.213
			c0.849,0,1.314-0.077,1.604-0.146c0.07-0.125,0.07-0.39-0.048-0.488c-0.29-0.026-0.994-0.173-1.681-0.756
			c-1.142-0.952-2.364-3.018-4.304-6.305c-0.099-0.147-0.146-0.342,0-0.415c1.19-0.488,2.92-1.608,2.92-3.844
			c0-1.753-0.903-2.901-2.141-3.555c-1.072-0.589-2.725-0.833-4.63-0.833c-1.994,0-4.065,0.077-5.6,0.228
			c-0.191,0.119-0.191,0.503-0.022,0.676l0.632,0.07c1.146,0.125,1.167,0.418,1.167,2.754V39.01z"/>
		<path class="primarycolor" d="M121.69,29.955c0-2.581-0.217-2.662-1.362-2.829l-0.389-0.049c-0.166-0.167-0.147-0.605,0.051-0.709
			c0.459,0.022,0.973,0.05,1.506,0.05c0.536,0.027,1.098,0.027,1.634,0.027h4.651c1.558,0,2.975-0.027,3.287-0.077
			c0.095,0.419,0.241,2.343,0.389,3.386c-0.099,0.202-0.584,0.244-0.778,0.1c-0.39-1.414-0.756-2.02-1.535-2.215
			c-0.562-0.172-1.292-0.214-1.945-0.214h-1.635c-1.05,0-1.05,0.042-1.05,1.426v4.122c0,0.633,0.026,0.659,0.592,0.659h1.16
			c2.126,0,2.536-0.026,2.71-1.076l0.168-0.826c0.195-0.175,0.657-0.175,0.779,0.025c-0.022,0.653-0.07,1.531-0.07,2.435
			c0,0.918,0.048,1.777,0.07,2.556c-0.122,0.174-0.584,0.174-0.779,0.021l-0.168-0.973c-0.174-1.021-0.584-1.07-2.71-1.07h-1.16
			c-0.565,0-0.592,0.049-0.592,0.659v3.094c0,1.239,0.049,2.113,0.419,2.532c0.29,0.34,0.705,0.534,2.75,0.534
			c3.092,0.05,3.627-0.659,4.476-2.635c0.224-0.165,0.64-0.092,0.782,0.147c-0.143,1.021-0.684,2.878-1.024,3.531
			c-0.536-0.021-1.314-0.044-2.336-0.044c-1.02-0.025-2.238-0.025-3.674-0.025h-2.776c-1.068,0-2.556,0.025-3.653,0.069
			c-0.194-0.099-0.217-0.536-0.044-0.708l0.896-0.092c1.146-0.125,1.362-0.194,1.362-2.776V29.955z"/>
		<path class="primarycolor" d="M146.312,29.489c0-1.146,0.022-1.656,0.194-1.8c0.169-0.152,0.955-0.348,1.968-0.348
			c4.072,0,6.87,2.342,6.87,7.16c0,4.12-1.946,7.183-6.278,7.183c-2.585,0-2.754-1.26-2.754-3.625V29.489z M143.484,39.01
			c0,2.582-0.217,2.651-1.362,2.799l-0.536,0.069c-0.166,0.172-0.144,0.609,0.051,0.708c1.069-0.044,2.167-0.069,3.092-0.069
			c0.459,0,0.974,0.025,1.558,0.069c0.583,0.025,1.244,0.07,1.975,0.07c2.215,0,4.308-0.287,6.037-1.164
			c3.019-1.535,4.358-4.307,4.358-7.013c0-3.632-2.071-6.206-4.993-7.278c-1.774-0.639-3.434-0.833-5.743-0.833
			c-2.387,0-4.337,0.077-6.088,0.228c-0.195,0.119-0.195,0.551-0.021,0.676l0.506,0.049c1.146,0.145,1.168,0.439,1.168,2.774V39.01z
			"/>
		<path class="primarycolor" d="M165.05,35.452c-0.578,0-0.654,0-0.391-0.701l1.021-2.85c0.443-1.146,0.636-1.751,0.73-1.926h0.048
			c0.124,0.174,0.271,0.633,0.687,1.926l1.024,2.919c0.194,0.584,0.096,0.631-0.584,0.631H165.05z M167.898,36.55
			c0.687,0,0.756,0,1.002,0.655l1.139,3.314c0.319,1.045,0.246,1.189-0.625,1.289l-0.543,0.069c-0.14,0.15-0.117,0.588,0.077,0.708
			c0.848-0.021,1.92-0.069,2.967-0.069c1.267,0,2.171,0.025,3.17,0.069c0.168-0.12,0.168-0.536-0.026-0.708l-0.364-0.069
			c-1.241-0.217-1.366-0.39-1.924-2.023l-3.51-10.199c-0.39-1.098-0.702-2.245-1.091-3.336c-0.1-0.125-0.225-0.195-0.419-0.195
			c-0.047,0-0.848,0.995-1.7,1.168c0.073,0.415-0.146,1-0.466,1.779l-3.338,8.667c-0.506,1.314-0.896,2.335-1.189,2.971
			c-0.367,0.804-0.632,1.021-1.34,1.123l-0.731,0.114c-0.165,0.22-0.143,0.588,0.029,0.708c0.849-0.044,1.604-0.069,2.405-0.069
			c0.999,0.025,1.807,0.025,2.577,0.069c0.202-0.099,0.225-0.536,0.052-0.708l-0.705-0.114c-0.902-0.128-0.998-0.199-0.507-1.637
			l0.995-2.922c0.217-0.655,0.195-0.655,0.826-0.655H167.898z"/>
		<path class="primarycolor" d="M197.411,41.878c0.243,0.103,0.218,0.609-0.047,0.708c-1.05-0.044-2.001-0.069-2.974-0.069
			c-1.143,0-2.192,0.025-3.261,0.069c-0.194-0.099-0.294-0.558-0.051-0.708l0.66-0.114c0.973-0.15,1.043-0.345,1.043-2.001v-7.694
			v-2.266h-0.048c-0.661,1.342-0.995,2.071-1.461,3.044l-2.09,4.287c-0.829,1.704-2.053,4.408-2.489,5.548
			c-0.096,0.1-0.459,0.1-0.631,0c-0.412-1.313-1.463-3.697-2.017-4.913l-2.17-4.678c-0.46-1.022-1.12-2.559-1.41-3.288h-0.052
			c-0.048,1.195-0.095,3.094-0.144,4.114c-0.051,1.488-0.102,3.657-0.102,5.651c0,1.611,0.024,1.996,1.075,2.168l0.801,0.142
			c0.172,0.15,0.172,0.609-0.022,0.708c-0.902-0.044-1.656-0.069-2.559-0.069c-0.779,0-1.652,0.025-2.6,0.069
			c-0.229-0.12-0.229-0.584-0.081-0.708l0.414-0.044c1.168-0.15,1.362-0.514,1.513-2.002c0.198-1.529,0.247-3.107,0.364-5.643
			c0.1-1.656,0.243-3.679,0.243-5.166c0-1.146-0.36-1.649-1.312-1.799l-0.831-0.147c-0.143-0.167-0.124-0.632,0.101-0.709
			c0.73,0.05,1.384,0.077,2.287,0.077c0.852,0,1.703,0,2.607-0.077c0.095,1.466,0.727,2.727,1.332,4.047l2.685,5.624
			c0.194,0.409,0.826,1.632,1.146,2.19c0.383-0.706,0.731-1.392,1.267-2.531l2.284-4.678c0.778-1.606,1.561-3.04,1.968-4.652
			c0.661,0.05,1.469,0.077,2.001,0.077c1.025,0,1.877-0.027,2.559-0.077c0.266,0.104,0.313,0.564,0.071,0.709l-0.801,0.125
			c-1.069,0.14-1.318,0.559-1.318,1.851c0,3.605,0.048,7.208,0.22,10.808c0.078,1.632,0.342,1.801,1.12,1.903L197.411,41.878z"/>
		<path class="primarycolor" d="M202.619,29.955c0-2.581-0.217-2.662-1.362-2.829l-0.39-0.049c-0.168-0.167-0.147-0.605,0.048-0.709
			c0.459,0.022,0.973,0.05,1.51,0.05c0.535,0.027,1.097,0.027,1.634,0.027h4.647c1.558,0,2.976-0.027,3.291-0.077
			c0.095,0.419,0.242,2.343,0.389,3.386c-0.099,0.202-0.583,0.244-0.786,0.1c-0.382-1.414-0.753-2.02-1.531-2.215
			c-0.562-0.172-1.284-0.214-1.945-0.214h-1.631c-1.046,0-1.046,0.042-1.046,1.426v4.122c0,0.633,0.021,0.659,0.583,0.659h1.168
			c2.122,0,2.534-0.026,2.706-1.076l0.165-0.826c0.195-0.175,0.657-0.175,0.778,0.025c-0.024,0.653-0.073,1.531-0.073,2.435
			c0,0.918,0.049,1.777,0.073,2.556c-0.121,0.174-0.583,0.174-0.778,0.021l-0.165-0.973c-0.172-1.021-0.584-1.07-2.706-1.07h-1.168
			c-0.562,0-0.583,0.049-0.583,0.659v3.094c0,1.239,0.052,2.113,0.411,2.532c0.294,0.34,0.705,0.534,2.754,0.534
			c3.091,0.05,3.628-0.659,4.483-2.635c0.217-0.165,0.631-0.092,0.778,0.147c-0.147,1.021-0.687,2.878-1.024,3.531
			c-0.539-0.021-1.318-0.044-2.339-0.044c-1.024-0.025-2.24-0.025-3.68-0.025h-2.771c-1.072,0-2.56,0.025-3.657,0.069
			c-0.188-0.099-0.217-0.536-0.048-0.708l0.903-0.092c1.146-0.125,1.362-0.194,1.362-2.776V29.955z"/>
		<path class="primarycolor" d="M48.057,12.905c0-1.519-0.11-1.563-1.032-1.764l-0.316-0.063c-0.15-0.114-0.128-0.488,0.048-0.553
			c0.749,0.039,1.436,0.064,2.144,0.064c0.698,0,1.385-0.026,2.244-0.064c0.176,0.064,0.198,0.438,0.04,0.553l-0.415,0.063
			c-0.948,0.158-1.04,0.246-1.04,1.764v3.108c0,2.202,0.731,3.699,2.868,3.699c1.983,0,2.842-1.498,2.842-3.677v-2.049
			c0-2.207-0.128-2.713-1.079-2.845l-0.466-0.063c-0.15-0.136-0.129-0.444,0.051-0.553c0.702,0.039,1.208,0.064,1.847,0.064
			c0.639,0,1.127-0.026,1.829-0.064c0.18,0.108,0.18,0.438,0.022,0.553l-0.662,0.063c-0.572,0.066-0.745,0.661-0.745,2.845v2.179
			c0,2.822-1.303,4.298-4.105,4.298c-1.41,0-2.464-0.286-3.128-0.925c-0.661-0.657-0.947-1.67-0.947-3.108V12.905z"/>
		<path class="primarycolor" d="M72.258,13.986c0-2.207-0.129-2.757-0.944-2.845l-0.705-0.063c-0.154-0.136-0.136-0.444,0.044-0.553
			c0.815,0.039,1.318,0.064,1.964,0.064c0.636,0,1.124-0.026,1.826-0.064c0.172,0.108,0.172,0.438,0.021,0.553l-0.657,0.063
			c-0.577,0.066-0.753,0.661-0.753,2.845v3.698c0,0.444,0,2.229,0.066,2.563c-0.066,0.132-0.268,0.244-0.463,0.195
			c-0.242-0.309-0.687-0.768-2.049-2.248l-3.353-3.569c-0.837-0.881-1.41-1.456-1.696-1.7c-0.088,0-0.088,0.244-0.088,0.925v2.91
			c0,2.212,0.133,2.777,0.948,2.844l0.701,0.07c0.18,0.13,0.136,0.438-0.037,0.551c-0.822-0.048-1.329-0.07-1.96-0.07
			c-0.646,0-1.061,0.022-1.836,0.07c-0.176-0.092-0.176-0.441-0.022-0.551l0.661-0.07c0.573-0.066,0.753-0.661,0.753-2.844v-3.942
			c0-0.73-0.022-1.039-0.467-1.37c-0.172-0.134-0.595-0.268-0.814-0.308l-0.331-0.063c-0.15-0.136-0.15-0.467,0.043-0.553
			c0.837,0.064,1.433,0.064,1.898,0.064c0.308,0,0.613-0.026,0.885-0.064c0.437,0.839,1.256,1.784,2.152,2.708l2.079,2.137
			c0.484,0.486,1.762,1.882,2.004,2.054c0.129-0.05,0.129-0.358,0.129-0.881V13.986z"/>
		<path class="primarycolor" d="M81.738,12.905c0-1.519-0.088-1.606-1.032-1.764l-0.422-0.063c-0.15-0.114-0.132-0.488,0.048-0.553
			c0.859,0.039,1.542,0.064,2.243,0.064c0.709,0,1.392-0.026,2.251-0.064c0.176,0.064,0.198,0.438,0.044,0.553l-0.418,0.063
			c-0.952,0.158-1.04,0.246-1.04,1.764v4.937c0,1.524,0.088,1.604,1.04,1.763l0.418,0.07c0.154,0.11,0.132,0.481-0.044,0.551
			c-0.837-0.048-1.568-0.07-2.251-0.07c-0.701,0-1.384,0.022-2.243,0.07c-0.18-0.07-0.198-0.441-0.048-0.551l0.422-0.07
			c0.943-0.158,1.032-0.239,1.032-1.763V12.905z"/>
		<path class="primarycolor" d="M91.898,12.955c-0.661-1.461-0.746-1.568-1.274-1.703l-0.727-0.173c-0.136-0.136-0.158-0.444,0.018-0.553
			c0.577,0.039,1.304,0.064,1.983,0.064c0.8,0,1.439-0.026,2.14-0.064c0.181,0.086,0.203,0.438,0,0.553l-0.462,0.063
			c-0.569,0.088-0.569,0.375-0.088,1.456l1.083,2.443c0.551,1.259,0.922,2.078,1.252,2.801c0.444-0.925,0.818-1.851,1.237-2.774
			c0.463-1.015,1.08-2.542,1.3-3.18c0.158-0.464,0.128-0.615-0.528-0.747l-0.353-0.063c-0.202-0.136-0.129-0.422,0.044-0.553
			c0.643,0.039,1.212,0.064,1.807,0.064c0.704,0,1.215-0.026,1.567-0.064c0.213,0.086,0.264,0.438,0.106,0.553l-0.617,0.128
			c-0.661,0.136-0.792,0.334-1.498,1.829l-1.674,3.6c-0.662,1.406-1.304,3.013-1.568,3.744c-0.066,0.063-0.154,0.084-0.268,0.084
			c-0.085,0-0.173-0.021-0.257-0.084c-0.202-0.575-0.444-1.281-0.73-1.898L91.898,12.955z"/>
		<path class="primarycolor" d="M107.184,12.905c0-1.519-0.092-1.59-0.929-1.764l-0.309-0.063c-0.158-0.092-0.129-0.467,0.044-0.553
			c0.33,0.02,0.665,0.039,0.995,0.039c0.353,0.026,0.701,0.026,1.053,0.026h3.133c0.973,0,1.847-0.026,2.049-0.064
			c0.025,0.266,0.136,1.298,0.242,2.249c-0.088,0.18-0.444,0.194-0.572,0.044c-0.129-0.573-0.265-0.859-0.397-1.061
			c-0.349-0.529-1.344-0.529-1.869-0.529h-0.973c-0.774,0-0.797,0.022-0.797,0.701v2.451c0,0.4,0,0.442,0.418,0.442h1.036
			c1.172,0,1.278-0.176,1.458-0.837l0.113-0.417c0.106-0.163,0.438-0.134,0.551,0.039c-0.044,0.638-0.044,1.039-0.044,1.545
			c0,0.551,0,0.947,0.044,1.584c-0.113,0.179-0.444,0.2-0.551,0.05l-0.113-0.423c-0.18-0.661-0.286-0.833-1.458-0.833h-1.036
			c-0.418,0-0.418,0.066-0.418,0.503v1.584c0,0.667,0.045,1.353,0.246,1.584c0.198,0.228,0.595,0.314,1.847,0.314
			c1.414,0,2.229-0.072,2.868-1.834c0.154-0.15,0.507-0.106,0.573,0.092c-0.11,0.925-0.419,2.029-0.662,2.449
			c-0.679-0.026-1.317-0.048-1.935-0.048c-0.62-0.022-1.215-0.022-1.811-0.022h-1.942c-0.7,0-1.383,0.022-2.448,0.07
			c-0.173-0.07-0.195-0.441-0.037-0.551l0.595-0.07c0.943-0.108,1.035-0.239,1.035-1.763V12.905z"/>
		<path class="primarycolor" d="M123.027,11.78c0-0.573,0.157-0.617,0.973-0.617c1.543,0,2.317,0.969,2.317,2.071
			c0,1.521-0.754,2.1-2.182,2.1c-1.083,0-1.108,0-1.108-0.553V11.78z M121.356,17.842c0,1.524-0.085,1.563-1.039,1.763l-0.327,0.07
			c-0.202,0.088-0.18,0.481,0.041,0.551c0.774-0.048,1.454-0.07,2.158-0.07c0.688,0,1.418,0.022,2.343,0.07
			c0.173-0.07,0.194-0.441,0.041-0.551l-0.507-0.07c-0.951-0.136-1.039-0.239-1.039-1.763v-1.568c0-0.308,0.047-0.345,0.62-0.345
			c0.353,0,0.705,0.084,0.885,0.345c0.46,0.708,1.054,1.674,1.604,2.383c0.973,1.233,1.763,1.65,3.088,1.65
			c0.423,0,0.724-0.039,0.925-0.108c0.092-0.066,0.092-0.261,0-0.353c-0.352-0.014-0.768-0.134-1.167-0.459
			c-0.728-0.598-1.7-1.674-2.802-3.53c-0.065-0.108-0.088-0.244,0-0.325c0.859-0.313,1.961-0.951,1.961-2.363
			c0-2.315-2.221-2.644-4.277-2.644c-1.208,0-2.441,0.039-3.653,0.13c-0.221,0.07-0.18,0.525,0,0.551l0.617,0.092
			c0.502,0.066,0.528,0.438,0.528,1.871V17.842z"/>
		<path class="primarycolor" d="M137.383,15.657c-1.06-0.55-1.967-1.41-1.967-2.644c0-1.606,1.236-2.732,3.468-2.732
			c0.768,0,1.296,0.202,2.048,0.33c0.181,0.375,0.331,1.212,0.309,2.163c-0.065,0.18-0.466,0.194-0.572,0.044
			c-0.18-0.774-0.753-1.893-2.049-1.893c-1.302,0-1.794,0.74-1.794,1.492c0,0.793,0.603,1.282,1.485,1.746l1.366,0.698
			c0.796,0.405,1.78,1.331,1.78,2.807c0,1.718-1.405,2.794-3.593,2.794c-1.348,0-2.229-0.458-2.537-0.679
			c-0.194-0.315-0.459-1.105-0.459-2.273c0.089-0.22,0.419-0.242,0.572-0.043c0.174,0.796,1.143,2.365,2.628,2.365
			c1.124,0,1.847-0.581,1.847-1.596c0-0.703-0.286-1.427-1.538-2.071L137.383,15.657z"/>
		<path class="primarycolor" d="M148.915,12.905c0-1.519-0.092-1.606-1.039-1.764l-0.415-0.063c-0.158-0.114-0.133-0.488,0.04-0.553
			c0.863,0.039,1.543,0.064,2.247,0.064c0.705,0,1.389-0.026,2.255-0.064c0.173,0.064,0.194,0.438,0.036,0.553l-0.414,0.063
			c-0.948,0.158-1.04,0.246-1.04,1.764v4.937c0,1.524,0.092,1.604,1.04,1.763l0.414,0.07c0.158,0.11,0.137,0.481-0.036,0.551
			c-0.841-0.048-1.568-0.07-2.255-0.07c-0.704,0-1.384,0.022-2.247,0.07c-0.173-0.07-0.198-0.441-0.04-0.551l0.415-0.07
			c0.947-0.158,1.039-0.239,1.039-1.763V12.905z"/>
		<path class="primarycolor" d="M161.567,11.802c0-0.573-0.028-0.573-0.466-0.573h-0.687c-1.341,0-1.913,0.136-2.445,1.648
			c-0.221,0.136-0.463,0.077-0.552-0.103c0.243-0.951,0.489-2.048,0.596-2.607c0.088-0.084,0.315-0.084,0.4,0
			c0.021,0.444,0.33,0.422,1.212,0.422h6.128c0.815,0,0.973-0.026,1.146-0.422c0.154-0.084,0.331-0.042,0.4,0.069
			c-0.18,0.57-0.265,1.743-0.225,2.582c-0.083,0.172-0.462,0.195-0.551,0.022c-0.149-1.434-0.729-1.612-2.049-1.612h-0.753
			c-0.421,0-0.484,0-0.484,0.573v6.04c0,1.524,0.092,1.654,1.039,1.763l0.595,0.07c0.151,0.11,0.133,0.481-0.043,0.551
			c-0.911-0.048-1.741-0.07-2.428-0.07c-0.705,0-1.498,0.022-2.424,0.07c-0.18-0.07-0.201-0.441-0.044-0.551l0.595-0.07
			c0.947-0.108,1.039-0.239,1.039-1.763V11.802z"/>
		<path class="primarycolor" d="M176.09,17.226c0-0.681-0.063-0.86-0.617-1.877l-1.607-2.974c-0.463-0.881-0.684-1.076-1.256-1.193
			l-0.573-0.103c-0.157-0.136-0.11-0.488,0.063-0.553c0.73,0.039,1.233,0.064,2.03,0.064c0.665,0,1.168-0.026,1.877-0.064
			c0.172,0.086,0.242,0.438,0.021,0.553l-0.308,0.063c-0.489,0.11-0.56,0.246-0.202,0.925l0.818,1.564
			c0.327,0.665,0.657,1.26,0.987,1.827c0.353-0.594,0.684-1.118,1.062-1.827l0.882-1.612c0.329-0.611,0.37-0.811-0.154-0.877
			l-0.464-0.063c-0.2-0.114-0.18-0.467,0.045-0.553c0.664,0.039,1.168,0.064,1.674,0.064c0.488,0,0.948-0.026,1.564-0.064
			c0.176,0.064,0.221,0.438,0.048,0.553l-0.529,0.103c-0.687,0.134-0.8,0.268-1.482,1.373l-1.366,2.2
			c-0.789,1.259-0.833,1.476-0.833,2.118v1.19c0,1.303,0.083,1.434,1.031,1.542l0.558,0.07c0.15,0.11,0.129,0.481-0.051,0.551
			c-0.966-0.048-1.696-0.07-2.376-0.07c-0.709,0-1.392,0.022-2.379,0.07c-0.18-0.07-0.202-0.441-0.052-0.551l0.559-0.07
			c0.947-0.108,1.031-0.239,1.031-1.542V17.226z"/>
		<path class="primarycolor" d="M194.963,10.851c2.428,0,3.551,2.383,3.551,4.74c0,3.018-1.611,4.172-3.286,4.172
			c-2.56,0-3.591-2.449-3.591-4.722C191.637,11.93,193.376,10.851,194.963,10.851z M195.121,10.212
			c-3.198,0-5.445,2.251-5.445,5.181c0,2.78,2.026,5.001,5.445,5.001c3.103,0,5.357-2.163,5.357-5.137
			C200.479,12.569,198.668,10.212,195.121,10.212z"/>
		<path class="primarycolor" d="M206.052,12.9c0-1.521-0.106-1.564-0.929-1.763l-0.261-0.066c-0.154-0.114-0.136-0.485,0.044-0.551
			c0.302,0.022,0.616,0.044,0.947,0.044c0.33,0.022,0.687,0.022,1.035,0.022h3.063c0.972,0,1.81-0.022,2.117-0.066
			c0.022,0.265,0.045,1.298,0.115,2.251c-0.093,0.22-0.445,0.242-0.585,0.04c-0.124-0.573-0.261-0.859-0.39-1.057
			c-0.377-0.553-1.347-0.525-1.875-0.525h-0.859c-0.684,0-0.745,0-0.745,0.768v2.552c0,0.406,0,0.444,0.414,0.444h1.19
			c1.167,0,1.281-0.18,1.454-0.833l0.112-0.422c0.111-0.156,0.438-0.128,0.548,0.044c-0.037,0.643-0.037,1.031-0.037,1.545
			c0,0.551,0,0.947,0.037,1.586c-0.11,0.176-0.437,0.198-0.548,0.042l-0.112-0.417c-0.173-0.661-0.287-0.837-1.454-0.837h-1.19
			c-0.414,0-0.414,0.064-0.414,0.507v1.633c0,1.521,0.084,1.671,1.035,1.757l0.683,0.072c0.15,0.106,0.128,0.481-0.048,0.55
			c-1.104-0.044-1.828-0.069-2.512-0.069c-0.705,0-1.388,0.025-2.246,0.069c-0.181-0.069-0.202-0.444-0.049-0.55l0.419-0.072
			c0.947-0.153,1.039-0.237,1.039-1.757V12.9z"/>
	</g>
	<g>
		<path class="secondarycolor knockout" d="M38.003,13.386c0,0.112,0,15.438,0,15.438c0,7.274-2.243,13.042-5.449,17.584c0.003,0,0,0,0,0
			s-0.617-0.239-1.59-0.239c-2.056,0-2.673,1.206-5.122,1.206c-1.491,0-2.126-0.655-3.345-0.992v-2.955c0,0-0.363,0.515-1.576,0.515
			c-1.222,0-1.579-0.515-1.579-0.515v2.943c-1.222,0.346-1.854,0.999-3.341,0.999c-2.457,0-3.074-1.205-5.126-1.205
			c-0.981,0-1.605,0.237-1.605,0.237s-0.007,0.006,0,0C6.062,41.866,3.83,36.099,3.83,28.825c0,0,0-15.326,0-15.438
			c0-0.119-0.117-0.244-0.117-0.244s0.117,0.114,0.235,0.114c0.113,0,16.971,0,16.971,0s16.825,0,16.957,0
			c0.128,0,0.243-0.114,0.243-0.114S38.003,13.267,38.003,13.386z"/>
		<path class="secondarycolor knockout" d="M27.777,51.799c-0.507,0.438-0.738,0.58-1.216,0.676c-0.231,0.055-0.73,0.071-0.73,0.071
			c-2.012,0-2.449-1.206-4.913-1.206c-2.456,0-2.9,1.206-4.916,1.206c0,0-0.492-0.017-0.724-0.071
			c-0.477-0.096-0.708-0.237-1.222-0.676c-0.991-0.864-1.851-1.763-2.758-2.806c1.847,0,2.31,1.12,4.704,1.12
			c2.016,0,2.46-1.212,4.916-1.212c2.464,0,2.901,1.212,4.913,1.212c2.401,0,2.849-1.12,4.704-1.12
			C29.635,50.036,28.772,50.935,27.777,51.799z"/>
		<path class="secondarycolor knockout" d="M20.918,56.738c-0.98-0.559-1.928-1.148-2.944-1.846c0.797-0.347,1.483-0.882,2.944-0.882
			c1.454,0,2.152,0.535,2.941,0.882C22.846,55.59,21.895,56.18,20.918,56.738z"/>
		<path class="tertiarycolor knockout" d="M20.496,41.256c0,0-1.222-0.832-4.696-0.39c-3.466,0.454-4.715-0.347-4.715-0.347s0-10.717,0-10.781
			c0-0.07-0.07-0.141-0.07-0.141s1.535,0.647,5.001,0.205c3.474-0.45,4.479,0.384,4.479,0.384V41.256z"/>w
		<path class="tertiarycolor knockout" d="M30.759,29.739c0,0.064,0,10.788,0,10.788s-1.249,0.804-4.722,0.351c-3.47-0.449-4.693,0.389-4.693,0.389
			V30.198c0,0,1.01-0.833,4.483-0.39c3.466,0.448,4.993-0.21,4.993-0.21S30.759,29.669,30.759,29.739z"/>
		<g>
			<g>
				<path class="primarycolor" d="M9.271,46.403L9.271,46.403C9.286,46.397,9.278,46.403,9.271,46.403z"/>
			</g>
			<g>
				<g>
					<path class="primarycolor" d="M13.611,33.544c0.136-0.314,0.228-0.523,0.312-0.67c0.052-0.092,0.114-0.114,0.191-0.131l0.077-0.016
						c0.015-0.026,0.015-0.07-0.007-0.086C14.1,32.647,14,32.647,13.887,32.647c-0.095,0-0.199,0-0.33-0.005
						c-0.022,0.016-0.026,0.06,0,0.086l0.088,0.022c0.084,0.026,0.095,0.048,0.047,0.173c-0.162,0.422-0.345,0.848-0.507,1.237
						c-0.033-0.07-0.114-0.257-0.169-0.393l-0.22-0.55c-0.125-0.316-0.147-0.386-0.147-0.418c0-0.022,0.022-0.032,0.084-0.054
						l0.085-0.016c0.018-0.022,0.018-0.07-0.007-0.086c-0.162,0.005-0.264,0.005-0.404,0.005c-0.121,0-0.25,0-0.367-0.005
						c-0.029,0.005-0.029,0.06-0.011,0.086l0.074,0.011c0.125,0.027,0.15,0.069,0.231,0.275l0.536,1.309
						c0.059,0.125,0.11,0.277,0.143,0.4c0.015,0.011,0.037,0.022,0.059,0.022c0.022,0,0.044-0.011,0.056-0.022
						c0.047-0.156,0.187-0.512,0.315-0.795L13.611,33.544z"/>
					<path class="primarycolor" d="M14.981,34.248c0,0.323,0.022,0.341,0.166,0.353l0.065,0.011c0.022,0.025,0.022,0.081-0.007,0.091
						c-0.128-0.007-0.268-0.011-0.396-0.011c-0.136,0-0.279,0.004-0.408,0.011c-0.026-0.011-0.026-0.066-0.004-0.091l0.063-0.011
						c0.143-0.011,0.169-0.029,0.169-0.353v-1.153c0-0.329-0.026-0.334-0.169-0.356l-0.063-0.011
						c-0.022-0.022-0.022-0.081,0.004-0.086c0.128,0.005,0.264,0.005,0.408,0.005c0.128,0,0.268,0,0.396-0.005
						c0.03,0.005,0.03,0.064,0.007,0.086l-0.065,0.011c-0.144,0.022-0.166,0.027-0.166,0.356V34.248z"/>
					<path class="primarycolor" d="M16.233,32.911c0-0.136,0-0.136-0.081-0.136h-0.166c-0.279,0-0.36,0.033-0.474,0.283
						c-0.019,0.022-0.084,0.011-0.095-0.017c0.055-0.172,0.095-0.362,0.117-0.476c0.007-0.005,0.022-0.011,0.033-0.011
						c0.011,0,0.029,0.005,0.029,0.011c0.015,0.081,0.059,0.081,0.264,0.081h1.22c0.154,0,0.198-0.005,0.234-0.081
						c0.011-0.005,0.026-0.011,0.037-0.011c0.022,0,0.033,0.005,0.037,0.011c-0.026,0.128-0.051,0.395-0.041,0.498
						c-0.019,0.027-0.07,0.031-0.092,0.009c-0.044-0.242-0.099-0.297-0.422-0.297h-0.169c-0.084,0-0.084,0-0.084,0.136v1.336
						c0,0.323,0.029,0.341,0.166,0.353l0.113,0.011c0.018,0.025,0.018,0.081-0.011,0.091c-0.172-0.007-0.309-0.011-0.437-0.011
						c-0.128,0-0.275,0.004-0.466,0.011c-0.025-0.011-0.025-0.071-0.004-0.091l0.125-0.011c0.139-0.011,0.165-0.029,0.165-0.353
						V32.911z"/>
					<path class="primarycolor" d="M18.271,33.983c0.088,0,0.114,0,0.147,0.081l0.132,0.373c0.037,0.134,0.018,0.156-0.088,0.164
						l-0.066,0.011c-0.015,0.02-0.015,0.081,0.011,0.091c0.11-0.007,0.246-0.011,0.378-0.011c0.158,0,0.275,0.004,0.4,0.011
						c0.022-0.011,0.022-0.066-0.003-0.091L19.138,34.6c-0.162-0.029-0.18-0.044-0.243-0.255l-0.447-1.298
						c-0.052-0.136-0.092-0.281-0.144-0.422c-0.011-0.015-0.025-0.026-0.047-0.026c-0.004,0-0.107,0.129-0.217,0.145
						c0.008,0.054-0.021,0.131-0.065,0.228l-0.419,1.107c-0.066,0.168-0.114,0.297-0.146,0.378c-0.048,0.099-0.088,0.132-0.18,0.143
						l-0.084,0.011c-0.029,0.031-0.022,0.081,0,0.091c0.106-0.007,0.209-0.011,0.301-0.011c0.128,0.004,0.231,0.004,0.331,0.011
						c0.025-0.011,0.033-0.066,0.011-0.091L17.694,34.6c-0.114-0.019-0.125-0.029-0.066-0.205l0.11-0.331
						c0.033-0.081,0.04-0.081,0.125-0.081H18.271z M17.911,33.836c-0.103,0-0.103-0.005-0.059-0.129c0,0,0.198-0.583,0.216-0.605
						c0,0,0.004-0.029,0.019-0.029c0.018,0,0.018,0.029,0.018,0.029c0.015,0.022,0.209,0.609,0.209,0.609
						c0.041,0.11,0.034,0.125-0.081,0.125H17.911z"/>
					<path class="primarycolor" d="M13.185,36.491c0-0.146,0.004-0.209,0.026-0.228c0.014-0.015,0.113-0.043,0.228-0.043
						c0.47,0,0.793,0.304,0.793,0.913c0,0.521-0.224,0.911-0.724,0.911c-0.297,0-0.323-0.158-0.323-0.461V36.491z M12.866,37.703
						c0,0.33-0.034,0.342-0.162,0.355l-0.063,0.012c-0.018,0.022-0.018,0.08,0.007,0.092c0.125-0.004,0.25-0.012,0.356-0.012
						c0.055,0,0.11,0.008,0.18,0.012c0.063,0,0.144,0.011,0.228,0.011c0.254,0,0.496-0.044,0.698-0.15
						c0.345-0.202,0.499-0.551,0.499-0.893c0-0.459-0.235-0.789-0.573-0.931c-0.206-0.081-0.4-0.101-0.665-0.101
						c-0.275,0-0.503,0.009-0.701,0.02c-0.022,0.017-0.022,0.075,0,0.092l0.059,0.006c0.125,0.022,0.136,0.059,0.136,0.356V37.703z"
						/>
					<path class="primarycolor" d="M15.018,36.55c0-0.329-0.025-0.34-0.169-0.356l-0.047-0.011c-0.022-0.021-0.022-0.075,0.007-0.084
						c0.117,0.004,0.253,0.009,0.389,0.009c0.129,0,0.269-0.005,0.4-0.009c0.018,0.009,0.025,0.063,0.004,0.084l-0.066,0.011
						c-0.139,0.017-0.166,0.027-0.166,0.356v0.716c0,0.421,0.125,0.779,0.541,0.779c0.393,0,0.558-0.306,0.558-0.775v-0.382
						c0-0.235,0-0.525-0.055-0.613c-0.025-0.048-0.077-0.075-0.15-0.081L16.2,36.183c-0.025-0.021-0.025-0.075,0.007-0.084
						c0.103,0.004,0.217,0.009,0.331,0.009c0.129,0,0.21-0.005,0.323-0.009c0.022,0.014,0.033,0.063,0.007,0.084l-0.074,0.017
						c-0.051,0.011-0.106,0.021-0.128,0.075c-0.037,0.088-0.037,0.367-0.037,0.613v0.367c0,0.279-0.047,0.54-0.202,0.712
						c-0.154,0.173-0.382,0.239-0.588,0.239c-0.282,0-0.481-0.066-0.624-0.206c-0.132-0.128-0.198-0.345-0.198-0.661V36.55z"/>
					<path class="primarycolor" d="M17.72,36.55c0-0.317,0.029-0.329,0.168-0.351l0.066-0.009c0.025-0.022,0.019-0.083-0.007-0.092
						c-0.128,0.004-0.264,0.009-0.4,0.009c-0.135,0-0.268-0.005-0.422-0.009c-0.025,0.009-0.025,0.069-0.004,0.092l0.085,0.009
						c0.143,0.021,0.169,0.033,0.169,0.351v1.153c0,0.323-0.026,0.334-0.169,0.353l-0.092,0.015
						c-0.033,0.022-0.015,0.08,0.007,0.092c0.125-0.004,0.276-0.012,0.426-0.012h0.316c0.166,0,0.316,0,0.437,0.008
						c0.129,0,0.228,0,0.286,0.004c0.033-0.085,0.096-0.319,0.125-0.454c-0.018-0.021-0.066-0.031-0.092-0.021
						c-0.144,0.325-0.19,0.34-0.521,0.34c-0.242,0-0.29-0.026-0.323-0.063c-0.048-0.062-0.055-0.169-0.055-0.327V36.55z"/>
					<g>
						<path class="primarycolor" d="M18.322,37.152l-0.007,0.025l0.092-0.003l0.007-0.019c0.033-0.085,0.07-0.185,0.188-0.185
							c0.044,0,0.092,0.019,0.216,0.07l0.033,0.019c0.243,0.114,0.275,0.128,0.356,0.125c0.132,0.003,0.287-0.103,0.32-0.349v-0.021
							l-0.092,0.005l-0.004,0.016c-0.029,0.132-0.088,0.19-0.191,0.19c-0.058,0-0.077-0.006-0.282-0.108
							c-0.198-0.092-0.264-0.108-0.334-0.108C18.623,36.811,18.374,36.794,18.322,37.152z"/>
					</g>
				</g>
				<path class="primarycolor" d="M31.603,30.153v-1.626c0,0-2.126,0.94-5.775,0.415c-3.467-0.485-4.91,0.466-4.91,0.466
					s-1.446-0.951-4.905-0.466c-3.657,0.525-5.78-0.415-5.78-0.415v1.626H9.264v12.353h10.067c0,0,0.489,0.614,1.586,0.614
					c1.098,0,1.579-0.614,1.579-0.614h10.079V30.153H31.603z M20.496,41.256c0,0-1.222-0.832-4.696-0.39
					c-3.466,0.454-4.715-0.347-4.715-0.347s0-10.717,0-10.781c0-0.07-0.07-0.141-0.07-0.141s1.535,0.647,5.001,0.205
					c3.474-0.45,4.479,0.384,4.479,0.384V41.256z M30.759,29.739c0,0.064,0,10.788,0,10.788s-1.249,0.804-4.722,0.351
					c-3.47-0.449-4.693,0.389-4.693,0.389V30.198c0,0,1.01-0.833,4.483-0.39c3.466,0.448,4.993-0.21,4.993-0.21
					S30.759,29.669,30.759,29.739z"/>
				<g>
					<path class="primarycolor" d="M23.768,33.194c-0.022,0.026-0.07,0.026-0.088,0.011c-0.048-0.191-0.168-0.439-0.518-0.439
						c-0.341,0-0.683,0.27-0.683,0.87c0,0.626,0.352,0.931,0.697,0.931c0.342,0,0.489-0.244,0.559-0.433
						c0.022-0.034,0.069-0.015,0.081,0.011c-0.015,0.194-0.092,0.395-0.129,0.448c-0.029,0.007-0.063,0.019-0.092,0.022
						c-0.063,0.022-0.246,0.077-0.418,0.077c-0.261,0-0.492-0.061-0.679-0.202c-0.217-0.156-0.378-0.426-0.378-0.811
						c0-0.34,0.132-0.606,0.334-0.779c0.195-0.161,0.47-0.253,0.734-0.253c0.151,0,0.334,0.036,0.467,0.069
						c0.033,0.011,0.048,0.011,0.07,0.022C23.728,32.798,23.735,32.972,23.768,33.194z"/>
					<path class="primarycolor" d="M24.292,33.095c0-0.329-0.033-0.334-0.18-0.356l-0.043-0.011c-0.022-0.022-0.022-0.081,0.007-0.086
						c0.051,0.005,0.117,0.005,0.187,0.005c0.066,0,0.132,0,0.202,0h0.525c0.198,0,0.367,0,0.408-0.005
						c0.011,0.053,0.029,0.292,0.051,0.428c-0.011,0.025-0.077,0.033-0.099,0.011c-0.048-0.18-0.095-0.253-0.187-0.282
						c-0.074-0.022-0.158-0.022-0.246-0.022h-0.154c-0.125,0-0.125,0-0.125,0.18v0.562c0,0.082,0,0.082,0.07,0.082h0.095
						c0.269,0,0.316,0,0.338-0.134l0.022-0.109c0.025-0.016,0.081-0.016,0.092,0.006c0,0.081-0.007,0.189-0.007,0.307
						c0,0.114,0.007,0.235,0.007,0.327c-0.011,0.021-0.066,0.021-0.092,0.003l-0.022-0.128c-0.022-0.119-0.069-0.13-0.338-0.13
						h-0.095c-0.07,0-0.07,0.011-0.07,0.083v0.356c0,0.156,0.003,0.27,0.048,0.319c0.037,0.047,0.044,0.07,0.293,0.07
						c0.382,0.003,0.404-0.088,0.511-0.331c0.022-0.022,0.077-0.011,0.099,0.022c-0.022,0.125-0.088,0.361-0.136,0.444
						c-0.059-0.007-0.114-0.007-0.239-0.007c-0.125-0.004-0.231-0.004-0.411-0.004h-0.337c-0.132,0-0.316,0.004-0.452,0.011
						c-0.026-0.011-0.029-0.066-0.003-0.091l0.102-0.011c0.147-0.011,0.18-0.029,0.18-0.353V33.095z"/>
					<path class="primarycolor" d="M26.375,33.036c0-0.146,0.003-0.209,0.025-0.228c0.015-0.021,0.011-0.042,0.128-0.042
						c0.477,0,0.808,0.297,0.808,0.901c0,0.532-0.234,0.921-0.742,0.921c-0.297,0-0.22-0.163-0.22-0.46V33.036z M26.044,34.248
						c0,0.323-0.029,0.341-0.165,0.353l-0.059,0.011c-0.015,0.025-0.015,0.081,0.007,0.091c0.125-0.007,0.253-0.011,0.36-0.011
						c0.055,0,0.114,0.004,0.188,0.011c0.069,0.004,0.091,0.011,0.176,0.011c0.26,0,0.459-0.041,0.661-0.154
						c0.349-0.195,0.507-0.544,0.507-0.893c0-0.459-0.239-0.789-0.584-0.929c-0.206-0.076-0.356-0.097-0.628-0.097
						c-0.279,0-0.448,0.005-0.657,0.021c-0.022,0.02-0.022,0.076,0,0.092l0.059,0.006c0.136,0.015,0.136,0.055,0.136,0.353V34.248z"
						/>
					<path class="primarycolor" d="M28.967,32.724c0.444,0,0.635,0.545,0.635,1.01c0,0.622-0.257,0.886-0.581,0.886
						c-0.473,0-0.642-0.584-0.642-1.012C28.379,32.95,28.688,32.724,28.967,32.724z M29,32.599c-0.588,0-1.006,0.471-1.006,1.102
						c0,0.547,0.367,1.045,1.006,1.045c0.569,0,0.992-0.461,0.992-1.07C29.992,33.113,29.654,32.599,29,32.599z"/>
					<path class="primarycolor" d="M22.879,38.07c-0.055-0.07-0.092-0.281-0.092-0.476c0.022-0.028,0.07-0.028,0.092-0.011
						c0.059,0.163,0.224,0.493,0.515,0.493c0.227,0,0.355-0.146,0.355-0.33c0-0.181-0.081-0.325-0.309-0.45l-0.125-0.075
						c-0.224-0.13-0.426-0.319-0.426-0.595c0-0.309,0.228-0.569,0.665-0.569c0.157,0,0.265,0.041,0.411,0.061
						c0.033,0.072,0.066,0.277,0.066,0.417c-0.018,0.025-0.07,0.037-0.099,0.011c-0.04-0.157-0.15-0.367-0.411-0.367
						c-0.235,0-0.334,0.162-0.334,0.329c0,0.13,0.088,0.267,0.287,0.38l0.191,0.096c0.187,0.108,0.404,0.297,0.404,0.611
						c0,0.351-0.265,0.611-0.698,0.611C23.103,38.206,22.938,38.108,22.879,38.07z"/>
					<path class="primarycolor" d="M24.641,36.572c0-0.279,0-0.331-0.125-0.352l-0.106-0.011c-0.015-0.02-0.015-0.075,0.003-0.092
						c0.213-0.02,0.389-0.02,0.669-0.02c0.279,0,0.492,0.036,0.624,0.122c0.158,0.098,0.257,0.26,0.257,0.465
						c0,0.471-0.434,0.603-0.672,0.603c-0.025,0-0.048,0-0.078-0.008c-0.021-0.015-0.025-0.059-0.011-0.075
						c0.279-0.053,0.375-0.259,0.375-0.512c0-0.25-0.157-0.473-0.426-0.473c-0.158,0-0.158,0.012-0.158,0.131v1.352
						c0,0.33,0.026,0.342,0.173,0.353l0.11,0.015c0.015,0.022,0.015,0.08-0.007,0.092c-0.18-0.004-0.313-0.012-0.444-0.012
						c-0.129,0-0.265,0.008-0.393,0.012c-0.021-0.012-0.021-0.069,0-0.092l0.048-0.004c0.14-0.021,0.161-0.033,0.161-0.363V36.572z"
						/>
					<path class="primarycolor" d="M26.422,37.703c0,0.33-0.029,0.342-0.169,0.353l-0.114,0.015c-0.014,0.022-0.014,0.08,0.011,0.092
						c0.129-0.004,0.316-0.012,0.444-0.012h0.345c0.18,0,0.331,0,0.455,0.008c0.125,0,0.188,0,0.253,0.004
						c0.037-0.085,0.103-0.319,0.125-0.454c-0.022-0.027-0.07-0.038-0.1-0.021c-0.106,0.255-0.128,0.347-0.518,0.34
						c-0.25,0-0.297-0.026-0.334-0.063c-0.044-0.062-0.051-0.169-0.051-0.331v-0.341c0-0.076,0-0.087,0.073-0.087h0.139
						c0.264,0,0.319,0.011,0.334,0.134l0.021,0.125c0.022,0.022,0.081,0.022,0.1,0c-0.007-0.095-0.011-0.205-0.011-0.323
						c0-0.113,0.003-0.222,0.011-0.313c-0.019-0.022-0.077-0.022-0.1,0l-0.021,0.102c-0.015,0.132-0.07,0.143-0.334,0.143h-0.139
						c-0.073,0-0.073-0.011-0.073-0.088v-0.572c0-0.173,0-0.179,0.125-0.179h0.202c0.081,0,0.172,0.006,0.242,0.027
						c0.1,0.022,0.14,0.103,0.191,0.275c0.022,0.025,0.084,0.015,0.096-0.011c-0.015-0.129-0.037-0.375-0.048-0.426
						c-0.037,0.004-0.216,0.009-0.411,0.009h-0.573c-0.059,0-0.128,0-0.194-0.005c-0.07,0-0.136-0.004-0.191-0.004
						c-0.025,0.009-0.025,0.069-0.011,0.092l0.055,0.003c0.14,0.017,0.169,0.027,0.169,0.356V37.703z"/>
					<path class="primarycolor" d="M28.155,38.07c-0.051-0.07-0.092-0.281-0.092-0.476c0.019-0.028,0.074-0.028,0.092-0.011
						c0.063,0.163,0.217,0.493,0.514,0.493c0.228,0,0.36-0.146,0.36-0.33c0-0.181-0.084-0.325-0.305-0.45l-0.129-0.075
						c-0.235-0.13-0.43-0.319-0.43-0.595c0-0.309,0.225-0.569,0.668-0.569c0.15,0,0.268,0.041,0.404,0.061
						c0.033,0.072,0.066,0.277,0.066,0.417c-0.019,0.025-0.066,0.037-0.099,0.011c-0.044-0.157-0.15-0.367-0.404-0.367
						c-0.239,0-0.342,0.162-0.342,0.329c0,0.13,0.092,0.267,0.29,0.38l0.188,0.096c0.195,0.108,0.408,0.297,0.408,0.611
						c0,0.351-0.257,0.611-0.69,0.611C28.372,38.206,28.218,38.108,28.155,38.07z"/>
				</g>
			</g>
			<path class="primarycolor" d="M20.918,10.564H1.127l0.004,17.984c0,17.151,10.898,26.334,19.787,31.347
				c8.89-5.013,19.784-14.195,19.784-31.347l0.004-17.984H20.918z M20.918,56.738c-0.98-0.559-1.928-1.148-2.944-1.846
				c0.797-0.347,1.483-0.882,2.944-0.882c1.454,0,2.152,0.535,2.941,0.882C22.846,55.59,21.895,56.18,20.918,56.738z M27.777,51.799
				c-0.507,0.438-0.738,0.58-1.216,0.676c-0.231,0.055-0.73,0.071-0.73,0.071c-2.012,0-2.449-1.206-4.913-1.206
				c-2.456,0-2.9,1.206-4.916,1.206c0,0-0.492-0.017-0.724-0.071c-0.477-0.096-0.708-0.237-1.222-0.676
				c-0.991-0.864-1.851-1.763-2.758-2.806c1.847,0,2.31,1.12,4.704,1.12c2.016,0,2.46-1.212,4.916-1.212
				c2.464,0,2.901,1.212,4.913,1.212c2.401,0,2.849-1.12,4.704-1.12C29.635,50.036,28.772,50.935,27.777,51.799z M38.003,13.386
				c0,0.112,0,15.438,0,15.438c0,7.274-2.243,13.042-5.449,17.584c0.003,0,0,0,0,0s-0.617-0.239-1.59-0.239
				c-2.056,0-2.673,1.206-5.122,1.206c-1.491,0-2.126-0.655-3.345-0.992v-2.955c0,0-0.363,0.515-1.576,0.515
				c-1.222,0-1.579-0.515-1.579-0.515v2.943c-1.222,0.346-1.854,0.999-3.341,0.999c-2.457,0-3.074-1.205-5.126-1.205
				c-0.981,0-1.605,0.237-1.605,0.237s-0.007,0.006,0,0C6.062,41.866,3.83,36.099,3.83,28.825c0,0,0-15.326,0-15.438
				c0-0.119-0.117-0.244-0.117-0.244s0.117,0.114,0.235,0.114c0.113,0,16.971,0,16.971,0s16.825,0,16.957,0
				c0.128,0,0.243-0.114,0.243-0.114S38.003,13.267,38.003,13.386z"/>
			<path class="primarycolor" d="M22.384,25.255c0,0,0.125,0.103,0.227,0.103c0.107,0,6.694,0,6.694,0l2.291,1.337v-5.431l-2.291,1.329
				c0,0-6.587,0-6.694,0c-0.103,0-0.246,0.122-0.246,0.122s0.132-0.136,0.132-0.261c0-0.118,0-5.131,0-5.131l1.333-2.304h-5.827
				l1.336,2.304c0,0,0,5.014,0,5.131c0,0.13,0.122,0.254,0.122,0.254s-0.122-0.114-0.246-0.114s-6.683,0-6.683,0l-2.299-1.329v5.431
				l2.299-1.337c0,0,6.573,0,6.687,0c0.113,0,0.242-0.103,0.242-0.103s-0.122,0.125-0.122,0.239c0,0.117,0,2.647,0,2.647
				s0.922,0.099,1.579,0.472c0.657-0.373,1.579-0.472,1.579-0.472s0-2.552,0-2.655C22.497,25.38,22.384,25.255,22.384,25.255z"/>
		</g>
		<path class="primarycolor" d="M7.681,16.597c-0.371-0.07-2.42-0.473-2.42-0.473s1.374,1.567,1.624,1.854
			c-0.25,0.279-1.624,1.854-1.624,1.854s2.045-0.406,2.42-0.481c0.118,0.351,0.79,2.33,0.79,2.33s0.676-1.979,0.793-2.33
			c0.374,0.076,2.416,0.481,2.416,0.481s-1.373-1.568-1.619-1.854c0.246-0.287,1.619-1.854,1.619-1.854s-2.042,0.403-2.416,0.473
			c-0.118-0.356-0.793-2.33-0.793-2.33S7.799,16.241,7.681,16.597z M8.427,16.117l0.044-0.351l0.048,0.351l0.367,1.145l1.175-0.253
			l0.327-0.14l-0.279,0.22l-0.812,0.889l0.812,0.885l0.279,0.224l-0.327-0.143L8.885,18.69l-0.367,1.142l-0.048,0.356l-0.044-0.356
			L8.06,18.69l-1.175,0.253l-0.331,0.143l0.283-0.224l0.812-0.885l-0.812-0.889l-0.283-0.22l0.331,0.14l1.175,0.253L8.427,16.117z"
			/>
		<polygon class="tertiarycolor knockout" points="8.427,16.117 8.471,15.766 8.519,16.117 8.885,17.262 10.061,17.009 10.387,16.869 10.108,17.089 
			9.297,17.978 10.108,18.863 10.387,19.087 10.061,18.944 8.885,18.69 8.519,19.833 8.471,20.188 8.427,19.833 8.06,18.69 
			6.885,18.944 6.554,19.087 6.837,18.863 7.648,17.978 6.837,17.089 6.554,16.869 6.885,17.009 8.06,17.262 		"/>
	</g>
</g>
</svg>
