<?xml version="1.0" encoding="iso-8859-1"?>
<svg version="1.2" baseProfile="tiny" class="logocolor nd" xmlns="http://www.w3.org/2000/svg" xmlns:xlink="http://www.w3.org/1999/xlink" viewBox="0 0 215 70" xml:space="preserve">
<g>
	<g>
		<path class="primarycolor" d="M53.613,30.973c0,0.632,0,3.229,0.06,3.714c-0.165,0.239-0.461,0.318-0.713,0.299
			c-0.338-0.446-0.953-1.163-2.472-2.894l-4.944-5.643c-1.376-1.538-2.051-2.341-2.408-2.66c-0.064,0-0.064,0.235-0.064,1.355v4.114
			c0,1.586,0.022,3.532,0.379,4.167c0.191,0.314,0.548,0.439,1.08,0.526l0.461,0.06c0.188,0.149,0.169,0.554-0.041,0.614
			c-0.784-0.038-1.605-0.06-2.411-0.06c-0.882,0-1.452,0.022-2.195,0.06c-0.168-0.104-0.21-0.465-0.042-0.614l0.466-0.099
			c0.401-0.07,0.78-0.15,0.933-0.487c0.271-0.656,0.271-2.498,0.271-4.167v-5.004c0-1.646,0.022-1.984-0.698-2.596
			c-0.233-0.187-0.822-0.36-1.118-0.427l-0.318-0.061c-0.146-0.125-0.128-0.548,0.089-0.615c0.796,0.089,1.958,0.067,2.491,0.067
			c0.44,0,0.946-0.023,1.453-0.067c0.363,0.916,2.666,3.57,3.402,4.373l2.115,2.284c0.889,0.975,2.848,3.208,3.064,3.34
			c0.06-0.065,0.06-0.169,0.06-0.511v-4.118c0-1.581-0.019-3.528-0.405-4.16c-0.188-0.315-0.525-0.442-1.054-0.532l-0.484-0.061
			c-0.188-0.145-0.169-0.548,0.045-0.615c0.818,0.043,1.602,0.067,2.427,0.067c0.907,0,1.455-0.023,2.216-0.067
			c0.172,0.108,0.214,0.47,0.045,0.615l-0.488,0.108c-0.404,0.061-0.758,0.15-0.911,0.484c-0.293,0.656-0.293,2.491-0.293,4.16
			V30.973z"/>
		<path class="primarycolor" d="M64.057,21.13c3.364,0,4.801,3.697,4.801,6.887c0,4.245-1.947,6.042-4.354,6.042
			c-3.612,0-4.861-3.975-4.861-6.886C59.643,22.673,61.948,21.13,64.057,21.13z M64.334,20.286c-4.434,0-7.562,3.188-7.562,7.495
			c0,3.762,2.746,7.116,7.523,7.116c4.259,0,7.431-3.099,7.431-7.261C71.727,23.79,69.214,20.286,64.334,20.286z"/>
		<path class="primarycolor" d="M78.26,22.396c0-0.887-0.016-0.924-0.567-0.924h-0.625c-1.939,0-2.51,0.231-3.29,1.938
			c-0.153,0.126-0.593,0.064-0.679-0.146c0.357-1.144,0.679-2.449,0.822-3.195c0.042-0.061,0.131-0.08,0.235-0.08
			c0.083,0,0.169,0.019,0.21,0.08c0.108,0.531,0.404,0.554,1.838,0.554h7.492c1.032,0,1.351-0.067,1.605-0.554
			c0.083-0.039,0.168-0.08,0.251-0.08c0.127,0,0.236,0.041,0.277,0.104c-0.213,0.863-0.383,2.683-0.318,3.359
			c-0.108,0.173-0.465,0.216-0.653,0.065c-0.273-1.652-0.675-2.045-2.934-2.045h-0.644c-0.551,0-0.573,0.037-0.573,0.924v9.127
			c0,2.239,0.194,2.3,1.188,2.408l0.758,0.08c0.146,0.149,0.127,0.529-0.042,0.614c-1.229-0.038-2.175-0.06-3.105-0.06
			c-0.926,0-1.924,0.022-3.274,0.06c-0.17-0.085-0.192-0.506-0.042-0.614l0.886-0.099c0.991-0.089,1.182-0.15,1.182-2.389V22.396z"
			/>
		<path class="primarycolor" d="M92.081,22.439c0-0.966,0.022-1.038,1.122-1.038c1.838,0,2.917,1.458,2.917,3.131
			c0,2.006-0.952,3.019-3.022,3.019c-1.017,0-1.017-0.041-1.017-0.717V22.439z M89.631,31.523c0,2.239-0.188,2.3-1.181,2.428
			l-0.465,0.06c-0.188,0.149-0.127,0.529,0.042,0.614c0.971-0.038,1.923-0.06,2.854-0.06c0.927,0,1.876,0.022,2.803,0.06
			c0.175-0.085,0.197-0.465,0.044-0.614l-0.462-0.06c-0.993-0.128-1.185-0.188-1.185-2.428v-2.701c0-0.446,0.022-0.468,0.656-0.468
			c0.694,0,0.93,0.083,1.309,0.717c0.506,0.825,1.103,1.989,1.669,2.876c1.29,1.965,2.389,2.787,4.415,2.787
			c0.736,0,1.14-0.067,1.391-0.127c0.061-0.108,0.061-0.337-0.041-0.424c-0.251-0.022-0.863-0.149-1.458-0.656
			c-0.991-0.825-2.052-2.617-3.733-5.47c-0.086-0.127-0.128-0.296,0-0.36c1.032-0.423,2.532-1.395,2.532-3.334
			c0-1.521-0.784-2.517-1.857-3.083c-0.93-0.512-2.363-0.723-4.017-0.723c-1.729,0-3.526,0.067-4.857,0.198
			c-0.166,0.104-0.166,0.437-0.02,0.586l0.548,0.061c0.994,0.108,1.012,0.363,1.012,2.389V31.523z"/>
		<path class="primarycolor" d="M105.104,23.669c0-2.239-0.188-2.31-1.182-2.455l-0.337-0.043c-0.144-0.145-0.127-0.525,0.044-0.615
			c0.398,0.02,0.844,0.043,1.306,0.043c0.465,0.023,0.953,0.023,1.417,0.023h4.036c1.351,0,2.58-0.023,2.851-0.067
			c0.083,0.363,0.21,2.032,0.337,2.937c-0.085,0.175-0.506,0.211-0.674,0.086c-0.339-1.226-0.657-1.751-1.333-1.92
			c-0.486-0.15-1.121-0.187-1.688-0.187h-1.417c-0.911,0-0.911,0.037-0.911,1.237v3.576c0,0.549,0.022,0.571,0.512,0.571h1.007
			c1.844,0,2.2-0.022,2.351-0.933l0.146-0.717c0.17-0.151,0.571-0.151,0.676,0.022c-0.019,0.567-0.06,1.329-0.06,2.112
			c0,0.796,0.041,1.542,0.06,2.217c-0.104,0.151-0.506,0.151-0.676,0.019l-0.146-0.844c-0.15-0.886-0.507-0.929-2.351-0.929h-1.007
			c-0.49,0-0.512,0.043-0.512,0.572v2.684c0,1.075,0.042,1.833,0.363,2.196c0.251,0.295,0.612,0.463,2.385,0.463
			c2.683,0.043,3.146-0.571,3.882-2.286c0.194-0.143,0.555-0.08,0.679,0.128c-0.124,0.887-0.592,2.497-0.889,3.063
			c-0.464-0.019-1.14-0.038-2.025-0.038c-0.886-0.022-1.943-0.022-3.188-0.022h-2.408c-0.927,0-2.217,0.022-3.169,0.06
			c-0.169-0.085-0.188-0.465-0.039-0.614l0.777-0.08c0.994-0.108,1.182-0.169,1.182-2.408V23.669z"/>
		<path class="primarycolor" d="M126.463,23.265c0-0.994,0.02-1.437,0.168-1.561c0.147-0.133,0.829-0.302,1.708-0.302
			c3.532,0,5.959,2.032,5.959,6.211c0,3.574-1.688,6.23-5.446,6.23c-2.242,0-2.389-1.092-2.389-3.144V23.265z M124.01,31.523
			c0,2.239-0.188,2.3-1.181,2.428l-0.466,0.06c-0.143,0.149-0.124,0.529,0.044,0.614c0.928-0.038,1.88-0.06,2.683-0.06
			c0.398,0,0.844,0.022,1.352,0.06c0.506,0.022,1.079,0.061,1.712,0.061c1.922,0,3.736-0.249,5.237-1.01
			c2.618-1.331,3.781-3.736,3.781-6.083c0-3.15-1.797-5.383-4.332-6.313c-1.538-0.554-2.979-0.723-4.982-0.723
			c-2.07,0-3.762,0.067-5.281,0.198c-0.169,0.104-0.169,0.478-0.019,0.586l0.439,0.043c0.994,0.126,1.013,0.381,1.013,2.407V31.523z
			"/>
		<path class="primarycolor" d="M142.718,28.437c-0.5,0-0.567,0-0.338-0.608l0.886-2.472c0.385-0.994,0.551-1.52,0.633-1.67h0.041
			c0.108,0.151,0.236,0.549,0.596,1.67l0.889,2.533c0.17,0.506,0.083,0.547-0.506,0.547H142.718z M145.189,29.39
			c0.595,0,0.655,0,0.868,0.568l0.988,2.875c0.277,0.907,0.213,1.032-0.542,1.119l-0.471,0.06c-0.121,0.13-0.103,0.51,0.066,0.614
			c0.736-0.019,1.666-0.06,2.573-0.06c1.1,0,1.883,0.022,2.75,0.06c0.146-0.104,0.146-0.465-0.023-0.614l-0.315-0.06
			c-1.075-0.188-1.185-0.338-1.668-1.755l-3.046-8.847c-0.337-0.952-0.608-1.947-0.946-2.894c-0.086-0.108-0.193-0.169-0.363-0.169
			c-0.041,0-0.735,0.863-1.474,1.013c0.063,0.36-0.128,0.868-0.404,1.542l-2.896,7.519c-0.438,1.141-0.776,2.026-1.031,2.577
			c-0.318,0.697-0.548,0.885-1.163,0.975l-0.634,0.099c-0.144,0.191-0.124,0.51,0.025,0.614c0.736-0.038,1.392-0.06,2.087-0.06
			c0.866,0.022,1.567,0.022,2.235,0.06c0.176-0.085,0.194-0.465,0.045-0.614l-0.611-0.099c-0.783-0.112-0.866-0.173-0.44-1.42
			l0.864-2.534c0.188-0.568,0.169-0.568,0.717-0.568H145.189z"/>
		<path class="primarycolor" d="M170.791,34.011c0.21,0.089,0.189,0.529-0.041,0.614c-0.911-0.038-1.735-0.06-2.579-0.06
			c-0.991,0-1.902,0.022-2.83,0.06c-0.168-0.085-0.254-0.484-0.044-0.614l0.574-0.099c0.844-0.131,0.904-0.3,0.904-1.736v-6.674
			v-1.965h-0.042c-0.572,1.164-0.862,1.797-1.268,2.641l-1.813,3.719c-0.72,1.478-1.78,3.824-2.159,4.813
			c-0.084,0.086-0.397,0.086-0.548,0c-0.356-1.139-1.269-3.207-1.749-4.262l-1.883-4.058c-0.397-0.887-0.972-2.219-1.223-2.852
			h-0.044c-0.042,1.037-0.084,2.684-0.125,3.569c-0.044,1.291-0.089,3.173-0.089,4.902c0,1.398,0.021,1.731,0.934,1.881l0.694,0.123
			c0.149,0.13,0.149,0.529-0.02,0.614c-0.784-0.038-1.437-0.06-2.221-0.06c-0.674,0-1.433,0.022-2.255,0.06
			c-0.198-0.104-0.198-0.506-0.07-0.614l0.36-0.038c1.014-0.131,1.182-0.446,1.312-1.736c0.172-1.327,0.214-2.696,0.316-4.896
			c0.086-1.437,0.21-3.191,0.21-4.481c0-0.994-0.313-1.43-1.137-1.561l-0.721-0.128c-0.123-0.145-0.107-0.548,0.087-0.615
			c0.634,0.043,1.2,0.067,1.984,0.067c0.739,0,1.478,0,2.262-0.067c0.082,1.271,0.631,2.365,1.156,3.511l2.328,4.877
			c0.168,0.355,0.716,1.416,0.993,1.9c0.332-0.612,0.634-1.207,1.1-2.195l1.98-4.058c0.676-1.394,1.354-2.638,1.708-4.036
			c0.573,0.043,1.273,0.067,1.735,0.067c0.889,0,1.628-0.023,2.22-0.067c0.23,0.089,0.271,0.489,0.062,0.615l-0.695,0.108
			c-0.927,0.122-1.143,0.484-1.143,1.605c0,3.127,0.041,6.253,0.19,9.376c0.067,1.416,0.297,1.562,0.973,1.651L170.791,34.011z"/>
		<path class="primarycolor" d="M175.309,23.669c0-2.239-0.188-2.31-1.183-2.455l-0.337-0.043c-0.146-0.145-0.127-0.525,0.041-0.615
			c0.398,0.02,0.844,0.043,1.31,0.043c0.465,0.023,0.952,0.023,1.418,0.023h4.031c1.352,0,2.58-0.023,2.854-0.067
			c0.083,0.363,0.21,2.032,0.338,2.937c-0.086,0.175-0.506,0.211-0.682,0.086c-0.332-1.226-0.653-1.751-1.329-1.92
			c-0.487-0.15-1.114-0.187-1.688-0.187h-1.415c-0.906,0-0.906,0.037-0.906,1.237v3.576c0,0.549,0.019,0.571,0.506,0.571h1.013
			c1.841,0,2.198-0.022,2.348-0.933l0.143-0.717c0.17-0.151,0.571-0.151,0.676,0.022c-0.021,0.567-0.063,1.329-0.063,2.112
			c0,0.796,0.042,1.542,0.063,2.217c-0.104,0.151-0.506,0.151-0.676,0.019l-0.143-0.844c-0.149-0.886-0.507-0.929-2.348-0.929
			h-1.013c-0.487,0-0.506,0.043-0.506,0.572v2.684c0,1.075,0.044,1.833,0.355,2.196c0.256,0.295,0.612,0.463,2.39,0.463
			c2.682,0.043,3.146-0.571,3.89-2.286c0.188-0.143,0.547-0.08,0.675,0.128c-0.128,0.887-0.596,2.497-0.89,3.063
			c-0.467-0.019-1.143-0.038-2.028-0.038c-0.889-0.022-1.942-0.022-3.19-0.022h-2.405c-0.931,0-2.221,0.022-3.173,0.06
			c-0.162-0.085-0.188-0.465-0.042-0.614l0.783-0.08c0.994-0.108,1.183-0.169,1.183-2.408V23.669z"/>
		<path class="primarycolor" d="M41.228,8.878c0-1.317-0.095-1.355-0.895-1.53l-0.274-0.054c-0.13-0.099-0.111-0.424,0.042-0.479
			c0.65,0.034,1.245,0.056,1.86,0.056c0.604,0,1.201-0.022,1.946-0.056c0.153,0.056,0.172,0.38,0.036,0.479l-0.36,0.054
			c-0.822,0.137-0.901,0.213-0.901,1.53v2.696c0,1.91,0.633,3.209,2.488,3.209c1.72,0,2.465-1.299,2.465-3.19V9.816
			c0-1.915-0.112-2.354-0.937-2.468l-0.404-0.054c-0.131-0.118-0.112-0.385,0.044-0.479c0.609,0.034,1.048,0.056,1.603,0.056
			c0.554,0,0.978-0.022,1.586-0.056c0.156,0.094,0.156,0.38,0.019,0.479l-0.574,0.054c-0.497,0.058-0.646,0.573-0.646,2.468v1.891
			c0,2.448-1.13,3.729-3.561,3.729c-1.224,0-2.138-0.249-2.715-0.803c-0.573-0.57-0.822-1.45-0.822-2.696V8.878z"/>
		<path class="primarycolor" d="M62.222,9.816c0-1.915-0.111-2.392-0.818-2.468l-0.611-0.054c-0.134-0.118-0.118-0.385,0.038-0.479
			c0.707,0.034,1.144,0.056,1.704,0.056c0.551,0,0.975-0.022,1.583-0.056c0.15,0.094,0.15,0.38,0.019,0.479l-0.57,0.054
			c-0.5,0.058-0.652,0.573-0.652,2.468v3.208c0,0.385,0,1.934,0.057,2.223c-0.057,0.115-0.232,0.212-0.401,0.169
			c-0.209-0.268-0.595-0.666-1.777-1.949l-2.908-3.097c-0.726-0.764-1.223-1.263-1.472-1.474c-0.077,0-0.077,0.211-0.077,0.803
			v2.524c0,1.919,0.115,2.41,0.822,2.467l0.608,0.061c0.157,0.113,0.118,0.38-0.031,0.478c-0.714-0.041-1.153-0.06-1.701-0.06
			c-0.561,0-0.921,0.019-1.593,0.06c-0.153-0.08-0.153-0.382-0.019-0.478l0.574-0.061c0.497-0.057,0.653-0.573,0.653-2.467V8.803
			c0-0.634-0.019-0.902-0.405-1.188c-0.149-0.117-0.515-0.232-0.707-0.268L54.25,7.293c-0.13-0.118-0.13-0.405,0.038-0.479
			c0.726,0.056,1.243,0.056,1.646,0.056c0.268,0,0.532-0.022,0.768-0.056c0.379,0.728,1.089,1.548,1.867,2.349l1.803,1.854
			c0.421,0.422,1.529,1.632,1.74,1.782c0.111-0.043,0.111-0.31,0.111-0.764V9.816z"/>
		<path class="primarycolor" d="M70.447,8.878c0-1.317-0.077-1.393-0.896-1.53l-0.366-0.054c-0.131-0.099-0.115-0.424,0.041-0.479
			c0.745,0.034,1.338,0.056,1.946,0.056c0.615,0,1.208-0.022,1.953-0.056c0.153,0.056,0.172,0.38,0.038,0.479l-0.363,0.054
			c-0.825,0.137-0.901,0.213-0.901,1.53v4.282c0,1.322,0.076,1.393,0.901,1.529l0.363,0.061c0.134,0.095,0.115,0.417-0.038,0.478
			c-0.726-0.041-1.36-0.06-1.953-0.06c-0.608,0-1.201,0.019-1.946,0.06c-0.156-0.06-0.172-0.382-0.041-0.478l0.366-0.061
			c0.818-0.137,0.896-0.207,0.896-1.529V8.878z"/>
		<path class="primarycolor" d="M79.261,8.921c-0.574-1.267-0.647-1.36-1.105-1.477l-0.632-0.15c-0.117-0.118-0.137-0.385,0.017-0.479
			c0.5,0.034,1.13,0.056,1.72,0.056c0.694,0,1.248-0.022,1.856-0.056c0.156,0.075,0.175,0.38,0,0.479l-0.401,0.054
			c-0.493,0.077-0.493,0.325-0.076,1.263l0.94,2.12c0.478,1.093,0.799,1.803,1.086,2.43c0.385-0.802,0.71-1.605,1.073-2.406
			c0.401-0.88,0.937-2.205,1.127-2.758c0.138-0.403,0.111-0.533-0.458-0.648l-0.306-0.054c-0.175-0.118-0.112-0.366,0.038-0.479
			c0.557,0.034,1.051,0.056,1.567,0.056c0.611,0,1.054-0.022,1.359-0.056c0.186,0.075,0.229,0.38,0.093,0.479l-0.536,0.112
			c-0.573,0.118-0.688,0.29-1.299,1.586l-1.453,3.123c-0.573,1.22-1.131,2.613-1.36,3.248c-0.058,0.054-0.134,0.073-0.232,0.073
			c-0.074,0-0.15-0.019-0.223-0.073c-0.175-0.499-0.385-1.111-0.634-1.646L79.261,8.921z"/>
		<path class="primarycolor" d="M92.521,8.878c0-1.317-0.08-1.379-0.806-1.53l-0.268-0.054c-0.137-0.08-0.112-0.405,0.038-0.479
			c0.287,0.018,0.577,0.034,0.863,0.034c0.307,0.022,0.609,0.022,0.915,0.022h2.716c0.845,0,1.603-0.022,1.778-0.056
			c0.022,0.231,0.118,1.126,0.21,1.951c-0.077,0.156-0.386,0.168-0.498,0.038c-0.111-0.497-0.229-0.746-0.343-0.92
			c-0.303-0.458-1.166-0.458-1.622-0.458h-0.844c-0.672,0-0.691,0.02-0.691,0.608v2.126c0,0.347,0,0.384,0.363,0.384h0.898
			c1.016,0,1.108-0.153,1.264-0.727l0.099-0.361c0.092-0.142,0.379-0.116,0.478,0.034c-0.038,0.554-0.038,0.901-0.038,1.34
			c0,0.479,0,0.822,0.038,1.375c-0.098,0.154-0.385,0.173-0.478,0.043l-0.099-0.367c-0.156-0.573-0.248-0.723-1.264-0.723h-0.898
			c-0.363,0-0.363,0.057-0.363,0.436v1.375c0,0.578,0.038,1.173,0.213,1.374c0.172,0.198,0.517,0.272,1.603,0.272
			c1.226,0,1.934-0.062,2.487-1.591c0.134-0.131,0.44-0.093,0.497,0.079c-0.096,0.802-0.363,1.76-0.573,2.125
			c-0.59-0.022-1.144-0.041-1.679-0.041c-0.539-0.019-1.054-0.019-1.57-0.019h-1.685c-0.608,0-1.201,0.019-2.125,0.06
			c-0.15-0.06-0.169-0.382-0.032-0.478l0.516-0.061c0.819-0.094,0.898-0.207,0.898-1.529V8.878z"/>
		<path class="primarycolor" d="M106.264,7.901c0-0.496,0.137-0.535,0.845-0.535c1.338,0,2.01,0.841,2.01,1.796
			c0,1.319-0.653,1.822-1.893,1.822c-0.939,0-0.962,0-0.962-0.479V7.901z M104.814,13.16c0,1.322-0.073,1.356-0.901,1.529
			l-0.284,0.061c-0.175,0.077-0.156,0.417,0.036,0.478c0.671-0.041,1.261-0.06,1.873-0.06c0.596,0,1.23,0.019,2.033,0.06
			c0.149-0.06,0.168-0.382,0.035-0.478l-0.439-0.061c-0.825-0.118-0.902-0.207-0.902-1.529v-1.359c0-0.268,0.042-0.299,0.539-0.299
			c0.306,0,0.612,0.073,0.768,0.299c0.398,0.614,0.914,1.452,1.391,2.067c0.844,1.07,1.529,1.431,2.679,1.431
			c0.367,0,0.629-0.033,0.803-0.094c0.08-0.058,0.08-0.226,0-0.306c-0.306-0.013-0.665-0.117-1.012-0.398
			c-0.632-0.519-1.476-1.452-2.431-3.062c-0.058-0.094-0.076-0.212,0-0.282c0.745-0.271,1.701-0.826,1.701-2.05
			c0-2.009-1.927-2.293-3.711-2.293c-1.048,0-2.119,0.034-3.169,0.113c-0.192,0.061-0.156,0.456,0,0.478l0.535,0.08
			c0.436,0.057,0.458,0.379,0.458,1.623V13.16z"/>
		<path class="primarycolor" d="M118.718,11.266c-0.921-0.478-1.707-1.223-1.707-2.293c0-1.394,1.074-2.37,3.009-2.37
			c0.665,0,1.124,0.175,1.776,0.287c0.156,0.325,0.287,1.051,0.269,1.876c-0.059,0.156-0.404,0.168-0.498,0.038
			c-0.156-0.672-0.652-1.642-1.776-1.642c-1.129,0-1.557,0.642-1.557,1.294c0,0.688,0.522,1.112,1.288,1.515l1.186,0.605
			c0.691,0.352,1.545,1.154,1.545,2.435c0,1.491-1.22,2.424-3.117,2.424c-1.168,0-1.933-0.398-2.2-0.59
			c-0.169-0.273-0.398-0.958-0.398-1.971c0.076-0.191,0.362-0.21,0.496-0.038c0.15,0.691,0.991,2.051,2.279,2.051
			c0.975,0,1.603-0.503,1.603-1.384c0-0.61-0.248-1.237-1.334-1.796L118.718,11.266z"/>
		<path class="primarycolor" d="M128.721,8.878c0-1.317-0.08-1.393-0.901-1.53l-0.359-0.054c-0.137-0.099-0.115-0.424,0.035-0.479
			c0.749,0.034,1.338,0.056,1.948,0.056c0.612,0,1.204-0.022,1.956-0.056c0.15,0.056,0.169,0.38,0.032,0.479l-0.359,0.054
			c-0.822,0.137-0.901,0.213-0.901,1.53v4.282c0,1.322,0.079,1.393,0.901,1.529l0.359,0.061c0.137,0.095,0.118,0.417-0.032,0.478
			c-0.729-0.041-1.36-0.06-1.956-0.06c-0.61,0-1.199,0.019-1.948,0.06c-0.15-0.06-0.172-0.382-0.035-0.478l0.359-0.061
			c0.821-0.137,0.901-0.207,0.901-1.529V8.878z"/>
		<path class="primarycolor" d="M139.697,7.921c0-0.497-0.025-0.497-0.404-0.497h-0.596c-1.163,0-1.659,0.117-2.121,1.43
			c-0.191,0.118-0.401,0.067-0.479-0.089c0.21-0.825,0.425-1.777,0.517-2.261c0.076-0.074,0.274-0.074,0.348,0
			c0.019,0.385,0.286,0.366,1.051,0.366h5.315c0.708,0,0.845-0.022,0.994-0.366c0.134-0.074,0.287-0.037,0.348,0.06
			c-0.156,0.494-0.229,1.511-0.194,2.239c-0.073,0.15-0.401,0.169-0.479,0.02c-0.13-1.245-0.634-1.398-1.776-1.398h-0.654
			c-0.365,0-0.42,0-0.42,0.497v5.239c0,1.322,0.08,1.436,0.901,1.529l0.516,0.061c0.131,0.095,0.115,0.417-0.038,0.478
			c-0.789-0.041-1.509-0.06-2.104-0.06c-0.611,0-1.301,0.019-2.103,0.06c-0.156-0.06-0.176-0.382-0.039-0.478l0.517-0.061
			c0.822-0.094,0.901-0.207,0.901-1.529V7.921z"/>
		<path class="primarycolor" d="M152.294,12.626c0-0.591-0.054-0.746-0.534-1.628l-1.396-2.58c-0.401-0.764-0.592-0.933-1.089-1.035
			l-0.497-0.089c-0.136-0.118-0.095-0.424,0.054-0.479c0.634,0.034,1.07,0.056,1.762,0.056c0.576,0,1.013-0.022,1.629-0.056
			c0.148,0.075,0.209,0.38,0.018,0.479l-0.268,0.054c-0.423,0.096-0.484,0.213-0.175,0.803l0.711,1.356
			c0.283,0.577,0.569,1.093,0.856,1.585c0.306-0.516,0.593-0.97,0.921-1.585l0.764-1.398c0.287-0.531,0.321-0.704-0.133-0.761
			l-0.401-0.054c-0.176-0.099-0.157-0.405,0.038-0.479c0.576,0.034,1.013,0.056,1.452,0.056c0.423,0,0.821-0.022,1.357-0.056
			c0.151,0.056,0.189,0.38,0.041,0.479l-0.459,0.089c-0.596,0.116-0.694,0.232-1.287,1.191l-1.185,1.908
			c-0.685,1.092-0.723,1.281-0.723,1.838v1.032c0,1.13,0.073,1.244,0.895,1.337l0.484,0.061c0.13,0.095,0.111,0.417-0.044,0.478
			c-0.838-0.041-1.473-0.06-2.062-0.06c-0.615,0-1.207,0.019-2.064,0.06c-0.156-0.06-0.175-0.382-0.044-0.478l0.483-0.061
			c0.823-0.094,0.895-0.207,0.895-1.337V12.626z"/>
		<path class="primarycolor" d="M168.667,7.096c2.106,0,3.08,2.067,3.08,4.112c0,2.618-1.398,3.619-2.851,3.619
			c-2.22,0-3.115-2.124-3.115-4.096C165.781,8.032,167.291,7.096,168.667,7.096z M168.805,6.542c-2.775,0-4.724,1.952-4.724,4.494
			c0,2.412,1.758,4.339,4.724,4.339c2.691,0,4.646-1.876,4.646-4.457C173.451,8.587,171.881,6.542,168.805,6.542z"/>
		<path class="primarycolor" d="M178.287,8.874c0-1.319-0.094-1.357-0.806-1.529l-0.228-0.058c-0.133-0.099-0.117-0.42,0.039-0.478
			c0.261,0.02,0.534,0.039,0.821,0.039c0.287,0.019,0.596,0.019,0.898,0.019h2.656c0.844,0,1.57-0.019,1.838-0.058
			c0.02,0.229,0.039,1.126,0.099,1.953c-0.079,0.191-0.385,0.21-0.506,0.035c-0.108-0.497-0.227-0.745-0.338-0.917
			c-0.328-0.479-1.169-0.455-1.627-0.455h-0.746c-0.593,0-0.646,0-0.646,0.666v2.214c0,0.352,0,0.385,0.36,0.385h1.032
			c1.013,0,1.11-0.156,1.261-0.723l0.098-0.366c0.097-0.136,0.38-0.111,0.476,0.038c-0.031,0.558-0.031,0.895-0.031,1.341
			c0,0.478,0,0.822,0.031,1.376c-0.096,0.153-0.379,0.172-0.476,0.037l-0.098-0.361c-0.15-0.574-0.248-0.727-1.261-0.727h-1.032
			c-0.36,0-0.36,0.056-0.36,0.44v1.417c0,1.319,0.073,1.45,0.897,1.524l0.593,0.063c0.131,0.092,0.112,0.417-0.041,0.478
			c-0.959-0.038-1.586-0.061-2.179-0.061c-0.611,0-1.203,0.022-1.949,0.061c-0.157-0.061-0.175-0.385-0.042-0.478l0.363-0.063
			c0.822-0.132,0.902-0.205,0.902-1.524V8.874z"/>
	</g>
	<g>
		<path class="secondarycolor knockout" d="M32.507,9.295c0,0.098,0,13.393,0,13.393c0,6.31-1.946,11.313-4.727,15.253c0.003,0,0,0,0,0
			s-0.535-0.207-1.379-0.207c-1.784,0-2.319,1.047-4.443,1.047c-1.294,0-1.845-0.569-2.902-0.861v-2.563
			c0,0-0.315,0.445-1.367,0.445c-1.061,0-1.37-0.445-1.37-0.445v2.552c-1.061,0.301-1.608,0.867-2.898,0.867
			c-2.131,0-2.667-1.045-4.447-1.045c-0.851,0-1.392,0.205-1.392,0.205s-0.006,0.005,0,0c-2.784-3.935-4.72-8.939-4.72-15.249
			c0,0,0-13.295,0-13.393c0-0.103-0.102-0.212-0.102-0.212s0.102,0.099,0.204,0.099c0.099,0,14.722,0,14.722,0s14.595,0,14.71,0
			c0.111,0,0.209-0.099,0.209-0.099S32.507,9.192,32.507,9.295z"/>
		<path class="secondarycolor knockout" d="M23.637,42.618c-0.44,0.38-0.641,0.503-1.055,0.585c-0.201,0.048-0.634,0.063-0.634,0.063
			c-1.746,0-2.125-1.046-4.262-1.046c-2.131,0-2.516,1.046-4.265,1.046c0,0-0.427-0.015-0.628-0.063
			c-0.414-0.082-0.614-0.205-1.06-0.585c-0.86-0.751-1.605-1.529-2.393-2.435c1.603,0,2.004,0.972,4.081,0.972
			c1.749,0,2.134-1.051,4.265-1.051c2.137,0,2.516,1.051,4.262,1.051c2.083,0,2.472-0.972,4.08-0.972
			C25.248,41.089,24.5,41.867,23.637,42.618z"/>
		<path class="secondarycolor knockout" d="M17.687,46.902c-0.851-0.485-1.672-0.996-2.554-1.601c0.691-0.302,1.287-0.766,2.554-0.766
			c1.261,0,1.866,0.464,2.551,0.766C19.358,45.906,18.534,46.417,17.687,46.902z"/>
		<path class="tertiarycolor knockout" d="M17.32,33.472c0,0-1.061-0.722-4.074-0.338c-3.006,0.394-4.09-0.301-4.09-0.301s0-9.296,0-9.352
			c0-0.061-0.061-0.123-0.061-0.123s1.332,0.562,4.338,0.178c3.013-0.39,3.886,0.333,3.886,0.333V33.472z"/>
		<path class="tertiarycolor knockout" d="M26.223,23.481c0,0.056,0,9.358,0,9.358s-1.083,0.698-4.096,0.305c-3.01-0.391-4.071,0.337-4.071,0.337
			v-9.602c0,0,0.876-0.723,3.889-0.338c3.007,0.389,4.332-0.183,4.332-0.183S26.223,23.42,26.223,23.481z"/>
		<g>
			<g>
				<path class="primarycolor" d="M7.583,37.937L7.583,37.937C7.596,37.933,7.589,37.937,7.583,37.937z"/>
			</g>
			<g>
				<g>
					<path class="primarycolor" d="M11.348,26.783c0.118-0.273,0.197-0.455,0.271-0.582c0.044-0.08,0.099-0.099,0.166-0.113l0.067-0.014
						c0.013-0.022,0.013-0.061-0.006-0.075c-0.073,0.005-0.159,0.005-0.258,0.005c-0.083,0-0.172,0-0.287-0.005
						c-0.02,0.014-0.022,0.052,0,0.075l0.077,0.019c0.073,0.022,0.083,0.042,0.041,0.15c-0.14,0.366-0.3,0.735-0.439,1.073
						c-0.029-0.061-0.099-0.223-0.146-0.341l-0.191-0.477c-0.108-0.274-0.127-0.334-0.127-0.363c0-0.02,0.019-0.027,0.073-0.046
						l0.073-0.014c0.016-0.02,0.016-0.061-0.006-0.075c-0.14,0.005-0.229,0.005-0.351,0.005c-0.105,0-0.216,0-0.318-0.005
						c-0.025,0.005-0.025,0.052-0.009,0.075l0.063,0.01c0.109,0.023,0.131,0.06,0.201,0.239l0.465,1.135
						c0.051,0.108,0.095,0.24,0.124,0.347c0.013,0.01,0.032,0.02,0.051,0.02c0.02,0,0.039-0.01,0.048-0.02
						c0.042-0.135,0.163-0.444,0.274-0.689L11.348,26.783z"/>
					<path class="primarycolor" d="M12.536,27.392c0,0.281,0.019,0.296,0.144,0.306l0.057,0.01c0.019,0.022,0.019,0.069-0.007,0.079
						c-0.111-0.006-0.232-0.01-0.344-0.01c-0.118,0-0.242,0.003-0.354,0.01c-0.022-0.01-0.022-0.057-0.003-0.079l0.054-0.01
						c0.124-0.009,0.146-0.025,0.146-0.306v-1c0-0.285-0.022-0.29-0.146-0.309l-0.054-0.01c-0.019-0.02-0.019-0.07,0.003-0.075
						c0.112,0.005,0.23,0.005,0.354,0.005c0.112,0,0.233,0,0.344-0.005c0.025,0.005,0.025,0.055,0.007,0.075l-0.057,0.01
						c-0.125,0.019-0.144,0.023-0.144,0.309V27.392z"/>
					<path class="primarycolor" d="M13.622,26.233c0-0.118,0-0.118-0.07-0.118h-0.144c-0.242,0-0.313,0.029-0.411,0.246
						c-0.016,0.019-0.073,0.01-0.083-0.015c0.048-0.149,0.083-0.314,0.102-0.413c0.007-0.004,0.019-0.009,0.029-0.009
						c0.009,0,0.025,0.004,0.025,0.009c0.013,0.071,0.051,0.071,0.229,0.071h1.058c0.134,0,0.172-0.005,0.204-0.071
						c0.01-0.004,0.023-0.009,0.032-0.009c0.019,0,0.028,0.004,0.032,0.009c-0.023,0.112-0.045,0.343-0.036,0.432
						c-0.016,0.023-0.06,0.027-0.08,0.008c-0.038-0.21-0.086-0.258-0.366-0.258h-0.147c-0.073,0-0.073,0-0.073,0.118v1.159
						c0,0.281,0.025,0.296,0.144,0.306l0.099,0.01c0.016,0.022,0.016,0.069-0.01,0.079c-0.149-0.006-0.268-0.01-0.379-0.01
						c-0.111,0-0.239,0.003-0.404,0.01c-0.022-0.01-0.022-0.062-0.003-0.079l0.108-0.01c0.122-0.009,0.144-0.025,0.144-0.306V26.233
						z"/>
					<path class="primarycolor" d="M15.39,27.163c0.076,0,0.099,0,0.127,0.07l0.115,0.323c0.031,0.117,0.016,0.136-0.077,0.142
						l-0.057,0.01c-0.013,0.017-0.013,0.069,0.009,0.079c0.096-0.006,0.213-0.01,0.328-0.01c0.137,0,0.239,0.003,0.347,0.01
						c0.019-0.01,0.019-0.057-0.003-0.079l-0.038-0.01c-0.14-0.025-0.156-0.038-0.21-0.221l-0.389-1.126
						c-0.044-0.118-0.08-0.244-0.124-0.366c-0.01-0.013-0.022-0.022-0.042-0.022c-0.003,0-0.092,0.112-0.188,0.126
						c0.006,0.046-0.019,0.113-0.057,0.198l-0.363,0.96c-0.058,0.146-0.099,0.258-0.128,0.328c-0.041,0.086-0.076,0.115-0.156,0.124
						l-0.073,0.01c-0.025,0.027-0.019,0.069,0,0.079c0.093-0.006,0.182-0.01,0.261-0.01c0.112,0.003,0.201,0.003,0.287,0.01
						c0.022-0.01,0.029-0.057,0.01-0.079l-0.08-0.01c-0.099-0.016-0.109-0.025-0.058-0.178l0.096-0.287
						c0.028-0.07,0.035-0.07,0.108-0.07H15.39z M15.078,27.036c-0.089,0-0.089-0.005-0.05-0.112c0,0,0.171-0.506,0.188-0.525
						c0,0,0.003-0.026,0.016-0.026c0.016,0,0.016,0.026,0.016,0.026c0.013,0.019,0.182,0.528,0.182,0.528
						c0.035,0.096,0.028,0.108-0.07,0.108H15.078z"/>
					<path class="primarycolor" d="M10.979,29.338c0-0.127,0.003-0.182,0.022-0.197c0.013-0.013,0.099-0.037,0.198-0.037
						c0.408,0,0.688,0.263,0.688,0.792c0,0.452-0.194,0.79-0.627,0.79c-0.258,0-0.28-0.137-0.28-0.4V29.338z M10.701,30.39
						c0,0.287-0.028,0.296-0.14,0.309l-0.054,0.009c-0.016,0.02-0.016,0.07,0.007,0.08c0.108-0.003,0.217-0.009,0.309-0.009
						c0.048,0,0.096,0.006,0.156,0.009c0.054,0,0.124,0.01,0.197,0.01c0.22,0,0.43-0.038,0.605-0.131
						c0.299-0.175,0.433-0.478,0.433-0.774c0-0.398-0.204-0.685-0.497-0.808c-0.178-0.07-0.347-0.087-0.577-0.087
						c-0.239,0-0.436,0.008-0.608,0.018c-0.019,0.015-0.019,0.065,0,0.08l0.051,0.005c0.108,0.019,0.118,0.051,0.118,0.309V30.39z"
						/>
					<path class="primarycolor" d="M12.568,29.39c0-0.286-0.022-0.295-0.146-0.309l-0.042-0.009c-0.019-0.019-0.019-0.066,0.006-0.074
						c0.102,0.003,0.22,0.008,0.338,0.008c0.111,0,0.232-0.004,0.347-0.008c0.016,0.008,0.022,0.055,0.003,0.074l-0.058,0.009
						c-0.121,0.014-0.144,0.023-0.144,0.309v0.621c0,0.365,0.109,0.675,0.469,0.675c0.34,0,0.484-0.265,0.484-0.672v-0.332
						c0-0.204,0-0.456-0.048-0.531c-0.022-0.042-0.066-0.066-0.13-0.07l-0.054-0.009c-0.022-0.019-0.022-0.066,0.007-0.074
						c0.089,0.003,0.188,0.008,0.287,0.008c0.111,0,0.182-0.004,0.28-0.008c0.019,0.013,0.028,0.055,0.006,0.074l-0.064,0.014
						c-0.044,0.01-0.092,0.019-0.112,0.066c-0.031,0.076-0.031,0.318-0.031,0.531v0.319c0,0.242-0.042,0.468-0.175,0.618
						c-0.134,0.149-0.331,0.207-0.51,0.207c-0.246,0-0.417-0.057-0.542-0.178c-0.115-0.111-0.172-0.3-0.172-0.573V29.39z"/>
					<path class="primarycolor" d="M14.912,29.39c0-0.276,0.025-0.286,0.146-0.305l0.058-0.008c0.022-0.019,0.016-0.072-0.006-0.08
						c-0.112,0.003-0.229,0.008-0.348,0.008c-0.117,0-0.232-0.004-0.366-0.008c-0.022,0.008-0.022,0.061-0.003,0.08l0.073,0.008
						c0.124,0.019,0.146,0.029,0.146,0.305v1c0,0.28-0.022,0.29-0.146,0.306l-0.08,0.013c-0.029,0.02-0.013,0.07,0.006,0.08
						c0.108-0.003,0.239-0.009,0.369-0.009h0.274c0.144,0,0.274,0,0.379,0.006c0.111,0,0.197,0,0.248,0.003
						c0.029-0.073,0.083-0.277,0.109-0.393c-0.016-0.019-0.058-0.027-0.08-0.019c-0.124,0.282-0.166,0.294-0.453,0.294
						c-0.21,0-0.251-0.022-0.28-0.054c-0.042-0.053-0.048-0.146-0.048-0.283V29.39z"/>
					<g>
						<path class="primarycolor" d="M15.435,29.912l-0.006,0.022l0.08-0.003l0.006-0.016c0.028-0.073,0.061-0.16,0.163-0.16
							c0.038,0,0.08,0.017,0.188,0.061l0.029,0.016c0.21,0.099,0.239,0.111,0.309,0.108c0.115,0.002,0.248-0.089,0.277-0.303v-0.018
							l-0.08,0.004l-0.003,0.013c-0.025,0.115-0.077,0.166-0.166,0.166c-0.051,0-0.067-0.005-0.246-0.094
							c-0.171-0.08-0.229-0.094-0.29-0.094C15.696,29.616,15.479,29.601,15.435,29.912z"/>
					</g>
				</g>
				<path class="primarycolor" d="M26.956,23.841V22.43c0,0-1.844,0.815-5.01,0.36c-3.007-0.42-4.259,0.405-4.259,0.405
					s-1.255-0.825-4.255-0.405c-3.173,0.456-5.014-0.36-5.014-0.36v1.411h-0.84v10.715h8.734c0,0,0.424,0.533,1.376,0.533
					s1.37-0.533,1.37-0.533H27.8V23.841H26.956z M17.32,33.472c0,0-1.061-0.722-4.074-0.338c-3.006,0.394-4.09-0.301-4.09-0.301
					s0-9.296,0-9.352c0-0.061-0.061-0.123-0.061-0.123s1.332,0.562,4.338,0.178c3.013-0.39,3.886,0.333,3.886,0.333V33.472z
					 M26.223,23.481c0,0.056,0,9.358,0,9.358s-1.083,0.698-4.096,0.305c-3.01-0.391-4.071,0.337-4.071,0.337v-9.602
					c0,0,0.876-0.723,3.889-0.338c3.007,0.389,4.332-0.183,4.332-0.183S26.223,23.42,26.223,23.481z"/>
				<g>
					<path class="primarycolor" d="M20.158,26.479c-0.019,0.022-0.061,0.022-0.077,0.009c-0.042-0.166-0.146-0.381-0.449-0.381
						c-0.296,0-0.592,0.234-0.592,0.755c0,0.543,0.306,0.807,0.605,0.807c0.296,0,0.424-0.212,0.484-0.376
						c0.019-0.028,0.061-0.012,0.07,0.01c-0.013,0.168-0.08,0.342-0.111,0.388c-0.026,0.006-0.055,0.016-0.08,0.019
						c-0.055,0.02-0.214,0.067-0.363,0.067c-0.227,0-0.427-0.052-0.589-0.175c-0.188-0.135-0.328-0.37-0.328-0.704
						c0-0.295,0.115-0.526,0.29-0.676c0.169-0.14,0.408-0.219,0.637-0.219c0.131,0,0.291,0.031,0.404,0.06
						c0.029,0.01,0.042,0.01,0.061,0.02C20.123,26.134,20.13,26.286,20.158,26.479z"/>
					<path class="primarycolor" d="M20.614,26.392c0-0.285-0.029-0.29-0.156-0.309l-0.038-0.01c-0.02-0.02-0.02-0.07,0.006-0.075
						c0.045,0.005,0.103,0.005,0.163,0.005c0.057,0,0.115,0,0.175,0h0.456c0.172,0,0.319,0,0.354-0.005
						c0.01,0.046,0.026,0.252,0.045,0.371c-0.01,0.022-0.067,0.029-0.085,0.009c-0.042-0.156-0.083-0.22-0.163-0.245
						c-0.064-0.02-0.137-0.02-0.213-0.02h-0.134c-0.108,0-0.108,0-0.108,0.156v0.487c0,0.07,0,0.07,0.061,0.07h0.083
						c0.232,0,0.274,0,0.292-0.116l0.02-0.094c0.022-0.014,0.07-0.014,0.08,0.005c0,0.07-0.006,0.164-0.006,0.266
						c0,0.099,0.006,0.204,0.006,0.284c-0.009,0.019-0.058,0.019-0.08,0.003l-0.02-0.111c-0.019-0.104-0.06-0.113-0.292-0.113
						h-0.083c-0.061,0-0.061,0.01-0.061,0.072v0.309c0,0.135,0.003,0.234,0.042,0.277c0.031,0.042,0.038,0.061,0.254,0.061
						c0.332,0.003,0.351-0.076,0.443-0.286c0.019-0.02,0.067-0.01,0.085,0.019c-0.019,0.108-0.076,0.313-0.117,0.385
						c-0.052-0.006-0.099-0.006-0.208-0.006c-0.108-0.003-0.2-0.003-0.356-0.003h-0.293c-0.114,0-0.273,0.003-0.391,0.01
						c-0.022-0.01-0.025-0.057-0.003-0.079l0.088-0.01c0.127-0.009,0.156-0.025,0.156-0.306V26.392z"/>
					<path class="primarycolor" d="M22.42,26.341c0-0.127,0.003-0.182,0.022-0.198c0.013-0.019,0.009-0.037,0.11-0.037
						c0.415,0,0.701,0.258,0.701,0.782c0,0.461-0.203,0.799-0.643,0.799c-0.258,0-0.191-0.142-0.191-0.399V26.341z M22.133,27.392
						c0,0.281-0.025,0.296-0.143,0.306l-0.051,0.01c-0.013,0.022-0.013,0.069,0.006,0.079c0.108-0.006,0.219-0.01,0.312-0.01
						c0.048,0,0.099,0.003,0.163,0.01c0.06,0.003,0.08,0.009,0.153,0.009c0.226,0,0.398-0.035,0.573-0.133
						c0.303-0.169,0.439-0.472,0.439-0.774c0-0.398-0.207-0.685-0.506-0.806c-0.179-0.065-0.309-0.084-0.545-0.084
						c-0.242,0-0.388,0.005-0.57,0.019c-0.019,0.017-0.019,0.065,0,0.08l0.051,0.005c0.117,0.012,0.117,0.047,0.117,0.306V27.392z"
						/>
					<path class="primarycolor" d="M24.668,26.07c0.385,0,0.551,0.473,0.551,0.876c0,0.54-0.223,0.769-0.503,0.769
						c-0.41,0-0.558-0.506-0.558-0.877C24.159,26.266,24.426,26.07,24.668,26.07z M24.697,25.962c-0.51,0-0.873,0.408-0.873,0.956
						c0,0.475,0.318,0.907,0.873,0.907c0.494,0,0.86-0.4,0.86-0.929C25.558,26.408,25.264,25.962,24.697,25.962z"/>
					<path class="primarycolor" d="M19.388,30.708c-0.048-0.061-0.08-0.244-0.08-0.412c0.019-0.024,0.06-0.024,0.08-0.01
						c0.051,0.142,0.194,0.429,0.446,0.429c0.197,0,0.309-0.128,0.309-0.287c0-0.156-0.07-0.282-0.268-0.39l-0.108-0.065
						c-0.194-0.113-0.37-0.277-0.37-0.516c0-0.268,0.198-0.494,0.577-0.494c0.137,0,0.229,0.035,0.356,0.053
						c0.029,0.062,0.058,0.241,0.058,0.362c-0.016,0.022-0.061,0.032-0.086,0.009c-0.034-0.136-0.13-0.318-0.356-0.318
						c-0.205,0-0.291,0.14-0.291,0.285c0,0.112,0.077,0.23,0.249,0.329l0.166,0.083c0.162,0.094,0.35,0.258,0.35,0.531
						c0,0.304-0.229,0.53-0.605,0.53C19.582,30.826,19.438,30.742,19.388,30.708z"/>
					<path class="primarycolor" d="M20.917,29.409c0-0.242,0-0.287-0.109-0.305l-0.091-0.009c-0.013-0.018-0.013-0.065,0.002-0.08
						c0.186-0.018,0.338-0.018,0.581-0.018s0.427,0.032,0.541,0.106c0.137,0.085,0.223,0.225,0.223,0.403
						c0,0.408-0.376,0.522-0.583,0.522c-0.022,0-0.042,0-0.067-0.006c-0.019-0.012-0.022-0.051-0.01-0.065
						c0.242-0.046,0.325-0.225,0.325-0.444c0-0.217-0.137-0.41-0.369-0.41c-0.137,0-0.137,0.01-0.137,0.114v1.172
						c0,0.287,0.022,0.296,0.15,0.306l0.095,0.013c0.013,0.02,0.013,0.07-0.006,0.08c-0.157-0.003-0.271-0.009-0.386-0.009
						c-0.112,0-0.229,0.006-0.341,0.009c-0.019-0.009-0.019-0.06,0-0.08l0.042-0.003c0.121-0.019,0.14-0.028,0.14-0.315V29.409z"/>
					<path class="primarycolor" d="M22.461,30.39c0,0.287-0.025,0.296-0.147,0.306l-0.099,0.013c-0.012,0.02-0.012,0.07,0.01,0.08
						c0.111-0.003,0.274-0.009,0.385-0.009h0.299c0.156,0,0.287,0,0.395,0.006c0.108,0,0.163,0,0.22,0.003
						c0.031-0.073,0.089-0.277,0.108-0.393c-0.019-0.024-0.061-0.034-0.086-0.019c-0.092,0.222-0.112,0.301-0.449,0.294
						c-0.217,0-0.258-0.022-0.291-0.054c-0.038-0.053-0.044-0.146-0.044-0.287v-0.296c0-0.066,0-0.075,0.063-0.075h0.122
						c0.229,0,0.277,0.009,0.29,0.116l0.019,0.108c0.019,0.02,0.07,0.02,0.086,0c-0.007-0.082-0.01-0.178-0.01-0.28
						c0-0.099,0.003-0.192,0.01-0.272c-0.017-0.02-0.067-0.02-0.086,0l-0.019,0.087c-0.013,0.115-0.061,0.124-0.29,0.124h-0.122
						c-0.063,0-0.063-0.009-0.063-0.077v-0.496c0-0.15,0-0.155,0.108-0.155h0.175c0.07,0,0.149,0.005,0.21,0.024
						c0.086,0.019,0.121,0.088,0.166,0.239c0.019,0.022,0.073,0.013,0.083-0.01c-0.013-0.111-0.032-0.325-0.042-0.369
						c-0.032,0.003-0.188,0.008-0.356,0.008h-0.497c-0.051,0-0.111,0-0.168-0.004c-0.061,0-0.118-0.003-0.166-0.003
						c-0.022,0.008-0.022,0.061-0.01,0.08l0.048,0.003c0.122,0.014,0.147,0.023,0.147,0.309V30.39z"/>
					<path class="primarycolor" d="M23.965,30.708c-0.045-0.061-0.08-0.244-0.08-0.412c0.016-0.024,0.063-0.024,0.08-0.01
						c0.054,0.142,0.188,0.429,0.446,0.429c0.198,0,0.312-0.128,0.312-0.287c0-0.156-0.073-0.282-0.264-0.39l-0.112-0.065
						c-0.204-0.113-0.373-0.277-0.373-0.516c0-0.268,0.194-0.494,0.58-0.494c0.131,0,0.233,0.035,0.351,0.053
						c0.028,0.062,0.057,0.241,0.057,0.362c-0.016,0.022-0.057,0.032-0.085,0.009c-0.039-0.136-0.131-0.318-0.351-0.318
						c-0.208,0-0.297,0.14-0.297,0.285c0,0.112,0.081,0.23,0.252,0.329l0.162,0.083c0.17,0.094,0.354,0.258,0.354,0.531
						c0,0.304-0.223,0.53-0.599,0.53C24.152,30.826,24.019,30.742,23.965,30.708z"/>
				</g>
			</g>
			<path class="primarycolor" d="M17.687,6.848H0.518l0.003,15.601c0,14.878,9.454,22.844,17.166,27.193
				c7.712-4.349,17.162-12.314,17.162-27.193l0.003-15.601H17.687z M17.687,46.902c-0.851-0.485-1.672-0.996-2.554-1.601
				c0.691-0.302,1.287-0.766,2.554-0.766c1.261,0,1.866,0.464,2.551,0.766C19.358,45.906,18.534,46.417,17.687,46.902z
				 M23.637,42.618c-0.44,0.38-0.641,0.503-1.055,0.585c-0.201,0.048-0.634,0.063-0.634,0.063c-1.746,0-2.125-1.046-4.262-1.046
				c-2.131,0-2.516,1.046-4.265,1.046c0,0-0.427-0.015-0.628-0.063c-0.414-0.082-0.614-0.205-1.06-0.585
				c-0.86-0.751-1.605-1.529-2.393-2.435c1.603,0,2.004,0.972,4.081,0.972c1.749,0,2.134-1.051,4.265-1.051
				c2.137,0,2.516,1.051,4.262,1.051c2.083,0,2.472-0.972,4.08-0.972C25.248,41.089,24.5,41.867,23.637,42.618z M32.507,9.295
				c0,0.098,0,13.393,0,13.393c0,6.31-1.946,11.313-4.727,15.253c0.003,0,0,0,0,0s-0.535-0.207-1.379-0.207
				c-1.784,0-2.319,1.047-4.443,1.047c-1.294,0-1.845-0.569-2.902-0.861v-2.563c0,0-0.315,0.445-1.367,0.445
				c-1.061,0-1.37-0.445-1.37-0.445v2.552c-1.061,0.301-1.608,0.867-2.898,0.867c-2.131,0-2.667-1.045-4.447-1.045
				c-0.851,0-1.392,0.205-1.392,0.205s-0.006,0.005,0,0c-2.784-3.935-4.72-8.939-4.72-15.249c0,0,0-13.295,0-13.393
				c0-0.103-0.102-0.212-0.102-0.212s0.102,0.099,0.204,0.099c0.099,0,14.722,0,14.722,0s14.595,0,14.71,0
				c0.111,0,0.209-0.099,0.209-0.099S32.507,9.192,32.507,9.295z"/>
			<path class="primarycolor" d="M18.958,19.592c0,0,0.108,0.089,0.197,0.089c0.093,0,5.807,0,5.807,0l1.988,1.16v-4.711l-1.988,1.153
				c0,0-5.714,0-5.807,0c-0.089,0-0.213,0.105-0.213,0.105s0.115-0.118,0.115-0.226c0-0.103,0-4.452,0-4.452l1.157-1.999h-5.056
				l1.16,1.999c0,0,0,4.349,0,4.452c0,0.113,0.105,0.22,0.105,0.22s-0.105-0.099-0.213-0.099s-5.797,0-5.797,0l-1.995-1.153v4.711
				l1.995-1.16c0,0,5.702,0,5.8,0s0.21-0.089,0.21-0.089s-0.105,0.108-0.105,0.207c0,0.102,0,2.296,0,2.296s0.8,0.086,1.37,0.41
				c0.57-0.323,1.37-0.41,1.37-0.41s0-2.214,0-2.303C19.056,19.7,18.958,19.592,18.958,19.592z"/>
		</g>
		<path class="primarycolor" d="M6.204,12.081c-0.322-0.061-2.099-0.411-2.099-0.411s1.191,1.359,1.408,1.608
			c-0.217,0.242-1.408,1.609-1.408,1.609s1.774-0.352,2.099-0.417c0.102,0.304,0.685,2.021,0.685,2.021s0.585-1.717,0.688-2.021
			c0.325,0.065,2.096,0.417,2.096,0.417s-1.191-1.36-1.404-1.609c0.213-0.249,1.404-1.608,1.404-1.608s-1.771,0.35-2.096,0.411
			c-0.103-0.309-0.688-2.021-0.688-2.021S6.306,11.772,6.204,12.081z M6.85,11.664l0.039-0.304l0.041,0.304l0.319,0.993l1.02-0.22
			l0.283-0.121l-0.242,0.191l-0.704,0.771l0.704,0.768l0.242,0.195l-0.283-0.125l-1.02-0.22L6.93,14.887l-0.041,0.309L6.85,14.887
			l-0.318-0.991l-1.02,0.22l-0.287,0.125l0.246-0.195l0.704-0.768l-0.704-0.771l-0.246-0.191l0.287,0.121l1.02,0.22L6.85,11.664z"/>
		<polygon class="tertiarycolor knockout" points="6.85,11.664 6.889,11.36 6.93,11.664 7.249,12.657 8.268,12.438 8.551,12.316 8.309,12.508 
			7.605,13.278 8.309,14.046 8.551,14.241 8.268,14.116 7.249,13.896 6.93,14.887 6.889,15.196 6.85,14.887 6.532,13.896 
			5.513,14.116 5.226,14.241 5.471,14.046 6.175,13.278 5.471,12.508 5.226,12.316 5.513,12.438 6.532,12.657 		"/>
	</g>
	<g>
		<path class="primarycolor" d="M52.885,59.223c0.146,0.059,0.132,0.367-0.03,0.425c-0.631-0.029-1.204-0.043-1.791-0.043
			c-0.69,0-1.321,0.014-1.967,0.043c-0.117-0.058-0.176-0.338-0.029-0.425l0.396-0.074c0.586-0.088,0.631-0.205,0.631-1.204v-4.637
			v-1.366h-0.029c-0.396,0.809-0.602,1.248-0.881,1.835l-1.262,2.584c-0.499,1.027-1.233,2.657-1.497,3.346
			c-0.059,0.061-0.279,0.061-0.382,0c-0.249-0.791-0.88-2.23-1.218-2.964l-1.306-2.818c-0.279-0.616-0.675-1.541-0.852-1.982H42.64
			c-0.03,0.721-0.059,1.864-0.088,2.481c-0.029,0.896-0.059,2.201-0.059,3.405c0,0.969,0.015,1.203,0.646,1.306l0.485,0.089
			c0.103,0.087,0.103,0.367-0.015,0.425c-0.543-0.029-0.999-0.043-1.542-0.043c-0.47,0-0.998,0.014-1.57,0.043
			c-0.132-0.073-0.132-0.352-0.044-0.425l0.25-0.03c0.704-0.089,0.821-0.308,0.91-1.204c0.117-0.924,0.146-1.877,0.22-3.403
			c0.059-0.999,0.146-2.218,0.146-3.112c0-0.69-0.22-0.998-0.793-1.086l-0.498-0.088c-0.089-0.104-0.074-0.383,0.058-0.426
			c0.44,0.029,0.837,0.043,1.38,0.043c0.514,0,1.027,0,1.57-0.044c0.059,0.88,0.441,1.645,0.809,2.437l1.614,3.391
			c0.118,0.25,0.499,0.983,0.689,1.32c0.236-0.424,0.441-0.837,0.764-1.525l1.38-2.817c0.469-0.969,0.94-1.835,1.188-2.804
			c0.397,0.029,0.881,0.043,1.204,0.043c0.617,0,1.131-0.014,1.542-0.044c0.162,0.06,0.19,0.338,0.044,0.427l-0.485,0.073
			c-0.646,0.088-0.792,0.337-0.792,1.116c0,2.172,0.03,4.344,0.132,6.517c0.044,0.982,0.205,1.086,0.675,1.144L52.885,59.223z"/>
		<path class="primarycolor" d="M55.424,56.125c-0.279,0-0.308,0.015-0.308,0.191c0,1.321,0.909,2.377,2.215,2.377
			c0.588,0,1.072-0.19,1.41-0.733c0.147-0.044,0.308,0.103,0.323,0.236c-0.499,1.173-1.585,1.613-2.481,1.613
			c-1.703,0-2.833-1.263-2.833-2.936c0-1.659,1.13-3.258,3.098-3.258c1.086,0,2.202,0.703,2.202,1.981
			c0,0.131-0.015,0.219-0.074,0.337c-0.087,0.133-0.425,0.19-1.012,0.19H55.424z M56.775,55.537c0.425,0,0.616-0.043,0.719-0.103
			c0.088-0.058,0.146-0.176,0.146-0.308c0-0.528-0.337-0.955-0.968-0.955c-0.983,0-1.438,0.955-1.438,1.263
			c0,0.06,0.029,0.103,0.205,0.103H56.775z"/>
		<path class="primarycolor" d="M62.352,57.857c0,1.086,0.059,1.246,0.558,1.335l0.22,0.03c0.103,0.103,0.088,0.367-0.029,0.425
			c-0.514-0.029-1.014-0.043-1.556-0.043c-0.47,0-0.969,0.014-1.585,0.043c-0.117-0.058-0.131-0.322-0.029-0.425l0.323-0.045
			c0.5-0.074,0.558-0.234,0.558-1.32v-2.158c0-0.66,0-0.836-0.367-1.057l-0.176-0.103c-0.043-0.059-0.043-0.265,0.015-0.338
			c0.631-0.176,1.438-0.528,1.908-0.792c0.104,0,0.162,0.059,0.191,0.116c-0.029,0.279-0.029,0.56-0.029,0.676
			c0,0.104,0.044,0.133,0.132,0.147c0.69-0.382,1.101-0.733,2.011-0.733c1.188,0,1.747,0.821,1.747,1.967v2.274
			c0,1.086,0.059,1.246,0.558,1.32l0.337,0.045c0.103,0.103,0.088,0.367-0.029,0.425c-0.617-0.029-1.115-0.043-1.659-0.043
			c-0.484,0-0.983,0.014-1.497,0.043c-0.118-0.058-0.132-0.322-0.03-0.425l0.221-0.03c0.498-0.089,0.557-0.249,0.557-1.335v-2.025
			c0-0.749-0.293-1.336-1.173-1.336c-0.456,0-0.822,0.235-0.969,0.455c-0.191,0.264-0.206,0.396-0.206,0.939V57.857z"/>
		<path class="primarycolor" d="M73.903,57.212c0,1.335,0.102,1.79,0.352,1.79c0.162,0,0.396-0.044,0.617-0.133
			c0.117,0.089,0.146,0.44-0.015,0.529c-0.749,0.073-1.791,0.323-2.319,0.557c-0.073-0.014-0.147-0.072-0.176-0.161l0.029-0.22
			c0.015-0.22,0.015-0.337-0.014-0.41l-0.073-0.016c-0.44,0.323-0.984,0.661-1.688,0.661c-1.673,0-2.715-1.352-2.715-2.817
			c0-2.114,1.688-3.376,3.522-3.376c0.382,0,0.661,0.044,0.852,0.103c0.06-0.016,0.088-0.074,0.088-0.235v-1.923
			c0-0.983-0.015-1.086-0.338-1.276l-0.205-0.133c-0.088-0.059-0.103-0.294,0-0.337c0.572-0.162,1.335-0.471,1.923-0.705
			c0.087-0.015,0.176,0.044,0.205,0.117c-0.029,0.588-0.043,1.498-0.043,2.128V57.212z M72.362,55.406
			c0-0.294-0.044-0.498-0.191-0.704c-0.206-0.279-0.529-0.5-0.983-0.5c-0.998,0-1.629,0.983-1.629,2.216
			c0,1.514,0.793,2.511,1.835,2.511c0.352,0,0.749-0.191,0.866-0.322c0.074-0.074,0.103-0.205,0.103-0.41V55.406z"/>
		<path class="primarycolor" d="M81.96,56.64c0,2.084-1.467,3.17-3.214,3.17c-1.688,0-3.097-1.072-3.097-2.994
			c0-1.968,1.497-3.199,3.214-3.199C80.522,53.616,81.96,54.731,81.96,56.64z M78.922,59.223c1.013,0,1.307-1.204,1.307-2.334
			c0-1.233-0.426-2.687-1.512-2.687c-0.75,0-1.336,0.763-1.336,2.394C77.381,57.932,77.865,59.223,78.922,59.223z"/>
		<path class="primarycolor" d="M84.75,59.604c-0.792,0-1.365,0.014-1.777,0.043c-0.073-0.029-0.132-0.103-0.102-0.19
			c0.25-0.336,0.91-1.379,1.306-2.085l1.41-2.48c0.132-0.219,0.19-0.337,0.19-0.41c0-0.059-0.131-0.073-0.323-0.073h-0.719
			c-0.44,0-0.777,0.029-0.983,0.205c-0.234,0.191-0.44,0.617-0.587,0.881c-0.118,0.06-0.323,0.043-0.396-0.103
			c0.088-0.483,0.323-1.482,0.485-1.835c0.058-0.044,0.205-0.044,0.264,0c0.058,0.265,0.22,0.265,0.968,0.265h2.422
			c0.396,0,0.675-0.016,0.896-0.045c0.073,0.029,0.103,0.089,0.103,0.177c-0.309,0.426-0.661,0.969-1.057,1.658l-1.629,2.847
			c-0.146,0.25-0.206,0.384-0.206,0.457c0,0.072,0.147,0.103,0.573,0.103h0.484c0.499,0,0.925-0.074,1.248-0.354
			c0.249-0.22,0.439-0.558,0.586-0.88c0.103-0.089,0.353-0.045,0.396,0.073c-0.074,0.601-0.353,1.497-0.543,1.79
			c-0.528-0.029-1.013-0.043-1.688-0.043H84.75z"/>
		<path class="primarycolor" d="M93.556,57.739c-0.044,0.852,0.176,1.292,0.705,1.292c0.249,0,0.455-0.162,0.5-0.162
			c0.073,0,0.175,0.162,0.132,0.295c-0.294,0.41-1.013,0.646-1.468,0.646c-0.366,0-0.777-0.104-1.057-0.411
			c-0.102-0.103-0.161-0.176-0.234-0.176s-0.176,0.073-0.396,0.204c-0.279,0.178-0.719,0.383-1.248,0.383
			c-0.999,0-1.497-0.688-1.497-1.425c0-0.527,0.206-1.013,1.218-1.365c0.514-0.175,1.072-0.38,1.614-0.585
			c0.294-0.104,0.338-0.235,0.338-0.383l0.015-0.381c0.029-0.749-0.176-1.396-0.896-1.396c-0.411,0-0.72,0.221-0.778,0.646
			c-0.029,0.278-0.117,0.426-0.279,0.528c-0.206,0.133-0.616,0.264-0.939,0.264c-0.191,0-0.279-0.103-0.279-0.234
			c0-0.176,0.087-0.484,0.572-0.939c0.456-0.426,1.512-0.924,2.261-0.924c1.159,0,1.879,0.543,1.819,1.834L93.556,57.739z
			 M92.118,57.241c0-0.161-0.044-0.249-0.117-0.249c-0.118,0-0.382,0.072-0.646,0.175c-0.411,0.147-0.793,0.353-0.793,0.983
			c0,0.382,0.265,0.852,0.822,0.852c0.529,0,0.69-0.352,0.705-0.704L92.118,57.241z"/>
		<path class="primarycolor" d="M108.542,52.383c-0.104,0.117-0.367,0.131-0.471,0.029c-0.249-0.924-0.91-2.144-2.847-2.144
			c-1.864,0-3.743,1.321-3.743,4.33c0,3.127,1.952,4.653,3.846,4.653c1.849,0,2.656-1.233,3.067-2.188
			c0.133-0.133,0.366-0.072,0.44,0.059c-0.103,0.983-0.499,1.953-0.704,2.231c-0.176,0.029-0.353,0.088-0.514,0.133
			c-0.323,0.103-1.336,0.353-2.29,0.353c-1.454,0-2.701-0.295-3.758-0.984c-1.189-0.777-2.084-2.113-2.084-4.036
			c0-1.718,0.763-3.054,1.85-3.89c1.086-0.823,2.568-1.247,4.051-1.247c0.836,0,1.85,0.146,2.539,0.322
			c0.176,0.045,0.279,0.059,0.411,0.088C108.366,50.43,108.395,51.296,108.542,52.383z"/>
		<path class="primarycolor" d="M116.042,56.64c0,2.084-1.469,3.17-3.215,3.17c-1.688,0-3.097-1.072-3.097-2.994
			c0-1.968,1.497-3.199,3.215-3.199C114.604,53.616,116.042,54.731,116.042,56.64z M113.003,59.223c1.013,0,1.307-1.204,1.307-2.334
			c0-1.233-0.426-2.687-1.512-2.687c-0.749,0-1.336,0.763-1.336,2.394C111.462,57.932,111.946,59.223,113.003,59.223z"/>
		<path class="primarycolor" d="M117.7,51.561c0-0.983-0.015-1.086-0.383-1.307l-0.159-0.103c-0.09-0.059-0.104-0.294,0-0.337
			c0.571-0.162,1.334-0.471,1.921-0.705c0.089-0.015,0.177,0.044,0.205,0.117c-0.028,0.588-0.043,1.498-0.043,2.128v6.503
			c0,1.086,0.059,1.246,0.557,1.32l0.323,0.045c0.104,0.103,0.088,0.367-0.028,0.425c-0.602-0.029-1.101-0.043-1.644-0.043
			c-0.485,0-0.984,0.014-1.586,0.043c-0.118-0.058-0.132-0.322-0.03-0.425l0.309-0.045c0.5-0.074,0.559-0.234,0.559-1.32V51.561z"/>
		<path class="primarycolor" d="M121.781,51.561c0-0.983-0.017-1.086-0.383-1.307l-0.161-0.103c-0.088-0.059-0.103-0.294,0-0.337
			c0.571-0.162,1.335-0.471,1.923-0.705c0.088-0.015,0.175,0.044,0.205,0.117c-0.03,0.588-0.044,1.498-0.044,2.128v6.503
			c0,1.086,0.059,1.246,0.558,1.32l0.323,0.045c0.103,0.103,0.087,0.367-0.029,0.425c-0.603-0.029-1.101-0.043-1.645-0.043
			c-0.484,0-0.982,0.014-1.585,0.043c-0.117-0.058-0.133-0.322-0.029-0.425l0.309-0.045c0.498-0.074,0.559-0.234,0.559-1.32V51.561z
			"/>
		<path class="primarycolor" d="M126.771,56.125c-0.278,0-0.309,0.015-0.309,0.191c0,1.321,0.91,2.377,2.216,2.377
			c0.588,0,1.072-0.19,1.409-0.733c0.147-0.044,0.309,0.103,0.323,0.236c-0.498,1.173-1.585,1.613-2.48,1.613
			c-1.703,0-2.833-1.263-2.833-2.936c0-1.659,1.13-3.258,3.097-3.258c1.087,0,2.202,0.703,2.202,1.981
			c0,0.131-0.014,0.219-0.073,0.337c-0.088,0.133-0.426,0.19-1.013,0.19H126.771z M128.121,55.537c0.426,0,0.616-0.043,0.718-0.103
			c0.09-0.058,0.148-0.176,0.148-0.308c0-0.528-0.338-0.955-0.97-0.955c-0.983,0-1.438,0.955-1.438,1.263
			c0,0.06,0.03,0.103,0.206,0.103H128.121z"/>
		<path class="primarycolor" d="M136.619,54.908c0.043,0.146,0.073,0.307,0.073,0.629c0,1.233-0.822,2.423-2.687,2.423
			c-0.176,0-0.367-0.028-0.558-0.059c-0.234,0.117-0.455,0.308-0.455,0.573c0,0.293,0.206,0.572,0.808,0.572
			c0.426,0,0.983-0.029,1.614-0.029c1.057,0,2.394,0.175,2.394,1.775c0,0.763-0.528,1.482-0.925,1.791
			c-0.646,0.528-1.586,0.968-2.848,0.968c-2.07,0-2.746-0.968-2.746-1.731c0-0.22,0.03-0.411,0.207-0.632
			c0.132-0.146,0.689-0.47,0.909-0.659c0.118-0.09,0.221-0.279,0.088-0.323c-0.513-0.177-0.969-0.646-0.969-1.219
			c0-0.146,0.06-0.264,0.235-0.366c0.221-0.118,0.94-0.573,0.94-0.778c0-0.044,0-0.132-0.061-0.162
			c-0.498-0.205-1.086-0.792-1.086-1.746c0-1.321,1.102-2.318,2.687-2.318c0.587,0,1.101,0.116,1.483,0.308
			c0.307,0.146,0.47,0.22,0.646,0.22h1.438c0.058,0.045,0.117,0.146,0.117,0.265c0,0.294-0.117,0.47-0.234,0.5H136.619z
			 M134.153,60.323c-0.515,0-0.823,0.044-0.998,0.176c-0.249,0.191-0.44,0.455-0.44,0.822c0,0.896,0.793,1.481,1.923,1.481
			c1.248,0,1.951-0.512,1.951-1.364c0-0.748-0.689-1.115-1.599-1.115H134.153z M134.271,57.402c0.558,0,0.97-0.484,0.97-1.512
			c0-0.999-0.427-1.719-1.087-1.719c-0.515,0-0.969,0.486-0.969,1.499C133.185,56.8,133.714,57.402,134.271,57.402z"/>
		<path class="primarycolor" d="M140.083,56.125c-0.279,0-0.308,0.015-0.308,0.191c0,1.321,0.909,2.377,2.216,2.377
			c0.587,0,1.071-0.19,1.409-0.733c0.146-0.044,0.309,0.103,0.322,0.236c-0.498,1.173-1.585,1.613-2.48,1.613
			c-1.702,0-2.832-1.263-2.832-2.936c0-1.659,1.13-3.258,3.097-3.258c1.086,0,2.202,0.703,2.202,1.981
			c0,0.131-0.016,0.219-0.074,0.337c-0.088,0.133-0.426,0.19-1.013,0.19H140.083z M141.434,55.537c0.426,0,0.615-0.043,0.719-0.103
			c0.088-0.058,0.146-0.176,0.146-0.308c0-0.528-0.338-0.955-0.969-0.955c-0.982,0-1.438,0.955-1.438,1.263
			c0,0.06,0.028,0.103,0.205,0.103H141.434z"/>
		<path class="primarycolor" d="M154.906,56.64c0,2.084-1.467,3.17-3.215,3.17c-1.688,0-3.097-1.072-3.097-2.994
			c0-1.968,1.498-3.199,3.215-3.199C153.469,53.616,154.906,54.731,154.906,56.64z M151.869,59.223c1.012,0,1.306-1.204,1.306-2.334
			c0-1.233-0.426-2.687-1.512-2.687c-0.749,0-1.336,0.763-1.336,2.394C150.327,57.932,150.813,59.223,151.869,59.223z"/>
		<path class="primarycolor" d="M158.65,54.512c-0.309,0-0.309,0.028-0.309,0.453v2.893c0,1.086,0.059,1.246,0.572,1.307l0.573,0.059
			c0.102,0.103,0.087,0.367-0.029,0.425c-0.662-0.029-1.234-0.043-1.924-0.043c-0.484,0-0.984,0.014-1.586,0.043
			c-0.116-0.058-0.132-0.322-0.028-0.425l0.322-0.045c0.499-0.074,0.558-0.234,0.558-1.32v-2.906c0-0.396-0.015-0.439-0.264-0.439
			h-0.529c-0.116-0.061-0.146-0.25-0.043-0.34l0.631-0.322c0.102-0.058,0.205-0.146,0.205-0.323v-0.263
			c0-0.632,0.059-1.351,0.309-2.099c0.382-1.16,1.365-2.056,2.745-2.056c1.013,0,1.673,0.455,1.673,1.071
			c0,0.411-0.367,0.705-0.72,0.705c-0.22,0-0.337-0.089-0.425-0.207c-0.471-0.674-0.793-0.968-1.146-0.968
			c-0.498,0-0.895,0.998-0.895,3.2v0.439c0,0.441,0.014,0.471,0.321,0.471h1.542c0.059,0.044,0.089,0.132,0.089,0.235
			c0,0.249-0.089,0.381-0.206,0.455H158.65z"/>
		<path class="primarycolor" d="M165.856,52.118c0-1.409-0.016-1.585-0.704-1.658l-0.383-0.044c-0.102-0.104-0.102-0.338,0.014-0.411
			c0.662-0.059,1.733-0.133,3.349-0.133c1.231,0,2.216,0.118,2.875,0.5c0.676,0.396,1.028,0.982,1.028,1.907
			c0,0.867-0.632,1.526-1.658,1.864c-0.06,0.016-0.088,0.059-0.088,0.089c0,0.029,0.028,0.058,0.117,0.087
			c1.115,0.177,2.362,0.896,2.362,2.555c0,0.676-0.219,1.409-0.895,1.952c-0.689,0.572-1.659,0.821-3.332,0.821
			c-0.646,0-1.262-0.043-1.82-0.043c-0.646,0-1.336,0.014-1.981,0.043c-0.118-0.058-0.132-0.322-0.028-0.425l0.323-0.045
			c0.688-0.087,0.821-0.131,0.821-1.688V52.118z M167.559,53.732c0,0.382,0.044,0.396,0.631,0.396c1.38,0,2.012-0.543,2.012-1.864
			c0-1.291-0.953-1.805-1.864-1.805c-0.734,0-0.778,0.03-0.778,0.616V53.732z M167.559,57.183c0,1.336,0.146,1.878,1.424,1.878
			c1.013,0,1.908-0.659,1.908-1.967c0-1.511-1.027-2.407-2.656-2.407c-0.646,0-0.676,0.088-0.676,0.382V57.183z"/>
		<path class="primarycolor" d="M179.771,57.445c0,0.822,0.015,1.557,0.367,1.557c0.205,0,0.425-0.044,0.63-0.103
			c0.118,0.073,0.147,0.382-0.044,0.499c-0.646,0.073-1.775,0.265-2.407,0.557c-0.073-0.014-0.116-0.072-0.131-0.146
			c0.029-0.177,0.058-0.396,0.044-0.543c-0.015-0.118-0.059-0.163-0.146-0.163c-0.618,0.368-1.264,0.706-1.997,0.706
			c-1.32,0-1.747-0.733-1.747-1.952v-2.29c0-1.027-0.058-1.13-0.425-1.248l-0.205-0.058c-0.09-0.073-0.09-0.338,0.028-0.383
			c0.881-0.014,1.718-0.146,2.041-0.263c0.072,0.014,0.132,0.058,0.146,0.132c-0.029,0.176-0.044,0.527-0.044,1.247v2.261
			c0,0.865,0.162,1.673,1.203,1.673c0.338,0,0.72-0.132,0.97-0.367c0.146-0.146,0.176-0.278,0.176-0.822v-2.216
			c0-0.938-0.089-1.012-0.646-1.174l-0.235-0.074c-0.102-0.073-0.102-0.337,0.016-0.396c0.982-0.014,2.011-0.116,2.304-0.263
			c0.074,0.014,0.132,0.058,0.147,0.132c-0.029,0.278-0.044,0.703-0.044,1.247V57.445z"/>
		<path class="primarycolor" d="M181.81,59.34c-0.146-0.279-0.234-1.027-0.205-1.659c0.089-0.117,0.308-0.131,0.412-0.028
			c0.264,0.822,0.807,1.6,1.585,1.6c0.454,0,0.822-0.309,0.822-0.822c0-0.543-0.485-0.896-0.999-1.145
			c-0.763-0.367-1.556-0.911-1.556-1.851c-0.015-1.145,0.968-1.818,2.187-1.818c0.602,0,1.159,0.176,1.364,0.293
			c0.148,0.309,0.221,0.764,0.221,1.423c-0.043,0.118-0.293,0.162-0.396,0.074c-0.22-0.675-0.689-1.234-1.263-1.234
			c-0.47,0-0.822,0.34-0.822,0.765s0.426,0.734,0.984,0.998c0.792,0.382,1.629,0.881,1.629,2.04c0,1.277-1.131,1.835-2.29,1.835
			C182.882,59.81,182.28,59.692,181.81,59.34z"/>
		<path class="primarycolor" d="M189.222,57.857c0,1.086,0.059,1.246,0.559,1.32l0.263,0.045c0.104,0.103,0.09,0.367-0.028,0.425
			c-0.543-0.029-1.041-0.043-1.585-0.043c-0.484,0-0.982,0.014-1.541,0.043c-0.117-0.058-0.132-0.322-0.029-0.425l0.264-0.045
			c0.499-0.074,0.559-0.234,0.559-1.32v-2.158c0-0.66,0-0.836-0.367-1.057l-0.177-0.103c-0.044-0.059-0.044-0.265,0.015-0.338
			c0.764-0.22,1.498-0.542,1.908-0.792c0.088,0.015,0.161,0.044,0.205,0.116c-0.028,0.484-0.044,1.189-0.044,1.792V57.857z
			 M187.506,50.752c0-0.526,0.381-0.923,0.938-0.923c0.559,0,0.939,0.396,0.939,0.923c0,0.529-0.381,0.926-0.939,0.926
			C187.887,51.678,187.506,51.281,187.506,50.752z"/>
		<path class="primarycolor" d="M193.375,57.857c0,1.086,0.06,1.246,0.559,1.335l0.221,0.03c0.102,0.103,0.088,0.367-0.03,0.425
			c-0.514-0.029-1.013-0.043-1.556-0.043c-0.469,0-0.969,0.014-1.585,0.043c-0.117-0.058-0.132-0.322-0.029-0.425l0.322-0.045
			c0.5-0.074,0.559-0.234,0.559-1.32v-2.158c0-0.66,0-0.836-0.367-1.057l-0.176-0.103c-0.045-0.059-0.045-0.265,0.015-0.338
			c0.631-0.176,1.438-0.528,1.907-0.792c0.104,0,0.161,0.059,0.191,0.116c-0.03,0.279-0.03,0.56-0.03,0.676
			c0,0.104,0.046,0.133,0.134,0.147c0.688-0.382,1.101-0.733,2.01-0.733c1.188,0,1.747,0.821,1.747,1.967v2.274
			c0,1.086,0.059,1.246,0.558,1.32l0.338,0.045c0.102,0.103,0.089,0.367-0.029,0.425c-0.616-0.029-1.116-0.043-1.658-0.043
			c-0.485,0-0.984,0.014-1.498,0.043c-0.117-0.058-0.133-0.322-0.029-0.425l0.221-0.03c0.498-0.089,0.558-0.249,0.558-1.335v-2.025
			c0-0.749-0.293-1.336-1.174-1.336c-0.456,0-0.822,0.235-0.97,0.455c-0.189,0.264-0.206,0.396-0.206,0.939V57.857z"/>
		<path class="primarycolor" d="M200.407,56.125c-0.279,0-0.309,0.015-0.309,0.191c0,1.321,0.909,2.377,2.216,2.377
			c0.587,0,1.072-0.19,1.409-0.733c0.147-0.044,0.309,0.103,0.322,0.236c-0.498,1.173-1.585,1.613-2.48,1.613
			c-1.702,0-2.832-1.263-2.832-2.936c0-1.659,1.13-3.258,3.097-3.258c1.086,0,2.202,0.703,2.202,1.981
			c0,0.131-0.016,0.219-0.074,0.337c-0.087,0.133-0.426,0.19-1.013,0.19H200.407z M201.757,55.537c0.426,0,0.616-0.043,0.719-0.103
			c0.088-0.058,0.147-0.176,0.147-0.308c0-0.528-0.338-0.955-0.969-0.955c-0.983,0-1.438,0.955-1.438,1.263
			c0,0.06,0.028,0.103,0.205,0.103H201.757z"/>
		<path class="primarycolor" d="M205.221,59.34c-0.147-0.279-0.234-1.027-0.206-1.659c0.088-0.117,0.309-0.131,0.411-0.028
			c0.265,0.822,0.808,1.6,1.585,1.6c0.455,0,0.821-0.309,0.821-0.822c0-0.543-0.484-0.896-0.997-1.145
			c-0.762-0.367-1.556-0.911-1.556-1.851c-0.014-1.145,0.969-1.818,2.187-1.818c0.602,0,1.16,0.176,1.365,0.293
			c0.147,0.309,0.221,0.764,0.221,1.423c-0.045,0.118-0.294,0.162-0.396,0.074c-0.221-0.675-0.689-1.234-1.263-1.234
			c-0.469,0-0.822,0.34-0.822,0.765s0.427,0.734,0.984,0.998c0.792,0.382,1.629,0.881,1.629,2.04c0,1.277-1.131,1.835-2.29,1.835
			C206.291,59.81,205.69,59.692,205.221,59.34z"/>
		<path class="primarycolor" d="M210.519,59.34c-0.146-0.279-0.235-1.027-0.205-1.659c0.088-0.117,0.309-0.131,0.41-0.028
			c0.265,0.822,0.809,1.6,1.586,1.6c0.455,0,0.821-0.309,0.821-0.822c0-0.543-0.483-0.896-0.996-1.145
			c-0.764-0.367-1.557-0.911-1.557-1.851c-0.016-1.145,0.969-1.818,2.187-1.818c0.602,0,1.159,0.176,1.365,0.293
			c0.146,0.309,0.221,0.764,0.221,1.423c-0.044,0.118-0.294,0.162-0.396,0.074c-0.221-0.675-0.69-1.234-1.264-1.234
			c-0.468,0-0.821,0.34-0.821,0.765s0.427,0.734,0.983,0.998c0.792,0.382,1.629,0.881,1.629,2.04c0,1.277-1.129,1.835-2.289,1.835
			C211.591,59.81,210.988,59.692,210.519,59.34z"/>
	</g>
</g>
</svg>
