<?xml version="1.0" encoding="iso-8859-1"?>
<svg version="1.2" baseProfile="tiny" class="logocolor nec" xmlns="http://www.w3.org/2000/svg" xmlns:xlink="http://www.w3.org/1999/xlink" viewBox="0 0 215 70" xml:space="preserve">
<g>
	<g id="XMLID_6_">
		<g>
			<polygon class="primarycolor" points="24.74,4.792 45.494,4.792 45.494,22.094 			"/>
			<polygon class="primarycolor" points="3.979,22.094 3.979,4.792 24.74,4.792 			"/>
		</g>
	</g>
	<rect x="24.838" y="16.3" class="secondarycolor" width="4.294" height="0.868"/>
	<rect x="24.838" y="14.583" class="secondarycolor" width="4.294" height="0.867"/>
	<rect x="24.838" y="12.864" class="secondarycolor" width="4.294" height="0.868"/>
	<g>
		<g>
			<path class="primarycolor" d="M19.469,12.868v4.292h4.294v-4.292H19.469z M22.803,16.856l-1.185-0.871l-1.184,0.871l0.466-1.416
				l-1.199-0.891h1.472l0.445-1.378l0.437,1.378h1.477l-1.189,0.891L22.803,16.856z"/>
		</g>
	</g>
	<g>
		<g>
			<path class="primarycolor" d="M24.842,18.222v4.292h4.293v-4.292H24.842z M28.177,22.21l-1.185-0.871l-1.184,0.871l0.467-1.415
				l-1.198-0.891h1.47l0.445-1.379l0.436,1.379h1.477l-1.19,0.891L28.177,22.21z"/>
		</g>
	</g>
	<rect x="19.459" y="21.633" class="secondarycolor" width="4.293" height="0.867"/>
	<rect x="19.459" y="19.914" class="secondarycolor" width="4.293" height="0.868"/>
	<rect x="19.459" y="18.196" class="secondarycolor" width="4.293" height="0.867"/>
	<g>
		<path class="primarycolor" d="M4.159,33.243c0-1.408-0.717-2.196-1.576-2.22l-0.979-0.024c-0.119,0-0.144-0.096-0.144-0.167V30.21
			c0-0.095,0.025-0.143,0.144-0.143c0.119,0,0.31,0.025,0.668,0.025c0.358,0.023,0.883,0.047,1.695,0.047s1.313-0.047,1.6-0.047
			c0.311,0,0.501,0.095,0.693,0.31c0.119,0.143,4.751,6.16,5.014,6.494c0.262,0.334,4.297,5.277,4.871,6.04h0.095v-2.84
			c0-2.126-0.023-3.295-0.071-4.489c-0.024-0.931-0.144-3.271-0.287-3.677c-0.191-0.597-0.645-0.931-1.313-0.931h-0.764
			c-0.096,0-0.143-0.048-0.143-0.167V30.21c0-0.095,0.047-0.144,0.143-0.144c0.334,0,1.098,0.072,2.626,0.072
			c1.433,0,2.006-0.072,2.316-0.072c0.167,0,0.191,0.072,0.191,0.168v0.596c0,0.096-0.048,0.167-0.144,0.167H18.15
			c-0.645,0-0.884,0.406-0.932,1.313c-0.095,1.6-0.095,3.963-0.095,5.515v8.93c0,0.335-0.024,0.572-0.12,0.572
			c-0.286,0-0.501-0.286-0.573-0.382c-0.024-0.048-1.433-1.813-2.913-3.677c-1.671-2.075-3.415-4.272-3.558-4.417
			c-0.263-0.238-4.656-5.753-4.799-5.943H5.018v5.299c0,2.222,0.191,6.112,0.239,6.591c0.096,0.931,0.239,1.385,0.884,1.385h0.716
			c0.167,0,0.191,0.07,0.191,0.214v0.526c0,0.143-0.024,0.19-0.191,0.19c-0.239,0-1.671-0.072-2.316-0.072
			c-0.501,0-2.148,0.072-2.387,0.072c-0.096,0-0.12-0.048-0.12-0.168v-0.62c0-0.07,0.024-0.143,0.144-0.143h0.812
			c0.692,0,0.955-0.286,1.074-1.457c0.047-0.454,0.096-3.176,0.096-7.425V33.243z"/>
		<path class="primarycolor" d="M22.042,40.692c-0.047,0.214-0.072,0.596-0.072,1.145c0,2.342,1.48,4.108,3.391,4.108
			c1.457,0,2.483-0.836,2.889-1.625c0.048-0.096,0.144-0.142,0.215-0.118l0.311,0.166c0.071,0.024,0.119,0.097,0,0.358
			c-0.43,0.955-1.671,2.602-3.797,2.602c-1.36,0-2.864-0.404-3.748-1.694c-0.836-1.217-1.051-2.102-1.051-3.773
			c0-0.931,0.239-2.529,1.504-3.794c1.026-1.051,2.221-1.266,3.414-1.266c2.746,0,3.509,2.578,3.509,3.509
			c0,0.334-0.286,0.383-0.668,0.383H22.042z M25.838,39.976c0.453,0,0.644-0.118,0.644-0.334c0-0.549-0.287-2.124-1.838-2.124
			c-1.05,0-2.053,0.69-2.507,2.458H25.838L25.838,39.976z"/>
		<path class="primarycolor" d="M41.428,44.44h0.095l1.934-5.254c0.31-0.834,0.12-1.313-0.358-1.313h-0.334
			c-0.119,0-0.144-0.07-0.144-0.19v-0.502c0-0.118,0.072-0.166,0.167-0.166c0.143,0,0.859,0.072,1.839,0.072
			c1.026,0,1.456-0.072,1.743-0.072c0.12,0,0.167,0.072,0.167,0.166v0.502c0,0.12-0.047,0.19-0.167,0.19h-0.597
			c-0.286,0-0.621,0.19-0.764,0.406c-0.287,0.454-3.318,8.046-3.629,8.811c-0.096,0.262-0.262,0.31-0.453,0.31
			c-0.167,0-0.334-0.168-0.43-0.454l-2.34-6.803h-0.12l-2.937,6.877c-0.119,0.284-0.31,0.38-0.501,0.38s-0.31-0.189-0.406-0.477
			l-3.128-8.405c-0.167-0.452-0.43-0.645-1.003-0.645h-0.525c-0.144,0-0.167-0.07-0.167-0.214v-0.455
			c0-0.117,0.023-0.189,0.143-0.189c0.335,0,0.812,0.072,2.172,0.072c1.075,0,1.648-0.072,2.005-0.072
			c0.144,0,0.191,0.048,0.191,0.189v0.479c0,0.12-0.024,0.19-0.191,0.19h-0.214c-0.262,0-0.43,0.216-0.286,0.645l1.886,6.326h0.096
			l2.435-5.824c-0.047-0.382-0.072-0.572-0.215-0.765c-0.119-0.166-0.31-0.237-0.645-0.237H36.39c-0.12,0-0.168-0.049-0.168-0.167
			V37.35c0-0.145,0.072-0.192,0.215-0.192c0.19,0,0.955,0.072,2.149,0.072c1.098,0,1.624-0.072,1.814-0.072
			c0.167,0,0.214,0.051,0.214,0.168v0.501c0,0.12-0.047,0.192-0.167,0.192h-0.502c-0.238,0-0.429,0.262-0.333,0.62L41.428,44.44z"/>
		<path class="primarycolor" d="M57.83,37.9c0.191,0,2.745-0.097,3.032-0.145c0.693-0.12,0.884-0.313,1.099-1.051
			c0.071-0.24,0.167-0.717,0.19-1.171c0-0.119,0.072-0.167,0.167-0.167l0.597,0.024c0.12,0,0.167,0.095,0.143,0.19
			c-0.071,0.406-0.071,2.364-0.071,2.723c0,0.836,0.095,1.981,0.143,2.483c0,0.118-0.048,0.166-0.143,0.19l-0.525,0.071
			c-0.12,0.024-0.167-0.048-0.191-0.216c-0.048-0.311-0.191-0.858-0.263-1.121c-0.143-0.502-0.406-0.86-1.027-0.931
			c-1.122-0.12-2.77-0.12-3.151-0.12v1.481c0,1.289,0.048,3.604,0.048,4.081c0.024,1.243,0.621,1.721,1.36,1.863
			c0.478,0.096,1.17,0.168,1.768,0.168c0.406,0,1.6-0.024,2.1-0.072c0.406-0.048,1.457-0.31,2.078-0.836
			c0.286-0.238,1.623-1.958,1.958-2.506c0.071-0.12,0.143-0.217,0.287-0.145l0.381,0.216c0.12,0.07,0.12,0.143,0.048,0.335
			l-1.266,3.508c-0.071,0.217-0.239,0.358-0.526,0.358c-0.119,0-0.644-0.023-2.077-0.048c-1.433,0-3.749-0.024-7.473-0.024
			c-0.884,0-1.552,0.024-2.03,0.024c-0.501,0.024-0.812,0.048-1.027,0.048c-0.143,0-0.215-0.048-0.215-0.168v-0.645
			c0-0.094,0.072-0.118,0.239-0.118h0.955c1.098,0,1.194-0.168,1.194-1.051v-5.657v-2.342c0-1.98-0.048-4.965-0.071-5.204
			c-0.096-0.764-0.334-0.931-1.218-0.931h-0.859c-0.12,0-0.191-0.024-0.191-0.167v-0.644c0-0.072,0.048-0.12,0.167-0.12
			c0.525,0,1.361,0.072,2.937,0.072h1.051c2.364,0,4.727-0.024,7.09-0.024c0.382,0,0.836-0.048,0.955-0.048s0.167,0.048,0.191,0.12
			c0.095,0.334,1.146,3.605,1.217,3.843c0.023,0.096,0.023,0.167-0.072,0.215l-0.358,0.19c-0.072,0.048-0.167-0.023-0.191-0.071
			c-0.047-0.095-1.814-2.363-2.387-2.721c-0.502-0.334-1.17-0.621-1.814-0.645l-4.25-0.096L57.83,37.9L57.83,37.9z"/>
		<path class="primarycolor" d="M79.316,45.754c0,0.382,0.215,0.5,0.525,0.5h0.764c0.214,0,0.262,0.072,0.262,0.216v0.383
			c0,0.168-0.048,0.262-0.191,0.262c-0.167,0-0.907-0.072-2.268-0.072c-1.218,0-1.982,0.072-2.149,0.072
			c-0.143,0-0.19-0.072-0.19-0.262V46.47c0-0.168,0.071-0.216,0.31-0.216h0.692c0.262,0,0.454-0.118,0.478-0.549
			c0.024-0.62,0.048-1.385,0.048-2.005v-3.152c0-0.953,0-1.647-0.692-2.147c-0.573-0.431-1.146-0.431-1.743-0.431
			c-0.383,0-1.218,0.169-1.935,0.931c-0.478,0.526-0.549,1.171-0.549,1.625v4.942c0,0.644,0.072,0.786,0.573,0.786h0.597
			c0.19,0,0.239,0.072,0.239,0.24v0.404c0,0.144-0.048,0.216-0.167,0.216c-0.167,0-0.812-0.072-2.077-0.072
			c-1.217,0-1.981,0.072-2.125,0.072c-0.12,0-0.167-0.072-0.167-0.216V46.47c0-0.144,0.047-0.216,0.239-0.216h0.692
			c0.31,0,0.477-0.07,0.477-0.477v-5.588c0-0.717-0.381-1.121-0.979-1.409l-0.191-0.094c-0.167-0.072-0.191-0.145-0.191-0.216v-0.12
			c0-0.118,0.096-0.19,0.215-0.238l2.053-1.145c0.191-0.097,0.335-0.169,0.43-0.169c0.119,0,0.167,0.097,0.191,0.287l0.167,1.456
			h0.047c0.692-0.86,2.077-1.743,3.271-1.743c0.716,0,1.457,0.145,2.029,0.526c0.716,0.479,1.313,1.672,1.313,2.268L79.316,45.754
			L79.316,45.754z"/>
		<path class="primarycolor" d="M82.874,52.772c-0.86-0.524-1.217-1.145-1.217-1.934c0-1.337,1.36-2.363,2.506-2.864v-0.096
			c-1.002-0.216-1.6-0.955-1.6-1.671c0-1.147,1.313-1.958,2.148-2.27v-0.046c-0.931-0.406-2.22-1.506-2.22-3.631
			c0-1.551,1.385-3.461,4.082-3.461c1.815,0,2.77,1.1,3.009,1.386c0.645-0.455,1.457-0.933,2.244-0.933
			c0.788,0,1.17,0.526,1.122,1.002c0,0.455-0.381,0.885-0.931,0.885c-0.406,0-0.645-0.191-0.836-0.358
			c-0.143-0.096-0.31-0.216-0.501-0.216c-0.167,0-0.453,0-0.764,0.145c0.191,0.476,0.358,1.002,0.358,1.814
			c0,0.931-0.263,1.838-0.883,2.578c-0.621,0.692-1.982,1.195-2.77,1.195c-0.525,0-0.86-0.026-1.218-0.12
			c-0.478,0.189-1.266,0.668-1.266,1.337c0,0.979,1.193,0.906,2.793,0.811c1.958-0.095,3.151,0.12,4.106,0.86
			c1.027,0.765,1.146,1.719,1.17,2.292c0,1.122-0.406,2.053-1.6,2.936c-0.621,0.454-2.053,1.123-4.083,1.123
			C85.38,53.537,84.019,53.417,82.874,52.772z M90.752,50.314c0-1.409-1.074-2.483-3.462-2.317l-2.292,0.168
			c-0.741,0.19-1.911,1.003-1.911,2.292c0,0.596,0.454,1.313,0.931,1.646c0.788,0.551,1.648,0.669,3.343,0.669
			C88.245,52.772,90.872,52.152,90.752,50.314z M88.532,40.144c0-1.051-0.214-1.671-0.644-2.149
			c-0.311-0.311-0.788-0.524-1.146-0.524c-0.549,0-1.123,0.096-1.695,0.669c-0.764,0.811-0.859,1.909-0.859,2.815
			c0,0.813,0.262,1.553,0.764,2.077c0.43,0.406,0.86,0.597,1.433,0.597C88.007,43.628,88.532,41.646,88.532,40.144z"/>
		<path class="primarycolor" d="M96.912,39.928c0,1.242,0,4.847,0.024,5.588c0.023,0.406,0.119,0.74,0.621,0.74h1.075
			c0.215,0,0.263,0.07,0.263,0.214v0.406c0,0.145-0.048,0.238-0.143,0.238c-0.167,0-1.218-0.072-2.698-0.072
			c-1.529,0-2.483,0.072-2.698,0.072c-0.12,0-0.167-0.094-0.167-0.238V46.47c0-0.166,0.048-0.214,0.31-0.214h1.146
			c0.263,0,0.502-0.168,0.525-0.597c0.024-0.74,0.024-4.847,0.024-6.232v-1.505c0-1.695-0.024-3.867-0.072-4.487
			c-0.048-0.813-0.43-1.194-1.194-1.433l-0.478-0.167c-0.119-0.048-0.143-0.072-0.143-0.12v-0.191c0-0.071,0.072-0.119,0.215-0.167
			c0.835-0.381,1.91-0.812,2.793-1.384c0.214-0.143,0.358-0.191,0.501-0.191c0.167,0,0.215,0.119,0.191,0.429
			c-0.024,1.313-0.095,6.281-0.095,7.593L96.912,39.928L96.912,39.928z"/>
		<path class="primarycolor" d="M107.034,44.202c0,1.361,0.287,1.789,0.716,1.789c0.384,0,0.718-0.189,0.837-0.357
			c0.096-0.118,0.143-0.166,0.238-0.097l0.239,0.192c0.07,0.072,0.118,0.192-0.024,0.431c-0.191,0.357-0.646,1.168-1.863,1.168
			c-0.86,0-1.48-0.62-1.696-1.599h-0.047c-0.502,0.597-1.289,1.099-2.364,1.457c-0.453,0.145-0.883,0.145-1.408,0.145
			c-0.573,0-1.433-0.479-1.433-1.983c0-1.098,0.501-2.052,2.388-2.889c1.074-0.479,2.315-1.051,2.697-1.385v-1.527
			c-0.047-0.406-0.071-1.026-0.333-1.339c-0.263-0.308-0.74-0.524-1.433-0.524c-0.478,0-1.218,0.19-1.552,0.503
			c-0.334,0.31-0.119,0.666-0.119,1.097c0,0.836-0.287,1.36-1.265,1.36c-0.382,0-0.573-0.214-0.573-0.762
			c0-0.765,0.668-1.674,1.647-2.246c1.002-0.597,1.838-0.835,2.913-0.835c1.122,0,1.576,0.335,1.91,0.645
			c0.501,0.501,0.525,1.051,0.525,1.695v3.652L107.034,44.202L107.034,44.202z M105.292,41.791c-0.859,0.645-3.199,1.12-3.199,3.104
			c0,0.883,0.525,1.313,1.241,1.313c0.692,0,1.958-0.837,1.958-1.481V41.791z"/>
		<path class="primarycolor" d="M119.903,45.754c0,0.382,0.215,0.5,0.525,0.5h0.764c0.215,0,0.264,0.072,0.264,0.216v0.383
			c0,0.168-0.049,0.262-0.191,0.262c-0.167,0-0.907-0.072-2.269-0.072c-1.217,0-1.981,0.072-2.148,0.072
			c-0.144,0-0.191-0.072-0.191-0.262V46.47c0-0.168,0.072-0.216,0.312-0.216h0.692c0.262,0,0.453-0.118,0.478-0.549
			c0.023-0.62,0.048-1.385,0.048-2.005v-3.152c0-0.953,0-1.647-0.692-2.147c-0.573-0.431-1.146-0.431-1.743-0.431
			c-0.383,0-1.218,0.169-1.934,0.931c-0.478,0.526-0.55,1.171-0.55,1.625v4.942c0,0.644,0.072,0.786,0.573,0.786h0.597
			c0.19,0,0.238,0.072,0.238,0.24v0.404c0,0.144-0.048,0.216-0.167,0.216c-0.167,0-0.812-0.072-2.077-0.072
			c-1.217,0-1.981,0.072-2.125,0.072c-0.119,0-0.167-0.072-0.167-0.216V46.47c0-0.144,0.048-0.216,0.238-0.216h0.693
			c0.311,0,0.478-0.07,0.478-0.477v-5.588c0-0.717-0.382-1.121-0.979-1.409l-0.191-0.094c-0.167-0.072-0.191-0.145-0.191-0.216
			v-0.12c0-0.118,0.096-0.19,0.216-0.238l2.052-1.145c0.191-0.097,0.335-0.169,0.431-0.169c0.119,0,0.167,0.097,0.19,0.287
			l0.168,1.456h0.048c0.691-0.86,2.076-1.743,3.271-1.743c0.716,0,1.457,0.145,2.029,0.526c0.717,0.479,1.313,1.672,1.313,2.268
			V45.754L119.903,45.754z"/>
		<path class="primarycolor" d="M130.575,32.503c0-0.908-0.167-1.194-1.504-1.41c-0.144-0.023-0.167-0.071-0.167-0.167v-0.405
			c0-0.096,0.048-0.143,0.19-0.168c0.931-0.191,2.174-0.405,2.626-0.5c0.215-0.024,0.383-0.072,0.55-0.072
			c0.12,0,0.143,0.168,0.12,0.43c-0.073,1.194-0.097,4.655-0.097,7.69v5.275c0,0.883,0.048,1.934,0.239,2.172
			c0.215,0.237,0.716,0.382,1.05,0.406c0.334,0.023,0.43,0.048,0.478,0.168l0.048,0.189c0.024,0.143-0.023,0.215-0.167,0.263
			l-2.698,0.906c-0.143,0.048-0.262-0.021-0.31-0.189l-0.311-1.051c-0.765,0.765-2.293,1.291-3.511,1.291
			c-0.787,0-1.695,0.046-2.816-1.1c-1.217-1.194-1.504-2.268-1.504-3.868c0-1.481,0.549-2.937,1.671-4.059
			c0.932-1.003,2.221-1.504,3.559-1.504c0.978,0,1.838,0.145,2.554,0.358V32.503z M130.575,40.071c0-0.334,0-0.788-0.215-1.171
			c-0.335-0.645-1.099-1.288-2.507-1.288c-0.741,0-1.553,0.214-2.173,0.86c-0.932,1-1.098,2.268-1.098,3.174
			c0,2.698,1.861,4.655,3.246,4.655c1.337,0,2.363-0.692,2.602-1.313c0.12-0.358,0.144-0.549,0.144-0.811L130.575,40.071
			L130.575,40.071z"/>
		<path class="primarycolor" d="M144.111,45.205c-1.718-1.625-2.554-4.393-2.554-6.687c0-2.22,0.716-4.512,2.435-6.326
			c1.218-1.29,3.366-2.412,5.97-2.412c2.172,0,3.962,0.811,4.822,1.313c0.311,0.191,0.429,0.167,0.478,0l0.19-0.693
			c0.048-0.143,0.097-0.143,0.311-0.143c0.215,0,0.263,0.047,0.263,0.382c0,0.453,0.478,3.963,0.597,4.632
			c0.024,0.119,0,0.215-0.095,0.239l-0.358,0.096c-0.12,0.023-0.167,0-0.239-0.191c-0.333-0.788-0.859-1.934-1.862-2.961
			c-1.002-1.027-2.268-1.839-4.154-1.839c-4.273,0-5.993,3.796-5.969,7.283c0,1.385,0.43,4.082,2.293,6.136
			c1.623,1.815,2.983,2.006,4.584,2.006c2.696,0,4.798-1.479,5.897-3.032c0.07-0.118,0.118-0.143,0.19-0.072l0.311,0.24
			c0.072,0.048,0.12,0.094,0.047,0.214c-1.432,2.078-3.748,4.011-7.114,4.011C147.336,47.4,145.545,46.518,144.111,45.205z"/>
		<path class="primarycolor" d="M160.371,45.682c-1.099-1.313-1.313-2.195-1.313-3.891c0-1.217,0.645-2.746,2.053-3.845
			c1.243-0.955,2.412-1.146,3.199-1.146c1.313,0,2.626,0.669,3.343,1.384c1.074,1.099,1.624,2.341,1.624,3.893
			c0,2.602-2.341,5.251-5.277,5.251C162.854,47.328,161.373,46.876,160.371,45.682z M167.271,41.837c0-2.65-1.935-4.319-3.152-4.319
			c-0.644,0-1.265,0.143-1.838,0.763c-0.931,0.955-1.265,1.934-1.265,3.749c0,1.337,0.143,2.243,0.907,3.342
			c0.55,0.789,1.241,1.241,2.363,1.241C166.101,46.612,167.271,44.393,167.271,41.837z"/>
		<path class="primarycolor" d="M174.027,39.928c0,1.242,0,4.847,0.023,5.588c0.023,0.406,0.119,0.74,0.62,0.74h1.074
			c0.216,0,0.264,0.07,0.264,0.214v0.406c0,0.145-0.048,0.238-0.144,0.238c-0.167,0-1.218-0.072-2.698-0.072
			c-1.527,0-2.483,0.072-2.697,0.072c-0.12,0-0.168-0.094-0.168-0.238V46.47c0-0.166,0.048-0.214,0.312-0.214h1.146
			c0.262,0,0.501-0.168,0.524-0.597c0.025-0.74,0.025-4.847,0.025-6.232v-1.505c0-1.695-0.025-3.867-0.072-4.487
			c-0.048-0.813-0.431-1.194-1.194-1.433l-0.478-0.167c-0.118-0.048-0.143-0.072-0.143-0.12v-0.191c0-0.071,0.071-0.119,0.214-0.167
			c0.836-0.381,1.91-0.812,2.794-1.384c0.215-0.143,0.358-0.191,0.503-0.191c0.166,0,0.213,0.119,0.19,0.429
			c-0.024,1.313-0.096,6.281-0.096,7.593V39.928L174.027,39.928z"/>
		<path class="primarycolor" d="M180.258,39.928c0,1.242,0,4.847,0.023,5.588c0.024,0.406,0.119,0.74,0.62,0.74h1.074
			c0.216,0,0.264,0.07,0.264,0.214v0.406c0,0.145-0.048,0.238-0.144,0.238c-0.167,0-1.218-0.072-2.698-0.072
			c-1.527,0-2.483,0.072-2.697,0.072c-0.12,0-0.168-0.094-0.168-0.238V46.47c0-0.166,0.048-0.214,0.312-0.214h1.146
			c0.263,0,0.501-0.168,0.525-0.597c0.023-0.74,0.023-4.847,0.023-6.232v-1.505c0-1.695-0.023-3.867-0.071-4.487
			c-0.049-0.813-0.431-1.194-1.193-1.433l-0.478-0.167c-0.12-0.048-0.144-0.072-0.144-0.12v-0.191c0-0.071,0.071-0.119,0.214-0.167
			c0.836-0.381,1.911-0.812,2.795-1.384c0.214-0.143,0.357-0.191,0.501-0.191c0.167,0,0.215,0.119,0.191,0.429
			c-0.024,1.313-0.096,6.281-0.096,7.593V39.928L180.258,39.928z"/>
		<path class="primarycolor" d="M185.105,40.692c-0.049,0.214-0.072,0.596-0.072,1.145c0,2.342,1.48,4.108,3.39,4.108
			c1.456,0,2.483-0.836,2.89-1.625c0.048-0.096,0.144-0.142,0.214-0.118l0.312,0.166c0.071,0.024,0.119,0.097,0,0.358
			c-0.43,0.955-1.671,2.602-3.797,2.602c-1.36,0-2.865-0.404-3.748-1.694c-0.835-1.217-1.05-2.102-1.05-3.773
			c0-0.931,0.238-2.529,1.504-3.794c1.026-1.051,2.221-1.266,3.414-1.266c2.745,0,3.51,2.578,3.51,3.509
			c0,0.334-0.286,0.383-0.669,0.383H185.105z M188.899,39.976c0.454,0,0.646-0.118,0.646-0.334c0-0.549-0.286-2.124-1.838-2.124
			c-1.05,0-2.055,0.69-2.507,2.458H188.899L188.899,39.976z"/>
		<path class="primarycolor" d="M194.081,52.772c-0.859-0.524-1.218-1.145-1.218-1.934c0-1.337,1.361-2.363,2.508-2.864v-0.096
			c-1.004-0.216-1.599-0.955-1.599-1.671c0-1.147,1.313-1.958,2.147-2.27v-0.046c-0.931-0.406-2.221-1.506-2.221-3.631
			c0-1.551,1.385-3.461,4.083-3.461c1.814,0,2.77,1.1,3.008,1.386c0.646-0.455,1.457-0.933,2.244-0.933
			c0.788,0,1.17,0.526,1.123,1.002c0,0.455-0.383,0.885-0.932,0.885c-0.406,0-0.646-0.191-0.836-0.358
			c-0.143-0.096-0.311-0.216-0.502-0.216c-0.166,0-0.452,0-0.764,0.145c0.191,0.476,0.359,1.002,0.359,1.814
			c0,0.931-0.265,1.838-0.884,2.578c-0.621,0.692-1.982,1.195-2.77,1.195c-0.525,0-0.859-0.026-1.218-0.12
			c-0.478,0.189-1.267,0.668-1.267,1.337c0,0.979,1.195,0.906,2.795,0.811c1.957-0.095,3.151,0.12,4.106,0.86
			c1.026,0.765,1.146,1.719,1.17,2.292c0,1.122-0.406,2.053-1.601,2.936c-0.619,0.454-2.053,1.123-4.082,1.123
			C196.588,53.537,195.228,53.417,194.081,52.772z M201.96,50.314c0-1.409-1.075-2.483-3.463-2.317l-2.291,0.168
			c-0.741,0.19-1.909,1.003-1.909,2.292c0,0.596,0.452,1.313,0.931,1.646c0.787,0.551,1.647,0.669,3.343,0.669
			C199.454,52.772,202.079,52.152,201.96,50.314z M199.74,40.144c0-1.051-0.215-1.671-0.646-2.149
			c-0.311-0.311-0.787-0.524-1.145-0.524c-0.551,0-1.123,0.096-1.697,0.669c-0.764,0.811-0.858,1.909-0.858,2.815
			c0,0.813,0.263,1.553,0.764,2.077c0.43,0.406,0.86,0.597,1.433,0.597C199.214,43.628,199.74,41.646,199.74,40.144z"/>
		<path class="primarycolor" d="M206.734,40.692c-0.047,0.214-0.071,0.596-0.071,1.145c0,2.342,1.479,4.108,3.39,4.108
			c1.457,0,2.483-0.836,2.89-1.625c0.048-0.096,0.144-0.142,0.215-0.118l0.311,0.166c0.07,0.024,0.118,0.097,0,0.358
			c-0.43,0.955-1.672,2.602-3.797,2.602c-1.36,0-2.865-0.404-3.748-1.694c-0.835-1.217-1.05-2.102-1.05-3.773
			c0-0.931,0.238-2.529,1.504-3.794c1.026-1.051,2.221-1.266,3.414-1.266c2.745,0,3.509,2.578,3.509,3.509
			c0,0.334-0.286,0.383-0.669,0.383H206.734z M210.529,39.976c0.455,0,0.646-0.118,0.646-0.334c0-0.549-0.286-2.124-1.838-2.124
			c-1.051,0-2.054,0.69-2.507,2.458H210.529L210.529,39.976z"/>
	</g>
	<g>
		<path class="primarycolor" d="M147.213,60.974c0.085,0,1.222-0.042,1.349-0.063c0.308-0.052,0.393-0.139,0.488-0.467
			c0.032-0.105,0.074-0.317,0.084-0.52c0-0.055,0.032-0.074,0.075-0.074l0.266,0.01c0.053,0,0.073,0.042,0.063,0.086
			c-0.032,0.181-0.032,1.049-0.032,1.209c0,0.372,0.042,0.881,0.064,1.104c0,0.052-0.022,0.074-0.064,0.084l-0.232,0.032
			c-0.055,0.01-0.075-0.02-0.085-0.096c-0.022-0.139-0.086-0.383-0.117-0.499c-0.064-0.222-0.181-0.382-0.457-0.414
			c-0.499-0.052-1.231-0.052-1.4-0.052v0.656c0,0.574,0.021,1.604,0.021,1.817c0.012,0.553,0.276,0.763,0.604,0.826
			c0.213,0.042,0.521,0.074,0.787,0.074c0.18,0,0.71-0.01,0.935-0.032c0.18-0.02,0.647-0.136,0.923-0.37
			c0.128-0.105,0.722-0.87,0.871-1.114c0.032-0.055,0.064-0.097,0.127-0.064l0.17,0.097c0.054,0.031,0.054,0.063,0.021,0.147
			l-0.562,1.562c-0.033,0.096-0.106,0.16-0.235,0.16c-0.053,0-0.286-0.013-0.923-0.022c-0.636,0-1.666-0.012-3.323-0.012
			c-0.392,0-0.689,0.012-0.901,0.012c-0.223,0.01-0.361,0.022-0.457,0.022c-0.063,0-0.097-0.022-0.097-0.076v-0.286
			c0-0.042,0.033-0.055,0.107-0.055h0.426c0.487,0,0.529-0.073,0.529-0.466v-2.516v-1.041c0-0.881-0.021-2.207-0.031-2.313
			c-0.043-0.34-0.149-0.414-0.541-0.414h-0.383c-0.053,0-0.085-0.011-0.085-0.074v-0.286c0-0.032,0.021-0.055,0.074-0.055
			c0.233,0,0.605,0.032,1.306,0.032h0.468c1.051,0,2.102-0.01,3.151-0.01c0.171,0,0.372-0.022,0.425-0.022s0.074,0.022,0.085,0.055
			c0.042,0.147,0.51,1.603,0.541,1.709c0.011,0.042,0.011,0.074-0.031,0.096l-0.159,0.084c-0.032,0.022-0.074-0.01-0.085-0.031
			c-0.022-0.042-0.807-1.051-1.063-1.211c-0.222-0.148-0.521-0.274-0.807-0.286l-1.889-0.042L147.213,60.974L147.213,60.974z"/>
		<path class="primarycolor" d="M153.097,64.646c-0.128-0.096-0.192-0.126-0.244-0.126c-0.064,0-0.106,0.074-0.17,0.18
			c-0.064,0.116-0.116,0.127-0.191,0.127c-0.063,0-0.117-0.053-0.096-0.171c0.043-0.264,0.148-1.612,0.181-1.919
			c0.01-0.064,0.032-0.064,0.074-0.064l0.159,0.011c0.043,0,0.064,0.021,0.064,0.084c0.01,0.34,0.03,0.69,0.381,1.23
			c0.319,0.501,0.903,0.787,1.487,0.787c0.637,0,1.442-0.393,1.442-1.35c0-1.093-0.784-1.497-1.634-1.793
			c-0.329-0.116-1.094-0.382-1.55-0.86c-0.351-0.351-0.53-0.849-0.53-1.55c0-0.53,0.329-1.05,0.657-1.358
			c0.382-0.36,0.913-0.511,1.487-0.511c0.605,0,1.072,0.181,1.252,0.267c0.096,0.052,0.148,0.042,0.201-0.01l0.139-0.129
			c0.053-0.042,0.085-0.063,0.138-0.063c0.054,0,0.085,0.086,0.085,0.18c0,0.373,0.139,1.455,0.148,1.688
			c0,0.054-0.01,0.076-0.053,0.086l-0.127,0.032c-0.032,0.01-0.054,0-0.064-0.032c-0.085-0.308-0.223-0.723-0.658-1.179
			c-0.286-0.309-0.657-0.456-1.157-0.456c-0.944,0-1.285,0.7-1.285,1.24c0,0.299,0.064,0.648,0.33,0.925
			c0.307,0.309,0.902,0.541,1.21,0.637c0.733,0.234,1.327,0.414,1.71,0.881c0.276,0.33,0.466,0.744,0.466,1.444
			c0,1.253-0.765,2.324-2.165,2.324C154.041,65.199,153.521,64.977,153.097,64.646z"/>
		<path class="primarycolor" d="M160.487,57.906h-0.267c-0.34,0-1.263,0-1.677,0.128c-0.478,0.148-0.797,0.891-0.945,1.23
			c-0.021,0.055-0.053,0.064-0.105,0.055l-0.191-0.055c-0.032-0.01-0.064-0.021-0.042-0.084c0.104-0.382,0.478-1.751,0.498-1.869
			c0.022-0.138,0.064-0.17,0.106-0.17c0.054,0,0.085,0.01,0.127,0.042l0.139,0.096c0.19,0.139,0.298,0.17,0.604,0.181
			c0.563,0.021,1.008,0.063,2.007,0.063h0.51c1.157,0,1.613-0.042,2.134-0.063c0.233-0.011,0.371-0.042,0.552-0.148l0.202-0.128
			c0.054-0.032,0.085-0.042,0.128-0.042c0.053,0,0.075,0.032,0.095,0.17c0.022,0.128,0.224,1.443,0.309,1.911
			c0.011,0.053-0.011,0.074-0.063,0.084l-0.17,0.044c-0.043,0.011-0.054,0-0.085-0.075c-0.085-0.202-0.404-1.02-0.755-1.189
			c-0.317-0.158-1.315-0.18-1.836-0.18h-0.297v3.025c0,0.148,0,3.12,0.01,3.303c0.021,0.265,0.106,0.424,0.361,0.424h0.668
			c0.097,0,0.106,0.032,0.106,0.106v0.223c0,0.054-0.01,0.086-0.106,0.086c-0.105,0-0.446-0.034-1.485-0.034
			c-1.021,0-1.466,0.034-1.614,0.034c-0.084,0-0.096-0.044-0.096-0.108v-0.2c0-0.076,0.011-0.108,0.074-0.108h0.722
			c0.213,0,0.34-0.126,0.352-0.254c0.032-0.306,0.032-3.566,0.032-3.769V57.906z"/>
		<path class="primarycolor" d="M164.013,64.541c0-0.181,0.127-0.595,0.658-0.595c0.308,0,0.595,0.244,0.595,0.637
			c0,0.352-0.266,0.584-0.595,0.584C164.437,65.167,164.013,65.039,164.013,64.541z"/>
		<path class="primarycolor" d="M170.129,61.004c0-0.144,0.011-0.67,0-1.553c-0.012-0.381-0.057-0.627-0.269-0.627
			c-0.1,0-0.269,0.034-0.447,0.089l-0.782,0.258c-0.044,0.01-0.091,0.01-0.112-0.034l-0.089-0.202
			c-0.023-0.044-0.012-0.088,0.066-0.134l2.314-1.329c0.056-0.034,0.101-0.068,0.156-0.068c0.067,0,0.078,0.068,0.078,0.158
			c0,0.101-0.034,1.855-0.034,3.297v0.47c0,0.135,0.013,2.504,0.013,2.65c0.01,0.58,0.055,0.658,0.782,0.658h0.402
			c0.078,0,0.112,0.034,0.112,0.09v0.259c0,0.065-0.022,0.088-0.102,0.088c-0.1,0-1.62-0.034-1.721-0.034s-1.678,0.034-1.732,0.034
			c-0.056,0-0.089-0.022-0.089-0.088v-0.28c0-0.057,0.066-0.068,0.156-0.068h0.514c0.726,0,0.749-0.034,0.771-0.627
			c0.013-0.144,0.013-2.403,0.013-2.604L170.129,61.004L170.129,61.004z"/>
		<path class="primarycolor" d="M177.497,58.187c0.503,0.57,0.604,1.455,0.604,1.801c0,1.497-0.504,3.04-1.822,4.203
			c-0.56,0.492-0.995,0.738-1.61,0.938c-0.112,0.034-0.269,0.078-0.347,0.078c-0.089,0-0.168-0.044-0.168-0.156
			c0-0.078,0.045-0.134,0.101-0.156c0.973-0.392,2.459-1.61,2.705-3.477l-0.011-0.023c-0.302,0.28-0.704,0.548-1.364,0.548
			c-1.543,0-2.068-1.173-2.068-2.235c0-0.424,0.402-1.353,0.827-1.721c0.437-0.381,0.95-0.583,1.421-0.583
			C176.558,57.403,176.993,57.638,177.497,58.187z M174.41,59.651c0,1.051,0.627,1.812,1.387,1.812c0.649,0,0.984-0.347,1.13-0.637
			c0.134-0.28,0.168-0.648,0.168-1.107c0-0.984-0.28-1.957-1.298-1.957C175.138,57.762,174.41,58.4,174.41,59.651z"/>
		<path class="primarycolor" d="M182.058,65.039c-0.1,0-0.134-0.022-0.134-0.122v-1.968h-3.119c-0.101,0-0.167-0.044-0.167-0.134
			c0-0.068,0.033-0.112,0.112-0.225l3.633-5.007c0.067-0.09,0.156-0.179,0.245-0.179c0.102,0,0.146,0.078,0.146,0.335v4.471h0.906
			c0.077,0,0.135,0.022,0.135,0.09v0.539c0,0.065-0.035,0.109-0.18,0.109h-0.861v1.936c0,0.122-0.022,0.156-0.156,0.156h-0.56
			V65.039z M181.936,59.192c0-0.178-0.111-0.212-0.213-0.065l-2.057,2.838c-0.134,0.19-0.123,0.302,0.078,0.302h2.191V59.192
			L181.936,59.192z"/>
		<path class="primarycolor" d="M185.044,64.593c-0.559-0.603-0.716-1.476-0.716-2.058c0-1.396,0.515-2.771,1.699-3.923
			c0.538-0.515,1.14-0.885,1.644-1.085c0.179-0.078,0.336-0.124,0.414-0.124c0.067,0,0.134,0.034,0.134,0.112
			c0,0.09-0.033,0.146-0.101,0.181c-0.894,0.401-2.37,1.631-2.648,3.464c0.357-0.313,0.838-0.515,1.486-0.515
			c1.397,0,1.979,1.241,1.979,1.968c0,1.041-0.301,1.521-0.693,1.923c-0.413,0.449-0.883,0.671-1.587,0.671
			C185.904,65.207,185.379,64.995,185.044,64.593z M187.984,62.959c0-0.994-0.492-1.833-1.354-1.833
			c-0.659,0-0.972,0.269-1.105,0.549c-0.157,0.29-0.246,0.748-0.246,1.219c0,0.57,0.089,1.957,1.441,1.957
			C186.968,64.851,187.984,64.727,187.984,62.959z"/>
	</g>
	<g>
		<polygon class="secondarycolor" points="95.762,52.557 95.762,52.012 189.752,52.012 189.752,52.557 		"/>
	</g>
</g>
</svg>
