<?xml version="1.0" encoding="iso-8859-1"?>
<svg version="1.2" baseProfile="tiny" class="logocolor sf" xmlns="http://www.w3.org/2000/svg" xmlns:xlink="http://www.w3.org/1999/xlink" viewBox="0 0 215 70" xml:space="preserve">
<g>
	<g>
		<g>
			<g>
				<g>
					<path class="secondarycolor" d="M17.393,31.136c0,0-0.307-0.262-0.646,0.069c-0.328,0.322-0.07,0.646-0.07,0.646l2.731,2.732l-2.73,2.733
						c0,0-0.263,0.307,0.069,0.644c0.321,0.329,0.646,0.071,0.646,0.071l3.446-3.448L17.393,31.136z"/>
					<path class="secondarycolor" d="M2.68,34.582l2.73-2.732c0,0,0.263-0.305-0.069-0.645c-0.322-0.328-0.645-0.07-0.645-0.07l-3.447,3.444l0.001,0.002
						l-0.001,0.001l3.446,3.445c0,0,0.307,0.262,0.646-0.07c0.328-0.321,0.069-0.646,0.069-0.646L2.68,34.582z"/>
				</g>
				<g>
					<path class="secondarycolor" d="M14.419,40.284c-0.323-0.328-0.647-0.069-0.647-0.069l-2.73,2.729l-2.731-2.729c0,0-0.307-0.263-0.646,0.069
						c-0.328,0.322-0.068,0.646-0.068,0.646l3.444,3.448l0.001-0.001l0.001,0.001l3.444-3.448
						C14.488,40.93,14.75,40.624,14.419,40.284z"/>
					<path class="secondarycolor" d="M14.49,28.234l-3.445-3.448l-0.002,0.001l-0.001-0.001l-3.444,3.448c0,0-0.263,0.307,0.07,0.646
						c0.322,0.328,0.646,0.07,0.646,0.07l2.731-2.731l2.731,2.731c0,0,0.306,0.263,0.646-0.07
						C14.749,28.558,14.49,28.234,14.49,28.234z"/>
				</g>
			</g>
			<g>
				<path class="secondarycolor" d="M16.877,35.73c0.311-0.338,0.234-0.685,0.234-0.685h-5.603v5.604c0,0,0.346,0.076,0.684-0.235
					c0.354-0.324,0.326-0.71,0.326-0.71v-2.93l2.882,2.881c0,0,0.307,0.263,0.645-0.068c0.329-0.323,0.069-0.646,0.069-0.646
					l-2.882-2.885h2.933C16.167,36.056,16.552,36.085,16.877,35.73z"/>
				<path class="secondarycolor" d="M10.58,35.046H4.977c0,0-0.077,0.346,0.234,0.684c0.324,0.354,0.71,0.326,0.71,0.326h2.931l-2.882,2.883
					c0,0-0.263,0.307,0.07,0.646c0.32,0.326,0.645,0.068,0.645,0.068l2.884-2.882v2.933c0,0-0.028,0.387,0.326,0.711
					c0.338,0.311,0.685,0.234,0.685,0.234V35.046L10.58,35.046z"/>
				<path class="secondarycolor" d="M9.895,28.75c-0.354,0.324-0.326,0.71-0.326,0.71v2.93l-2.882-2.882c0,0-0.307-0.261-0.646,0.07
					c-0.327,0.323-0.069,0.646-0.069,0.646l2.882,2.884l-2.934-0.001c0,0-0.385-0.027-0.711,0.327
					c-0.311,0.337-0.233,0.684-0.233,0.684h5.603v-5.604C10.58,28.513,10.233,28.438,9.895,28.75z"/>
				<path class="secondarycolor" d="M16.877,33.433c-0.326-0.354-0.712-0.325-0.712-0.325h-2.93l2.882-2.883c0,0,0.262-0.306-0.07-0.646
					c-0.322-0.328-0.646-0.068-0.646-0.068l-2.883,2.883v-2.934c0,0,0.028-0.386-0.326-0.71c-0.338-0.312-0.684-0.235-0.684-0.235
					v5.604h5.603C17.111,34.117,17.188,33.771,16.877,33.433z"/>
			</g>
		</g>
		<g>
			<path class="primarycolor" d="M28.004,38.678c-1.912,0-3.055-1.213-3.055-3.135v-4.909h1.076v4.771c0,1.373,0.617,2.288,1.979,2.288
				c1.337,0,2.013-0.823,2.013-2.254v-4.806h1.076v4.852C31.093,37.477,29.914,38.678,28.004,38.678z"/>
			<path class="primarycolor" d="M39.502,38.528l-4.334-6.143v6.143h-0.997v-7.893h0.962l4.187,5.915v-5.915h0.996v7.893H39.502z"/>
			<path class="primarycolor" d="M43.601,38.528v-7.893h1.075v7.893H43.601z"/>
			<path class="primarycolor" d="M51.06,38.563h-0.961l-3.042-7.781l1.076-0.228l2.459,6.566l2.414-6.487h1.133L51.06,38.563z"/>
			<path class="primarycolor" d="M56.508,38.528v-7.893h4.256v0.984h-3.182v2.289h2.472l0.161,0.983h-2.632v2.654h3.294v0.983H56.508z"/>
			<path class="primarycolor" d="M69.014,38.369l-1.088,0.241L65.513,35.2H64.7v3.329h-1.076v-7.893h2.151c1.613,0,2.62,0.799,2.62,2.242
				c0,1.191-0.697,1.899-1.728,2.186L69.014,38.369z M65.73,31.583H64.7v2.711h0.916c1.041,0,1.705-0.468,1.705-1.361
				C67.32,32.076,66.783,31.583,65.73,31.583z"/>
			<path class="primarycolor" d="M73.271,38.62c-0.858,0-1.625-0.206-2.208-0.515l0.16-1.099c0.538,0.355,1.281,0.676,2.071,0.676
				c0.823,0,1.408-0.436,1.408-1.202c0-0.721-0.321-1.018-1.511-1.556c-1.487-0.674-2.048-1.167-2.048-2.3
				c0-1.27,0.973-2.083,2.402-2.083c0.767,0,1.339,0.184,1.797,0.447l-0.172,1.076c-0.434-0.333-1.03-0.583-1.659-0.583
				c-0.904,0-1.303,0.48-1.303,1.063c0,0.607,0.296,0.893,1.498,1.442c1.533,0.698,2.06,1.225,2.06,2.414
				C75.766,37.763,74.748,38.62,73.271,38.62z"/>
			<path class="primarycolor" d="M78.592,38.528v-7.893h1.076v7.893H78.592z"/>
			<path class="primarycolor" d="M85.628,31.619v6.909h-1.076v-6.909h-2.517v-0.984h6.019l0.159,0.984H85.628z"/>
			<path class="primarycolor" d="M93.249,35.395v3.134h-1.075v-3.134l-2.792-4.612l1.075-0.228l2.266,3.855l2.208-3.776h1.19L93.249,35.395z"/>
			<path class="primarycolor" d="M104.176,38.678c-2.219,0-3.626-1.648-3.626-4.085c0-2.449,1.431-4.106,3.649-4.106c2.232,0,3.628,1.647,3.628,4.084
				C107.827,37.007,106.409,38.678,104.176,38.678z M104.188,31.47c-1.567,0-2.528,1.212-2.528,3.111
				c0,1.899,0.971,3.112,2.528,3.112c1.567,0,2.529-1.213,2.529-3.112C106.717,32.682,105.743,31.47,104.188,31.47z"/>
			<path class="primarycolor" d="M111.569,31.619v2.414h2.38l0.161,0.984h-2.541v3.512h-1.076v-7.893h4.108v0.984H111.569z"/>
			<path class="primarycolor" d="M121.72,38.62c-0.859,0-1.626-0.206-2.21-0.515l0.161-1.099c0.538,0.355,1.282,0.676,2.071,0.676
				c0.823,0,1.406-0.436,1.406-1.202c0-0.721-0.32-1.018-1.509-1.556c-1.488-0.674-2.049-1.167-2.049-2.3
				c0-1.27,0.972-2.083,2.403-2.083c0.767,0,1.338,0.184,1.795,0.447l-0.171,1.076c-0.435-0.333-1.029-0.583-1.659-0.583
				c-0.903,0-1.304,0.48-1.304,1.063c0,0.607,0.298,0.893,1.499,1.442c1.533,0.698,2.06,1.225,2.06,2.414
				C124.214,37.763,123.194,38.62,121.72,38.62z"/>
			<path class="primarycolor" d="M132.073,38.61l-0.927-2.449h-3.261l-0.894,2.367h-1.085l3.087-7.928h1.077l3.043,7.78L132.073,38.61z M129.511,31.881
				l-1.258,3.33h2.528L129.511,31.881z"/>
			<path class="primarycolor" d="M140.588,38.528l-4.338-6.143v6.143h-0.994v-7.893h0.961l4.188,5.915v-5.915h0.995v7.893H140.588z"/>
			<path class="primarycolor" d="M149.009,31.619v2.414h2.38l0.159,0.984h-2.539v3.512h-1.075v-7.893h4.108v0.984H149.009z"/>
			<path class="primarycolor" d="M160.107,38.369l-1.086,0.241l-2.414-3.411h-0.813v3.329h-1.075v-7.893h2.15c1.612,0,2.621,0.799,2.621,2.242
				c0,1.191-0.7,1.899-1.728,2.186L160.107,38.369z M156.825,31.583h-1.03v2.711h0.916c1.04,0,1.703-0.468,1.703-1.361
				C158.414,32.076,157.878,31.583,156.825,31.583z"/>
			<path class="primarycolor" d="M167.879,38.61l-0.928-2.449h-3.261l-0.893,2.367h-1.087l3.089-7.928h1.075l3.043,7.78L167.879,38.61z M165.316,31.881
				l-1.261,3.33h2.529L165.316,31.881z"/>
			<path class="primarycolor" d="M176.619,38.528l-4.336-6.143v6.143h-0.995v-7.893h0.961l4.188,5.915v-5.915h0.995v7.893H176.619z"/>
			<path class="primarycolor" d="M183.75,38.678c-2.22,0-3.65-1.648-3.65-4.085c0-2.449,1.452-4.106,3.672-4.106c0.939,0,1.635,0.24,2.243,0.653
				l-0.16,1.097c-0.572-0.435-1.248-0.766-2.094-0.766c-1.602,0-2.552,1.212-2.552,3.111c0,1.899,0.963,3.101,2.552,3.101
				c0.846,0,1.591-0.332,2.219-0.789l0.16,1.018C185.533,38.357,184.652,38.678,183.75,38.678z"/>
			<path class="primarycolor" d="M188.683,38.528v-7.893h1.074v7.893H188.683z"/>
			<path class="primarycolor" d="M194.506,38.62c-0.858,0-1.626-0.206-2.207-0.515l0.16-1.099c0.536,0.355,1.279,0.676,2.069,0.676
				c0.823,0,1.406-0.436,1.406-1.202c0-0.721-0.319-1.018-1.509-1.556c-1.488-0.674-2.048-1.167-2.048-2.3
				c0-1.27,0.972-2.083,2.401-2.083c0.768,0,1.34,0.184,1.797,0.447l-0.172,1.076c-0.435-0.333-1.028-0.583-1.659-0.583
				c-0.903,0-1.306,0.48-1.306,1.063c0,0.607,0.299,0.893,1.501,1.442c1.532,0.698,2.06,1.225,2.06,2.414
				C197,37.763,195.981,38.62,194.506,38.62z"/>
			<path class="primarycolor" d="M202.583,38.678c-2.219,0-3.648-1.648-3.648-4.085c0-2.449,1.452-4.106,3.673-4.106c0.938,0,1.635,0.24,2.241,0.653
				l-0.159,1.097c-0.572-0.435-1.247-0.766-2.094-0.766c-1.603,0-2.551,1.212-2.551,3.111c0,1.899,0.961,3.101,2.551,3.101
				c0.847,0,1.59-0.332,2.22-0.789l0.159,1.018C204.369,38.357,203.487,38.678,202.583,38.678z"/>
			<path class="primarycolor" d="M210.171,38.678c-2.222,0-3.628-1.648-3.628-4.085c0-2.449,1.431-4.106,3.649-4.106c2.231,0,3.627,1.647,3.627,4.084
				C213.819,37.007,212.4,38.678,210.171,38.678z M210.182,31.47c-1.566,0-2.528,1.212-2.528,3.111c0,1.899,0.972,3.112,2.528,3.112
				c1.567,0,2.527-1.213,2.527-3.112C212.709,32.682,211.737,31.47,210.182,31.47z"/>
		</g>
	</g>
</g>
</svg>
