<?xml version="1.0" encoding="iso-8859-1"?>
<svg version="1.2" baseProfile="tiny" class="logocolor ua" xmlns="http://www.w3.org/2000/svg" xmlns:xlink="http://www.w3.org/1999/xlink" viewBox="0 0 215 70" xml:space="preserve">
<g>
	<defs>
		<filter id="Adobe_OpacityMaskFilter" filterUnits="userSpaceOnUse" x="1.197" y="39.688" width="204.632" height="1.354">
			
				<feColorMatrix  type="matrix" values="-1 0 0 0 1  0 -1 0 0 1  0 0 -1 0 1  0 0 0 1 0" color-interpolation-filters="sRGB" result="source"/>
		</filter>
	</defs>
	<mask maskUnits="userSpaceOnUse" x="1.197" y="39.688" width="204.632" height="1.354" id="SVGID_1_">
		<g filter="url(#Adobe_OpacityMaskFilter)">
			<radialGradient id="SVGID_2_" cx="103.5132" cy="40.3652" r="95.713" gradientUnits="userSpaceOnUse">
				<stop  offset="0" stop-opacity="1" class="primarycolor" />
				<stop  offset="0.1816" stop-opacity=".8" class="primarycolor" />
				<stop  offset="0.3219" stop-opacity=".7" class="primarycolor" />
				<stop  offset="0.4485" stop-opacity=".6" class="primarycolor" />
				<stop  offset="0.567" stop-opacity=".5" class="primarycolor" />
				<stop  offset="0.6798" stop-opacity=".4" class="primarycolor" />
				<stop  offset="0.7884" stop-opacity=".3" class="primarycolor" />
				<stop  offset="0.8936" stop-opacity=".2" class="primarycolor" />
				<stop  offset="0.9937" stop-opacity="0" class="primarycolor" />
				<stop  offset="1" stop-opacity="0" class="primarycolor" />
			</radialGradient>
			<rect x="-31.844" y="39.688" fill="url(#SVGID_2_)" width="270.714" height="1.354"/>
		</g>
	</mask>
	<rect x="1.197" y="39.688" mask="url(#SVGID_1_)" class="primarycolor" width="204.632" height="1.354"/>
	<g>
		<g>
			<path class="primarycolor" d="M0.981,16.453h3.958v10.892c0,1.116,0.232,1.933,0.698,2.447c0.465,0.515,1.202,0.772,2.212,0.772
				c0.938,0,1.651-0.28,2.139-0.837c0.49-0.56,0.733-1.376,0.733-2.453V16.453h3.133v11.118c0,2.026-0.539,3.554-1.617,4.583
				c-1.078,1.028-2.685,1.542-4.825,1.542c-1.292,0-2.414-0.213-3.364-0.637c-0.951-0.426-1.711-1.052-2.281-1.878
				c-0.271-0.396-0.468-0.895-0.595-1.495c-0.127-0.601-0.19-1.341-0.19-2.223V16.453z"/>
			<path class="primarycolor" d="M16.793,33.352V19.275h3.372l5.366,9.065l-0.099-9.065h2.719v14.077h-2.804l-5.945-10.084l0.11,10.084
				H16.793z"/>
			<path class="primarycolor" d="M30.827,33.352V19.275h3.338v14.077H30.827z"/>
			<path class="primarycolor" d="M40.087,33.352l-4.616-14.077h3.416l3.105,10.441l3.175-10.441h2.797l-4.633,14.077H40.087z"/>
			<path class="primarycolor" d="M49.165,33.352V19.275h9.981v2.547h-6.815v3.063h5.507v2.375h-5.507v3.51h6.918v2.582H49.165z"/>
			<path class="primarycolor" d="M61.165,33.352V19.275h6.121c1.773,0,3.107,0.338,4,1.016c0.894,0.675,1.34,1.686,1.34,3.033
				c0,0.916-0.212,1.691-0.635,2.321c-0.424,0.63-1.052,1.101-1.886,1.41l2.669,6.297h-3.502l-2.334-5.679h-2.504v5.679H61.165z
				 M66.879,21.65h-2.445v3.648h2.424c0.768,0,1.359-0.161,1.774-0.484c0.414-0.323,0.62-0.781,0.62-1.375
				c0-0.587-0.202-1.031-0.605-1.334C68.243,21.802,67.654,21.65,66.879,21.65z"/>
			<path class="primarycolor" d="M73.591,29.403l3.08-0.594c0.196,0.719,0.575,1.271,1.133,1.659c0.559,0.385,1.26,0.578,2.102,0.578
				c0.658,0,1.191-0.15,1.603-0.451c0.411-0.3,0.617-0.691,0.617-1.173c0-0.747-0.88-1.351-2.641-1.813
				c-0.204-0.051-0.357-0.091-0.463-0.118c-0.073-0.019-0.176-0.045-0.308-0.08c-1.618-0.415-2.759-0.944-3.426-1.585
				c-0.33-0.312-0.582-0.675-0.752-1.091c-0.172-0.416-0.257-0.872-0.257-1.368c0-1.301,0.504-2.36,1.515-3.177
				c1.013-0.815,2.346-1.224,4.004-1.224c1.327,0,2.453,0.301,3.374,0.901c0.921,0.601,1.594,1.474,2.017,2.623l-2.833,0.779
				c-0.224-0.613-0.561-1.076-1.011-1.389c-0.452-0.313-1.011-0.47-1.682-0.47c-0.617,0-1.119,0.145-1.503,0.434
				c-0.385,0.289-0.577,0.659-0.577,1.11c0,0.677,0.816,1.227,2.444,1.653c0.263,0.066,0.473,0.123,0.631,0.168
				c0.06,0.014,0.152,0.037,0.279,0.07c1.542,0.396,2.64,0.859,3.295,1.388c0.43,0.351,0.755,0.77,0.974,1.258
				c0.218,0.491,0.328,1.046,0.328,1.666c0,1.296-0.542,2.365-1.627,3.206c-1.084,0.843-2.486,1.265-4.206,1.265
				c-1.58,0-2.906-0.372-3.978-1.116C74.652,31.769,73.941,30.732,73.591,29.403z"/>
			<path class="primarycolor" d="M87.577,33.352V19.275h3.338v14.077H87.577z"/>
			<path class="primarycolor" d="M98.828,21.822v11.53h-3.27v-11.53h-3.27v-2.547h9.81v2.547H98.828z"/>
			<path class="primarycolor" d="M106.031,33.352v-6.003l-4.681-8.073h3.589l3.004,5.458l2.942-5.458h2.924l-4.509,8.014v6.063H106.031z"
				/>
			<path class="secondarycolor" d="M112.835,33.352l5.354-16.899h4.301l5.385,16.899h-4.051l-1.215-4.062h-5.302l-1.192,4.062H112.835z
				 M118.093,26.434h3.753l-1.894-6.242L118.093,26.434z"/>
			<path class="secondarycolor" d="M129.082,33.352V19.275h3.304v11.461h5.886v2.616H129.082z"/>
			<path class="secondarycolor" d="M139.376,33.352V19.275h3.304v11.461h5.886v2.616H139.376z"/>
			<path class="secondarycolor" d="M149.671,33.352V19.275h3.338v14.077H149.671z"/>
			<path class="secondarycolor" d="M154.245,33.352l4.46-14.077h3.583l4.485,14.077h-3.374l-1.012-3.373h-4.416l-0.993,3.373H154.245z
				 M158.627,27.604h3.126l-1.579-5.21L158.627,27.604z"/>
			<path class="secondarycolor" d="M168.008,33.352V19.275h3.374l5.365,9.065l-0.101-9.065h2.719v14.077h-2.802l-5.945-10.084l0.109,10.084
				H168.008z"/>
			<path class="secondarycolor" d="M190.027,24.473c-0.066-0.935-0.317-1.667-0.75-2.199c-0.435-0.53-0.994-0.796-1.679-0.796
				c-0.914,0-1.61,0.411-2.087,1.232c-0.479,0.822-0.716,2.017-0.716,3.586c0,1.576,0.235,2.761,0.709,3.558
				c0.472,0.793,1.175,1.191,2.107,1.191c0.675,0,1.225-0.238,1.65-0.718c0.426-0.478,0.716-1.179,0.868-2.104l2.993,0.31
				c-0.236,1.618-0.839,2.872-1.807,3.76c-0.968,0.888-2.218,1.333-3.749,1.333c-1.895,0-3.399-0.658-4.512-1.975
				c-1.111-1.317-1.669-3.102-1.669-5.352c0-2.236,0.562-4.018,1.685-5.346c1.123-1.326,2.628-1.989,4.517-1.989
				c1.564,0,2.831,0.458,3.798,1.375c0.968,0.917,1.546,2.204,1.737,3.863L190.027,24.473z"/>
			<path class="secondarycolor" d="M194.985,33.352V19.275h9.98v2.547h-6.814v3.063h5.507v2.375h-5.507v3.51h6.918v2.582H194.985z"/>
		</g>
		<g>
			<path class="secondarycolor" d="M5.252,47.618v7.4H4.237v-7.4H1.914v-0.86h5.662v0.86H5.252z"/>
			<path class="secondarycolor" d="M8.286,55.019v-8.261h0.896v3.225c0.22-0.418,0.489-0.729,0.808-0.936
				c0.317-0.207,0.687-0.311,1.11-0.311c0.651,0,1.146,0.205,1.482,0.613c0.337,0.407,0.506,1.007,0.506,1.796v3.873H12.21v-3.954
				c0-0.501-0.109-0.889-0.329-1.161c-0.219-0.274-0.531-0.409-0.936-0.409c-0.504,0-0.925,0.202-1.26,0.606
				c-0.336,0.406-0.503,0.916-0.503,1.533v3.385H8.286z"/>
			<path class="secondarycolor" d="M19.598,53.379c-0.213,0.588-0.543,1.036-0.991,1.346c-0.447,0.311-0.988,0.465-1.624,0.465
				c-0.833,0-1.498-0.292-1.993-0.878c-0.496-0.584-0.743-1.367-0.743-2.349c0-0.966,0.251-1.744,0.755-2.338
				c0.503-0.592,1.164-0.889,1.981-0.889c0.828,0,1.486,0.282,1.972,0.85c0.487,0.566,0.729,1.334,0.729,2.302v0.136h-4.452v0.035
				c0,0.734,0.162,1.312,0.486,1.729c0.324,0.419,0.769,0.627,1.335,0.627c0.381,0,0.718-0.104,1.011-0.31
				c0.292-0.206,0.516-0.499,0.672-0.877L19.598,53.379z M15.245,51.353h3.459c-0.028-0.583-0.188-1.039-0.481-1.366
				c-0.294-0.329-0.69-0.492-1.191-0.492c-0.501,0-0.904,0.158-1.211,0.478C15.514,50.289,15.323,50.75,15.245,51.353z"/>
			<path class="secondarycolor" d="M24.576,55.019v-8.261h1.337l3.895,6.806v-6.806h0.826v8.261h-1.006l-4.225-7.36v7.36H24.576z"/>
			<path class="secondarycolor" d="M36.317,55.019c-0.047-0.171-0.083-0.353-0.105-0.547c-0.024-0.195-0.036-0.397-0.036-0.611
				c-0.212,0.411-0.502,0.731-0.868,0.957c-0.366,0.225-0.78,0.338-1.24,0.338c-0.615,0-1.119-0.174-1.507-0.522
				c-0.39-0.347-0.584-0.792-0.584-1.332c0-0.692,0.309-1.213,0.926-1.562c0.617-0.351,1.533-0.524,2.745-0.524
				c0.143,0,0.251,0,0.325,0.002c0.074,0.003,0.139,0.005,0.198,0.009l0.005-0.388c0-0.46-0.125-0.802-0.376-1.026
				c-0.252-0.224-0.635-0.335-1.149-0.335c-0.468,0-0.836,0.086-1.103,0.256c-0.267,0.173-0.439,0.438-0.521,0.794l-0.878-0.133
				c0.128-0.549,0.416-0.962,0.862-1.239c0.445-0.277,1.044-0.418,1.797-0.418c0.787,0,1.362,0.193,1.722,0.579
				c0.36,0.385,0.541,0.996,0.541,1.834v2.617c0,0.272,0.014,0.507,0.042,0.705c0.026,0.198,0.07,0.379,0.129,0.547H36.317z
				 M36.176,51.931c-0.089-0.01-0.182-0.02-0.281-0.021c-0.099-0.004-0.244-0.006-0.433-0.006c-0.817,0-1.436,0.118-1.856,0.353
				c-0.42,0.237-0.63,0.58-0.63,1.037c0,0.339,0.114,0.608,0.343,0.807c0.228,0.2,0.538,0.299,0.93,0.299
				c0.534,0,0.989-0.209,1.364-0.628c0.375-0.419,0.563-0.925,0.563-1.521V51.931z"/>
			<path class="secondarycolor" d="M38.872,52.746v-3.184h-1.067v-0.671h1.067v-1.457l0.912-0.092v1.549h1.445v0.671h-1.445v3.207
				c0,0.68,0.073,1.121,0.22,1.323c0.147,0.205,0.418,0.306,0.814,0.306c0.128,0,0.242-0.007,0.343-0.02
				c0.102-0.013,0.198-0.028,0.292-0.05v0.76c-0.132,0.032-0.261,0.056-0.39,0.073c-0.126,0.02-0.25,0.027-0.371,0.027
				c-0.371,0-0.683-0.06-0.937-0.179c-0.253-0.117-0.464-0.3-0.635-0.548c-0.089-0.134-0.154-0.306-0.192-0.519
				S38.872,53.332,38.872,52.746z"/>
			<path class="secondarycolor" d="M42.313,47.652v-0.895h0.912v0.895H42.313z M42.313,55.019v-6.127h0.912v6.127H42.313z"/>
			<path class="secondarycolor" d="M47.202,55.189c-0.82,0-1.48-0.296-1.981-0.886c-0.501-0.592-0.751-1.372-0.751-2.341
				c0-0.977,0.25-1.76,0.751-2.346c0.501-0.588,1.162-0.881,1.981-0.881c0.828,0,1.494,0.295,2,0.885
				c0.504,0.59,0.757,1.37,0.757,2.342c0,0.969-0.253,1.749-0.761,2.341C48.691,54.894,48.026,55.189,47.202,55.189z M47.2,54.433
				c0.535,0,0.961-0.224,1.281-0.671c0.32-0.445,0.48-1.045,0.48-1.799c0-0.765-0.159-1.368-0.477-1.809
				c-0.318-0.441-0.747-0.66-1.284-0.66c-0.546,0-0.974,0.219-1.285,0.658c-0.31,0.438-0.465,1.04-0.465,1.811
				c0,0.762,0.157,1.361,0.471,1.806C46.235,54.211,46.661,54.433,47.2,54.433z"/>
			<path class="secondarycolor" d="M51.18,55.019v-6.127h0.837v1.138c0.248-0.441,0.534-0.766,0.857-0.977
				c0.324-0.211,0.696-0.316,1.119-0.316c0.651,0,1.146,0.205,1.482,0.613c0.337,0.407,0.506,1.007,0.506,1.796v3.873h-0.878v-3.954
				c0-0.501-0.109-0.889-0.329-1.161c-0.219-0.274-0.531-0.409-0.936-0.409c-0.504,0-0.925,0.202-1.261,0.606
				c-0.335,0.406-0.502,0.916-0.502,1.533v3.385H51.18z"/>
			<path class="secondarycolor" d="M57.794,48.015v-1.257h1.222v1.114l-0.816,1.587H57.69l0.688-1.444H57.794z"/>
			<path class="secondarycolor" d="M60.036,53.43l0.826-0.167c0.124,0.367,0.338,0.656,0.641,0.86c0.304,0.206,0.668,0.31,1.094,0.31
				c0.413,0,0.747-0.096,1-0.288c0.253-0.191,0.38-0.442,0.38-0.752c0-0.45-0.483-0.79-1.449-1.019
				c-0.136-0.029-0.24-0.056-0.314-0.075c-0.74-0.178-1.251-0.396-1.533-0.654c-0.28-0.256-0.421-0.617-0.421-1.081
				c0-0.534,0.204-0.971,0.61-1.313c0.408-0.345,0.935-0.515,1.581-0.515c0.565,0,1.039,0.131,1.418,0.396
				c0.38,0.265,0.646,0.647,0.795,1.145l-0.843,0.181c-0.094-0.319-0.259-0.558-0.499-0.721c-0.239-0.161-0.542-0.243-0.908-0.243
				c-0.385,0-0.688,0.086-0.911,0.258c-0.222,0.173-0.333,0.406-0.333,0.706c0,0.423,0.447,0.737,1.338,0.938
				c0.228,0.056,0.405,0.097,0.529,0.129c0.671,0.168,1.153,0.387,1.446,0.665c0.292,0.274,0.439,0.639,0.439,1.088
				c0,0.56-0.217,1.019-0.65,1.377c-0.434,0.356-0.995,0.535-1.684,0.535c-0.665,0-1.222-0.154-1.669-0.462
				C60.474,54.42,60.179,53.988,60.036,53.43z"/>
			<path class="secondarycolor" d="M69.682,55.019v-8.261h1.016v7.348h3.769v0.913H69.682z"/>
			<path class="secondarycolor" d="M80.014,53.379c-0.213,0.588-0.542,1.036-0.989,1.346c-0.448,0.311-0.99,0.465-1.624,0.465
				c-0.834,0-1.498-0.292-1.995-0.878c-0.496-0.584-0.743-1.367-0.743-2.349c0-0.966,0.252-1.744,0.755-2.338
				c0.504-0.592,1.165-0.889,1.982-0.889c0.828,0,1.485,0.282,1.971,0.85c0.486,0.566,0.729,1.334,0.729,2.302v0.136h-4.452v0.035
				c0,0.734,0.162,1.312,0.486,1.729c0.325,0.419,0.771,0.627,1.336,0.627c0.381,0,0.719-0.104,1.011-0.31
				c0.292-0.206,0.516-0.499,0.674-0.877L80.014,53.379z M75.661,51.353h3.459c-0.027-0.583-0.188-1.039-0.481-1.366
				c-0.292-0.329-0.69-0.492-1.189-0.492c-0.501,0-0.905,0.158-1.212,0.478C75.931,50.289,75.738,50.75,75.661,51.353z"/>
			<path class="secondarycolor" d="M85.242,55.019c-0.046-0.171-0.083-0.353-0.105-0.547c-0.022-0.195-0.035-0.397-0.035-0.611
				c-0.213,0.411-0.501,0.731-0.867,0.957c-0.367,0.225-0.781,0.338-1.241,0.338c-0.615,0-1.119-0.174-1.506-0.522
				c-0.389-0.347-0.584-0.792-0.584-1.332c0-0.692,0.31-1.213,0.927-1.562c0.617-0.351,1.532-0.524,2.745-0.524
				c0.142,0,0.251,0,0.325,0.002c0.073,0.003,0.139,0.005,0.198,0.009l0.004-0.388c0-0.46-0.125-0.802-0.376-1.026
				c-0.252-0.224-0.635-0.335-1.149-0.335c-0.466,0-0.834,0.086-1.101,0.256c-0.267,0.173-0.441,0.438-0.523,0.794l-0.878-0.133
				c0.129-0.549,0.416-0.962,0.862-1.239s1.044-0.418,1.797-0.418c0.787,0,1.362,0.193,1.723,0.579
				c0.359,0.385,0.541,0.996,0.541,1.834v2.617c0,0.272,0.015,0.507,0.042,0.705s0.072,0.379,0.13,0.547H85.242z M85.101,51.931
				c-0.088-0.01-0.183-0.02-0.282-0.021c-0.099-0.004-0.243-0.006-0.432-0.006c-0.817,0-1.436,0.118-1.856,0.353
				c-0.419,0.237-0.63,0.58-0.63,1.037c0,0.339,0.114,0.608,0.343,0.807c0.229,0.2,0.539,0.299,0.931,0.299
				c0.533,0,0.989-0.209,1.364-0.628c0.376-0.419,0.563-0.925,0.563-1.521V51.931z"/>
			<path class="secondarycolor" d="M92.184,46.758v8.261h-0.819V53.8c-0.206,0.441-0.469,0.777-0.792,1.007
				c-0.323,0.233-0.69,0.349-1.099,0.349c-0.685,0-1.248-0.295-1.688-0.884c-0.441-0.587-0.66-1.349-0.66-2.282
				c0-0.959,0.223-1.741,0.675-2.339c0.45-0.598,1.027-0.896,1.732-0.896c0.37,0,0.707,0.092,1.009,0.279
				c0.301,0.188,0.557,0.461,0.766,0.819v-3.095H92.184z M91.307,51.449c0-0.586-0.146-1.048-0.436-1.39
				c-0.29-0.344-0.681-0.515-1.171-0.515c-0.484,0-0.867,0.216-1.151,0.648c-0.284,0.43-0.426,1.019-0.426,1.768
				c0,0.742,0.142,1.325,0.426,1.749c0.284,0.424,0.671,0.637,1.162,0.637c0.457,0,0.837-0.183,1.14-0.549
				c0.304-0.366,0.456-0.836,0.456-1.412V51.449z"/>
			<path class="secondarycolor" d="M93.875,47.652v-0.895h0.913v0.895H93.875z M93.875,55.019v-6.127h0.913v6.127H93.875z"/>
			<path class="secondarycolor" d="M96.461,55.019v-6.127h0.836v1.138c0.249-0.441,0.534-0.766,0.858-0.977
				c0.323-0.211,0.697-0.316,1.119-0.316c0.652,0,1.145,0.205,1.482,0.613c0.338,0.407,0.505,1.007,0.505,1.796v3.873h-0.877v-3.954
				c0-0.501-0.11-0.889-0.329-1.161c-0.22-0.274-0.531-0.409-0.934-0.409c-0.505,0-0.926,0.202-1.263,0.606
				c-0.335,0.406-0.503,0.916-0.503,1.533v3.385H96.461z"/>
			<path class="secondarycolor" d="M103.59,52.442c-0.27-0.185-0.474-0.408-0.613-0.668c-0.14-0.261-0.211-0.551-0.211-0.874
				c0-0.604,0.215-1.112,0.646-1.519c0.429-0.407,0.968-0.61,1.615-0.61c0.239,0,0.467,0.027,0.684,0.082
				c0.218,0.053,0.429,0.137,0.635,0.249c0.055-0.347,0.192-0.609,0.411-0.788c0.22-0.178,0.519-0.267,0.897-0.267
				c0.065,0,0.178,0.007,0.337,0.018c0.02,0.004,0.035,0.007,0.041,0.007v0.682h-0.312c-0.266,0-0.476,0.059-0.628,0.176
				c-0.152,0.117-0.247,0.294-0.286,0.529c0.184,0.229,0.319,0.46,0.407,0.695c0.088,0.234,0.131,0.476,0.131,0.723
				c0,0.609-0.211,1.1-0.635,1.47c-0.426,0.37-0.989,0.555-1.694,0.555c-0.167,0-0.325-0.013-0.474-0.039
				c-0.149-0.023-0.292-0.062-0.433-0.112c-0.202,0.059-0.356,0.136-0.461,0.235c-0.104,0.096-0.158,0.211-0.158,0.342
				c0,0.195,0.067,0.348,0.202,0.458c0.133,0.109,0.327,0.172,0.581,0.184l1.858,0.092c0.667,0.035,1.173,0.181,1.52,0.437
				c0.348,0.257,0.52,0.615,0.52,1.078c0,0.553-0.263,0.979-0.791,1.279c-0.528,0.302-1.276,0.452-2.25,0.452
				c-0.911,0-1.613-0.141-2.104-0.417c-0.493-0.278-0.74-0.672-0.74-1.18c0-0.301,0.088-0.559,0.267-0.775
				c0.176-0.218,0.426-0.372,0.748-0.465c-0.224-0.111-0.388-0.248-0.495-0.407c-0.105-0.156-0.159-0.347-0.159-0.565
				c0-0.243,0.077-0.451,0.234-0.626C103.034,52.699,103.271,52.555,103.59,52.442z M103.824,54.742
				c-0.222,0.105-0.38,0.224-0.479,0.359c-0.1,0.133-0.148,0.297-0.148,0.489c0,0.345,0.172,0.604,0.516,0.773
				c0.342,0.168,0.86,0.254,1.555,0.254c0.652,0,1.146-0.081,1.485-0.245c0.337-0.163,0.505-0.404,0.505-0.718
				c0-0.263-0.107-0.454-0.323-0.579c-0.218-0.125-0.576-0.202-1.078-0.229L103.824,54.742z M105.061,49.477
				c-0.407,0-0.736,0.127-0.987,0.381c-0.252,0.254-0.378,0.587-0.378,0.998c0,0.415,0.124,0.748,0.375,0.998
				c0.25,0.252,0.58,0.377,0.991,0.377c0.415,0,0.747-0.125,0.996-0.377c0.249-0.25,0.375-0.583,0.375-0.998
				c0-0.411-0.125-0.744-0.376-0.998S105.471,49.477,105.061,49.477z"/>
			<path class="secondarycolor" d="M112.361,46.758h1.017v5.246c0,0.799,0.146,1.383,0.44,1.753c0.294,0.37,0.757,0.555,1.388,0.555
				c0.662,0,1.145-0.183,1.449-0.548c0.304-0.367,0.456-0.953,0.456-1.76v-5.246h0.843v5.246c0,1.081-0.232,1.881-0.694,2.403
				c-0.465,0.522-1.177,0.782-2.137,0.782c-0.946,0-1.643-0.257-2.09-0.774c-0.448-0.516-0.672-1.32-0.672-2.411V46.758z"/>
			<path class="secondarycolor" d="M119.712,55.019v-6.127h0.837v1.138c0.247-0.441,0.533-0.766,0.857-0.977
				c0.323-0.211,0.695-0.316,1.119-0.316c0.65,0,1.145,0.205,1.482,0.613c0.338,0.407,0.506,1.007,0.506,1.796v3.873h-0.878v-3.954
				c0-0.501-0.109-0.889-0.329-1.161c-0.22-0.274-0.531-0.409-0.937-0.409c-0.503,0-0.925,0.202-1.26,0.606
				c-0.336,0.406-0.503,0.916-0.503,1.533v3.385H119.712z"/>
			<path class="secondarycolor" d="M126.138,47.652v-0.895h0.911v0.895H126.138z M126.138,55.019v-6.127h0.911v6.127H126.138z"/>
			<path class="secondarycolor" d="M129.897,55.019l-2.069-6.127h0.9l1.739,5.229l1.737-5.229h0.837l-2.144,6.127H129.897z"/>
			<path class="secondarycolor" d="M138.629,53.379c-0.213,0.588-0.544,1.036-0.991,1.346c-0.448,0.311-0.987,0.465-1.623,0.465
				c-0.834,0-1.498-0.292-1.993-0.878c-0.496-0.584-0.745-1.367-0.745-2.349c0-0.966,0.252-1.744,0.755-2.338
				c0.504-0.592,1.164-0.889,1.982-0.889c0.829,0,1.485,0.282,1.972,0.85c0.486,0.566,0.729,1.334,0.729,2.302v0.136h-4.451v0.035
				c0,0.734,0.161,1.312,0.486,1.729c0.324,0.419,0.771,0.627,1.336,0.627c0.381,0,0.718-0.104,1.011-0.31s0.517-0.499,0.672-0.877
				L138.629,53.379z M134.274,51.353h3.459c-0.026-0.583-0.188-1.039-0.479-1.366c-0.292-0.329-0.69-0.492-1.191-0.492
				c-0.5,0-0.903,0.158-1.211,0.478C134.546,50.289,134.353,50.75,134.274,51.353z"/>
			<path class="secondarycolor" d="M139.93,55.019v-6.127h0.865v1.368c0.188-0.521,0.426-0.907,0.717-1.162
				c0.292-0.252,0.647-0.378,1.064-0.378c0.066,0,0.165,0.006,0.297,0.017c0.015,0.005,0.025,0.005,0.034,0.005v0.907h-0.15
				c-0.588,0-1.054,0.206-1.398,0.617s-0.516,0.971-0.516,1.676v3.077H139.93z"/>
			<path class="secondarycolor" d="M143.027,53.43l0.826-0.167c0.124,0.367,0.338,0.656,0.642,0.86c0.303,0.206,0.668,0.31,1.094,0.31
				c0.414,0,0.747-0.096,1.001-0.288c0.252-0.191,0.379-0.442,0.379-0.752c0-0.45-0.481-0.79-1.447-1.019
				c-0.137-0.029-0.241-0.056-0.315-0.075c-0.74-0.178-1.252-0.396-1.533-0.654c-0.28-0.256-0.422-0.617-0.422-1.081
				c0-0.534,0.205-0.971,0.611-1.313c0.407-0.345,0.934-0.515,1.581-0.515c0.565,0,1.038,0.131,1.418,0.396
				c0.38,0.265,0.645,0.647,0.796,1.145l-0.843,0.181c-0.094-0.319-0.26-0.558-0.5-0.721c-0.238-0.161-0.542-0.243-0.908-0.243
				c-0.385,0-0.688,0.086-0.909,0.258c-0.222,0.173-0.333,0.406-0.333,0.706c0,0.423,0.445,0.737,1.338,0.938
				c0.228,0.056,0.404,0.097,0.528,0.129c0.671,0.168,1.153,0.387,1.446,0.665c0.292,0.274,0.438,0.639,0.438,1.088
				c0,0.56-0.216,1.019-0.649,1.377c-0.435,0.356-0.994,0.535-1.684,0.535c-0.666,0-1.222-0.154-1.669-0.462
				C143.467,54.42,143.172,53.988,143.027,53.43z"/>
			<path class="secondarycolor" d="M149.034,47.652v-0.895h0.911v0.895H149.034z M149.034,55.019v-6.127h0.911v6.127H149.034z"/>
			<path class="secondarycolor" d="M151.877,52.746v-3.184h-1.066v-0.671h1.066v-1.457l0.912-0.092v1.549h1.446v0.671h-1.446v3.207
				c0,0.68,0.073,1.121,0.222,1.323c0.146,0.205,0.418,0.306,0.813,0.306c0.129,0,0.243-0.007,0.345-0.02
				c0.101-0.013,0.197-0.028,0.29-0.05v0.76c-0.132,0.032-0.261,0.056-0.39,0.073c-0.127,0.02-0.25,0.027-0.37,0.027
				c-0.372,0-0.685-0.06-0.938-0.179c-0.252-0.117-0.465-0.3-0.634-0.548c-0.09-0.134-0.152-0.306-0.191-0.519
				S151.877,53.332,151.877,52.746z"/>
			<path class="secondarycolor" d="M155.319,47.652v-0.895h0.911v0.895H155.319z M155.319,55.019v-6.127h0.911v6.127H155.319z"/>
			<path class="secondarycolor" d="M162.826,53.379c-0.213,0.588-0.544,1.036-0.991,1.346c-0.448,0.311-0.987,0.465-1.623,0.465
				c-0.834,0-1.497-0.292-1.993-0.878c-0.496-0.584-0.744-1.367-0.744-2.349c0-0.966,0.252-1.744,0.755-2.338
				c0.503-0.592,1.164-0.889,1.981-0.889c0.83,0,1.485,0.282,1.973,0.85c0.486,0.566,0.729,1.334,0.729,2.302v0.136h-4.45v0.035
				c0,0.734,0.161,1.312,0.485,1.729c0.324,0.419,0.771,0.627,1.336,0.627c0.381,0,0.718-0.104,1.012-0.31
				c0.292-0.206,0.517-0.499,0.671-0.877L162.826,53.379z M158.473,51.353h3.459c-0.027-0.583-0.187-1.039-0.48-1.366
				c-0.292-0.329-0.689-0.492-1.191-0.492c-0.5,0-0.903,0.158-1.211,0.478C158.743,50.289,158.55,50.75,158.473,51.353z"/>
			<path class="secondarycolor" d="M163.56,53.43l0.826-0.167c0.124,0.367,0.338,0.656,0.641,0.86c0.304,0.206,0.669,0.31,1.094,0.31
				c0.414,0,0.748-0.096,0.999-0.288c0.255-0.191,0.382-0.442,0.382-0.752c0-0.45-0.483-0.79-1.448-1.019
				c-0.136-0.029-0.24-0.056-0.313-0.075c-0.742-0.178-1.252-0.396-1.534-0.654c-0.281-0.256-0.422-0.617-0.422-1.081
				c0-0.534,0.204-0.971,0.611-1.313c0.406-0.345,0.934-0.515,1.58-0.515c0.566,0,1.038,0.131,1.419,0.396
				c0.378,0.265,0.645,0.647,0.795,1.145l-0.843,0.181c-0.093-0.319-0.26-0.558-0.499-0.721c-0.239-0.161-0.542-0.243-0.907-0.243
				c-0.386,0-0.689,0.086-0.911,0.258c-0.222,0.173-0.333,0.406-0.333,0.706c0,0.423,0.445,0.737,1.338,0.938
				c0.228,0.056,0.404,0.097,0.529,0.129c0.672,0.168,1.153,0.387,1.445,0.665c0.293,0.274,0.439,0.639,0.439,1.088
				c0,0.56-0.218,1.019-0.65,1.377c-0.434,0.356-0.994,0.535-1.684,0.535c-0.665,0-1.222-0.154-1.668-0.462
				C163.998,54.42,163.703,53.988,163.56,53.43z"/>
			<path class="secondarycolor" d="M176.094,55.173c-1.015,0-1.832-0.394-2.454-1.177c-0.622-0.785-0.933-1.828-0.933-3.125
				c0-1.295,0.311-2.333,0.933-3.115c0.622-0.781,1.439-1.17,2.454-1.17c1.021,0,1.84,0.389,2.461,1.17
				c0.622,0.782,0.933,1.82,0.933,3.115c0,1.297-0.311,2.34-0.933,3.125C177.934,54.779,177.114,55.173,176.094,55.173z
				 M176.092,54.312c0.71,0,1.27-0.304,1.681-0.917c0.408-0.613,0.614-1.455,0.614-2.523c0-1.067-0.206-1.906-0.617-2.521
				c-0.412-0.613-0.973-0.921-1.678-0.921c-0.711,0-1.271,0.308-1.685,0.921c-0.41,0.615-0.616,1.454-0.616,2.521
				c0,1.068,0.206,1.91,0.616,2.523C174.82,54.008,175.381,54.312,176.092,54.312z"/>
			<path class="secondarycolor" d="M180.749,55.019v-6.127h0.837v1.138c0.248-0.441,0.534-0.766,0.857-0.977s0.695-0.316,1.119-0.316
				c0.649,0,1.146,0.205,1.482,0.613c0.337,0.407,0.506,1.007,0.506,1.796v3.873h-0.878v-3.954c0-0.501-0.109-0.889-0.329-1.161
				c-0.22-0.274-0.531-0.409-0.937-0.409c-0.503,0-0.925,0.202-1.26,0.606c-0.335,0.406-0.504,0.916-0.504,1.533v3.385H180.749z"/>
			<path class="secondarycolor" d="M187.175,55.019v-8.261h0.911v8.261H187.175z"/>
			<path class="secondarycolor" d="M189.794,47.652v-0.895h0.913v0.895H189.794z M189.794,55.019v-6.127h0.913v6.127H189.794z"/>
			<path class="secondarycolor" d="M192.38,55.019v-6.127h0.837v1.138c0.247-0.441,0.533-0.766,0.858-0.977
				c0.322-0.211,0.695-0.316,1.118-0.316c0.65,0,1.145,0.205,1.482,0.613c0.338,0.407,0.506,1.007,0.506,1.796v3.873h-0.878v-3.954
				c0-0.501-0.109-0.889-0.329-1.161c-0.22-0.274-0.531-0.409-0.936-0.409c-0.504,0-0.925,0.202-1.261,0.606
				c-0.336,0.406-0.503,0.916-0.503,1.533v3.385H192.38z"/>
			<path class="secondarycolor" d="M203.692,53.379c-0.212,0.588-0.544,1.036-0.991,1.346c-0.447,0.311-0.988,0.465-1.624,0.465
				c-0.833,0-1.497-0.292-1.992-0.878c-0.497-0.584-0.744-1.367-0.744-2.349c0-0.966,0.252-1.744,0.755-2.338
				c0.504-0.592,1.164-0.889,1.981-0.889c0.828,0,1.486,0.282,1.973,0.85c0.485,0.566,0.729,1.334,0.729,2.302v0.136h-4.45v0.035
				c0,0.734,0.161,1.312,0.486,1.729c0.322,0.419,0.769,0.627,1.336,0.627c0.381,0,0.716-0.104,1.01-0.31s0.518-0.499,0.672-0.877
				L203.692,53.379z M199.339,51.353h3.459c-0.028-0.583-0.188-1.039-0.479-1.366c-0.295-0.329-0.691-0.492-1.192-0.492
				c-0.5,0-0.904,0.158-1.211,0.478C199.607,50.289,199.417,50.75,199.339,51.353z"/>
		</g>
	</g>
	<path class="secondarycolor" d="M210.602,16.512c0.376,0,0.731,0.07,1.068,0.209s0.638,0.341,0.903,0.608
		c0.255,0.256,0.451,0.552,0.589,0.887c0.138,0.334,0.205,0.689,0.205,1.063c0,0.379-0.067,0.734-0.205,1.065
		c-0.138,0.332-0.336,0.624-0.596,0.876c-0.273,0.266-0.579,0.47-0.917,0.612s-0.688,0.213-1.048,0.213
		c-0.364,0-0.713-0.071-1.049-0.211c-0.334-0.141-0.636-0.345-0.901-0.614c-0.263-0.261-0.463-0.558-0.601-0.892
		c-0.139-0.333-0.208-0.684-0.208-1.05c0-0.37,0.073-0.722,0.214-1.061c0.145-0.339,0.349-0.643,0.617-0.911
		c0.255-0.259,0.545-0.456,0.874-0.591C209.877,16.58,210.228,16.512,210.602,16.512z M213.032,19.298
		c0-0.333-0.061-0.648-0.18-0.946c-0.121-0.297-0.293-0.561-0.519-0.789c-0.235-0.233-0.5-0.411-0.793-0.532
		c-0.294-0.122-0.608-0.183-0.943-0.183c-0.33,0-0.639,0.059-0.926,0.178c-0.287,0.117-0.543,0.289-0.765,0.515
		c-0.236,0.239-0.415,0.506-0.542,0.805c-0.124,0.299-0.187,0.611-0.187,0.938c0,0.318,0.061,0.625,0.184,0.917
		c0.123,0.295,0.3,0.559,0.529,0.795c0.227,0.231,0.487,0.408,0.78,0.53c0.292,0.123,0.599,0.185,0.919,0.185
		c0.327,0,0.64-0.062,0.935-0.183c0.297-0.122,0.563-0.299,0.802-0.532c0.227-0.226,0.401-0.485,0.522-0.775
		C212.971,19.93,213.032,19.622,213.032,19.298z M210.677,17.658c0.447,0,0.779,0.071,0.997,0.214
		c0.217,0.143,0.325,0.362,0.325,0.656c0,0.224-0.066,0.41-0.199,0.561c-0.133,0.148-0.315,0.243-0.544,0.284l0.71,1.443h-0.593
		l-0.662-1.368h-0.674v1.368h-0.533v-3.158H210.677z M210.579,18.002h-0.542v1.101h0.558c0.309,0,0.528-0.042,0.658-0.125
		c0.13-0.084,0.196-0.219,0.196-0.409c0-0.2-0.068-0.344-0.206-0.435C211.106,18.046,210.885,18.002,210.579,18.002z"/>
</g>
</svg>
