<?xml version="1.0" encoding="iso-8859-1"?>
<svg version="1.2" baseProfile="tiny" class="logocolor uf" xmlns="http://www.w3.org/2000/svg" xmlns:xlink="http://www.w3.org/1999/xlink" viewBox="0 0 215 70" xml:space="preserve">
<g>
	<polygon class="secondarycolor" points="50.431,18.188 50.431,48.563 51.822,48.563 51.822,18.188 50.431,18.188 	"/>
	<g>
		<polygon class="primarycolor" points="32.903,43.095 32.903,35.427 39.97,35.427 39.97,30.372 32.903,30.372 32.903,23.21 40.661,23.21 
			40.661,25.988 45.777,25.988 45.777,18.196 25.291,18.196 25.291,23.21 27.21,23.21 27.21,43.095 25.299,43.095 25.299,48.149 
			34.754,48.149 34.754,43.095 32.903,43.095 		"/>
		<path class="primarycolor" d="M22.626,36.828v-13.62h1.894v-5.012h-9.477v5.012h1.848v11.927c0,4.998-0.578,7.4-4.168,7.4
			s-4.167-2.402-4.167-7.4V23.208h1.834v-5.012H0.898v5.012h1.881v13.62c0,2.975,0,5.413,1.403,7.604
			c1.567,2.479,4.414,4.054,8.54,4.054C20.026,48.485,22.626,44.68,22.626,36.828L22.626,36.828z"/>
	</g>
	<path class="primarycolor" d="M56.418,40.063v-0.52l2.039,0.046l0.848-0.017l0.847-0.022l0.231-0.007v0.52
		c-0.451,0-0.736,0.038-0.858,0.118c-0.063,0.038-0.104,0.111-0.125,0.219c-0.061,0.261-0.091,0.831-0.091,1.713v1.455l0.005,0.732
		c0,0.766,0.007,1.238,0.021,1.418c0.038,0.393,0.136,0.71,0.295,0.948c0.158,0.242,0.403,0.436,0.73,0.584
		c0.328,0.148,0.746,0.223,1.252,0.223c0.581,0,1.043-0.1,1.389-0.298c0.344-0.198,0.59-0.455,0.736-0.775
		c0.146-0.316,0.22-0.92,0.22-1.811V43.31c0-1.103-0.003-1.775-0.009-2.019c-0.013-0.526-0.043-0.845-0.089-0.953
		c-0.029-0.067-0.076-0.117-0.143-0.15c-0.138-0.071-0.438-0.113-0.899-0.125v-0.52c0.756,0.029,1.206,0.046,1.348,0.046
		c0.037,0,0.094-0.003,0.169-0.007l1.392-0.039v0.52c-0.389,0-0.633,0.03-0.732,0.093c-0.051,0.034-0.092,0.099-0.124,0.192
		c-0.03,0.094-0.061,0.517-0.092,1.269c-0.031,0.753-0.046,1.346-0.046,1.78v1.474c0,0.376-0.026,0.764-0.081,1.165
		s-0.164,0.744-0.329,1.028c-0.165,0.285-0.397,0.541-0.698,0.771s-0.658,0.403-1.071,0.521c-0.413,0.116-0.892,0.176-1.435,0.176
		c-0.635,0-1.227-0.087-1.778-0.258c-0.401-0.126-0.729-0.294-0.984-0.505c-0.254-0.211-0.449-0.447-0.581-0.708
		c-0.135-0.262-0.217-0.512-0.245-0.756c-0.021-0.15-0.03-0.556-0.03-1.215l0.005-1.204v-1.592c0-0.586-0.009-1.112-0.027-1.58
		c-0.013-0.184-0.038-0.317-0.076-0.4c-0.021-0.047-0.073-0.101-0.157-0.165L56.418,40.063z"/>
	<path class="primarycolor" d="M66.547,47.783c0.496-0.024,0.782-0.048,0.854-0.069c0.046-0.018,0.085-0.044,0.116-0.081
		c0.032-0.039,0.058-0.116,0.079-0.232c0.024-0.159,0.052-0.544,0.085-1.152c0.018-0.348,0.023-0.799,0.023-1.355v-2.014
		l-0.027-1.823c-0.003-0.305-0.016-0.503-0.036-0.595c-0.021-0.093-0.052-0.161-0.091-0.205c-0.041-0.043-0.107-0.078-0.198-0.104
		c-0.093-0.025-0.36-0.052-0.805-0.081v-0.528c0.532,0.029,0.923,0.046,1.173,0.046l0.911-0.023l0.578-0.022
		c0.859,1.124,1.9,2.419,3.124,3.886c0.88,1.058,1.611,1.885,2.189,2.482v-1.448c0-2.247-0.024-3.568-0.075-3.965
		c-0.016-0.155-0.053-0.256-0.111-0.301c-0.097-0.075-0.423-0.118-0.978-0.126v-0.528c0.51,0.029,0.978,0.046,1.403,0.046
		c0.415,0,0.95-0.017,1.603-0.046v0.528c-0.51,0.012-0.815,0.051-0.911,0.112c-0.034,0.021-0.058,0.052-0.069,0.095
		c-0.063,0.208-0.104,0.687-0.123,1.432c-0.018,0.746-0.026,1.297-0.026,1.651c0,2.779,0.026,4.465,0.082,5.058l-0.081,0.058
		c-0.353-0.06-0.71-0.114-1.074-0.164c-1.35-1.51-3.262-3.774-5.736-6.796v3.124c0,0.647,0.016,1.323,0.045,2.025
		c0.018,0.486,0.043,0.78,0.076,0.885c0.017,0.05,0.045,0.092,0.085,0.122c0.04,0.031,0.109,0.054,0.21,0.066
		c0.271,0.032,0.471,0.05,0.596,0.05c0.025,0,0.065-0.002,0.125-0.006v0.501c-0.795-0.012-1.246-0.018-1.355-0.018
		c-0.408,0-0.961,0.015-1.659,0.046V47.783z"/>
	<path class="primarycolor" d="M81.333,39.543v0.556c-0.425,0.012-0.678,0.028-0.757,0.047c-0.08,0.019-0.136,0.042-0.169,0.068
		c-0.034,0.027-0.057,0.062-0.069,0.104c-0.03,0.07-0.052,0.205-0.063,0.406c-0.009,0.107-0.016,0.313-0.02,0.614
		c-0.018,1.025-0.025,1.579-0.025,1.659v2.522l0.018,1.146c0,0.43,0.021,0.709,0.063,0.839c0.018,0.059,0.045,0.103,0.086,0.135
		c0.039,0.032,0.103,0.057,0.189,0.075c0.085,0.019,0.335,0.032,0.748,0.041v0.557c-0.684-0.031-1.411-0.046-2.184-0.046
		c-0.675,0-1.274,0.015-1.801,0.046v-0.557c0.434-0.017,0.684-0.032,0.751-0.044c0.088-0.018,0.147-0.04,0.178-0.069
		c0.032-0.029,0.052-0.063,0.061-0.101c0.012-0.05,0.028-0.247,0.05-0.588c0.037-0.502,0.055-0.965,0.055-1.391v-2.615
		c0-0.832-0.003-1.366-0.009-1.604c-0.021-0.529-0.047-0.861-0.076-0.995c-0.013-0.054-0.033-0.096-0.061-0.124
		c-0.027-0.03-0.078-0.054-0.15-0.073c-0.074-0.019-0.34-0.037-0.798-0.053v-0.556c0.526,0.029,1.131,0.046,1.812,0.046
		C79.926,39.589,80.649,39.572,81.333,39.543z"/>
	<path class="primarycolor" d="M86.391,48.357c-0.354-0.878-0.695-1.709-1.02-2.498l-0.891-2.123c-0.697-1.666-1.126-2.657-1.286-2.978
		c-0.161-0.319-0.282-0.502-0.367-0.548c-0.125-0.066-0.384-0.104-0.776-0.112v-0.556c1.002,0.029,1.613,0.046,1.829,0.046
		l2.249-0.046v0.556c-0.351,0.004-0.605,0.025-0.764,0.062c-0.093,0.021-0.156,0.053-0.19,0.091
		c-0.037,0.04-0.055,0.092-0.055,0.153c0,0.126,0.139,0.521,0.414,1.189c0.158,0.386,0.243,0.593,0.254,0.624
		c0.01,0.031,0.023,0.069,0.041,0.117l1.583,3.867l1.395-3.448c0.032-0.08,0.182-0.474,0.444-1.185
		c0.188-0.501,0.304-0.837,0.345-1.008c0.009-0.05,0.014-0.101,0.014-0.15c0-0.071-0.011-0.124-0.035-0.16
		c-0.023-0.035-0.054-0.062-0.091-0.076c-0.028-0.015-0.104-0.023-0.226-0.032c-0.271-0.025-0.501-0.04-0.689-0.044v-0.556
		l1.592,0.046l1.354-0.046v0.556c-0.405,0.037-0.642,0.081-0.708,0.131c-0.112,0.089-0.349,0.562-0.709,1.422l-0.444,1.039
		l-0.846,2.017c-0.718,1.72-1.205,2.937-1.459,3.65H86.391z"/>
	<path class="primarycolor" d="M92.489,48.303v-0.34c0.254-0.115,0.46-0.236,0.62-0.362c0.025-0.175,0.046-0.46,0.062-0.853
		c0.032-0.718,0.048-1.238,0.048-1.565v-2.818c0-0.109-0.006-0.516-0.018-1.222c-0.012-0.472-0.042-0.762-0.087-0.864
		c-0.021-0.043-0.052-0.073-0.095-0.095c-0.113-0.051-0.413-0.087-0.903-0.112v-0.482l1.453-0.009c0.288,0,0.563,0,0.826,0
		c0.573,0,1.21-0.008,1.91-0.02l1.271-0.031c0.15,0,0.455,0.008,0.914,0.025c0.043,0,0.11,0.011,0.207,0.034l0.044,0.08
		l-0.119,0.902c-0.004,0.063-0.024,0.364-0.062,0.904H98.07c-0.01-0.494-0.028-0.797-0.058-0.909
		c-0.017-0.059-0.041-0.101-0.073-0.125c-0.056-0.038-0.221-0.071-0.5-0.102c-0.411-0.045-0.813-0.067-1.208-0.067
		c-0.37,0-0.748,0.015-1.133,0.046c-0.063,0.475-0.092,1.08-0.092,1.813v1.295c0.282,0.019,0.577,0.027,0.887,0.027
		c0.096,0,0.44-0.009,1.036-0.024c0.226-0.005,0.356-0.02,0.396-0.045c0.039-0.025,0.069-0.068,0.091-0.131
		c0.048-0.158,0.078-0.423,0.087-0.793h0.512l-0.028,1.374l0.028,1.37h-0.512c0.004-0.486-0.028-0.785-0.096-0.896
		c-0.05-0.085-0.141-0.137-0.271-0.158c-0.292-0.046-0.664-0.067-1.12-0.067c-0.409,0-0.746,0.015-1.011,0.045v2.625
		c0,0.295,0.005,0.546,0.019,0.757c0.337,0.03,0.738,0.046,1.201,0.046c0.449,0,0.867-0.016,1.248-0.045
		c0.382-0.027,0.615-0.07,0.704-0.125c0.029-0.018,0.056-0.054,0.081-0.112c0.075-0.201,0.154-0.581,0.238-1.14h0.511
		c-0.093,0.827-0.139,1.508-0.139,2.042l-0.08,0.082c-0.269,0.028-0.648,0.045-1.142,0.045L96.64,48.28
		c-0.995-0.016-1.68-0.022-2.056-0.022C94.484,48.258,93.785,48.272,92.489,48.303z"/>
	<path class="primarycolor" d="M100.075,40.054v-0.511c0.096,0,0.431,0.009,1.004,0.029c0.28,0.011,0.678,0.017,1.191,0.017
		c0.438,0,0.816-0.011,1.13-0.03c0.519-0.022,0.947-0.034,1.286-0.034c0.655,0,1.147,0.047,1.475,0.141
		c0.326,0.095,0.604,0.289,0.834,0.586c0.229,0.297,0.345,0.658,0.345,1.084c0,0.506-0.156,0.965-0.473,1.379
		c-0.315,0.414-0.801,0.742-1.456,0.983c0.104,0.187,0.225,0.379,0.357,0.574c0.135,0.193,0.214,0.313,0.236,0.354
		c0.022,0.042,0.047,0.08,0.072,0.119l0.974,1.449c0.26,0.386,0.399,0.593,0.421,0.622c0.314,0.415,0.507,0.66,0.579,0.735
		c0.07,0.074,0.14,0.126,0.207,0.155c0.066,0.029,0.198,0.046,0.396,0.05v0.557c-0.644-0.019-1.11-0.028-1.397-0.028
		c-0.335,0-0.667,0.01-0.997,0.028c-0.021-0.093-0.071-0.213-0.15-0.358l-1.346-2.216c-0.385-0.636-0.712-1.137-0.98-1.501
		c-0.134-0.184-0.264-0.321-0.389-0.413l0.069-0.207c0.504,0.017,0.884-0.035,1.141-0.153c0.256-0.12,0.473-0.333,0.649-0.639
		c0.175-0.309,0.265-0.651,0.265-1.032c0-0.384-0.093-0.704-0.277-0.958c-0.185-0.255-0.414-0.433-0.688-0.533
		c-0.175-0.063-0.49-0.093-0.944-0.093c-0.201,0-0.4,0.016-0.599,0.05c-0.012,0.15-0.023,0.488-0.036,1.016
		c-0.023,1.184-0.036,1.972-0.036,2.369c0,0.628,0.006,1.291,0.019,1.993c0.016,0.861,0.028,1.351,0.036,1.467
		c0.012,0.234,0.035,0.387,0.068,0.458c0.017,0.032,0.045,0.063,0.082,0.091c0.037,0.026,0.098,0.049,0.183,0.065
		c0.083,0.017,0.325,0.029,0.727,0.038v0.557c-0.716-0.031-1.438-0.046-2.167-0.046c-0.652,0-1.255,0.015-1.81,0.046v-0.557
		c0.474-0.017,0.754-0.04,0.842-0.069c0.051-0.013,0.087-0.033,0.109-0.063c0.022-0.03,0.04-0.088,0.053-0.176
		c0.029-0.162,0.051-0.41,0.062-0.74l0.056-1.831v-2.328l-0.027-1.323c-0.008-0.522-0.033-0.836-0.075-0.94
		c-0.021-0.046-0.053-0.082-0.094-0.106C100.9,40.129,100.592,40.086,100.075,40.054z"/>
	<path class="primarycolor" d="M115.287,41.84h-0.528c-0.009-0.485-0.03-0.83-0.063-1.029c-0.129-0.185-0.353-0.347-0.671-0.489
		c-0.317-0.143-0.675-0.213-1.069-0.213c-0.566,0-1.004,0.143-1.314,0.428c-0.31,0.287-0.465,0.622-0.465,1.007
		c0.005,0.276,0.051,0.499,0.138,0.671c0.088,0.173,0.212,0.308,0.375,0.407c0.163,0.101,0.402,0.193,0.72,0.276
		c0.242,0.051,0.578,0.112,1.011,0.188c0.43,0.076,0.711,0.128,0.841,0.158c0.337,0.087,0.61,0.191,0.818,0.314
		c0.209,0.124,0.374,0.267,0.497,0.427c0.123,0.162,0.225,0.363,0.305,0.608c0.078,0.244,0.118,0.519,0.118,0.824
		c0,0.534-0.11,1.004-0.332,1.409c-0.167,0.306-0.397,0.584-0.694,0.837c-0.297,0.252-0.601,0.441-0.914,0.566
		c-0.502,0.201-1.103,0.302-1.804,0.302c-0.513,0-0.97-0.05-1.371-0.146c-0.4-0.097-0.841-0.261-1.32-0.495
		c0.13-0.477,0.195-1.202,0.2-2.177h0.529c-0.008,0.301,0.015,0.677,0.068,1.125c0.158,0.26,0.43,0.488,0.813,0.685
		c0.382,0.197,0.802,0.297,1.257,0.297c0.396,0,0.749-0.071,1.06-0.211c0.311-0.141,0.536-0.333,0.675-0.581
		c0.141-0.245,0.21-0.525,0.21-0.839c0-0.264-0.049-0.488-0.146-0.678c-0.099-0.188-0.252-0.338-0.46-0.451
		c-0.209-0.112-0.577-0.229-1.103-0.352c-0.757-0.158-1.254-0.273-1.49-0.344c-0.36-0.109-0.648-0.266-0.868-0.47
		c-0.219-0.205-0.383-0.453-0.491-0.743s-0.163-0.603-0.163-0.937c0-0.468,0.098-0.898,0.294-1.294
		c0.197-0.395,0.456-0.7,0.777-0.918c0.321-0.217,0.686-0.372,1.089-0.467c0.406-0.094,0.82-0.141,1.247-0.141
		c0.443,0,0.872,0.039,1.288,0.119c0.414,0.08,0.774,0.193,1.08,0.345l0.05,0.149c-0.06,0.271-0.104,0.538-0.132,0.799
		C115.32,41.069,115.299,41.414,115.287,41.84z"/>
	<path class="primarycolor" d="M121.001,39.543v0.556c-0.424,0.012-0.676,0.028-0.755,0.047c-0.08,0.019-0.137,0.042-0.17,0.068
		c-0.033,0.027-0.058,0.062-0.069,0.104c-0.03,0.07-0.051,0.205-0.063,0.406c-0.009,0.107-0.015,0.313-0.02,0.614
		c-0.018,1.025-0.026,1.579-0.026,1.659v2.522l0.018,1.146c0,0.43,0.021,0.709,0.063,0.839c0.017,0.059,0.045,0.103,0.085,0.135
		s0.103,0.057,0.189,0.075c0.086,0.019,0.335,0.032,0.747,0.041v0.557c-0.681-0.031-1.409-0.046-2.183-0.046
		c-0.674,0-1.272,0.015-1.801,0.046v-0.557c0.435-0.017,0.685-0.032,0.751-0.044c0.088-0.018,0.146-0.04,0.179-0.069
		c0.03-0.029,0.052-0.063,0.06-0.101c0.013-0.05,0.029-0.247,0.051-0.588c0.036-0.502,0.055-0.965,0.055-1.391v-2.615
		c0-0.832-0.004-1.366-0.01-1.604c-0.021-0.529-0.047-0.861-0.075-0.995c-0.013-0.054-0.033-0.096-0.061-0.124
		c-0.027-0.03-0.078-0.054-0.151-0.073c-0.074-0.019-0.339-0.037-0.798-0.053v-0.556c0.528,0.029,1.132,0.046,1.813,0.046
		C119.596,39.589,120.32,39.572,121.001,39.543z"/>
	<path class="primarycolor" d="M123.662,48.313v-0.511c0.505-0.017,0.803-0.05,0.897-0.101s0.158-0.135,0.191-0.25
		c0.047-0.181,0.069-0.722,0.069-1.625v-3.755c0-1.024-0.005-1.597-0.018-1.717h-0.898c-0.451,0-0.849,0.014-1.191,0.043
		c-0.138,0.013-0.218,0.029-0.238,0.05c-0.029,0.025-0.055,0.099-0.075,0.22c-0.055,0.291-0.087,0.618-0.095,0.981h-0.52
		c-0.017-0.857-0.025-1.34-0.03-1.448c-0.012-0.184-0.032-0.382-0.061-0.596l0.056-0.062c0.196,0.021,0.405,0.035,0.626,0.044
		c0.359,0.013,1.05,0.02,2.073,0.02h2.529c1.052,0,1.757-0.007,2.11-0.02c0.192-0.009,0.387-0.023,0.583-0.044l0.063,0.062
		c-0.037,0.256-0.06,0.479-0.067,0.671c-0.004,0.033-0.012,0.491-0.024,1.373h-0.52c-0.008-0.326-0.035-0.636-0.082-0.932
		c-0.024-0.15-0.051-0.239-0.081-0.27c-0.025-0.021-0.093-0.035-0.2-0.043c-0.343-0.034-0.756-0.05-1.236-0.05h-0.896
		c-0.014,0.146-0.02,0.718-0.02,1.717v3.755c0,0.903,0.023,1.447,0.073,1.63c0.029,0.108,0.092,0.189,0.188,0.242
		c0.096,0.051,0.396,0.087,0.897,0.104v0.511c-0.812-0.037-1.495-0.055-2.052-0.055C125.121,48.258,124.437,48.275,123.662,48.313z"
		/>
	<path class="primarycolor" d="M135.031,43.689l0.786-1.274c0.134-0.229,0.529-0.926,1.187-2.092c0.228-0.4,0.371-0.66,0.43-0.78h0.998
		v0.281c-0.508,0.68-1.053,1.481-1.64,2.4c-0.586,0.919-0.948,1.509-1.086,1.773c-0.092,0.179-0.153,0.336-0.183,0.47
		c-0.018,0.096-0.026,0.253-0.026,0.47v1.058c0,0.53,0.013,0.918,0.04,1.159c0.027,0.242,0.06,0.388,0.097,0.438
		c0.038,0.051,0.102,0.089,0.189,0.114s0.365,0.041,0.83,0.05v0.557c-0.797-0.031-1.517-0.046-2.161-0.046
		c-0.626,0-1.261,0.015-1.903,0.046v-0.557c0.479-0.017,0.757-0.036,0.84-0.057c0.081-0.021,0.138-0.053,0.169-0.094
		c0.032-0.042,0.054-0.168,0.066-0.376c0.018-0.477,0.027-0.881,0.027-1.215v-1.189c0-0.097-0.08-0.294-0.238-0.595
		c-0.394-0.718-0.813-1.425-1.259-2.123c-0.365-0.566-0.702-1.021-1.017-1.363c-0.209-0.227-0.356-0.361-0.444-0.408
		c-0.055-0.025-0.238-0.036-0.552-0.036v-0.475l1.327-0.262c0.226-0.049,0.456-0.104,0.694-0.167
		c0.254,0.143,0.439,0.269,0.558,0.379c0.116,0.11,0.276,0.317,0.481,0.622c0.305,0.451,0.606,0.971,0.907,1.559
		C134.637,42.897,134.933,43.474,135.031,43.689z"/>
	<path class="primarycolor" d="M141.856,46.534c0-0.517,0.087-1.055,0.26-1.613c0.174-0.559,0.36-0.962,0.562-1.207
		c0.124-0.154,0.348-0.357,0.667-0.609c0.319-0.253,0.67-0.461,1.053-0.627c0.382-0.164,0.788-0.245,1.218-0.245
		c0.361,0,0.688,0.053,0.984,0.161c0.297,0.11,0.521,0.25,0.67,0.423c0.151,0.173,0.262,0.381,0.332,0.622
		c0.072,0.241,0.107,0.507,0.107,0.794c0,0.547-0.091,1.092-0.272,1.637c-0.183,0.545-0.393,0.96-0.63,1.248
		c-0.171,0.199-0.439,0.423-0.805,0.666c-0.366,0.244-0.717,0.429-1.053,0.557c-0.337,0.127-0.716,0.191-1.138,0.191
		c-0.498,0-0.891-0.089-1.182-0.264c-0.29-0.176-0.49-0.416-0.604-0.723C141.914,47.238,141.856,46.902,141.856,46.534z
		 M143.333,46.486c0,0.513,0.098,0.88,0.292,1.102c0.193,0.221,0.47,0.332,0.823,0.332c0.238,0,0.444-0.058,0.618-0.173
		c0.175-0.114,0.333-0.3,0.477-0.557c0.145-0.256,0.277-0.609,0.398-1.06c0.176-0.659,0.264-1.289,0.264-1.89
		c0-0.509-0.102-0.877-0.305-1.104c-0.203-0.228-0.468-0.341-0.793-0.341c-0.334,0-0.621,0.123-0.859,0.371
		c-0.238,0.249-0.449,0.721-0.636,1.418C143.427,45.282,143.333,45.916,143.333,46.486z"/>
	<path class="primarycolor" d="M148.992,43.116l0.056-0.32c0.133-0.05,0.337-0.113,0.611-0.192c0.276-0.077,0.501-0.155,0.677-0.234
		c0.02-0.064,0.048-0.174,0.08-0.333c0.08-0.36,0.154-0.605,0.226-0.74c0.114-0.208,0.287-0.425,0.522-0.646
		c0.362-0.339,0.768-0.669,1.213-0.99c0.446-0.322,0.738-0.514,0.879-0.574c0.14-0.061,0.337-0.09,0.592-0.09
		c0.168,0,0.34,0.033,0.516,0.101c-0.166,0.563-0.284,1.093-0.355,1.593l-0.188,0.038c-0.176-0.263-0.348-0.448-0.514-0.558
		c-0.167-0.108-0.319-0.162-0.452-0.162c-0.105,0-0.205,0.028-0.301,0.087c-0.097,0.059-0.174,0.139-0.229,0.239
		c-0.057,0.1-0.113,0.255-0.173,0.465c-0.15,0.556-0.273,1.113-0.369,1.67h0.144c0.113,0.004,0.394-0.009,0.838-0.039
		c0.271-0.016,0.475-0.036,0.608-0.061l0.063,0.1c-0.088,0.226-0.152,0.442-0.194,0.647c-0.196-0.005-0.518-0.007-0.965-0.007
		c-0.279,0-0.489,0.002-0.627,0.007l-0.693,3.013c-0.335,1.349-0.62,2.323-0.856,2.925c-0.235,0.597-0.551,1.126-0.946,1.583
		c-0.395,0.458-0.794,0.792-1.199,1.006c-0.214,0.113-0.419,0.17-0.615,0.17c-0.146,0-0.305-0.036-0.476-0.106
		c0.115-0.31,0.201-0.558,0.257-0.748c0.058-0.189,0.107-0.396,0.153-0.622l0.2-0.037c0.088,0.197,0.184,0.34,0.286,0.427
		s0.217,0.13,0.343,0.13c0.121,0,0.233-0.039,0.336-0.116c0.104-0.078,0.192-0.217,0.267-0.417c0.147-0.401,0.34-1.242,0.578-2.522
		l0.907-4.684c-0.251-0.005-0.524-0.007-0.82-0.007C149.217,43.109,149.092,43.111,148.992,43.116z"/>
	<path class="primarycolor" d="M162.744,45.268h-0.557c-0.012-0.523-0.047-0.84-0.105-0.948c-0.029-0.055-0.104-0.095-0.225-0.119
		c-0.309-0.054-0.794-0.081-1.458-0.081c-0.096,0-0.263,0.002-0.499,0.005v0.696c0,0.991,0.012,1.687,0.036,2.086
		c0.023,0.399,0.057,0.634,0.099,0.699c0.03,0.047,0.082,0.083,0.157,0.11c0.075,0.026,0.402,0.063,0.983,0.104v0.492l-2.464-0.046
		c-0.357,0-0.922,0.015-1.693,0.046v-0.521c0.483-0.009,0.763-0.026,0.839-0.057c0.037-0.013,0.069-0.035,0.094-0.068
		c0.038-0.05,0.067-0.159,0.088-0.326c0.012-0.097,0.029-0.398,0.051-0.905c0.021-0.509,0.032-0.872,0.032-1.095v-2.594
		c0-0.059-0.018-0.643-0.055-1.755c-0.008-0.321-0.032-0.549-0.069-0.684c-0.013-0.045-0.033-0.08-0.061-0.104
		c-0.027-0.021-0.085-0.045-0.176-0.065c-0.091-0.02-0.338-0.043-0.743-0.068v-0.528l2.229,0.046l3.018-0.056
		c0.421,0,0.821,0.021,1.198,0.063l0.056,0.089c-0.046,0.236-0.085,0.54-0.117,0.908c-0.033,0.367-0.053,0.688-0.056,0.965h-0.511
		c0-0.101-0.011-0.325-0.031-0.674c-0.008-0.184-0.021-0.294-0.038-0.331c-0.012-0.029-0.031-0.051-0.056-0.063
		c-0.075-0.048-0.25-0.099-0.523-0.146s-0.594-0.07-0.961-0.07c-0.071,0-0.269,0.004-0.592,0.016s-0.544,0.021-0.661,0.03
		c-0.049,0.414-0.072,1.162-0.072,2.246v0.872c0.531,0.029,0.891,0.044,1.078,0.044c0.54,0,0.881-0.024,1.023-0.074
		c0.053-0.018,0.093-0.065,0.117-0.144c0.038-0.105,0.061-0.343,0.068-0.712h0.557C162.744,43.259,162.744,44.166,162.744,45.268z"
		/>
	<path class="primarycolor" d="M164.613,48.313v-0.325c0.107-0.046,0.259-0.128,0.454-0.245c0.086-0.05,0.144-0.092,0.168-0.125
		c0.017-0.021,0.026-0.043,0.031-0.068c0.021-0.104,0.04-0.477,0.058-1.117c0.019-0.642,0.028-1.41,0.028-2.309
		c0-1.317-0.004-2.131-0.01-2.44c-0.012-0.785-0.037-1.234-0.075-1.347c-0.017-0.05-0.049-0.087-0.095-0.111
		c-0.098-0.064-0.42-0.104-0.97-0.126v-0.556c0.531,0.029,1.138,0.046,1.82,0.046c0.761,0,1.482-0.017,2.163-0.046v0.556
		c-0.47,0.021-0.759,0.059-0.862,0.112c-0.045,0.024-0.078,0.065-0.1,0.123c-0.021,0.056-0.041,0.313-0.063,0.771
		c-0.021,0.46-0.03,1.039-0.03,1.739c0,0.075,0.002,0.678,0.007,1.808c0.005,0.597,0.007,1.188,0.01,1.774
		c0.002,0.585,0.004,0.94,0.009,1.066c0.576,0.029,0.971,0.045,1.18,0.045c0.636,0,1.188-0.036,1.662-0.109
		c0.171-0.024,0.273-0.053,0.308-0.082c0.032-0.029,0.068-0.107,0.105-0.232c0.085-0.316,0.166-0.68,0.245-1.089h0.52
		c-0.012,0.116-0.018,0.186-0.018,0.206l-0.154,1.266c-0.033,0.397-0.052,0.636-0.056,0.716c-0.121,0.033-0.243,0.056-0.363,0.068
		c-0.256,0.021-0.651,0.032-1.187,0.032c-0.075,0-0.566-0.012-1.473-0.031c-0.691-0.017-1.173-0.023-1.444-0.023
		C166.073,48.258,165.45,48.275,164.613,48.313z"/>
	<path class="primarycolor" d="M171.757,44.032c0-0.765,0.116-1.431,0.348-1.999c0.232-0.566,0.563-1.05,0.993-1.446
		c0.432-0.397,0.899-0.684,1.405-0.858c0.647-0.222,1.354-0.332,2.118-0.332c0.762,0,1.45,0.106,2.069,0.32
		c0.46,0.162,0.866,0.396,1.22,0.703c0.353,0.308,0.622,0.623,0.805,0.943c0.185,0.321,0.324,0.675,0.418,1.059
		c0.094,0.385,0.141,0.809,0.141,1.272c0,0.785-0.136,1.514-0.407,2.187c-0.201,0.501-0.494,0.945-0.881,1.334
		s-0.826,0.688-1.32,0.896c-0.677,0.279-1.45,0.421-2.32,0.421c-0.939,0-1.747-0.172-2.422-0.511
		c-0.675-0.341-1.204-0.843-1.589-1.508C171.95,45.849,171.757,45.022,171.757,44.032z M173.689,43.66
		c0,0.973,0.133,1.778,0.401,2.414c0.268,0.638,0.609,1.087,1.027,1.351c0.417,0.263,0.91,0.396,1.479,0.396
		c0.526,0,0.997-0.126,1.413-0.376c0.415-0.252,0.741-0.675,0.977-1.272c0.236-0.597,0.354-1.321,0.354-2.174
		c0-0.586-0.063-1.119-0.191-1.604c-0.127-0.484-0.31-0.896-0.548-1.237c-0.238-0.34-0.519-0.6-0.843-0.779
		s-0.753-0.269-1.288-0.269c-0.609,0-1.128,0.143-1.556,0.428c-0.43,0.286-0.74,0.709-0.934,1.27
		C173.786,42.364,173.689,42.983,173.689,43.66z"/>
	<path class="primarycolor" d="M181.515,40.054v-0.511c0.096,0,0.432,0.009,1.004,0.029c0.28,0.011,0.679,0.017,1.192,0.017
		c0.439,0,0.815-0.011,1.129-0.03c0.519-0.022,0.948-0.034,1.286-0.034c0.657,0,1.149,0.047,1.475,0.141
		c0.326,0.095,0.604,0.289,0.835,0.586c0.229,0.297,0.345,0.658,0.345,1.084c0,0.506-0.158,0.965-0.473,1.379
		c-0.316,0.414-0.801,0.742-1.457,0.983c0.105,0.187,0.226,0.379,0.358,0.574c0.135,0.193,0.213,0.313,0.235,0.354
		c0.023,0.042,0.047,0.08,0.072,0.119l0.975,1.449c0.259,0.386,0.399,0.593,0.42,0.622c0.314,0.415,0.507,0.66,0.579,0.735
		c0.07,0.074,0.14,0.126,0.207,0.155c0.066,0.029,0.198,0.046,0.396,0.05v0.557c-0.644-0.019-1.108-0.028-1.397-0.028
		c-0.334,0-0.666,0.01-0.997,0.028c-0.02-0.093-0.071-0.213-0.149-0.358l-1.346-2.216c-0.386-0.636-0.713-1.137-0.979-1.501
		c-0.135-0.184-0.265-0.321-0.391-0.413l0.069-0.207c0.504,0.017,0.885-0.035,1.141-0.153c0.257-0.12,0.474-0.333,0.649-0.639
		c0.177-0.309,0.265-0.651,0.265-1.032c0-0.384-0.092-0.704-0.276-0.958c-0.185-0.255-0.414-0.433-0.688-0.533
		c-0.177-0.063-0.491-0.093-0.944-0.093c-0.202,0-0.401,0.016-0.598,0.05c-0.014,0.15-0.025,0.488-0.037,1.016
		c-0.023,1.184-0.036,1.972-0.036,2.369c0,0.628,0.006,1.291,0.018,1.993c0.017,0.861,0.028,1.351,0.037,1.467
		c0.012,0.234,0.034,0.387,0.069,0.458c0.017,0.032,0.043,0.063,0.081,0.091c0.037,0.026,0.098,0.049,0.181,0.065
		c0.084,0.017,0.325,0.029,0.727,0.038v0.557c-0.713-0.031-1.436-0.046-2.166-0.046c-0.651,0-1.254,0.015-1.81,0.046v-0.557
		c0.475-0.017,0.755-0.04,0.842-0.069c0.051-0.013,0.087-0.033,0.11-0.063c0.022-0.03,0.04-0.088,0.052-0.176
		c0.03-0.162,0.05-0.41,0.063-0.74l0.054-1.831v-2.328l-0.026-1.323c-0.008-0.522-0.033-0.836-0.075-0.94
		c-0.021-0.046-0.053-0.082-0.094-0.106C182.34,40.129,182.031,40.086,181.515,40.054z"/>
	<path class="primarycolor" d="M194.859,39.543v0.556c-0.424,0.012-0.676,0.028-0.755,0.047c-0.08,0.019-0.137,0.042-0.171,0.068
		c-0.034,0.027-0.057,0.062-0.069,0.104c-0.028,0.07-0.05,0.205-0.063,0.406c-0.01,0.107-0.015,0.313-0.02,0.614
		c-0.017,1.025-0.026,1.579-0.026,1.659v2.522l0.019,1.146c0,0.43,0.021,0.709,0.063,0.839c0.017,0.059,0.045,0.103,0.085,0.135
		c0.039,0.032,0.102,0.057,0.188,0.075s0.336,0.032,0.748,0.041v0.557c-0.682-0.031-1.409-0.046-2.184-0.046
		c-0.673,0-1.273,0.015-1.8,0.046v-0.557c0.434-0.017,0.685-0.032,0.75-0.044c0.089-0.018,0.147-0.04,0.18-0.069
		c0.03-0.029,0.052-0.063,0.059-0.101c0.014-0.05,0.03-0.247,0.051-0.588c0.036-0.502,0.055-0.965,0.055-1.391v-2.615
		c0-0.832-0.003-1.366-0.01-1.604c-0.021-0.529-0.046-0.861-0.074-0.995c-0.015-0.054-0.034-0.096-0.061-0.124
		c-0.028-0.03-0.078-0.054-0.152-0.073c-0.072-0.019-0.339-0.037-0.797-0.053v-0.556c0.526,0.029,1.131,0.046,1.813,0.046
		C193.454,39.589,194.178,39.572,194.859,39.543z"/>
	<path class="primarycolor" d="M196.09,48.313v-0.302c0.033-0.02,0.091-0.053,0.174-0.1c0.159-0.087,0.303-0.178,0.437-0.273
		c0.05-0.561,0.073-1.471,0.073-2.729v-1.027c0-0.552-0.009-1.358-0.027-2.425c-0.013-0.59-0.04-0.966-0.081-1.128
		c-0.013-0.039-0.029-0.067-0.05-0.089c-0.033-0.033-0.086-0.059-0.156-0.075c-0.072-0.017-0.334-0.054-0.788-0.111v-0.511
		l2.274,0.046c0.267,0,0.77-0.012,1.51-0.034c0.534-0.014,0.961-0.021,1.284-0.021c0.738,0,1.331,0.045,1.774,0.135
		c0.444,0.089,0.832,0.233,1.162,0.433c0.331,0.199,0.609,0.434,0.837,0.705s0.399,0.563,0.517,0.877
		c0.196,0.526,0.295,1.104,0.295,1.729c0,0.798-0.146,1.509-0.438,2.136c-0.293,0.626-0.695,1.15-1.207,1.573
		c-0.513,0.422-1.066,0.727-1.665,0.912c-0.598,0.186-1.318,0.279-2.162,0.279l-1.862-0.046L196.09,48.313z M198.597,47.546
		c0.388,0.062,0.761,0.092,1.117,0.092c0.555,0,1.05-0.06,1.48-0.176c0.318-0.089,0.596-0.217,0.835-0.382
		c0.238-0.169,0.468-0.414,0.688-0.741c0.219-0.326,0.39-0.714,0.511-1.166c0.121-0.451,0.182-0.938,0.182-1.461
		c0-0.477-0.061-0.937-0.182-1.382c-0.121-0.444-0.32-0.834-0.596-1.169c-0.276-0.336-0.626-0.576-1.049-0.728
		c-0.421-0.15-1.063-0.225-1.92-0.225c-0.321,0-0.679,0.026-1.066,0.081c-0.042,0.594-0.063,1.711-0.063,3.353v1.44
		C198.533,46.328,198.555,47.149,198.597,47.546z"/>
	<path class="primarycolor" d="M204.73,48.313v-0.521c0.338-0.024,0.539-0.048,0.604-0.065c0.065-0.02,0.12-0.048,0.166-0.088
		c0.045-0.04,0.093-0.103,0.141-0.188c0.048-0.087,0.19-0.405,0.429-0.957c0.107-0.26,0.317-0.771,0.625-1.537l1.634-4.038
		l0.55-1.422h0.894l2.801,6.545l0.388,0.86l0.252,0.575c0.041,0.076,0.081,0.13,0.119,0.165c0.037,0.032,0.08,0.058,0.128,0.075
		c0.048,0.016,0.17,0.03,0.366,0.043c0.063,0.009,0.154,0.018,0.276,0.031v0.521l-1.742-0.046l-2.198,0.046v-0.521
		c0.504-0.021,0.791-0.05,0.855-0.084c0.063-0.036,0.097-0.096,0.097-0.179c0-0.104-0.049-0.274-0.145-0.513l-0.538-1.375h-3.231
		l-0.274,0.749c-0.208,0.576-0.313,0.935-0.313,1.076c0,0.1,0.033,0.171,0.1,0.213c0.1,0.058,0.398,0.096,0.896,0.112v0.521
		l-1.444-0.046L204.73,48.313z M207.487,44.921c0.395,0.012,0.841,0.019,1.339,0.019c0.482,0,0.913-0.007,1.295-0.019l-1.344-3.245
		L207.487,44.921z"/>
	<g>
		<path class="primarycolor" d="M65.364,29.627c-0.116,0.776-0.176,1.653-0.176,2.632l-0.08,0.08l-5.798-0.048
			c-0.968,0-1.651,0.017-2.051,0.048l-0.079-0.08v-0.223l0.04-0.097c0.393-0.25,0.606-0.408,0.638-0.471
			c0.048-0.1,0.076-0.453,0.088-1.06l0.024-1.787v-4.045c0-1.265-0.036-2.089-0.104-2.473c-0.027-0.154-0.116-0.252-0.271-0.293
			c-0.08-0.022-0.391-0.048-0.934-0.08l-0.08-0.08v-0.542l0.08-0.073c0.537,0.032,1.366,0.048,2.488,0.048
			c1,0,2.9-0.016,5.703-0.048l0.088,0.064l-0.104,0.886c-0.032,0.281-0.057,0.521-0.072,0.718l-0.056,0.74l-0.079,0.089h-0.463
			l-0.079-0.08c-0.006-0.723-0.049-1.135-0.128-1.237c-0.061-0.074-0.345-0.132-0.857-0.176c-0.514-0.042-0.964-0.064-1.353-0.064
			c-0.463,0-0.931,0.02-1.403,0.058c-0.059,0.558-0.088,1.331-0.088,2.32v1.652c0.419,0.026,0.761,0.039,1.021,0.039l1.045-0.007
			c0.488-0.006,0.766-0.045,0.829-0.121c0.086-0.096,0.141-0.454,0.168-1.076l0.079-0.08h0.495l0.08,0.08
			c-0.021,0.594-0.032,1.14-0.032,1.634c0,0.538,0.012,1.125,0.032,1.764l-0.08,0.071h-0.534l-0.08-0.08
			c0-0.611-0.042-0.973-0.128-1.088c-0.085-0.115-0.343-0.191-0.773-0.228c-0.323-0.027-0.67-0.04-1.037-0.04
			c-0.387,0-0.749,0.013-1.084,0.04v2.433c0,0.696,0.014,1.371,0.04,2.026h1.084c1.554,0,2.505-0.061,2.855-0.183
			c0.059-0.021,0.102-0.051,0.128-0.089c0.054-0.074,0.104-0.234,0.151-0.479l0.191-0.989l0.08-0.087h0.486L65.364,29.627z"/>
		<path class="primarycolor" d="M73.843,32.228l-0.079,0.08c-0.272-0.012-0.674-0.017-1.205-0.017c-0.69,0-1.101,0.005-1.229,0.017
			c-0.096-0.127-0.26-0.387-0.494-0.775c-0.116-0.191-0.29-0.48-0.519-0.868l-0.614-1.084c-0.674,0.894-1.304,1.803-1.882,2.728
			c-0.176-0.012-0.407-0.017-0.694-0.017c-0.356,0-0.594,0.005-0.71,0.017l-0.096-0.088v-0.463l0.088-0.087
			c0.293-0.005,0.49-0.043,0.599-0.111c0.106-0.069,0.339-0.323,0.701-0.759c0.388-0.473,0.901-1.129,1.539-1.969l-1.045-1.748
			c-0.303-0.51-0.512-0.848-0.629-1.012c-0.128-0.188-0.243-0.31-0.344-0.372c-0.101-0.061-0.226-0.091-0.375-0.091
			c-0.047,0-0.159,0.01-0.335,0.032l-0.111-0.073l-0.088-0.43l0.071-0.112c0.899-0.176,1.665-0.345,2.297-0.51
			c0.41,0.303,1.029,1.194,1.859,2.673c0.394-0.51,0.834-1.13,1.324-1.859l0.423-0.629c0.324,0.016,0.598,0.023,0.821,0.023
			c0.212,0,0.423-0.007,0.63-0.023l0.096,0.096v0.453l-0.079,0.08c-0.282,0.021-0.473,0.059-0.572,0.112
			c-0.098,0.053-0.279,0.229-0.545,0.525c-0.17,0.187-0.487,0.562-0.949,1.126l-0.686,0.83l1.147,2.032
			c0.543,0.963,0.892,1.493,1.046,1.588c0.069,0.043,0.255,0.084,0.559,0.128l0.079,0.087V32.228z"/>
		<path class="primarycolor" d="M81.73,27.815c0,0.092-0.002,0.227-0.007,0.408l-0.089,0.112c-0.701,0.191-1.631,0.287-2.791,0.287
			c-0.207,0-0.521,0.004-0.941,0.012c-0.419,0.007-0.735,0.011-0.948,0.011c0.031,0.782,0.273,1.429,0.725,1.939
			c0.475,0.547,1.09,0.82,1.852,0.82c0.51,0,1.116-0.175,1.818-0.526l0.19,0.232l-0.351,0.789c-0.776,0.494-1.619,0.743-2.528,0.743
			c-1.196,0-2.125-0.338-2.788-1.015c-0.661-0.674-0.992-1.638-0.992-2.887c0-1.483,0.354-2.499,1.061-3.047
			c0.978-0.754,1.906-1.132,2.783-1.132c0.952,0,1.688,0.275,2.21,0.822C81.465,25.947,81.73,26.758,81.73,27.815z M79.649,27.608
			c0-1.436-0.446-2.154-1.34-2.154c-0.941,0-1.412,0.713-1.412,2.138v0.175c0.308,0.048,0.857,0.073,1.643,0.073
			c0.411,0,0.778-0.025,1.102-0.073C79.646,27.693,79.649,27.641,79.649,27.608z"/>
		<path class="primarycolor" d="M89.173,31.287l-0.351,0.788c-0.724,0.379-1.437,0.568-2.139,0.568c-1.186,0-2.093-0.341-2.72-1.021
			c-0.626-0.681-0.94-1.615-0.94-2.801c0-1.095,0.241-1.927,0.726-2.496c0.133-0.159,0.387-0.37,0.758-0.631
			c0.766-0.542,1.277-0.866,1.536-0.973c0.257-0.106,0.651-0.16,1.184-0.16c0.724,0,1.32,0.109,1.795,0.328l0.08,0.144
			c-0.005,0.069-0.044,0.316-0.112,0.741l-0.087,0.542c-0.017,0.091-0.041,0.447-0.072,1.069l-0.08,0.08h-0.479l-0.08-0.08
			c-0.031-0.473-0.067-0.802-0.111-0.989c-0.234-0.415-0.684-0.622-1.349-0.622c-1.126,0-1.69,0.731-1.69,2.194
			c0,1.063,0.227,1.901,0.678,2.512c0.464,0.633,1.114,0.95,1.954,0.95c0.511,0,0.961-0.109,1.349-0.328L89.173,31.287z"/>
		<path class="primarycolor" d="M99.135,32.25l-0.08,0.08c-0.797-0.026-1.3-0.039-1.507-0.039c-0.176,0-0.437,0.007-0.781,0.02
			c-0.346,0.012-0.604,0.019-0.774,0.019l-0.063-0.063c0.043-0.435,0.063-0.85,0.063-1.245c-0.275,0.208-0.761,0.649-1.451,1.324
			c-0.347,0.134-0.716,0.201-1.108,0.201c-0.718,0-1.284-0.196-1.699-0.587c-0.415-0.391-0.623-0.953-0.623-1.687
			c0-0.09,0.006-0.282,0.017-0.575c0.012-0.292,0.016-0.574,0.016-0.845v-1.021c0-1.054-0.039-1.664-0.119-1.835
			c-0.054-0.106-0.168-0.172-0.343-0.198c-0.064-0.012-0.299-0.025-0.702-0.041l-0.08-0.08v-0.447l0.08-0.087
			c1.017-0.091,2.045-0.312,3.087-0.663l0.175,0.105c-0.069,0.881-0.103,1.697-0.103,2.447v1.557c0,0.728,0.023,1.225,0.071,1.49
			c0.053,0.318,0.179,0.562,0.38,0.727c0.197,0.164,0.466,0.246,0.801,0.246c0.414,0,0.778-0.132,1.093-0.399
			c0.298-0.266,0.454-0.568,0.471-0.91c0.01-0.259,0.016-0.421,0.016-0.485v-1.429c0-1.042-0.04-1.653-0.12-1.835
			c-0.048-0.106-0.159-0.172-0.335-0.198c-0.063-0.012-0.298-0.025-0.701-0.041l-0.089-0.08v-0.447l0.089-0.087
			c1.009-0.091,2.039-0.312,3.086-0.663l0.167,0.105c-0.067,0.797-0.103,1.613-0.103,2.447v2.505c0,1.122,0.031,1.758,0.096,1.907
			c0.031,0.074,0.085,0.122,0.159,0.144c0.128,0.036,0.404,0.068,0.83,0.096l0.087,0.079V32.25z"/>
		<path class="primarycolor" d="M104.846,31.245c-0.036,0.044-0.15,0.155-0.343,0.335c-0.313,0.299-0.582,0.57-0.806,0.813
			c-0.26,0.086-0.524,0.128-0.789,0.128c-0.739,0-1.28-0.214-1.62-0.645c-0.143-0.187-0.239-0.403-0.286-0.647
			c-0.053-0.292-0.078-0.675-0.072-1.148l0.024-1.905v-1.995h-0.216l-0.422,0.016h-0.328L99.9,26.125v-0.208l0.064-0.118
			c0.096-0.064,0.244-0.16,0.446-0.288c0.239-0.149,0.42-0.274,0.543-0.376v-1.084c0-0.451-0.021-0.93-0.064-1.436
			c0.398-0.128,0.723-0.24,0.969-0.339c0.248-0.099,0.597-0.259,1.05-0.482l0.207,0.16c-0.063,0.659-0.108,1.249-0.136,1.77
			l-0.071,1.379h0.263c0.579,0,1.08-0.018,1.5-0.055l0.088,0.086l-0.112,0.935l-0.079,0.079h-1.659v2.704
			c0,0.867,0.01,1.377,0.031,1.531c0.027,0.223,0.121,0.404,0.284,0.542c0.162,0.139,0.381,0.207,0.657,0.207
			c0.218,0,0.482-0.058,0.79-0.176L104.846,31.245z"/>
		<path class="primarycolor" d="M109.959,32.267l-0.08,0.079c-0.505-0.036-1.233-0.055-2.186-0.055c-0.951,0-1.679,0.019-2.178,0.055
			l-0.079-0.079v-0.486l0.079-0.08c0.511-0.016,0.827-0.057,0.949-0.121c0.106-0.048,0.165-0.175,0.176-0.382
			c0.037-0.691,0.056-1.433,0.056-2.225v-1.141c0-1.032-0.04-1.644-0.12-1.835c-0.042-0.106-0.156-0.172-0.343-0.198
			c-0.063-0.012-0.295-0.025-0.693-0.041l-0.08-0.08v-0.447l0.08-0.087c1.021-0.091,2.05-0.312,3.087-0.663l0.168,0.105
			c-0.069,0.967-0.104,1.783-0.104,2.447v2.546c0,0.387,0.019,0.927,0.057,1.618c0.011,0.207,0.069,0.334,0.175,0.382
			c0.122,0.064,0.438,0.105,0.949,0.121l0.088,0.08V32.267z M108.858,21.859c0,0.339-0.12,0.631-0.359,0.873
			c-0.239,0.242-0.526,0.362-0.861,0.362c-0.34,0-0.63-0.121-0.869-0.362c-0.24-0.241-0.359-0.534-0.359-0.873
			c0-0.351,0.121-0.647,0.362-0.887c0.243-0.239,0.531-0.358,0.866-0.358c0.33,0,0.615,0.119,0.857,0.358
			C108.738,21.211,108.858,21.508,108.858,21.859z"/>
		<path class="primarycolor" d="M119.331,25.327l-0.08,0.089c-0.323,0.02-0.538,0.061-0.638,0.119c-0.075,0.043-0.164,0.159-0.271,0.35
			c-0.106,0.192-0.306,0.623-0.599,1.292l-1.522,3.535c-0.053,0.128-0.283,0.699-0.687,1.714h-1.396
			c-0.297-0.84-0.622-1.698-0.974-2.575c-0.558-1.399-1.033-2.601-1.427-3.605c-0.176-0.446-0.365-0.708-0.566-0.782
			c-0.117-0.043-0.275-0.067-0.471-0.073l-0.088-0.086v-0.463l0.088-0.08c0.49,0.017,1.198,0.023,2.13,0.023
			c0.819,0,1.459-0.006,1.922-0.023l0.088,0.08v0.47l-0.088,0.089c-0.395,0.01-0.649,0.034-0.766,0.07
			c-0.117,0.039-0.176,0.11-0.176,0.217c0,0.148,0.327,1.085,0.98,2.808c0.346,0.919,0.571,1.495,0.679,1.729
			c0.34-0.798,0.665-1.58,0.973-2.345c0.506-1.249,0.758-1.98,0.758-2.192c0-0.111-0.055-0.185-0.163-0.219
			c-0.108-0.036-0.371-0.061-0.786-0.077l-0.088-0.079v-0.47l0.088-0.08c0.411,0.017,0.894,0.023,1.452,0.023
			c0.602,0,1.116-0.006,1.547-0.023l0.08,0.08V25.327z"/>
		<path class="primarycolor" d="M126.805,27.815c0,0.092-0.004,0.227-0.008,0.408l-0.088,0.112c-0.702,0.191-1.633,0.287-2.791,0.287
			c-0.208,0-0.521,0.004-0.941,0.012c-0.421,0.007-0.737,0.011-0.949,0.011c0.031,0.782,0.272,1.429,0.726,1.939
			c0.473,0.547,1.091,0.82,1.851,0.82c0.51,0,1.116-0.175,1.818-0.526l0.191,0.232l-0.351,0.789
			c-0.776,0.494-1.62,0.743-2.529,0.743c-1.196,0-2.126-0.338-2.787-1.015c-0.663-0.674-0.993-1.638-0.993-2.887
			c0-1.483,0.354-2.499,1.061-3.047c0.979-0.754,1.906-1.132,2.783-1.132c0.953,0,1.689,0.275,2.21,0.822
			C126.539,25.947,126.805,26.758,126.805,27.815z M124.723,27.608c0-1.436-0.447-2.154-1.34-2.154
			c-0.941,0-1.412,0.713-1.412,2.138v0.175c0.31,0.048,0.856,0.073,1.644,0.073c0.409,0,0.776-0.025,1.101-0.073
			C124.721,27.693,124.723,27.641,124.723,27.608z"/>
	</g>
	<g>
		<path class="primarycolor" d="M141.09,29.923c-0.116,0.776-0.176,1.654-0.176,2.632l-0.08,0.08l-5.798-0.048
			c-0.968,0-1.651,0.016-2.05,0.048l-0.08-0.08v-0.223l0.04-0.096c0.394-0.251,0.606-0.408,0.638-0.472
			c0.048-0.1,0.076-0.453,0.089-1.059l0.023-1.787v-4.045c0-1.265-0.036-2.09-0.104-2.473c-0.028-0.154-0.117-0.251-0.271-0.294
			c-0.08-0.022-0.392-0.048-0.934-0.079l-0.079-0.08v-0.542l0.079-0.073c0.537,0.032,1.366,0.048,2.489,0.048
			c0.999,0,2.899-0.016,5.702-0.048l0.088,0.063l-0.104,0.887c-0.032,0.282-0.056,0.521-0.071,0.718l-0.057,0.741l-0.08,0.089
			h-0.462l-0.08-0.08c-0.005-0.724-0.048-1.136-0.128-1.238c-0.059-0.074-0.344-0.132-0.856-0.175
			c-0.514-0.042-0.964-0.063-1.353-0.063c-0.463,0-0.932,0.02-1.404,0.057c-0.058,0.559-0.087,1.331-0.087,2.32v1.652
			c0.419,0.026,0.761,0.039,1.021,0.039l1.046-0.007c0.488-0.005,0.765-0.045,0.829-0.12c0.085-0.096,0.14-0.454,0.167-1.076
			l0.08-0.08h0.494l0.08,0.08c-0.021,0.595-0.032,1.139-0.032,1.634c0,0.538,0.012,1.125,0.032,1.764l-0.08,0.07h-0.534l-0.08-0.08
			c0-0.61-0.042-0.973-0.127-1.087c-0.086-0.116-0.344-0.19-0.774-0.227c-0.323-0.028-0.67-0.041-1.037-0.041
			c-0.387,0-0.75,0.013-1.084,0.041v2.431c0,0.698,0.013,1.373,0.039,2.026h1.086c1.553,0,2.504-0.061,2.854-0.182
			c0.059-0.021,0.102-0.051,0.128-0.089c0.054-0.074,0.104-0.233,0.151-0.479l0.191-0.989l0.08-0.086h0.486L141.09,29.923z"/>
		<path class="primarycolor" d="M151.268,32.562l-0.08,0.081c-0.521-0.037-0.991-0.055-1.411-0.055c-0.399,0-0.938,0.018-1.62,0.055
			l-0.071-0.055c0.021-0.261,0.032-0.698,0.032-1.308c-0.192,0.159-0.466,0.404-0.822,0.733c-0.442,0.41-0.729,0.655-0.86,0.734
			c-0.172,0.08-0.447,0.119-0.83,0.119c-0.909,0-1.643-0.342-2.202-1.028c-0.558-0.686-0.837-1.575-0.837-2.664
			c0-1.059,0.215-1.882,0.646-2.473c0.111-0.156,0.442-0.429,0.989-0.823c0.638-0.457,1.104-0.746,1.396-0.868
			c0.255-0.107,0.579-0.16,0.973-0.16c0.553,0,1.069,0.116,1.548,0.351v-0.447c0-1.399-0.036-2.223-0.104-2.473
			c-0.036-0.139-0.146-0.223-0.326-0.254c-0.086-0.017-0.33-0.032-0.734-0.049l-0.08-0.088v-0.438l0.08-0.089
			c1.021-0.106,2.05-0.326,3.087-0.661l0.176,0.096c0,0.021-0.012,0.284-0.032,0.789c-0.048,1.144-0.072,2.861-0.072,5.153v2.577
			c0,1.494,0.035,2.315,0.104,2.463c0.043,0.092,0.1,0.147,0.176,0.169c0.115,0.036,0.382,0.07,0.797,0.102l0.08,0.08V32.562z
			 M148.117,28.399v-1.5c-0.384-0.457-0.75-0.75-1.102-0.877c-0.239-0.084-0.494-0.128-0.766-0.128
			c-0.733,0-1.206,0.378-1.419,1.133c-0.118,0.42-0.176,0.889-0.176,1.404c0,1.101,0.259,1.917,0.773,2.45
			c0.271,0.282,0.637,0.421,1.093,0.421c0.377,0,0.729-0.119,1.053-0.358c0.293-0.213,0.466-0.442,0.519-0.686
			C148.108,30.183,148.117,29.563,148.117,28.399z"/>
		<path class="primarycolor" d="M161.254,32.547l-0.08,0.08c-0.798-0.026-1.3-0.039-1.508-0.039c-0.175,0-0.436,0.006-0.781,0.02
			c-0.346,0.012-0.603,0.019-0.773,0.019l-0.064-0.064c0.043-0.434,0.064-0.85,0.064-1.244c-0.275,0.208-0.762,0.65-1.452,1.325
			c-0.347,0.133-0.715,0.2-1.109,0.2c-0.717,0-1.283-0.195-1.698-0.586c-0.414-0.391-0.622-0.954-0.622-1.688
			c0-0.091,0.005-0.282,0.016-0.574c0.012-0.292,0.017-0.575,0.017-0.846v-1.021c0-1.052-0.041-1.664-0.119-1.833
			c-0.054-0.106-0.169-0.173-0.345-0.199c-0.063-0.011-0.298-0.025-0.701-0.042l-0.08-0.08v-0.447l0.08-0.086
			c1.017-0.091,2.044-0.312,3.087-0.663l0.176,0.104c-0.069,0.882-0.104,1.698-0.104,2.448v1.556c0,0.729,0.024,1.225,0.072,1.491
			c0.054,0.319,0.18,0.562,0.379,0.727c0.199,0.164,0.467,0.246,0.802,0.246c0.415,0,0.777-0.132,1.092-0.399
			c0.299-0.265,0.455-0.568,0.471-0.909c0.011-0.26,0.017-0.421,0.017-0.485v-1.429c0-1.041-0.04-1.653-0.119-1.833
			c-0.048-0.106-0.16-0.173-0.336-0.199c-0.063-0.011-0.298-0.025-0.701-0.042l-0.088-0.08v-0.447l0.088-0.086
			c1.01-0.091,2.039-0.312,3.087-0.663l0.167,0.104c-0.068,0.797-0.104,1.613-0.104,2.448v2.504c0,1.123,0.032,1.758,0.096,1.908
			c0.031,0.074,0.085,0.122,0.159,0.144c0.128,0.037,0.404,0.069,0.829,0.095l0.089,0.08V32.547z"/>
		<path class="primarycolor" d="M168.52,31.583l-0.352,0.789c-0.723,0.378-1.436,0.568-2.137,0.568c-1.187,0-2.093-0.34-2.72-1.021
			c-0.627-0.681-0.941-1.615-0.941-2.801c0-1.095,0.241-1.927,0.726-2.495c0.134-0.16,0.387-0.371,0.759-0.631
			c0.765-0.542,1.276-0.866,1.535-0.973c0.258-0.106,0.651-0.159,1.185-0.159c0.723,0,1.32,0.109,1.794,0.328l0.08,0.143
			c-0.005,0.069-0.044,0.316-0.111,0.741l-0.088,0.542c-0.017,0.091-0.04,0.446-0.072,1.068l-0.08,0.08h-0.478l-0.08-0.08
			c-0.032-0.473-0.068-0.802-0.112-0.989c-0.234-0.415-0.684-0.622-1.348-0.622c-1.127,0-1.691,0.731-1.691,2.194
			c0,1.064,0.228,1.901,0.679,2.512c0.462,0.634,1.114,0.951,1.954,0.951c0.51,0,0.961-0.11,1.348-0.329L168.52,31.583z"/>
		<path class="primarycolor" d="M176.695,32.54l-0.088,0.086c-0.447-0.026-0.961-0.039-1.539-0.039c-0.452,0-0.886,0.013-1.301,0.039
			l-0.071-0.086l0.071-1.069l-1.547,1.18c-0.122,0.09-0.298,0.146-0.526,0.167c-0.091,0.011-0.197,0.016-0.319,0.016
			c-0.59,0-1.043-0.178-1.359-0.533c-0.316-0.356-0.475-0.848-0.475-1.477c0-0.829,0.263-1.417,0.789-1.762
			c0.57-0.378,1.716-0.718,3.438-1.021c0-0.845-0.223-1.413-0.67-1.7c-0.271-0.175-0.596-0.262-0.974-0.262
			c-0.414,0-0.74,0.084-0.98,0.255l-0.303,0.741l-0.104,0.057l-0.407-0.096l-0.056-0.111l0.04-0.941
			c0.877-0.649,1.536-1.017,1.979-1.101c0.187-0.038,0.428-0.057,0.725-0.057c1.048,0,1.796,0.274,2.242,0.823
			c0.323,0.399,0.486,1.01,0.486,1.834c0,0.202-0.008,0.527-0.024,0.973c-0.026,0.744-0.039,1.241-0.039,1.491
			c0,0.803,0.013,1.314,0.039,1.536c0.028,0.221,0.089,0.36,0.188,0.419c0.099,0.058,0.335,0.092,0.706,0.103l0.08,0.089V32.54z
			 M173.768,30.68v-1.961c-0.877,0.191-1.469,0.398-1.773,0.619c-0.307,0.22-0.46,0.557-0.46,1.009c0,0.723,0.316,1.084,0.95,1.084
			C173.021,31.43,173.449,31.181,173.768,30.68z"/>
		<path class="primarycolor" d="M182.383,31.541c-0.038,0.043-0.152,0.156-0.344,0.336c-0.314,0.298-0.582,0.569-0.806,0.813
			c-0.261,0.085-0.522,0.127-0.789,0.127c-0.738,0-1.278-0.214-1.619-0.645c-0.144-0.188-0.24-0.403-0.287-0.648
			c-0.054-0.291-0.077-0.674-0.072-1.148l0.023-1.906v-1.994h-0.215l-0.423,0.016h-0.327l-0.087-0.073v-0.207l0.063-0.119
			c0.096-0.063,0.245-0.159,0.446-0.287c0.24-0.149,0.421-0.275,0.542-0.376v-1.084c0-0.451-0.021-0.929-0.063-1.436
			c0.399-0.127,0.721-0.239,0.97-0.338c0.246-0.099,0.597-0.258,1.049-0.482l0.207,0.16c-0.063,0.658-0.109,1.248-0.136,1.771
			l-0.071,1.379h0.264c0.579,0,1.078-0.019,1.499-0.055l0.087,0.086l-0.111,0.935l-0.08,0.08h-1.658v2.702
			c0,0.868,0.012,1.377,0.032,1.531c0.027,0.224,0.12,0.405,0.282,0.542c0.162,0.139,0.383,0.208,0.658,0.208
			c0.219,0,0.481-0.059,0.79-0.176L182.383,31.541z"/>
		<path class="primarycolor" d="M187.494,32.562l-0.078,0.081c-0.507-0.037-1.233-0.055-2.187-0.055c-0.952,0-1.677,0.018-2.177,0.055
			l-0.08-0.081v-0.485l0.08-0.08c0.51-0.017,0.826-0.058,0.949-0.121c0.106-0.048,0.164-0.176,0.175-0.384
			c0.036-0.69,0.056-1.432,0.056-2.223v-1.143c0-1.031-0.04-1.643-0.119-1.833c-0.044-0.106-0.158-0.173-0.344-0.199
			c-0.063-0.011-0.294-0.025-0.693-0.042l-0.08-0.08v-0.447l0.08-0.086c1.021-0.091,2.05-0.312,3.087-0.663l0.167,0.104
			c-0.068,0.967-0.103,1.783-0.103,2.448v2.545c0,0.388,0.02,0.928,0.055,1.618c0.012,0.208,0.069,0.336,0.176,0.384
			c0.123,0.063,0.439,0.104,0.949,0.121l0.087,0.08V32.562z M186.395,22.155c0,0.34-0.12,0.631-0.359,0.873
			c-0.239,0.241-0.525,0.362-0.861,0.362c-0.341,0-0.63-0.121-0.869-0.362c-0.239-0.242-0.359-0.533-0.359-0.873
			c0-0.351,0.121-0.647,0.363-0.886c0.242-0.24,0.53-0.358,0.865-0.358c0.329,0,0.615,0.118,0.858,0.358
			C186.273,21.508,186.395,21.804,186.395,22.155z"/>
		<path class="primarycolor" d="M196.38,28.632c0,1.882-0.633,3.154-1.898,3.819c-0.617,0.324-1.321,0.488-2.113,0.488
			c-1.223,0-2.154-0.355-2.795-1.062c-0.642-0.707-0.962-1.72-0.962-3.038c0-1.824,0.622-3.04,1.867-3.646
			c0.61-0.297,1.321-0.447,2.129-0.447c1.696,0,2.82,0.588,3.374,1.764C196.248,27.073,196.38,27.78,196.38,28.632z M194.172,29.286
			c0-1.324-0.146-2.272-0.436-2.844c-0.29-0.572-0.733-0.856-1.328-0.856c-1.058,0-1.587,0.954-1.587,2.862
			c0,2.452,0.594,3.678,1.778,3.678c0.738,0,1.21-0.408,1.412-1.222C194.117,30.478,194.172,29.94,194.172,29.286z"/>
		<path class="primarycolor" d="M206.67,32.556l-0.08,0.087c-0.585-0.037-1.079-0.055-1.483-0.055c-0.373,0-0.915,0.018-1.628,0.055
			l-0.079-0.081c0.096-1.185,0.144-2.1,0.144-2.743v-1.563c0-1.297-0.469-1.946-1.403-1.946c-0.49,0-0.873,0.169-1.149,0.504
			c-0.234,0.281-0.351,0.565-0.351,0.852v1.493c0,1.376,0.034,2.222,0.104,2.537c0.042,0.186,0.352,0.284,0.926,0.294l0.079,0.08
			v0.488l-0.079,0.08c-0.453-0.032-1.127-0.048-2.026-0.048c-0.951,0-1.678,0.018-2.178,0.055l-0.079-0.081v-0.485l0.079-0.08
			c0.511-0.017,0.827-0.058,0.949-0.121c0.106-0.048,0.165-0.176,0.176-0.384c0.037-0.69,0.056-1.432,0.056-2.223v-1.143
			c0-1.063-0.04-1.675-0.119-1.833c-0.054-0.106-0.168-0.173-0.344-0.199c-0.063-0.011-0.295-0.025-0.693-0.042l-0.08-0.08v-0.447
			l0.08-0.086c0.957-0.091,1.966-0.312,3.022-0.663l0.176,0.104l-0.016,1.34l1.371-1.149c0.352-0.143,0.736-0.216,1.157-0.216
			c0.845,0,1.478,0.255,1.898,0.766c0.34,0.415,0.51,1.024,0.51,1.827c0,0.09-0.01,0.459-0.031,1.108
			c-0.021,0.65-0.032,1.112-0.032,1.388c0,0.803,0.014,1.314,0.04,1.536c0.025,0.221,0.088,0.36,0.184,0.419
			c0.096,0.058,0.373,0.092,0.829,0.103l0.072,0.08V32.556z"/>
	</g>
</g>
</svg>
