<?xml version="1.0" encoding="iso-8859-1"?>
<svg version="1.2" baseProfile="tiny" class="logocolor usf" xmlns="http://www.w3.org/2000/svg" xmlns:xlink="http://www.w3.org/1999/xlink" viewBox="0 0 215 70" xml:space="preserve">
<g>
<rect x="1.041" y="12.285" class="secondarycolor knockout" width="68.651" height="32.836"/>
<path class="primarycolor" d="M1.041,12.285v32.836h68.651V12.285H1.041z M26.909,20.941v7.37h-0.001c0,6.622-1.685,12.128-10.001,12.128
	c-5.624,0-8.604-2.838-8.604-9.152V20.633c0-2.8-3.125-1.745-3.125-2.993c0-0.421,0.384-0.517,0.625-0.517
	c0.386,0,2.645,0.114,4.135,0.114c1.538,0,3.652-0.114,4.231-0.114c0.288,0,0.335,0.248,0.335,0.441c0,1.112-2.5-0.614-2.5,4.739
	v7.083c0,4.991,1.203,9.134,6.54,9.134c6.007,0,6.777-5.163,6.777-10.669v-6.465c0-3.744-3.702-2.727-3.702-3.916
	c0-0.518,0.53-0.345,0.915-0.345c0.866,0.056,1.681,0.114,2.547,0.114c0.96,0,1.922-0.058,3.414-0.114
	c0.334,0,0.528,0.056,0.528,0.421C29.023,18.427,26.909,17.237,26.909,20.941z M37.723,40.439c-2.306,0-4.277-0.787-6.442-1.209
	c-0.959-0.191-0.914-0.459-1.106-1.246l-1.153-4.475c-0.146-0.439-0.528-1.401,0.433-1.401c0.625,0,0.673,0.307,0.817,0.731
	c1.25,3.128,3.556,6.104,7.787,6.104c2.933,0,5.192-1.573,5.192-4.185c0-2.783-2.355-3.205-8.46-5.508
	c-3.269-1.247-5.48-2.513-5.48-5.949c0-3.743,3.027-6.488,7.452-6.488c3.076,0,4.712,1.267,5.815,1.267
	c0.481,0,1.442-0.517,1.922-0.517c0.578,0,0.482,0.48,0.531,1.246l0.431,4.358c0.049,0.729-0.047,1.112-0.863,1.112
	c-0.87,0-1.445-6.065-7.936-6.065c-2.497,0-4.228,1.249-4.228,3.417c0,2.189,2.067,2.629,7.163,4.549
	c4.04,1.534,6.539,2.936,6.539,7.081C46.137,37.543,42.676,40.439,37.723,40.439z M65.027,22.382c-1.684,0,1.154-3.876-5.769-3.876
	c-4.326,0-4.47,0.037-4.47,2.322v4.624h0.002c0,1.42,0,1.669,1.538,1.669h2.259c3.075,0,3.173-3.052,3.894-3.052
	c0.241,0,0.625-0.076,0.673,0.827l0.241,5.89c0.047,0.423,0.239,1.613-0.577,1.613c-1.156,0-0.146-3.494-3.894-3.494h-2.646
	c-1.633,0.001-1.489,0.386-1.489,2.304v4.913c0,3.667,4.037,2.841,4.037,3.724c0,0.672-0.768,0.536-1.634,0.536
	c-1.395,0-2.694-0.135-4.278-0.135c-1.105,0-2.597,0.135-4.568,0.135c-0.48,0-0.673-0.172-0.673-0.362
	c0-1.517,2.692,0.268,2.692-3.783V20.75c0-2.974-4.037-1.899-4.037-3.244c0-0.286,0.287-0.555,0.816-0.555
	c1.441,0,4.038,0.134,9.52,0.134c2.5,0,4.997-0.134,8.124-0.134c0.48,0,0.72,0.326,0.72,0.633l0.143,3.282
	C65.7,21.288,65.893,22.382,65.027,22.382z"/>
<path class="primarycolor" d="M12.11,57.027c-0.477-0.125-0.816-0.256-0.816-0.772v-7.812c0-0.576,0.321-0.664,0.602-0.738
	c0.16-0.044,0.36-0.098,0.36-0.299c0-0.272-0.178-0.404-0.541-0.404c-0.13,0-0.247,0.01-0.381,0.021
	c-0.177,0.018-0.379,0.035-0.677,0.035c-0.122,0-0.334-0.013-0.581-0.021c-0.32-0.018-0.682-0.035-0.957-0.035
	c-0.273,0-0.397,0.102-0.397,0.328c0,0.234,0.233,0.303,0.437,0.363c0.332,0.1,0.67,0.201,0.67,0.75v3.015
	c0,0.144-0.018,0.228-0.032,0.265h-5.34c-0.042,0-0.068-0.002-0.085-0.004c-0.001-0.025-0.001-0.06-0.001-0.09v-3.186
	c0-0.62,0.354-0.721,0.666-0.808c0.183-0.053,0.394-0.11,0.394-0.325C5.431,47.169,5.36,47,5.035,47
	c-0.254,0-0.502,0.018-0.745,0.027c-0.229,0.017-0.445,0.027-0.651,0.027c-0.254,0-0.506-0.013-0.773-0.027
	C2.592,47.014,2.305,47,2.006,47c-0.233,0-0.397,0.135-0.397,0.328c0,0.238,0.251,0.296,0.493,0.352
	c0.456,0.102,0.806,0.223,0.806,0.764v7.541c0,0.83-0.379,0.929-0.714,1.018c-0.196,0.053-0.442,0.115-0.442,0.385
	c0,0.357,0.231,0.385,0.302,0.385c0.031,0,0.062-0.004,0.104-0.008c0.126-0.016,0.389-0.049,1.192-0.049
	c0.493,0,1.096,0.026,1.539,0.039c0.245,0.012,0.439,0.018,0.528,0.018c0.192,0,0.349-0.129,0.349-0.289
	c0-0.297-0.307-0.373-0.603-0.446c-0.478-0.116-0.792-0.229-0.792-0.687v-3.666c0-0.031,0-0.063,0.002-0.091
	c0.009-0.001,0.018-0.001,0.034-0.001h5.425c0,0.025,0,0.059,0,0.086c-0.001,0.036-0.003,0.078-0.003,0.123v3.549
	c0,0.424-0.238,0.536-0.602,0.664c-0.214,0.076-0.457,0.16-0.457,0.411c0,0.13,0.054,0.208,0.1,0.251
	c0.112,0.108,0.268,0.104,0.362,0.1c0.013-0.004,0.023-0.004,0.034-0.004c0.106,0,0.228-0.006,0.385-0.018
	c0.287-0.013,0.68-0.039,1.295-0.039c0.281,0,0.53,0.018,0.771,0.032c0.203,0.012,0.395,0.024,0.578,0.024
	c0.235,0,0.348-0.205,0.348-0.349C12.641,57.171,12.37,57.098,12.11,57.027z"/>
<path class="primarycolor" d="M23.59,55.35c-0.107,0-0.174,0.076-0.285,0.2c-0.315,0.359-1.156,1.317-3.801,1.317
	c-0.482,0-0.762-0.059-0.881-0.18c-0.122-0.123-0.121-0.361-0.119-0.722V55.79v-2.706c0-0.025,0-0.057,0-0.08
	c-0.002-0.08-0.003-0.189,0.025-0.219c0.004-0.006,0.029-0.024,0.109-0.024h2.163c0.643,0,0.711,0.364,0.786,0.753
	c0.045,0.246,0.103,0.555,0.416,0.555c0.07,0,0.301-0.024,0.301-0.351v-2.663c0-0.215-0.104-0.427-0.301-0.427
	c-0.225,0-0.288,0.22-0.336,0.394c-0.095,0.328-0.223,0.777-1.153,0.777h-1.586c-0.188,0-0.365-0.002-0.402-0.023
	c-0.019-0.034-0.021-0.178-0.021-0.317v-2.746c0-0.364,0-0.606,0.076-0.685c0.088-0.084,0.388-0.084,0.884-0.082h0.28l0.252-0.002
	c0.596-0.01,1.834-0.031,2.124,0.346c0.073,0.105,0.088,0.293,0.101,0.477c0.018,0.271,0.042,0.639,0.408,0.639
	c0.138,0,0.242-0.127,0.313-0.375c0.088-0.313,0.131-0.831,0.131-1.545c0-0.354-0.155-0.48-0.3-0.48
	c-0.274,0-0.818,0.02-1.297,0.035c-0.359,0.011-0.696,0.021-0.817,0.021c-0.199,0-0.413-0.004-0.707-0.016
	c-0.631-0.018-1.583-0.042-3.477-0.042c-0.29,0-0.685,0-0.685,0.351c0,0.254,0.293,0.317,0.452,0.354
	c0.029,0.007,0.066,0.018,0.08,0.02l0.016,0.008c0.001,0,0.019,0.002,0.019,0.002c0.64,0.091,0.686,0.563,0.686,1.324v6.733
	c0,0.673-0.051,1.015-0.343,1.146c-0.156,0.084-0.275,0.134-0.371,0.17c-0.178,0.072-0.347,0.143-0.347,0.355
	c0,0.184,0.141,0.309,0.35,0.309c0.322,0,0.645-0.014,0.957-0.026c0.304-0.017,0.592-0.028,0.87-0.028
	c0.646-0.021,1.313,0.002,1.96,0.026c0.463,0.013,0.94,0.028,1.404,0.028h0.065c0.59,0,0.981,0.004,1.491-0.547
	c0.373-0.444,0.761-0.961,0.761-1.547C23.839,55.365,23.631,55.35,23.59,55.35z"/>
<path class="primarycolor" d="M36.062,57.098c-0.281-0.053-0.596-0.106-0.805-0.431c-0.29-0.448-0.469-0.969-0.642-1.476l-0.061-0.183
	c-0.002-0.006-3.079-7.604-3.079-7.604c-0.009-0.021-0.021-0.061-0.034-0.102c-0.077-0.238-0.172-0.535-0.399-0.535
	c-0.248,0-0.307,0.133-0.771,1.147l-0.477,1.035c0-0.001-3.557,7.522-3.557,7.522c-0.204,0.448-0.482,0.541-0.707,0.613
	c-0.164,0.055-0.364,0.118-0.364,0.354c0,0.191,0.122,0.326,0.298,0.326c0.199,0,0.398-0.014,0.59-0.027
	c0.185-0.014,0.378-0.027,0.565-0.027c0.209,0,0.416,0.018,0.612,0.027c0.205,0.016,0.417,0.027,0.638,0.027
	c0.019,0,0.041,0,0.061,0.004c0.125,0.002,0.271,0.004,0.376-0.1c0.069-0.066,0.104-0.165,0.104-0.289
	c0-0.275-0.272-0.322-0.469-0.359c-0.302-0.055-0.591-0.104-0.591-0.617c0-0.146,0.077-0.322,0.12-0.43l0.011-0.031
	c0,0.006,0.914-2.049,0.914-2.049c0.096-0.205,0.273-0.215,0.58-0.215h3.221c0.32,0,0.383,0.11,0.528,0.461
	c-0.003-0.008,0.43,1.201,0.43,1.201c0.299,0.627,0.472,1.125,0.472,1.348c0,0.188-0.163,0.252-0.431,0.344
	c-0.214,0.07-0.483,0.16-0.483,0.426c0,0.143,0.086,0.311,0.494,0.311c0.229,0,0.438-0.017,0.647-0.029
	c0.191-0.016,0.373-0.027,0.554-0.027c0.308,0,0.612,0.016,0.906,0.028c0.296,0.015,0.605,0.028,0.92,0.028
	c0.232,0,0.35-0.099,0.35-0.289C36.582,57.191,36.292,57.141,36.062,57.098z M30.632,49.133l1.419,3.493
	c0.018,0.044,0.028,0.071,0.035,0.089c-0.02,0.004-0.043,0.006-0.083,0.006h-2.934c-0.03,0-0.05-0.002-0.066-0.006
	c0.003-0.011,0.007-0.025,0.017-0.043C29.02,52.672,30.436,49.564,30.632,49.133z"/>
<path class="primarycolor" d="M45.366,55.35c-0.108,0-0.177,0.082-0.28,0.2c-0.306,0.36-1.119,1.317-3.806,1.317
	c-0.479,0-0.76-0.059-0.88-0.18c-0.124-0.123-0.121-0.361-0.118-0.723V55.79v-7.158c0-0.729,0.368-0.825,0.691-0.915
	c0.185-0.051,0.415-0.113,0.415-0.352C41.388,47,41.053,47,40.944,47c-0.09,0-0.187,0.007-0.313,0.018
	c-0.241,0.018-0.569,0.041-1.131,0.041c-0.422,0-0.748-0.021-1.009-0.037C38.309,47.01,38.154,47,38.011,47
	c-0.109,0-0.443,0-0.443,0.35c0,0.233,0.256,0.311,0.528,0.391c0.423,0.125,0.722,0.24,0.722,0.57v7.479
	c0,0.661-0.046,1.021-0.3,1.147c-0.151,0.071-0.269,0.119-0.363,0.156c-0.201,0.082-0.334,0.133-0.39,0.322l-0.005,0.021v0.021
	c0,0.073,0.027,0.31,0.396,0.31c0.292,0,0.6-0.015,0.897-0.027c0.295-0.014,0.599-0.028,0.883-0.028
	c0.645-0.022,1.313,0.001,1.959,0.024c0.464,0.015,0.94,0.031,1.405,0.031h0.068c0.63,0,0.977,0.002,1.488-0.549
	c0.372-0.447,0.764-0.963,0.764-1.547C45.62,55.365,45.408,55.35,45.366,55.35z"/>
<path class="primarycolor" d="M55.33,47.598c0-0.158-0.016-0.338-0.135-0.457c-0.119-0.123-0.296-0.139-0.455-0.139
	c-0.073,0-0.208,0.004-0.415,0.009c-0.611,0.015-1.884,0.048-3.91,0.048c-1.049,0-1.873-0.018-2.596-0.033
	c-0.581-0.012-1.077-0.021-1.587-0.021c-0.39,0-0.397,0.516-0.397,0.721l-0.191,1.432v0.01v0.012c0,0.154,0.157,0.328,0.299,0.328
	c0.297,0,0.383-0.281,0.43-0.434l0.007-0.024c0-0.001,0.012-0.037,0.012-0.037c0.229-0.769,0.258-0.868,1.04-0.868h2.369
	c0.016,0.043,0.039,0.154,0.026,0.455c0,0.028,0,0.047,0,0.062v7.677c0,0.396-0.273,0.523-0.659,0.665
	c-0.244,0.087-0.498,0.179-0.498,0.431c0,0.322,0.23,0.348,0.302,0.348c0.026,0,0.054-0.002,0.1-0.006
	c0.167-0.016,0.612-0.053,1.92-0.053c0.223,0,0.448,0.02,0.664,0.032c0.192,0.013,0.374,0.022,0.537,0.022
	c0.07,0,0.3-0.021,0.3-0.346c0-0.291-0.275-0.351-0.499-0.4c-0.346-0.074-0.704-0.151-0.704-0.809v-7.525v-0.151
	c-0.001-0.176-0.001-0.346,0.02-0.387c0.035-0.017,0.158-0.017,0.278-0.015h0.123h2.116c0.826,0,0.851,0.317,0.874,0.627
	c0.015,0.184,0.038,0.486,0.377,0.486c0.348,0,0.348-0.339,0.348-0.48C55.426,48.756,55.33,47.585,55.33,47.598z"/>
<path class="primarycolor" d="M68.741,57.027c-0.478-0.125-0.818-0.256-0.818-0.772v-7.812c0-0.574,0.34-0.662,0.638-0.738
	c0.167-0.042,0.374-0.096,0.374-0.299c0-0.122-0.056-0.404-0.589-0.404c-0.131,0-0.247,0.01-0.382,0.021
	c-0.176,0.018-0.378,0.035-0.675,0.035c-0.124,0-0.336-0.013-0.582-0.021c-0.321-0.018-0.682-0.035-0.956-0.035
	c-0.275,0-0.397,0.102-0.397,0.328c0,0.234,0.231,0.303,0.437,0.363c0.329,0.1,0.669,0.201,0.669,0.75v3.014
	c0,0.012,0,0.023,0.002,0.04c0.008,0.142-0.002,0.2-0.012,0.226h-5.362c-0.017,0-0.027-0.002-0.036-0.002
	c-0.002-0.025-0.002-0.061-0.002-0.092v-3.186c0-0.62,0.354-0.721,0.665-0.807c0.185-0.054,0.394-0.111,0.394-0.326
	c0-0.053-0.023-0.311-0.447-0.311c-0.244,0-0.478,0.016-0.704,0.027c-0.223,0.015-0.453,0.027-0.689,0.027
	c-0.252,0-0.506-0.013-0.771-0.027C59.22,47.014,58.935,47,58.635,47c-0.207,0-0.347,0.132-0.347,0.328
	c0,0.238,0.254,0.297,0.477,0.352c0.363,0.084,0.773,0.178,0.773,0.764v7.541c0,0.83-0.379,0.929-0.713,1.018
	c-0.196,0.053-0.442,0.115-0.442,0.385c0,0.336,0.22,0.385,0.35,0.385c0.019,0,0.036-0.002,0.062-0.006
	c0.082-0.013,0.328-0.051,1.187-0.051c0.511,0,1.173,0.026,1.609,0.043c0.226,0.008,0.39,0.014,0.457,0.014
	c0.272,0,0.397-0.149,0.397-0.289c0-0.297-0.307-0.373-0.602-0.446c-0.479-0.116-0.792-0.229-0.792-0.687v-3.666
	c0-0.031,0-0.063,0.002-0.092h5.413c0,0.025-0.002,0.059-0.002,0.086c-0.003,0.036-0.003,0.075-0.003,0.123v3.549
	c0,0.424-0.24,0.536-0.601,0.664c-0.215,0.076-0.457,0.16-0.457,0.411c0,0.13,0.051,0.205,0.095,0.248
	c0.113,0.11,0.277,0.104,0.394,0.103c0.019-0.004,0.036-0.004,0.052-0.004c0.107,0,0.223-0.006,0.374-0.018
	c0.272-0.013,0.644-0.039,1.259-0.039c0.272,0,0.519,0.016,0.758,0.029c0.219,0.015,0.425,0.027,0.638,0.027
	c0.191,0,0.299-0.205,0.299-0.349C69.271,57.171,69.002,57.098,68.741,57.027z"/>
<path class="primarycolor" d="M73.31,12.091c1.045,0,1.875,0.848,1.875,1.908c0,1.079-0.83,1.918-1.883,1.918
	c-1.044,0-1.892-0.84-1.892-1.918c0-1.06,0.847-1.908,1.892-1.908H73.31z M73.302,12.387c-0.841,0-1.527,0.72-1.527,1.611
	c0,0.909,0.686,1.621,1.535,1.621c0.849,0.009,1.528-0.712,1.528-1.612c0-0.9-0.679-1.621-1.528-1.621h-0.008V12.387z
	 M72.945,15.112h-0.34V12.98c0.179-0.025,0.349-0.051,0.604-0.051c0.321,0,0.536,0.068,0.662,0.162
	c0.126,0.093,0.194,0.236,0.194,0.44c0,0.281-0.188,0.451-0.416,0.519v0.017c0.187,0.035,0.314,0.204,0.358,0.517
	c0.049,0.332,0.1,0.459,0.134,0.528h-0.356c-0.051-0.069-0.103-0.263-0.146-0.545c-0.049-0.271-0.185-0.373-0.458-0.373h-0.237
	L72.945,15.112L72.945,15.112z M72.945,13.932h0.245c0.281,0,0.519-0.101,0.519-0.366c0-0.187-0.138-0.373-0.519-0.373
	c-0.111,0-0.185,0.008-0.245,0.018V13.932z"/>
<g>
	<rect x="83.456" y="48.628" class="primarycolor" width="130.503" height="0.562"/>
</g>
<g>
	<path class="primarycolor" d="M88,55.695v-1.801c0-0.291-0.042-0.502-0.125-0.635c-0.084-0.13-0.226-0.203-0.425-0.224
		c-0.067-0.009-0.101-0.031-0.101-0.075c0-0.049,0.023-0.072,0.069-0.068c0.051,0,0.125,0.012,0.222,0.025
		c0.088,0.016,0.193,0.021,0.316,0.021c0.26,0,0.419-0.004,0.479-0.01c0.081-0.01,0.132-0.013,0.153-0.013
		c0.044,0,0.066,0.021,0.066,0.062c0,0.035-0.024,0.063-0.074,0.082c-0.141,0.06-0.233,0.141-0.274,0.244
		c-0.042,0.104-0.063,0.303-0.063,0.592v1.725c0,0.634-0.126,1.121-0.379,1.463c-0.16,0.215-0.39,0.389-0.688,0.518
		c-0.298,0.129-0.617,0.192-0.956,0.192c-0.395,0-0.75-0.077-1.065-0.229c-0.315-0.152-0.546-0.36-0.692-0.623
		c-0.166-0.303-0.248-0.693-0.248-1.182v-1.769l-0.006-0.198c0-0.249-0.035-0.419-0.103-0.514c-0.069-0.094-0.206-0.156-0.413-0.188
		c-0.062-0.01-0.094-0.033-0.094-0.07c0-0.057,0.044-0.082,0.132-0.082c0.058,0,0.139,0.002,0.241,0.006
		c0.107,0.008,0.185,0.012,0.233,0.012l0.269-0.004h0.265c0.027,0,0.093-0.005,0.194-0.014c0.086-0.008,0.146-0.01,0.178-0.01
		c0.053,0,0.08,0.018,0.08,0.053c0,0.043-0.037,0.072-0.111,0.086c-0.135,0.029-0.225,0.089-0.27,0.176
		c-0.045,0.088-0.068,0.242-0.068,0.469l0.007,0.229v1.754c0,0.601,0.093,1.025,0.279,1.279c0.262,0.363,0.703,0.545,1.321,0.545
		c0.553,0,0.967-0.15,1.241-0.455C87.863,56.764,88,56.307,88,55.695z"/>
	<path class="primarycolor" d="M94.211,54.284v2.918c0,0.262-0.006,0.423-0.017,0.479c-0.012,0.058-0.044,0.084-0.098,0.082
		c-0.035-0.004-0.062-0.015-0.08-0.031l-0.077-0.09l-2.936-3.357l-0.035-0.038c-0.014-0.013-0.03-0.021-0.049-0.021
		c-0.044,0-0.066,0.051-0.066,0.154v2.364l-0.003,0.146l0.011,0.248c0.016,0.152,0.056,0.258,0.119,0.316s0.186,0.102,0.369,0.128
		c0.077,0.011,0.115,0.038,0.115,0.09c0,0.046-0.024,0.067-0.073,0.067c-0.033,0-0.067-0.001-0.104-0.008
		c-0.025-0.004-0.127-0.012-0.303-0.021l-0.355-0.02L90.462,57.7c-0.09,0-0.177,0.005-0.258,0.016
		c-0.06,0.009-0.103,0.015-0.128,0.015c-0.061,0-0.093-0.021-0.098-0.064c-0.002-0.035,0.03-0.063,0.098-0.086
		c0.195-0.066,0.327-0.157,0.395-0.27c0.069-0.113,0.103-0.295,0.103-0.547v-2.369c0-0.401-0.063-0.72-0.192-0.949
		c-0.127-0.23-0.312-0.362-0.554-0.396c-0.062-0.01-0.094-0.033-0.094-0.078c0-0.044,0.026-0.063,0.077-0.063
		c0.012,0,0.03,0.001,0.056,0.003l0.143,0.004l0.233,0.007l0.056-0.003c0.056-0.003,0.098-0.004,0.129-0.004
		c0.058,0,0.116,0.033,0.174,0.102l3.203,3.629c0.051,0.059,0.084,0.086,0.098,0.084c0.023-0.004,0.036-0.023,0.039-0.065v-1.726
		l0.003-0.471l-0.042-0.8c-0.023-0.196-0.081-0.338-0.172-0.42c-0.091-0.083-0.257-0.144-0.496-0.185
		c-0.067-0.011-0.101-0.039-0.101-0.084c0-0.043,0.034-0.064,0.101-0.064c0.03,0,0.079,0.004,0.146,0.01
		c0.16,0.018,0.375,0.025,0.645,0.025c0.144,0,0.259-0.006,0.344-0.021c0.075-0.015,0.131-0.021,0.171-0.021
		c0.06,0,0.093,0.024,0.097,0.073c0.002,0.028-0.021,0.052-0.069,0.064c-0.141,0.033-0.235,0.094-0.28,0.176
		c-0.045,0.079-0.068,0.231-0.068,0.454v0.377L94.211,54.284z"/>
	<path class="primarycolor" d="M97.125,53.966v2.611c0,0.325,0.02,0.541,0.059,0.646c0.046,0.118,0.104,0.202,0.172,0.252
		c0.068,0.049,0.176,0.084,0.322,0.104c0.116,0.019,0.174,0.045,0.174,0.086c0,0.054-0.036,0.082-0.108,0.082
		c-0.035,0-0.079-0.004-0.132-0.015c-0.072-0.01-0.195-0.016-0.369-0.016l-0.505-0.007l-0.411,0.022
		c-0.067,0.009-0.124,0.013-0.167,0.013c-0.063,0-0.094-0.024-0.094-0.071c0-0.042,0.036-0.066,0.108-0.078
		c0.177-0.029,0.291-0.092,0.341-0.184c0.051-0.092,0.077-0.285,0.077-0.581v-2.983c0-0.289-0.033-0.481-0.1-0.584
		c-0.066-0.1-0.207-0.166-0.422-0.201c-0.073-0.015-0.11-0.041-0.111-0.082c-0.002-0.051,0.031-0.076,0.101-0.076
		c0.019,0,0.04,0.005,0.063,0.007c0.169,0.021,0.395,0.03,0.675,0.03c0.172,0,0.319-0.006,0.442-0.012l0.233-0.021
		c0.044-0.002,0.073-0.005,0.087-0.005c0.063,0,0.094,0.021,0.094,0.063s-0.03,0.072-0.091,0.094l-0.181,0.069
		C97.21,53.197,97.125,53.477,97.125,53.966z"/>
	<path class="primarycolor" d="M99.989,53.771l1.338,3.071c0.033,0.077,0.063,0.114,0.09,0.111c0.023,0,0.065-0.065,0.125-0.198
		l0.057-0.13l0.763-1.813c0.329-0.778,0.493-1.278,0.493-1.504c0-0.076-0.018-0.131-0.052-0.162
		c-0.035-0.03-0.106-0.059-0.212-0.078c-0.13-0.024-0.193-0.057-0.191-0.096c0.002-0.043,0.041-0.063,0.115-0.063
		c0.016,0,0.05,0.001,0.101,0.003c0.172,0.01,0.276,0.015,0.311,0.015h0.143l0.157-0.004h0.087l0.296-0.003
		c0.047,0,0.07,0.021,0.07,0.063c0,0.033-0.024,0.059-0.073,0.076c-0.167,0.062-0.294,0.194-0.38,0.401l-0.093,0.226l-1.73,4.055
		c-0.048,0.115-0.095,0.171-0.141,0.171c-0.048,0-0.098-0.06-0.148-0.175l-1.766-4.092c-0.083-0.188-0.159-0.318-0.226-0.395
		c-0.068-0.074-0.159-0.122-0.275-0.145c-0.121-0.021-0.192-0.039-0.214-0.049c-0.021-0.011-0.033-0.029-0.033-0.057
		c0-0.045,0.032-0.068,0.098-0.068c0.019,0,0.052,0.004,0.101,0.008c0.04,0.004,0.157,0.008,0.351,0.008l0.331,0.004l0.233-0.004
		c0.049,0,0.124-0.006,0.224-0.016c0.046-0.004,0.079-0.007,0.097-0.007c0.063,0,0.094,0.021,0.094,0.063
		c0,0.031-0.023,0.058-0.07,0.074c-0.095,0.037-0.154,0.064-0.179,0.09c-0.025,0.024-0.037,0.065-0.037,0.127
		C99.843,53.382,99.892,53.545,99.989,53.771z"/>
	<path class="primarycolor" d="M105.685,53.495v1.403c0,0.107,0.01,0.174,0.03,0.193c0.02,0.022,0.08,0.033,0.18,0.033h0.536
		c0.244,0,0.437-0.016,0.579-0.042c0.125-0.022,0.206-0.062,0.243-0.101c0.037-0.043,0.071-0.142,0.102-0.295
		c0.011-0.058,0.041-0.084,0.089-0.082c0.045,0.002,0.068,0.033,0.068,0.095c0,0.017-0.002,0.042-0.004,0.075
		c-0.021,0.227-0.03,0.431-0.03,0.615c0,0.142,0.006,0.28,0.02,0.42c0.005,0.047,0.007,0.08,0.007,0.102
		c0,0.061-0.022,0.087-0.067,0.087c-0.05,0-0.08-0.022-0.089-0.076l-0.021-0.099c-0.028-0.154-0.083-0.262-0.167-0.315
		s-0.225-0.084-0.424-0.084h-0.768c-0.114,0-0.189,0.013-0.227,0.034c-0.039,0.021-0.058,0.07-0.058,0.143l0.003,0.113V57
		c0,0.197,0.035,0.32,0.106,0.37c0.071,0.049,0.25,0.071,0.538,0.071c0.911,0,1.496-0.203,1.756-0.614
		c0.024-0.04,0.052-0.062,0.078-0.063c0.043-0.002,0.063,0.027,0.063,0.09c0,0.151-0.086,0.332-0.254,0.539
		c-0.204,0.25-0.462,0.373-0.772,0.373c-0.068,0-0.158-0.002-0.272-0.013c-0.443-0.042-0.81-0.063-1.1-0.063
		c-0.406,0-0.692,0.017-0.86,0.043c-0.088,0.018-0.148,0.024-0.181,0.024c-0.074,0-0.111-0.024-0.111-0.075
		c0-0.039,0.03-0.064,0.09-0.082l0.132-0.037c0.167-0.047,0.25-0.211,0.25-0.487l0.003-0.228V53.9c0-0.332-0.037-0.558-0.109-0.672
		c-0.073-0.115-0.216-0.172-0.426-0.172c-0.068,0-0.101-0.022-0.101-0.065c0-0.063,0.052-0.095,0.157-0.095
		c0.058,0,0.136,0.004,0.233,0.017c0.332,0.037,0.731,0.058,1.198,0.058c0.283,0,0.533-0.006,0.752-0.016l0.494-0.023
		c0.137-0.005,0.22-0.01,0.251-0.015c0.062-0.01,0.109-0.015,0.139-0.015c0.077,0,0.115,0.035,0.115,0.103
		c0,0.021-0.003,0.046-0.01,0.078c-0.007,0.034-0.016,0.125-0.028,0.278l-0.014,0.205c-0.012,0.134-0.023,0.218-0.036,0.25
		c-0.012,0.033-0.038,0.053-0.078,0.055c-0.045,0.003-0.067-0.032-0.067-0.104v-0.094c0-0.072-0.014-0.146-0.042-0.212
		c-0.044-0.104-0.133-0.175-0.268-0.209c-0.134-0.035-0.381-0.052-0.74-0.052h-0.546c-0.144,0-0.237,0.02-0.278,0.054
		C105.706,53.292,105.685,53.372,105.685,53.495z"/>
	<path class="primarycolor" d="M111.838,55.316l0.96,1.418l0.112,0.166c0.297,0.436,0.57,0.662,0.82,0.678l0.11,0.008
		c0.042,0.002,0.063,0.02,0.062,0.05c-0.002,0.036-0.055,0.066-0.155,0.097c-0.101,0.026-0.216,0.041-0.343,0.041
		c-0.209,0-0.397-0.058-0.563-0.172c-0.166-0.115-0.335-0.303-0.506-0.563l-0.868-1.324l-0.048-0.076
		c-0.058-0.095-0.146-0.143-0.272-0.143h-0.463l-0.076,0.015c-0.026,0.017-0.041,0.054-0.041,0.112v1.09l0.002,0.141
		c0,0.199,0.013,0.336,0.031,0.408c0.021,0.074,0.066,0.141,0.143,0.199c0.099,0.077,0.254,0.128,0.463,0.148
		c0.083,0.01,0.126,0.035,0.128,0.078c0.005,0.045-0.033,0.067-0.114,0.067c-0.031,0-0.101-0.005-0.203-0.016
		c-0.098-0.013-0.244-0.017-0.443-0.017l-0.334-0.004l-0.182,0.004c-0.078,0-0.176,0.004-0.285,0.018
		c-0.09,0.01-0.153,0.015-0.188,0.015c-0.058,0-0.087-0.022-0.087-0.071c0-0.033,0.029-0.058,0.087-0.067
		c0.187-0.034,0.308-0.118,0.366-0.253c0.058-0.133,0.086-0.396,0.086-0.788V54.07l-0.006-0.363c0-0.361-0.127-0.564-0.381-0.605
		l-0.164-0.023c-0.073-0.014-0.11-0.04-0.11-0.081c0-0.048,0.04-0.072,0.118-0.072c0.019,0,0.1,0.007,0.244,0.017
		c0.082,0.008,0.187,0.01,0.31,0.01c0.106,0,0.289-0.008,0.547-0.024c0.187-0.011,0.351-0.018,0.491-0.018
		c0.534,0,0.938,0.102,1.208,0.302c0.271,0.201,0.407,0.5,0.407,0.896C112.697,54.628,112.411,55.031,111.838,55.316z
		 M110.813,55.242h0.396c0.305,0,0.544-0.084,0.719-0.251c0.174-0.168,0.262-0.397,0.262-0.688c0-0.338-0.119-0.615-0.354-0.834
		c-0.235-0.218-0.54-0.326-0.905-0.326c-0.139,0-0.232,0.022-0.285,0.068c-0.054,0.045-0.078,0.127-0.078,0.246l0.004,0.115v1.419
		c0,0.108,0.014,0.178,0.043,0.208C110.639,55.229,110.707,55.242,110.813,55.242z"/>
	<path class="primarycolor" d="M116.338,52.857c0.249,0,0.458,0.035,0.631,0.105l0.24,0.102c0.021,0.011,0.042,0.016,0.063,0.016
		c0.027,0,0.059-0.012,0.084-0.035l0.049-0.041c0.008-0.01,0.021-0.015,0.039-0.015c0.059-0.003,0.086,0.055,0.086,0.171
		c0,0.04,0.018,0.156,0.047,0.354l0.057,0.356c0.012,0.077,0.018,0.125,0.018,0.144c0,0.071-0.024,0.106-0.073,0.106
		c-0.038,0-0.075-0.056-0.113-0.167c-0.083-0.252-0.253-0.459-0.508-0.622c-0.257-0.162-0.541-0.245-0.856-0.245
		c-0.25,0-0.459,0.074-0.627,0.223c-0.168,0.147-0.252,0.332-0.252,0.553c0,0.195,0.057,0.363,0.164,0.507
		c0.096,0.121,0.199,0.209,0.313,0.266c0.11,0.056,0.388,0.156,0.827,0.304c0.857,0.279,1.287,0.74,1.287,1.383
		c0,0.434-0.158,0.787-0.475,1.063c-0.314,0.276-0.721,0.414-1.215,0.414c-0.18,0-0.375-0.023-0.592-0.076
		c-0.213-0.052-0.37-0.109-0.471-0.178c-0.041-0.027-0.07-0.061-0.082-0.09c-0.017-0.031-0.035-0.111-0.063-0.242
		c-0.005-0.02-0.034-0.123-0.087-0.314c-0.061-0.209-0.092-0.357-0.092-0.446c0-0.069,0.023-0.103,0.07-0.101
		c0.045,0.002,0.08,0.059,0.113,0.172c0.084,0.287,0.262,0.528,0.528,0.727c0.268,0.195,0.56,0.292,0.875,0.292
		c0.317,0,0.589-0.095,0.811-0.281c0.222-0.188,0.331-0.417,0.331-0.688c0-0.256-0.104-0.475-0.307-0.649
		c-0.104-0.091-0.405-0.22-0.903-0.387c-0.517-0.177-0.879-0.366-1.093-0.578c-0.217-0.211-0.322-0.483-0.322-0.819
		c0-0.377,0.141-0.683,0.42-0.92C115.537,52.977,115.896,52.857,116.338,52.857z"/>
	<path class="primarycolor" d="M120.245,53.966v2.611c0,0.325,0.021,0.541,0.06,0.646c0.047,0.118,0.104,0.202,0.172,0.252
		c0.069,0.049,0.176,0.084,0.322,0.104c0.116,0.019,0.174,0.045,0.174,0.086c0,0.054-0.035,0.082-0.106,0.082
		c-0.034,0-0.078-0.004-0.134-0.015c-0.069-0.01-0.193-0.016-0.366-0.016l-0.507-0.007l-0.409,0.022
		c-0.068,0.009-0.123,0.013-0.168,0.013c-0.063,0-0.095-0.024-0.095-0.071c0-0.042,0.035-0.066,0.107-0.078
		c0.176-0.029,0.29-0.092,0.342-0.184c0.051-0.092,0.076-0.285,0.076-0.581v-2.983c0-0.289-0.033-0.481-0.1-0.584
		c-0.065-0.1-0.207-0.166-0.424-0.201c-0.072-0.015-0.109-0.041-0.111-0.082c-0.001-0.051,0.031-0.076,0.102-0.076
		c0.021,0,0.041,0.005,0.063,0.007c0.169,0.021,0.396,0.03,0.675,0.03c0.173,0,0.32-0.006,0.443-0.012l0.231-0.021
		c0.044-0.002,0.073-0.005,0.087-0.005c0.063,0,0.096,0.021,0.096,0.063s-0.029,0.072-0.092,0.094l-0.182,0.069
		C120.33,53.197,120.245,53.477,120.245,53.966z"/>
	<path class="primarycolor" d="M125.51,53.313h-0.979c-0.102,0-0.166,0.016-0.192,0.043c-0.026,0.026-0.041,0.097-0.041,0.205v3.418
		l0.004,0.137c0.013,0.271,0.164,0.434,0.456,0.484c0.081,0.012,0.122,0.039,0.122,0.078c0,0.049-0.032,0.074-0.098,0.074
		c-0.028,0-0.085-0.007-0.171-0.021c-0.045-0.006-0.149-0.01-0.314-0.01l-0.254-0.005l-0.273,0.005c-0.097,0-0.18,0.004-0.246,0.01
		c-0.133,0.016-0.211,0.021-0.233,0.021c-0.067,0-0.104-0.025-0.104-0.074c0-0.035,0.037-0.06,0.113-0.068
		c0.18-0.022,0.301-0.071,0.362-0.146c0.063-0.074,0.095-0.211,0.095-0.404V53.6l-0.004-0.091c0-0.084-0.012-0.138-0.037-0.159
		c-0.023-0.023-0.08-0.035-0.169-0.035h-0.923c-0.188,0-0.323,0.037-0.408,0.111c-0.085,0.076-0.15,0.219-0.197,0.428
		c-0.021,0.09-0.052,0.136-0.094,0.133c-0.042-0.004-0.063-0.032-0.063-0.094c0-0.05,0.014-0.139,0.041-0.268
		c0.033-0.168,0.053-0.307,0.053-0.413s0.012-0.178,0.037-0.211c0.023-0.033,0.074-0.05,0.154-0.05h3.75
		c0.127,0,0.205,0.014,0.229,0.042c0.024,0.026,0.04,0.108,0.04,0.246c0,0.137,0.006,0.235,0.02,0.298
		c0.01,0.079,0.019,0.136,0.021,0.17c0.002,0.07-0.021,0.107-0.073,0.109c-0.042,0.004-0.068-0.031-0.084-0.106
		c-0.029-0.165-0.078-0.271-0.146-0.321C125.835,53.338,125.705,53.313,125.51,53.313z"/>
	<path class="primarycolor" d="M129.666,56.992c0,0.27,0.021,0.435,0.066,0.496c0.043,0.06,0.17,0.101,0.379,0.121
		c0.072,0.007,0.106,0.031,0.106,0.072c0,0.055-0.041,0.082-0.12,0.082c-0.025,0-0.089-0.008-0.184-0.02
		c-0.061-0.01-0.145-0.016-0.255-0.021l-0.275-0.016l-0.271,0.007c-0.174,0-0.287,0.005-0.346,0.013
		c-0.067,0.013-0.111,0.018-0.134,0.018c-0.054,0-0.079-0.021-0.079-0.059c0-0.047,0.037-0.074,0.113-0.086
		c0.193-0.026,0.316-0.08,0.371-0.156c0.052-0.073,0.078-0.234,0.078-0.483l0.004-0.149v-1.039c0-0.148-0.012-0.258-0.031-0.328
		c-0.021-0.068-0.07-0.168-0.152-0.297l-0.974-1.543l-0.116-0.193c-0.068-0.108-0.162-0.197-0.285-0.266
		c-0.123-0.069-0.244-0.104-0.365-0.104c-0.066,0-0.102-0.021-0.102-0.063c0-0.053,0.034-0.078,0.105-0.078
		c0.058,0,0.117,0.004,0.178,0.014c0.148,0.02,0.311,0.025,0.475,0.025c0.342,0,0.558-0.006,0.652-0.017
		c0.104-0.01,0.162-0.017,0.186-0.017c0.065,0,0.101,0.022,0.101,0.068c0,0.032-0.026,0.06-0.08,0.074
		c-0.155,0.046-0.233,0.124-0.233,0.237c0,0.062,0.051,0.171,0.151,0.334l0.099,0.167l0.73,1.148l0.046,0.071
		c0.021,0.032,0.042,0.05,0.063,0.05c0.022,0,0.049-0.018,0.072-0.05l0.033-0.052l0.504-0.766l0.17-0.271
		c0.164-0.257,0.242-0.43,0.242-0.518c0-0.155-0.146-0.27-0.438-0.338c-0.06-0.014-0.086-0.041-0.084-0.08
		c0.004-0.039,0.029-0.06,0.082-0.06c0.033,0,0.097,0.006,0.186,0.021c0.066,0.01,0.229,0.016,0.488,0.016
		c0.236,0,0.388-0.003,0.453-0.012c0.089-0.008,0.15-0.014,0.185-0.016c0.063-0.007,0.095,0.016,0.095,0.062
		c0,0.034-0.026,0.063-0.088,0.081c-0.205,0.066-0.378,0.197-0.515,0.391l-0.226,0.34l-0.849,1.262l-0.084,0.117
		c-0.087,0.127-0.132,0.241-0.132,0.348L129.666,56.992L129.666,56.992z"/>
	<path class="primarycolor" d="M137.434,52.857c0.728,0,1.322,0.224,1.787,0.672c0.465,0.449,0.698,1.022,0.698,1.725
		c0,0.742-0.233,1.352-0.704,1.827c-0.468,0.476-1.068,0.714-1.799,0.714c-0.751,0-1.355-0.229-1.82-0.684
		c-0.463-0.454-0.693-1.049-0.693-1.786c0-0.321,0.063-0.64,0.185-0.953c0.121-0.313,0.285-0.576,0.492-0.788
		c0.218-0.223,0.494-0.398,0.828-0.529C136.74,52.923,137.082,52.857,137.434,52.857z M137.207,53.082
		c-0.538,0-0.966,0.184-1.283,0.545c-0.316,0.363-0.475,0.852-0.475,1.466c0,0.702,0.201,1.294,0.605,1.776
		c0.405,0.482,0.903,0.724,1.493,0.724c0.539,0,0.984-0.196,1.335-0.59c0.352-0.394,0.525-0.892,0.525-1.492
		c0-0.692-0.211-1.271-0.633-1.733C138.357,53.316,137.836,53.082,137.207,53.082z"/>
	<path class="primarycolor" d="M142.361,53.48v1.375l0.005,0.065v0.09c0.01,0.063,0.075,0.095,0.196,0.095l0.299,0.008l0.115-0.004
		l0.406-0.008c0.215,0,0.368-0.031,0.467-0.096c0.096-0.063,0.157-0.174,0.185-0.329c0.009-0.057,0.032-0.084,0.071-0.084
		c0.045,0,0.063,0.036,0.062,0.107l-0.021,0.344c-0.004,0.044-0.004,0.115-0.004,0.212c0,0.271,0.004,0.443,0.015,0.52
		c0.005,0.043,0.007,0.076,0.007,0.098c0,0.057-0.021,0.083-0.064,0.083c-0.045,0-0.08-0.058-0.104-0.17
		c-0.027-0.124-0.06-0.207-0.091-0.252c-0.031-0.043-0.086-0.075-0.162-0.093c-0.154-0.041-0.385-0.063-0.686-0.063
		c-0.275,0-0.457,0.008-0.539,0.02c-0.082,0.013-0.127,0.039-0.136,0.08c-0.013,0.045-0.019,0.112-0.019,0.209v1.301
		c0,0.184,0.048,0.33,0.146,0.438c0.097,0.108,0.229,0.164,0.394,0.164c0.08,0,0.121,0.022,0.123,0.067
		c0.004,0.053-0.03,0.076-0.104,0.076c-0.051,0-0.122-0.004-0.213-0.016c-0.076-0.01-0.188-0.016-0.341-0.016l-0.242-0.003
		l-0.27,0.003c-0.058,0-0.137,0.005-0.235,0.016c-0.082,0.004-0.142,0.008-0.181,0.01c-0.065,0.002-0.101-0.02-0.101-0.061
		c0-0.037,0.036-0.063,0.106-0.079c0.148-0.032,0.25-0.096,0.305-0.188c0.055-0.092,0.08-0.254,0.08-0.479v-3.142
		c0-0.221-0.036-0.391-0.107-0.51c-0.047-0.078-0.099-0.134-0.154-0.16c-0.055-0.026-0.149-0.047-0.288-0.06
		c-0.056-0.005-0.085-0.024-0.087-0.063c-0.004-0.059,0.041-0.09,0.141-0.09c0.027,0,0.104,0.008,0.215,0.021
		c0.208,0.021,0.559,0.031,1.051,0.031c0.438,0,0.721-0.005,0.846-0.011l0.482-0.024c0.211-0.011,0.346-0.021,0.404-0.031
		c0.044-0.01,0.082-0.014,0.113-0.014c0.053,0,0.076,0.024,0.076,0.081c0,0.025-0.006,0.064-0.018,0.113
		c-0.039,0.15-0.061,0.354-0.061,0.607c0,0.105-0.028,0.161-0.092,0.161c-0.035,0-0.058-0.028-0.063-0.087
		c-0.006-0.072-0.02-0.146-0.038-0.221c-0.028-0.119-0.065-0.194-0.11-0.229c-0.045-0.031-0.146-0.059-0.302-0.07l-0.407-0.043
		c-0.133-0.013-0.295-0.019-0.494-0.019c-0.258,0-0.42,0.019-0.481,0.052C142.395,53.254,142.361,53.341,142.361,53.48z"/>
	<path class="primarycolor" d="M149.635,52.857c0.249,0,0.458,0.035,0.631,0.105l0.239,0.102c0.021,0.011,0.042,0.016,0.063,0.016
		c0.027,0,0.055-0.012,0.084-0.035l0.048-0.041c0.007-0.01,0.021-0.015,0.038-0.015c0.059-0.003,0.087,0.055,0.087,0.171
		c0,0.04,0.016,0.156,0.046,0.354l0.057,0.356c0.012,0.077,0.018,0.125,0.018,0.144c0,0.071-0.024,0.106-0.073,0.106
		c-0.038,0-0.075-0.056-0.114-0.167c-0.083-0.252-0.252-0.459-0.509-0.622c-0.255-0.162-0.541-0.245-0.854-0.245
		c-0.248,0-0.459,0.074-0.625,0.223c-0.168,0.147-0.252,0.332-0.252,0.553c0,0.195,0.053,0.363,0.162,0.507
		c0.096,0.121,0.197,0.209,0.313,0.266c0.111,0.056,0.389,0.156,0.828,0.304c0.857,0.279,1.287,0.74,1.287,1.383
		c0,0.434-0.158,0.787-0.475,1.063c-0.316,0.276-0.721,0.414-1.216,0.414c-0.178,0-0.374-0.023-0.59-0.076
		c-0.216-0.052-0.372-0.109-0.474-0.178c-0.041-0.027-0.067-0.061-0.084-0.09c-0.013-0.031-0.033-0.111-0.063-0.242
		c-0.005-0.02-0.033-0.123-0.087-0.314c-0.06-0.209-0.091-0.357-0.091-0.446c0-0.069,0.021-0.103,0.07-0.101
		c0.043,0.002,0.08,0.059,0.113,0.172c0.082,0.287,0.26,0.528,0.527,0.727c0.269,0.195,0.561,0.292,0.875,0.292
		c0.318,0,0.59-0.095,0.811-0.281c0.223-0.188,0.332-0.417,0.332-0.688c0-0.256-0.102-0.475-0.307-0.649
		c-0.104-0.091-0.405-0.22-0.903-0.387c-0.516-0.177-0.879-0.366-1.094-0.578c-0.215-0.211-0.321-0.483-0.321-0.819
		c0-0.377,0.141-0.683,0.42-0.92C148.833,52.977,149.193,52.857,149.635,52.857z"/>
	<path class="primarycolor" d="M154.92,52.857c0.727,0,1.323,0.224,1.789,0.672c0.464,0.449,0.697,1.022,0.697,1.725
		c0,0.742-0.234,1.352-0.703,1.827s-1.069,0.714-1.801,0.714c-0.75,0-1.355-0.229-1.818-0.684c-0.464-0.454-0.693-1.049-0.693-1.786
		c0-0.321,0.062-0.64,0.184-0.953c0.119-0.313,0.283-0.576,0.49-0.788c0.22-0.223,0.494-0.398,0.828-0.529
		C154.229,52.923,154.568,52.857,154.92,52.857z M154.695,53.082c-0.539,0-0.967,0.184-1.284,0.545
		c-0.315,0.363-0.476,0.852-0.476,1.466c0,0.702,0.203,1.294,0.605,1.776c0.406,0.482,0.902,0.724,1.494,0.724
		c0.539,0,0.982-0.196,1.335-0.59s0.524-0.892,0.524-1.492c0-0.692-0.211-1.271-0.631-1.733
		C155.848,53.314,155.322,53.082,154.695,53.082z"/>
	<path class="primarycolor" d="M162.949,55.695v-1.801c0-0.291-0.041-0.502-0.125-0.635c-0.084-0.13-0.227-0.203-0.426-0.224
		c-0.066-0.009-0.102-0.031-0.102-0.075c0-0.049,0.021-0.072,0.069-0.068c0.05,0,0.124,0.012,0.222,0.025
		c0.088,0.016,0.193,0.021,0.314,0.021c0.261,0,0.42-0.004,0.479-0.01c0.081-0.01,0.134-0.013,0.152-0.013
		c0.045,0,0.065,0.021,0.065,0.062c0,0.035-0.023,0.063-0.074,0.082c-0.141,0.06-0.231,0.141-0.273,0.244s-0.063,0.303-0.063,0.592
		v1.725c0,0.634-0.127,1.121-0.379,1.463c-0.16,0.215-0.391,0.389-0.688,0.518s-0.617,0.192-0.955,0.192
		c-0.396,0-0.75-0.077-1.065-0.229c-0.313-0.152-0.545-0.36-0.691-0.623c-0.164-0.303-0.247-0.693-0.247-1.182v-1.769l-0.007-0.198
		c0-0.249-0.034-0.419-0.104-0.514c-0.067-0.094-0.206-0.156-0.411-0.188c-0.063-0.01-0.095-0.033-0.095-0.07
		c0-0.057,0.044-0.082,0.134-0.082c0.057,0,0.137,0.002,0.238,0.006c0.105,0.008,0.186,0.012,0.232,0.012l0.27-0.004h0.266
		c0.027,0,0.092-0.005,0.193-0.014c0.087-0.008,0.146-0.01,0.178-0.01c0.055,0,0.08,0.018,0.08,0.053
		c0,0.043-0.037,0.072-0.111,0.086c-0.133,0.029-0.223,0.089-0.27,0.176c-0.045,0.088-0.068,0.242-0.068,0.469l0.008,0.229v1.754
		c0,0.601,0.094,1.025,0.279,1.279c0.262,0.363,0.703,0.545,1.319,0.545c0.554,0,0.968-0.15,1.242-0.455
		C162.811,56.762,162.949,56.307,162.949,55.695z"/>
	<path class="primarycolor" d="M168.293,53.313h-0.979c-0.104,0-0.166,0.016-0.193,0.043c-0.025,0.026-0.04,0.097-0.04,0.205v3.418
		l0.004,0.137c0.013,0.271,0.164,0.434,0.456,0.484c0.081,0.012,0.122,0.039,0.122,0.078c0,0.049-0.032,0.074-0.099,0.074
		c-0.027,0-0.086-0.007-0.172-0.021c-0.043-0.006-0.147-0.01-0.313-0.01l-0.255-0.005l-0.271,0.005c-0.1,0-0.181,0.004-0.248,0.01
		c-0.133,0.016-0.211,0.021-0.234,0.021c-0.067,0-0.104-0.025-0.104-0.074c0-0.035,0.038-0.06,0.115-0.068
		c0.178-0.022,0.299-0.071,0.361-0.146c0.062-0.074,0.095-0.211,0.095-0.404V53.6l-0.004-0.091c0-0.084-0.013-0.138-0.037-0.159
		c-0.024-0.023-0.081-0.035-0.169-0.035h-0.924c-0.188,0-0.323,0.037-0.407,0.111c-0.086,0.076-0.149,0.219-0.197,0.428
		c-0.021,0.09-0.052,0.136-0.094,0.133c-0.042-0.004-0.063-0.032-0.063-0.094c0-0.05,0.017-0.139,0.043-0.268
		c0.035-0.168,0.053-0.307,0.053-0.413s0.013-0.178,0.035-0.211c0.025-0.033,0.076-0.05,0.156-0.05h3.75
		c0.127,0,0.203,0.014,0.231,0.042c0.026,0.026,0.039,0.108,0.039,0.246c0,0.137,0.006,0.235,0.019,0.298
		c0.012,0.079,0.018,0.136,0.02,0.17c0.005,0.07-0.021,0.107-0.07,0.109c-0.042,0.004-0.068-0.031-0.084-0.106
		c-0.029-0.165-0.079-0.271-0.146-0.321S168.488,53.313,168.293,53.313z"/>
	<path class="primarycolor" d="M171.426,55.105h2.055c0.104,0,0.168-0.008,0.195-0.027c0.027-0.018,0.042-0.061,0.042-0.126v-1.19
		c0-0.24-0.03-0.41-0.093-0.511s-0.175-0.169-0.34-0.206c-0.069-0.013-0.104-0.04-0.102-0.082c0.002-0.038,0.03-0.059,0.088-0.059
		c0.049,0,0.129,0.008,0.235,0.019c0.152,0.019,0.315,0.024,0.487,0.024c0.248,0,0.423-0.006,0.521-0.021
		c0.063-0.01,0.104-0.015,0.129-0.015c0.057,0,0.082,0.022,0.082,0.067c0,0.037-0.025,0.062-0.082,0.071l-0.145,0.029
		c-0.072,0.017-0.132,0.065-0.182,0.155c-0.047,0.091-0.072,0.191-0.072,0.31v3.366c0,0.248,0.035,0.421,0.104,0.517
		c0.069,0.097,0.203,0.152,0.4,0.175c0.072,0.01,0.109,0.031,0.111,0.067c0.005,0.056-0.027,0.081-0.098,0.081
		c-0.049,0-0.107-0.006-0.183-0.02c-0.058-0.008-0.171-0.014-0.351-0.014l-0.256-0.004l-0.263,0.008
		c-0.042,0-0.097,0.004-0.167,0.01c-0.145,0.014-0.225,0.02-0.24,0.02c-0.059,0.002-0.086-0.021-0.082-0.066
		c0.002-0.041,0.041-0.067,0.117-0.078c0.243-0.043,0.365-0.24,0.365-0.598l0.004-0.137v-1.279c0-0.107-0.012-0.174-0.031-0.191
		c-0.02-0.019-0.091-0.026-0.209-0.026h-2.052c-0.132,0-0.214,0.015-0.246,0.04s-0.05,0.094-0.05,0.203v1.277
		c0,0.24,0.039,0.412,0.115,0.508c0.076,0.1,0.219,0.158,0.429,0.182c0.085,0.01,0.129,0.038,0.132,0.09
		c0.002,0.047-0.031,0.071-0.102,0.071c-0.029,0-0.088-0.005-0.17-0.017c-0.063-0.012-0.201-0.017-0.418-0.017l-0.293-0.004
		l-0.229,0.007c-0.058,0-0.131,0.006-0.22,0.014c-0.12,0.012-0.193,0.017-0.219,0.017c-0.061,0-0.088-0.022-0.088-0.065
		c0-0.039,0.029-0.068,0.092-0.08l0.174-0.043c0.102-0.021,0.172-0.101,0.207-0.229c0.039-0.131,0.058-0.359,0.058-0.686v-2.994
		c0-0.203-0.038-0.35-0.114-0.439s-0.213-0.15-0.41-0.182c-0.066-0.008-0.104-0.033-0.104-0.074c0-0.049,0.031-0.07,0.092-0.068
		c0.045,0.004,0.113,0.01,0.209,0.021c0.182,0.021,0.395,0.031,0.637,0.031c0.166,0,0.32-0.011,0.465-0.027
		c0.063-0.01,0.111-0.014,0.146-0.014c0.066,0,0.1,0.022,0.1,0.069c0,0.037-0.029,0.063-0.092,0.078
		c-0.156,0.04-0.263,0.099-0.313,0.169c-0.056,0.074-0.08,0.196-0.08,0.369v1.247c0,0.133,0.014,0.212,0.041,0.235
		C171.197,55.094,171.282,55.105,171.426,55.105z"/>
	<path class="primarycolor" d="M179.807,53.48v1.375l0.004,0.065v0.09c0.01,0.063,0.076,0.095,0.197,0.095l0.299,0.008l0.114-0.004
		l0.408-0.008c0.213,0,0.366-0.031,0.464-0.096s0.158-0.174,0.186-0.329c0.011-0.057,0.033-0.084,0.071-0.084
		c0.044,0,0.064,0.036,0.062,0.107l-0.021,0.344c-0.002,0.044-0.004,0.115-0.004,0.212c0,0.271,0.005,0.443,0.017,0.52
		c0.004,0.043,0.008,0.076,0.008,0.098c0,0.057-0.022,0.083-0.065,0.083c-0.045,0-0.081-0.058-0.106-0.17
		c-0.025-0.124-0.058-0.207-0.09-0.252c-0.031-0.043-0.086-0.075-0.162-0.093c-0.154-0.041-0.383-0.063-0.684-0.063
		c-0.277,0-0.458,0.008-0.539,0.02c-0.083,0.013-0.128,0.039-0.138,0.08c-0.011,0.045-0.017,0.112-0.017,0.209v1.301
		c0,0.184,0.047,0.33,0.146,0.438s0.229,0.164,0.396,0.164c0.078,0,0.119,0.022,0.119,0.067c0.006,0.053-0.029,0.076-0.104,0.076
		c-0.053,0-0.122-0.004-0.213-0.016c-0.077-0.01-0.19-0.016-0.342-0.016L179.57,57.7l-0.27,0.003c-0.058,0-0.138,0.005-0.236,0.016
		c-0.08,0.004-0.141,0.008-0.18,0.01c-0.064,0.002-0.1-0.02-0.1-0.061c0-0.037,0.033-0.063,0.105-0.079
		c0.148-0.032,0.25-0.096,0.303-0.188c0.056-0.092,0.08-0.254,0.08-0.479v-3.142c0-0.221-0.035-0.391-0.105-0.51
		c-0.047-0.078-0.1-0.134-0.152-0.16c-0.058-0.026-0.152-0.047-0.289-0.06c-0.057-0.005-0.084-0.024-0.086-0.063
		c-0.007-0.059,0.041-0.09,0.139-0.09c0.029,0,0.102,0.008,0.216,0.021c0.207,0.021,0.558,0.031,1.049,0.031
		c0.438,0,0.722-0.005,0.847-0.011l0.483-0.024c0.208-0.011,0.344-0.021,0.403-0.031c0.043-0.01,0.082-0.014,0.115-0.014
		c0.051,0,0.074,0.024,0.074,0.081c0,0.025-0.006,0.064-0.017,0.113c-0.04,0.15-0.062,0.354-0.062,0.607
		c0,0.105-0.031,0.161-0.093,0.161c-0.036,0-0.056-0.028-0.062-0.087c-0.006-0.072-0.021-0.146-0.039-0.221
		c-0.028-0.119-0.065-0.194-0.111-0.229c-0.044-0.031-0.145-0.059-0.299-0.07l-0.41-0.043c-0.13-0.013-0.294-0.019-0.493-0.019
		c-0.258,0-0.42,0.019-0.481,0.052C179.838,53.254,179.807,53.341,179.807,53.48z"/>
	<path class="primarycolor" d="M184.2,56.768l0.004,0.121c0,0.278,0.026,0.444,0.08,0.495c0.053,0.052,0.228,0.077,0.522,0.077
		c0.435,0,0.813-0.052,1.131-0.156c0.318-0.103,0.522-0.238,0.61-0.408c0.032-0.063,0.063-0.095,0.101-0.095
		c0.035,0,0.054,0.023,0.052,0.07c-0.011,0.151-0.085,0.319-0.228,0.502c-0.199,0.253-0.523,0.379-0.974,0.379
		c-0.074,0-0.16-0.004-0.258-0.011l-0.376-0.027c-0.223-0.018-0.455-0.025-0.7-0.025c-0.286,0-0.524,0.017-0.72,0.043
		c-0.08,0.013-0.146,0.02-0.194,0.021c-0.06,0.002-0.087-0.02-0.087-0.063c0-0.034,0.029-0.063,0.095-0.08
		c0.161-0.049,0.271-0.121,0.324-0.217c0.056-0.094,0.082-0.25,0.082-0.476l0.004-0.161v-3.115c0-0.311-0.126-0.49-0.376-0.541
		l-0.157-0.031c-0.056-0.012-0.081-0.033-0.081-0.068c0-0.052,0.037-0.078,0.116-0.078c0.054,0,0.126,0.006,0.22,0.016
		c0.156,0.015,0.334,0.021,0.529,0.021c0.214,0,0.407-0.006,0.581-0.018c0.089-0.006,0.14-0.008,0.147-0.008
		c0.059,0,0.084,0.019,0.084,0.051c0,0.051-0.031,0.084-0.102,0.099l-0.121,0.028c-0.209,0.053-0.313,0.26-0.313,0.623L184.2,56.768
		L184.2,56.768z"/>
	<path class="primarycolor" d="M190.15,52.857c0.726,0,1.32,0.224,1.787,0.672c0.465,0.449,0.696,1.022,0.696,1.725
		c0,0.742-0.233,1.352-0.702,1.827c-0.47,0.476-1.068,0.714-1.802,0.714c-0.749,0-1.354-0.229-1.817-0.684
		c-0.463-0.454-0.694-1.049-0.694-1.786c0-0.321,0.062-0.64,0.183-0.953c0.123-0.313,0.287-0.576,0.494-0.788
		c0.219-0.223,0.493-0.398,0.828-0.529C189.457,52.923,189.8,52.857,190.15,52.857z M189.925,53.082
		c-0.538,0-0.967,0.184-1.284,0.545c-0.315,0.363-0.476,0.852-0.476,1.466c0,0.702,0.202,1.294,0.608,1.776
		c0.404,0.482,0.9,0.724,1.492,0.724c0.539,0,0.982-0.196,1.336-0.59c0.351-0.394,0.524-0.892,0.524-1.492
		c0-0.692-0.211-1.271-0.631-1.733C191.076,53.316,190.553,53.082,189.925,53.082z"/>
	<path class="primarycolor" d="M196.341,55.316l0.96,1.418l0.111,0.166c0.297,0.436,0.572,0.662,0.822,0.678l0.111,0.008
		c0.041,0.002,0.062,0.02,0.059,0.05c-0.002,0.036-0.055,0.066-0.154,0.097c-0.1,0.026-0.215,0.041-0.342,0.041
		c-0.21,0-0.396-0.058-0.563-0.172c-0.169-0.115-0.338-0.303-0.51-0.563l-0.865-1.324l-0.05-0.076
		c-0.056-0.095-0.146-0.143-0.271-0.143h-0.463l-0.076,0.015c-0.027,0.017-0.043,0.054-0.043,0.112v1.09l0.005,0.141
		c0,0.199,0.01,0.336,0.028,0.408c0.021,0.074,0.066,0.141,0.143,0.199c0.1,0.077,0.254,0.128,0.462,0.148
		c0.084,0.01,0.127,0.035,0.13,0.078c0.005,0.045-0.033,0.067-0.115,0.067c-0.031,0-0.101-0.005-0.205-0.016
		c-0.096-0.013-0.242-0.017-0.44-0.017l-0.334-0.004l-0.183,0.004c-0.08,0-0.175,0.004-0.285,0.018
		c-0.09,0.01-0.152,0.015-0.188,0.015c-0.061,0-0.087-0.022-0.087-0.071c0-0.033,0.026-0.058,0.087-0.067
		c0.188-0.034,0.309-0.118,0.365-0.253c0.059-0.133,0.088-0.396,0.088-0.788V54.07l-0.008-0.363c0-0.361-0.125-0.564-0.381-0.605
		l-0.161-0.023c-0.074-0.014-0.112-0.04-0.112-0.081c0-0.048,0.039-0.072,0.118-0.072c0.021,0,0.103,0.007,0.244,0.017
		c0.084,0.008,0.187,0.01,0.311,0.01c0.106,0,0.288-0.008,0.548-0.024c0.186-0.011,0.35-0.018,0.488-0.018
		c0.535,0,0.938,0.102,1.21,0.302c0.271,0.201,0.406,0.5,0.406,0.896C197.2,54.628,196.914,55.031,196.341,55.316z M195.316,55.242
		h0.396c0.306,0,0.543-0.084,0.72-0.251c0.174-0.168,0.262-0.397,0.262-0.688c0-0.338-0.119-0.615-0.356-0.834
		c-0.237-0.218-0.54-0.326-0.907-0.326c-0.138,0-0.23,0.022-0.283,0.068c-0.054,0.045-0.08,0.127-0.08,0.246l0.004,0.115v1.419
		c0,0.108,0.017,0.178,0.047,0.208C195.143,55.229,195.21,55.242,195.316,55.242z"/>
	<path class="primarycolor" d="M200.462,53.966v2.611c0,0.325,0.021,0.541,0.06,0.646c0.047,0.118,0.104,0.202,0.174,0.252
		c0.066,0.049,0.177,0.084,0.32,0.104c0.116,0.019,0.174,0.045,0.174,0.086c0,0.054-0.035,0.082-0.105,0.082
		c-0.035,0-0.079-0.004-0.132-0.015c-0.073-0.01-0.195-0.016-0.37-0.016l-0.504-0.007l-0.412,0.022
		c-0.064,0.009-0.123,0.013-0.166,0.013c-0.063,0-0.096-0.024-0.096-0.071c0-0.042,0.035-0.066,0.107-0.078
		c0.178-0.029,0.29-0.092,0.342-0.184c0.051-0.092,0.076-0.285,0.076-0.581v-2.983c0-0.289-0.033-0.481-0.099-0.584
		c-0.067-0.1-0.207-0.166-0.424-0.201c-0.072-0.015-0.109-0.041-0.111-0.082c-0.003-0.051,0.031-0.076,0.101-0.076
		c0.021,0,0.039,0.005,0.063,0.007c0.169,0.021,0.394,0.03,0.675,0.03c0.172,0,0.319-0.006,0.441-0.012l0.234-0.021
		c0.043-0.002,0.07-0.005,0.086-0.005c0.063,0,0.096,0.021,0.096,0.063s-0.031,0.072-0.092,0.094l-0.18,0.069
		C200.548,53.197,200.462,53.477,200.462,53.966z"/>
	<path class="primarycolor" d="M202.98,53.781c0-0.235-0.039-0.406-0.117-0.518c-0.078-0.109-0.211-0.174-0.393-0.19
		c-0.078-0.009-0.115-0.03-0.115-0.072c0-0.045,0.028-0.067,0.09-0.067l0.274,0.016c0.028,0.002,0.108,0.004,0.243,0.004
		c0.232,0,0.417-0.008,0.546-0.02l0.324-0.031c0.142-0.012,0.293-0.018,0.46-0.018c0.952,0,1.666,0.239,2.143,0.719
		c0.435,0.438,0.649,0.994,0.649,1.674c0,0.438-0.095,0.843-0.285,1.209c-0.188,0.367-0.452,0.654-0.793,0.865
		c-0.428,0.271-0.896,0.401-1.399,0.401c-0.062,0-0.166-0.006-0.319-0.019c-0.312-0.021-0.582-0.03-0.812-0.03
		c-0.248,0-0.466,0.013-0.648,0.038c-0.083,0.012-0.148,0.019-0.197,0.021c-0.081,0.004-0.122-0.021-0.122-0.08
		c0-0.037,0.032-0.063,0.097-0.078c0.158-0.031,0.262-0.09,0.309-0.174s0.068-0.256,0.068-0.514v-3.139h-0.002V53.781z
		 M203.516,53.504v3.584c0,0.143,0.069,0.24,0.213,0.293c0.121,0.046,0.278,0.087,0.472,0.122c0.19,0.033,0.354,0.052,0.483,0.052
		c0.396,0,0.754-0.1,1.071-0.299c0.538-0.334,0.808-0.9,0.808-1.703c0-0.437-0.084-0.837-0.254-1.203
		c-0.166-0.367-0.396-0.654-0.691-0.86c-0.358-0.259-0.797-0.388-1.313-0.388c-0.365,0-0.6,0.039-0.699,0.117
		C203.546,53.266,203.516,53.359,203.516,53.504z"/>
	<path class="primarycolor" d="M210.621,55.887h-1.262c-0.17,0-0.277,0.014-0.319,0.043c-0.041,0.026-0.099,0.119-0.167,0.277
		l-0.229,0.514c-0.104,0.234-0.154,0.408-0.154,0.523c0,0.107,0.027,0.188,0.08,0.236c0.057,0.049,0.164,0.092,0.322,0.125
		c0.069,0.015,0.105,0.041,0.106,0.082c0.003,0.039-0.028,0.059-0.099,0.059c-0.023,0-0.063-0.002-0.115-0.004l-0.334-0.021
		c-0.111-0.005-0.239-0.007-0.387-0.007c-0.065,0-0.119,0.001-0.154,0.005c-0.119,0.014-0.186,0.021-0.195,0.021
		c-0.063,0-0.094-0.021-0.094-0.063c0-0.037,0.021-0.063,0.061-0.074l0.129-0.037c0.047-0.016,0.107-0.071,0.188-0.17
		c0.079-0.101,0.145-0.201,0.193-0.31l0.103-0.229l1.79-3.977c0.029-0.068,0.063-0.104,0.104-0.104c0.035,0,0.066,0.035,0.094,0.103
		l1.496,3.836l0.078,0.188c0.106,0.281,0.196,0.455,0.271,0.522c0.069,0.068,0.218,0.122,0.438,0.161
		c0.069,0.016,0.104,0.042,0.104,0.087c-0.002,0.038-0.034,0.058-0.098,0.058c-0.021,0-0.064-0.002-0.133-0.006
		c-0.121-0.014-0.334-0.02-0.645-0.02c-0.32,0-0.523,0.007-0.605,0.021c-0.049,0.008-0.084,0.014-0.106,0.014
		c-0.062,0-0.091-0.023-0.091-0.07c0-0.036,0.029-0.061,0.087-0.072l0.108-0.021c0.113-0.024,0.174-0.104,0.174-0.237
		c0-0.124-0.07-0.37-0.213-0.735l-0.174-0.461c-0.051-0.127-0.089-0.201-0.115-0.223C210.831,55.896,210.75,55.887,210.621,55.887z
		 M210.663,55.326l-0.547-1.379l-0.027-0.073c-0.028-0.074-0.06-0.112-0.092-0.115c-0.017-0.002-0.034,0.021-0.056,0.066
		l-0.678,1.508c-0.031,0.063-0.048,0.108-0.048,0.128c0,0.063,0.054,0.092,0.161,0.092l0.094,0.004h1.053
		c0.115,0,0.175-0.029,0.175-0.088c0-0.017-0.007-0.043-0.019-0.08L210.663,55.326z"/>
</g>
<g>
	<path class="primarycolor" d="M102.611,18.272c-0.851,1.486-1.417,2.519-1.697,3.097l-1.335,2.858l-1.531,3.142
		c-0.08,0.18-0.5,1.117-1.261,2.813c-0.31,0.698-0.58,1.271-0.81,1.72c-0.131,0.27-0.22,0.459-0.271,0.569
		c-0.198,0.468-0.41,0.703-0.637,0.703c-0.237,0-0.464-0.244-0.682-0.733c-0.04-0.089-0.18-0.363-0.42-0.822l-0.3-0.629
		l-5.629-12.148l-0.345,7.413c-0.03,0.609-0.045,1.828-0.045,3.655c0,1.757,0.619,2.73,1.857,2.92
		c0.609,0.098,0.914,0.245,0.914,0.44c0,0.226-0.145,0.338-0.434,0.338c-0.189,0-0.373-0.01-0.553-0.03
		c-1.116-0.1-1.977-0.15-2.585-0.15c-0.727,0-1.424,0.045-2.092,0.135c-0.199,0.03-0.354,0.045-0.463,0.045
		c-0.299,0-0.448-0.107-0.448-0.322c0-0.166,0.12-0.273,0.359-0.322c0.729-0.17,1.238-0.51,1.528-1.019
		c0.289-0.51,0.464-1.379,0.524-2.608l0.209-4.347c0.15-3.147,0.225-5.136,0.225-5.965c0-1.779-0.235-3.095-0.704-3.949
		c-0.469-0.854-1.253-1.381-2.351-1.582c-0.299-0.048-0.449-0.17-0.449-0.366c0-0.215,0.125-0.323,0.374-0.323
		c0.09,0,0.254,0.01,0.494,0.03c0.139,0.021,0.478,0.03,1.018,0.03c0.817,0,1.337-0.01,1.556-0.03
		c0.229-0.03,0.415-0.045,0.554-0.045c0.429,0,0.788,0.315,1.078,0.943l0.165,0.345l6.242,13.463l0.763,1.543
		c0.11,0.26,0.19,0.39,0.24,0.39c0.06,0,0.134-0.095,0.224-0.285l0.18-0.405l0.134-0.3l7.033-15.08
		c0.15-0.319,0.262-0.517,0.337-0.592c0.075-0.075,0.207-0.112,0.396-0.112c0.08,0,0.299,0.02,0.659,0.06
		c0.129,0.01,0.294,0.015,0.493,0.015c0.629,0,1.133-0.02,1.512-0.06c0.18-0.009,0.325-0.02,0.434-0.03
		c0.2-0.01,0.3,0.088,0.3,0.292c0,0.186-0.1,0.303-0.3,0.352l-0.644,0.165c-0.509,0.121-0.866,0.433-1.07,0.938
		c-0.205,0.505-0.307,1.333-0.307,2.482l0.09,3.615l0.284,8.145l0.076,1.89c0,0.76,0.139,1.305,0.419,1.635
		c0.279,0.331,0.789,0.55,1.527,0.66c0.529,0.078,0.794,0.21,0.794,0.396c0,0.195-0.186,0.293-0.554,0.293
		c-0.109,0-0.234-0.005-0.374-0.015l-1.166-0.12c-0.389-0.04-0.807-0.06-1.255-0.06c-0.309,0-0.796,0.021-1.464,0.066
		c-1.036,0.055-1.634,0.083-1.793,0.083c-0.289,0-0.434-0.088-0.434-0.263c0-0.156,0.125-0.268,0.375-0.336
		c0.589-0.16,0.983-0.419,1.183-0.779c0.199-0.36,0.3-0.99,0.3-1.889L103,27.793L102.611,18.272z"/>
	<path class="primarycolor" d="M118.896,12.507c3.123,0,5.688,0.966,7.688,2.896c2.001,1.931,3.003,4.403,3.003,7.416
		c0,3.193-1.01,5.812-3.023,7.857c-2.02,2.045-4.601,3.068-7.742,3.068c-3.227,0-5.834-0.978-7.826-2.933
		c-1.991-1.956-2.987-4.52-2.987-7.693c0-1.377,0.261-2.741,0.785-4.093s1.231-2.482,2.119-3.389
		c0.938-0.958,2.128-1.719,3.565-2.283C115.915,12.789,117.389,12.507,118.896,12.507z M117.93,13.48
		c-2.318,0-4.16,0.78-5.522,2.341c-1.364,1.56-2.046,3.661-2.046,6.303c0,3.021,0.871,5.567,2.613,7.641
		c1.744,2.073,3.885,3.11,6.424,3.11c2.318,0,4.231-0.845,5.742-2.535c1.508-1.69,2.262-3.831,2.262-6.422
		c0-2.98-0.902-5.465-2.713-7.454C122.881,14.475,120.627,13.48,117.93,13.48z"/>
	<path class="primarycolor" d="M140.152,23.091l4.134,6.094l0.479,0.717c1.276,1.872,2.455,2.843,3.533,2.913l0.479,0.031
		c0.181,0.01,0.266,0.081,0.255,0.213c-0.011,0.152-0.23,0.29-0.665,0.412c-0.436,0.122-0.928,0.183-1.477,0.183
		c-0.897,0-1.707-0.248-2.418-0.742c-0.716-0.494-1.44-1.3-2.182-2.418l-3.729-5.691l-0.211-0.329
		c-0.238-0.409-0.629-0.614-1.166-0.614h-1.992l-0.332,0.06c-0.118,0.07-0.178,0.23-0.178,0.48v4.688l0.016,0.601
		c0,0.862,0.043,1.45,0.126,1.766c0.086,0.315,0.288,0.599,0.606,0.849c0.43,0.341,1.094,0.556,1.991,0.646
		c0.359,0.039,0.545,0.151,0.554,0.336c0.021,0.195-0.145,0.293-0.492,0.293c-0.142,0-0.437-0.022-0.883-0.067
		c-0.41-0.044-1.045-0.067-1.902-0.067l-1.438-0.016l-0.779,0.015c-0.34,0-0.748,0.024-1.229,0.075
		c-0.391,0.04-0.658,0.06-0.811,0.06c-0.248,0-0.373-0.103-0.373-0.307c0-0.146,0.125-0.243,0.373-0.292
		c0.801-0.149,1.322-0.512,1.572-1.087c0.25-0.575,0.375-1.708,0.375-3.397v-10.77l-0.031-1.56c0-1.56-0.543-2.43-1.631-2.61
		l-0.705-0.105c-0.318-0.059-0.479-0.175-0.479-0.351c0-0.205,0.169-0.308,0.51-0.308c0.08,0,0.43,0.021,1.049,0.06
		c0.358,0.031,0.805,0.045,1.332,0.045c0.459,0,1.242-0.035,2.353-0.105c0.799-0.049,1.503-0.075,2.11-0.075
		c2.297,0,4.029,0.433,5.197,1.297c1.168,0.864,1.752,2.151,1.752,3.86C143.852,20.122,142.619,21.862,140.152,23.091z
		 M135.753,22.766h1.695c1.311,0,2.342-0.36,3.092-1.082s1.126-1.708,1.126-2.96c0-1.453-0.51-2.647-1.531-3.584
		c-1.021-0.937-2.32-1.406-3.902-1.406c-0.59,0-0.998,0.099-1.223,0.293c-0.226,0.195-0.338,0.548-0.338,1.06l0.016,0.496v6.101
		c0,0.471,0.063,0.769,0.188,0.894C134.999,22.704,135.292,22.766,135.753,22.766z"/>
	<path class="primarycolor" d="M155.682,12.507c1.067,0,1.971,0.155,2.711,0.464l1.032,0.434c0.091,0.04,0.181,0.06,0.271,0.06
		c0.119,0,0.238-0.05,0.359-0.15l0.211-0.179c0.027-0.041,0.084-0.06,0.164-0.06c0.248-0.01,0.373,0.235,0.373,0.734
		c0,0.169,0.065,0.674,0.194,1.513l0.239,1.542c0.051,0.33,0.074,0.535,0.074,0.614c0,0.31-0.105,0.464-0.318,0.464
		c-0.164,0-0.325-0.241-0.488-0.721c-0.359-1.083-1.088-1.974-2.188-2.675c-1.102-0.701-2.326-1.052-3.68-1.052
		c-1.074,0-1.976,0.318-2.695,0.953c-0.721,0.634-1.082,1.426-1.082,2.375c0,0.84,0.232,1.565,0.703,2.175
		c0.408,0.519,0.854,0.899,1.338,1.139c0.481,0.24,1.674,0.675,3.565,1.304c3.688,1.208,5.535,3.188,5.535,5.941
		c0,1.866-0.683,3.392-2.038,4.58s-3.1,1.781-5.229,1.781c-0.769,0-1.613-0.11-2.536-0.33c-0.927-0.22-1.603-0.474-2.029-0.764
		c-0.181-0.12-0.3-0.247-0.358-0.381c-0.061-0.135-0.148-0.482-0.271-1.041c-0.021-0.08-0.146-0.534-0.375-1.363
		c-0.261-0.899-0.39-1.538-0.39-1.917c0-0.3,0.103-0.444,0.306-0.435c0.185,0.01,0.349,0.256,0.487,0.736
		c0.357,1.242,1.115,2.284,2.271,3.125s2.409,1.262,3.766,1.262c1.373,0,2.535-0.404,3.486-1.214
		c0.95-0.809,1.428-1.794,1.428-2.953c0-1.109-0.438-2.043-1.317-2.803c-0.447-0.39-1.744-0.944-3.888-1.664
		c-2.215-0.748-3.781-1.576-4.705-2.484c-0.922-0.908-1.383-2.086-1.383-3.533c0-1.616,0.602-2.933,1.805-3.951
		C152.234,13.015,153.784,12.507,155.682,12.507z"/>
	<path class="primarycolor" d="M174.324,25.537h-5.422c-0.739,0-1.198,0.06-1.379,0.18c-0.181,0.12-0.418,0.52-0.719,1.2l-0.981,2.206
		c-0.443,1.01-0.665,1.761-0.665,2.25c0,0.471,0.117,0.811,0.354,1.021c0.232,0.21,0.694,0.39,1.385,0.54
		c0.299,0.059,0.453,0.176,0.463,0.351c0.013,0.165-0.129,0.249-0.418,0.249c-0.107,0-0.277-0.006-0.508-0.017l-1.435-0.084
		c-0.478-0.022-1.03-0.033-1.658-0.033c-0.288,0-0.514,0.006-0.671,0.021c-0.509,0.056-0.788,0.083-0.837,0.083
		c-0.271,0-0.403-0.092-0.403-0.276c0-0.164,0.086-0.271,0.254-0.323l0.557-0.165c0.197-0.06,0.469-0.302,0.809-0.727
		c0.34-0.424,0.619-0.867,0.84-1.326l0.434-0.989l7.699-17.101c0.129-0.299,0.271-0.45,0.435-0.45c0.159,0,0.294,0.146,0.403,0.436
		l6.438,16.498l0.33,0.81c0.47,1.21,0.856,1.962,1.167,2.257s0.938,0.527,1.889,0.698c0.31,0.059,0.459,0.18,0.448,0.366
		c-0.01,0.165-0.147,0.248-0.419,0.248c-0.09,0-0.279-0.01-0.568-0.03c-0.521-0.05-1.442-0.075-2.771-0.075
		c-1.387,0-2.256,0.03-2.604,0.09c-0.211,0.04-0.365,0.06-0.465,0.06c-0.262,0-0.393-0.102-0.393-0.307
		c0-0.155,0.126-0.258,0.375-0.307l0.465-0.105c0.499-0.1,0.748-0.44,0.748-1.021c0-0.529-0.305-1.585-0.912-3.166l-0.75-1.981
		c-0.209-0.55-0.374-0.868-0.494-0.953C175.223,25.579,174.882,25.537,174.324,25.537z M174.504,23.125l-2.354-5.931l-0.119-0.314
		c-0.119-0.32-0.249-0.484-0.389-0.495c-0.07-0.009-0.149,0.085-0.24,0.284l-2.92,6.485c-0.131,0.28-0.194,0.464-0.194,0.554
		c0,0.26,0.229,0.39,0.688,0.39l0.402,0.015h4.521c0.5,0,0.75-0.125,0.75-0.375c0-0.07-0.023-0.185-0.074-0.344L174.504,23.125z"/>
	<path class="primarycolor" d="M201.158,18.647v12.55c0,1.128-0.024,1.814-0.075,2.059c-0.05,0.245-0.188,0.361-0.419,0.352
		c-0.148-0.01-0.266-0.055-0.346-0.135l-0.328-0.39l-12.627-14.437l-0.147-0.165c-0.06-0.06-0.131-0.09-0.211-0.09
		c-0.188,0-0.284,0.224-0.284,0.674V29.23l-0.015,0.629l0.045,1.064c0.069,0.66,0.24,1.115,0.509,1.364
		c0.27,0.25,0.799,0.435,1.588,0.555c0.329,0.039,0.494,0.166,0.494,0.38c0,0.195-0.105,0.293-0.314,0.293
		c-0.141,0-0.288-0.01-0.447-0.03c-0.109-0.021-0.545-0.05-1.305-0.09l-1.526-0.075l-0.719,0.027c-0.39,0-0.761,0.022-1.107,0.068
		c-0.261,0.036-0.444,0.055-0.556,0.055c-0.26,0-0.398-0.093-0.419-0.278c-0.011-0.146,0.131-0.268,0.419-0.366
		c0.84-0.29,1.404-0.677,1.699-1.161c0.295-0.485,0.441-1.267,0.441-2.346V19.131c0-1.729-0.273-3.09-0.824-4.084
		c-0.547-0.994-1.342-1.562-2.379-1.701c-0.271-0.039-0.404-0.151-0.404-0.336c0-0.185,0.107-0.278,0.328-0.278
		c0.049,0,0.129,0.005,0.239,0.015l0.614,0.015l1.003,0.03l0.239-0.015c0.24-0.01,0.424-0.015,0.555-0.015
		c0.249,0,0.499,0.145,0.748,0.435l13.779,15.605c0.219,0.25,0.357,0.37,0.419,0.359c0.101-0.01,0.155-0.105,0.165-0.284v-7.414
		l0.016-2.021l-0.181-3.445c-0.101-0.848-0.349-1.45-0.741-1.804c-0.395-0.354-1.105-0.617-2.134-0.787
		c-0.291-0.048-0.435-0.17-0.435-0.366c0-0.186,0.144-0.278,0.435-0.278c0.13,0,0.339,0.014,0.629,0.042
		c0.688,0.072,1.612,0.109,2.771,0.109c0.618,0,1.113-0.03,1.482-0.09c0.32-0.06,0.564-0.09,0.734-0.09
		c0.259,0,0.396,0.104,0.418,0.315c0.011,0.13-0.09,0.224-0.299,0.284c-0.608,0.149-1.013,0.399-1.205,0.749
		c-0.195,0.35-0.293,1.003-0.293,1.962v1.618L201.158,18.647z"/>
	<path class="primarycolor" d="M209.857,17.278v11.228c0,1.401,0.084,2.327,0.254,2.777c0.199,0.51,0.445,0.871,0.74,1.081
		c0.295,0.21,0.756,0.36,1.385,0.45c0.5,0.068,0.75,0.191,0.75,0.366c0,0.235-0.155,0.353-0.465,0.353
		c-0.148,0-0.34-0.017-0.567-0.05c-0.312-0.045-0.841-0.067-1.588-0.067l-2.173-0.033l-1.768,0.105
		c-0.289,0.03-0.527,0.045-0.72,0.045c-0.271,0-0.405-0.103-0.405-0.307c0-0.176,0.156-0.288,0.467-0.337
		c0.758-0.13,1.248-0.393,1.467-0.787c0.222-0.395,0.33-1.228,0.33-2.498v-12.84c0-1.24-0.143-2.075-0.426-2.505
		c-0.285-0.43-0.893-0.72-1.82-0.87c-0.312-0.059-0.469-0.176-0.479-0.352c-0.011-0.214,0.134-0.322,0.435-0.322
		c0.08,0,0.17,0.006,0.271,0.017c0.729,0.089,1.697,0.133,2.904,0.133c0.738,0,1.371-0.016,1.9-0.05l1.004-0.083
		c0.189-0.011,0.314-0.017,0.375-0.017c0.271,0,0.403,0.093,0.403,0.279c0,0.176-0.13,0.307-0.389,0.396l-0.779,0.3
		C210.227,13.971,209.857,15.167,209.857,17.278z"/>
</g>
<g>
	<path class="primarycolor" d="M90.999,38.412l0.18,1.352l0.017,0.141l-0.017,0.058c-0.019,0.035-0.047,0.054-0.084,0.058
		c-0.045,0.004-0.113-0.074-0.203-0.235c-0.703-1.228-1.655-1.841-2.857-1.841c-0.958,0-1.713,0.293-2.266,0.882
		c-0.552,0.588-0.829,1.393-0.829,2.411c0,1.175,0.307,2.134,0.922,2.877c0.614,0.744,1.404,1.115,2.37,1.115
		c0.564,0,1.118-0.15,1.663-0.451s0.922-0.666,1.133-1.096c0.098-0.199,0.172-0.303,0.225-0.307c0.06-0.004,0.09,0.029,0.09,0.105
		l-0.006,0.063l-0.022,0.126l-0.129,0.688l-0.023,0.104c-0.015,0.1-0.104,0.2-0.265,0.307c-0.867,0.553-1.822,0.826-2.866,0.826
		c-1.209,0-2.183-0.357-2.922-1.072c-0.74-0.719-1.11-1.66-1.11-2.832c0-1.17,0.383-2.145,1.149-2.918
		c0.766-0.774,1.727-1.162,2.883-1.162c0.792,0,1.52,0.179,2.185,0.535l0.226,0.117l0.09,0.04l0.096,0.033
		c0.019,0,0.047-0.017,0.084-0.044c0.083-0.063,0.14-0.092,0.169-0.092C90.94,38.197,90.98,38.27,90.999,38.412z"/>
	<path class="primarycolor" d="M96.275,37.605c1.175,0,2.139,0.361,2.892,1.09c0.753,0.726,1.129,1.656,1.129,2.789
		c0,1.199-0.379,2.185-1.138,2.953c-0.758,0.77-1.729,1.152-2.912,1.152c-1.212,0-2.192-0.367-2.942-1.104
		c-0.749-0.734-1.124-1.699-1.124-2.893c0-0.519,0.099-1.031,0.295-1.541c0.197-0.507,0.463-0.933,0.797-1.271
		c0.353-0.36,0.799-0.646,1.34-0.858C95.154,37.713,95.708,37.605,96.275,37.605z M95.911,37.973c-0.872,0-1.564,0.293-2.077,0.881
		c-0.513,0.586-0.769,1.377-0.769,2.369c0,1.137,0.328,2.094,0.984,2.873c0.655,0.78,1.46,1.17,2.415,1.17
		c0.873,0,1.592-0.316,2.159-0.953c0.567-0.635,0.851-1.439,0.851-2.414c0-1.121-0.34-2.057-1.02-2.803
		C97.773,38.346,96.926,37.973,95.911,37.973z"/>
	<path class="primarycolor" d="M103.078,43.93l0.006,0.196c0,0.451,0.043,0.72,0.129,0.801c0.087,0.083,0.369,0.125,0.846,0.125
		c0.703,0,1.313-0.084,1.831-0.252c0.517-0.166,0.846-0.388,0.99-0.659c0.052-0.103,0.105-0.154,0.158-0.154
		c0.06,0,0.087,0.039,0.084,0.113c-0.015,0.248-0.137,0.52-0.366,0.813c-0.324,0.407-0.848,0.61-1.573,0.61
		c-0.12,0-0.259-0.006-0.417-0.018l-0.608-0.046c-0.357-0.024-0.735-0.039-1.133-0.039c-0.462,0-0.849,0.021-1.161,0.067
		c-0.132,0.019-0.237,0.027-0.315,0.033c-0.095,0.004-0.141-0.028-0.141-0.101c0-0.06,0.051-0.103,0.153-0.131
		c0.261-0.079,0.436-0.194,0.524-0.349c0.089-0.151,0.133-0.407,0.133-0.771l0.006-0.26v-5.043c0-0.499-0.203-0.79-0.608-0.873
		l-0.253-0.052c-0.091-0.02-0.135-0.057-0.135-0.109c0-0.084,0.063-0.127,0.191-0.127c0.086,0,0.204,0.008,0.354,0.021
		c0.254,0.022,0.542,0.035,0.86,0.035c0.345,0,0.657-0.011,0.938-0.029c0.143-0.008,0.223-0.012,0.242-0.012
		c0.09,0,0.135,0.026,0.135,0.084c0,0.08-0.054,0.133-0.163,0.158l-0.197,0.047c-0.338,0.082-0.506,0.418-0.506,1.008v4.906h-0.004
		V43.93z"/>
	<path class="primarycolor" d="M109.355,43.93l0.008,0.196c0,0.451,0.043,0.72,0.129,0.801c0.086,0.083,0.369,0.125,0.847,0.125
		c0.702,0,1.312-0.084,1.829-0.252c0.518-0.166,0.848-0.388,0.99-0.659c0.053-0.103,0.105-0.154,0.158-0.154
		c0.06,0,0.086,0.039,0.082,0.113c-0.015,0.248-0.135,0.52-0.365,0.813c-0.323,0.407-0.848,0.61-1.573,0.61
		c-0.119,0-0.258-0.006-0.416-0.018l-0.608-0.046c-0.356-0.024-0.733-0.039-1.134-0.039c-0.462,0-0.849,0.021-1.161,0.067
		c-0.132,0.019-0.236,0.027-0.313,0.033c-0.094,0.004-0.141-0.028-0.141-0.101c0-0.06,0.051-0.103,0.153-0.131
		c0.261-0.079,0.437-0.194,0.524-0.349c0.089-0.151,0.134-0.407,0.134-0.771l0.006-0.26v-5.043c0-0.499-0.202-0.79-0.609-0.873
		l-0.253-0.052c-0.089-0.02-0.134-0.057-0.134-0.109c0-0.084,0.063-0.127,0.191-0.127c0.086,0,0.204,0.008,0.354,0.021
		c0.257,0.022,0.542,0.035,0.86,0.035c0.345,0,0.656-0.011,0.938-0.029c0.144-0.008,0.224-0.012,0.239-0.012
		c0.093,0,0.136,0.026,0.136,0.084c0,0.08-0.054,0.133-0.162,0.158l-0.196,0.047c-0.339,0.082-0.509,0.418-0.509,1.008v4.906h-0.002
		V43.93z"/>
	<path class="primarycolor" d="M115.637,38.639v2.271c0,0.174,0.016,0.277,0.047,0.314c0.031,0.033,0.129,0.053,0.291,0.053h0.866
		c0.396,0,0.706-0.022,0.935-0.067c0.203-0.041,0.334-0.095,0.396-0.163c0.063-0.066,0.114-0.225,0.164-0.473
		c0.02-0.094,0.064-0.139,0.145-0.137c0.071,0.004,0.108,0.056,0.108,0.151c0,0.026-0.002,0.067-0.007,0.123
		c-0.033,0.363-0.049,0.694-0.049,0.995c0,0.229,0.011,0.454,0.031,0.679c0.009,0.075,0.013,0.132,0.013,0.163
		c0,0.096-0.036,0.141-0.108,0.141c-0.082,0-0.13-0.039-0.146-0.123l-0.032-0.156c-0.044-0.252-0.138-0.422-0.271-0.512
		c-0.136-0.092-0.365-0.138-0.687-0.138h-1.242c-0.184,0-0.307,0.021-0.366,0.058c-0.063,0.037-0.095,0.113-0.095,0.226l0.006,0.188
		v2.074c0,0.319,0.058,0.52,0.173,0.598c0.112,0.08,0.402,0.119,0.868,0.119c1.474,0,2.419-0.332,2.841-0.996
		c0.041-0.064,0.084-0.098,0.125-0.104c0.069-0.004,0.104,0.048,0.104,0.146c0,0.244-0.138,0.533-0.41,0.869
		c-0.331,0.404-0.747,0.606-1.25,0.606c-0.108,0-0.255-0.008-0.438-0.022c-0.717-0.066-1.311-0.102-1.778-0.102
		c-0.657,0-1.12,0.021-1.392,0.066c-0.144,0.027-0.24,0.039-0.293,0.039c-0.119,0-0.183-0.041-0.183-0.121
		c0-0.063,0.049-0.105,0.146-0.131l0.215-0.063c0.271-0.076,0.404-0.339,0.404-0.79l0.006-0.365V39.29
		c0-0.538-0.059-0.899-0.178-1.086c-0.117-0.187-0.348-0.279-0.688-0.279c-0.107,0-0.163-0.034-0.163-0.104
		c0-0.104,0.085-0.152,0.254-0.152c0.094,0,0.22,0.009,0.377,0.025c0.537,0.063,1.186,0.092,1.938,0.092
		c0.457,0,0.862-0.01,1.215-0.021l0.802-0.041c0.222-0.008,0.356-0.016,0.405-0.021c0.102-0.017,0.177-0.021,0.226-0.021
		c0.124,0,0.187,0.055,0.187,0.16c0,0.034-0.006,0.077-0.018,0.131c-0.011,0.053-0.025,0.201-0.045,0.447l-0.021,0.331
		c-0.021,0.218-0.039,0.354-0.06,0.407c-0.019,0.055-0.062,0.083-0.126,0.087c-0.072,0.004-0.109-0.054-0.109-0.169V38.93
		c0-0.119-0.021-0.232-0.064-0.343c-0.072-0.169-0.219-0.28-0.436-0.339c-0.218-0.059-0.615-0.084-1.197-0.084h-0.883
		c-0.229,0-0.383,0.027-0.449,0.088C115.67,38.311,115.637,38.439,115.637,38.639z"/>
	<path class="primarycolor" d="M126.893,43.553v-1.267c0-0.229-0.05-0.386-0.146-0.468c-0.102-0.082-0.301-0.137-0.602-0.157
		c-0.146-0.015-0.222-0.063-0.226-0.144c-0.004-0.069,0.06-0.104,0.19-0.104l0.228,0.005l0.423,0.006
		c0.579,0,0.917-0.003,1.01-0.011c0.26-0.019,0.412-0.028,0.453-0.028c0.086,0,0.129,0.036,0.129,0.105
		c0,0.063-0.056,0.107-0.17,0.138c-0.285,0.065-0.428,0.272-0.428,0.62l0.008,0.182v1.805l0.01,0.183l-0.033,0.085
		c-0.021,0.02-0.075,0.033-0.161,0.044c-0.104,0.017-0.259,0.083-0.47,0.202l-0.371,0.221c-0.731,0.426-1.521,0.637-2.358,0.637
		c-1.127,0-2.05-0.359-2.771-1.084c-0.722-0.723-1.08-1.646-1.08-2.772c0-1.183,0.382-2.168,1.146-2.956
		c0.765-0.788,1.722-1.184,2.869-1.184c0.442,0,0.913,0.063,1.411,0.19c0.497,0.128,0.895,0.287,1.189,0.479
		c0.045,0.031,0.076,0.046,0.096,0.046c0.027,0,0.063-0.015,0.107-0.046l0.135-0.103c0.025-0.021,0.053-0.032,0.08-0.032
		c0.065,0,0.101,0.09,0.101,0.266c0,0.082,0.013,0.211,0.034,0.383l0.058,0.529c0.019,0.143,0.044,0.285,0.077,0.429
		c0.02,0.065,0.029,0.121,0.029,0.163c0,0.089-0.039,0.136-0.113,0.141c-0.049,0.004-0.092-0.027-0.124-0.096
		c-0.293-0.6-0.743-1.086-1.353-1.461c-0.608-0.373-1.254-0.563-1.936-0.563c-0.852,0-1.542,0.321-2.08,0.969
		c-0.537,0.645-0.806,1.477-0.806,2.496c0,1.095,0.309,2.01,0.927,2.746s1.382,1.104,2.295,1.104c0.87,0,1.553-0.309,2.044-0.923
		C126.832,44.174,126.893,43.917,126.893,43.553z"/>
	<path class="primarycolor" d="M131.07,38.639v2.271c0,0.174,0.017,0.277,0.048,0.314c0.032,0.033,0.13,0.053,0.291,0.053h0.866
		c0.395,0,0.707-0.022,0.936-0.067c0.202-0.041,0.334-0.095,0.395-0.163c0.063-0.066,0.115-0.225,0.164-0.473
		c0.021-0.094,0.066-0.139,0.146-0.137c0.071,0.004,0.106,0.056,0.106,0.151c0,0.026,0,0.067-0.006,0.123
		c-0.033,0.363-0.05,0.694-0.05,0.995c0,0.229,0.013,0.454,0.034,0.679c0.007,0.075,0.012,0.132,0.012,0.163
		c0,0.096-0.037,0.141-0.109,0.141c-0.082,0-0.129-0.039-0.146-0.123l-0.032-0.156c-0.047-0.252-0.137-0.422-0.271-0.512
		c-0.136-0.092-0.364-0.138-0.687-0.138h-1.242c-0.185,0-0.305,0.021-0.367,0.058s-0.094,0.113-0.094,0.226l0.006,0.188v2.074
		c0,0.319,0.058,0.52,0.173,0.598c0.112,0.08,0.403,0.119,0.868,0.119c1.474,0,2.42-0.332,2.841-0.996
		c0.042-0.064,0.084-0.098,0.125-0.104c0.069-0.004,0.104,0.048,0.104,0.146c0,0.244-0.139,0.533-0.41,0.869
		c-0.332,0.404-0.748,0.606-1.25,0.606c-0.109,0-0.258-0.008-0.439-0.022c-0.718-0.066-1.311-0.102-1.779-0.102
		c-0.656,0-1.121,0.021-1.391,0.066c-0.145,0.027-0.241,0.039-0.294,0.039c-0.119,0-0.181-0.041-0.181-0.121
		c0-0.063,0.049-0.105,0.146-0.131l0.214-0.063c0.271-0.076,0.405-0.339,0.405-0.79l0.006-0.365V39.29
		c0-0.538-0.06-0.899-0.179-1.086c-0.117-0.187-0.348-0.279-0.688-0.279c-0.106,0-0.163-0.034-0.163-0.104
		c0-0.104,0.086-0.152,0.254-0.152c0.094,0,0.221,0.009,0.377,0.025c0.537,0.063,1.185,0.092,1.938,0.092
		c0.457,0,0.861-0.01,1.216-0.021l0.802-0.041c0.221-0.008,0.355-0.016,0.404-0.021c0.102-0.017,0.178-0.021,0.227-0.021
		c0.123,0,0.186,0.055,0.186,0.16c0,0.034-0.006,0.077-0.018,0.131c-0.01,0.053-0.025,0.201-0.045,0.447l-0.022,0.331
		c-0.019,0.218-0.037,0.354-0.058,0.407c-0.02,0.055-0.063,0.083-0.125,0.087c-0.073,0.004-0.109-0.054-0.109-0.169V38.93
		c0-0.119-0.021-0.232-0.066-0.343c-0.072-0.169-0.217-0.28-0.434-0.339c-0.219-0.059-0.616-0.084-1.197-0.084h-0.883
		c-0.232,0-0.383,0.027-0.45,0.088S131.07,38.439,131.07,38.639z"/>
	<path class="primarycolor" d="M142.932,37.605c1.174,0,2.139,0.361,2.893,1.09c0.753,0.726,1.129,1.656,1.129,2.789
		c0,1.199-0.379,2.185-1.139,2.953c-0.76,0.77-1.729,1.152-2.912,1.152c-1.213,0-2.191-0.367-2.939-1.104
		c-0.749-0.734-1.124-1.699-1.124-2.893c0-0.519,0.099-1.031,0.296-1.541c0.196-0.507,0.463-0.933,0.799-1.271
		c0.353-0.36,0.799-0.646,1.34-0.858S142.363,37.605,142.932,37.605z M142.566,37.973c-0.871,0-1.563,0.293-2.076,0.881
		c-0.514,0.586-0.77,1.377-0.77,2.369c0,1.137,0.326,2.094,0.981,2.873c0.655,0.78,1.461,1.17,2.415,1.17
		c0.871,0,1.591-0.316,2.156-0.953c0.568-0.635,0.854-1.439,0.854-2.414c0-1.121-0.34-2.057-1.021-2.803
		C144.43,38.346,143.581,37.973,142.566,37.973z"/>
	<path class="primarycolor" d="M149.751,38.613v2.226l0.004,0.106v0.146c0.017,0.103,0.122,0.151,0.321,0.151l0.48,0.011l0.187-0.004
		l0.661-0.015c0.345,0,0.595-0.051,0.75-0.152c0.158-0.104,0.258-0.281,0.3-0.532c0.014-0.09,0.054-0.135,0.114-0.135
		c0.072,0,0.105,0.06,0.099,0.174l-0.033,0.558c-0.004,0.068-0.005,0.186-0.005,0.344c0,0.437,0.008,0.717,0.021,0.837
		c0.007,0.069,0.012,0.123,0.012,0.155c0,0.091-0.036,0.136-0.104,0.136c-0.072,0-0.132-0.093-0.173-0.275
		c-0.046-0.198-0.095-0.334-0.146-0.405c-0.053-0.069-0.143-0.123-0.264-0.151c-0.252-0.063-0.619-0.097-1.104-0.097
		c-0.448,0-0.739,0.011-0.872,0.028c-0.134,0.019-0.206,0.062-0.223,0.13c-0.021,0.072-0.026,0.187-0.026,0.34v2.102
		c0,0.297,0.078,0.535,0.233,0.712c0.158,0.177,0.371,0.267,0.639,0.267c0.127,0,0.191,0.037,0.195,0.109
		c0.01,0.085-0.049,0.127-0.17,0.127c-0.082,0-0.195-0.009-0.342-0.023c-0.125-0.019-0.311-0.025-0.555-0.025l-0.389-0.006
		l-0.437,0.005c-0.095,0-0.223,0.009-0.385,0.022c-0.132,0.008-0.229,0.014-0.287,0.018c-0.108,0.003-0.164-0.029-0.164-0.1
		c0-0.06,0.06-0.102,0.177-0.127c0.237-0.054,0.401-0.154,0.487-0.305c0.087-0.15,0.131-0.411,0.131-0.777v-5.082
		c0-0.356-0.06-0.631-0.176-0.822c-0.074-0.129-0.155-0.215-0.248-0.26c-0.09-0.045-0.245-0.078-0.467-0.099
		c-0.091-0.007-0.14-0.039-0.144-0.098c-0.006-0.097,0.068-0.146,0.229-0.146c0.048,0,0.165,0.01,0.35,0.028
		c0.334,0.033,0.897,0.051,1.694,0.051c0.71,0,1.165-0.005,1.368-0.018l0.781-0.039c0.338-0.015,0.558-0.032,0.654-0.052
		c0.069-0.014,0.133-0.021,0.186-0.021c0.084,0,0.123,0.043,0.123,0.13c0,0.046-0.01,0.107-0.026,0.187
		c-0.063,0.246-0.096,0.574-0.096,0.984c0,0.174-0.052,0.26-0.149,0.26c-0.059,0-0.091-0.047-0.099-0.142
		c-0.013-0.116-0.032-0.233-0.063-0.354c-0.05-0.189-0.107-0.313-0.183-0.367c-0.073-0.057-0.233-0.094-0.483-0.116l-0.664-0.065
		c-0.209-0.021-0.475-0.026-0.797-0.026c-0.418,0-0.679,0.026-0.779,0.081C149.801,38.249,149.751,38.391,149.751,38.613z"/>
	<path class="primarycolor" d="M163.732,39.773c-0.319,0.56-0.531,0.947-0.64,1.166l-0.502,1.071l-0.573,1.183
		c-0.031,0.066-0.188,0.422-0.477,1.059c-0.116,0.264-0.219,0.479-0.305,0.646c-0.051,0.103-0.084,0.174-0.104,0.216
		c-0.074,0.176-0.154,0.263-0.238,0.263c-0.09,0-0.176-0.092-0.258-0.275c-0.015-0.033-0.066-0.136-0.156-0.309l-0.112-0.236
		l-2.117-4.566l-0.129,2.785c-0.013,0.229-0.019,0.688-0.019,1.375c0,0.66,0.231,1.025,0.697,1.1
		c0.23,0.037,0.344,0.092,0.344,0.166c0,0.084-0.054,0.127-0.162,0.127c-0.069,0-0.141-0.005-0.209-0.014
		c-0.418-0.035-0.742-0.057-0.971-0.057c-0.273,0-0.535,0.02-0.787,0.053c-0.074,0.012-0.134,0.018-0.175,0.018
		c-0.112,0-0.168-0.04-0.168-0.121c0-0.063,0.046-0.104,0.136-0.12c0.273-0.063,0.465-0.192,0.574-0.385
		c0.108-0.19,0.176-0.519,0.197-0.979l0.079-1.636c0.056-1.184,0.084-1.932,0.084-2.243c0-0.668-0.089-1.162-0.265-1.483
		c-0.179-0.32-0.474-0.521-0.886-0.595c-0.112-0.021-0.17-0.063-0.17-0.139c0-0.081,0.05-0.121,0.142-0.121
		c0.035,0,0.098,0.004,0.188,0.012c0.053,0.009,0.18,0.012,0.383,0.012c0.309,0,0.502-0.003,0.584-0.012
		c0.088-0.012,0.155-0.019,0.211-0.019c0.159,0,0.295,0.118,0.403,0.354l0.063,0.13l2.347,5.063l0.286,0.579
		c0.041,0.1,0.07,0.146,0.091,0.146c0.022,0,0.05-0.035,0.084-0.106l0.067-0.151l0.051-0.111l2.645-5.672
		c0.057-0.119,0.1-0.193,0.127-0.223s0.078-0.043,0.148-0.043c0.031,0,0.111,0.008,0.248,0.022c0.049,0.004,0.111,0.006,0.188,0.006
		c0.235,0,0.424-0.007,0.566-0.022c0.068-0.004,0.122-0.008,0.164-0.013c0.074-0.003,0.111,0.034,0.111,0.111
		c0,0.069-0.037,0.114-0.111,0.132l-0.242,0.063c-0.191,0.045-0.325,0.164-0.402,0.354c-0.076,0.189-0.115,0.502-0.115,0.936
		l0.033,1.357l0.106,3.063l0.028,0.711c0,0.285,0.053,0.49,0.158,0.613c0.104,0.125,0.295,0.207,0.571,0.249
		c0.2,0.029,0.302,0.079,0.302,0.148c0,0.073-0.07,0.11-0.209,0.11c-0.041,0-0.089-0.002-0.142-0.006l-0.438-0.048
		c-0.146-0.014-0.306-0.021-0.475-0.021c-0.115,0-0.299,0.01-0.551,0.025c-0.389,0.021-0.614,0.03-0.674,0.03
		c-0.108,0-0.164-0.033-0.164-0.101c0-0.06,0.048-0.102,0.143-0.127c0.223-0.061,0.369-0.155,0.444-0.293
		c0.075-0.135,0.112-0.371,0.112-0.709l-0.022-0.92L163.732,39.773z"/>
	<path class="primarycolor" d="M168.484,38.639v2.271c0,0.174,0.018,0.277,0.049,0.314c0.031,0.033,0.128,0.053,0.289,0.053h0.869
		c0.394,0,0.705-0.022,0.934-0.067c0.203-0.041,0.335-0.095,0.396-0.163c0.06-0.066,0.112-0.225,0.162-0.473
		c0.02-0.094,0.065-0.139,0.146-0.137c0.071,0.004,0.108,0.056,0.108,0.151c0,0.026-0.002,0.067-0.006,0.123
		c-0.033,0.363-0.052,0.694-0.052,0.995c0,0.229,0.013,0.454,0.033,0.679c0.007,0.075,0.012,0.132,0.012,0.163
		c0,0.096-0.036,0.141-0.108,0.141c-0.08,0-0.129-0.039-0.146-0.123l-0.032-0.156c-0.047-0.252-0.137-0.422-0.271-0.512
		c-0.135-0.092-0.363-0.138-0.686-0.138h-1.244c-0.183,0-0.306,0.021-0.365,0.058c-0.063,0.037-0.094,0.113-0.094,0.226l0.004,0.188
		v2.074c0,0.319,0.06,0.52,0.174,0.598c0.113,0.08,0.402,0.119,0.867,0.119c1.476,0,2.42-0.332,2.84-0.996
		c0.043-0.064,0.084-0.098,0.128-0.104c0.069-0.004,0.104,0.048,0.104,0.146c0,0.244-0.139,0.533-0.412,0.869
		c-0.33,0.404-0.746,0.606-1.248,0.606c-0.109,0-0.256-0.008-0.439-0.022c-0.719-0.066-1.311-0.102-1.779-0.102
		c-0.656,0-1.121,0.021-1.392,0.066c-0.144,0.027-0.24,0.039-0.293,0.039c-0.12,0-0.181-0.041-0.181-0.121
		c0-0.063,0.049-0.105,0.146-0.131l0.214-0.063c0.271-0.076,0.406-0.339,0.406-0.79l0.005-0.365V39.29
		c0-0.538-0.062-0.899-0.179-1.086c-0.116-0.187-0.35-0.279-0.688-0.279c-0.108,0-0.162-0.034-0.162-0.104
		c0-0.104,0.084-0.152,0.253-0.152c0.096,0,0.221,0.009,0.379,0.025c0.537,0.063,1.182,0.092,1.937,0.092
		c0.458,0,0.864-0.01,1.216-0.021l0.801-0.041c0.221-0.008,0.355-0.016,0.405-0.021c0.103-0.017,0.177-0.021,0.226-0.021
		c0.125,0,0.187,0.055,0.187,0.16c0,0.034-0.005,0.077-0.019,0.131c-0.01,0.053-0.024,0.201-0.043,0.447l-0.022,0.331
		c-0.021,0.218-0.038,0.354-0.058,0.407c-0.021,0.055-0.063,0.083-0.127,0.087c-0.072,0.004-0.108-0.054-0.108-0.169V38.93
		c0-0.119-0.021-0.232-0.066-0.343c-0.069-0.169-0.216-0.28-0.434-0.339s-0.617-0.084-1.196-0.084h-0.884
		c-0.231,0-0.382,0.027-0.449,0.088C168.521,38.311,168.484,38.439,168.484,38.639z"/>
	<path class="primarycolor" d="M174.371,39.102c0-0.381-0.064-0.658-0.191-0.836c-0.128-0.177-0.34-0.279-0.637-0.31
		c-0.124-0.011-0.186-0.049-0.186-0.115c0-0.073,0.047-0.11,0.146-0.11l0.445,0.023c0.045,0.003,0.176,0.005,0.395,0.005
		c0.38,0,0.675-0.009,0.884-0.028l0.523-0.051c0.227-0.019,0.473-0.027,0.744-0.027c1.539,0,2.693,0.388,3.462,1.16
		c0.703,0.705,1.054,1.608,1.054,2.707c0,0.711-0.152,1.361-0.462,1.955c-0.309,0.594-0.735,1.063-1.284,1.402
		c-0.688,0.432-1.443,0.646-2.264,0.646c-0.098,0-0.271-0.01-0.52-0.027c-0.502-0.034-0.938-0.051-1.313-0.051
		c-0.4,0-0.751,0.021-1.047,0.063c-0.137,0.018-0.243,0.028-0.322,0.033c-0.13,0.008-0.195-0.034-0.195-0.127
		c0-0.063,0.054-0.104,0.158-0.127c0.256-0.053,0.42-0.146,0.495-0.282c0.074-0.134,0.112-0.409,0.112-0.828L174.371,39.102
		L174.371,39.102z M175.23,38.652v5.797c0,0.229,0.115,0.387,0.345,0.472c0.198,0.076,0.452,0.142,0.763,0.198
		c0.309,0.056,0.57,0.085,0.784,0.085c0.642,0,1.219-0.162,1.731-0.483c0.871-0.541,1.306-1.459,1.306-2.757
		c0-0.704-0.136-1.353-0.408-1.944c-0.271-0.593-0.646-1.058-1.121-1.395c-0.582-0.417-1.288-0.624-2.121-0.624
		c-0.592,0-0.97,0.063-1.131,0.19C175.281,38.266,175.23,38.42,175.23,38.652z"/>
	<path class="primarycolor" d="M183.792,39.4v4.222c0,0.528,0.031,0.875,0.097,1.044c0.074,0.193,0.168,0.328,0.278,0.407
		c0.108,0.079,0.283,0.136,0.521,0.169c0.188,0.025,0.281,0.072,0.281,0.138c0,0.089-0.059,0.134-0.175,0.134
		c-0.058,0-0.127-0.007-0.214-0.019c-0.116-0.019-0.314-0.024-0.598-0.024l-0.815-0.015l-0.665,0.04
		c-0.107,0.012-0.197,0.018-0.271,0.018c-0.102,0-0.149-0.039-0.149-0.115c0-0.064,0.06-0.107,0.175-0.127
		c0.285-0.049,0.471-0.146,0.553-0.297c0.082-0.146,0.123-0.461,0.123-0.938V39.21c0-0.467-0.055-0.778-0.16-0.94
		s-0.334-0.271-0.686-0.326c-0.115-0.021-0.177-0.066-0.18-0.133c-0.006-0.082,0.051-0.121,0.162-0.121
		c0.029,0,0.063,0.002,0.103,0.006c0.272,0.033,0.64,0.05,1.095,0.05c0.275,0,0.516-0.007,0.715-0.019l0.377-0.031
		c0.072-0.004,0.117-0.006,0.142-0.006c0.103,0,0.151,0.033,0.151,0.104c0,0.066-0.049,0.116-0.146,0.15l-0.294,0.111
		C183.932,38.157,183.792,38.607,183.792,39.4z"/>
	<path class="primarycolor" d="M192.717,38.412l0.182,1.352l0.018,0.141l-0.018,0.058c-0.02,0.035-0.049,0.054-0.086,0.058
		c-0.043,0.004-0.11-0.074-0.201-0.235c-0.702-1.228-1.654-1.841-2.856-1.841c-0.958,0-1.714,0.293-2.269,0.882
		c-0.551,0.588-0.826,1.393-0.826,2.411c0,1.175,0.308,2.134,0.922,2.877c0.613,0.744,1.402,1.115,2.37,1.115
		c0.563,0,1.116-0.15,1.661-0.451s0.924-0.666,1.135-1.096c0.098-0.199,0.172-0.303,0.227-0.307c0.06-0.004,0.09,0.029,0.09,0.105
		l-0.006,0.063l-0.021,0.126l-0.131,0.688l-0.021,0.104c-0.016,0.1-0.104,0.2-0.265,0.307c-0.868,0.553-1.823,0.826-2.866,0.826
		c-1.209,0-2.184-0.357-2.923-1.072c-0.739-0.719-1.108-1.66-1.108-2.832c0-1.17,0.381-2.145,1.147-2.918
		c0.767-0.774,1.728-1.162,2.883-1.162c0.793,0,1.521,0.179,2.185,0.535l0.228,0.117l0.091,0.04l0.096,0.033
		c0.021,0,0.047-0.017,0.086-0.044c0.082-0.063,0.139-0.092,0.168-0.092C192.659,38.197,192.699,38.27,192.717,38.412z"/>
	<path class="primarycolor" d="M195.764,39.4v4.222c0,0.528,0.031,0.875,0.096,1.044c0.076,0.193,0.168,0.328,0.279,0.407
		c0.11,0.079,0.283,0.136,0.521,0.169c0.188,0.025,0.281,0.072,0.281,0.138c0,0.089-0.061,0.134-0.176,0.134
		c-0.057,0-0.127-0.007-0.213-0.019c-0.117-0.019-0.316-0.024-0.599-0.024l-0.815-0.015l-0.664,0.04
		c-0.108,0.012-0.199,0.018-0.271,0.018c-0.104,0-0.15-0.039-0.15-0.115c0-0.064,0.059-0.107,0.174-0.127
		c0.285-0.049,0.471-0.146,0.553-0.297c0.082-0.146,0.123-0.461,0.123-0.938V39.21c0-0.467-0.053-0.778-0.16-0.94
		c-0.105-0.162-0.335-0.271-0.684-0.326c-0.117-0.021-0.179-0.066-0.183-0.133c-0.004-0.082,0.054-0.121,0.164-0.121
		c0.028,0,0.063,0.002,0.103,0.006c0.272,0.033,0.64,0.05,1.092,0.05c0.279,0,0.518-0.007,0.716-0.019l0.377-0.031
		c0.071-0.004,0.118-0.006,0.142-0.006c0.102,0,0.152,0.033,0.152,0.104c0,0.066-0.051,0.116-0.146,0.15l-0.293,0.111
		C195.902,38.157,195.764,38.607,195.764,39.4z"/>
	<path class="primarycolor" d="M204.525,39.914v4.72c0,0.425-0.01,0.683-0.026,0.774c-0.021,0.093-0.072,0.137-0.158,0.133
		c-0.057-0.005-0.1-0.021-0.13-0.051l-0.124-0.146l-4.747-5.43l-0.057-0.061c-0.021-0.022-0.049-0.033-0.078-0.033
		c-0.071,0-0.107,0.082-0.107,0.253v3.821l-0.006,0.235l0.018,0.399c0.025,0.248,0.091,0.42,0.191,0.515
		c0.102,0.095,0.301,0.163,0.598,0.208c0.123,0.016,0.187,0.063,0.187,0.145c0,0.074-0.039,0.109-0.118,0.109
		c-0.053,0-0.107-0.004-0.169-0.012c-0.042-0.01-0.204-0.021-0.487-0.034l-0.576-0.026l-0.271,0.01c-0.146,0-0.283,0.01-0.416,0.024
		c-0.098,0.015-0.168,0.021-0.209,0.021c-0.098,0-0.148-0.035-0.156-0.104c-0.005-0.055,0.049-0.101,0.156-0.138
		c0.314-0.108,0.528-0.254,0.641-0.437c0.11-0.185,0.166-0.478,0.166-0.883v-3.834c0-0.648-0.104-1.16-0.311-1.535
		c-0.206-0.373-0.506-0.586-0.896-0.641c-0.103-0.014-0.151-0.057-0.151-0.125c0-0.07,0.041-0.104,0.125-0.104
		c0.019,0,0.048,0,0.09,0.004l0.229,0.007l0.377,0.011l0.091-0.005c0.09-0.004,0.157-0.006,0.209-0.006
		c0.094,0,0.188,0.055,0.28,0.164l5.183,5.866c0.082,0.095,0.134,0.14,0.155,0.137c0.037-0.004,0.06-0.04,0.063-0.108v-2.786
		l0.007-0.761l-0.068-1.296c-0.036-0.318-0.129-0.544-0.277-0.68c-0.146-0.133-0.416-0.229-0.803-0.295
		c-0.108-0.02-0.163-0.063-0.163-0.137c0-0.07,0.055-0.104,0.163-0.104c0.049,0,0.128,0.005,0.236,0.016
		c0.26,0.027,0.604,0.041,1.041,0.041c0.233,0,0.42-0.012,0.56-0.034c0.118-0.021,0.212-0.033,0.274-0.033
		c0.099,0,0.149,0.039,0.157,0.117c0.005,0.049-0.032,0.086-0.112,0.107c-0.229,0.057-0.381,0.15-0.453,0.281
		c-0.072,0.132-0.109,0.378-0.109,0.738v0.605L204.525,39.914z"/>
	<path class="primarycolor" d="M208.079,38.639v2.271c0,0.174,0.019,0.277,0.048,0.314c0.033,0.033,0.13,0.053,0.29,0.053h0.868
		c0.395,0,0.705-0.022,0.934-0.067c0.204-0.041,0.336-0.095,0.396-0.163c0.06-0.066,0.113-0.225,0.162-0.473
		c0.02-0.094,0.065-0.139,0.146-0.137c0.071,0.004,0.108,0.056,0.108,0.151c0,0.026-0.002,0.067-0.006,0.123
		c-0.033,0.363-0.051,0.694-0.051,0.995c0,0.229,0.012,0.454,0.032,0.679c0.009,0.075,0.013,0.132,0.013,0.163
		c0,0.096-0.037,0.141-0.108,0.141c-0.081,0-0.129-0.039-0.146-0.123l-0.033-0.156c-0.045-0.252-0.135-0.422-0.271-0.512
		c-0.134-0.092-0.361-0.138-0.686-0.138h-1.242c-0.184,0-0.307,0.021-0.367,0.058c-0.063,0.037-0.092,0.113-0.092,0.226l0.004,0.188
		v2.074c0,0.319,0.059,0.52,0.172,0.598c0.113,0.08,0.402,0.119,0.869,0.119c1.474,0,2.419-0.332,2.84-0.996
		c0.042-0.064,0.083-0.098,0.127-0.104c0.068-0.004,0.104,0.048,0.104,0.146c0,0.244-0.139,0.533-0.412,0.869
		c-0.329,0.404-0.745,0.606-1.25,0.606c-0.107,0-0.254-0.008-0.438-0.022c-0.718-0.066-1.311-0.102-1.777-0.102
		c-0.658,0-1.121,0.021-1.393,0.066c-0.145,0.027-0.24,0.039-0.294,0.039c-0.119,0-0.181-0.041-0.181-0.121
		c0-0.063,0.051-0.105,0.146-0.131l0.215-0.063c0.271-0.076,0.405-0.339,0.405-0.79l0.005-0.365V39.29
		c0-0.538-0.059-0.899-0.178-1.086c-0.117-0.187-0.35-0.279-0.688-0.279c-0.108,0-0.164-0.034-0.164-0.104
		c0-0.104,0.084-0.152,0.254-0.152c0.095,0,0.221,0.009,0.379,0.025c0.535,0.063,1.182,0.092,1.936,0.092
		c0.458,0,0.864-0.01,1.217-0.021l0.799-0.041c0.224-0.008,0.357-0.016,0.406-0.021c0.104-0.017,0.176-0.021,0.225-0.021
		c0.125,0,0.188,0.055,0.188,0.16c0,0.034-0.004,0.077-0.017,0.131c-0.013,0.053-0.026,0.201-0.046,0.447l-0.021,0.331
		c-0.021,0.218-0.039,0.354-0.058,0.407c-0.021,0.055-0.063,0.083-0.127,0.087c-0.072,0.004-0.109-0.054-0.109-0.169V38.93
		c0-0.119-0.021-0.232-0.064-0.343c-0.071-0.169-0.217-0.28-0.435-0.339s-0.616-0.084-1.196-0.084h-0.885
		c-0.23,0-0.382,0.027-0.447,0.088C208.113,38.311,208.079,38.439,208.079,38.639z"/>
</g>
</svg>
