<?xml version="1.0" encoding="iso-8859-1"?>
<svg version="1.2" baseProfile="tiny" class="logocolor usf" xmlns="http://www.w3.org/2000/svg" xmlns:xlink="http://www.w3.org/1999/xlink" viewBox="0 0 215 70" xml:space="preserve">
<g>
<rect x="51.872" y="1.015" class="secondarycolor knockout" width="103.015" height="49.272"/>
<path class="primarycolor" d="M51.872,1.015v49.272h103.015V1.015H51.872z M90.686,14.005v11.057c0,9.937-2.529,18.2-15.008,18.2
	c-8.438,0-12.91-4.26-12.91-13.735V13.542c0-4.202-4.69-2.62-4.69-4.492c0-0.632,0.577-0.775,0.938-0.775
	c0.58,0,3.969,0.172,6.204,0.172c2.308,0,5.481-0.172,6.349-0.172c0.432,0,0.504,0.373,0.504,0.662c0,1.668-3.753-0.922-3.753,7.111
	v10.628c0,7.488,1.806,13.707,9.814,13.707c9.014,0,10.169-7.748,10.169-16.013v-9.702c0-5.618-5.556-4.091-5.556-5.876
	c0-0.777,0.796-0.517,1.373-0.517c1.298,0.084,2.522,0.172,3.822,0.172c1.442,0,2.884-0.088,5.122-0.172
	c0.502,0,0.793,0.084,0.793,0.632C93.858,10.233,90.686,8.447,90.686,14.005z M106.914,43.262c-3.46,0-6.418-1.181-9.667-1.814
	c-1.44-0.287-1.371-0.688-1.659-1.87l-1.73-6.711c-0.218-0.66-0.793-2.102,0.649-2.102c0.938,0,1.009,0.46,1.228,1.096
	c1.875,4.694,5.336,9.158,11.684,9.158c4.401,0,7.79-2.362,7.79-6.278c0-4.177-3.534-4.809-12.694-8.266
	c-4.905-1.871-8.223-3.772-8.223-8.927c0-5.617,4.542-9.736,11.182-9.736c4.616,0,7.071,1.901,8.728,1.901
	c0.721,0,2.164-0.776,2.883-0.776c0.867,0,0.725,0.72,0.797,1.871l0.647,6.54c0.071,1.093-0.071,1.667-1.296,1.667
	c-1.305,0-2.168-9.101-11.908-9.101c-3.748,0-6.344,1.874-6.344,5.127c0,3.285,3.102,3.944,10.749,6.826
	c6.061,2.302,9.813,4.405,9.813,10.625C119.541,38.913,114.347,43.262,106.914,43.262z M147.89,16.165
	c-2.526,0,1.731-5.817-8.656-5.817c-6.493,0-6.709,0.055-6.709,3.484v6.942c0,2.13,0,2.504,2.308,2.504h3.392
	c4.613,0,4.761-4.58,5.842-4.58c0.361,0,0.938-0.114,1.011,1.241l0.361,8.838c0.07,0.635,0.359,2.42-0.865,2.42
	c-1.735,0-0.219-5.243-5.844-5.243h-3.97c-2.45,0.002-2.234,0.579-2.234,3.458v7.372c0,5.502,6.058,4.264,6.058,5.588
	c0,1.007-1.151,0.805-2.451,0.805c-2.093,0-4.043-0.201-6.42-0.201c-1.658,0-3.896,0.201-6.854,0.201
	c-0.722,0-1.011-0.258-1.011-0.546c0-2.274,4.038,0.402,4.038-5.676V13.717c0-4.464-6.057-2.851-6.057-4.869
	c0-0.429,0.431-0.833,1.225-0.833c2.163,0,6.061,0.202,14.286,0.202c3.751,0,7.498-0.202,12.191-0.202
	c0.72,0,1.081,0.489,1.081,0.95l0.214,4.924C148.898,14.522,149.188,16.165,147.89,16.165z"/>
<path class="primarycolor" d="M68.481,68.156c-0.717-0.19-1.226-0.385-1.226-1.162V55.272c0-0.863,0.482-0.995,0.904-1.108
	c0.24-0.063,0.54-0.145,0.54-0.447c0-0.408-0.267-0.607-0.812-0.607c-0.196,0-0.37,0.016-0.572,0.034
	c-0.266,0.025-0.569,0.051-1.016,0.051c-0.183,0-0.501-0.017-0.873-0.032c-0.48-0.025-1.023-0.053-1.435-0.053
	c-0.41,0-0.596,0.151-0.596,0.493c0,0.352,0.35,0.453,0.655,0.545c0.498,0.149,1.006,0.302,1.006,1.125v4.522
	c0,0.217-0.027,0.342-0.048,0.397h-8.012c-0.063,0-0.103-0.003-0.128-0.006c-0.002-0.036-0.002-0.089-0.002-0.134v-4.78
	c0-0.931,0.531-1.079,0.999-1.209c0.274-0.08,0.591-0.167,0.591-0.489c0-0.212-0.106-0.465-0.594-0.465
	c-0.382,0-0.754,0.022-1.118,0.044c-0.343,0.022-0.667,0.041-0.978,0.041c-0.381,0-0.76-0.019-1.16-0.041
	c-0.411-0.021-0.842-0.044-1.291-0.044c-0.349,0-0.595,0.202-0.595,0.493c0,0.361,0.376,0.443,0.739,0.524
	c0.684,0.153,1.209,0.335,1.209,1.146V66.59c0,1.244-0.569,1.393-1.071,1.526c-0.294,0.079-0.663,0.172-0.663,0.576
	c0,0.537,0.346,0.579,0.452,0.579c0.047,0,0.093-0.008,0.158-0.014c0.189-0.023,0.584-0.073,1.789-0.073
	c0.739,0,1.645,0.039,2.309,0.059c0.368,0.019,0.66,0.028,0.793,0.028c0.288,0,0.523-0.195,0.523-0.437
	c0-0.447-0.459-0.56-0.904-0.67c-0.717-0.175-1.188-0.342-1.188-1.029v-5.499c0-0.048,0-0.101,0.004-0.137
	c0.014-0.004,0.027-0.004,0.051-0.004h8.141c0,0.038-0.001,0.089-0.001,0.13c-0.002,0.055-0.005,0.118-0.005,0.185v5.325
	c0,0.636-0.357,0.807-0.903,0.995c-0.321,0.115-0.687,0.24-0.687,0.618c0,0.194,0.081,0.313,0.149,0.379
	c0.167,0.16,0.402,0.152,0.543,0.146c0.02-0.002,0.036-0.002,0.05-0.002c0.16,0,0.343-0.01,0.579-0.028
	c0.43-0.02,1.02-0.059,1.943-0.059c0.42,0,0.794,0.026,1.155,0.048c0.305,0.019,0.593,0.039,0.867,0.039
	c0.354,0,0.522-0.311,0.522-0.522C69.277,68.368,68.872,68.26,68.481,68.156z"/>
<path class="primarycolor" d="M85.707,65.636c-0.161,0-0.261,0.113-0.428,0.301c-0.473,0.539-1.735,1.976-5.704,1.976
	c-0.723,0-1.143-0.088-1.322-0.269c-0.183-0.185-0.181-0.542-0.179-1.081V66.3v-4.061c0-0.04,0-0.082,0-0.12
	c-0.002-0.12-0.004-0.286,0.037-0.329c0.006-0.008,0.045-0.037,0.164-0.037h3.246c0.965,0,1.067,0.548,1.18,1.13
	c0.068,0.37,0.153,0.831,0.624,0.831c0.105,0,0.452-0.037,0.452-0.523v-3.999c0-0.32-0.156-0.639-0.452-0.639
	c-0.337,0-0.432,0.328-0.505,0.59c-0.142,0.491-0.334,1.167-1.731,1.167h-2.38c-0.281,0-0.547-0.002-0.603-0.036
	c-0.029-0.052-0.032-0.268-0.032-0.479v-4.12c0-0.548,0-0.911,0.113-1.025c0.132-0.128,0.582-0.127,1.328-0.124h0.421l0.378-0.003
	c0.894-0.015,2.751-0.048,3.187,0.519c0.11,0.16,0.132,0.441,0.151,0.715c0.027,0.405,0.064,0.96,0.611,0.96
	c0.207,0,0.363-0.19,0.469-0.565c0.132-0.47,0.197-1.248,0.197-2.317c0-0.532-0.231-0.724-0.449-0.724
	c-0.412,0-1.229,0.027-1.947,0.053c-0.537,0.016-1.043,0.032-1.226,0.032c-0.298,0-0.619-0.008-1.06-0.021
	c-0.947-0.023-2.374-0.063-5.217-0.063c-0.436,0-1.029,0-1.029,0.522c0,0.381,0.441,0.48,0.679,0.532
	c0.043,0.011,0.099,0.024,0.119,0.029l0.024,0.011c0.001,0,0.028,0.004,0.028,0.004c0.959,0.134,1.029,0.842,1.029,1.986V66.3
	c0,1.01-0.078,1.523-0.515,1.718c-0.234,0.125-0.413,0.198-0.556,0.255c-0.267,0.108-0.52,0.212-0.52,0.534
	c0,0.276,0.211,0.465,0.524,0.465c0.483,0,0.968-0.022,1.436-0.044c0.456-0.023,0.888-0.043,1.306-0.043
	c0.97-0.034,1.972,0.002,2.942,0.039c0.695,0.02,1.411,0.048,2.107,0.048h0.097c0.885,0,1.473,0.002,2.237-0.823
	c0.56-0.668,1.143-1.443,1.143-2.321C86.082,65.66,85.769,65.636,85.707,65.636z"/>
<path class="primarycolor" d="M104.421,68.259c-0.421-0.079-0.894-0.164-1.208-0.646c-0.436-0.672-0.704-1.454-0.965-2.215l-0.09-0.269
	c-0.003-0.01-4.622-11.414-4.622-11.414c-0.012-0.032-0.032-0.088-0.051-0.15c-0.115-0.358-0.258-0.802-0.6-0.802
	c-0.372,0-0.461,0.197-1.157,1.721l-0.714,1.554c0-0.002-5.337,11.288-5.337,11.288c-0.307,0.675-0.725,0.811-1.06,0.922
	c-0.247,0.079-0.547,0.178-0.547,0.531c0,0.288,0.184,0.492,0.448,0.492c0.299,0,0.598-0.022,0.885-0.044
	c0.278-0.021,0.568-0.043,0.848-0.043c0.314,0,0.625,0.022,0.918,0.043c0.307,0.021,0.625,0.044,0.957,0.044
	c0.028,0,0.062,0,0.091,0.002c0.188,0.004,0.407,0.007,0.563-0.146c0.104-0.101,0.158-0.247,0.158-0.436
	c0-0.413-0.409-0.485-0.705-0.541c-0.453-0.081-0.887-0.156-0.887-0.928c0-0.216,0.115-0.481,0.18-0.642l0.018-0.047
	c0,0.007,1.372-3.074,1.372-3.074c0.143-0.308,0.41-0.321,0.87-0.321h4.833c0.481,0,0.574,0.165,0.792,0.69
	c-0.005-0.011,0.645,1.802,0.645,1.802c0.448,0.94,0.708,1.689,0.708,2.022c0,0.279-0.244,0.38-0.646,0.514
	c-0.322,0.107-0.725,0.242-0.725,0.639c0,0.213,0.128,0.465,0.741,0.465c0.343,0,0.659-0.024,0.972-0.045
	c0.287-0.022,0.56-0.042,0.832-0.042c0.461,0,0.918,0.022,1.359,0.043c0.445,0.021,0.908,0.044,1.381,0.044
	c0.348,0,0.524-0.147,0.524-0.437C105.202,68.399,104.768,68.322,104.421,68.259z M96.274,56.308l2.129,5.242
	c0.027,0.063,0.042,0.105,0.053,0.134c-0.028,0.005-0.065,0.006-0.124,0.006h-4.404c-0.044,0-0.074-0.001-0.099-0.006
	c0.005-0.018,0.012-0.038,0.025-0.066C93.854,61.617,95.979,56.956,96.274,56.308z"/>
<path class="primarycolor" d="M118.383,65.636c-0.162,0-0.266,0.121-0.419,0.301c-0.459,0.541-1.681,1.976-5.712,1.976
	c-0.72,0-1.141-0.088-1.32-0.269c-0.186-0.185-0.182-0.542-0.177-1.082V66.3V55.56c0-1.093,0.554-1.241,1.038-1.375
	c0.275-0.076,0.621-0.17,0.621-0.526c0-0.549-0.502-0.549-0.666-0.549c-0.135,0-0.28,0.011-0.469,0.022
	c-0.362,0.027-0.854,0.063-1.697,0.063c-0.633,0-1.123-0.029-1.515-0.055c-0.273-0.015-0.506-0.03-0.722-0.03
	c-0.164,0-0.664,0-0.664,0.522c0,0.352,0.384,0.466,0.792,0.586c0.636,0.187,1.083,0.361,1.083,0.855V66.3
	c0,0.991-0.069,1.528-0.449,1.725c-0.227,0.106-0.404,0.179-0.545,0.235c-0.302,0.121-0.502,0.199-0.585,0.483l-0.008,0.032v0.031
	c0,0.11,0.04,0.465,0.594,0.465c0.438,0,0.901-0.022,1.347-0.044c0.443-0.021,0.898-0.043,1.325-0.043
	c0.966-0.034,1.968,0.002,2.94,0.039c0.695,0.02,1.41,0.048,2.106,0.048h0.104c0.944,0,1.466,0.003,2.233-0.823
	c0.558-0.671,1.146-1.444,1.146-2.321C118.766,65.66,118.447,65.636,118.383,65.636z"/>
<path class="primarycolor" d="M133.335,54.005c0-0.24-0.024-0.509-0.201-0.688c-0.179-0.183-0.446-0.207-0.684-0.207
	c-0.11,0-0.312,0.005-0.622,0.013c-0.917,0.024-2.826,0.072-5.867,0.072c-1.575,0-2.811-0.025-3.896-0.05
	c-0.87-0.018-1.616-0.035-2.382-0.035c-0.586,0-0.596,0.771-0.596,1.079l-0.287,2.147v0.015v0.018c0,0.232,0.236,0.492,0.448,0.492
	c0.446,0,0.575-0.421,0.646-0.646l0.012-0.038c0-0.004,0.018-0.058,0.018-0.058c0.344-1.153,0.386-1.303,1.561-1.303h3.555
	c0.023,0.063,0.057,0.231,0.039,0.683c0,0.042-0.001,0.068-0.001,0.089v11.521c0,0.596-0.41,0.787-0.989,0.997
	c-0.364,0.131-0.746,0.267-0.746,0.646c0,0.484,0.346,0.521,0.453,0.521c0.039,0,0.08-0.004,0.15-0.01
	c0.25-0.021,0.918-0.077,2.881-0.077c0.334,0,0.672,0.026,0.996,0.048c0.287,0.019,0.561,0.039,0.805,0.039
	c0.106,0,0.451-0.037,0.451-0.521c0-0.436-0.414-0.525-0.749-0.6c-0.519-0.114-1.056-0.23-1.056-1.214V55.645v-0.229
	c-0.002-0.266-0.002-0.519,0.029-0.581c0.053-0.024,0.238-0.024,0.418-0.02h0.184h3.176c1.24,0,1.276,0.476,1.311,0.939
	c0.023,0.273,0.058,0.73,0.566,0.73c0.522,0,0.522-0.508,0.522-0.723C133.479,55.741,133.335,53.985,133.335,54.005z"/>
<path class="primarycolor" d="M153.459,68.156c-0.716-0.19-1.227-0.385-1.227-1.162V55.272c0-0.861,0.511-0.992,0.957-1.108
	c0.251-0.063,0.562-0.144,0.562-0.447c0-0.183-0.085-0.607-0.884-0.607c-0.197,0-0.371,0.016-0.574,0.034
	c-0.264,0.025-0.566,0.051-1.013,0.051c-0.185,0-0.503-0.017-0.872-0.032c-0.481-0.025-1.023-0.053-1.436-0.053
	s-0.596,0.151-0.596,0.493c0,0.352,0.347,0.453,0.654,0.545c0.493,0.149,1.005,0.302,1.005,1.125v4.521c0,0.019,0,0.035,0.003,0.063
	c0.013,0.21-0.003,0.299-0.016,0.336h-8.048c-0.025,0-0.04-0.003-0.054-0.003c-0.004-0.038-0.004-0.089-0.004-0.137v-4.78
	c0-0.931,0.531-1.079,0.998-1.209c0.277-0.08,0.592-0.167,0.592-0.489c0-0.078-0.035-0.465-0.671-0.465
	c-0.367,0-0.716,0.021-1.058,0.044c-0.332,0.02-0.678,0.041-1.034,0.041c-0.378,0-0.759-0.019-1.157-0.041
	c-0.416-0.021-0.845-0.044-1.295-0.044c-0.31,0-0.521,0.199-0.521,0.493c0,0.359,0.383,0.445,0.716,0.524
	c0.545,0.125,1.16,0.269,1.16,1.146V66.59c0,1.244-0.569,1.393-1.069,1.526c-0.294,0.079-0.662,0.172-0.662,0.576
	c0,0.504,0.33,0.579,0.525,0.579c0.027,0,0.054-0.004,0.092-0.01c0.123-0.02,0.491-0.077,1.781-0.077
	c0.767,0,1.76,0.039,2.414,0.064c0.34,0.013,0.586,0.022,0.688,0.022c0.408,0,0.594-0.228,0.594-0.437
	c0-0.447-0.459-0.56-0.902-0.67c-0.721-0.175-1.189-0.342-1.189-1.029v-5.499c0-0.048,0-0.101,0.004-0.141h8.123
	c0,0.038-0.004,0.089-0.004,0.13c-0.005,0.055-0.005,0.114-0.005,0.185v5.325c0,0.636-0.358,0.807-0.901,0.995
	c-0.322,0.115-0.686,0.24-0.686,0.619c0,0.193,0.077,0.307,0.143,0.372c0.168,0.165,0.415,0.158,0.592,0.152
	c0.027-0.003,0.053-0.003,0.077-0.003c0.161,0,0.335-0.01,0.562-0.028c0.408-0.02,0.967-0.059,1.889-0.059
	c0.408,0,0.779,0.022,1.139,0.045c0.328,0.021,0.637,0.042,0.957,0.042c0.287,0,0.447-0.31,0.447-0.521
	C154.254,68.368,153.851,68.26,153.459,68.156z"/>
<path class="primarycolor" d="M160.316,0.723c1.566,0,2.813,1.271,2.813,2.862c0,1.619-1.246,2.879-2.826,2.879
	c-1.566,0-2.838-1.26-2.838-2.879c0-1.591,1.271-2.862,2.838-2.862H160.316z M160.303,1.168c-1.262,0-2.291,1.08-2.291,2.417
	c0,1.365,1.029,2.433,2.305,2.433c1.271,0.014,2.291-1.068,2.291-2.418c0-1.351-1.02-2.431-2.291-2.431H160.303z M159.768,5.256
	h-0.51V2.058c0.268-0.038,0.521-0.076,0.906-0.076c0.48,0,0.803,0.102,0.992,0.243c0.189,0.14,0.291,0.354,0.291,0.66
	c0,0.422-0.281,0.677-0.623,0.778v0.025c0.279,0.052,0.471,0.306,0.537,0.775c0.074,0.499,0.15,0.688,0.201,0.792h-0.535
	c-0.076-0.104-0.154-0.395-0.219-0.818c-0.072-0.406-0.277-0.559-0.686-0.559h-0.355V5.256z M159.768,3.485h0.367
	c0.422,0,0.779-0.152,0.779-0.549c0-0.279-0.205-0.559-0.779-0.559c-0.166,0-0.277,0.013-0.367,0.026V3.485z"/>
</svg>
