<?xml version="1.0" encoding="utf-8"?>
<!-- Generator: Adobe Illustrator 16.0.3, SVG Export Plug-In . SVG Version: 6.00 Build 0)  -->
<!DOCTYPE svg PUBLIC "-//W3C//DTD SVG 1.1//EN" "http://www.w3.org/Graphics/SVG/1.1/DTD/svg11.dtd">
<svg version="1.1" id="Layer_1" xmlns="http://www.w3.org/2000/svg" xmlns:xlink="http://www.w3.org/1999/xlink" x="0px" y="0px"
	 width="215px" height="70px" viewBox="0 0 215 70" enable-background="new 0 0 215 70" xml:space="preserve">
<g>
	<g id="Text">
		<g>
			<path fill="#FFFFFF" d="M2.56,49.813c0-2.283,0-2.693-0.03-3.161c-0.029-0.499-0.146-0.733-0.63-0.835
				c-0.117-0.029-0.366-0.044-0.498-0.044c-0.058,0-0.117-0.029-0.117-0.089c0-0.088,0.073-0.116,0.234-0.116
				c0.659,0,1.552,0.043,1.683,0.043c0.133,0,1.011-0.043,1.45-0.043c0.161,0,0.234,0.028,0.234,0.116
				c0,0.06-0.059,0.089-0.117,0.089c-0.103,0-0.191,0.015-0.367,0.044c-0.395,0.059-0.512,0.321-0.542,0.835
				c-0.028,0.468-0.028,0.878-0.028,3.161v2.051c0,2.109,0.469,3.017,1.098,3.617c0.718,0.673,1.376,0.806,2.211,0.806
				c0.893,0,1.772-0.426,2.298-1.055c0.673-0.835,0.85-2.079,0.85-3.588v-1.831c0-2.283,0-2.693-0.029-3.161
				c-0.03-0.499-0.147-0.733-0.63-0.835c-0.117-0.029-0.366-0.044-0.499-0.044c-0.059,0-0.117-0.029-0.117-0.089
				c0-0.088,0.073-0.116,0.234-0.116c0.659,0,1.464,0.043,1.553,0.043c0.102,0,0.79-0.043,1.229-0.043
				c0.161,0,0.234,0.028,0.234,0.116c0,0.06-0.058,0.089-0.117,0.089c-0.103,0-0.191,0.015-0.366,0.044
				c-0.396,0.087-0.513,0.321-0.542,0.835c-0.03,0.468-0.03,0.878-0.03,3.161v1.568c0,1.581-0.176,3.338-1.347,4.378
				c-1.054,0.937-2.152,1.083-3.017,1.083c-0.499,0-1.977-0.059-3.016-1.04c-0.717-0.687-1.274-1.713-1.274-3.851V49.813z"/>
			<path fill="#FFFFFF" d="M14.921,54.646c0.028,1.201,0.175,1.581,0.57,1.697c0.279,0.074,0.601,0.089,0.733,0.089
				c0.072,0,0.117,0.03,0.117,0.088c0,0.088-0.088,0.117-0.264,0.117c-0.833,0-1.419-0.044-1.552-0.044
				c-0.131,0-0.747,0.044-1.405,0.044c-0.146,0-0.234-0.014-0.234-0.117c0-0.058,0.043-0.088,0.118-0.088
				c0.117,0,0.38-0.015,0.6-0.089c0.366-0.102,0.44-0.525,0.44-1.857l0.014-8.391c0-0.572,0.045-0.733,0.162-0.733
				s0.366,0.322,0.512,0.47c0.219,0.247,2.402,2.606,4.657,5.022c1.449,1.552,3.045,3.338,3.514,3.821l-0.161-7.439
				c-0.015-0.95-0.117-1.273-0.571-1.391c-0.264-0.058-0.6-0.072-0.718-0.072c-0.102,0-0.117-0.044-0.117-0.103
				c0-0.088,0.117-0.103,0.293-0.103c0.66,0,1.362,0.043,1.523,0.043s0.644-0.043,1.244-0.043c0.161,0,0.264,0.015,0.264,0.103
				c0,0.059-0.06,0.103-0.161,0.103c-0.073,0-0.176,0-0.351,0.044c-0.484,0.102-0.542,0.425-0.542,1.303l-0.03,8.58
				c0,0.968-0.029,1.041-0.131,1.041c-0.117,0-0.293-0.162-1.069-0.938c-0.161-0.146-2.27-2.298-3.821-3.968
				c-1.699-1.83-3.354-3.675-3.822-4.202L14.921,54.646z"/>
			<path fill="#FFFFFF" d="M28.7,52.391c0,1.406,0,2.563,0.073,3.178c0.043,0.425,0.131,0.746,0.57,0.806
				c0.205,0.028,0.527,0.058,0.659,0.058c0.088,0,0.118,0.044,0.118,0.088c0,0.073-0.073,0.117-0.234,0.117
				c-0.805,0-1.728-0.044-1.801-0.044s-0.996,0.044-1.435,0.044c-0.161,0-0.234-0.029-0.234-0.117c0-0.044,0.03-0.088,0.118-0.088
				c0.132,0,0.308-0.029,0.438-0.058c0.294-0.06,0.367-0.381,0.425-0.806c0.073-0.614,0.073-1.771,0.073-3.178v-2.578
				c0-2.283,0-2.693-0.03-3.161c-0.028-0.499-0.175-0.748-0.497-0.82c-0.161-0.044-0.351-0.059-0.454-0.059
				c-0.058,0-0.117-0.029-0.117-0.089c0-0.088,0.073-0.116,0.233-0.116c0.483,0,1.406,0.043,1.479,0.043s0.996-0.043,1.435-0.043
				c0.161,0,0.234,0.028,0.234,0.116c0,0.06-0.059,0.089-0.118,0.089c-0.102,0-0.19,0.015-0.366,0.044
				c-0.396,0.072-0.513,0.321-0.542,0.835C28.7,47.119,28.7,47.529,28.7,49.813V52.391z"/>
			<path fill="#FFFFFF" d="M36.896,54.851c0.849-1.962,2.812-7.073,3.133-8.126c0.074-0.221,0.133-0.426,0.133-0.558
				c0-0.117-0.045-0.264-0.191-0.336c-0.175-0.059-0.395-0.059-0.557-0.059c-0.087,0-0.16-0.016-0.16-0.089
				c0-0.088,0.088-0.116,0.323-0.116c0.585,0,1.259,0.043,1.434,0.043c0.088,0,0.718-0.043,1.144-0.043
				c0.16,0,0.248,0.028,0.248,0.103c0,0.073-0.058,0.103-0.176,0.103c-0.102,0-0.424,0-0.702,0.176
				c-0.191,0.13-0.411,0.38-0.806,1.375c-0.16,0.411-0.893,2.168-1.64,3.969c-0.893,2.139-1.552,3.72-1.889,4.438
				c-0.41,0.877-0.469,1.111-0.615,1.111c-0.175,0-0.248-0.205-0.527-0.907l-3.587-8.977c-0.323-0.82-0.542-0.981-1.055-1.127
				c-0.219-0.059-0.469-0.059-0.557-0.059s-0.117-0.044-0.117-0.103c0-0.088,0.146-0.103,0.38-0.103
				c0.703,0,1.538,0.043,1.714,0.043c0.146,0,0.805-0.043,1.362-0.043c0.263,0,0.396,0.028,0.396,0.103
				c0,0.073-0.044,0.103-0.146,0.103c-0.161,0-0.425,0.015-0.557,0.072c-0.161,0.073-0.191,0.191-0.191,0.293
				c0,0.19,0.176,0.644,0.396,1.216L36.896,54.851z"/>
			<path fill="#FFFFFF" d="M44.54,49.813c0-2.283,0-2.693-0.03-3.161c-0.028-0.499-0.146-0.733-0.63-0.835
				c-0.117-0.029-0.366-0.044-0.498-0.044c-0.058,0-0.117-0.029-0.117-0.089c0-0.088,0.073-0.116,0.234-0.116
				c0.336,0,0.732,0,1.054,0.015l0.601,0.028c0.102,0,3.017,0,3.353-0.015c0.278-0.014,0.513-0.043,0.63-0.073
				c0.073-0.015,0.132-0.073,0.205-0.073c0.044,0,0.058,0.059,0.058,0.133c0,0.102-0.073,0.278-0.117,0.688
				c-0.015,0.146-0.044,0.789-0.073,0.965c-0.015,0.073-0.043,0.161-0.103,0.161c-0.087,0-0.117-0.073-0.117-0.189
				c0-0.103-0.015-0.352-0.088-0.527c-0.103-0.233-0.249-0.409-1.039-0.497c-0.25-0.03-1.846-0.045-2.007-0.045
				c-0.058,0-0.087,0.045-0.087,0.147v4.041c0,0.102,0.014,0.146,0.087,0.146c0.191,0,1.992,0,2.328-0.029
				c0.352-0.029,0.557-0.059,0.688-0.205c0.103-0.117,0.161-0.191,0.219-0.191c0.044,0,0.074,0.03,0.074,0.118
				c0,0.087-0.074,0.336-0.118,0.82c-0.029,0.292-0.058,0.834-0.058,0.938c0,0.116,0,0.277-0.103,0.277
				c-0.073,0-0.103-0.06-0.103-0.132c0-0.146,0-0.293-0.058-0.483c-0.059-0.204-0.19-0.454-0.762-0.513
				C47.571,51.028,46.122,51,45.872,51c-0.073,0-0.102,0.043-0.102,0.103v1.288c0,0.498-0.016,2.196,0,2.504
				c0.043,1.011,0.263,1.201,1.698,1.201c0.381,0,1.025,0,1.406-0.161c0.38-0.162,0.557-0.454,0.66-1.055
				c0.028-0.161,0.058-0.219,0.131-0.219c0.088,0,0.088,0.116,0.088,0.219c0,0.116-0.118,1.113-0.191,1.421
				c-0.103,0.38-0.219,0.38-0.79,0.38c-1.099,0-1.904-0.029-2.475-0.044c-0.571-0.029-0.922-0.044-1.142-0.044
				c-0.03,0-0.279,0-0.586,0.015c-0.293,0-0.629,0.029-0.849,0.029c-0.161,0-0.234-0.029-0.234-0.117
				c0-0.044,0.029-0.088,0.117-0.088c0.131,0,0.308-0.029,0.439-0.058c0.294-0.06,0.366-0.381,0.425-0.806
				c0.073-0.614,0.073-1.771,0.073-3.178V49.813z"/>
			<path fill="#FFFFFF" d="M52.445,49.813c0-2.283,0-2.693-0.029-3.161c-0.029-0.499-0.146-0.733-0.63-0.835
				c-0.117-0.029-0.366-0.044-0.497-0.044c-0.059,0-0.117-0.029-0.117-0.089c0-0.088,0.073-0.116,0.234-0.116
				c0.659,0,1.58,0.043,1.654,0.043c0.161,0,1.274-0.043,1.728-0.043c0.921,0,1.903,0.088,2.679,0.644
				c0.366,0.265,1.011,0.981,1.011,1.992c0,1.083-0.454,2.168-1.771,3.382c1.201,1.537,2.195,2.841,3.045,3.748
				c0.792,0.835,1.42,0.996,1.786,1.055c0.279,0.044,0.484,0.044,0.572,0.044c0.073,0,0.131,0.044,0.131,0.088
				c0,0.088-0.088,0.117-0.351,0.117h-1.04c-0.82,0-1.186-0.073-1.567-0.277c-0.63-0.338-1.142-1.055-1.977-2.152
				c-0.615-0.807-1.302-1.788-1.596-2.168c-0.058-0.059-0.102-0.088-0.19-0.088l-1.801-0.028c-0.073,0-0.103,0.043-0.103,0.116
				v0.352c0,1.406,0,2.563,0.073,3.178c0.045,0.425,0.133,0.746,0.572,0.806c0.205,0.028,0.527,0.058,0.659,0.058
				c0.088,0,0.117,0.044,0.117,0.088c0,0.073-0.072,0.117-0.233,0.117c-0.806,0-1.729-0.044-1.801-0.044
				c-0.016,0-0.938,0.044-1.377,0.044c-0.161,0-0.234-0.029-0.234-0.117c0-0.044,0.029-0.088,0.117-0.088
				c0.132,0,0.308-0.029,0.439-0.058c0.293-0.06,0.366-0.381,0.425-0.806c0.073-0.614,0.073-1.771,0.073-3.178V49.813z
				 M53.616,51.088c0,0.072,0.029,0.132,0.103,0.176c0.22,0.132,0.893,0.233,1.537,0.233c0.352,0,0.761-0.043,1.099-0.277
				c0.512-0.353,0.893-1.143,0.893-2.255c0-1.831-0.966-2.929-2.533-2.929c-0.44,0-0.835,0.042-0.981,0.087
				c-0.074,0.029-0.118,0.088-0.118,0.176V51.088z"/>
			<path fill="#FFFFFF" d="M62.902,56.447c-0.205-0.104-0.219-0.161-0.219-0.557c0-0.732,0.059-1.317,0.073-1.552
				c0.015-0.161,0.044-0.235,0.117-0.235c0.088,0,0.103,0.044,0.103,0.161c0,0.132,0,0.337,0.044,0.542
				c0.22,1.084,1.186,1.494,2.167,1.494c1.405,0,2.094-1.011,2.094-1.948c0-1.01-0.424-1.597-1.683-2.635l-0.66-0.542
				c-1.552-1.274-1.904-2.183-1.904-3.178c0-1.567,1.172-2.637,3.031-2.637c0.571,0,0.996,0.06,1.363,0.146
				c0.278,0.06,0.395,0.074,0.512,0.074c0.117,0,0.146,0.028,0.146,0.102s-0.059,0.558-0.059,1.552c0,0.234-0.029,0.338-0.102,0.338
				c-0.088,0-0.103-0.073-0.118-0.19c-0.014-0.176-0.102-0.57-0.189-0.731c-0.088-0.162-0.484-0.776-1.831-0.776
				c-1.011,0-1.801,0.629-1.801,1.698c0,0.835,0.381,1.361,1.786,2.46l0.411,0.321c1.728,1.363,2.138,2.271,2.138,3.442
				c0,0.6-0.235,1.713-1.245,2.43c-0.629,0.44-1.42,0.615-2.211,0.615C64.177,56.842,63.504,56.74,62.902,56.447z"/>
			<path fill="#FFFFFF" d="M72.284,52.391c0,1.406,0,2.563,0.073,3.178c0.045,0.425,0.132,0.746,0.572,0.806
				c0.205,0.028,0.526,0.058,0.659,0.058c0.087,0,0.117,0.044,0.117,0.088c0,0.073-0.073,0.117-0.234,0.117
				c-0.805,0-1.728-0.044-1.801-0.044s-0.996,0.044-1.435,0.044c-0.16,0-0.234-0.029-0.234-0.117c0-0.044,0.03-0.088,0.118-0.088
				c0.131,0,0.308-0.029,0.439-0.058c0.293-0.06,0.366-0.381,0.424-0.806c0.074-0.614,0.074-1.771,0.074-3.178v-2.578
				c0-2.283,0-2.693-0.03-3.161c-0.03-0.499-0.176-0.748-0.499-0.82c-0.161-0.044-0.351-0.059-0.453-0.059
				c-0.06,0-0.118-0.029-0.118-0.089c0-0.088,0.073-0.116,0.234-0.116c0.482,0,1.405,0.043,1.479,0.043s0.996-0.043,1.435-0.043
				c0.161,0,0.234,0.028,0.234,0.116c0,0.06-0.059,0.089-0.117,0.089c-0.103,0-0.191,0.015-0.366,0.044
				c-0.396,0.072-0.512,0.321-0.542,0.835c-0.029,0.468-0.029,0.878-0.029,3.161V52.391z"/>
			<path fill="#FFFFFF" d="M79.913,52.391c0,1.406,0,2.563,0.073,3.178c0.044,0.425,0.131,0.746,0.57,0.806
				c0.206,0.028,0.527,0.058,0.66,0.058c0.087,0,0.117,0.044,0.117,0.088c0,0.073-0.073,0.117-0.234,0.117
				c-0.805,0-1.728-0.044-1.801-0.044s-0.996,0.044-1.435,0.044c-0.161,0-0.234-0.029-0.234-0.117c0-0.044,0.03-0.088,0.117-0.088
				c0.132,0,0.308-0.029,0.44-0.058c0.293-0.06,0.366-0.381,0.424-0.806c0.073-0.614,0.073-1.771,0.073-3.178v-6.193l-2.167,0.028
				c-0.908,0.016-1.259,0.117-1.493,0.468c-0.161,0.25-0.205,0.353-0.249,0.454c-0.044,0.119-0.088,0.147-0.146,0.147
				c-0.043,0-0.073-0.043-0.073-0.132c0-0.146,0.292-1.406,0.322-1.522c0.029-0.088,0.087-0.279,0.146-0.279
				c0.103,0,0.248,0.146,0.644,0.176c0.424,0.045,0.981,0.073,1.157,0.073h5.491c0.469,0,0.806-0.028,1.04-0.073
				c0.22-0.029,0.352-0.071,0.411-0.071c0.073,0,0.073,0.087,0.073,0.175c0,0.438-0.044,1.449-0.044,1.611
				c0,0.131-0.044,0.189-0.103,0.189c-0.073,0-0.103-0.045-0.118-0.249l-0.014-0.161c-0.044-0.439-0.396-0.776-1.802-0.806
				l-1.844-0.028V52.391z"/>
			<path fill="#FFFFFF" d="M88.952,52.844c0-0.791-0.146-1.112-0.337-1.536c-0.103-0.235-2.065-3.457-2.577-4.218
				c-0.366-0.542-0.732-0.907-0.996-1.083c-0.219-0.146-0.498-0.234-0.629-0.234c-0.073,0-0.146-0.029-0.146-0.103
				c0-0.06,0.058-0.103,0.189-0.103c0.279,0,1.377,0.043,1.45,0.043c0.103,0,0.66-0.043,1.23-0.043c0.162,0,0.191,0.043,0.191,0.103
				c0,0.059-0.088,0.073-0.22,0.131c-0.117,0.06-0.191,0.147-0.191,0.264c0,0.177,0.074,0.352,0.191,0.572
				c0.234,0.423,2.431,4.202,2.694,4.627c0.279-0.615,2.139-3.822,2.432-4.306c0.19-0.307,0.249-0.556,0.249-0.747
				c0-0.204-0.059-0.366-0.234-0.41c-0.132-0.044-0.22-0.072-0.22-0.146c0-0.06,0.088-0.088,0.234-0.088
				c0.381,0,0.85,0.043,0.966,0.043c0.088,0,1.142-0.043,1.42-0.043c0.103,0,0.19,0.028,0.19,0.088c0,0.073-0.073,0.117-0.19,0.117
				c-0.161,0-0.439,0.059-0.674,0.204c-0.292,0.176-0.453,0.352-0.775,0.748c-0.483,0.584-2.534,4.026-2.797,4.656
				c-0.219,0.526-0.219,0.98-0.219,1.463v1.26c0,0.235,0,0.851,0.043,1.465c0.029,0.425,0.161,0.746,0.6,0.806
				c0.205,0.028,0.527,0.058,0.659,0.058c0.088,0,0.118,0.044,0.118,0.088c0,0.073-0.073,0.117-0.234,0.117
				c-0.806,0-1.729-0.044-1.801-0.044c-0.074,0-0.996,0.044-1.435,0.044c-0.161,0-0.234-0.029-0.234-0.117
				c0-0.044,0.029-0.088,0.117-0.088c0.131,0,0.308-0.029,0.439-0.058c0.293-0.06,0.425-0.381,0.454-0.806
				c0.044-0.614,0.044-1.229,0.044-1.465V52.844z"/>
		</g>
		<g>
			<path fill="#FFFFFF" d="M128.34,56.701V45.311h2.363c1.703,0,2.94,0.137,3.708,0.41c1.106,0.388,1.97,1.058,2.592,2.014
				c0.621,0.955,0.933,2.094,0.933,3.415c0,1.141-0.246,2.145-0.74,3.012c-0.492,0.868-1.132,1.508-1.92,1.921
				c-0.787,0.412-1.892,0.619-3.311,0.619H128.34z M129.433,55.625h1.316c1.575,0,2.667-0.098,3.275-0.295
				c0.857-0.277,1.53-0.779,2.021-1.504c0.491-0.726,0.736-1.61,0.736-2.657c0-1.1-0.266-2.038-0.797-2.817
				c-0.532-0.778-1.273-1.312-2.223-1.602c-0.712-0.217-1.887-0.324-3.523-0.324h-0.806V55.625z"/>
			<path fill="#FFFFFF" d="M140.435,45.311h1.139v11.391h-1.139V45.311z"/>
			<path fill="#FFFFFF" d="M144.671,45.311h2.271c1.264,0,2.121,0.051,2.569,0.155c0.677,0.154,1.226,0.486,1.65,0.995
				c0.422,0.51,0.634,1.137,0.634,1.882c0,0.62-0.146,1.165-0.438,1.635c-0.291,0.471-0.708,0.826-1.251,1.065
				c-0.541,0.241-1.289,0.364-2.245,0.369l4.096,5.289h-1.407l-4.098-5.289h-0.643v5.289h-1.139V45.311z M145.81,46.426v3.871
				l1.962,0.016c0.76,0,1.322-0.072,1.688-0.217c0.364-0.145,0.648-0.376,0.853-0.693c0.205-0.317,0.308-0.671,0.308-1.064
				c0-0.381-0.104-0.729-0.312-1.041c-0.207-0.313-0.478-0.536-0.813-0.669c-0.336-0.135-0.896-0.202-1.676-0.202H145.81z"/>
			<path fill="#FFFFFF" d="M154.409,45.311h6.527v1.115h-5.39v3.569h5.344v1.115h-5.344v4.476h5.344v1.115h-6.481V45.311z"/>
			<path fill="#FFFFFF" d="M173.871,47.424l-0.898,0.69c-0.495-0.646-1.091-1.136-1.785-1.469s-1.456-0.5-2.288-0.5
				c-0.909,0-1.75,0.219-2.524,0.655c-0.774,0.436-1.374,1.022-1.8,1.757c-0.426,0.736-0.639,1.563-0.639,2.482
				c0,1.39,0.476,2.549,1.428,3.477c0.953,0.93,2.154,1.396,3.604,1.396c1.595,0,2.93-0.625,4.004-1.875l0.898,0.682
				c-0.568,0.723-1.277,1.281-2.126,1.677c-0.849,0.395-1.798,0.593-2.846,0.593c-1.993,0-3.564-0.664-4.717-1.991
				c-0.965-1.12-1.446-2.473-1.446-4.057c0-1.669,0.584-3.071,1.753-4.209c1.169-1.139,2.634-1.708,4.396-1.708
				c1.063,0,2.022,0.211,2.88,0.632C172.621,46.075,173.324,46.665,173.871,47.424z"/>
			<path fill="#FFFFFF" d="M175.243,46.426v-1.115h6.242v1.115h-2.54v10.275h-1.161V46.426H175.243z"/>
			<path fill="#FFFFFF" d="M188.177,45.023c1.726,0,3.168,0.575,4.331,1.727c1.162,1.151,1.744,2.569,1.744,4.252
				c0,1.667-0.581,3.081-1.739,4.243c-1.159,1.161-2.574,1.743-4.242,1.743c-1.69,0-3.115-0.579-4.278-1.735
				c-1.162-1.156-1.743-2.555-1.743-4.197c0-1.094,0.265-2.109,0.794-3.044c0.53-0.934,1.252-1.665,2.166-2.194
				S187.113,45.023,188.177,45.023z M188.228,46.131c-0.843,0-1.642,0.22-2.396,0.66c-0.756,0.438-1.345,1.03-1.769,1.772
				c-0.425,0.745-0.636,1.574-0.636,2.487c0,1.355,0.469,2.498,1.407,3.431s2.069,1.398,3.394,1.398
				c0.884,0,1.701-0.214,2.454-0.643s1.34-1.016,1.761-1.759c0.422-0.745,0.633-1.571,0.633-2.48c0-0.905-0.211-1.721-0.633-2.453
				c-0.421-0.73-1.014-1.316-1.78-1.754C189.897,46.351,189.085,46.131,188.228,46.131z"/>
			<path fill="#FFFFFF" d="M196.876,45.311h2.269c1.265,0,2.121,0.051,2.571,0.155c0.676,0.154,1.227,0.486,1.648,0.995
				c0.424,0.51,0.636,1.137,0.636,1.882c0,0.62-0.146,1.165-0.438,1.635c-0.291,0.471-0.708,0.826-1.25,1.065
				c-0.543,0.241-1.291,0.364-2.245,0.369l4.096,5.289h-1.407l-4.098-5.289h-0.644v5.289h-1.138V45.311z M198.014,46.426v3.871
				l1.963,0.016c0.76,0,1.322-0.072,1.687-0.217c0.365-0.145,0.648-0.376,0.854-0.693c0.204-0.317,0.306-0.671,0.306-1.064
				c0-0.381-0.103-0.729-0.31-1.041c-0.207-0.313-0.479-0.536-0.814-0.669c-0.337-0.135-0.895-0.202-1.675-0.202H198.014z"/>
			<path fill="#FFFFFF" d="M205.305,45.311h1.311l2.914,4.698l2.868-4.698h1.316l-3.607,5.947v5.443h-1.123v-5.443L205.305,45.311z"
				/>
		</g>
	</g>
	<rect x="127.032" y="9.722" fill="#F7A3AB" width="3.7" height="3.706"/>
	<rect x="119.623" y="13.428" fill="#F8BBC2" width="3.706" height="3.7"/>
	<rect x="123.329" y="13.428" fill="#F38992" width="3.703" height="3.7"/>
	<rect x="130.732" y="13.428" fill="#F7A3AB" width="3.706" height="3.7"/>
	<rect x="112.22" y="17.128" fill="#F8BBC2" width="3.702" height="3.707"/>
	<rect x="115.923" y="17.13" fill="#F38992" width="3.7" height="3.706"/>
	<polygon fill="#F8BBC2" points="127.032,17.13 127.032,17.13 123.329,17.13 123.329,20.835 127.032,20.835 	"/>
	<rect x="119.624" y="20.833" fill="#F8BBC2" width="3.704" height="3.703"/>
	<path fill="#F8BBC2" d="M113.459,25.809c0.425,0.753,1.229,1.558,2.187,2.43h0.277v-3.701h-3.049
		C113.02,24.941,113.212,25.37,113.459,25.809"/>
	<path fill="#F8BBC2" d="M115.923,28.485v-0.247h-0.277C115.736,28.318,115.832,28.404,115.923,28.485"/>
	<path fill="#F8BBC2" d="M115.923,28.485c1.171,1.049,2.528,2.178,3.7,3.406v-3.653h-3.7V28.485z"/>
	<path fill="#F8BBC2" d="M121.848,34.902c0.124,0.248,0.225,0.495,0.306,0.743h1.176v-3.701h-3.653
		C120.561,32.874,121.338,33.86,121.848,34.902"/>
	<path fill="#F7A3AB" d="M104.813,20.297c-0.176,0.176-0.357,0.354-0.538,0.538h0.538V20.297z"/>
	<path fill="#F7A3AB" d="M108.352,17.296c0,0-1.691,1.205-3.539,3.001v0.538h2.548C107.771,18.811,108.352,17.296,108.352,17.296"/>
	<path fill="#F7A3AB" d="M104.813,20.835L104.813,20.835h-0.538c-1.072,1.096-2.148,2.368-2.934,3.702h3.472V20.835z"/>
	<path fill="#F38992" d="M107.361,20.835h-2.547v3.702h2.153C106.957,23.255,107.133,21.965,107.361,20.835"/>
	<path fill="#F7A3AB" d="M101.112,24.947c-0.129,0.237-0.248,0.476-0.353,0.714c-0.386,0.866-0.605,1.729-0.686,2.577h1.039V24.947z
		"/>
	<path fill="#F8BBC2" d="M104.813,24.537L104.813,24.537h-3.472c-0.081,0.133-0.157,0.271-0.229,0.41v3.291h3.702V24.537z"/>
	<path fill="#EE666F" d="M106.966,24.537L106.966,24.537h-2.153v3.701h2.911l-0.048-0.101
		C107.166,27.066,106.976,25.809,106.966,24.537"/>
	<path fill="#F8BBC2" d="M101.112,28.237L101.112,28.237h-1.039c-0.125,1.277,0.052,2.521,0.447,3.707h0.591V28.237z"/>
	<polygon fill="#F7A3AB" points="104.813,28.237 104.813,28.237 101.111,28.237 101.111,31.944 104.813,31.944 	"/>
	<path fill="#B31F2A" d="M107.723,28.237L107.723,28.237h-2.911v3.707h3.701v-2.188C108.228,29.248,107.966,28.743,107.723,28.237"
		/>
	<path fill="#EE666F" d="M108.514,29.757v2.188h1.344C109.382,31.22,108.929,30.486,108.514,29.757"/>
	<path fill="#EE666F" d="M101.112,31.944L101.112,31.944h-0.591c0.162,0.485,0.362,0.957,0.59,1.424l0,0
		c0.391,0.801,0.877,1.563,1.42,2.277h2.282v-3.701H101.112z"/>
	<polygon fill="#F7A3AB" points="108.514,31.944 108.514,31.944 104.813,31.944 104.813,35.646 108.514,35.646 	"/>
	<path fill="#B31F2A" d="M112.22,35.198c-0.805-1.016-1.61-2.121-2.362-3.254h-1.344v3.701h3.706h0.354
		C112.454,35.499,112.34,35.351,112.22,35.198z"/>
	<path fill="#F38992" d="M104.813,35.646L104.813,35.646h-2.282c0.69,0.91,1.473,1.734,2.282,2.454V35.646z"/>
	<path fill="#B31F2A" d="M108.514,35.646L108.514,35.646h-3.701V38.1c0.081,0.075,0.167,0.146,0.253,0.223
		c0.391,0.334,0.795,0.677,1.21,1.029h2.238V35.646z"/>
	<polygon fill="#EE666F" points="112.22,35.646 112.22,35.646 108.514,35.646 108.514,39.352 112.22,39.352 	"/>
	<path fill="#B31F2A" d="M115.923,39.404v3.649h3.182C118.242,41.719,116.988,40.48,115.923,39.404"/>
	<path fill="#EE666F" d="M119.104,43.054L119.104,43.054h-3.182v3.7h3.7v-2.777C119.475,43.667,119.3,43.357,119.104,43.054"/>
	<path fill="#751112" d="M119.623,43.977v2.777h-3.7v-7.35l-0.059-0.053c-0.124-0.129-0.247-0.253-0.367-0.377
		c-0.838-0.862-1.867-2.015-2.924-3.329h-0.354v3.706l0,0v0.002v-0.002h-5.944c0.733,0.62,1.491,1.267,2.238,1.916
		c0.682,0.589,1.349,1.19,1.986,1.786c0.61,0.571,1.191,1.143,1.72,1.705c0.644,0.686,1.211,1.357,1.649,1.995
		c0.186,0.272,0.353,0.539,0.49,0.8c0.495,0.93,0.619,1.949,0.567,2.907c-0.1,1.892-0.9,3.501-0.9,3.501s0.828-0.61,1.896-1.586
		c0.59-0.539,1.253-1.196,1.885-1.915c0.682-0.786,1.335-1.653,1.815-2.554l0.071-0.129c0.177-0.343,0.296-0.687,0.362-1.024
		C120.251,45.812,120.053,44.878,119.623,43.977z"/>
	<path fill="#F8BBC2" d="M112.22,21.507c-0.428,0.438-1.371,1.529-1.791,3.03h1.791V21.507z"/>
	<path fill="#D13F5B" d="M112.22,24.537L112.22,24.537h-1.791c-0.267,0.938-0.323,2.038,0.081,3.234
		c0.053,0.161,0.11,0.313,0.167,0.467h1.543V24.537z"/>
	<path fill="#F38992" d="M113.459,25.809c-0.247-0.438-0.439-0.867-0.586-1.271h0.001c-0.663-1.83-0.438-3.239-0.438-3.239
		s-0.082,0.075-0.216,0.209v3.03l0,0v3.701h3.426C114.688,27.366,113.883,26.562,113.459,25.809z"/>
	<path fill="#F38992" d="M112.22,28.237L112.22,28.237h-1.543c0.443,1.182,0.972,2.106,1.543,2.878V28.237z"/>
	<path fill="#D13F5B" d="M115.923,28.485v3.459h3.7v-0.053C118.451,30.663,117.094,29.534,115.923,28.485"/>
	<polygon fill="#F2AE1D" points="119.623,31.892 119.623,31.944 119.676,31.944 	"/>
	<path fill="#B31F2A" d="M115.923,31.944v-3.459c-0.091-0.081-0.187-0.167-0.277-0.248h-3.426v2.878
		c0.216,0.295,0.439,0.571,0.668,0.829c0.872,0.986,1.796,1.738,2.635,2.601c0.128,0.134,0.262,0.267,0.4,0.405
		c0.229,0.229,0.462,0.463,0.694,0.695h3.006v-3.701H115.923z"/>
	<path fill="#D13F5B" d="M122.153,35.646h-0.002H122.153c-0.082-0.248-0.181-0.495-0.306-0.743c-0.51-1.044-1.286-2.028-2.172-2.958
		h-0.053v2.806v0.896l0,0h-3.006c1.119,1.105,2.297,2.238,3.006,3.059c0.215,0.247,0.391,0.467,0.506,0.647h2.253
		C122.571,38.218,122.586,36.921,122.153,35.646z"/>
	<path fill="#751112" d="M122.382,39.352h-2.253l0.037,0.058c0.568,0.948,1.006,3.377,1.006,3.377S122.049,41.319,122.382,39.352"/>
	<path fill="#F7A3AB" d="M98.377,30.753c0,0-0.333,0.473-0.776,1.191h0.905C98.396,31.226,98.377,30.753,98.377,30.753"/>
	<path fill="#B31F2A" d="M97.405,32.269c-0.558,0.938-1.229,2.187-1.634,3.377h1.634V32.269z"/>
	<path fill="#EE666F" d="M98.506,31.944L98.506,31.944H97.6c-0.061,0.1-0.128,0.209-0.195,0.323v3.378h2.153
		C98.948,34.297,98.648,32.897,98.506,31.944"/>
	<path fill="#F38992" d="M97.405,35.646L97.405,35.646h-1.634c-0.276,0.815-0.433,1.601-0.343,2.238
		c0.067,0.506,0.148,0.986,0.286,1.468h1.691V35.646z"/>
	<path fill="#B31F2A" d="M99.558,35.646L99.558,35.646h-2.153v3.706h3.707v-1.366C100.444,37.304,99.945,36.484,99.558,35.646"/>
	<path fill="#EE666F" d="M101.112,37.985v1.366h1.634c-0.443-0.349-0.849-0.668-1.196-0.957
		C101.397,38.266,101.249,38.127,101.112,37.985"/>
	<path fill="#B31F2A" d="M102.746,39.352L102.746,39.352h-1.634v3.702h3.702v-2.145C104.079,40.361,103.375,39.833,102.746,39.352"
		/>
	<path fill="#EE666F" d="M104.813,40.909v2.145h2.792C106.689,42.324,105.727,41.6,104.813,40.909"/>
	<path fill="#751112" d="M104.813,43.054h-3.701v-3.702h-5.398c0.253,0.881,0.715,1.763,1.691,2.783
		c0.282,0.295,0.605,0.599,0.981,0.919c0.71,0.604,1.601,1.262,2.725,2l0,0c0.571,0.376,1.21,0.776,1.911,1.196
		c0.286,0.171,0.553,0.338,0.815,0.504c0.343,0.225,0.667,0.444,0.976,0.663c1.51,1.075,2.601,2.115,3.383,3.044
		c0.114,0.132,0.218,0.262,0.318,0.396c1.496,1.914,1.653,3.248,1.653,3.248s1.182-1.748,1.744-3.644
		c0.257-0.877,0.38-1.776,0.205-2.559c-0.082-0.344-0.287-0.734-0.592-1.148c-0.647-0.89-1.748-1.914-3.011-2.963l0,0
		c-0.295-0.247-0.6-0.489-0.909-0.737H104.813"/>
	<polygon fill="#095EA3" points="104.805,60.278 119.622,60.278 119.622,58.095 104.805,55.015 	"/>
	<g>
		<g>
			<path d="M68.958,40.942H2.832V25.647h66.126V40.942L68.958,40.942z M3.372,40.401h65.045V26.188H3.372V40.401L3.372,40.401z"/>
		</g>
		
			<rect x="3.103" y="25.958" transform="matrix(1 0.0021 -0.0021 1 0.0687 -0.0742)" fill-rule="evenodd" clip-rule="evenodd" fill="#095EA3" width="65.586" height="14.439"/>
		<rect x="3.104" y="38.833" fill-rule="evenodd" clip-rule="evenodd" fill="#EA2328" width="65.575" height="1.623"/>
		<g>
			<path fill="#FFFFFF" d="M38.803,29.399c0.068-0.087,0.107-0.197,0.113-0.315h0.585c-0.01,0.259-0.115,0.485-0.283,0.644
				c0.14,0.104,0.297,0.223,0.45,0.342h-0.797c-0.034-0.023-0.068-0.053-0.098-0.078c-0.16,0.068-0.376,0.099-0.576,0.099
				c-0.497,0-0.942-0.089-0.961-0.47c-0.003-0.031,0-0.082,0-0.107c0.005-0.238,0.231-0.385,0.478-0.5
				c-0.12-0.171-0.167-0.313-0.171-0.439c0-0.023,0-0.07,0-0.104c0.011-0.255,0.264-0.497,0.697-0.497
				c0.399,0,0.631,0.229,0.646,0.481c0.003,0.019,0,0.076,0,0.089c-0.007,0.264-0.21,0.447-0.417,0.576
				C38.561,29.194,38.683,29.298,38.803,29.399z M37.856,29.53c0,0.101,0.095,0.141,0.313,0.141c0.059,0,0.129-0.01,0.182-0.022
				c-0.119-0.103-0.245-0.2-0.331-0.286C37.925,29.414,37.856,29.473,37.856,29.53z M38.37,28.587c0-0.014,0-0.034,0-0.042
				c-0.006-0.068-0.038-0.128-0.135-0.128c-0.092,0-0.131,0.062-0.14,0.136c-0.003,0.017-0.003,0.04,0,0.056
				c0.003,0.057,0.032,0.123,0.084,0.191C38.288,28.737,38.361,28.667,38.37,28.587z"/>
			<path fill="#FFFFFF" d="M43.028,30.069h-0.699c0,0-0.313-1.196-0.321-1.264c-0.002,0.07-0.323,1.264-0.323,1.264h-0.693
				l-0.597-2.076h0.683c0,0,0.317,1.281,0.317,1.348c0-0.066,0.312-1.348,0.312-1.348h0.657c0,0,0.318,1.281,0.318,1.348
				c0-0.066,0.313-1.348,0.313-1.348h0.62L43.028,30.069z"/>
			<path fill="#FFFFFF" d="M45.824,29.013c0,0.73-0.349,1.088-1.113,1.088c-0.768,0-1.115-0.369-1.115-1.08
				c0-0.662,0.341-1.064,1.115-1.064C45.5,27.956,45.824,28.318,45.824,29.013z M45.178,29.027c0-0.412-0.113-0.58-0.468-0.58
				c-0.341,0-0.463,0.163-0.463,0.58c0,0.439,0.16,0.588,0.466,0.588C45.008,29.615,45.178,29.49,45.178,29.027z"/>
			<path fill="#FFFFFF" d="M47.975,29.042c-0.065,0.11-0.159,0.176-0.257,0.196l0.488,0.831h-0.717l-0.369-0.703h-0.432v0.703h-0.63
				v-2.076h1.322c0.278,0,0.46,0.078,0.565,0.217c0.082,0.105,0.121,0.245,0.121,0.439C48.067,28.817,48.03,28.949,47.975,29.042z
				 M47.42,28.569c-0.032-0.066-0.094-0.088-0.186-0.088h-0.539v0.424h0.552c0.079,0,0.147-0.02,0.171-0.069
				c0.016-0.036,0.024-0.091,0.024-0.134C47.442,28.655,47.436,28.599,47.42,28.569z"/>
			<path fill="#FFFFFF" d="M48.385,30.069v-2.076h0.649v1.563h1.001v0.513H48.385z"/>
			<path fill="#FFFFFF" d="M51.411,30.069h-1.177v-2.076h1.146c0.378,0,0.612,0.091,0.742,0.27c0.127,0.176,0.151,0.351,0.151,0.729
				c0,0.44-0.029,0.603-0.145,0.777C52.002,29.961,51.788,30.069,51.411,30.069z M51.656,28.992c0-0.15-0.017-0.343-0.069-0.399
				c-0.081-0.09-0.157-0.114-0.315-0.114H50.87v1.103h0.401c0.163,0,0.25-0.035,0.322-0.119
				C51.647,29.396,51.656,29.159,51.656,28.992z"/>
			<path fill="#FFFFFF" d="M55.225,29.042c-0.065,0.11-0.16,0.176-0.258,0.196l0.491,0.831h-0.719l-0.367-0.703h-0.432v0.703h-0.63
				v-2.076h1.321c0.28,0,0.46,0.078,0.564,0.217c0.082,0.105,0.123,0.245,0.123,0.439C55.318,28.817,55.28,28.949,55.225,29.042z
				 M54.671,28.569c-0.033-0.066-0.095-0.088-0.187-0.088h-0.539v0.424h0.552c0.079,0,0.147-0.02,0.171-0.069
				c0.016-0.036,0.023-0.091,0.023-0.134C54.692,28.655,54.686,28.599,54.671,28.569z"/>
			<path fill="#FFFFFF" d="M55.635,30.069v-2.076h1.774v0.488h-1.145v0.303h1.104v0.494h-1.104v0.307h1.159v0.484H55.635z"/>
			<path fill="#FFFFFF" d="M59.547,29.212c-0.121,0.141-0.32,0.207-0.578,0.211c-0.08,0.002-0.644-0.002-0.644-0.002v0.648h-0.645
				v-2.076h1.286c0.252,0,0.431,0.055,0.547,0.173c0.121,0.104,0.186,0.284,0.186,0.541C59.699,28.939,59.65,29.102,59.547,29.212z
				 M59.029,28.573c-0.036-0.066-0.097-0.097-0.202-0.097h-0.511v0.478c0,0,0.5,0,0.502,0c0.121,0,0.181-0.039,0.214-0.097
				c0.017-0.038,0.022-0.076,0.022-0.138C59.055,28.655,59.047,28.603,59.029,28.573z"/>
			<path fill="#FFFFFF" d="M62.063,29.013c0,0.73-0.349,1.088-1.116,1.088s-1.114-0.369-1.114-1.08c0-0.662,0.342-1.064,1.114-1.064
				C61.736,27.956,62.063,28.318,62.063,29.013z M61.416,29.027c0-0.412-0.113-0.58-0.469-0.58c-0.34,0-0.462,0.163-0.462,0.58
				c0,0.439,0.16,0.588,0.466,0.588C61.246,29.615,61.416,29.49,61.416,29.027z"/>
			<path fill="#FFFFFF" d="M64.214,29.042c-0.066,0.11-0.161,0.176-0.258,0.196l0.489,0.831h-0.717l-0.369-0.703h-0.43v0.703h-0.631
				v-2.076h1.322c0.278,0,0.46,0.078,0.564,0.217c0.081,0.105,0.121,0.245,0.121,0.439C64.305,28.817,64.268,28.949,64.214,29.042z
				 M63.658,28.569c-0.031-0.066-0.095-0.088-0.187-0.088h-0.538v0.424h0.552c0.078,0,0.147-0.02,0.171-0.069
				c0.015-0.036,0.022-0.091,0.022-0.134C63.679,28.655,63.674,28.599,63.658,28.569z"/>
			<path fill="#FFFFFF" d="M65.779,28.491v1.578h-0.651v-1.578h-0.662v-0.498h1.981v0.498H65.779z"/>
		</g>
		<path fill="#FFFFFF" d="M2.948,25.747v15.09h65.895v-15.09H2.948z M68.533,26.057v12.622H65.01
			c1.266-0.346,1.857-1.082,1.857-2.207c0-1.458-0.821-2.152-2.689-2.434c-0.269-0.043-1.358-0.199-1.811-0.269
			c-1.105-0.171-1.345-0.298-1.345-0.638c0-0.367,0.368-0.566,1.614-0.566c1.075,0,1.486,0.185,1.641,0.397
			c0.071,0.098,0.1,0.339,0.1,0.425h2.194c0-0.156-0.042-0.638-0.142-0.934c-0.396-1.119-1.742-1.672-3.878-1.672
			c-2.506,0-3.75,0.906-3.75,2.293c0,1.486,0.82,2.236,2.533,2.477c0.467,0.071,1.401,0.213,1.698,0.256
			c1.146,0.17,1.614,0.269,1.614,0.707c0,0.453-0.396,0.68-1.684,0.68c-1.231,0-1.826-0.101-1.967-0.469
			c-0.056-0.155-0.071-0.297-0.071-0.396h-2.25c0,0.255,0.014,0.467,0.085,0.778c0.205,0.803,0.775,1.307,1.828,1.57h-4.258
			l2.785-7.697h-2.221l-1.827,5.788l-1.754-5.788h-2.519l-1.713,5.788l-1.868-5.788h-2.363l2.756,7.697h-4.691
			c0.443-0.121,0.824-0.288,1.145-0.494c0.778-0.496,1.23-1.203,1.414-1.953H43.25c-0.042,0.17-0.24,0.424-0.651,0.607
			c-0.325,0.143-0.793,0.255-1.43,0.255c-0.85,0-1.486-0.226-1.811-0.579c-0.269-0.297-0.425-0.566-0.425-0.922h6.596
			c0.126-1.172-0.085-2.291-0.666-3.139c-0.693-1.006-1.911-1.657-3.693-1.657c-1.698,0-3.042,0.637-3.793,1.727
			c-0.439,0.622-0.679,1.415-0.679,2.307c0,0.978,0.212,1.755,0.594,2.364c0.476,0.754,1.214,1.233,2.131,1.484h-3.047V28.213
			h-2.203v6.798l-4.061-6.798h-2.685v10.466h-0.397v-2.062h-1.661c0.082-0.281,0.125-0.581,0.125-0.897
			c0-1.804-1.096-2.671-3.193-3.072c-0.239-0.041-0.935-0.188-1.468-0.295c-1.724-0.348-2.352-0.654-2.352-1.428
			c0-0.602,0.348-0.989,2.098-0.989c1.336,0,1.91,0.307,2.19,0.896c0.08,0.16,0.147,0.4,0.147,0.521h2.377
			c0-0.267-0.106-0.669-0.24-1.016c-0.535-1.336-1.777-2.258-4.421-2.258c-3.099,0-4.542,1.204-4.542,2.993
			c0,1.75,1.269,2.698,3.326,3.085c0.468,0.093,1.242,0.241,1.55,0.294c1.71,0.32,2.15,0.628,2.15,1.496
			c0,0.695-0.561,1.135-2.164,1.135c-1.401,0-2.097-0.266-2.391-0.881c-0.081-0.16-0.147-0.48-0.147-0.667h-2.377
			c0,0.212,0.04,0.733,0.147,1.081c0.302,0.944,0.966,1.702,2.458,2.064h-2.554v-2.062h-1.645c0.106-0.317,0.164-0.663,0.164-1.046
			c0-0.213,0-7.358,0-7.358h-2.311c0,0,0,6.839,0,7.038c0,1.096-0.936,1.751-2.257,1.751c-1.51,0-2.338-0.655-2.338-1.764
			c0-0.2,0-7.025,0-7.025H5.391c0,0,0,6.985,0,7.226c0,1.814,1.059,2.828,2.663,3.24H3.256V26.057H68.533z M68.526,39.065v1.379
			H3.257v-1.379H68.526z M11.895,38.679c0.923-0.236,1.663-0.661,2.133-1.282v1.282H11.895z M22.949,38.679
			c0.927-0.246,1.6-0.68,2.021-1.255v1.255H22.949z M29.631,38.679v-7.061l4.196,7.061H29.631z M50.354,38.679
			c0.209-0.613,1.5-4.408,1.513-4.656c0.015-0.084,0.1-0.545,0.1-0.545s0.084,0.461,0.099,0.561
			c0.025,0.232,1.317,4.027,1.527,4.641H50.354z M38.92,34.108c0-0.227,0.212-0.693,0.48-0.934c0.383-0.34,0.977-0.553,1.784-0.553
			c0.849,0,1.387,0.27,1.712,0.595c0.284,0.298,0.382,0.665,0.382,0.892H38.92z"/>
	</g>
</g>
</svg>
