<?xml version="1.0" encoding="iso-8859-1"?>
<svg version="1.2" baseProfile="tiny" class="logocolor ust" xmlns="http://www.w3.org/2000/svg" xmlns:xlink="http://www.w3.org/1999/xlink" viewBox="0 0 215 70" xml:space="preserve">
<g>
	<g>
<path class="white knockout" d="M110.227,7.493c0,0-0.684-0.799-2.77-0.788c-2.552,0.014-2.813,1.037-4.498,1.037
	c-1.686,0-1.936-0.346-1.936-0.346l1.989-4.503c0.174,0.13,0.736,0.27,1.503,0.27c1.08,0,1.361-0.562,3.027-0.562
	c2.142,0,2.683,1.037,2.683,1.037s0.541-1.037,2.68-1.037c1.666,0,1.947,0.562,3.029,0.562c0.767,0,1.33-0.14,1.5-0.27l1.991,4.503
	c0,0-0.25,0.346-1.934,0.346c-1.689,0-1.948-1.023-4.503-1.037C110.906,6.694,110.227,7.493,110.227,7.493"/>
<path class="primarycolor" d="M105.246,15.313l2.519,0.603l-2.138-3.033l3.033,2.138l-0.604-2.518l1.563,2.105V9.901H99.088
	c0,0-0.281,2.827,0.897,6.976h7.365L105.246,15.313L105.246,15.313z"/>
<path class="primarycolor" d="M108.057,22.464l0.604-2.519l-3.033,2.138l2.138-3.031l-2.519,0.602l2.105-1.567h-6.991
	c0.314,0.938,0.702,1.929,1.184,2.959c2.936,6.305,5.873,8.266,8.077,9.432v-10.12L108.057,22.464L108.057,22.464z"/>
<path class="primarycolor" d="M115.201,15.313l-2.518,0.603l2.137-3.033l-3.032,2.138l0.603-2.518l-1.562,2.105V9.901h10.53
	c0,0,0.281,2.827-0.898,6.976h-7.365L115.201,15.313L115.201,15.313z"/>
<path class="primarycolor" d="M112.391,22.464l-0.603-2.519l3.032,2.138l-2.137-3.031l2.518,0.602l-2.105-1.567h6.992
	c-0.314,0.938-0.703,1.929-1.184,2.959c-2.937,6.305-5.875,8.266-8.075,9.432v-10.12L112.391,22.464L112.391,22.464z"/>
<path class="primarycolor" d="M118.053,1.459c-0.238,0.215-0.908,0.626-2.076,0.626s-1.254-0.562-3.093-0.562
	c-1.987,0-2.657,0.854-2.657,0.854s-0.67-0.855-2.663-0.854c-1.838,0-1.923,0.562-3.091,0.562s-1.838-0.411-2.077-0.626
	l-3.308,7.233h22.273L118.053,1.459z M117.491,7.742c-1.689,0-1.948-1.023-4.503-1.037c-2.082-0.011-2.762,0.788-2.762,0.788
	s-0.684-0.799-2.77-0.788c-2.552,0.014-2.813,1.037-4.498,1.037c-1.686,0-1.936-0.346-1.936-0.346l1.989-4.503
	c0.174,0.13,0.736,0.27,1.503,0.27c1.08,0,1.361-0.562,3.027-0.562c2.142,0,2.683,1.037,2.683,1.037s0.541-1.037,2.68-1.037
	c1.666,0,1.947,0.562,3.029,0.562c0.767,0,1.33-0.14,1.5-0.27l1.991,4.503C119.425,7.396,119.175,7.742,117.491,7.742z"/>
<g>
	<path 
 class="secondarycolor" d="M13.93,39.723v5.68C13.93,48.71,12.573,51,8.757,51c-3.562,0-5.121-1.884-5.071-4.495v-6.782l-1.662-0.289v-0.578H7.01
		v0.578l-1.662,0.289v6.155c-0.051,2.526,0.95,4.188,3.545,4.188c0.848,0,2.205-0.32,3.019-1.321
		c0.661-0.798,0.661-2.291,0.661-3.205v-5.817l-1.662-0.289v-0.576h4.681v0.576L13.93,39.723z"/>
	<path class="secondarycolor" d="M27.142,42.824l-1.476,0.203v7.668h-0.577l-6.14-6.785v6.072l1.459,0.203v0.51h-3.613v-0.51l1.441-0.203v-6.955
		l-1.458-0.203v-0.508h2.73l5.444,6.104v-5.394l-1.476-0.204v-0.509h3.664v0.51H27.142z"/>
	<path class="secondarycolor" d="M30.776,43.027l-1.492-0.203v-0.508h4.358v0.508l-1.476,0.203v6.955l1.476,0.203v0.51h-4.325v-0.51l1.458-0.203
		L30.776,43.027L30.776,43.027z"/>
	<path class="secondarycolor" d="M40.787,50.695h-0.814l-2.883-7.668l-1.188-0.203v-0.508h3.952v0.508l-1.307,0.203l2.188,5.834l2.204-5.834l-1.374-0.203
		v-0.508h3.256v0.508l-1.035,0.203L40.787,50.695z"/>
	<path class="secondarycolor" d="M46.881,50.186l1.408-0.203v-6.953l-1.408-0.204v-0.509h6.122l0.136,1.867l-0.408,0.032l-0.305-1.188h-2.747v2.851h2.341
		l0.237-0.899h0.424c-0.034,0.441-0.085,0.85-0.085,1.291c0,0.404,0.034,0.83,0.051,1.287h-0.458l-0.169-0.968h-2.341v3.188h3.476
		l0.51-1.236h0.475l-0.543,2.154h-6.716V50.186z"/>
	<path class="secondarycolor" d="M59.317,42.877c0.288-0.036,0.509-0.053,0.882-0.053c0.814,0,1.848,0.188,1.848,2.002c0,1.373-0.678,1.729-1.712,1.729
		c-0.374,0-0.695-0.017-1.018-0.051V42.877z M57.927,49.982l-1.476,0.203v0.51h4.443v-0.51l-1.578-0.203v-2.92
		c0.441,0,0.933-0.031,1.188-0.065l0.797,1.188c1.56,2.321,2.239,2.51,3.697,2.711l0.187-0.405
		c-0.763-0.341-1.085-0.765-1.375-1.188l-1.898-2.729c0.763-0.407,1.526-1.12,1.526-2.291c0-1.561-0.814-1.967-2.917-1.967h-4.104
		v0.509l1.509,0.204L57.927,49.982L57.927,49.982z"/>
	<path class="secondarycolor" d="M71.495,44.368c-0.119-0.595-0.374-1.746-1.849-1.746c-0.95,0-1.509,0.711-1.509,1.373c0,2.289,4.291,1.56,4.291,4.272
		c0,1.715-1.407,2.629-2.967,2.629c-1.29,0-2.12-0.373-2.595-0.594c-0.034-0.373-0.119-1.475-0.204-2.053l0.441-0.064
		c0.101,0.625,0.305,2.201,2.272,2.201c1.001,0,1.833-0.56,1.833-1.509c0-2.171-4.291-1.44-4.291-4.308
		c0-1.525,1.221-2.459,3.001-2.459c0.407,0,1.306,0.17,1.883,0.339c0,0.899,0.051,1.459,0.102,1.883L71.495,44.368z"/>
	<path class="secondarycolor" d="M76.485,43.027l-1.492-0.203v-0.508h4.358v0.508l-1.476,0.203v6.955l1.476,0.203v0.51h-4.325v-0.51l1.458-0.203
		L76.485,43.027L76.485,43.027z"/>
	<path class="secondarycolor" d="M83.032,50.695v-0.51l1.525-0.203v-6.955H81.81l-0.355,1.324h-0.441l0.204-2.035h8.106l0.119,2.035h-0.458l-0.306-1.324
		h-2.73v6.955l1.51,0.203v0.51H83.032z"/>
	<path class="secondarycolor" d="M93.688,50.695v-0.51l1.56-0.203v-2.834l-2.679-4.121l-1.221-0.203v-0.508h4.121v0.508l-1.272,0.203l2.086,3.222
		l1.951-3.222l-1.307-0.203v-0.508h3.308v0.508l-1.052,0.203l-2.543,4.021v2.935l1.476,0.203v0.51H93.688L93.688,50.695z"/>
	<path class="secondarycolor" d="M109.104,48.021c-0.242,1.345-0.867,2.449-1.828,2.449c-0.96,0-1.201-1.104-0.96-2.449c0.24-1.346,0.88-2.434,1.841-2.434
		C109.104,45.588,109.342,46.676,109.104,48.021z M110.126,48.021c0.289-1.617-0.562-2.932-1.89-2.932
		c-1.344,0-2.657,1.313-2.96,2.932c-0.273,1.615,0.576,2.944,1.92,2.944C108.525,50.966,109.839,49.637,110.126,48.021z"/>
	<path class="secondarycolor" d="M111.057,45.923l0.11-0.56h1.041l0.271-1.586c0.336-1.889,1.569-2.961,2.563-2.961c0.992,0,1.44,0.705,1.36,1.184
		c-0.049,0.241-0.226,0.4-0.496,0.4c-0.689,0-0.112-1.121-1.01-1.121c-0.513,0-1.201,0.705-1.521,2.498l-0.271,1.586h1.279
		l-0.111,0.56h-1.28l-1.138,6.484c-0.336,1.89-1.151,2.562-2.097,2.562c-0.944,0-1.346-0.672-1.25-1.136
		c0.048-0.258,0.209-0.449,0.53-0.449c0.688,0,0.016,1.12,0.88,1.12c0.479,0,0.769-0.561,1.041-2.097l1.136-6.484H111.057z"/>
	<path class="secondarycolor" d="M128.848,41.604l-0.56,0.086c-0.272-1.256-0.832-2.323-2.272-2.323c-1.256,0-2.154,0.78-2.154,2.069
		c0,3.238,5.664,2.44,5.664,5.866c0,2.138-1.407,3.646-3.9,3.646c-1.152,0-2.628-0.271-3.477-0.882l-0.188-2.814l0.561-0.136
		c0.137,0.899,0.34,1.629,0.576,2.104c0.375,0.711,1.694,1.084,2.426,1.084c1.408,0,2.477-0.695,2.477-2.188
		c0-2.9-5.665-1.967-5.665-6.275c0-1.797,1.425-3.238,3.8-3.238c0.831,0,1.661,0.287,2.477,0.373L128.848,41.604z"/>
	<path class="secondarycolor" d="M133.323,50.695v-0.51l1.526-0.203v-6.955h-2.748l-0.354,1.324h-0.44l0.203-2.035h8.106l0.118,2.035h-0.457l-0.307-1.324
		h-2.729v6.955l1.51,0.203v0.51H133.323z"/>
	<path class="secondarycolor" d="M140.557,49.896c0-0.524,0.473-1.002,1-1.002c0.526,0,0.983,0.494,0.983,1.002c0,0.543-0.474,0.983-1,0.983
		C141.029,50.881,140.557,50.422,140.557,49.896z"/>
	<path class="secondarycolor" d="M150.158,49.828V39.807h-2.104c-0.594,0-1.171,0.032-1.679,0.067l-0.612,1.882h-0.592l0.354-2.9h11.111l0.15,2.9h-0.627
		l-0.408-1.882c-0.542-0.035-1.152-0.067-1.779-0.067h-2.156v10.021l1.886,0.289v0.578h-5.429v-0.578L150.158,49.828z"/>
	<path class="secondarycolor" d="M165.473,45.912v-2.885l-1.492-0.203v-0.508h4.357v0.508l-1.477,0.203v6.955l1.477,0.203v0.51h-4.324v-0.51l1.459-0.203
		v-3.358h-4.546v3.358l1.476,0.203v0.51h-4.324v-0.51l1.458-0.203v-6.955l-1.491-0.203v-0.508h4.357v0.508l-1.476,0.203v2.885
		H165.473z"/>
	<path class="secondarycolor" d="M174.479,42.622c2.256,0,3.526,1.524,3.526,4.069c0,2.203-0.967,3.695-2.849,3.695c-2.256,0-3.529-1.525-3.529-4.068
		C171.627,44.113,172.596,42.622,174.479,42.622z M170.137,46.354c0,2.781,2.018,4.545,4.73,4.545c2.781,0,4.631-1.764,4.631-4.394
		c0-2.899-2.053-4.394-4.682-4.394C171.916,42.111,170.137,43.876,170.137,46.354z"/>
	<path class="secondarycolor" d="M189.805,42.316h3.289v0.508l-1.611,0.203l0.849,6.955l1.478,0.203v0.51h-4.377v-0.51l1.526-0.203l-0.815-6.514h-0.031
		l-3.036,7.227h-0.255l-3.153-7.022h-0.035l-0.646,6.31l1.527,0.203v0.51h-3.815v-0.51l1.458-0.203l0.799-6.953l-1.612-0.204v-0.509
		h3.257l2.664,5.936L189.805,42.316z"/>
	<path class="secondarycolor" d="M200.188,43.707l1.393,3.205h-2.663L200.188,43.707z M199.204,50.186l-1.491-0.203l0.915-2.356h3.289l0.95,2.356
		l-1.457,0.203v0.51h4.29v-0.51l-1.239-0.203l-3.408-7.869h-1.051l-3.154,7.869l-1.171,0.203v0.51h3.527V50.186L199.204,50.186z"/>
	<path class="secondarycolor" d="M212.042,44.368c-0.118-0.595-0.373-1.746-1.849-1.746c-0.948,0-1.51,0.711-1.51,1.373c0,2.289,4.291,1.56,4.291,4.272
		c0,1.715-1.406,2.629-2.967,2.629c-1.289,0-2.121-0.373-2.596-0.594c-0.033-0.373-0.119-1.475-0.204-2.053l0.44-0.064
		c0.104,0.625,0.306,2.201,2.272,2.201c1.001,0,1.832-0.56,1.832-1.509c0-2.171-4.292-1.44-4.292-4.308
		c0-1.525,1.223-2.459,3.002-2.459c0.408,0,1.307,0.17,1.883,0.339c0,0.899,0.051,1.459,0.104,1.883L212.042,44.368z"/>
	<path class="secondarycolor" d="M77.361,63.335h1.997v0.31l-0.977,0.123l0.514,4.221l0.896,0.123v0.31h-2.656v-0.31l0.926-0.123l-0.494-3.952h-0.02
		l-1.843,4.385H75.55l-1.914-4.261h-0.021l-0.391,3.828l0.926,0.123v0.31h-2.316v-0.31l0.886-0.123l0.483-4.221l-0.978-0.123v-0.31
		h1.976l1.616,3.603L77.361,63.335z"/>
	<path class="secondarycolor" d="M84.654,63.768l-0.905-0.123v-0.31h2.645v0.31l-0.895,0.123v4.221l0.895,0.123v0.31H83.77v-0.31l0.885-0.123L84.654,63.768
		L84.654,63.768z"/>
	<path class="secondarycolor" d="M96.026,63.645l-0.896,0.123v4.652h-0.35l-3.725-4.117v3.686l0.885,0.123v0.31h-2.192v-0.31l0.875-0.123v-4.221
		l-0.886-0.123v-0.31h1.658l3.304,3.704v-3.271l-0.895-0.123v-0.31h2.223L96.026,63.645L96.026,63.645z"/>
	<path class="secondarycolor" d="M106.222,63.645l-0.896,0.123v4.652h-0.351l-3.725-4.117v3.686l0.885,0.123v0.31h-2.192v-0.31l0.874-0.123v-4.221
		l-0.885-0.123v-0.31h1.657l3.304,3.704v-3.271l-0.896-0.123v-0.31h2.223v0.31H106.222z"/>
	<path class="secondarycolor" d="M109.441,68.111l0.854-0.125v-4.221l-0.854-0.123v-0.309h3.717l0.083,1.133l-0.247,0.02l-0.186-0.721h-1.668v1.729h1.42
		l0.145-0.545h0.257c-0.021,0.268-0.052,0.516-0.052,0.78c0,0.248,0.021,0.506,0.031,0.783h-0.277l-0.104-0.586h-1.42v1.934h2.108
		l0.31-0.75h0.289l-0.33,1.308h-4.076V68.111z"/>
	<path class="secondarycolor" d="M120.238,64.581c-0.071-0.36-0.227-1.063-1.121-1.063c-0.577,0-0.917,0.436-0.917,0.834c0,1.392,2.604,0.948,2.604,2.596
		c0,1.039-0.854,1.595-1.802,1.595c-0.782,0-1.287-0.228-1.575-0.358c-0.02-0.228-0.07-0.896-0.123-1.246l0.269-0.041
		c0.062,0.381,0.186,1.338,1.379,1.338c0.606,0,1.11-0.34,1.11-0.914c0-1.318-2.604-0.877-2.604-2.615
		c0-0.928,0.74-1.493,1.82-1.493c0.248,0,0.794,0.104,1.144,0.206c0,0.546,0.03,0.887,0.062,1.143L120.238,64.581z"/>
	<path class="secondarycolor" d="M127.072,63.52c1.367,0,2.14,0.928,2.14,2.472c0,1.339-0.586,2.243-1.728,2.243c-1.37,0-2.144-0.926-2.144-2.471
		C125.342,64.427,125.93,63.52,127.072,63.52z M124.438,65.785c0,1.688,1.226,2.757,2.871,2.757c1.688,0,2.812-1.069,2.812-2.665
		c0-1.761-1.245-2.666-2.843-2.666C125.518,63.211,124.438,64.281,124.438,65.785z"/>
	<path class="secondarycolor" d="M134.053,68.42v-0.309l0.928-0.125v-4.221h-1.668l-0.217,0.803h-0.268l0.123-1.233h4.92l0.072,1.233h-0.277l-0.186-0.803
		h-1.656v4.221l0.916,0.125v0.309H134.053z"/>
	<path class="secondarycolor" d="M143.667,64.18l0.843,1.944h-1.615L143.667,64.18z M143.068,68.111l-0.905-0.125l0.556-1.432h1.997l0.577,1.432
		l-0.887,0.125v0.309h2.604v-0.309l-0.751-0.125l-2.067-4.775h-0.64l-1.913,4.775l-0.712,0.125v0.309h2.142V68.111L143.068,68.111z"
		/>
</g>
</svg>
