<?xml version="1.0" encoding="iso-8859-1"?>
<svg version="1.2" baseProfile="tiny" class="logocolor uvm" xmlns="http://www.w3.org/2000/svg" xmlns:xlink="http://www.w3.org/1999/xlink" viewBox="0 0 215 70" xml:space="preserve">
<g>
		<path class="primarycolor" d="M45.08,57.066c0.591-0.094,0.649-0.518,0.687-1.371c0.019-0.555,0.039-6.164,0.039-9.256
			c0-0.076-0.077-0.133-0.115-0.133c-0.362-0.021-2.442-0.021-2.842,0.02c-0.325,0-0.535,0.172-0.667,0.344
			c-0.286,0.363-0.554,0.914-0.841,1.66c-0.038,0.037-0.285-0.02-0.305-0.076c0.134-0.783,0.286-1.928,0.345-2.748
			c0,0,0.056-0.037,0.095-0.02c0.285,0.152,0.954,0.285,1.43,0.285l8.49-0.02c0.02,0,0.076-0.021,0.076-0.076v-1.068
			c0-0.035,0.059-0.111,0.097-0.111c0.458,0,0.877-0.211,0.915-0.211s0.097,0.039,0.097,0.076c0,0.057-0.02,0.305-0.041,1.658
			c-0.019,1.355,0,4.484,0,5.113c0,0.02,0.041,0.037,0.077,0.02c1.088-0.857,1.948-1.221,2.672-1.221
			c1.373,0,2.156,1.027,2.156,2.881c0,0.992,0.019,2.938,0.038,3.777c0,0.059-0.019,0.229,0.134,0.344
			c0.248,0.189,0.591,0.25,1.068,0.307c0.02,0.039-0.039,0.268-0.076,0.285c-0.21,0-1.012-0.078-1.755-0.059
			c-0.535,0.021-1.413,0.039-1.623,0.059c-0.055-0.037-0.038-0.229,0-0.285c0.344-0.057,0.688-0.096,0.821-0.174
			c0.21-0.113,0.305-0.17,0.324-1.086c0.021-0.859,0.077-2.785-0.095-3.74c-0.095-0.533-0.535-1.467-1.87-1.467
			c-0.572,0-1.145,0.188-1.603,0.607c-0.172,0.152-0.268,0.385-0.268,0.494c0,1.277,0,3.896,0.041,4.393
			c0.036,0.607,0.17,0.762,0.533,0.855c0.228,0.061,0.362,0.076,0.667,0.115c0.058,0.037,0.02,0.229,0,0.268
			c-0.172,0-1.183-0.039-1.87-0.039c-0.515,0-1.22,0.059-1.525,0.059c-0.058-0.078-0.038-0.229,0.019-0.285
			c0.286-0.039,0.476-0.057,0.648-0.115c0.323-0.096,0.401-0.324,0.418-0.877c0.02-0.381,0.04-2.902,0.04-3.188
			c0-5.246,0-5.801-0.02-6.506c0-0.098-0.056-0.209-0.17-0.229c-0.765-0.058-3.721-0.021-4.199,0
			c-0.057,0.021-0.095,0.112-0.095,0.172c0,2.729,0.039,8.28,0.077,9.178c0.057,1.201,0.305,1.298,0.726,1.412
			c0.266,0.076,0.667,0.113,1.067,0.152c0.02,0.059,0,0.247-0.038,0.284c-0.554,0-1.794-0.058-2.442-0.058
			c-1.05,0-2.271,0.076-2.595,0.058c-0.057-0.078-0.057-0.228,0-0.284C44.431,57.184,44.85,57.125,45.08,57.066"/>
		<path class="primarycolor" d="M65.458,55.98c0.02,0.096-0.019,0.287-0.038,0.326c-0.935,0.973-2.023,1.391-2.863,1.391
			c-0.935,0-1.678-0.344-2.175-0.914c-0.705-0.803-0.953-1.91-0.953-2.883c0-1.564,0.591-2.707,1.604-3.357
			c0.476-0.326,1.45-0.611,1.888-0.611c1.736,0,2.29,1.719,2.422,2.598c0.02,0.057,0.058,0.111,0.249,0.133
			c0.019,0.061-0.038,0.229-0.076,0.25c-0.821,0.27-3.415,0.398-4.96,0.438c-0.078,0-0.116,0.113-0.116,0.213
			c0,0.801,0.286,1.678,0.706,2.191c0.591,0.742,1.336,1.014,2.156,1.014c0.726,0,1.374-0.154,2.098-0.82
			C65.42,55.943,65.458,55.961,65.458,55.98 M60.497,52.775c0,0.057,0.038,0.115,0.059,0.115c0.572,0.035,3.108-0.039,3.547-0.137
			c0.038-0.021,0.115-0.074,0.115-0.15c-0.115-0.916-0.705-2.174-1.908-2.174C61.393,50.43,60.612,51.229,60.497,52.775"/>
		<path class="primarycolor" d="M69.35,45.717c0.249,0,1.221,0.055,2.061,0.055c0.82,0,1.45-0.055,1.85-0.055
			c0.039,0.039,0.039,0.248,0,0.285c-0.381,0.078-0.572,0.096-0.8,0.172c-0.325,0.113-0.42,0.268-0.458,1.068
			c-0.056,1.564-0.038,5.057,0,6.068c0.096,1.412,0.325,2.061,0.763,2.574c0.669,0.818,1.87,1.201,3.015,1.201
			c1.83,0,3.32-0.707,3.434-3.76c0.058-1.451,0.115-3.684,0.038-5.764c-0.017-1.199-0.362-1.336-0.819-1.43
			c-0.268-0.057-0.419-0.057-0.802-0.117c-0.038-0.035-0.021-0.248,0.019-0.285c0.267,0,0.896,0.037,2.003,0.037
			c0.745,0,1.373-0.037,1.66-0.037c0.038,0.037,0.038,0.25,0,0.285c-0.287,0.039-0.516,0.078-0.707,0.137
			c-0.476,0.133-0.61,0.42-0.627,1.547c-0.096,5.055-0.078,5.666-0.325,6.902c-0.497,2.521-2.499,3.207-4.37,3.207
			c-2.67,0-4.159-1.164-4.426-3.473c-0.133-1.125-0.077-6.164-0.115-7.135c-0.018-0.498-0.018-0.879-0.438-1.031
			c-0.211-0.074-0.706-0.131-0.955-0.17C69.293,45.965,69.313,45.756,69.35,45.717"/>
		<path class="primarycolor" d="M82.115,57.088c0.287-0.115,0.346-0.439,0.363-0.746c0.058-0.703,0.038-1.926,0.038-3.205
			c0-1.088-0.038-1.602-0.055-1.717c-0.041-0.268-0.173-0.324-0.918-0.533c-0.018-0.039,0-0.229,0.058-0.248
			c0.631-0.096,1.526-0.422,1.985-0.707c0.019,0,0.056,0.039,0.056,0.078c-0.037,0.398-0.056,0.801-0.076,1.125
			c0,0.059,0.039,0.115,0.076,0.076c1.24-0.975,2.118-1.279,2.691-1.279c0.744,0,1.278,0.363,1.659,0.955
			c0.345,0.533,0.459,1.258,0.459,2.193c0,1.029,0.019,2.652,0.019,3.492c0,0.285,0.057,0.42,0.287,0.494
			c0.265,0.098,0.514,0.135,0.819,0.174c0.039,0.039,0.021,0.248-0.039,0.285c-0.266,0-0.723-0.059-1.601-0.059
			s-1.45,0.039-1.774,0.059c-0.039-0.037-0.039-0.246,0-0.285c0.362-0.039,0.686-0.096,0.801-0.133c0.305-0.1,0.381-0.309,0.4-0.559
			c0.039-0.875,0.039-3.354-0.038-3.984c-0.039-0.307-0.152-0.936-0.534-1.297c-0.268-0.287-0.63-0.494-1.279-0.494
			c-0.649,0-1.24,0.246-1.736,0.742c-0.153,0.15-0.21,0.322-0.21,0.818c0,1.508,0,3.09,0.039,3.934
			c0.018,0.531,0.095,0.686,0.306,0.779c0.17,0.076,0.571,0.137,0.876,0.174c0.02,0.035,0.02,0.246-0.019,0.305
			c-0.21,0-0.688-0.059-1.718-0.059c-1.049,0-1.374,0.059-1.641,0.059c-0.058-0.037-0.037-0.246,0-0.285
			C81.676,57.201,81.924,57.164,82.115,57.088"/>
		<path class="primarycolor" d="M93.43,57.525c-0.362,0-1.145-0.059-1.679-0.059c-0.725,0-1.392,0.059-1.66,0.059
			c-0.038-0.037-0.038-0.246,0-0.285c0.269-0.039,0.573-0.076,0.784-0.174c0.209-0.094,0.304-0.209,0.342-0.779
			c0.038-0.479,0.038-2.043,0.038-3.131c0-0.762-0.02-1.373-0.02-1.697c0-0.115,0-0.191-0.095-0.344
			c-0.19-0.209-0.477-0.285-0.821-0.363c-0.038-0.037-0.018-0.246,0-0.285c0.593-0.059,1.374-0.209,2.023-0.535
			c-0.018,0.535-0.039,2.043-0.039,3.227c0,1.051,0,2.363,0.021,3.301c0,0.361,0.132,0.535,0.4,0.631
			c0.229,0.076,0.343,0.098,0.763,0.152C93.487,57.279,93.469,57.508,93.43,57.525 M91.98,47.891
			c-0.076,0.039-0.477,0.096-0.591,0.039c-0.211-0.096-0.364-0.346-0.364-0.646c0-0.137,0.019-0.27,0.096-0.363
			c0.114-0.135,0.401-0.27,0.629-0.27c0.21,0,0.401,0.115,0.44,0.154c0.113,0.094,0.151,0.285,0.151,0.381
			C92.343,47.529,92.171,47.814,91.98,47.891"/>
		<path class="primarycolor" d="M93.487,50.143c0.191,0,1.125,0.057,1.583,0.057c0.706,0,1.279-0.037,1.603-0.057
			c0.058,0.039,0.039,0.229,0.018,0.287c-0.342,0.057-0.609,0.111-0.743,0.17c-0.133,0.061-0.114,0.211-0.095,0.27
			c0.21,0.84,1.755,4.789,1.831,4.961c0.02,0.039,0.078,0,0.078,0c0.42-1.014,1.315-3.514,1.545-4.271
			c0.23-0.766,0.113-0.859-0.078-0.938c-0.286-0.113-0.59-0.152-0.876-0.188c-0.021-0.061,0-0.248,0.057-0.287
			c0.229,0,0.915,0.055,1.584,0.055c0.495,0,1.182-0.037,1.353-0.055c0.059,0.018,0.039,0.248,0,0.287
			c-0.209,0.035-0.438,0.057-0.647,0.133c-0.324,0.111-0.498,0.344-0.63,0.646c-0.457,0.992-1.296,3.166-1.907,4.771
			c-0.305,0.783-0.44,1.221-0.554,1.604c-0.191,0-0.382,0-0.497,0.037c-0.133-0.477-0.247-0.838-0.457-1.451
			c-0.458-1.334-1.183-3.186-1.526-4.061c-0.458-1.186-0.477-1.377-0.973-1.547c-0.229-0.076-0.439-0.098-0.688-0.133
			C93.412,50.391,93.449,50.182,93.487,50.143"/>
		<path class="primarycolor" d="M107.626,55.98c0.019,0.096-0.02,0.287-0.039,0.326c-0.935,0.973-2.023,1.391-2.861,1.391
			c-0.937,0-1.68-0.344-2.175-0.914c-0.706-0.803-0.954-1.91-0.954-2.883c0-1.564,0.591-2.707,1.604-3.357
			c0.476-0.326,1.45-0.611,1.887-0.611c1.736,0,2.29,1.719,2.425,2.598c0.02,0.057,0.057,0.111,0.247,0.133
			c0.021,0.061-0.038,0.229-0.076,0.25c-0.821,0.27-3.416,0.398-4.96,0.438c-0.077,0-0.116,0.113-0.116,0.213
			c0,0.801,0.287,1.678,0.707,2.191c0.591,0.742,1.336,1.014,2.155,1.014c0.727,0,1.375-0.154,2.1-0.82
			C107.587,55.943,107.626,55.961,107.626,55.98 M102.665,52.775c0,0.057,0.039,0.115,0.058,0.115
			c0.573,0.035,3.109-0.039,3.548-0.137c0.038-0.021,0.114-0.074,0.114-0.15c-0.114-0.916-0.706-2.174-1.908-2.174
			C103.562,50.43,102.781,51.229,102.665,52.775"/>
		<path class="primarycolor" d="M113.464,50.295c0.021,0.037,0.021,0.191,0,0.268c-0.038,0.189-0.344,0.688-0.516,0.857l-0.132,0.059
			c-0.287-0.285-0.707-0.438-1.012-0.438c-0.438,0-0.783,0.438-1.07,0.955c-0.094,0.188-0.189,0.568-0.189,0.896
			c0,1.125,0.018,3.146,0.057,3.565c0.021,0.344,0.115,0.535,0.362,0.608c0.363,0.117,0.688,0.154,1.031,0.175
			c0.039,0.059,0.019,0.248-0.039,0.284c-0.19,0-1.125-0.058-1.755-0.058c-0.495,0-1.471,0.039-1.771,0.058
			c-0.039-0.036-0.039-0.246,0-0.284c0.206-0.021,0.531-0.097,0.704-0.152c0.173-0.06,0.285-0.153,0.324-0.459
			c0.058-0.305,0.075-2.041,0.075-3.51c0-0.765,0-1.354-0.038-1.604c-0.021-0.173-0.095-0.517-0.972-0.705
			c0-0.037,0.019-0.211,0.057-0.229c0.458-0.037,1.488-0.383,1.908-0.647c0.02,0,0.074,0.039,0.074,0.06
			c-0.02,0.36-0.02,1.202-0.02,1.584c0,0.021,0.059,0.034,0.076,0.021c0.324-0.44,0.706-0.937,1.164-1.281
			c0.305-0.228,0.591-0.381,0.936-0.381C113.023,49.932,113.331,50.066,113.464,50.295"/>
		<path class="primarycolor" d="M118.311,51.877c-0.02,0.059-0.267,0.078-0.305,0.02c-0.095-0.896-0.27-1.258-0.63-1.43
			c-0.287-0.135-0.554-0.172-0.86-0.172c-0.607,0-1.22,0.42-1.22,1.24c0,0.668,0.229,1.105,1.565,1.793
			c1.545,0.781,1.889,1.355,1.889,2.193c0,1.221-1.087,2.176-2.634,2.176c-0.552,0-1.296-0.133-1.773-0.344
			c-0.155-0.381-0.286-1.545-0.286-1.908c0.021-0.061,0.248-0.113,0.305-0.074c0.246,1.105,0.705,1.545,1.164,1.773
			c0.269,0.135,0.556,0.172,0.82,0.172c0.764,0,1.354-0.496,1.354-1.225c0-0.762-0.345-1.162-1.411-1.732
			c-1.545-0.82-1.943-1.469-1.943-2.385c0-1.068,0.877-2.043,2.497-2.043c0.401,0,0.744,0.059,1.03,0.096
			c0.211,0.039,0.555,0.076,0.648,0.076C118.368,50.752,118.348,51.193,118.311,51.877"/>
		<path class="primarycolor" d="M123.005,57.525c-0.362,0-1.146-0.059-1.678-0.059c-0.728,0-1.394,0.059-1.661,0.059
			c-0.038-0.037-0.038-0.246,0-0.285c0.268-0.039,0.57-0.076,0.783-0.174c0.209-0.094,0.304-0.209,0.343-0.779
			c0.037-0.479,0.037-2.043,0.037-3.131c0-0.762-0.019-1.373-0.019-1.697c0-0.115,0-0.191-0.098-0.344
			c-0.191-0.209-0.479-0.285-0.82-0.363c-0.037-0.037-0.018-0.246,0-0.285c0.594-0.059,1.375-0.209,2.022-0.535
			c-0.019,0.535-0.038,2.043-0.038,3.227c0,1.051,0,2.363,0.021,3.301c0,0.361,0.134,0.535,0.398,0.631
			c0.229,0.076,0.344,0.098,0.764,0.152C123.063,57.279,123.042,57.508,123.005,57.525 M121.555,47.891
			c-0.076,0.039-0.478,0.096-0.59,0.039c-0.212-0.096-0.365-0.346-0.365-0.646c0-0.137,0.021-0.27,0.096-0.363
			c0.115-0.135,0.402-0.27,0.634-0.27c0.209,0,0.397,0.115,0.438,0.154c0.113,0.094,0.151,0.285,0.151,0.381
			C121.917,47.529,121.745,47.814,121.555,47.891"/>
		<path class="primarycolor" d="M125.716,50.887c-0.059,0-0.096,0.074-0.096,0.113c-0.021,1.164-0.021,3.34,0,4.18
			c0.019,0.629,0.073,0.914,0.132,1.068c0.191,0.438,0.594,0.646,1.068,0.646c0.514,0,0.8-0.131,1.068-0.322
			c0.02,0.02-0.021,0.285-0.039,0.322c-0.42,0.535-1.066,0.785-1.643,0.785c-0.553,0-1.126-0.191-1.41-0.805
			c-0.212-0.438-0.23-0.916-0.23-2.137c0-1.049,0.021-2.957,0.021-3.723c0-0.059-0.021-0.094-0.075-0.113
			c-0.133-0.037-0.725-0.059-0.99-0.074c0-0.078,0.133-0.398,0.151-0.438c0.229-0.039,0.726-0.115,0.858-0.176
			c0.035-0.021,0.056-0.072,0.056-0.094V48.65c0.229-0.135,0.822-0.725,0.937-0.934c0.06-0.02,0.192,0.018,0.211,0.035
			c-0.058,0.268-0.112,1.051-0.112,2.348c0,0.039,0.058,0.094,0.073,0.094c1.029,0.021,1.947-0.035,2.14-0.072
			c-0.06,0.188-0.133,0.57-0.151,0.781C127.088,50.906,126.305,50.887,125.716,50.887"/>
		<path class="primarycolor" d="M128.27,50.143c0.324,0,0.631,0.057,1.566,0.057c0.688,0,1.43-0.057,1.563-0.057
			c0.039,0.039,0.061,0.248,0.021,0.287c-0.286,0.057-0.479,0.096-0.646,0.15c-0.097,0.039-0.174,0.135-0.135,0.268
			c0.174,0.688,1.852,5.055,1.906,5.172h0.039c0.667-1.471,1.545-3.721,1.736-4.885c0.037-0.189,0.057-0.459-0.383-0.572
			c-0.152-0.037-0.401-0.096-0.705-0.133c-0.039-0.059-0.021-0.248,0.037-0.287c0.17,0,0.936,0.057,1.508,0.057
			c0.627,0,0.914-0.037,1.41-0.057c0.06,0.039,0.06,0.248,0,0.287c-0.229,0.037-0.42,0.076-0.535,0.111
			c-0.303,0.078-0.514,0.232-0.685,0.688c-1.394,3.797-2.69,6.869-4.637,10.361c-0.211,0.361-0.517,0.82-0.649,1.068l-0.095,0.037
			c-0.229-0.057-0.553-0.285-0.669-0.438c0-0.039-0.037-0.135-0.02-0.172c0.668-0.856,2.175-2.92,2.996-4.694
			c0.02,0.021-0.096-0.246-0.115-0.283c-0.361-1.03-1.278-3.491-1.869-4.963c-0.438-1.086-0.592-1.431-0.992-1.563
			c-0.171-0.056-0.325-0.095-0.688-0.149C128.195,50.371,128.232,50.16,128.27,50.143"/>
		<path class="primarycolor" d="M146.814,53.615c0,1.314-0.569,2.652-1.733,3.395c-0.478,0.324-1.259,0.688-2.021,0.688
			c-2.672,0-3.531-2.138-3.531-3.947c0-1.451,0.647-2.426,1.603-3.074c0.647-0.438,1.509-0.743,2.349-0.743
			C145.635,49.932,146.814,51.574,146.814,53.615 M141.742,50.773c-0.479,0.305-1.051,1.025-1.051,2.537
			c0,2.135,1.166,3.813,2.881,3.813c0.4,0,0.953-0.115,1.316-0.479c0.61-0.609,0.762-1.354,0.762-2.424
			c0-2.135-1.028-3.758-2.86-3.758C142.484,50.467,141.988,50.58,141.742,50.773"/>
		<path class="primarycolor" d="M148.075,50.619c0.135-0.152,0.517-0.422,0.632-0.459h0.781c0.056-0.037,0.074-0.074,0.074-0.113
			c0.479-2.766,1.223-4.217,2.651-5.266c0.496-0.363,0.976-0.516,1.279-0.516c0.229,0,0.493,0.057,0.493,0.211
			c0,0.133-0.569,0.838-0.687,0.916c-0.038,0.018-0.112,0.037-0.153,0.018c-0.188-0.096-0.398-0.17-0.687-0.17
			c-0.323,0-0.705,0.209-0.952,0.686c-0.402,0.764-0.669,1.717-1.013,4.102c0,0.061,0.021,0.115,0.06,0.115
			c0.936,0,1.371-0.076,1.771-0.172c0.02,0.039-0.02,0.189-0.057,0.229c-0.326,0.287-0.707,0.422-1.088,0.496
			c-0.173,0.037-0.517,0.059-0.707,0.078c-0.037,0-0.096,0.096-0.096,0.135c-0.307,1.965-0.63,4.443-1.029,6.639
			c-0.705,3.895-2.404,5.188-3.777,5.188c-0.594,0-0.975-0.322-1.012-0.688c-0.037-0.189,0.096-0.896,0.153-1.01
			c0.039-0.059,0.134-0.078,0.17-0.078c0.308,0.611,0.821,0.992,1.546,0.992c0.992,0,1.414-1.066,1.813-3.451
			c0.439-2.633,0.992-6.164,1.165-7.594c0-0.039-0.019-0.115-0.058-0.115c-0.42,0-1.107-0.018-1.316-0.039
			C148.038,50.732,148.057,50.639,148.075,50.619"/>
		<path class="primarycolor" d="M157.156,45.717c0.361,0,1.26,0.055,2.042,0.055c1.108,0,1.603-0.037,2.004-0.055
			c0.057,0.039,0.057,0.248,0,0.285l-0.841,0.172c-0.283,0.057-0.381,0.248-0.283,0.516c0.646,1.813,3.051,8.146,3.395,8.949
			c0.039-0.02,0.039,0.02,0.076,0c0.247-0.518,2.748-6.756,3.34-8.416c0.209-0.611,0.191-0.953-0.382-1.064
			c-0.307-0.061-0.495-0.1-0.897-0.154c-0.019-0.037,0-0.246,0.039-0.285c0.459,0,1.106,0.057,1.908,0.057
			c0.819,0,1.449-0.057,1.791-0.057c0.021,0.057,0.021,0.248,0,0.285c-0.228,0.02-0.531,0.078-0.762,0.137
			c-0.554,0.133-0.727,0.459-1.298,1.813c-0.554,1.297-2.155,5.189-3.091,7.516c-0.325,0.84-0.553,1.527-0.725,2.137
			c-0.211-0.037-0.572-0.037-0.728,0c-0.208-0.744-0.478-1.621-0.856-2.611c-0.953-2.576-2.349-6.277-2.957-7.746
			c-0.345-0.838-0.555-1.053-1.013-1.125l-0.802-0.115C157.083,45.945,157.1,45.734,157.156,45.717"/>
		<path class="primarycolor" d="M173.566,55.98c0.02,0.096-0.021,0.287-0.037,0.326c-0.938,0.973-2.023,1.391-2.863,1.391
			c-0.934,0-1.678-0.344-2.175-0.914c-0.705-0.803-0.953-1.91-0.953-2.883c0-1.564,0.591-2.707,1.603-3.357
			c0.479-0.326,1.451-0.611,1.889-0.611c1.736,0,2.291,1.719,2.425,2.598c0.021,0.057,0.057,0.111,0.248,0.133
			c0.021,0.061-0.037,0.229-0.076,0.25c-0.819,0.27-3.415,0.398-4.96,0.438c-0.078,0-0.114,0.113-0.114,0.213
			c0,0.801,0.284,1.678,0.705,2.191c0.593,0.742,1.337,1.014,2.154,1.014c0.729,0,1.376-0.154,2.1-0.82
			C173.529,55.943,173.566,55.961,173.566,55.98 M168.604,52.775c0,0.057,0.039,0.115,0.062,0.115
			c0.571,0.035,3.108-0.039,3.548-0.137c0.038-0.021,0.114-0.074,0.114-0.15c-0.114-0.916-0.704-2.174-1.908-2.174
			C169.503,50.43,168.721,51.229,168.604,52.775"/>
		<path class="primarycolor" d="M179.404,50.295c0.021,0.037,0.021,0.191,0,0.268c-0.037,0.189-0.342,0.688-0.514,0.857l-0.135,0.059
			c-0.285-0.285-0.707-0.438-1.013-0.438c-0.438,0-0.782,0.438-1.068,0.955c-0.096,0.188-0.188,0.568-0.188,0.896
			c0,1.125,0.019,3.146,0.057,3.565c0.02,0.344,0.115,0.535,0.363,0.608c0.361,0.117,0.688,0.154,1.029,0.175
			c0.039,0.059,0.02,0.248-0.037,0.284c-0.19,0-1.127-0.058-1.756-0.058c-0.496,0-1.472,0.039-1.772,0.058
			c-0.039-0.036-0.039-0.246,0-0.284c0.207-0.021,0.532-0.097,0.705-0.152c0.172-0.06,0.286-0.153,0.323-0.459
			c0.057-0.305,0.074-2.041,0.074-3.51c0-0.765,0-1.354-0.035-1.604c-0.021-0.173-0.098-0.517-0.975-0.705
			c0-0.037,0.02-0.211,0.059-0.229c0.459-0.037,1.487-0.383,1.908-0.647c0.019,0,0.073,0.039,0.073,0.06
			c-0.019,0.36-0.019,1.202-0.019,1.584c0,0.021,0.057,0.034,0.074,0.021c0.324-0.44,0.707-0.937,1.166-1.281
			c0.306-0.228,0.59-0.381,0.936-0.381C178.966,49.932,179.271,50.066,179.404,50.295"/>
		<path class="primarycolor" d="M180.529,57.088c0.326-0.096,0.365-0.459,0.386-0.861c0.035-1.064,0.056-2.896,0.056-4.252
			c0-0.115-0.021-0.496-0.172-0.688c-0.21-0.229-0.592-0.307-0.84-0.361c-0.02-0.059,0.039-0.25,0.076-0.27
			c0.668-0.037,1.525-0.439,1.945-0.725c0.021,0,0.059,0.039,0.059,0.059c0,0.133-0.02,0.896-0.02,1.182
			c0,0.039,0.059,0.078,0.076,0.057c1.028-0.818,1.965-1.297,2.557-1.297c0.896,0,1.582,0.574,1.906,1.297
			c0.021,0.061,0.115,0.039,0.135,0.021c0.953-0.744,1.947-1.318,2.709-1.318c1.431,0,2.117,1.088,2.156,2.9
			c0.02,1.012,0.02,2.939,0.02,3.701c0,0.209,0.02,0.363,0.152,0.459c0.211,0.152,0.459,0.191,1.013,0.248
			c0.019,0.039,0,0.248-0.06,0.285c-0.399,0-1.086-0.059-1.697-0.059c-0.896,0-1.336,0.039-1.623,0.059
			c-0.036-0.037-0.036-0.246,0-0.285c0.421-0.076,0.611-0.096,0.88-0.211c0.247-0.096,0.247-0.496,0.247-1.373
			c0-1.297,0.037-2.805-0.075-3.34c-0.134-0.781-0.593-1.543-1.833-1.543c-0.551,0-1.163,0.207-1.793,0.801
			c-0.039,0.018-0.057,0.133-0.057,0.17c0.057,0.346,0.076,0.727,0.076,1.297c0,1.014-0.021,2.826,0.035,3.588
			c0.021,0.268,0.135,0.4,0.288,0.459c0.229,0.076,0.398,0.096,0.819,0.152c0.038,0.059,0.021,0.248-0.038,0.285
			c-0.479,0-0.954-0.059-1.683-0.059c-0.627,0-1.295,0.059-1.58,0.059c-0.039-0.037-0.039-0.246,0-0.285
			c0.344-0.057,0.478-0.076,0.724-0.152c0.229-0.078,0.287-0.23,0.324-0.783c0.058-0.859,0.038-3.568-0.056-4.121
			c-0.117-0.516-0.517-1.41-1.72-1.41c-0.342,0-0.972,0.152-1.487,0.553c-0.211,0.172-0.42,0.359-0.42,0.631
			c0,1.201,0,3.625,0.021,4.521c0,0.267,0.039,0.517,0.342,0.61c0.189,0.058,0.439,0.097,0.803,0.152
			c0.039,0.038,0.021,0.268-0.037,0.284c-0.361,0-0.974-0.058-1.621-0.058c-0.916,0-1.316,0.058-1.736,0.058
			c-0.059-0.036-0.039-0.269,0-0.284C180.148,57.184,180.359,57.145,180.529,57.088"/>
		<path class="primarycolor" d="M200.736,53.615c0,1.314-0.569,2.652-1.733,3.395c-0.478,0.324-1.261,0.688-2.022,0.688
			c-2.67,0-3.529-2.138-3.529-3.947c0-1.451,0.646-2.426,1.604-3.074c0.646-0.438,1.506-0.743,2.346-0.743
			C199.557,49.932,200.736,51.574,200.736,53.615 M195.664,50.773c-0.479,0.305-1.051,1.025-1.051,2.537
			c0,2.135,1.164,3.813,2.882,3.813c0.399,0,0.953-0.115,1.317-0.479c0.607-0.609,0.762-1.354,0.762-2.424
			c0-2.135-1.03-3.758-2.861-3.758C196.407,50.467,195.911,50.58,195.664,50.773"/>
		<path class="primarycolor" d="M202.283,57.088c0.287-0.115,0.345-0.439,0.361-0.746c0.059-0.703,0.039-1.926,0.039-3.205
			c0-1.088-0.039-1.602-0.058-1.717c-0.039-0.268-0.174-0.324-0.917-0.533c-0.02-0.039,0-0.229,0.059-0.248
			c0.633-0.096,1.524-0.422,1.984-0.707c0.02,0,0.059,0.039,0.059,0.078c-0.039,0.398-0.059,0.801-0.076,1.125
			c0,0.059,0.037,0.115,0.076,0.076c1.238-0.975,2.115-1.279,2.688-1.279c0.743,0,1.276,0.363,1.658,0.955
			c0.346,0.533,0.46,1.258,0.46,2.193c0,1.029,0.019,2.652,0.019,3.492c0,0.285,0.06,0.42,0.285,0.494
			c0.269,0.098,0.517,0.135,0.82,0.174c0.04,0.039,0.021,0.248-0.038,0.285c-0.268,0-0.725-0.059-1.604-0.059
			s-1.449,0.039-1.772,0.059c-0.039-0.037-0.039-0.246,0-0.285c0.36-0.039,0.688-0.096,0.802-0.133
			c0.307-0.1,0.383-0.309,0.398-0.559c0.037-0.875,0.037-3.354-0.036-3.984c-0.04-0.307-0.153-0.936-0.535-1.297
			c-0.269-0.287-0.629-0.494-1.276-0.494c-0.648,0-1.24,0.246-1.736,0.742c-0.151,0.15-0.209,0.322-0.209,0.818
			c0,1.508,0,3.09,0.037,3.934c0.021,0.531,0.096,0.686,0.306,0.779c0.172,0.076,0.571,0.137,0.878,0.174
			c0.02,0.035,0.02,0.246-0.02,0.305c-0.209,0-0.688-0.059-1.72-0.059c-1.049,0-1.372,0.059-1.64,0.059
			c-0.059-0.037-0.038-0.246,0-0.285C201.846,57.201,202.092,57.164,202.283,57.088"/>
		<path class="primarycolor" d="M212.188,50.887c-0.058,0-0.097,0.074-0.097,0.113c-0.021,1.164-0.021,3.34,0,4.18
			c0.021,0.629,0.075,0.914,0.136,1.068c0.188,0.438,0.59,0.646,1.066,0.646c0.516,0,0.8-0.131,1.07-0.322
			c0.017,0.02-0.021,0.285-0.041,0.322c-0.42,0.535-1.067,0.785-1.641,0.785c-0.554,0-1.127-0.191-1.412-0.805
			c-0.209-0.438-0.229-0.916-0.229-2.137c0-1.049,0.021-2.957,0.021-3.723c0-0.059-0.021-0.094-0.076-0.113
			c-0.133-0.037-0.726-0.059-0.991-0.074c0-0.078,0.134-0.398,0.153-0.438c0.229-0.039,0.724-0.115,0.856-0.176
			c0.037-0.021,0.058-0.072,0.058-0.094V48.65c0.229-0.135,0.82-0.725,0.936-0.934c0.059-0.02,0.191,0.018,0.211,0.035
			c-0.057,0.268-0.115,1.051-0.115,2.348c0,0.039,0.059,0.094,0.075,0.094c1.03,0.021,1.948-0.035,2.14-0.072
			c-0.058,0.188-0.134,0.57-0.152,0.781C213.563,50.906,212.775,50.887,212.188,50.887"/>
	</g>
	<path class="primarycolor" d="M30.415,55.174v-1.318l0.452-0.654l0.017-1.74l0.533-0.492l0.002-0.311l-3.304,0.033l-2.428-3.303
		l-1.083-7.604l0.746-0.865l-0.635-0.85l0.004-5.978l0.707-0.762c0,0,0.005-0.424-0.003-0.432L23.79,28.69l-3.306-13.98
		c0,0,0.44-0.344,0.44-0.388c0-0.042-1.126-2.48-1.126-2.48l0.019,0.005c0.293-0.065,0.514-0.343,0.514-0.674
		c0-0.383-0.29-0.692-0.646-0.692c-0.358,0-0.646,0.309-0.646,0.692c0,0.314,0.199,0.581,0.472,0.663l-0.005-0.002l-0.972,2.453
		l0.456,0.431l-3.373,13.964l-1.912,2.231v0.467c0,0,1.134,0.829,1.037,0.725c-0.096-0.102,0.012,5.686,0.012,5.686l-0.724,1.107
		l0.68,0.984l-0.972,7.814l-2.172,3.012H8.121v0.336l0.196,0.156l0.347,0.301v1.816l0.486,0.533v1.768l0.47,0.588v1.301v0.02h20.243
		l0.016-1.264L30.415,55.174z M24.958,46.537l-2.493-3.465v-0.189h2.007L24.958,46.537z M21.832,42l-2.048-2.875h4.124l0.423,2.877
		L21.832,42z M23.033,32.881c0.732-0.029,0.74,0.518,0.74,0.696c0,0.176,0.014,4.127,0.014,4.127h-1.438v-4.091
		C22.349,33.614,22.3,32.911,23.033,32.881z M21.994,32.829c0,0-0.857-1.121-2.021-0.119h-0.271l-0.005-1.4l4.454,0.035v1.385
		h-0.248C23.945,32.78,23.044,31.788,21.994,32.829z M20.984,32.872c0.732-0.029,0.738,0.52,0.738,0.696
		c0,0.178,0.014,4.129,0.014,4.129h-1.438v-4.093C20.297,33.604,20.249,32.902,20.984,32.872z M22.881,28.369h-0.847l-1.58-11.448
		L22.881,28.369z M20.011,15.494l1.626,12.875h-0.822L20.011,15.494z M20.431,28.369h-0.732l0.005-13.641L20.431,28.369z
		 M20.362,13.962v0.317h-0.684l0.03-1.805L20.362,13.962z M20.071,11.087c0,0-0.042,0.429-0.362,0.429c0,0-0.01-0.225-0.01-0.44
		c0,0,0.004-0.23-0.034-0.313C19.665,10.763,20.044,10.745,20.071,11.087z M15.34,30.069l0.668-0.768h7.241l0.653,0.822v0.508
		l-8.563,0.002L15.34,30.069L15.34,30.069z M18.443,32.867c0.733-0.029,0.741,0.521,0.741,0.696c0,0.179,0.014,4.128,0.014,4.128
		h-1.44v-4.092C17.758,33.599,17.71,32.897,18.443,32.867z M16.325,32.875c0.733-0.028,0.742,0.519,0.742,0.695
		c0,0.18,0.011,4.125,0.011,4.125h-1.44v-4.09C15.638,33.606,15.592,32.905,16.325,32.875z M15.154,38.074h8.998l0.391,0.516h-9.698
		L15.154,38.074z M18.23,40.969v0.223l-0.633,0.896h-2.542l0.016-1.115h3.159V40.969z M14.958,42.883h2.008v0.189l-2.493,3.465
		L14.958,42.883z M19.786,40.105l7.409,10.43h-0.548l-6.86-9.703l-6.884,9.723H12.37L19.786,40.105z M21.242,45.932v-1.066
		c0,0-0.17-1.139-1.472-1.139v-2.104l2.669,3.896C22.221,45.52,21.801,45.336,21.242,45.932z M23.068,46.785v2.275h-1.603v-2.275
		c0-0.842,0.809-0.791,0.809-0.791C23.165,45.994,23.068,46.785,23.068,46.785z M20.742,45.301v3.746h-2.004l-0.001-3.748
		c0-1.053,1.013-0.99,1.013-0.99C20.862,44.309,20.742,45.301,20.742,45.301z M19.751,49.572h3.788v-2.59l2.541,3.564l-6.328-0.012
		L19.751,49.572L19.751,49.572z M18.133,46.795v2.275h-1.604v-2.275c0-0.842,0.81-0.793,0.81-0.793
		C18.23,46.002,18.133,46.795,18.133,46.795z M13.485,56.459c-0.151,0.285-0.297,0.596-0.432,0.93h-0.386
		c0.044-0.152,0.376-1.125,1.149-2.189c0.008-0.014,0.018-0.023,0.024-0.035c0.101-0.139,0.207-0.271,0.321-0.412
		c0.042-0.049,0.088-0.1,0.132-0.146c0.088-0.104,0.179-0.205,0.277-0.308c0.069-0.073,0.147-0.146,0.223-0.215
		c0.082-0.078,0.16-0.156,0.247-0.231c0.096-0.082,0.2-0.162,0.302-0.242c0.078-0.06,0.151-0.125,0.233-0.183
		c0.119-0.086,0.248-0.161,0.374-0.239c0.079-0.049,0.149-0.101,0.229-0.146c0.14-0.08,0.29-0.147,0.438-0.222
		c0.08-0.036,0.154-0.079,0.236-0.116c0.158-0.063,0.329-0.123,0.495-0.181c0.084-0.028,0.165-0.063,0.252-0.092
		c0.183-0.054,0.378-0.093,0.574-0.134c0.082-0.016,0.16-0.041,0.245-0.057c0.286-0.05,0.584-0.082,0.895-0.099v0.394
		c0,0-2.289-0.013-4.286,1.873l0,0c-0.183,0.172-0.362,0.358-0.538,0.565c-0.004,0.002-0.007,0.008-0.01,0.01
		c-0.168,0.195-0.332,0.412-0.49,0.646c-0.013,0.019-0.024,0.031-0.036,0.052c-0.154,0.228-0.305,0.478-0.449,0.743
		C13.498,56.436,13.491,56.447,13.485,56.459z M24.493,57.389v-1.588h-0.896v1.588h-0.365v-1.588H22.35v1.588h-1.044v-1.877h-1.355
		v1.877h-0.364l-0.008-1.885l-1.333,0.008v1.877h-1.075v-1.588h-0.885v1.588h-0.364v-1.588h-0.894v1.588h-1.331
		c0.004-0.008,0.004-0.01,0.008-0.02h0.006c0,0,0.091-0.246,0.291-0.621c0.219-0.4,0.557-0.93,1.026-1.449h0.892v-0.822
		c0.117-0.09,0.237-0.178,0.364-0.26v1.082h0.885v-1.574c0.329-0.148,0.684-0.281,1.07-0.375l0.004-0.004v1.729h1.342l-0.008-1.955
		c0.139-0.029,0.298-0.029,0.373,0.002c0.009-0.002,0,1.953,0,1.953h1.355c0,0,0-1.72,0-1.716c0.219,0.013,0.596,0.111,1.044,0.313
		v1.625h0.882v-1.144c0.123,0.076,0.245,0.162,0.365,0.255v0.889h0.896c0,0,1.012,0.609,1.381,2.091H24.493L24.493,57.389z
		 M29.298,56.023v1.346v0.02h-2.811c0-0.008-0.003-0.014-0.005-0.02l0,0c-1.876-5.105-6.791-4.834-6.791-4.834l0.001-0.895
		L9.163,51.656l-0.001-0.482l21.156-0.018v1.623l-0.405,0.619v1.398L29.298,56.023z"/>
	<g>
		<path class="primarycolor" d="M39.315,57.885H0.275V6.908h39.04V57.885z M0.989,57.17h37.612V7.622H0.989V57.17z"/>
	</g>
</g>
</svg>
