<?xml version="1.0" encoding="iso-8859-1"?>
<svg version="1.2" baseProfile="tiny" class="logocolor vu" xmlns="http://www.w3.org/2000/svg" xmlns:xlink="http://www.w3.org/1999/xlink" viewBox="0 0 215 70" xml:space="preserve">
<g>
	<path class="primarycolor" d="M46.317,18.341c-0.613-1.464-1.063-1.756-2.024-2.023c-0.398-0.105-0.824-0.105-1.038-0.105
		c-0.239,0-0.319-0.079-0.319-0.238c0-0.214,0.293-0.24,0.692-0.24c1.411,0,2.927,0.078,3.857,0.078
		c0.668,0,1.942-0.078,3.273-0.078c0.319,0,0.611,0.053,0.611,0.24c0,0.184-0.159,0.238-0.398,0.238
		c-0.425,0-0.824,0.028-1.039,0.186c-0.184,0.135-0.264,0.319-0.264,0.558c0,0.346,0.239,1.092,0.611,2.05l4.577,12.08h0.105
		c1.146-2.928,4.604-11.494,5.243-13.251c0.134-0.347,0.24-0.745,0.24-0.984c0-0.211-0.105-0.425-0.348-0.506
		c-0.318-0.104-0.717-0.132-1.064-0.132c-0.24,0-0.451-0.026-0.451-0.211c0-0.214,0.239-0.267,0.744-0.267
		c1.33,0,2.448,0.078,2.795,0.078c0.451,0,1.703-0.078,2.501-0.078c0.345,0,0.56,0.053,0.56,0.24c0,0.184-0.162,0.238-0.426,0.238
		c-0.267,0-0.826,0-1.305,0.32c-0.346,0.237-0.747,0.69-1.464,2.395c-1.036,2.5-1.756,3.938-3.193,7.21
		c-1.7,3.883-2.952,6.784-3.539,8.116c-0.69,1.542-0.849,1.968-1.223,1.968c-0.346,0-0.505-0.371-1.01-1.622L46.317,18.341z"/>
	<path class="primarycolor" d="M69.435,23.451c0-4.043,0-4.791-0.053-5.642c-0.054-0.906-0.32-1.357-0.905-1.491
		c-0.293-0.078-0.639-0.105-0.958-0.105c-0.267,0-0.426-0.054-0.426-0.264c0-0.161,0.213-0.214,0.639-0.214
		c1.011,0,2.688,0.078,3.459,0.078c0.664,0,2.234-0.078,3.247-0.078c0.344,0,0.559,0.053,0.559,0.214
		c0,0.21-0.158,0.264-0.427,0.264c-0.265,0-0.479,0.028-0.796,0.08c-0.72,0.133-0.934,0.585-0.987,1.517
		c-0.053,0.851-0.053,1.599-0.053,5.642v4.683c0,2.58,0,4.68,0.106,5.825c0.079,0.719,0.267,1.198,1.064,1.303
		c0.373,0.057,0.958,0.105,1.36,0.105c0.291,0,0.422,0.083,0.422,0.216c0,0.186-0.211,0.268-0.505,0.268
		c-1.756,0-3.431-0.082-4.15-0.082c-0.611,0-2.288,0.082-3.353,0.082c-0.345,0-0.532-0.082-0.532-0.268
		c0-0.132,0.106-0.216,0.427-0.216c0.397,0,0.717-0.048,0.957-0.105c0.532-0.105,0.692-0.558,0.771-1.329
		c0.133-1.119,0.133-3.22,0.133-5.799V23.451z"/>
	<path class="primarycolor" d="M83.56,28.133c0,3.404,0,5.241,0.56,5.72c0.45,0.399,1.144,0.585,3.22,0.585
		c1.408,0,2.447-0.026,3.111-0.744c0.318-0.348,0.641-1.094,0.693-1.599c0.026-0.239,0.081-0.398,0.292-0.398
		c0.185,0,0.213,0.132,0.213,0.453c0,0.292-0.186,2.289-0.4,3.06c-0.158,0.585-0.293,0.718-1.677,0.718
		c-1.914,0-3.298-0.053-4.496-0.078c-1.197-0.055-2.154-0.082-3.246-0.082c-0.292,0-0.877,0-1.515,0.027
		c-0.614,0-1.306,0.055-1.835,0.055c-0.347,0-0.535-0.082-0.535-0.268c0-0.132,0.108-0.216,0.425-0.216
		c0.402,0,0.72-0.048,0.959-0.105c0.532-0.105,0.665-0.69,0.771-1.462c0.133-1.116,0.133-3.219,0.133-5.666v-4.683
		c0-4.043,0-4.791-0.053-5.642c-0.054-0.906-0.268-1.331-1.144-1.517c-0.21-0.052-0.534-0.08-0.878-0.08
		c-0.293,0-0.453-0.054-0.453-0.238c0-0.187,0.186-0.24,0.585-0.24c1.251,0,2.927,0.078,3.646,0.078
		c0.636,0,2.581-0.078,3.616-0.078c0.375,0,0.561,0.053,0.561,0.24c0,0.184-0.161,0.238-0.478,0.238c-0.294,0-0.72,0.028-1.039,0.08
		c-0.719,0.133-0.931,0.585-0.984,1.517c-0.054,0.851-0.054,1.599-0.054,5.642V28.133z"/>
	<path class="primarycolor" d="M99.34,28.133c0,3.404,0,5.241,0.558,5.72c0.451,0.399,1.145,0.585,3.22,0.585
		c1.412,0,2.449-0.026,3.113-0.744c0.32-0.348,0.638-1.094,0.692-1.599c0.027-0.239,0.082-0.398,0.296-0.398
		c0.182,0,0.211,0.132,0.211,0.453c0,0.292-0.187,2.289-0.4,3.06c-0.161,0.585-0.291,0.718-1.679,0.718
		c-1.914,0-3.298-0.053-4.495-0.078c-1.196-0.055-2.156-0.082-3.244-0.082c-0.293,0-0.877,0-1.518,0.027
		c-0.613,0-1.304,0.055-1.836,0.055c-0.347,0-0.531-0.082-0.531-0.268c0-0.132,0.104-0.216,0.424-0.216
		c0.4,0,0.718-0.048,0.96-0.105c0.53-0.105,0.665-0.69,0.769-1.462c0.135-1.116,0.135-3.219,0.135-5.666v-4.683
		c0-4.043,0-4.791-0.053-5.642c-0.055-0.906-0.267-1.331-1.146-1.517c-0.212-0.052-0.531-0.08-0.877-0.08
		c-0.291,0-0.451-0.054-0.451-0.238c0-0.187,0.184-0.24,0.585-0.24c1.25,0,2.926,0.078,3.644,0.078c0.639,0,2.58-0.078,3.618-0.078
		c0.374,0,0.56,0.053,0.56,0.24c0,0.184-0.157,0.238-0.478,0.238c-0.295,0-0.719,0.028-1.04,0.08
		c-0.716,0.133-0.93,0.585-0.982,1.517c-0.054,0.851-0.054,1.599-0.054,5.642V28.133z"/>
	<path class="primarycolor" d="M115.739,28.903c-0.135,0-0.188,0.054-0.241,0.213l-1.436,3.805c-0.268,0.667-0.4,1.305-0.4,1.626
		c0,0.476,0.239,0.819,1.068,0.819h0.396c0.319,0,0.398,0.054,0.398,0.216c0,0.213-0.16,0.268-0.452,0.268
		c-0.852,0-1.996-0.082-2.819-0.082c-0.292,0-1.758,0.082-3.14,0.082c-0.346,0-0.507-0.055-0.507-0.268
		c0-0.162,0.106-0.216,0.319-0.216c0.24,0,0.612-0.022,0.826-0.048c1.224-0.163,1.729-1.066,2.261-2.398l6.678-16.708
		c0.319-0.771,0.479-1.063,0.745-1.063c0.24,0,0.4,0.239,0.665,0.852c0.641,1.461,4.896,12.319,6.601,16.362
		c1.01,2.395,1.782,2.767,2.341,2.898c0.397,0.083,0.799,0.105,1.117,0.105c0.213,0,0.347,0.032,0.347,0.216
		c0,0.213-0.239,0.268-1.225,0.268c-0.958,0-2.9,0-5.028-0.055c-0.479-0.027-0.798-0.027-0.798-0.213
		c0-0.162,0.106-0.216,0.374-0.238c0.184-0.055,0.37-0.294,0.238-0.614l-2.129-5.641c-0.054-0.132-0.134-0.186-0.269-0.186H115.739z
		 M121.168,27.574c0.132,0,0.157-0.082,0.132-0.16l-2.396-6.572c-0.027-0.108-0.054-0.239-0.132-0.239
		c-0.082,0-0.134,0.131-0.16,0.239l-2.447,6.546c-0.028,0.104,0,0.186,0.105,0.186H121.168z"/>
	<path class="primarycolor" d="M136.552,32.23c0.052,2.076,0.398,2.768,0.931,2.951c0.452,0.163,0.96,0.185,1.385,0.185
		c0.291,0,0.453,0.054,0.453,0.216c0,0.213-0.24,0.268-0.614,0.268c-1.729,0-2.793-0.082-3.298-0.082
		c-0.239,0-1.491,0.082-2.874,0.082c-0.347,0-0.585-0.029-0.585-0.268c0-0.162,0.159-0.216,0.425-0.216
		c0.348,0,0.826-0.022,1.201-0.131c0.688-0.212,0.794-0.983,0.821-3.298l0.239-15.752c0-0.531,0.08-0.904,0.346-0.904
		c0.293,0,0.532,0.345,0.985,0.823c0.322,0.347,4.363,4.684,8.247,8.541c1.813,1.812,5.402,5.643,5.856,6.068h0.13l-0.263-11.949
		c-0.028-1.621-0.268-2.125-0.907-2.393c-0.398-0.159-1.036-0.159-1.411-0.159c-0.315,0-0.424-0.079-0.424-0.238
		c0-0.214,0.292-0.24,0.691-0.24c1.384,0,2.661,0.078,3.22,0.078c0.293,0,1.304-0.078,2.608-0.078c0.345,0,0.609,0.025,0.609,0.24
		c0,0.16-0.157,0.238-0.478,0.238c-0.265,0-0.479,0-0.798,0.08c-0.743,0.212-0.957,0.772-0.986,2.259l-0.292,16.793
		c0,0.583-0.105,0.823-0.346,0.823c-0.29,0-0.611-0.292-0.902-0.585c-1.679-1.596-5.084-5.083-7.853-7.823
		c-2.896-2.875-5.852-6.198-6.331-6.703h-0.079L136.552,32.23z"/>
	<path class="primarycolor" d="M155.129,25.791c0-4.551,3.005-10.431,10.99-10.431c6.622,0,10.747,3.858,10.747,9.952
		s-4.258,10.909-11.015,10.909C158.215,36.221,155.129,30.5,155.129,25.791z M173.142,26.297c0-5.959-3.434-9.658-7.796-9.658
		c-3.061,0-6.546,1.702-6.546,8.328c0,5.533,3.061,9.923,8.168,9.923C168.831,34.89,173.142,33.986,173.142,26.297z"/>
	<path class="primarycolor" d="M179.256,18.341c-0.611-1.464-1.063-1.756-2.022-2.023c-0.399-0.105-0.826-0.105-1.039-0.105
		c-0.24,0-0.319-0.079-0.319-0.238c0-0.214,0.293-0.24,0.693-0.24c1.412,0,2.927,0.078,3.859,0.078c0.665,0,1.943-0.078,3.273-0.078
		c0.319,0,0.61,0.053,0.61,0.24c0,0.184-0.158,0.238-0.398,0.238c-0.426,0-0.825,0.028-1.037,0.186
		c-0.188,0.135-0.269,0.319-0.269,0.558c0,0.346,0.241,1.092,0.611,2.05l4.58,12.08h0.104c1.147-2.928,4.603-11.494,5.24-13.251
		c0.137-0.347,0.24-0.745,0.24-0.984c0-0.211-0.104-0.425-0.344-0.506c-0.32-0.104-0.717-0.132-1.065-0.132
		c-0.239,0-0.449-0.026-0.449-0.211c0-0.214,0.237-0.267,0.743-0.267c1.331,0,2.446,0.078,2.792,0.078
		c0.455,0,1.704-0.078,2.5-0.078c0.348,0,0.56,0.053,0.56,0.24c0,0.184-0.156,0.238-0.425,0.238c-0.268,0-0.825,0-1.302,0.32
		c-0.347,0.237-0.744,0.69-1.466,2.395c-1.035,2.5-1.753,3.938-3.192,7.21c-1.704,3.883-2.952,6.784-3.54,8.116
		c-0.692,1.542-0.852,1.968-1.223,1.968c-0.349,0-0.503-0.371-1.011-1.622L179.256,18.341z"/>
	<path class="primarycolor" d="M199.23,28.903c-0.135,0-0.188,0.054-0.242,0.213l-1.436,3.805c-0.267,0.667-0.396,1.305-0.396,1.626
		c0,0.476,0.238,0.819,1.061,0.819h0.4c0.318,0,0.4,0.054,0.4,0.216c0,0.213-0.163,0.268-0.452,0.268
		c-0.852,0-1.999-0.082-2.821-0.082c-0.296,0-1.757,0.082-3.139,0.082c-0.348,0-0.51-0.055-0.51-0.268
		c0-0.162,0.108-0.216,0.321-0.216c0.241,0,0.613-0.022,0.826-0.048c1.224-0.163,1.729-1.066,2.259-2.398l6.683-16.708
		c0.321-0.771,0.48-1.063,0.747-1.063c0.238,0,0.397,0.239,0.666,0.852c0.636,1.461,4.896,12.319,6.599,16.362
		c1.012,2.395,1.782,2.767,2.34,2.898c0.403,0.083,0.8,0.105,1.117,0.105c0.212,0,0.347,0.032,0.347,0.216
		c0,0.213-0.24,0.268-1.223,0.268c-0.957,0-2.902,0-5.029-0.055c-0.479-0.027-0.798-0.027-0.798-0.213
		c0-0.162,0.106-0.216,0.369-0.238c0.188-0.055,0.376-0.294,0.242-0.614l-2.132-5.641c-0.05-0.132-0.129-0.186-0.263-0.186H199.23z
		 M204.661,27.574c0.129,0,0.161-0.082,0.129-0.16l-2.393-6.572c-0.026-0.108-0.054-0.239-0.133-0.239
		c-0.08,0-0.133,0.131-0.155,0.239l-2.454,6.546c-0.028,0.104,0,0.186,0.105,0.186H204.661z"/>
	<path class="primarycolor" d="M49.449,47.373c0-2.37,0-2.807-0.031-3.305c-0.032-0.528-0.158-0.775-0.67-0.89
		c-0.124-0.03-0.39-0.044-0.608-0.044c-0.172,0-0.264-0.032-0.264-0.143c0-0.107,0.108-0.138,0.344-0.138
		c0.822,0,1.806,0.046,2.271,0.046c0.377,0,1.355-0.046,1.917-0.046c0.234,0,0.343,0.03,0.343,0.138c0,0.11-0.094,0.143-0.25,0.143
		c-0.172,0-0.265,0.014-0.452,0.044c-0.419,0.08-0.546,0.344-0.576,0.89c-0.031,0.498-0.031,0.935-0.031,3.305v2.18
		c0,2.261,0.452,3.211,1.214,3.833c0.701,0.577,1.418,0.641,1.949,0.641c0.684,0,1.526-0.222,2.148-0.843
		c0.857-0.856,0.906-2.261,0.906-3.864v-1.946c0-2.37,0-2.807-0.032-3.305c-0.032-0.528-0.157-0.775-0.671-0.89
		c-0.124-0.03-0.389-0.044-0.562-0.044c-0.171,0-0.264-0.032-0.264-0.143c0-0.107,0.11-0.138,0.328-0.138
		c0.794,0,1.775,0.046,1.792,0.046c0.185,0,1.167-0.046,1.776-0.046c0.216,0,0.328,0.03,0.328,0.138c0,0.11-0.095,0.143-0.281,0.143
		c-0.172,0-0.267,0.014-0.453,0.044c-0.421,0.08-0.546,0.344-0.576,0.89c-0.032,0.498-0.032,0.935-0.032,3.305v1.665
		c0,1.731-0.172,3.569-1.48,4.69c-1.104,0.951-2.228,1.123-3.241,1.123c-0.825,0-2.321-0.046-3.458-1.076
		c-0.793-0.716-1.386-1.872-1.386-4.13V47.373z"/>
	<path class="primarycolor" d="M67.382,52.513c0.031,1.216,0.234,1.619,0.545,1.731c0.266,0.095,0.561,0.108,0.811,0.108
		c0.171,0,0.266,0.03,0.266,0.125c0,0.126-0.142,0.157-0.361,0.157c-1.013,0-1.634-0.049-1.931-0.049
		c-0.141,0-0.871,0.049-1.684,0.049c-0.203,0-0.342-0.017-0.342-0.157c0-0.095,0.093-0.125,0.248-0.125
		c0.205,0,0.485-0.014,0.705-0.077c0.403-0.125,0.468-0.578,0.481-1.933l0.142-9.224c0-0.313,0.046-0.53,0.202-0.53
		c0.171,0,0.313,0.202,0.575,0.482c0.188,0.202,2.557,2.742,4.831,5.001c1.061,1.06,3.163,3.305,3.427,3.554h0.078l-0.155-6.997
		c-0.015-0.95-0.156-1.245-0.53-1.401c-0.233-0.093-0.608-0.093-0.825-0.093c-0.187,0-0.248-0.049-0.248-0.143
		c0-0.124,0.17-0.138,0.404-0.138c0.809,0,1.556,0.046,1.884,0.046c0.172,0,0.764-0.046,1.529-0.046c0.2,0,0.358,0.014,0.358,0.138
		c0,0.094-0.093,0.143-0.281,0.143c-0.156,0-0.281,0-0.467,0.044c-0.435,0.126-0.561,0.452-0.576,1.328l-0.172,9.832
		c0,0.341-0.063,0.484-0.202,0.484c-0.172,0-0.359-0.173-0.53-0.346c-0.982-0.936-2.975-2.978-4.598-4.582
		c-1.695-1.682-3.428-3.628-3.708-3.927h-0.045L67.382,52.513z"/>
	<path class="primarycolor" d="M84.384,47.373c0-2.37,0-2.807-0.033-3.305c-0.029-0.528-0.186-0.795-0.529-0.87
		c-0.171-0.05-0.375-0.063-0.562-0.063c-0.155,0-0.249-0.032-0.249-0.155c0-0.095,0.125-0.125,0.375-0.125
		c0.59,0,1.574,0.046,2.025,0.046c0.39,0,1.308-0.046,1.899-0.046c0.204,0,0.329,0.03,0.329,0.125c0,0.123-0.095,0.155-0.251,0.155
		c-0.154,0-0.279,0.014-0.468,0.044c-0.419,0.08-0.544,0.344-0.575,0.89c-0.032,0.498-0.032,0.935-0.032,3.305v2.74
		c0,1.513,0,2.744,0.063,3.413c0.047,0.42,0.155,0.703,0.623,0.764c0.219,0.032,0.563,0.063,0.793,0.063
		c0.173,0,0.252,0.047,0.252,0.125c0,0.108-0.125,0.157-0.296,0.157c-1.029,0-2.011-0.049-2.43-0.049
		c-0.358,0-1.342,0.049-1.964,0.049c-0.203,0-0.312-0.049-0.312-0.157c0-0.078,0.063-0.125,0.25-0.125
		c0.233,0,0.42-0.03,0.561-0.063c0.312-0.061,0.405-0.327,0.452-0.779c0.079-0.653,0.079-1.885,0.079-3.397V47.373z"/>
	<path class="primarycolor" d="M93.107,44.381c-0.358-0.858-0.623-1.029-1.184-1.183c-0.234-0.063-0.483-0.063-0.607-0.063
		c-0.139,0-0.187-0.049-0.187-0.143c0-0.124,0.172-0.138,0.404-0.138c0.827,0,1.715,0.046,2.26,0.046
		c0.39,0,1.136-0.046,1.916-0.046c0.188,0,0.357,0.03,0.357,0.138c0,0.11-0.092,0.143-0.233,0.143c-0.249,0-0.482,0.014-0.608,0.11
		c-0.108,0.077-0.155,0.186-0.155,0.325c0,0.202,0.14,0.638,0.358,1.198l2.682,7.075h0.06c0.671-1.713,2.697-6.73,3.071-7.763
		c0.076-0.201,0.139-0.432,0.139-0.574c0-0.123-0.063-0.248-0.202-0.296c-0.187-0.063-0.421-0.076-0.624-0.076
		c-0.14,0-0.264-0.016-0.264-0.123c0-0.127,0.14-0.157,0.435-0.157c0.778,0,1.434,0.046,1.635,0.046
		c0.266,0,0.996-0.046,1.466-0.046c0.203,0,0.327,0.03,0.327,0.138c0,0.11-0.096,0.143-0.25,0.143c-0.156,0-0.482,0-0.762,0.188
		c-0.203,0.14-0.437,0.402-0.858,1.4c-0.607,1.467-1.027,2.307-1.868,4.226c-0.996,2.271-1.73,3.971-2.071,4.749
		c-0.407,0.906-0.5,1.154-0.718,1.154c-0.202,0-0.296-0.217-0.594-0.952L93.107,44.381z"/>
	<path class="primarycolor" d="M108.938,47.373c0-2.37,0-2.807-0.031-3.305c-0.029-0.528-0.154-0.775-0.672-0.89
		c-0.122-0.03-0.387-0.044-0.605-0.044c-0.17,0-0.265-0.032-0.265-0.143c0-0.107,0.11-0.138,0.342-0.138
		c0.423,0,0.874,0.014,1.264,0.014c0.406,0.017,0.763,0.032,0.982,0.032c0.497,0,3.599,0,3.896-0.016
		c0.293-0.03,0.542-0.063,0.668-0.094c0.076-0.014,0.171-0.061,0.249-0.061s0.094,0.061,0.094,0.138
		c0,0.111-0.078,0.298-0.124,1.012c-0.017,0.158-0.048,0.843-0.079,1.029c-0.015,0.077-0.047,0.175-0.156,0.175
		s-0.14-0.081-0.14-0.222c0-0.11-0.017-0.374-0.094-0.56c-0.11-0.282-0.265-0.47-1.043-0.562c-0.266-0.031-1.9-0.063-2.213-0.063
		c-0.078,0-0.11,0.046-0.11,0.154v3.943c0,0.107,0.017,0.171,0.11,0.171c0.342,0,2.135,0,2.494-0.029
		c0.374-0.034,0.606-0.079,0.746-0.233c0.109-0.126,0.171-0.204,0.249-0.204c0.062,0,0.109,0.035,0.109,0.125
		c0,0.093-0.062,0.342-0.124,1.138c-0.017,0.311-0.063,0.936-0.063,1.041c0,0.127,0,0.299-0.141,0.299
		c-0.108,0-0.14-0.062-0.14-0.14c-0.014-0.159-0.014-0.358-0.062-0.562c-0.078-0.311-0.295-0.544-0.873-0.608
		c-0.294-0.03-1.839-0.049-2.213-0.049c-0.077,0-0.094,0.065-0.094,0.159v1.229c0,0.531-0.015,1.965,0,2.417
		c0.032,1.073,0.28,1.308,1.872,1.308c0.405,0,1.059,0,1.463-0.188c0.406-0.184,0.593-0.513,0.7-1.151
		c0.032-0.171,0.063-0.235,0.172-0.235c0.126,0,0.126,0.126,0.126,0.283c0,0.356-0.126,1.417-0.202,1.729
		c-0.11,0.404-0.25,0.404-0.843,0.404c-1.167,0-2.024-0.029-2.697-0.045c-0.669-0.031-1.15-0.049-1.618-0.049
		c-0.171,0-0.516,0-0.889,0.018c-0.356,0-0.764,0.031-1.074,0.031c-0.204,0-0.312-0.049-0.312-0.157
		c0-0.078,0.064-0.125,0.249-0.125c0.234,0,0.418-0.03,0.561-0.063c0.312-0.061,0.39-0.408,0.449-0.856
		c0.08-0.654,0.08-1.887,0.08-3.32V47.373z"/>
	<path class="primarycolor" d="M121.903,47.373c0-2.37,0-2.807-0.031-3.305c-0.03-0.528-0.157-0.775-0.673-0.89
		c-0.123-0.03-0.387-0.044-0.605-0.044c-0.173,0-0.267-0.032-0.267-0.143c0-0.107,0.11-0.138,0.345-0.138
		c0.825,0,1.809,0.046,2.135,0.046c0.528,0,1.712-0.046,2.195-0.046c0.982,0,2.025,0.092,2.868,0.668
		c0.435,0.297,1.061,1.092,1.061,2.136c0,1.15-0.484,2.213-2.06,3.491c1.388,1.743,2.464,3.131,3.382,4.096
		c0.872,0.905,1.512,1.011,1.744,1.061c0.173,0.033,0.313,0.047,0.439,0.047c0.124,0,0.185,0.047,0.185,0.125
		c0,0.126-0.109,0.157-0.294,0.157h-1.48c-0.874,0-1.266-0.079-1.667-0.296c-0.671-0.36-1.264-1.094-2.139-2.292
		c-0.622-0.857-1.338-1.916-1.54-2.151c-0.078-0.093-0.172-0.111-0.28-0.111l-1.357-0.029c-0.077,0-0.124,0.029-0.124,0.127v0.216
		c0,1.449,0,2.682,0.078,3.336c0.046,0.448,0.141,0.796,0.606,0.856c0.235,0.032,0.578,0.063,0.765,0.063
		c0.127,0,0.188,0.047,0.188,0.125c0,0.108-0.11,0.157-0.313,0.157c-0.902,0-2.057-0.049-2.291-0.049
		c-0.293,0-1.276,0.049-1.902,0.049c-0.199,0-0.31-0.049-0.31-0.157c0-0.078,0.063-0.125,0.251-0.125c0.231,0,0.418-0.03,0.56-0.063
		c0.313-0.061,0.389-0.408,0.45-0.856c0.081-0.654,0.081-1.887,0.081-3.32V47.373z M123.739,48.602c0,0.172,0.032,0.236,0.141,0.282
		c0.328,0.107,0.797,0.154,1.185,0.154c0.623,0,0.828-0.063,1.108-0.265c0.464-0.345,0.917-1.059,0.917-2.337
		c0-2.212-1.465-2.852-2.383-2.852c-0.39,0-0.671,0.016-0.827,0.064c-0.108,0.029-0.141,0.092-0.141,0.218V48.602z"/>
	<path class="primarycolor" d="M136.046,54.444c-0.249-0.105-0.294-0.188-0.294-0.528c0-0.856,0.061-1.792,0.076-2.041
		c0.014-0.23,0.063-0.406,0.187-0.406c0.139,0,0.155,0.142,0.155,0.266c0,0.203,0.064,0.528,0.14,0.796
		c0.345,1.151,1.263,1.571,2.23,1.571c1.398,0,2.086-0.949,2.086-1.774c0-0.764-0.234-1.483-1.525-2.494l-0.718-0.56
		c-1.713-1.342-2.307-2.432-2.307-3.692c0-1.714,1.436-2.944,3.601-2.944c1.013,0,1.667,0.154,2.071,0.264
		c0.139,0.031,0.22,0.079,0.22,0.186c0,0.207-0.064,0.655-0.064,1.871c0,0.343-0.046,0.467-0.17,0.467
		c-0.112,0-0.154-0.091-0.154-0.279c0-0.142-0.08-0.624-0.407-1.03c-0.234-0.295-0.687-0.763-1.697-0.763
		c-1.152,0-1.854,0.669-1.854,1.605c0,0.717,0.355,1.262,1.649,2.244l0.437,0.325c1.887,1.422,2.557,2.495,2.557,3.974
		c0,0.906-0.342,1.981-1.466,2.714c-0.778,0.495-1.651,0.638-2.476,0.638C137.417,54.852,136.715,54.741,136.046,54.444z"/>
	<path class="primarycolor" d="M148.734,47.373c0-2.37,0-2.807-0.033-3.305c-0.03-0.528-0.185-0.795-0.528-0.87
		c-0.172-0.05-0.374-0.063-0.562-0.063c-0.154,0-0.251-0.032-0.251-0.155c0-0.095,0.126-0.125,0.375-0.125
		c0.593,0,1.573,0.046,2.024,0.046c0.39,0,1.308-0.046,1.902-0.046c0.202,0,0.327,0.03,0.327,0.125c0,0.123-0.093,0.155-0.248,0.155
		s-0.282,0.014-0.471,0.044c-0.421,0.08-0.544,0.344-0.575,0.89c-0.029,0.498-0.029,0.935-0.029,3.305v2.74
		c0,1.513,0,2.744,0.061,3.413c0.045,0.42,0.157,0.703,0.623,0.764c0.219,0.032,0.561,0.063,0.797,0.063
		c0.169,0,0.248,0.047,0.248,0.125c0,0.108-0.125,0.157-0.297,0.157c-1.03,0-2.01-0.049-2.432-0.049
		c-0.357,0-1.338,0.049-1.961,0.049c-0.203,0-0.313-0.049-0.313-0.157c0-0.078,0.064-0.125,0.249-0.125
		c0.232,0,0.419-0.03,0.561-0.063c0.314-0.061,0.404-0.327,0.451-0.779c0.081-0.653,0.081-1.885,0.081-3.397V47.373z"/>
	<path class="primarycolor" d="M160.846,43.725l-2.322,0.064c-0.904,0.03-1.276,0.109-1.51,0.451c-0.158,0.234-0.234,0.421-0.268,0.544
		c-0.03,0.125-0.077,0.188-0.17,0.188c-0.108,0-0.141-0.077-0.141-0.25c0-0.248,0.297-1.668,0.326-1.791
		c0.048-0.201,0.094-0.295,0.188-0.295c0.123,0,0.283,0.154,0.669,0.185c0.454,0.047,1.046,0.079,1.559,0.079h6.172
		c0.497,0,0.842-0.046,1.076-0.079c0.233-0.044,0.359-0.077,0.421-0.077c0.107,0,0.124,0.095,0.124,0.327
		c0,0.328-0.047,1.403-0.047,1.81c-0.015,0.155-0.048,0.248-0.139,0.248c-0.126,0-0.158-0.079-0.172-0.311l-0.016-0.174
		c-0.033-0.404-0.454-0.843-1.84-0.872l-1.966-0.048v6.389c0,1.434,0,2.666,0.079,3.335c0.048,0.434,0.139,0.781,0.604,0.842
		c0.222,0.032,0.564,0.063,0.798,0.063c0.172,0,0.25,0.047,0.25,0.125c0,0.108-0.124,0.157-0.295,0.157
		c-1.028,0-2.011-0.049-2.447-0.049c-0.359,0-1.342,0.049-1.964,0.049c-0.203,0-0.313-0.049-0.313-0.157
		c0-0.078,0.063-0.125,0.251-0.125c0.232,0,0.417-0.03,0.56-0.063c0.312-0.061,0.406-0.408,0.452-0.856
		c0.078-0.654,0.078-1.887,0.078-3.32V43.725z"/>
	<path class="primarycolor" d="M174.892,50.596c0-0.841-0.153-1.184-0.358-1.635c-0.106-0.25-2.195-3.676-2.741-4.486
		c-0.388-0.576-0.775-0.968-1.074-1.14c-0.199-0.107-0.465-0.2-0.652-0.2c-0.124,0-0.233-0.032-0.233-0.143
		c0-0.092,0.109-0.138,0.295-0.138c0.28,0,1.447,0.046,1.963,0.046c0.328,0,0.966-0.046,1.667-0.046
		c0.158,0,0.234,0.046,0.234,0.138c0,0.094-0.109,0.11-0.344,0.174c-0.14,0.032-0.216,0.156-0.216,0.279
		c0,0.125,0.076,0.31,0.186,0.53c0.216,0.466,2.396,4.223,2.65,4.66c0.154-0.378,2.118-3.804,2.336-4.285
		c0.155-0.344,0.219-0.609,0.219-0.811c0-0.156-0.063-0.329-0.331-0.392c-0.14-0.029-0.279-0.063-0.279-0.156
		c0-0.107,0.08-0.138,0.266-0.138c0.513,0,1.015,0.046,1.465,0.046c0.341,0,1.371-0.046,1.665-0.046c0.175,0,0.281,0.03,0.281,0.125
		c0,0.106-0.124,0.155-0.295,0.155c-0.155,0-0.451,0.063-0.687,0.188c-0.325,0.153-0.497,0.341-0.841,0.759
		c-0.512,0.627-2.695,4.286-2.976,4.957c-0.234,0.563-0.234,1.045-0.234,1.558v1.279c0,0.249,0,0.904,0.049,1.559
		c0.029,0.448,0.172,0.796,0.637,0.856c0.221,0.032,0.562,0.063,0.78,0.063c0.169,0,0.248,0.047,0.248,0.125
		c0,0.108-0.124,0.157-0.323,0.157c-0.984,0-1.966-0.049-2.388-0.049c-0.387,0-1.369,0.049-1.944,0.049
		c-0.22,0-0.346-0.031-0.346-0.157c0-0.078,0.078-0.125,0.251-0.125c0.219,0,0.402-0.03,0.544-0.063
		c0.313-0.061,0.45-0.408,0.484-0.856c0.043-0.654,0.043-1.31,0.043-1.559V50.596z"/>
	<g>
		<rect x="15.334" y="51.839" class="primarycolor" width="0.47" height="2.81"/>
		<path class="primarycolor" d="M19.135,53.049c0.161-0.13,0.245-0.296,0.245-0.482c0-0.471-0.475-0.775-1.208-0.775
			c-0.734,0-1.208,0.305-1.208,0.775c0,0.187,0.083,0.353,0.243,0.482c-0.286,0.155-0.431,0.392-0.431,0.698
			c0,0.582,0.548,0.959,1.396,0.959c0.844,0,1.39-0.379,1.39-0.962C19.562,53.438,19.422,53.208,19.135,53.049z M18.172,53.3
			c0.654,0,0.909,0.127,0.909,0.447c0,0.315-0.357,0.516-0.909,0.516c-0.555,0-0.915-0.2-0.915-0.516
			C17.257,53.43,17.522,53.3,18.172,53.3z M18.172,52.859c-0.453,0-0.723-0.111-0.723-0.297c0-0.202,0.284-0.332,0.723-0.332
			c0.5,0,0.726,0.165,0.726,0.321C18.898,52.746,18.634,52.859,18.172,52.859z"/>
		<path class="primarycolor" d="M22.907,51.849h-0.428l-2.17,1.726v0.414h2.133v0.645h0.465v-0.645h0.446v-0.444h-0.446V51.849z
			 M21.07,53.544l1.373-1.09v1.09H21.07z"/>
		<path class="primarycolor" d="M24.791,54.194c-0.002-0.026-0.004-0.053-0.004-0.076c0-0.363,0.218-0.455,0.85-0.668l0.126-0.043
			c0.586-0.197,1.01-0.338,1.01-0.813c0-0.402-0.383-0.808-1.113-0.808c-0.445,0-0.87,0.157-1.294,0.484l-0.047,0.035l0.277,0.361
			l0.047-0.032c0.393-0.277,0.726-0.405,1.049-0.405c0.395,0,0.602,0.18,0.602,0.357c0,0.17-0.227,0.253-0.743,0.425
			c-0.122,0.042-0.259,0.087-0.409,0.14c-0.609,0.215-0.824,0.499-0.824,1.091c0,0.019,0.001,0.063,0.002,0.126l0.009,0.264h2.497
			v-0.438H24.791z"/>
	</g>
	<g>
		<polygon class="primarycolor" points="4.871,43.395 4.375,42.363 4.031,42.363 4.773,43.903 4.97,43.903 5.714,42.363 5.368,42.363 		
			"/>
		<polygon class="primarycolor" points="6.268,43.235 6.828,43.235 6.828,42.935 6.268,42.935 6.268,42.663 7.195,42.663 7.195,42.363 
			5.955,42.363 5.955,43.903 7.252,43.903 7.252,43.604 6.268,43.604 		"/>
		<path class="primarycolor" d="M9.006,42.823c0-0.283-0.194-0.46-0.508-0.46H7.627v1.54h0.312v-0.612h0.433l0.352,0.612h0.352L8.71,43.26
			C8.891,43.191,9.006,43.025,9.006,42.823z M7.939,42.663h0.557c0.127,0,0.19,0.056,0.19,0.164c0,0.073-0.022,0.159-0.198,0.159
			h-0.55V42.663z"/>
		<rect x="9.416" y="42.354" class="primarycolor" width="0.316" height="1.554"/>
		<polygon class="primarycolor" points="11.588,42.363 10.096,42.363 10.096,42.663 10.686,42.663 10.686,43.903 10.999,43.903 
			10.999,42.663 11.588,42.663 		"/>
		<path class="primarycolor" d="M14.36,42.935c-0.074-0.007-0.143-0.013-0.207-0.017c-0.149-0.007-0.266-0.015-0.333-0.066
			c-0.034-0.026-0.042-0.048-0.042-0.071c0-0.07,0.11-0.146,0.294-0.146c0.187,0,0.362,0.066,0.522,0.195l0.058,0.048l0.183-0.264
			l-0.055-0.039c-0.216-0.159-0.462-0.241-0.712-0.241c-0.354,0-0.611,0.189-0.611,0.456c0,0.152,0.084,0.274,0.239,0.35
			c0.137,0.063,0.303,0.075,0.495,0.088l0.106,0.008c0.165,0.014,0.263,0.08,0.263,0.179c0,0.132-0.151,0.226-0.368,0.226
			c-0.192,0-0.399-0.078-0.583-0.222l-0.059-0.047l-0.18,0.267l0.052,0.039c0.227,0.176,0.479,0.261,0.773,0.261
			c0.471,0,0.688-0.267,0.688-0.518C14.885,43.162,14.678,42.972,14.36,42.935z"/>
		<path class="primarycolor" d="M12.243,42.361l-0.754,1.538h0.343l0.161-0.335l0.73-0.002l0.17,0.337h0.345l-0.763-1.538H12.243z
			 M12.577,43.263h-0.434l0.216-0.438L12.577,43.263z"/>
	</g>
	<g>
		<path class="primarycolor" d="M17.534,45.935c0,0.252-0.049,0.297-0.333,0.297c-0.283,0-0.333-0.045-0.333-0.297v-0.977h-0.313v1.023
			c0,0.382,0.199,0.552,0.646,0.552c0.448,0,0.646-0.17,0.646-0.552v-1.023h-0.313V45.935z"/>
		<polygon class="primarycolor" points="19.323,45.889 18.515,44.958 18.323,44.958 18.323,46.498 18.636,46.498 18.636,45.565 
			19.446,46.498 19.637,46.498 19.637,44.958 19.323,44.958 		"/>
		<rect x="20.146" y="44.949" class="primarycolor" width="0.315" height="1.553"/>
		<polygon class="primarycolor" points="22.285,44.958 20.793,44.958 20.793,45.26 21.382,45.26 21.382,46.498 21.696,46.498 
			21.696,45.26 22.285,45.26 		"/>
		<path class="primarycolor" d="M25.023,45.529c-0.074-0.007-0.145-0.012-0.208-0.016c-0.148-0.01-0.264-0.015-0.334-0.068
			c-0.033-0.025-0.04-0.046-0.04-0.069c0-0.07,0.112-0.146,0.294-0.146c0.186,0,0.361,0.066,0.521,0.193l0.059,0.047l0.183-0.263
			l-0.055-0.04c-0.216-0.157-0.462-0.241-0.712-0.241c-0.36,0-0.611,0.188-0.611,0.457c0,0.151,0.085,0.277,0.241,0.352
			c0.138,0.062,0.304,0.073,0.496,0.086l0.104,0.008c0.166,0.014,0.263,0.081,0.263,0.181c0,0.132-0.15,0.223-0.367,0.223
			c-0.192,0-0.399-0.077-0.583-0.222l-0.058-0.044l-0.179,0.266l0.05,0.04c0.228,0.176,0.48,0.261,0.773,0.261
			c0.471,0,0.686-0.268,0.686-0.519C25.546,45.756,25.34,45.565,25.023,45.529z"/>
		<path class="primarycolor" d="M22.94,44.957l-0.755,1.539h0.343l0.161-0.336l0.729-0.002l0.169,0.338h0.344l-0.762-1.539H22.94z
			 M23.274,45.856h-0.436l0.217-0.437L23.274,45.856z"/>
	</g>
	<path class="primarycolor" d="M28.288,43.354c-0.101,0.188-0.249,0.284-0.443,0.284c-0.276,0-0.475-0.213-0.475-0.501
		c0-0.291,0.199-0.502,0.475-0.502c0.179,0,0.332,0.086,0.406,0.23l0.037,0.07l0.265-0.187l-0.035-0.058
		c-0.146-0.228-0.392-0.357-0.673-0.357c-0.46,0-0.794,0.337-0.794,0.803s0.333,0.801,0.794,0.801c0.307,0,0.564-0.15,0.706-0.415
		l0.028-0.054l-0.253-0.187L28.288,43.354z"/>
	<path class="primarycolor" d="M32.087,42.823c0-0.283-0.195-0.46-0.508-0.46h-0.873v1.54h0.314v-0.612h0.434l0.35,0.612h0.352
		l-0.365-0.644C31.972,43.191,32.087,43.025,32.087,42.823z M31.021,42.663h0.556c0.126,0,0.19,0.056,0.19,0.164
		c0,0.073-0.022,0.159-0.198,0.159h-0.549V42.663z"/>
	<rect x="32.53" y="42.354" class="primarycolor" width="0.316" height="1.554"/>
	<polygon class="primarycolor" points="34.67,42.363 33.178,42.363 33.178,42.663 33.766,42.663 33.766,43.903 34.079,43.903 
		34.079,42.663 34.67,42.663 	"/>
	<path class="primarycolor" d="M37.375,42.935c-0.075-0.007-0.144-0.013-0.208-0.017c-0.147-0.007-0.264-0.015-0.333-0.066
		c-0.034-0.026-0.042-0.048-0.042-0.071c0-0.069,0.113-0.146,0.294-0.146c0.188,0,0.362,0.066,0.523,0.195l0.058,0.048l0.183-0.264
		l-0.056-0.039c-0.215-0.159-0.462-0.241-0.71-0.241c-0.354,0-0.613,0.189-0.613,0.456c0,0.152,0.085,0.274,0.241,0.35
		c0.137,0.063,0.303,0.075,0.493,0.088l0.106,0.008c0.166,0.014,0.264,0.08,0.264,0.179c0,0.132-0.151,0.226-0.366,0.226
		c-0.193,0-0.401-0.078-0.584-0.222l-0.059-0.047l-0.179,0.267l0.051,0.039c0.226,0.176,0.479,0.261,0.771,0.261
		c0.474,0,0.688-0.267,0.688-0.518C37.899,43.162,37.693,42.972,37.375,42.935z"/>
	<path class="primarycolor" d="M29.463,42.363l-0.754,1.54h0.343l0.162-0.336l0.729-0.001l0.171,0.337h0.343l-0.762-1.54H29.463z
		 M29.797,43.267l-0.435-0.001l0.217-0.438L29.797,43.267z"/>
	<path class="primarycolor" d="M35.291,42.364l-0.754,1.539h0.342l0.162-0.335l0.729-0.001l0.17,0.336h0.344l-0.762-1.539H35.291z
		 M35.624,43.267h-0.436l0.217-0.437L35.624,43.267z"/>
	<path class="primarycolor" d="M20.999,42.801l-10.572-6.732c-0.06-0.036-0.628-0.423-0.628-1.999c0-1.57,0.567-2.152,0.591-2.177
		l0.073-0.048l6.833-2.895l0.181,0.427l-6.783,2.873c-0.091,0.12-0.433,0.647-0.43,1.82c0,1.299,0.412,1.606,0.416,1.609
		l10.32,6.572l10.183-6.488c-0.123-0.274-0.291-0.825-0.298-1.791c-0.006-0.942,0.157-1.507,0.283-1.801l-6.562-2.777l0.181-0.427
		l7.063,2.99l-0.173,0.237c-0.001,0.001-0.337,0.496-0.328,1.774c0.007,1.277,0.324,1.733,0.327,1.738l0.143,0.198l-0.205,0.135
		L20.999,42.801z"/>
	<polygon class="primarycolor" points="20.999,38.862 10.471,32.272 10.717,31.879 20.999,38.318 31.338,31.869 31.583,32.262 	"/>
	<polygon class="primarycolor" points="21.001,40.83 9.935,34.037 10.177,33.642 20.997,40.284 30.984,33.997 31.23,34.389 	"/>
	<path class="primarycolor" d="M23.11,28.047l-0.41-0.216c0.092-0.173,0.111-0.324,0.065-0.488c-0.134-0.479-0.46-0.896-0.998-1.271
		c-0.499-0.348-0.742-0.743-0.86-1.039c-0.082,0.123-0.136,0.271-0.076,0.413c0.121,0.282,0.299,0.472,0.487,0.675
		c0.102,0.108,0.202,0.214,0.289,0.332c0.194,0.252,0.227,0.583,0.085,0.862c-0.133,0.263-0.394,0.421-0.681,0.417
		c-0.259-0.005-0.486-0.103-0.655-0.284c-0.247-0.264-0.329-0.647-0.355-0.915c-0.289,0.095-0.724,0.31-0.761,0.754
		c-0.015,0.173,0.025,0.35,0.124,0.554l-0.416,0.204c-0.136-0.278-0.192-0.539-0.17-0.797c0.086-1.031,1.357-1.231,1.411-1.239
		l0.278-0.041l-0.013,0.281c-0.008,0.166,0.021,0.649,0.24,0.884c0.086,0.089,0.19,0.134,0.325,0.135
		c0.155,0.006,0.234-0.111,0.26-0.162c0.061-0.122,0.047-0.262-0.039-0.374c-0.08-0.105-0.17-0.199-0.259-0.295
		c-0.198-0.212-0.423-0.452-0.575-0.809c-0.229-0.533,0.195-1.034,0.482-1.246l0.35-0.26l0.019,0.437
		c0.001,0.023,0.045,0.623,0.776,1.134c0.629,0.438,1.014,0.937,1.178,1.523C23.289,27.499,23.256,27.77,23.11,28.047z"/>
	<path class="primarycolor" d="M21.02,34.982l-0.133-0.094c-0.038-0.027-0.906-0.639-1.813-1.565c-0.026-0.029-0.537-0.578-0.865-0.99
		c-0.747-0.977-1.127-1.892-1.133-2.719c-0.007-1.095,1.025-1.878,1.956-1.895l0.053-0.002c1.051,0,1.646,0.606,1.935,1.028
		c0.284-0.422,0.876-1.029,1.934-1.029h0.054c0.931,0.019,1.961,0.802,1.953,1.897c-0.016,2.576-3.652,5.167-3.807,5.275
		L21.02,34.982z M19.085,28.182l-0.044,0.001c-0.712,0.011-1.506,0.627-1.5,1.43c0.003,0.724,0.352,1.542,1.034,2.436
		c0.313,0.394,0.83,0.948,0.835,0.953c0.67,0.684,1.334,1.205,1.61,1.411c0.651-0.492,3.464-2.725,3.478-4.803
		c0.006-0.802-0.786-1.416-1.498-1.43h-0.046c-1.261,0-1.699,1.081-1.717,1.127l-0.221,0.564l-0.213-0.569
		C20.787,29.259,20.362,28.182,19.085,28.182z"/>
	<path class="primarycolor" d="M26.617,29.369l-1.382-0.822l0.23-1.671l2.502-1.118l-0.278,1.658l1.506,0.8L26.617,29.369z M25.735,28.306
		l0.913,0.541l1.494-0.667l-0.963-0.512l0.188-1.133l-1.478,0.66L25.735,28.306z"/>
	
		<rect x="24.764" y="28.13" transform="matrix(0.408 0.913 -0.913 0.408 40.9487 -5.8631)" class="primarycolor" width="0.463" height="1.027"/>
	
		<rect x="17.301" y="31.475" transform="matrix(0.4029 0.9152 -0.9152 0.4029 39.8111 3.096)" class="primarycolor" width="0.464" height="1.171"/>
	<path class="primarycolor" d="M14.62,33.376l2.072-2.331l0.981,2.195L14.62,33.376z M16.562,31.89l-0.866,0.974l1.277-0.055L16.562,31.89
		z"/>
	<path class="primarycolor" d="M4.152,45.26c-0.069,0-0.349-0.017-0.6-0.271c-0.287-0.284-0.269-0.603-0.266-0.639l0-3.329h0.463v3.349
		c0,0.021-0.004,0.16,0.13,0.293c0.132,0.132,0.271,0.135,0.28,0.135h0.001h11.219v0.462H4.167C4.165,45.26,4.161,45.26,4.152,45.26
		z"/>
	<polygon class="primarycolor" points="3.434,41.218 1.559,40.539 2.454,38.853 1,36.421 9.021,38.98 9.017,41.171 8.554,41.171 
		8.557,39.318 2.027,37.235 2.984,38.839 2.219,40.286 3.591,40.783 	"/>
	<path class="primarycolor" d="M17.05,43.768l-0.002-2.31L3.944,41.462c-0.343-0.032-0.683-0.229-0.667-0.592
		c0.017-0.427,0.519-0.581,0.575-0.597l4.834-1.337l0.123,0.446l-4.833,1.335c-0.094,0.029-0.236,0.11-0.238,0.171
		c-0.002,0.062,0.173,0.105,0.225,0.109l13.546-0.004l0.003,2.773H17.05z"/>
	<polygon class="primarycolor" points="38.559,41.216 38.4,40.78 39.773,40.282 39.007,38.836 39.966,37.233 33.433,39.318 33.435,41.189 
		32.971,41.189 32.97,38.98 40.994,36.419 39.539,38.851 40.433,40.535 	"/>
	<polygon class="primarycolor" points="20.701,18.466 18.109,18.466 18.109,18.003 20.238,18.003 20.238,15.797 20.701,15.797 	"/>
	<polygon class="primarycolor" points="20.701,23.349 20.238,23.349 20.238,19.605 18.099,19.605 18.099,19.142 20.701,19.142 	"/>
	<polygon class="primarycolor" points="23.948,18.459 21.357,18.459 21.357,15.791 21.821,15.791 21.821,17.997 23.948,17.997 	"/>
	<polygon class="primarycolor" points="21.821,23.343 21.357,23.343 21.357,19.134 23.959,19.134 23.959,19.598 21.821,19.598 	"/>
	
		<rect x="17.777" y="16.409" transform="matrix(0.7072 0.707 -0.707 0.7072 17.2923 -8.4748)" class="primarycolor" width="2.202" height="0.464"/>
	<path class="primarycolor" d="M37.832,45.257c-0.01,0-0.015,0-0.019,0h-11.14v-0.464h11.151c0.01-0.001,0.154,0,0.289-0.134
		s0.131-0.272,0.131-0.277V40.97h0.463v3.397c0.003,0.016,0.02,0.335-0.266,0.622C38.19,45.238,37.91,45.257,37.832,45.257z"/>
	<path class="primarycolor" d="M16.033,44.075c-0.229,0-0.634-0.106-0.765-0.509c-0.125-0.383,0.104-0.702,0.26-0.83l1.516-1.602
		l0.336,0.318l-1.538,1.62c-0.025,0.024-0.191,0.173-0.134,0.348c0.062,0.191,0.327,0.188,0.341,0.19l9.935-0.004
		c0.011,0.002,0.283,0.002,0.346-0.188c0.059-0.181-0.113-0.328-0.115-0.329l-1.636-1.673l0.332-0.323l1.617,1.656
		c0.137,0.109,0.367,0.429,0.242,0.812c-0.136,0.416-0.555,0.515-0.793,0.509l-9.922,0.004
		C16.048,44.075,16.041,44.075,16.033,44.075z"/>
	<path class="primarycolor" d="M24.945,43.81h-0.464v-2.818l13.566,0.003c0.041-0.007,0.207-0.049,0.204-0.108
		c-0.003-0.063-0.157-0.146-0.239-0.17l-4.771-1.317l0.124-0.446l4.771,1.318c0.058,0.016,0.561,0.169,0.578,0.597
		c0.015,0.361-0.325,0.558-0.646,0.588H24.945V43.81z"/>
	<path class="primarycolor" d="M21.142,47.895l-5.02-0.002c-0.029,0-0.344,0.004-0.614-0.255c-0.296-0.283-0.273-0.61-0.27-0.647v-3.623
		h0.462v3.646c0,0.023-0.005,0.16,0.129,0.29c0.129,0.124,0.281,0.126,0.288,0.126l0,0l5.023,0.003l4.783-0.002
		c0.011,0.004,0.155,0,0.288-0.134c0.135-0.135,0.132-0.273,0.131-0.279v-3.651h0.463v3.638c0.003,0.016,0.021,0.333-0.266,0.62
		c-0.279,0.279-0.594,0.272-0.627,0.269L21.142,47.895z"/>
	
		<rect x="22.047" y="20.682" transform="matrix(0.7069 0.7073 -0.7073 0.7069 21.5779 -10.2433)" class="primarycolor" width="2.201" height="0.464"/>
	
		<rect x="18.661" y="19.787" transform="matrix(0.7055 0.7087 -0.7087 0.7055 20.3668 -7.2373)" class="primarycolor" width="0.463" height="2.202"/>
	
		<rect x="22.926" y="15.541" transform="matrix(0.7087 0.7055 -0.7055 0.7087 18.487 -11.49)" class="primarycolor" width="0.463" height="2.201"/>
	<path class="primarycolor" d="M32.669,22.596c-0.256,0-1.609-0.047-3.03-0.967c-1.573-1.018-2.087-2.279-2.109-2.333l-0.137-0.342
		l0.369,0.025c0.07,0.006,1.732,0.136,3.239,1.076c1.291,0.807,1.903,2.157,1.928,2.214l0.139,0.31L32.669,22.596z M28.162,19.5
		c0.258,0.422,0.791,1.132,1.729,1.74c0.985,0.637,1.924,0.821,2.431,0.872c-0.255-0.43-0.775-1.17-1.566-1.664
		C29.793,19.846,28.735,19.598,28.162,19.5z"/>
	<path class="primarycolor" d="M38.389,37.58l-0.46-0.054c0.055-0.46,0.089-0.897,0.104-1.105c-0.261-0.191-0.917-0.732-1.524-1.679
		c-0.769-1.204-0.813-2.835-0.814-2.904l-0.009-0.438l0.367,0.239c0.036,0.022,0.886,0.58,1.63,1.526
		c0.066,0.085,0.132,0.175,0.201,0.273c-0.03-0.283-0.064-0.568-0.107-0.853c-0.097-0.658-0.294-1.467-0.371-1.774
		c-0.308-0.099-1.103-0.406-1.975-1.115c-1.098-0.891-1.824-2.391-1.854-2.454l-0.2-0.419l0.455,0.091
		c0.048,0.01,1.207,0.247,2.215,0.916c0.049,0.032,0.099,0.066,0.148,0.101c-0.087-0.176-0.179-0.353-0.274-0.531
		c-0.312-0.588-0.77-1.283-0.945-1.545c-0.325,0.011-1.174-0.013-2.234-0.387c-1.345-0.476-2.385-1.735-2.43-1.79l-0.276-0.338
		l0.436-0.039c0.042-0.002,1.055-0.086,2.224,0.202c0.584,0.145,1.167,0.387,1.596,0.587c-0.196-0.42-0.404-0.942-0.535-1.468
		c-0.289-1.169-0.206-2.181-0.201-2.224l0.037-0.438l0.339,0.276c0.054,0.044,1.314,1.085,1.791,2.43
		c0.403,1.139,0.397,2.111,0.384,2.398c0.172,0.257,0.796,1.199,1.149,1.863c0.039,0.071,0.075,0.142,0.112,0.216
		c0.145-1.094,0.516-1.913,0.533-1.949l0.182-0.399l0.228,0.375c0.036,0.06,0.873,1.462,0.868,2.889
		c-0.003,1.209-0.335,2.124-0.443,2.388c0.076,0.3,0.347,1.397,0.456,2.141c0.01,0.067,0.019,0.134,0.028,0.202
		c0.468-0.917,1.024-1.517,1.05-1.546l0.299-0.32l0.097,0.427c0.015,0.067,0.369,1.662-0.083,3.015
		c-0.386,1.146-0.987,1.908-1.171,2.128c-0.012,0.133-0.032,0.42-0.064,0.762l-0.461-0.043c0.043-0.466,0.068-0.829,0.068-0.829
		l0.004-0.08l0.056-0.062c0.007-0.008,0.713-0.784,1.129-2.022c0.268-0.799,0.218-1.72,0.15-2.272
		c-0.233,0.312-0.553,0.79-0.81,1.364c-0.066,0.146-0.121,0.308-0.174,0.458l-0.362,1.045l-0.096-1.075
		c-0.032-0.413-0.07-0.756-0.119-1.084c-0.121-0.826-0.462-2.156-0.465-2.169l-0.021-0.078l0.033-0.074
		c0.004-0.011,0.431-0.968,0.436-2.276c0.002-0.84-0.333-1.7-0.571-2.203c-0.124,0.368-0.278,0.922-0.341,1.548
		c-0.022,0.22-0.023,0.459-0.022,0.667l0.003,1.102l-0.446-1.006c-0.175-0.391-0.331-0.716-0.491-1.02
		c-0.394-0.737-1.161-1.874-1.168-1.887l-0.046-0.067l0.006-0.082c0.001-0.009,0.081-1.057-0.355-2.289
		c-0.279-0.794-0.885-1.491-1.278-1.885c0.007,0.39,0.049,0.963,0.202,1.575c0.195,0.797,0.59,1.592,0.809,1.993l0.378,0.699
		L34.7,24.816c-0.113-0.063-1.131-0.621-2.115-0.864c-0.611-0.151-1.185-0.191-1.574-0.199c0.395,0.393,1.091,0.998,1.883,1.278
		c1.239,0.438,2.169,0.356,2.179,0.354l0.136-0.011l0.077,0.111c0.025,0.038,0.64,0.938,1.044,1.696
		c0.272,0.51,0.514,1.01,0.718,1.486l0.425,0.992l-0.796-0.73c-0.33-0.304-0.619-0.537-0.885-0.712
		c-0.54-0.357-1.136-0.584-1.546-0.713c0.292,0.501,0.819,1.299,1.476,1.833c1.02,0.827,1.924,1.064,1.933,1.065l0.131,0.034
		l0.035,0.132c0.012,0.045,0.289,1.098,0.414,1.949c0.093,0.634,0.156,1.262,0.186,1.863l0.053,1.02l-0.487-0.897
		c-0.245-0.45-0.457-0.784-0.668-1.051c-0.39-0.497-0.817-0.882-1.118-1.126c0.068,0.552,0.245,1.458,0.699,2.165
		c0.704,1.102,1.492,1.616,1.5,1.624l0.115,0.072l-0.009,0.136C38.504,36.325,38.466,36.931,38.389,37.58z"/>
	<path class="primarycolor" d="M9.387,22.578l-0.397-0.017l0.137-0.309c0.026-0.058,0.639-1.409,1.93-2.215
		c1.506-0.94,3.167-1.071,3.239-1.075l0.367-0.027l-0.136,0.344c-0.021,0.053-0.535,1.313-2.108,2.332
		C10.996,22.532,9.644,22.578,9.387,22.578z M13.898,19.483c-0.575,0.098-1.633,0.346-2.598,0.947
		c-0.793,0.496-1.312,1.235-1.566,1.666c0.506-0.053,1.447-0.235,2.432-0.873C13.109,20.611,13.641,19.905,13.898,19.483z"/>
	<path class="primarycolor" d="M3.674,37.61c-0.082-0.668-0.122-1.299-0.122-1.307l-0.009-0.137l0.114-0.07
		c0.009-0.007,0.797-0.521,1.5-1.622c0.453-0.708,0.629-1.613,0.699-2.166c-0.301,0.245-0.729,0.631-1.116,1.125
		c-0.211,0.267-0.431,0.612-0.669,1.053l-0.486,0.892l0.051-1.016c0.031-0.6,0.093-1.228,0.187-1.864
		c0.125-0.851,0.402-1.904,0.414-1.948l0.034-0.13l0.132-0.035c0.009-0.002,0.919-0.245,1.934-1.066
		c0.656-0.533,1.192-1.332,1.491-1.833C7.41,27.615,6.804,27.842,6.266,28.2c-0.265,0.175-0.553,0.408-0.887,0.711l-0.795,0.729
		l0.426-0.99c0.203-0.473,0.443-0.972,0.717-1.485c0.405-0.759,1.019-1.658,1.043-1.696l0.077-0.112l0.136,0.013
		c0.011,0,0.948,0.079,2.179-0.356c0.794-0.281,1.492-0.886,1.884-1.278c-0.389,0.007-0.963,0.049-1.574,0.2
		c-0.958,0.236-1.931,0.761-2.116,0.865l-0.695,0.386l0.379-0.699c0.218-0.402,0.614-1.197,0.812-1.994
		C8,21.882,8.042,21.308,8.05,20.92c-0.393,0.394-0.998,1.09-1.277,1.883c-0.436,1.232-0.357,2.279-0.356,2.289l0.007,0.082
		l-0.046,0.067c-0.007,0.011-0.776,1.149-1.168,1.887c-0.2,0.375-0.367,0.743-0.492,1.021l-0.447,1l0.003-1.095
		c0.001-0.231,0-0.455-0.022-0.667c-0.063-0.629-0.217-1.182-0.34-1.549c-0.238,0.502-0.574,1.363-0.572,2.203
		c0.005,1.315,0.431,2.267,0.436,2.276l0.034,0.074L3.79,30.47c-0.004,0.014-0.345,1.343-0.466,2.169
		c-0.063,0.426-0.098,0.823-0.119,1.083l-0.087,1.1l-0.362-1.042c-0.062-0.178-0.118-0.339-0.183-0.485
		c-0.257-0.575-0.577-1.052-0.811-1.363c-0.066,0.553-0.115,1.474,0.151,2.272c0.417,1.246,1.122,2.015,1.128,2.022l0.055,0.062
		l0.005,0.081c0,0.002,0.027,0.395,0.075,0.888l-0.462,0.044c-0.035-0.368-0.058-0.681-0.069-0.821
		c-0.187-0.219-0.787-0.982-1.172-2.128c-0.453-1.353-0.098-2.948-0.082-3.015l0.097-0.427l0.299,0.321
		c0.025,0.028,0.581,0.629,1.051,1.546c0.008-0.067,0.018-0.134,0.028-0.203c0.108-0.744,0.38-1.841,0.455-2.141
		c-0.107-0.265-0.438-1.179-0.442-2.388c-0.005-1.428,0.833-2.829,0.868-2.89l0.227-0.374l0.183,0.398
		c0.017,0.037,0.386,0.855,0.532,1.95c0.038-0.072,0.074-0.144,0.113-0.217c0.353-0.665,0.979-1.607,1.15-1.863
		c-0.013-0.286-0.016-1.26,0.384-2.398c0.475-1.345,1.735-2.385,1.789-2.428l0.34-0.278l0.038,0.436
		c0.004,0.043,0.088,1.055-0.201,2.225c-0.13,0.526-0.339,1.047-0.535,1.468c0.43-0.201,1.013-0.443,1.595-0.586
		c1.17-0.289,2.182-0.205,2.225-0.202l0.437,0.038l-0.277,0.339c-0.043,0.054-1.083,1.313-2.428,1.789
		c-1.061,0.375-1.913,0.397-2.235,0.388c-0.176,0.263-0.633,0.958-0.946,1.544c-0.095,0.179-0.186,0.357-0.274,0.533
		c0.05-0.036,0.099-0.069,0.148-0.104c1.009-0.667,2.19-0.906,2.24-0.916l0.46-0.091l-0.209,0.421
		c-0.03,0.063-0.778,1.563-1.874,2.454c-0.873,0.708-1.667,1.016-1.975,1.115C4.575,31.1,4.378,31.91,4.281,32.568
		c-0.043,0.287-0.078,0.572-0.108,0.853c0.068-0.097,0.136-0.189,0.201-0.274c0.745-0.946,1.594-1.502,1.63-1.526l0.367-0.238
		l-0.009,0.438c-0.002,0.069-0.046,1.701-0.814,2.903c-0.608,0.948-1.265,1.489-1.525,1.68c0.016,0.217,0.052,0.675,0.111,1.15
		L3.674,37.61z"/>
	<path class="primarycolor" d="M14.583,52.169l-0.368-0.026c-0.069-0.007-1.732-0.136-3.237-1.078c-1.291-0.807-1.902-2.159-1.928-2.217
		l-0.138-0.309l0.398-0.017c0.256,0,1.608,0.046,3.032,0.97c1.572,1.021,2.086,2.279,2.106,2.333L14.583,52.169z M9.659,49.006
		c0.255,0.432,0.774,1.172,1.564,1.665c0.962,0.602,2.02,0.853,2.595,0.95c-0.258-0.423-0.791-1.133-1.729-1.741
		C11.105,49.242,10.166,49.058,9.659,49.006z"/>
	<path class="primarycolor" d="M8.861,51.563l-0.345-0.271c-0.054-0.044-1.334-1.058-1.835-2.395c-0.425-1.133-0.438-2.107-0.43-2.392
		c-0.148-0.216-0.638-0.929-0.922-1.366l0.388-0.252c0.337,0.516,0.959,1.418,0.959,1.418l0.045,0.065l-0.004,0.081
		c-0.001,0.01-0.061,1.058,0.398,2.282c0.294,0.79,0.914,1.475,1.314,1.86c-0.015-0.388-0.067-0.962-0.231-1.571
		c-0.211-0.795-0.62-1.579-0.847-1.977l-0.392-0.69l0.702,0.371c0.115,0.063,1.146,0.6,2.133,0.823
		c0.612,0.14,1.186,0.171,1.574,0.171c0,0,0,0,0,0c-0.4-0.385-1.108-0.979-1.906-1.242c-1.247-0.413-2.176-0.315-2.186-0.314
		L7.142,46.18l-0.08-0.112c0,0-0.414-0.594-0.619-0.901l0.385-0.257c0.149,0.223,0.411,0.602,0.54,0.785
		c0.324-0.014,1.174-0.01,2.241,0.345c1.354,0.449,2.418,1.69,2.462,1.744l0.283,0.332l-0.436,0.046
		c-0.042,0.007-1.054,0.108-2.227-0.158c-0.587-0.132-1.174-0.363-1.606-0.558c0.202,0.418,0.421,0.934,0.562,1.46
		c0.31,1.162,0.246,2.176,0.243,2.221L8.861,51.563z"/>
	<path class="primarycolor" d="M27.485,52.146l0.136-0.342c0.021-0.054,0.533-1.315,2.105-2.336c1.422-0.923,2.774-0.969,3.032-0.969
		l0.396,0.016l-0.136,0.31c-0.026,0.058-0.639,1.41-1.929,2.217c-1.506,0.942-3.167,1.073-3.238,1.079L27.485,52.146z
		 M32.409,48.984c-0.527,0.055-1.456,0.241-2.429,0.873c-0.94,0.609-1.472,1.318-1.729,1.74c0.574-0.098,1.63-0.347,2.593-0.949
		C31.632,50.155,32.152,49.416,32.409,48.984z"/>
	<path class="primarycolor" d="M33.208,51.538l-0.03-0.437c-0.004-0.043-0.068-1.056,0.243-2.22c0.141-0.524,0.36-1.041,0.562-1.457
		c-0.431,0.191-1.02,0.422-1.606,0.556c-1.174,0.267-2.185,0.163-2.228,0.158l-0.436-0.046l0.283-0.334
		c0.044-0.052,1.108-1.294,2.461-1.742c1.068-0.354,1.917-0.36,2.242-0.344c0.128-0.186,0.39-0.563,0.54-0.787l0.384,0.257
		c-0.205,0.306-0.619,0.901-0.619,0.901l-0.079,0.114l-0.137-0.016c-0.01-0.001-0.946-0.099-2.185,0.313
		c-0.797,0.266-1.506,0.858-1.908,1.242h0.001c0.388,0,0.962-0.03,1.575-0.171c0.988-0.224,2.018-0.762,2.132-0.821l0.702-0.374
		l-0.391,0.691c-0.225,0.398-0.636,1.186-0.848,1.978c-0.163,0.606-0.214,1.18-0.229,1.568c0.4-0.386,1.018-1.071,1.313-1.858
		c0.46-1.231,0.399-2.272,0.399-2.282l-0.006-0.081l0.046-0.065c0.001,0,0.622-0.901,0.958-1.419l0.39,0.254
		c-0.287,0.438-0.775,1.15-0.924,1.365c0.008,0.284-0.007,1.259-0.43,2.391c-0.5,1.338-1.78,2.353-1.835,2.396L33.208,51.538z"/>
</g>
</svg>
