<?xml version="1.0" encoding="iso-8859-1"?>
<svg version="1.2" baseProfile="tiny" class="logocolor vu" xmlns="http://www.w3.org/2000/svg" xmlns:xlink="http://www.w3.org/1999/xlink" viewBox="0 0 215 70" xml:space="preserve">
<g>
	<rect x="56.256" y="47.342" class="primarycolor" width="125.637" height="0.512"/>
	<g>
		<path class="primarycolor" d="M61.932,53.962c1.354,0,2.558,0.725,3.39,2.038c0.1,0.163,0.17,0.328,0.232,0.472
			c0.122,0.287,0.229,0.537,0.491,0.537c0.301,0,0.301-0.295,0.301-0.392c0-0.099-0.001-0.193-0.017-0.319l-0.151-1.581
			c-0.008-0.106-0.034-0.428-0.286-0.428c-0.088,0-0.164,0.046-0.23,0.084c-0.042,0.022-0.093,0.053-0.121,0.053
			c-0.067,0-0.203-0.093-0.345-0.19c-0.174-0.119-0.389-0.268-0.667-0.392c-0.846-0.381-1.678-0.561-2.613-0.561
			c-1.597,0-2.834,0.492-3.785,1.505c-1.049,1.114-1.604,2.601-1.604,4.296c0,3.398,2.036,5.512,5.313,5.512
			c1.623,0,2.955-0.409,4.071-1.245l0.038-0.029l0.316-1.295c0.023-0.097,0.05-0.22,0.05-0.275c0-0.198-0.116-0.348-0.271-0.348
			c-0.206,0-0.317,0.193-0.459,0.438c-0.13,0.224-0.292,0.503-0.577,0.771c-0.795,0.752-1.861,1.183-2.925,1.183
			c-2.333,0-4.026-2.244-4.026-5.336C58.059,55.769,59.614,53.962,61.932,53.962z"/>
		<path class="primarycolor" d="M70.478,57.504c-1.963,0-3.562,1.605-3.562,3.577c0,2.036,1.421,3.515,3.378,3.515
			c1.989,0,3.546-1.592,3.546-3.623C73.841,58.931,72.458,57.504,70.478,57.504z M70.493,63.978c-1.32,0-2.242-1.359-2.242-3.308
			c0-1.592,0.783-2.579,2.043-2.579c1.254,0,2.198,1.408,2.198,3.278C72.493,63.026,71.764,63.978,70.493,63.978z"/>
		<path class="primarycolor" d="M77.486,63.731c-0.107-0.013-0.229-0.029-0.343-0.079c-0.403-0.175-0.421-0.402-0.421-1.094v-6.887
			c0-1.223,0.055-1.965,0.079-2.282c0.007-0.097,0.012-0.157,0.012-0.184c0-0.301-0.172-0.408-0.333-0.408
			c-0.129,0-0.255,0.074-0.43,0.178c-0.152,0.091-0.341,0.202-0.594,0.302c-0.247,0.099-0.451,0.146-0.617,0.186
			c-0.271,0.063-0.503,0.117-0.503,0.381c0,0.146,0.106,0.315,0.408,0.315h0.137c0.4,0,0.476,0.173,0.476,1.086v7.298
			c0,0.487-0.014,0.798-0.208,1.006c-0.057,0.062-0.144,0.108-0.226,0.152c-0.152,0.081-0.342,0.184-0.342,0.41
			c0,0.167,0.149,0.302,0.331,0.302c0.021,0,0.062-0.004,0.124-0.011c0.184-0.022,0.563-0.065,1.187-0.065
			c0.469,0,0.821,0.033,1.056,0.056c0.125,0.013,0.221,0.021,0.284,0.021c0.222,0,0.378-0.13,0.378-0.316
			C77.94,63.788,77.678,63.755,77.486,63.731z"/>
		<path class="primarycolor" d="M81.371,63.731c-0.107-0.013-0.23-0.029-0.343-0.079c-0.403-0.175-0.422-0.402-0.422-1.094v-6.887
			c0-1.223,0.057-1.965,0.08-2.282c0.007-0.097,0.011-0.157,0.011-0.184c0-0.301-0.171-0.408-0.332-0.408
			c-0.129,0-0.255,0.074-0.43,0.178c-0.152,0.091-0.341,0.202-0.594,0.302c-0.246,0.099-0.451,0.146-0.615,0.186
			c-0.272,0.063-0.505,0.117-0.505,0.381c0,0.146,0.106,0.315,0.408,0.315h0.137c0.4,0,0.476,0.173,0.476,1.086v7.298
			c0,0.487-0.014,0.798-0.208,1.006c-0.057,0.062-0.144,0.108-0.226,0.152c-0.152,0.081-0.342,0.184-0.342,0.41
			c0,0.167,0.149,0.302,0.331,0.302c0.021,0,0.062-0.004,0.125-0.011c0.183-0.022,0.563-0.065,1.185-0.065
			c0.471,0,0.824,0.033,1.057,0.056c0.125,0.013,0.219,0.021,0.284,0.021c0.222,0,0.378-0.13,0.378-0.316
			C81.825,63.788,81.563,63.755,81.371,63.731z"/>
		<path class="primarycolor" d="M87.982,62.729c-0.104,0-0.206,0.069-0.374,0.184c-0.316,0.217-0.846,0.578-1.652,0.578
			c-1.384,0-2.291-1.164-2.333-2.978h3.857c0.378,0,0.651,0,0.651-0.424c0-0.436-0.211-0.953-0.577-1.421
			c-0.569-0.742-1.332-1.119-2.269-1.119c-1.634,0-3.014,1.679-3.014,3.666c0,1.878,1.337,3.351,3.044,3.351
			c0.97,0,1.773-0.321,2.529-1.013c0.268-0.251,0.376-0.42,0.376-0.585C88.222,62.859,88.181,62.729,87.982,62.729z M85.073,58.197
			c0.908,0,1.541,0.772,1.541,1.467c0,0.152-0.178,0.186-1.009,0.186h-1.937C83.809,58.811,84.328,58.197,85.073,58.197z"/>
		<path class="primarycolor" d="M95.291,57.577c0-0.314-0.166-0.455-0.331-0.455c-0.224,0-0.269,0.184-0.298,0.306
			c-0.019,0.076-0.04,0.162-0.089,0.246c-0.138,0.227-0.381,0.38-0.603,0.38c-0.105,0-0.249-0.073-0.429-0.166
			c-0.367-0.188-0.871-0.444-1.672-0.444c-1.443,0-2.572,1.103-2.572,2.509c0,0.829,0.299,1.488,0.869,1.921
			c-0.473,0.471-0.731,0.98-0.731,1.446c0,0.382,0.156,0.726,0.417,0.944c-0.657,0.359-0.966,0.805-0.966,1.389
			c0,1.014,1.075,1.671,2.739,1.671c2.116,0,3.379-0.858,3.379-2.296c0-1.081-0.568-1.522-1.962-1.522
			c-1.943,0-2.731-0.023-2.731-0.611c0-0.364,0.299-0.688,0.537-0.688c0.05,0,0.118,0.013,0.206,0.028
			c0.181,0.031,0.429,0.077,0.755,0.077c1.69,0,2.783-0.985,2.783-2.509c0-0.247-0.042-0.478-0.128-0.7
			C95.026,58.799,95.291,58.31,95.291,57.577z M91.638,66.675c-1.16,0-1.725-0.351-1.725-1.071c0-0.539,0.168-0.841,0.563-1.003
			c0.676,0.14,1.355,0.153,2.01,0.169c0.25,0.005,0.497,0.011,0.744,0.023c0.618,0.031,0.788,0.154,0.788,0.569
			C94.019,66.171,93.106,66.675,91.638,66.675z M91.974,61.678c-1.149,0-1.39-1.094-1.39-2.014c0-1.014,0.502-1.619,1.344-1.619
			c0.849,0,1.375,0.778,1.375,2.028C93.303,60.806,93.072,61.678,91.974,61.678z"/>
		<path class="primarycolor" d="M101.434,62.729c-0.105,0-0.206,0.069-0.374,0.184c-0.316,0.217-0.846,0.578-1.653,0.578
			c-1.384,0-2.291-1.164-2.332-2.978h3.855c0.379,0,0.652,0,0.652-0.424c0-0.436-0.211-0.953-0.577-1.421
			c-0.57-0.742-1.332-1.119-2.269-1.119c-1.634,0-3.014,1.679-3.014,3.666c0,1.878,1.337,3.351,3.044,3.351
			c0.97,0,1.773-0.321,2.529-1.013c0.268-0.251,0.377-0.42,0.377-0.585C101.674,62.859,101.633,62.729,101.434,62.729z
			 M98.524,58.197c0.909,0,1.543,0.772,1.543,1.467c0,0.152-0.18,0.186-1.009,0.186h-1.938
			C97.261,58.811,97.78,58.197,98.524,58.197z"/>
		<path class="primarycolor" d="M109.752,57.504c-1.963,0-3.562,1.605-3.562,3.577c0,2.036,1.421,3.515,3.38,3.515
			c1.986,0,3.545-1.592,3.545-3.623C113.115,58.931,111.732,57.504,109.752,57.504z M109.768,63.978
			c-1.32,0-2.243-1.359-2.243-3.308c0-1.592,0.782-2.579,2.045-2.579c1.252,0,2.195,1.408,2.195,3.278
			C111.766,63.026,111.037,63.978,109.768,63.978z"/>
		<path class="primarycolor" d="M118.162,52.902c-1.607,0-3.4,1.849-3.541,4.845h-0.496c-0.393,0-0.531,0.171-0.531,0.651
			c0,0.227,0.209,0.227,0.408,0.227h0.6v3.918c0,0.499,0,0.8-0.195,1.006c-0.055,0.063-0.145,0.108-0.232,0.153
			c-0.156,0.08-0.35,0.183-0.35,0.409c0,0.167,0.148,0.302,0.33,0.302c0.021,0,0.064-0.006,0.127-0.016
			c0.184-0.024,0.563-0.077,1.184-0.077c0.426,0,0.752,0.042,0.965,0.068c0.119,0.014,0.209,0.024,0.27,0.024
			c0.203,0,0.348-0.13,0.348-0.316c0-0.294-0.236-0.333-0.393-0.359c-0.092-0.017-0.186-0.032-0.275-0.079
			c-0.395-0.204-0.414-0.445-0.414-1.115v-3.918h0.535c0.18,0,0.322,0.004,0.43,0.009c0.07,0.003,0.123,0.006,0.164,0.006
			c0.314,0,0.607-0.549,0.607-0.88c0-0.127-0.1-0.24-0.209-0.24c-0.076,0-0.141,0.033-0.213,0.07
			c-0.123,0.062-0.309,0.157-0.703,0.157h-0.611v-1.162c0-1.537,0.615-2.653,1.465-2.653c0.387,0,0.627,0.143,0.688,0.277
			c0.006,0.008,0.01,0.036,0.014,0.056c0.016,0.092,0.053,0.308,0.32,0.308c0.373,0,0.422-0.553,0.422-1.032
			C118.873,53.082,118.674,52.902,118.162,52.902z"/>
		<path class="primarycolor" d="M131.918,53.451c-0.098,0-0.227,0.017-0.389,0.039c-0.268,0.034-0.635,0.083-1.09,0.083
			c-0.398,0-0.701-0.049-0.922-0.085c-0.129-0.021-0.23-0.037-0.313-0.037c-0.162,0-0.301,0.152-0.301,0.331
			c0,0.253,0.252,0.313,0.494,0.37c0.195,0.046,0.436,0.103,0.666,0.246c0.41,0.265,0.484,0.954,0.484,2.219v5.195
			c0,0.008,0,0.018,0,0.025l-7.244-8.126c-0.191-0.23-0.352-0.23-0.574-0.23h-0.41c-0.184,0-0.338-0.011-0.457-0.019
			c-0.084-0.006-0.148-0.012-0.199-0.012c-0.111,0-0.406,0-0.406,0.316c0,0.265,0.227,0.332,0.447,0.397
			c0.203,0.061,0.457,0.137,0.688,0.367c0.514,0.513,0.617,1.312,0.617,2.436c0,0.239,0,0.496-0.016,0.772l-0.121,3.96l-0.002,0.072
			c-0.029,1.046-0.041,1.479-0.588,1.814c-0.107,0.063-0.219,0.097-0.314,0.125c-0.182,0.054-0.408,0.122-0.408,0.414
			c0,0.113,0.045,0.303,0.332,0.303c0.07,0,0.162-0.015,0.277-0.032c0.174-0.026,0.391-0.06,0.652-0.06
			c0.467,0,0.861,0.032,1.178,0.059c0.217,0.018,0.404,0.033,0.559,0.033c0.17,0,0.484,0,0.484-0.349
			c0-0.278-0.25-0.302-0.416-0.316c-0.119-0.012-0.256-0.025-0.389-0.09c-0.455-0.228-0.535-0.518-0.535-1.223
			c0-0.084,0.002-0.171,0.006-0.266c0.004-0.105,0.008-0.221,0.008-0.341l0.137-5.34c0.01,0.01,0.018,0.021,0.027,0.032l6.824,7.725
			c0.148,0.171,0.262,0.244,0.375,0.244c0.314,0,0.314-0.32,0.314-0.531v-8.379c0-0.678,0.125-1.132,0.367-1.346
			c0.08-0.07,0.168-0.098,0.254-0.124c0.137-0.043,0.324-0.101,0.324-0.358C132.34,53.61,132.209,53.451,131.918,53.451z"/>
		<path class="primarycolor" d="M140.137,63.658c-0.076-0.006-0.162-0.008-0.26-0.027c-0.229-0.04-0.27-0.047-0.27-0.587v-3.456
			c0-0.494,0.02-0.888,0.033-1.146c0.006-0.146,0.012-0.256,0.012-0.331c0-0.102,0-0.409-0.301-0.409
			c-0.078,0-0.176,0.022-0.309,0.052c-0.217,0.049-0.516,0.115-0.895,0.115h-0.199c-0.34,0-0.514,0.117-0.514,0.348
			c0,0.28,0.268,0.301,0.428,0.314c0.08,0.006,0.16,0.013,0.213,0.036c0.174,0.08,0.197,0.209,0.197,0.671v3
			c0,0.942-0.779,1.453-1.512,1.453c-0.938,0-1.375-0.602-1.375-1.894v-2.209c0-0.494,0.025-0.869,0.043-1.145
			c0.012-0.146,0.018-0.258,0.018-0.333c0-0.355-0.197-0.409-0.314-0.409c-0.02,0-0.064,0.007-0.137,0.02
			c-0.172,0.029-0.531,0.088-1.15,0.136l-0.082,0.002c-0.236,0.01-0.502,0.021-0.502,0.313c0,0.249,0.229,0.292,0.377,0.321
			c0.076,0.015,0.152,0.027,0.219,0.058c0.174,0.083,0.211,0.188,0.211,0.595v2.743c0,1.774,0.691,2.602,2.176,2.602
			c0.803,0,1.467-0.266,2.014-0.811v0.113c0,0.326,0.033,0.577,0.439,0.577l1.395-0.094c0.172-0.012,0.461-0.03,0.461-0.331
			C140.553,63.684,140.313,63.669,140.137,63.658z"/>
		<path class="primarycolor" d="M144.791,57.55c-0.486,0-0.895,0.371-1.404,0.959v-0.644c0-0.222,0-0.499-0.287-0.499
			c-0.121,0-0.252,0.071-0.475,0.188c-0.143,0.074-0.318,0.17-0.539,0.265c-0.273,0.12-0.494,0.167-0.674,0.207
			c-0.242,0.053-0.473,0.103-0.473,0.359c0,0.315,0.348,0.315,0.516,0.315c0.418,0,0.598,0.179,0.598,0.598v3.245
			c0,0.506-0.07,0.784-0.248,1.001c-0.072,0.097-0.17,0.153-0.264,0.208c-0.131,0.077-0.281,0.167-0.281,0.359
			c0,0.169,0.139,0.302,0.316,0.302c0.02,0,0.063-0.004,0.125-0.011c0.182-0.022,0.561-0.065,1.17-0.065
			c0.463,0,0.826,0.03,1.092,0.053c0.152,0.014,0.271,0.023,0.355,0.023c0.227,0,0.393-0.133,0.393-0.316
			c0-0.322-0.291-0.343-0.482-0.358c-0.127-0.008-0.273-0.02-0.398-0.081c-0.404-0.202-0.459-0.464-0.459-1.328v-2.514
			c0-0.517,0.439-1.022,0.887-1.022c0.277,0,0.469,0.117,0.637,0.221c0.125,0.076,0.232,0.144,0.354,0.144
			c0.24,0,0.65-0.432,0.65-0.759C145.898,58.035,145.352,57.55,144.791,57.55z"/>
		<path class="primarycolor" d="M149.367,60.41l-0.201-0.087c-1.076-0.461-1.668-0.716-1.668-1.346c0-0.465,0.359-0.766,0.92-0.766
			c0.467,0,0.926,0.258,1.23,0.688c0.055,0.083,0.082,0.18,0.111,0.274c0.043,0.146,0.102,0.348,0.318,0.348
			c0.178,0,0.27-0.131,0.27-0.395l-0.016-0.856c-0.012-0.314-0.313-0.69-1.672-0.69c-1.303,0-2.145,0.745-2.145,1.899
			c0,0.822,0.424,1.356,1.463,1.842c0.141,0.069,0.275,0.133,0.404,0.19c0.902,0.419,1.301,0.628,1.301,1.197
			c0,0.665-0.482,1.131-1.176,1.131c-0.664,0-1.129-0.379-1.383-1.126c-0.051-0.156-0.076-0.293-0.1-0.414
			c-0.039-0.224-0.084-0.456-0.33-0.456c-0.125,0-0.332,0.06-0.332,0.456l0.016,1.264c0,0.385,0.109,0.469,0.369,0.519
			c0.031,0.006,0.064,0.013,0.094,0.02c0.049,0.014,0.129,0.051,0.217,0.096c0.287,0.141,0.723,0.353,1.313,0.353
			c1.34,0,2.313-0.967,2.313-2.299C150.684,61.386,150.266,60.801,149.367,60.41z"/>
		<path class="primarycolor" d="M153.109,56.247c0.359,0,0.818-0.628,0.818-0.926c0-0.338-0.539-0.909-0.789-0.909
			c-0.293,0-0.805,0.605-0.805,0.953C152.334,55.745,152.775,56.247,153.109,56.247z"/>
		<path class="primarycolor" d="M154.604,63.738c-0.129-0.008-0.275-0.02-0.4-0.081c-0.385-0.193-0.443-0.42-0.443-1.099v-2.315
			c0-1.143,0.025-1.9,0.039-2.265c0.004-0.12,0.006-0.197,0.006-0.235c0-0.132,0-0.377-0.301-0.377
			c-0.137,0-0.291,0.081-0.502,0.194c-0.141,0.074-0.314,0.17-0.527,0.258c-0.268,0.116-0.486,0.169-0.662,0.21
			c-0.26,0.061-0.482,0.113-0.482,0.37c0,0.211,0.188,0.317,0.559,0.317c0.439,0,0.521,0.172,0.521,1.086v2.741
			c0,0.442-0.014,0.729-0.229,0.997c-0.078,0.097-0.174,0.152-0.266,0.208c-0.133,0.08-0.283,0.17-0.283,0.363
			c0,0.169,0.141,0.302,0.316,0.302c0.023,0,0.064-0.004,0.127-0.011c0.182-0.022,0.559-0.065,1.17-0.065
			c0.463,0,0.826,0.03,1.09,0.053c0.152,0.014,0.273,0.023,0.357,0.023c0.227,0,0.391-0.133,0.391-0.316
			C155.084,63.774,154.795,63.754,154.604,63.738z"/>
		<path class="primarycolor" d="M162.82,63.744c-0.125-0.012-0.27-0.023-0.396-0.097c-0.334-0.199-0.363-0.43-0.363-1.089v-1.478
			c0-1.099-0.035-1.928-0.512-2.576c-0.436-0.6-1.146-0.955-1.904-0.955c-0.672,0-1.363,0.302-2.105,0.922v-0.606
			c0-0.181,0-0.482-0.303-0.482c-0.096,0-0.205,0.055-0.402,0.154c-0.225,0.113-0.561,0.283-1.039,0.446
			c-0.08,0.025-0.164,0.037-0.24,0.049c-0.188,0.028-0.447,0.068-0.447,0.353c0,0.315,0.371,0.315,0.529,0.315
			c0.42,0,0.566,0.164,0.566,0.628v3.215c0,0.442-0.014,0.729-0.229,0.997c-0.078,0.097-0.174,0.152-0.266,0.208
			c-0.131,0.08-0.281,0.17-0.281,0.363c0,0.167,0.148,0.302,0.33,0.302c0.021,0,0.064-0.004,0.127-0.011
			c0.182-0.022,0.557-0.065,1.154-0.065c0.453,0,0.811,0.03,1.072,0.053c0.154,0.014,0.273,0.023,0.357,0.023
			c0.223,0,0.379-0.13,0.379-0.316c0-0.322-0.291-0.343-0.482-0.358c-0.127-0.008-0.273-0.02-0.398-0.081
			c-0.377-0.188-0.428-0.403-0.428-1.099v-2.65c0-0.904,0.594-1.422,1.631-1.422c1.166,0,1.559,0.592,1.559,2.351v1.706
			c0,0.459-0.012,0.776-0.188,1.002c-0.059,0.08-0.145,0.14-0.225,0.196c-0.127,0.087-0.273,0.187-0.273,0.37
			c0,0.167,0.135,0.302,0.301,0.302c0.016,0,0.053-0.004,0.107-0.011c0.156-0.02,0.525-0.065,1.098-0.065
			c0.434,0,0.771,0.03,1.02,0.053c0.145,0.014,0.256,0.023,0.334,0.023c0.25,0,0.363-0.158,0.363-0.316
			C163.266,63.781,162.998,63.759,162.82,63.744z"/>
		<path class="primarycolor" d="M167.596,63.505c-1.943,0-2.73-0.023-2.73-0.611c0-0.364,0.299-0.688,0.537-0.688
			c0.049,0,0.117,0.013,0.205,0.028c0.182,0.031,0.432,0.077,0.756,0.077c1.691,0,2.783-0.985,2.783-2.509
			c0-0.247-0.043-0.478-0.129-0.7c0.566-0.303,0.828-0.792,0.828-1.524c0-0.314-0.164-0.455-0.33-0.455
			c-0.225,0-0.268,0.184-0.299,0.306c-0.02,0.076-0.041,0.162-0.09,0.246c-0.137,0.227-0.381,0.38-0.602,0.38
			c-0.105,0-0.25-0.073-0.43-0.166c-0.367-0.188-0.869-0.444-1.672-0.444c-1.443,0-2.572,1.103-2.572,2.509
			c0,0.829,0.299,1.488,0.869,1.921c-0.475,0.471-0.732,0.98-0.732,1.446c0,0.382,0.156,0.726,0.418,0.944
			c-0.658,0.359-0.965,0.805-0.965,1.389c0,1.014,1.074,1.671,2.738,1.671c2.115,0,3.379-0.858,3.379-2.296
			C169.559,63.946,168.99,63.505,167.596,63.505z M166.529,61.678c-1.148,0-1.389-1.094-1.389-2.014
			c0-1.014,0.502-1.619,1.344-1.619c0.848,0,1.373,0.778,1.373,2.028C167.857,60.806,167.627,61.678,166.529,61.678z
			 M166.193,66.675c-1.16,0-1.725-0.351-1.725-1.071c0-0.539,0.17-0.841,0.564-1.003c0.676,0.14,1.354,0.153,2.01,0.169
			c0.25,0.005,0.498,0.011,0.744,0.023c0.617,0.031,0.787,0.154,0.787,0.569C168.574,66.171,167.662,66.675,166.193,66.675z"/>
	</g>
	<g>
		<path class="primarycolor" d="M53.756,5.698c-0.581-1.382-1.012-1.66-1.913-1.916c-0.38-0.101-0.784-0.101-0.985-0.101
			c-0.225,0-0.301-0.074-0.301-0.226c0-0.201,0.277-0.226,0.655-0.226c1.334,0,2.765,0.073,3.646,0.073
			c0.633,0,1.842-0.073,3.103-0.073c0.302,0,0.576,0.051,0.576,0.226c0,0.176-0.15,0.226-0.375,0.226
			c-0.405,0-0.781,0.03-0.984,0.179c-0.176,0.125-0.251,0.299-0.251,0.528c0,0.325,0.228,1.031,0.581,1.939l4.33,11.431h0.099
			c1.087-2.771,4.358-10.876,4.961-12.542c0.127-0.326,0.225-0.704,0.225-0.931c0-0.198-0.098-0.403-0.327-0.476
			c-0.302-0.099-0.68-0.129-1.007-0.129c-0.225,0-0.425-0.023-0.425-0.199c0-0.201,0.228-0.252,0.702-0.252
			c1.261,0,2.315,0.073,2.644,0.073c0.429,0,1.613-0.073,2.369-0.073c0.324,0,0.531,0.051,0.531,0.226
			c0,0.176-0.157,0.226-0.406,0.226c-0.251,0-0.782,0-1.236,0.304c-0.323,0.227-0.705,0.652-1.384,2.265
			c-0.978,2.369-1.663,3.729-3.021,6.822c-1.61,3.681-2.795,6.422-3.35,7.682c-0.651,1.46-0.804,1.864-1.156,1.864
			c-0.327,0-0.478-0.352-0.957-1.537L53.756,5.698z"/>
		<path class="primarycolor" d="M75.628,10.533c0-3.827,0-4.533-0.05-5.337c-0.052-0.861-0.301-1.284-0.854-1.414
			c-0.277-0.07-0.603-0.101-0.908-0.101c-0.251,0-0.404-0.05-0.404-0.249c0-0.151,0.202-0.202,0.607-0.202
			c0.956,0,2.542,0.073,3.271,0.073c0.631,0,2.115-0.073,3.072-0.073c0.328,0,0.531,0.051,0.531,0.202
			c0,0.199-0.152,0.249-0.406,0.249c-0.251,0-0.453,0.03-0.752,0.075c-0.681,0.126-0.886,0.56-0.934,1.439
			C78.75,6,78.75,6.706,78.75,10.533v4.429c0,2.44,0,4.429,0.099,5.514c0.079,0.683,0.253,1.133,1.009,1.236
			c0.355,0.051,0.907,0.098,1.288,0.098c0.276,0,0.399,0.08,0.399,0.204c0,0.175-0.2,0.253-0.478,0.253
			c-1.662,0-3.247-0.078-3.927-0.078c-0.58,0-2.165,0.078-3.172,0.078c-0.326,0-0.502-0.078-0.502-0.253
			c0-0.124,0.1-0.204,0.402-0.204c0.378,0,0.68-0.047,0.908-0.098c0.502-0.104,0.654-0.532,0.728-1.261
			c0.125-1.061,0.125-3.049,0.125-5.489V10.533z"/>
		<path class="primarycolor" d="M88.995,14.962c0,3.225,0,4.963,0.53,5.413c0.425,0.379,1.083,0.559,3.048,0.559
			c1.33,0,2.313-0.027,2.944-0.705c0.3-0.331,0.603-1.036,0.657-1.511c0.022-0.229,0.075-0.381,0.273-0.381
			c0.175,0,0.202,0.127,0.202,0.428c0,0.276-0.174,2.169-0.38,2.899c-0.149,0.55-0.276,0.676-1.584,0.676
			c-1.813,0-3.118-0.05-4.255-0.073c-1.131-0.053-2.037-0.078-3.072-0.078c-0.278,0-0.832,0-1.434,0.025
			c-0.581,0-1.236,0.053-1.736,0.053c-0.333,0-0.508-0.078-0.508-0.253c0-0.124,0.102-0.204,0.404-0.204
			c0.378,0,0.679-0.047,0.909-0.098c0.5-0.104,0.626-0.657,0.729-1.386c0.124-1.057,0.124-3.048,0.124-5.364v-4.429
			c0-3.827,0-4.533-0.048-5.337c-0.055-0.861-0.252-1.261-1.086-1.439c-0.196-0.045-0.501-0.075-0.828-0.075
			c-0.28,0-0.428-0.05-0.428-0.226c0-0.175,0.174-0.226,0.552-0.226c1.181,0,2.768,0.073,3.447,0.073
			c0.608,0,2.445-0.073,3.426-0.073c0.356,0,0.53,0.051,0.53,0.226c0,0.176-0.152,0.226-0.454,0.226
			c-0.277,0-0.679,0.03-0.979,0.075c-0.68,0.126-0.88,0.56-0.934,1.439c-0.05,0.804-0.05,1.51-0.05,5.337V14.962z"/>
		<path class="primarycolor" d="M103.926,14.962c0,3.225,0,4.963,0.528,5.413c0.426,0.379,1.082,0.559,3.047,0.559
			c1.334,0,2.319-0.027,2.944-0.705c0.307-0.331,0.605-1.036,0.658-1.511c0.025-0.229,0.076-0.381,0.273-0.381
			c0.178,0,0.207,0.127,0.207,0.428c0,0.276-0.18,2.169-0.381,2.899c-0.152,0.55-0.277,0.676-1.588,0.676
			c-1.809,0-3.123-0.05-4.254-0.073c-1.129-0.053-2.041-0.078-3.07-0.078c-0.28,0-0.832,0-1.437,0.025
			c-0.578,0-1.232,0.053-1.737,0.053c-0.328,0-0.503-0.078-0.503-0.253c0-0.124,0.099-0.204,0.403-0.204
			c0.378,0,0.679-0.047,0.908-0.098c0.501-0.104,0.629-0.657,0.73-1.386c0.126-1.057,0.126-3.048,0.126-5.364v-4.429
			c0-3.827,0-4.533-0.05-5.337c-0.053-0.861-0.251-1.261-1.086-1.439c-0.2-0.045-0.501-0.075-0.828-0.075
			c-0.277,0-0.429-0.05-0.429-0.226c0-0.175,0.177-0.226,0.555-0.226c1.181,0,2.77,0.073,3.448,0.073
			c0.606,0,2.442-0.073,3.425-0.073c0.355,0,0.527,0.051,0.527,0.226c0,0.176-0.146,0.226-0.45,0.226
			c-0.279,0-0.68,0.03-0.985,0.075c-0.675,0.126-0.882,0.56-0.93,1.439c-0.051,0.804-0.051,1.51-0.051,5.337V14.962z"/>
		<path class="primarycolor" d="M119.443,15.691c-0.127,0-0.178,0.05-0.227,0.202l-1.357,3.601c-0.254,0.63-0.379,1.232-0.379,1.536
			c0,0.451,0.225,0.779,1.008,0.779h0.377c0.301,0,0.379,0.052,0.379,0.204c0,0.2-0.154,0.253-0.432,0.253
			c-0.805,0-1.889-0.078-2.664-0.078c-0.281,0-1.664,0.078-2.975,0.078c-0.326,0-0.48-0.053-0.48-0.253
			c0-0.152,0.104-0.204,0.305-0.204c0.227,0,0.578-0.025,0.779-0.047c1.158-0.154,1.637-1.009,2.145-2.269l6.318-15.813
			c0.297-0.726,0.451-1.005,0.701-1.005c0.229,0,0.379,0.227,0.631,0.806c0.605,1.384,4.631,11.656,6.248,15.483
			c0.953,2.266,1.682,2.619,2.213,2.746c0.377,0.072,0.754,0.098,1.053,0.098c0.205,0,0.33,0.026,0.33,0.204
			c0,0.2-0.225,0.253-1.156,0.253c-0.906,0-2.744,0-4.76-0.053c-0.455-0.025-0.756-0.025-0.756-0.2c0-0.152,0.1-0.204,0.35-0.229
			c0.182-0.046,0.355-0.273,0.23-0.579l-2.014-5.338c-0.053-0.126-0.127-0.176-0.254-0.176H119.443z M124.58,14.436
			c0.127,0,0.152-0.081,0.127-0.15l-2.268-6.222c-0.025-0.102-0.051-0.225-0.125-0.225s-0.129,0.123-0.152,0.225l-2.316,6.196
			c-0.023,0.095,0,0.176,0.102,0.176H124.58z"/>
		<path class="primarycolor" d="M139.141,18.843c0.049,1.964,0.373,2.616,0.881,2.792c0.424,0.149,0.906,0.175,1.311,0.175
			c0.275,0,0.428,0.052,0.428,0.204c0,0.2-0.229,0.253-0.584,0.253c-1.633,0-2.641-0.078-3.119-0.078
			c-0.227,0-1.41,0.078-2.721,0.078c-0.328,0-0.553-0.03-0.553-0.253c0-0.152,0.15-0.204,0.4-0.204c0.332,0,0.785-0.025,1.137-0.124
			c0.654-0.204,0.754-0.932,0.779-3.122l0.229-14.905c0-0.503,0.072-0.854,0.322-0.854c0.281,0,0.508,0.328,0.936,0.776
			c0.305,0.332,4.127,4.436,7.803,8.082c1.713,1.714,5.111,5.342,5.541,5.74h0.125L151.803,6.1c-0.023-1.535-0.25-2.012-0.857-2.265
			c-0.375-0.153-0.98-0.153-1.334-0.153c-0.299,0-0.404-0.074-0.404-0.226c0-0.201,0.281-0.226,0.656-0.226
			c1.311,0,2.52,0.073,3.047,0.073c0.281,0,1.234-0.073,2.471-0.073c0.324,0,0.576,0.024,0.576,0.226
			c0,0.151-0.148,0.226-0.451,0.226c-0.256,0-0.453,0-0.76,0.075c-0.701,0.201-0.902,0.734-0.932,2.142l-0.275,15.886
			c0,0.556-0.1,0.782-0.326,0.782c-0.271,0-0.578-0.276-0.855-0.553c-1.586-1.511-4.811-4.813-7.428-7.404
			c-2.744-2.721-5.539-5.864-5.992-6.342h-0.076L139.141,18.843z"/>
		<path class="primarycolor" d="M156.719,12.748c0-4.307,2.842-9.872,10.396-9.872c6.266,0,10.168,3.656,10.168,9.416
			c0,5.769-4.027,10.326-10.42,10.326C159.639,22.618,156.719,17.201,156.719,12.748z M173.76,13.229
			c0-5.643-3.246-9.141-7.377-9.141c-2.895,0-6.193,1.61-6.193,7.878c0,5.235,2.896,9.391,7.732,9.391
			C169.684,21.356,173.76,20.503,173.76,13.229z"/>
		<path class="primarycolor" d="M179.549,5.698c-0.578-1.382-1.008-1.66-1.916-1.916c-0.377-0.101-0.781-0.101-0.979-0.101
			c-0.23,0-0.307-0.074-0.307-0.226c0-0.201,0.277-0.226,0.654-0.226c1.34,0,2.77,0.073,3.652,0.073c0.631,0,1.84-0.073,3.098-0.073
			c0.303,0,0.578,0.051,0.578,0.226c0,0.176-0.15,0.226-0.375,0.226c-0.404,0-0.781,0.03-0.982,0.179
			c-0.18,0.125-0.254,0.299-0.254,0.528c0,0.325,0.229,1.031,0.578,1.939l4.334,11.431h0.098c1.086-2.771,4.355-10.876,4.959-12.542
			c0.129-0.326,0.229-0.704,0.229-0.931c0-0.198-0.1-0.403-0.326-0.476c-0.305-0.099-0.676-0.129-1.008-0.129
			c-0.225,0-0.424-0.023-0.424-0.199c0-0.201,0.223-0.252,0.701-0.252c1.258,0,2.316,0.073,2.645,0.073
			c0.426,0,1.613-0.073,2.365-0.073c0.326,0,0.531,0.051,0.531,0.226c0,0.176-0.152,0.226-0.404,0.226s-0.779,0-1.232,0.304
			c-0.326,0.227-0.703,0.652-1.387,2.265c-0.982,2.369-1.66,3.729-3.02,6.822c-1.615,3.681-2.797,6.422-3.35,7.682
			c-0.654,1.46-0.809,1.864-1.16,1.864c-0.328,0-0.477-0.352-0.957-1.537L179.549,5.698z"/>
		<path class="primarycolor" d="M198.449,15.691c-0.131,0-0.184,0.05-0.23,0.202l-1.357,3.601c-0.252,0.63-0.377,1.232-0.377,1.536
			c0,0.451,0.227,0.779,1.006,0.779h0.377c0.303,0,0.379,0.052,0.379,0.204c0,0.2-0.154,0.253-0.428,0.253
			c-0.807,0-1.889-0.078-2.67-0.078c-0.277,0-1.662,0.078-2.969,0.078c-0.33,0-0.486-0.053-0.486-0.253
			c0-0.152,0.105-0.204,0.305-0.204c0.23,0,0.584-0.025,0.785-0.047c1.16-0.154,1.635-1.009,2.135-2.269l6.324-15.813
			c0.305-0.726,0.459-1.005,0.709-1.005c0.227,0,0.373,0.227,0.629,0.806c0.602,1.384,4.633,11.656,6.24,15.483
			c0.959,2.266,1.688,2.619,2.217,2.746c0.379,0.072,0.76,0.098,1.061,0.098c0.197,0,0.324,0.026,0.324,0.204
			c0,0.2-0.227,0.253-1.158,0.253c-0.904,0-2.744,0-4.76-0.053c-0.447-0.025-0.75-0.025-0.75-0.2c0-0.152,0.098-0.204,0.344-0.229
			c0.184-0.046,0.359-0.273,0.23-0.579l-2.014-5.338c-0.051-0.126-0.125-0.176-0.252-0.176H198.449z M203.586,14.436
			c0.123,0,0.152-0.081,0.123-0.15l-2.266-6.222c-0.023-0.102-0.051-0.225-0.125-0.225c-0.076,0-0.127,0.123-0.146,0.225
			l-2.326,6.196c-0.021,0.095,0,0.176,0.104,0.176H203.586z"/>
	</g>
	<g>
		<path class="primarycolor" d="M56.573,33.166c0-2.239,0-2.65-0.028-3.125c-0.032-0.501-0.153-0.733-0.634-0.84
			c-0.118-0.03-0.369-0.041-0.578-0.041c-0.161,0-0.246-0.033-0.246-0.133c0-0.104,0.1-0.134,0.323-0.134
			c0.777,0,1.708,0.046,2.147,0.046c0.357,0,1.287-0.046,1.816-0.046c0.221,0,0.324,0.029,0.324,0.134
			c0,0.1-0.087,0.133-0.237,0.133c-0.158,0-0.246,0.011-0.428,0.041c-0.39,0.075-0.512,0.323-0.543,0.84
			c-0.028,0.475-0.028,0.886-0.028,3.125v2.064c0,2.142,0.427,3.038,1.149,3.626c0.663,0.551,1.342,0.605,1.844,0.605
			c0.647,0,1.442-0.205,2.032-0.793c0.81-0.81,0.856-2.142,0.856-3.656v-1.847c0-2.239,0-2.65-0.028-3.125
			c-0.031-0.501-0.148-0.733-0.634-0.84c-0.118-0.03-0.37-0.041-0.532-0.041c-0.164,0-0.252-0.033-0.252-0.133
			c0-0.104,0.104-0.134,0.312-0.134c0.752,0,1.682,0.046,1.697,0.046c0.172,0,1.104-0.046,1.679-0.046
			c0.204,0,0.31,0.029,0.31,0.134c0,0.1-0.088,0.133-0.263,0.133c-0.165,0-0.257,0.011-0.434,0.041
			c-0.395,0.075-0.513,0.323-0.542,0.84c-0.028,0.475-0.028,0.886-0.028,3.125v1.58c0,1.639-0.167,3.378-1.402,4.435
			c-1.05,0.901-2.108,1.063-3.068,1.063c-0.78,0-2.197-0.041-3.273-1.017c-0.751-0.678-1.31-1.771-1.31-3.905V33.166z"/>
		<path class="primarycolor" d="M73.54,38.031c0.029,1.149,0.222,1.536,0.519,1.643c0.251,0.085,0.528,0.104,0.762,0.104
			c0.167,0,0.255,0.027,0.255,0.114c0,0.12-0.134,0.15-0.342,0.15c-0.957,0-1.546-0.049-1.826-0.049
			c-0.134,0-0.828,0.049-1.592,0.049c-0.193,0-0.326-0.017-0.326-0.15c0-0.087,0.087-0.114,0.234-0.114
			c0.193,0,0.461-0.019,0.669-0.076c0.379-0.119,0.438-0.545,0.451-1.83l0.135-8.726c0-0.294,0.044-0.501,0.192-0.501
			c0.16,0,0.295,0.188,0.542,0.455c0.178,0.191,2.42,2.599,4.573,4.732c1.003,1.001,2.993,3.129,3.244,3.363h0.072l-0.145-6.622
			c-0.016-0.901-0.15-1.177-0.504-1.324c-0.218-0.089-0.575-0.089-0.778-0.089c-0.178,0-0.239-0.046-0.239-0.133
			c0-0.121,0.166-0.134,0.385-0.134c0.769,0,1.472,0.046,1.783,0.046c0.164,0,0.723-0.046,1.446-0.046
			c0.19,0,0.338,0.013,0.338,0.134c0,0.087-0.088,0.133-0.264,0.133c-0.147,0-0.271,0-0.443,0.041
			c-0.414,0.12-0.531,0.427-0.545,1.255l-0.165,9.303c0,0.323-0.061,0.461-0.19,0.461c-0.166,0-0.341-0.163-0.502-0.328
			c-0.929-0.885-2.815-2.817-4.348-4.336c-1.606-1.592-3.245-3.435-3.509-3.714H73.38L73.54,38.031z"/>
		<path class="primarycolor" d="M89.626,33.166c0-2.239,0-2.65-0.03-3.125c-0.026-0.501-0.174-0.75-0.501-0.821
			c-0.16-0.049-0.353-0.06-0.53-0.06c-0.145,0-0.237-0.033-0.237-0.149c0-0.088,0.119-0.117,0.354-0.117
			c0.558,0,1.49,0.046,1.918,0.046c0.37,0,1.235-0.046,1.797-0.046c0.193,0,0.311,0.029,0.311,0.117
			c0,0.116-0.084,0.149-0.239,0.149c-0.145,0-0.262,0.011-0.44,0.041c-0.4,0.075-0.515,0.323-0.543,0.84
			c-0.032,0.475-0.032,0.886-0.032,3.125v2.599c0,1.431,0,2.591,0.061,3.229c0.044,0.395,0.145,0.662,0.588,0.723
			c0.208,0.028,0.534,0.062,0.75,0.062c0.165,0,0.239,0.041,0.239,0.114c0,0.102-0.119,0.15-0.28,0.15
			c-0.976,0-1.904-0.049-2.298-0.049c-0.341,0-1.273,0.049-1.858,0.049c-0.196,0-0.297-0.049-0.297-0.15
			c0-0.073,0.062-0.114,0.236-0.114c0.221,0,0.399-0.033,0.53-0.062c0.298-0.061,0.385-0.309,0.426-0.738
			c0.076-0.622,0.076-1.782,0.076-3.213V33.166z"/>
		<path class="primarycolor" d="M97.884,30.337c-0.341-0.813-0.591-0.971-1.121-1.117c-0.222-0.06-0.457-0.06-0.574-0.06
			c-0.134,0-0.178-0.046-0.178-0.133c0-0.121,0.163-0.134,0.384-0.134c0.781,0,1.621,0.046,2.137,0.046
			c0.369,0,1.076-0.046,1.813-0.046c0.177,0,0.338,0.029,0.338,0.134c0,0.1-0.085,0.133-0.222,0.133
			c-0.232,0-0.456,0.011-0.571,0.103c-0.104,0.074-0.15,0.177-0.15,0.309c0,0.193,0.135,0.604,0.339,1.136l2.538,6.692h0.059
			c0.634-1.62,2.554-6.368,2.906-7.344c0.072-0.19,0.13-0.411,0.13-0.544c0-0.115-0.058-0.235-0.192-0.279
			c-0.177-0.062-0.396-0.072-0.586-0.072c-0.134,0-0.254-0.015-0.254-0.117c0-0.12,0.134-0.149,0.414-0.149
			c0.735,0,1.355,0.046,1.546,0.046c0.25,0,0.944-0.046,1.387-0.046c0.191,0,0.311,0.029,0.311,0.134c0,0.1-0.092,0.133-0.238,0.133
			c-0.143,0-0.458,0-0.721,0.177c-0.193,0.131-0.415,0.382-0.811,1.326c-0.576,1.387-0.974,2.183-1.768,3.997
			c-0.945,2.148-1.64,3.758-1.962,4.496c-0.384,0.855-0.471,1.087-0.679,1.087c-0.189,0-0.279-0.201-0.561-0.896L97.884,30.337z"/>
		<path class="primarycolor" d="M112.861,33.166c0-2.239,0-2.65-0.027-3.125c-0.027-0.501-0.15-0.733-0.637-0.84
			c-0.113-0.03-0.367-0.041-0.574-0.041c-0.158,0-0.252-0.033-0.252-0.133c0-0.104,0.105-0.134,0.326-0.134
			c0.398,0,0.826,0.013,1.195,0.013c0.385,0.017,0.721,0.033,0.93,0.033c0.473,0,3.404,0,3.689-0.017
			c0.277-0.029,0.512-0.06,0.629-0.09c0.072-0.014,0.162-0.058,0.236-0.058c0.07,0,0.09,0.058,0.09,0.131
			c0,0.104-0.074,0.281-0.117,0.959c-0.02,0.149-0.047,0.798-0.076,0.975c-0.012,0.074-0.045,0.161-0.146,0.161
			c-0.104,0-0.135-0.074-0.135-0.208c0-0.103-0.018-0.354-0.088-0.529c-0.104-0.263-0.252-0.444-0.988-0.529
			c-0.248-0.029-1.795-0.063-2.094-0.063c-0.07,0-0.102,0.047-0.102,0.147v3.734c0,0.101,0.018,0.157,0.102,0.157
			c0.324,0,2.021,0,2.359-0.027c0.354-0.029,0.576-0.073,0.711-0.22c0.1-0.117,0.16-0.191,0.234-0.191
			c0.057,0,0.102,0.028,0.102,0.117c0,0.088-0.059,0.321-0.117,1.076c-0.018,0.293-0.059,0.886-0.059,0.983
			c0,0.123,0,0.289-0.137,0.289c-0.1,0-0.127-0.061-0.127-0.14c-0.016-0.149-0.016-0.335-0.063-0.525
			c-0.074-0.296-0.277-0.518-0.826-0.577c-0.279-0.03-1.74-0.048-2.092-0.048c-0.07,0-0.088,0.062-0.088,0.151v1.165
			c0,0.502-0.016,1.854,0,2.285c0.031,1.017,0.266,1.236,1.77,1.236c0.383,0,1.002,0,1.385-0.174
			c0.387-0.177,0.563-0.489,0.662-1.094c0.031-0.159,0.059-0.225,0.164-0.225c0.117,0,0.117,0.121,0.117,0.271
			c0,0.337-0.117,1.343-0.188,1.637c-0.107,0.381-0.238,0.381-0.801,0.381c-1.104,0-1.918-0.025-2.551-0.04
			c-0.633-0.03-1.088-0.049-1.533-0.049c-0.16,0-0.484,0-0.838,0.019c-0.342,0-0.725,0.03-1.018,0.03
			c-0.193,0-0.295-0.049-0.295-0.15c0-0.073,0.057-0.114,0.234-0.114c0.221,0,0.396-0.033,0.531-0.062
			c0.299-0.061,0.369-0.385,0.426-0.813c0.074-0.618,0.074-1.784,0.074-3.139V33.166z"/>
		<path class="primarycolor" d="M125.131,33.166c0-2.239,0-2.65-0.031-3.125c-0.029-0.501-0.148-0.733-0.635-0.84
			c-0.117-0.03-0.367-0.041-0.576-0.041c-0.16,0-0.248-0.033-0.248-0.133c0-0.104,0.102-0.134,0.324-0.134
			c0.779,0,1.711,0.046,2.021,0.046c0.5,0,1.619-0.046,2.08-0.046c0.926,0,1.912,0.089,2.711,0.631c0.41,0.281,1,1.033,1,2.021
			c0,1.093-0.455,2.096-1.947,3.307c1.316,1.646,2.332,2.96,3.201,3.871c0.82,0.858,1.43,0.958,1.652,1.002
			c0.162,0.033,0.293,0.052,0.41,0.052c0.119,0,0.18,0.041,0.18,0.114c0,0.12-0.105,0.15-0.281,0.15h-1.402
			c-0.826,0-1.193-0.077-1.576-0.283c-0.631-0.339-1.193-1.035-2.02-2.166c-0.592-0.809-1.27-1.813-1.459-2.037
			c-0.074-0.09-0.164-0.106-0.268-0.106l-1.285-0.024c-0.072,0-0.115,0.024-0.115,0.119v0.204c0,1.371,0,2.537,0.076,3.155
			c0.039,0.428,0.131,0.752,0.574,0.813c0.219,0.028,0.549,0.062,0.723,0.062c0.121,0,0.178,0.041,0.178,0.114
			c0,0.102-0.104,0.15-0.295,0.15c-0.855,0-1.949-0.049-2.168-0.049c-0.279,0-1.211,0.049-1.801,0.049
			c-0.189,0-0.293-0.049-0.293-0.15c0-0.073,0.059-0.114,0.236-0.114c0.217,0,0.395-0.033,0.529-0.062
			c0.295-0.061,0.369-0.385,0.424-0.813c0.08-0.618,0.08-1.784,0.08-3.139V33.166z M126.867,34.335c0,0.161,0.031,0.221,0.133,0.265
			c0.313,0.103,0.754,0.146,1.123,0.146c0.59,0,0.781-0.06,1.047-0.25c0.439-0.328,0.867-1.005,0.867-2.213
			c0-2.094-1.385-2.701-2.254-2.701c-0.371,0-0.635,0.019-0.783,0.063c-0.102,0.027-0.133,0.09-0.133,0.207V34.335z"/>
		<path class="primarycolor" d="M138.516,39.864c-0.24-0.105-0.281-0.183-0.281-0.503c0-0.813,0.057-1.7,0.072-1.935
			c0.016-0.217,0.059-0.381,0.178-0.381c0.129,0,0.146,0.133,0.146,0.249c0,0.191,0.061,0.499,0.133,0.755
			c0.322,1.088,1.195,1.487,2.107,1.487c1.326,0,1.975-0.898,1.975-1.678c0-0.727-0.221-1.402-1.441-2.361l-0.68-0.532
			c-1.623-1.265-2.184-2.3-2.184-3.494c0-1.62,1.357-2.783,3.406-2.783c0.957,0,1.578,0.145,1.959,0.251
			c0.135,0.029,0.209,0.071,0.209,0.175c0,0.193-0.061,0.62-0.061,1.771c0,0.322-0.043,0.443-0.16,0.443
			c-0.105,0-0.145-0.09-0.145-0.265c0-0.137-0.08-0.593-0.387-0.98c-0.225-0.277-0.648-0.717-1.607-0.717
			c-1.09,0-1.754,0.635-1.754,1.519c0,0.674,0.34,1.192,1.561,2.122l0.414,0.311c1.783,1.343,2.422,2.36,2.422,3.757
			c0,0.859-0.324,1.876-1.391,2.569c-0.734,0.469-1.561,0.6-2.342,0.6C139.807,40.243,139.145,40.14,138.516,39.864z"/>
		<path class="primarycolor" d="M150.518,33.166c0-2.239,0-2.65-0.031-3.125c-0.027-0.501-0.176-0.75-0.498-0.821
			c-0.162-0.049-0.357-0.06-0.535-0.06c-0.143,0-0.234-0.033-0.234-0.149c0-0.088,0.119-0.117,0.354-0.117
			c0.563,0,1.488,0.046,1.92,0.046c0.363,0,1.234-0.046,1.797-0.046c0.193,0,0.311,0.029,0.311,0.117
			c0,0.116-0.088,0.149-0.236,0.149c-0.146,0-0.266,0.011-0.443,0.041c-0.398,0.075-0.516,0.323-0.545,0.84
			c-0.031,0.475-0.031,0.886-0.031,3.125v2.599c0,1.431,0,2.591,0.061,3.229c0.043,0.395,0.15,0.662,0.588,0.723
			c0.209,0.028,0.533,0.062,0.752,0.062c0.164,0,0.236,0.041,0.236,0.114c0,0.102-0.115,0.15-0.279,0.15
			c-0.975,0-1.902-0.049-2.303-0.049c-0.338,0-1.264,0.049-1.852,0.049c-0.195,0-0.297-0.049-0.297-0.15
			c0-0.073,0.061-0.114,0.234-0.114c0.221,0,0.396-0.033,0.533-0.062c0.293-0.061,0.379-0.309,0.426-0.738
			c0.074-0.622,0.074-1.782,0.074-3.213V33.166z"/>
		<path class="primarycolor" d="M161.98,29.719l-2.199,0.057c-0.852,0.03-1.209,0.106-1.43,0.431c-0.148,0.22-0.221,0.396-0.25,0.515
			c-0.033,0.119-0.076,0.18-0.16,0.18c-0.104,0-0.137-0.074-0.137-0.237c0-0.237,0.279-1.58,0.313-1.694
			c0.041-0.193,0.086-0.28,0.178-0.28c0.117,0,0.264,0.145,0.635,0.175c0.426,0.043,0.988,0.076,1.473,0.076h5.838
			c0.471,0,0.799-0.046,1.02-0.076c0.221-0.044,0.338-0.071,0.396-0.071c0.104,0,0.119,0.087,0.119,0.308
			c0,0.309-0.045,1.326-0.045,1.712c-0.02,0.146-0.043,0.233-0.133,0.233c-0.117,0-0.15-0.073-0.164-0.294l-0.012-0.16
			c-0.033-0.385-0.434-0.803-1.742-0.826l-1.857-0.046v6.046c0,1.354,0,2.521,0.076,3.152c0.041,0.414,0.127,0.738,0.57,0.799
			c0.207,0.028,0.531,0.062,0.756,0.062c0.16,0,0.236,0.041,0.236,0.114c0,0.102-0.123,0.15-0.279,0.15
			c-0.975,0-1.904-0.049-2.32-0.049c-0.336,0-1.266,0.049-1.854,0.049c-0.193,0-0.301-0.049-0.301-0.15
			c0-0.073,0.063-0.114,0.24-0.114c0.221,0,0.398-0.033,0.531-0.062c0.291-0.061,0.381-0.385,0.424-0.813
			c0.078-0.618,0.078-1.784,0.078-3.139V29.719z"/>
		<path class="primarycolor" d="M175.273,36.223c0-0.798-0.148-1.126-0.344-1.551c-0.1-0.236-2.074-3.478-2.592-4.246
			c-0.367-0.544-0.736-0.914-1.016-1.075c-0.191-0.102-0.439-0.19-0.621-0.19c-0.115,0-0.221-0.033-0.221-0.133
			c0-0.088,0.105-0.134,0.283-0.134c0.266,0,1.369,0.046,1.852,0.046c0.311,0,0.92-0.046,1.58-0.046c0.15,0,0.223,0.046,0.223,0.134
			c0,0.087-0.102,0.1-0.326,0.16c-0.131,0.032-0.203,0.149-0.203,0.264c0,0.12,0.072,0.294,0.174,0.507
			c0.205,0.44,2.27,3.99,2.506,4.408c0.148-0.357,2.008-3.599,2.215-4.055c0.143-0.329,0.203-0.577,0.203-0.771
			c0-0.144-0.061-0.308-0.311-0.369c-0.129-0.025-0.264-0.057-0.264-0.144c0-0.104,0.078-0.134,0.25-0.134
			c0.486,0,0.959,0.046,1.389,0.046c0.32,0,1.297-0.046,1.576-0.046c0.166,0,0.266,0.029,0.266,0.117
			c0,0.104-0.119,0.149-0.279,0.149c-0.15,0-0.426,0.06-0.648,0.177c-0.311,0.146-0.473,0.325-0.795,0.719
			c-0.488,0.591-2.557,4.054-2.82,4.69c-0.221,0.532-0.221,0.992-0.221,1.477v1.204c0,0.234,0,0.858,0.047,1.477
			c0.023,0.428,0.164,0.752,0.602,0.813c0.207,0.028,0.529,0.062,0.738,0.062c0.16,0,0.238,0.041,0.238,0.114
			c0,0.102-0.121,0.15-0.309,0.15c-0.932,0-1.859-0.049-2.26-0.049c-0.363,0-1.297,0.049-1.84,0.049c-0.207,0-0.326-0.03-0.326-0.15
			c0-0.073,0.072-0.114,0.238-0.114c0.201,0,0.379-0.033,0.514-0.062c0.297-0.061,0.424-0.385,0.457-0.813
			c0.045-0.618,0.045-1.242,0.045-1.477V36.223z"/>
	</g>
	<g>
		<g>
			<rect x="18.871" y="44.42" class="primarycolor" width="0.533" height="3.194"/>
			<path class="primarycolor" d="M23.191,45.795c0.18-0.148,0.277-0.334,0.277-0.547c0-0.535-0.54-0.88-1.374-0.88
				s-1.372,0.345-1.372,0.88c0,0.213,0.095,0.398,0.277,0.547c-0.325,0.181-0.49,0.444-0.49,0.793c0,0.664,0.623,1.09,1.585,1.09
				c0.96,0,1.579-0.429,1.579-1.093C23.674,46.236,23.517,45.977,23.191,45.795z M22.095,46.084c0.745,0,1.035,0.143,1.035,0.504
				c0,0.358-0.405,0.588-1.035,0.588c-0.631,0-1.039-0.229-1.039-0.588S21.357,46.084,22.095,46.084z M22.095,45.578
				c-0.514,0-0.822-0.124-0.822-0.334c0-0.232,0.323-0.378,0.822-0.378c0.568,0,0.827,0.188,0.827,0.365
				C22.922,45.451,22.62,45.578,22.095,45.578z"/>
			<path class="primarycolor" d="M27.477,44.434h-0.485l-2.467,1.96v0.472h2.424v0.732h0.528v-0.732h0.509v-0.506h-0.509V44.434z
				 M25.388,46.359l1.561-1.241v1.241H25.388z"/>
			<path class="primarycolor" d="M29.619,47.099c-0.004-0.033-0.004-0.06-0.004-0.09c0-0.412,0.248-0.516,0.964-0.758l0.143-0.048
				c0.668-0.224,1.148-0.385,1.148-0.926c0-0.454-0.431-0.915-1.265-0.915c-0.506,0-0.986,0.178-1.471,0.551l-0.051,0.04
				l0.316,0.409l0.05-0.035c0.448-0.316,0.828-0.461,1.193-0.461c0.451,0,0.685,0.205,0.685,0.407c0,0.194-0.258,0.286-0.844,0.479
				c-0.141,0.05-0.294,0.1-0.465,0.16c-0.693,0.246-0.938,0.568-0.938,1.24c0,0.02,0.003,0.069,0.003,0.144l0.011,0.301h2.839
				v-0.499H29.619z"/>
		</g>
		<g>
			<polygon class="primarycolor" points="6.979,34.823 6.415,33.65 6.024,33.65 6.868,35.401 7.09,35.401 7.937,33.65 7.544,33.65 			"/>
			<polygon class="primarycolor" points="8.565,34.643 9.203,34.643 9.203,34.302 8.565,34.302 8.565,33.991 9.619,33.991 9.619,33.65 
				8.211,33.65 8.211,35.401 9.685,35.401 9.685,35.061 8.565,35.061 			"/>
			<path class="primarycolor" d="M11.678,34.172c0-0.321-0.22-0.521-0.579-0.521H10.11v1.751h0.354v-0.699h0.491l0.401,0.699h0.399
				l-0.415-0.731C11.547,34.594,11.678,34.405,11.678,34.172z M10.464,33.991h0.634c0.143,0,0.216,0.063,0.216,0.188
				c0,0.084-0.026,0.183-0.226,0.183h-0.625V33.991z"/>
			<rect x="12.144" y="33.642" class="primarycolor" width="0.359" height="1.764"/>
			<polygon class="primarycolor" points="14.612,33.65 12.917,33.65 12.917,33.991 13.585,33.991 13.585,35.401 13.944,35.401 
				13.944,33.991 14.612,33.991 			"/>
			<path class="primarycolor" d="M17.764,34.302c-0.084-0.01-0.163-0.014-0.237-0.018c-0.168-0.012-0.301-0.019-0.379-0.079
				c-0.037-0.027-0.046-0.053-0.046-0.079c0-0.081,0.126-0.165,0.333-0.165c0.213,0,0.415,0.076,0.598,0.222l0.065,0.052
				l0.207-0.297l-0.062-0.043c-0.245-0.184-0.524-0.278-0.808-0.278c-0.401,0-0.695,0.218-0.695,0.519
				c0,0.171,0.096,0.313,0.272,0.4c0.157,0.07,0.344,0.082,0.563,0.099l0.118,0.009c0.188,0.014,0.299,0.093,0.299,0.205
				c0,0.149-0.169,0.254-0.416,0.254c-0.219,0-0.455-0.089-0.664-0.252l-0.067-0.056L16.641,35.1l0.058,0.045
				c0.258,0.199,0.545,0.297,0.879,0.297c0.537,0,0.781-0.307,0.781-0.589C18.359,34.559,18.126,34.343,17.764,34.302z"/>
			<path class="primarycolor" d="M15.356,33.647l-0.857,1.75h0.389l0.183-0.381l0.829-0.003l0.194,0.384h0.393l-0.867-1.75H15.356z
				 M15.735,34.676h-0.493l0.245-0.498L15.735,34.676z"/>
		</g>
		<g>
			<path class="primarycolor" d="M21.371,37.711c0,0.286-0.058,0.334-0.379,0.334c-0.321,0-0.378-0.048-0.378-0.334v-1.11h-0.355v1.162
				c0,0.435,0.226,0.628,0.733,0.628c0.509,0,0.734-0.193,0.734-0.628v-1.162h-0.355V37.711z"/>
			<polygon class="primarycolor" points="23.404,37.656 22.485,36.601 22.269,36.601 22.269,38.348 22.623,38.348 22.623,37.292 
				23.545,38.348 23.759,38.348 23.759,36.601 23.404,36.601 			"/>
			<rect x="24.339" y="36.591" class="primarycolor" width="0.359" height="1.764"/>
			<polygon class="primarycolor" points="26.77,36.601 25.074,36.601 25.074,36.938 25.744,36.938 25.744,38.348 26.101,38.348 
				26.101,36.938 26.77,36.938 			"/>
			<path class="primarycolor" d="M29.883,37.25c-0.086-0.009-0.165-0.014-0.239-0.017c-0.168-0.012-0.3-0.019-0.379-0.079
				c-0.038-0.028-0.046-0.052-0.046-0.079c0-0.08,0.128-0.167,0.335-0.167c0.212,0,0.413,0.073,0.593,0.222l0.066,0.055l0.207-0.3
				l-0.063-0.044c-0.245-0.181-0.524-0.274-0.806-0.274c-0.41,0-0.697,0.212-0.697,0.517c0,0.174,0.098,0.315,0.275,0.4
				c0.155,0.07,0.343,0.086,0.562,0.099l0.118,0.009c0.188,0.016,0.299,0.09,0.299,0.205c0,0.15-0.169,0.255-0.417,0.255
				c-0.219,0-0.453-0.088-0.661-0.253l-0.068-0.052l-0.202,0.304l0.057,0.044c0.258,0.2,0.544,0.297,0.878,0.297
				c0.537,0,0.779-0.307,0.779-0.59C30.476,37.507,30.241,37.292,29.883,37.25z"/>
			<path class="primarycolor" d="M27.516,36.599l-0.858,1.749h0.387l0.186-0.38l0.825-0.004l0.197,0.384h0.389l-0.865-1.749H27.516z
				 M27.896,37.624h-0.497l0.248-0.498L27.896,37.624z"/>
		</g>
		<path class="primarycolor" d="M33.591,34.777c-0.11,0.214-0.281,0.319-0.5,0.319c-0.314,0-0.542-0.236-0.542-0.567
			c0-0.33,0.228-0.568,0.542-0.568c0.203,0,0.375,0.098,0.461,0.262l0.042,0.082l0.299-0.217l-0.04-0.065
			c-0.165-0.256-0.445-0.406-0.762-0.406c-0.524,0-0.904,0.385-0.904,0.913c0,0.53,0.379,0.912,0.904,0.912
			c0.348,0,0.641-0.171,0.8-0.474l0.033-0.061l-0.29-0.212L33.591,34.777z"/>
		<path class="primarycolor" d="M37.912,34.172c0-0.321-0.222-0.521-0.578-0.521h-0.99v1.751h0.353v-0.699h0.493l0.4,0.699h0.401
			l-0.416-0.731C37.779,34.594,37.912,34.405,37.912,34.172z M36.697,33.991h0.633c0.146,0,0.218,0.063,0.218,0.188
			c0,0.084-0.027,0.183-0.227,0.183h-0.624V33.991z"/>
		<rect x="38.414" y="33.642" class="primarycolor" width="0.361" height="1.764"/>
		<polygon class="primarycolor" points="40.845,33.65 39.15,33.65 39.15,33.991 39.819,33.991 39.819,35.401 40.176,35.401 40.176,33.991 
			40.845,33.991 		"/>
		<path class="primarycolor" d="M43.921,34.302c-0.085-0.01-0.164-0.014-0.237-0.018c-0.167-0.012-0.302-0.019-0.379-0.079
			c-0.039-0.027-0.046-0.053-0.046-0.079c0-0.08,0.128-0.165,0.335-0.165c0.212,0,0.413,0.076,0.593,0.222l0.067,0.052l0.204-0.297
			l-0.061-0.043c-0.246-0.184-0.524-0.278-0.807-0.278c-0.404,0-0.697,0.218-0.697,0.519c0,0.171,0.097,0.315,0.273,0.4
			c0.156,0.07,0.342,0.082,0.562,0.099l0.119,0.009c0.189,0.014,0.3,0.093,0.3,0.205c0,0.149-0.171,0.254-0.417,0.254
			c-0.217,0-0.453-0.089-0.66-0.252l-0.069-0.056L42.801,35.1l0.056,0.045c0.26,0.199,0.544,0.297,0.878,0.297
			c0.538,0,0.783-0.307,0.783-0.589C44.517,34.559,44.284,34.342,43.921,34.302z"/>
		<path class="primarycolor" d="M34.929,33.65l-0.857,1.751h0.389l0.185-0.382h0.828l0.196,0.382h0.389l-0.866-1.751H34.929z
			 M35.31,34.677l-0.496-0.001l0.246-0.497L35.31,34.677z"/>
		<path class="primarycolor" d="M41.551,33.654l-0.857,1.748h0.392l0.182-0.381l0.827-0.002l0.195,0.383h0.393l-0.869-1.748H41.551z
			 M41.931,34.679l-0.495-0.002l0.249-0.496L41.931,34.679z"/>
		<path class="primarycolor" d="M25.308,34.149l-12.015-7.652c-0.067-0.041-0.715-0.479-0.715-2.273c0-1.783,0.644-2.445,0.672-2.472
			l0.082-0.057l7.767-3.291l0.207,0.487l-7.708,3.265c-0.105,0.137-0.492,0.734-0.491,2.067c0,1.478,0.465,1.826,0.471,1.832
			l11.731,7.471l11.575-7.374c-0.141-0.313-0.333-0.941-0.339-2.037c-0.007-1.071,0.18-1.713,0.321-2.05l-7.459-3.156l0.208-0.482
			l8.024,3.396l-0.198,0.268c0,0.003-0.38,0.567-0.371,2.021c0.008,1.453,0.368,1.968,0.371,1.975l0.163,0.227l-0.231,0.152
			L25.308,34.149z"/>
		<polygon class="primarycolor" points="25.308,29.675 13.343,22.183 13.622,21.735 25.308,29.053 37.059,21.723 37.339,22.172 		"/>
		<polygon class="primarycolor" points="25.31,31.907 12.733,24.188 13.009,23.737 25.307,31.288 36.657,24.142 36.936,24.591 		"/>
		<path class="primarycolor" d="M27.708,17.381l-0.466-0.246c0.103-0.197,0.125-0.367,0.075-0.555c-0.155-0.545-0.524-1.017-1.134-1.443
			c-0.567-0.396-0.843-0.846-0.979-1.184c-0.094,0.142-0.154,0.309-0.084,0.472c0.138,0.321,0.34,0.537,0.554,0.766
			c0.114,0.123,0.227,0.244,0.329,0.378c0.22,0.286,0.256,0.663,0.095,0.98c-0.153,0.298-0.448,0.478-0.776,0.473
			c-0.296-0.004-0.551-0.117-0.744-0.321c-0.281-0.301-0.372-0.738-0.402-1.042c-0.33,0.108-0.824,0.354-0.868,0.858
			c-0.017,0.197,0.029,0.397,0.142,0.628l-0.471,0.233c-0.153-0.316-0.219-0.614-0.194-0.905c0.098-1.173,1.541-1.4,1.604-1.41
			l0.317-0.047l-0.018,0.321c-0.006,0.189,0.026,0.738,0.277,1.003c0.096,0.105,0.213,0.152,0.367,0.155
			c0.176,0.005,0.266-0.127,0.294-0.183c0.068-0.14,0.055-0.298-0.044-0.427c-0.088-0.118-0.191-0.228-0.294-0.335
			c-0.225-0.24-0.481-0.515-0.652-0.92c-0.261-0.604,0.222-1.173,0.546-1.415l0.399-0.295l0.019,0.495
			c0.003,0.027,0.054,0.711,0.883,1.289c0.715,0.499,1.153,1.068,1.341,1.733C27.912,16.757,27.875,17.067,27.708,17.381z"/>
		<path class="primarycolor" d="M25.332,25.263l-0.153-0.106c-0.04-0.029-1.027-0.729-2.059-1.78c-0.027-0.031-0.61-0.656-0.983-1.126
			c-0.851-1.108-1.28-2.148-1.286-3.09c-0.007-1.243,1.164-2.134,2.223-2.152h0.061c1.191,0,1.87,0.688,2.197,1.166
			c0.323-0.48,0.998-1.17,2.199-1.17l0.063,0.001c1.055,0.021,2.226,0.91,2.219,2.155c-0.02,2.929-4.154,5.872-4.329,5.994
			L25.332,25.263z M23.134,17.535h-0.052c-0.811,0.014-1.712,0.712-1.705,1.624c0.005,0.822,0.401,1.757,1.175,2.766
			c0.357,0.449,0.943,1.081,0.95,1.087c0.761,0.778,1.516,1.369,1.829,1.601c0.741-0.556,3.938-3.095,3.954-5.457
			c0.005-0.912-0.895-1.609-1.703-1.623H27.53c-1.434,0-1.932,1.229-1.952,1.279l-0.25,0.643l-0.242-0.646
			C25.067,18.756,24.583,17.535,23.134,17.535z"/>
		<path class="primarycolor" d="M31.692,18.882l-1.571-0.936l0.264-1.898l2.843-1.269l-0.314,1.884l1.711,0.906L31.692,18.882z
			 M30.692,17.673l1.036,0.615l1.697-0.756l-1.093-0.584l0.216-1.29l-1.682,0.751L30.692,17.673z"/>
		
			<rect x="29.589" y="17.475" transform="matrix(0.4028 0.9153 -0.9153 0.4028 34.3566 -16.5379)" class="primarycolor" width="0.525" height="1.166"/>
		
			<rect x="21.106" y="21.276" transform="matrix(0.4051 0.9143 -0.9143 0.4051 32.7718 -6.4847)" class="primarycolor" width="0.526" height="1.329"/>
		<path class="primarycolor" d="M18.059,23.437l2.354-2.649l1.115,2.495L18.059,23.437z M20.265,21.746l-0.986,1.108l1.454-0.063
			L20.265,21.746z"/>
		<path class="primarycolor" d="M6.163,36.944c-0.081,0-0.397-0.022-0.685-0.308c-0.327-0.324-0.304-0.688-0.299-0.728l-0.003-3.783h0.527
			v3.808c-0.002,0.023-0.004,0.18,0.148,0.333c0.152,0.147,0.309,0.15,0.321,0.15l0,0H18.92v0.527H6.179
			C6.176,36.944,6.171,36.944,6.163,36.944z"/>
		<polygon class="primarycolor" points="5.345,32.348 3.214,31.579 4.229,29.661 2.578,26.9 11.694,29.806 11.689,32.298 11.163,32.298 
			11.168,30.189 3.745,27.821 4.835,29.646 3.964,31.291 5.523,31.855 		"/>
		<path class="primarycolor" d="M20.821,35.247l-0.003-2.625L5.924,32.625c-0.39-0.034-0.774-0.26-0.756-0.671
			c0.017-0.484,0.589-0.66,0.655-0.682l5.492-1.516l0.141,0.507l-5.494,1.519c-0.104,0.031-0.266,0.124-0.269,0.193
			c-0.002,0.07,0.195,0.12,0.256,0.125l15.396-0.005l0.004,3.151H20.821z"/>
		<polygon class="primarycolor" points="45.267,32.347 45.087,31.851 46.648,31.285 45.774,29.645 46.866,27.821 39.441,30.189 
			39.443,32.314 38.914,32.316 38.912,29.806 48.032,26.896 46.38,29.661 47.396,31.573 		"/>
		<polygon class="primarycolor" points="24.967,6.49 22.023,6.49 22.023,5.964 24.444,5.964 24.444,3.456 24.967,3.456 		"/>
		<polygon class="primarycolor" points="24.967,12.039 24.444,12.039 24.444,7.786 22.012,7.786 22.012,7.258 24.967,7.258 		"/>
		<polygon class="primarycolor" points="28.664,6.481 25.717,6.481 25.717,3.449 26.244,3.449 26.244,5.959 28.664,5.959 		"/>
		<polygon class="primarycolor" points="26.244,12.032 25.717,12.032 25.717,7.25 28.674,7.25 28.674,7.778 26.244,7.778 		"/>
		
			<rect x="21.647" y="4.153" transform="matrix(0.707 0.7072 -0.7072 0.707 9.8324 -14.8999)" class="primarycolor" width="2.504" height="0.527"/>
		<path class="primarycolor" d="M44.439,36.938c-0.009,0-0.017,0-0.017,0H31.757v-0.524h12.675c0.01-0.004,0.176,0,0.329-0.153
			c0.154-0.15,0.149-0.309,0.148-0.317v-3.876h0.525v3.859c0.003,0.021,0.022,0.381-0.302,0.71
			C44.846,36.919,44.53,36.938,44.439,36.938z"/>
		<path class="primarycolor" d="M19.665,35.596c-0.261,0-0.719-0.121-0.871-0.576c-0.141-0.435,0.12-0.797,0.297-0.945l1.724-1.819
			l0.381,0.364l-1.748,1.84c-0.03,0.027-0.219,0.196-0.153,0.397c0.072,0.217,0.373,0.211,0.387,0.214l11.294-0.004
			c0.011,0.001,0.322,0.004,0.392-0.214c0.067-0.204-0.13-0.373-0.13-0.373l-1.858-1.904l0.376-0.365l1.838,1.879
			c0.155,0.13,0.417,0.49,0.275,0.925c-0.156,0.475-0.631,0.586-0.903,0.578L19.69,35.596
			C19.682,35.596,19.673,35.596,19.665,35.596z"/>
		<path class="primarycolor" d="M29.792,35.294h-0.524v-3.201l15.419,0.003c0.045-0.008,0.235-0.057,0.23-0.125
			c-0.001-0.074-0.176-0.167-0.272-0.191l-5.42-1.499l0.138-0.505l5.424,1.497c0.065,0.019,0.639,0.192,0.658,0.681
			c0.016,0.41-0.369,0.634-0.733,0.669l-14.919-0.003V35.294z"/>
		<path class="primarycolor" d="M25.471,39.938l-5.704-0.004c-0.034,0.004-0.392,0.005-0.698-0.287c-0.337-0.326-0.31-0.695-0.307-0.737
			v-4.116h0.524v4.143c0,0.026-0.005,0.183,0.146,0.33c0.147,0.141,0.319,0.142,0.327,0.142l0,0l5.711,0.005l5.44-0.005
			c0.01,0.006,0.173,0,0.324-0.148c0.152-0.153,0.151-0.31,0.15-0.32V34.79h0.527v4.137c0.003,0.014,0.021,0.378-0.304,0.704
			c-0.316,0.318-0.674,0.309-0.714,0.304L25.471,39.938z"/>
		
			<rect x="26.5" y="9.009" transform="matrix(0.7065 0.7077 -0.7077 0.7065 14.7055 -16.9178)" class="primarycolor" width="2.502" height="0.525"/>
		
			<rect x="22.65" y="7.993" transform="matrix(0.7062 0.708 -0.708 0.7062 13.278 -13.5076)" class="primarycolor" width="0.528" height="2.503"/>
		
			<rect x="27.499" y="3.165" transform="matrix(0.7076 0.7066 -0.7066 0.7076 11.2394 -18.3265)" class="primarycolor" width="0.527" height="2.502"/>
		<path class="primarycolor" d="M38.572,11.184c-0.29,0-1.83-0.053-3.443-1.1c-1.787-1.156-2.373-2.589-2.397-2.649l-0.154-0.391
			l0.418,0.029c0.08,0.007,1.968,0.153,3.682,1.225c1.467,0.914,2.162,2.448,2.193,2.515l0.156,0.354L38.572,11.184z M33.449,7.666
			c0.292,0.479,0.897,1.285,1.966,1.978c1.121,0.725,2.187,0.933,2.763,0.991c-0.291-0.49-0.882-1.332-1.777-1.893
			C35.303,8.06,34.102,7.774,33.449,7.666z"/>
		<path class="primarycolor" d="M45.073,28.217l-0.523-0.063c0.063-0.521,0.102-1.021,0.118-1.258c-0.295-0.218-1.043-0.829-1.733-1.906
			c-0.872-1.366-0.922-3.222-0.924-3.301L42,21.189l0.417,0.271c0.039,0.026,1.006,0.658,1.851,1.735
			c0.077,0.096,0.153,0.2,0.231,0.31c-0.034-0.318-0.077-0.642-0.124-0.969c-0.108-0.748-0.333-1.665-0.422-2.016
			c-0.351-0.112-1.251-0.463-2.245-1.267c-1.245-1.015-2.07-2.719-2.104-2.789l-0.228-0.478l0.516,0.106
			c0.056,0.01,1.37,0.28,2.521,1.037c0.053,0.039,0.108,0.075,0.165,0.117c-0.099-0.198-0.201-0.402-0.309-0.606
			c-0.356-0.667-0.876-1.456-1.076-1.753c-0.37,0.012-1.333-0.018-2.54-0.439c-1.529-0.54-2.71-1.974-2.762-2.034l-0.314-0.387
			l0.497-0.044c0.049-0.003,1.199-0.101,2.529,0.231c0.664,0.162,1.326,0.437,1.813,0.665c-0.221-0.479-0.458-1.07-0.608-1.668
			c-0.329-1.328-0.232-2.482-0.226-2.528l0.04-0.498l0.386,0.315c0.061,0.05,1.492,1.232,2.035,2.762
			c0.458,1.296,0.452,2.4,0.438,2.726c0.196,0.291,0.904,1.364,1.308,2.118c0.042,0.08,0.084,0.161,0.126,0.243
			c0.166-1.243,0.586-2.172,0.604-2.215l0.209-0.451l0.256,0.426c0.042,0.068,0.993,1.662,0.989,3.283
			c-0.005,1.374-0.381,2.415-0.504,2.714c0.087,0.341,0.394,1.587,0.521,2.435c0.009,0.074,0.021,0.153,0.032,0.23
			c0.53-1.044,1.163-1.729,1.191-1.759l0.339-0.364l0.11,0.484c0.019,0.078,0.421,1.89-0.093,3.428
			c-0.437,1.302-1.122,2.168-1.332,2.419c-0.01,0.15-0.036,0.478-0.075,0.864l-0.522-0.049c0.048-0.53,0.077-0.939,0.077-0.941
			l0.007-0.091l0.06-0.068c0.011-0.009,0.813-0.893,1.285-2.302c0.304-0.906,0.248-1.954,0.171-2.582
			c-0.267,0.354-0.628,0.897-0.921,1.553c-0.076,0.164-0.137,0.349-0.195,0.521l-0.414,1.188l-0.11-1.223
			c-0.037-0.469-0.077-0.861-0.133-1.233c-0.138-0.937-0.526-2.449-0.529-2.466l-0.022-0.088l0.035-0.083
			c0.007-0.012,0.489-1.099,0.495-2.588c0.002-0.954-0.379-1.933-0.647-2.503c-0.142,0.417-0.316,1.046-0.388,1.76
			c-0.026,0.248-0.026,0.521-0.026,0.758l0.005,1.251l-0.507-1.144c-0.199-0.446-0.376-0.814-0.56-1.159
			c-0.447-0.839-1.32-2.132-1.329-2.144l-0.05-0.077l0.007-0.091c0-0.015,0.09-1.202-0.404-2.605
			c-0.317-0.9-1.004-1.692-1.451-2.142c0.007,0.442,0.055,1.095,0.226,1.789c0.223,0.906,0.673,1.81,0.921,2.266l0.429,0.795
			l-0.789-0.437c-0.13-0.073-1.288-0.706-2.404-0.985c-0.695-0.171-1.346-0.217-1.789-0.225c0.447,0.445,1.239,1.134,2.14,1.451
			c1.408,0.499,2.466,0.404,2.477,0.403l0.156-0.014l0.083,0.128c0.031,0.043,0.728,1.064,1.187,1.93
			c0.311,0.576,0.584,1.144,0.815,1.686l0.485,1.129l-0.903-0.832c-0.376-0.344-0.708-0.608-1.007-0.807
			c-0.614-0.409-1.292-0.666-1.757-0.812c0.333,0.569,0.931,1.478,1.675,2.082c1.162,0.942,2.187,1.21,2.198,1.213l0.151,0.038
			l0.041,0.149c0.012,0.051,0.326,1.25,0.468,2.218c0.106,0.717,0.179,1.434,0.213,2.116l0.062,1.158l-0.555-1.018
			c-0.279-0.512-0.52-0.894-0.762-1.197c-0.442-0.564-0.926-1.002-1.268-1.279c0.078,0.628,0.277,1.657,0.792,2.462
			c0.8,1.25,1.697,1.837,1.707,1.841l0.127,0.083l-0.005,0.156C45.203,26.79,45.162,27.479,45.073,28.217z"/>
		<path class="primarycolor" d="M12.112,11.166l-0.453-0.02l0.155-0.354c0.029-0.066,0.724-1.6,2.194-2.517
			c1.711-1.067,3.601-1.215,3.682-1.221l0.419-0.031l-0.157,0.392c-0.023,0.059-0.608,1.491-2.396,2.649
			C13.941,11.114,12.404,11.166,12.112,11.166z M17.237,7.645c-0.654,0.113-1.856,0.395-2.952,1.078
			c-0.899,0.563-1.491,1.404-1.779,1.894c0.573-0.058,1.644-0.268,2.763-0.991C16.341,8.93,16.945,8.127,17.237,7.645z"/>
		<path class="primarycolor" d="M5.618,28.25c-0.093-0.761-0.139-1.479-0.14-1.483l-0.009-0.154L5.6,26.527
			c0.007-0.007,0.906-0.59,1.704-1.841C7.818,23.88,8.02,22.854,8.1,22.224c-0.346,0.276-0.829,0.718-1.274,1.279
			c-0.236,0.305-0.486,0.695-0.759,1.196l-0.553,1.016l0.06-1.156c0.032-0.681,0.105-1.395,0.212-2.118
			c0.142-0.967,0.456-2.162,0.469-2.213l0.039-0.148l0.151-0.039c0.011-0.003,1.047-0.279,2.196-1.215
			c0.747-0.604,1.355-1.511,1.698-2.084c-0.474,0.148-1.163,0.404-1.777,0.812c-0.3,0.199-0.629,0.464-1.008,0.811l-0.902,0.829
			l0.485-1.127c0.23-0.537,0.504-1.104,0.815-1.687c0.458-0.865,1.156-1.887,1.187-1.929l0.086-0.127l0.156,0.014
			c0.01,0,1.074,0.088,2.476-0.404c0.902-0.317,1.694-1.005,2.142-1.452c-0.443,0.009-1.098,0.056-1.791,0.227
			c-1.089,0.271-2.192,0.865-2.404,0.982l-0.79,0.438l0.429-0.795c0.25-0.458,0.699-1.358,0.922-2.267
			c0.171-0.692,0.219-1.344,0.226-1.786c-0.444,0.448-1.132,1.238-1.45,2.14c-0.495,1.401-0.405,2.591-0.405,2.602l0.007,0.093
			l-0.05,0.079c-0.01,0.012-0.882,1.304-1.326,2.142c-0.229,0.428-0.421,0.846-0.561,1.161l-0.51,1.135L6.3,17.389
			c0-0.262,0-0.519-0.025-0.759c-0.072-0.713-0.247-1.343-0.387-1.762c-0.27,0.571-0.651,1.549-0.648,2.506
			c0.006,1.494,0.489,2.577,0.495,2.587l0.037,0.084l-0.022,0.089c-0.003,0.017-0.393,1.53-0.53,2.466
			c-0.071,0.485-0.111,0.936-0.135,1.231l-0.099,1.248l-0.413-1.183c-0.069-0.204-0.133-0.387-0.206-0.55
			c-0.293-0.658-0.656-1.197-0.921-1.552c-0.076,0.626-0.131,1.674,0.171,2.58c0.474,1.417,1.276,2.293,1.284,2.302l0.064,0.066
			l0.005,0.094c0,0.002,0.028,0.448,0.083,1.009l-0.525,0.049c-0.039-0.419-0.065-0.775-0.078-0.934
			c-0.211-0.247-0.894-1.115-1.333-2.418c-0.513-1.537-0.109-3.349-0.094-3.427l0.113-0.484l0.337,0.364
			c0.03,0.031,0.663,0.716,1.194,1.756c0.012-0.074,0.021-0.15,0.034-0.228c0.124-0.847,0.432-2.095,0.516-2.436
			c-0.122-0.299-0.499-1.34-0.502-2.714c-0.005-1.621,0.946-3.214,0.987-3.281l0.258-0.428l0.208,0.452
			c0.018,0.043,0.439,0.974,0.604,2.217c0.043-0.082,0.083-0.166,0.13-0.246c0.399-0.756,1.109-1.827,1.304-2.118
			c-0.013-0.327-0.018-1.43,0.438-2.728c0.54-1.525,1.974-2.71,2.034-2.758l0.386-0.316l0.043,0.497
			c0.003,0.048,0.1,1.199-0.229,2.528c-0.147,0.598-0.385,1.192-0.607,1.669c0.488-0.229,1.152-0.503,1.814-0.67
			c1.327-0.327,2.479-0.231,2.526-0.226l0.498,0.042l-0.317,0.386c-0.049,0.062-1.231,1.495-2.759,2.035
			c-1.205,0.424-2.174,0.449-2.539,0.438c-0.201,0.3-0.719,1.089-1.075,1.757c-0.108,0.204-0.214,0.405-0.312,0.604
			c0.055-0.04,0.112-0.079,0.168-0.116c1.146-0.761,2.489-1.032,2.545-1.042l0.524-0.102l-0.235,0.478
			c-0.037,0.071-0.887,1.772-2.131,2.785c-0.994,0.808-1.895,1.156-2.245,1.27C6.64,20.854,6.417,21.77,6.308,22.52
			c-0.05,0.325-0.09,0.651-0.125,0.97c0.08-0.11,0.155-0.215,0.23-0.311c0.846-1.076,1.812-1.71,1.854-1.735l0.416-0.272
			l-0.011,0.498c0,0.077-0.052,1.935-0.926,3.303c-0.688,1.074-1.435,1.688-1.731,1.906c0.017,0.246,0.058,0.766,0.125,1.307
			L5.618,28.25z"/>
		<path class="primarycolor" d="M18.019,44.793l-0.42-0.027c-0.079-0.008-1.968-0.155-3.681-1.225c-1.464-0.916-2.161-2.453-2.19-2.52
			L11.57,40.67l0.453-0.019c0.291,0,1.827,0.053,3.445,1.103c1.786,1.156,2.37,2.591,2.395,2.652L18.019,44.793z M12.419,41.201
			c0.29,0.487,0.881,1.331,1.779,1.892c1.092,0.685,2.295,0.969,2.948,1.08c-0.293-0.481-0.898-1.286-1.964-1.977
			C14.063,41.469,12.996,41.262,12.419,41.201z"/>
		<path class="primarycolor" d="M11.512,44.105l-0.391-0.308c-0.06-0.048-1.516-1.202-2.086-2.721c-0.482-1.289-0.496-2.393-0.488-2.719
			c-0.168-0.243-0.723-1.054-1.051-1.551l0.442-0.288c0.384,0.587,1.091,1.611,1.091,1.612l0.052,0.075l-0.006,0.091
			c-0.001,0.014-0.07,1.204,0.452,2.596c0.337,0.896,1.039,1.675,1.493,2.112c-0.017-0.441-0.076-1.093-0.259-1.784
			c-0.244-0.905-0.708-1.795-0.966-2.249l-0.447-0.785l0.8,0.426c0.132,0.066,1.301,0.681,2.423,0.935
			c0.699,0.16,1.35,0.19,1.791,0.19h0.001c-0.456-0.435-1.26-1.11-2.166-1.409c-1.419-0.468-2.473-0.358-2.484-0.357L9.559,37.99
			l-0.09-0.129c0,0-0.471-0.677-0.703-1.024l0.437-0.293c0.17,0.254,0.468,0.685,0.612,0.895c0.369-0.017,1.335-0.013,2.547,0.39
			c1.54,0.513,2.748,1.921,2.8,1.982l0.321,0.382l-0.496,0.05c-0.048,0.005-1.195,0.121-2.532-0.181
			c-0.665-0.152-1.334-0.414-1.824-0.634c0.23,0.477,0.477,1.062,0.64,1.659c0.352,1.323,0.28,2.473,0.276,2.523L11.512,44.105z"/>
		<path class="primarycolor" d="M32.68,44.77l0.154-0.39c0.023-0.061,0.608-1.495,2.395-2.653c1.617-1.049,3.153-1.101,3.445-1.101
			l0.453,0.018l-0.157,0.352c-0.03,0.065-0.727,1.603-2.191,2.52c-1.711,1.069-3.601,1.22-3.68,1.223L32.68,44.77z M38.276,41.178
			c-0.598,0.061-1.657,0.274-2.761,0.99c-1.068,0.693-1.671,1.499-1.966,1.979c0.653-0.111,1.855-0.396,2.949-1.078
			C37.393,42.508,37.984,41.666,38.276,41.178z"/>
		<path class="primarycolor" d="M39.184,44.081l-0.034-0.498c-0.003-0.049-0.077-1.202,0.276-2.522c0.158-0.594,0.407-1.183,0.639-1.657
			c-0.492,0.218-1.158,0.479-1.826,0.633c-1.336,0.303-2.483,0.184-2.531,0.18l-0.494-0.051l0.321-0.383
			c0.05-0.058,1.26-1.468,2.798-1.979c1.212-0.402,2.178-0.406,2.547-0.393c0.146-0.211,0.441-0.639,0.613-0.893l0.436,0.291
			c-0.232,0.351-0.702,1.024-0.702,1.024l-0.091,0.13l-0.154-0.017c-0.012,0-1.076-0.11-2.484,0.357
			c-0.907,0.302-1.71,0.973-2.168,1.411h0.002c0.441,0,1.093-0.037,1.788-0.193c1.124-0.255,2.294-0.866,2.424-0.936l0.799-0.424
			l-0.447,0.788c-0.256,0.451-0.722,1.344-0.964,2.245c-0.185,0.692-0.245,1.344-0.259,1.784c0.454-0.438,1.158-1.22,1.495-2.114
			c0.521-1.397,0.452-2.583,0.451-2.594l-0.007-0.09l0.052-0.077c0,0,0.707-1.023,1.09-1.611L43.2,36.78
			c-0.327,0.499-0.882,1.308-1.051,1.552c0.007,0.324-0.006,1.431-0.486,2.72c-0.571,1.518-2.027,2.672-2.089,2.72L39.184,44.081z"
			/>
	</g>
</g>
</svg>
