<svg version="1.1" xmlns="http://www.w3.org/2000/svg" xmlns:xlink="http://www.w3.org/1999/xlink"
	 viewBox="0 0 400 383">
<path d="M329.109,309.799L328.5,310.2l0.021,0.282l1.397,0.555l0.389-0.086l0.386-0.411l-0.197-0.401l-0.613-0.129l-0.295,0.081
	l-0.214,0.124l-0.139-0.26L329.109,309.799z M327.039,309.562l0.579,0.698l0.173,0.192l0.197,0.088l-0.01-0.169l0.14-0.171
	l0.198-0.262l0.31-0.219l0.533-0.063l0.357-0.169l-0.14-0.358l-0.376-0.28l-0.358-0.184l-0.948-0.746l-0.367-0.361l-0.909-0.454
	l-0.588,0.499l-0.032,0.577l0.078,0.338v1.326l0.342-0.045l0.419-0.396L327.039,309.562z M325.158,308.581l0.156-0.386l-0.156-0.391
	l-0.14-0.176l-0.105-0.487l-0.374-0.89l-0.484-0.406l-0.825,0.161l-0.233,0.121l-0.465,0.103l-0.715,0.361l-0.158,0.638l0.252,0.343
	l0.158,0.154v0.232l0.058-0.025l0.095-0.393l0.049-0.229l0.009-0.267l0.27-0.207l0.246,0.192l0.156,0.202l0.826,0.066l0.294,0.416
	l0.155,0.315l0.221,0.338l0.369,0.371L325.158,308.581z M365.931,350.487l0.734,0.436l-0.189-0.356L365.931,350.487z
	 M364.173,348.533l0.284,0.451l0.091-0.466L364.173,348.533z M365.898,349.448l-0.228-0.139l-0.067,0.575l0.156-0.068l0.203-0.058
	L365.898,349.448z M361.702,354.28l0.361,0.58l0.016-0.293l-0.188-0.499L361.702,354.28z M312.082,305.567l0.14,0.277l0.143,0.386
	l0.31,0.159l0.686,0.093l0.279-0.323l0.638-1.122l-0.188-0.605l-0.671-0.252l-0.663,0.111l-0.533-0.03l-0.495,0.056l-0.122,0.532
	l0.103,0.345l0.124,0.136L312.082,305.567z M367.721,352.073l0.232-0.154l-0.141-0.345l-0.248,0.156L367.721,352.073z
	 M320.635,304.523l-0.357-0.416l-0.654-0.065l-0.141,0.497l0.125,0.343l0.252,0.262l0.327,0.171l0.073,0.514l-0.122,0.885
	l0.158,0.234l0.48-1.009l0.156-0.449l-0.124-0.378l-0.269-0.297l-0.107-0.169l0.049-0.04L320.635,304.523z M343.323,337.708
	l0.435,0.343l0.499,0.313l0.137-0.567l0.125-0.26l-0.033-0.252l-0.14-0.434l-0.435-0.076l-0.604,0.136l-0.203-0.03l0.11-0.121
	l-0.316-0.098l-0.31,0.313L343.323,337.708z M344.908,339.001l0.204,0.761l0.405,0.681l0.417,0.156l0.373-0.247l0.173-0.371
	l0.465-0.688l-0.154-0.623l-0.252-0.111l-0.648-0.141l-0.686,0.098L344.908,339.001z M373.567,345.376l-0.188,0.04l-0.077,0.219
	l-0.25,0.078l-0.155,0.222l0.064,0.015l0.386-0.083L373.567,345.376z M376.584,350.023l-0.158-0.792l-0.218,0.56l-0.385,0.308
	l-0.083,0.232l-0.122,0.066l-0.124,0.212l0.124,0.176l0.672-0.716L376.584,350.023z M370.598,347.143l0.187-0.401l-0.358-0.222
	l-0.393-0.154l-0.212,0.27l0.171,0.245L370.598,347.143z M367.32,350.053l-0.27,0.081v0.154l0.219,0.234l0.077,0.323l0.154,0.078
	l0.096,0.184l0.125-0.247v-0.416l-0.158-0.219L367.32,350.053z M352.464,341.906l0.189,0.358l0.092,0.84l0.093-0.048l0.204-0.361
	l0.108-0.497l-0.277-0.746l-0.329-0.361l-0.309,0.345l-0.064,0.441l0.106,0.073L352.464,341.906z M343.338,335.95l-0.31,0.156
	l-0.169,0.275l0.385,0.126l1.868,0.129l0.061-0.169l-0.842-0.141L343.338,335.95z M346.432,338.265l0.483-0.371l-0.124-0.222
	l-0.918-0.247l-0.293,0.096l-0.113,0.313l0.139,0.338l0.251,0.232L346.432,338.265z M305.923,288.48l0.947,4.186h0.387l-0.032-0.638
	l0.016-0.623l0.129-0.575l0.213-0.542l0.9,4.186l0.84,1.485l1.497,1.173l-0.45,0.54l0.14,0.716l0.498,0.673l0.572,0.449l0.499,0.121
	l1.195-0.154l0.777,0.033l-0.172,0.681l-0.402,0.784l-0.513,0.646l-0.484,0.283l-0.589-0.308l-0.588-0.61l-0.623-0.386l-0.734,0.305
	l0.343,1.7l0.203,0.446l0.514,0.613l0.198,0.124l0.374,0.061h0.329l-0.031-0.406l0.294-0.262l0.121-0.129l0.188-0.431l0.173-0.328
	l0.359,0.499l0.529,0.295l0.623,0.111l0.653-0.146l0.508-0.323l0.391-0.809l0.533-0.421l0.292,0.686l0.508,0.466l0.598,0.222
	l0.435-0.144l0.088,0.373l0.127,0.139v0.171l-0.216,0.436l0.431-0.174l0.605-0.509l0.221-0.113l0.467,0.129l0.716,0.547l1.088,0.461
	l0.608,0.59l0.556,0.252l0.702-0.746l0.545,0.494l0.682,0.951l0.608,0.509l0.651,0.272l1.543,0.277l0.682,0.277l1.258,0.9
	l1.26,1.122l0.997,1.543l0.406,0.449l-1.387,1.056l-0.485,0.638l0.657,0.292l0.236,0.328l0.638,1.553l0.342,0.499l0.453,0.081
	l1.771,0.124l0.059,1.054l0.187,0.653l0.436,0.469l-0.015,0.807l1.102,2.005l0.547,2.615l0.203,0.557l0.622,0.252l1.193-0.292
	l0.499,0.245l0.083,0.406l-0.206,0.449l-0.311,0.371l-0.978,0.651l0.586,1.157l1.711,1.914l0.75,2.234l0.058,0.56l0.284,1.2
	l0.06,0.62l0.407,0.608l2.422,1.944l2.01,0.386l0.292,0.139l0.919,0.562l1.847,0.313l0.965,0.514l2.989,3.172l0.354,1.021
	l-0.523,1.261l-0.923,0.688l-1.131,0.308l-1.151-0.03l-0.934-0.386v-0.361l0.296-0.093l0.498-0.252l0.295-0.086v-0.398l-4.031-1.705
	l-0.681-0.484l-0.169-0.03l-0.923-1.773l-0.356-0.469l-0.529-0.524l-0.622-0.424l-0.638-0.121l0.328-0.842l-0.981,0.777
	l-0.869,1.911l-0.564,2.272l-0.073,1.811l0.607,1.773l0.867,1.813l2.474,2.383l0.822,0.184l2.459-0.59l2.118-0.202l1.71-0.373
	l2.017-0.033l0.983-0.184l1.209-1.321l0.219-0.083l1.48-0.956l0.777,0.741l1.571,0.328l-0.188,0.469v0.431l0.464,0.174l0.247,0.045
	l0.173-0.166l0.189-0.484l0.276,0.323l0.285,0.192l0.262,0.136l0.264,0.171l0.063-0.267l0.089-0.171l0.113-0.151l0.124-0.232
	l0.516,0.62l0.835,0.292l0.889,0.033l0.64-0.124l1.039-0.999l0.686-0.308l0.791,0.484h0.328l0.31-0.484l-0.032-0.361l-0.187-0.376
	l-0.092-0.537l0.296-0.192l1.928-0.416l-0.096,0.247l-0.059,0.03l-0.081-0.015l-0.156,0.124l0.826,0.292l0.468-0.847l0.376-1.276
	l0.508-0.935l0.807-0.267l2.118-0.028l0.686-0.096l0.198,0.376l0.063,0.174l0.067,0.24l-0.467,0.101l-0.253,0.124l-0.14,0.23
	L374,343.709l0.361,0.184l0.293,0.247l0.237,0.33l0.173,0.391l0.899-0.575l1.039,0.136l0.794,0.731l0.173,1.276h0.389l-0.173-1.168
	l-0.635-0.915l-0.949-0.529l-1.151-0.108l0.652-0.746l1.048-0.497l0.82-0.063v0.875l0.716,0.262l1.04,1.493l0.793,0.656l0.016-0.55
	l-0.672-0.653l-0.638-0.86l0.148-1.145l0.059-0.638l0.9-1.029l0.187-0.525l0.095-0.497l0.247-0.436c0,0-1.611-32.106-15.111-48.106
	C342.25,288.364,305.923,288.48,305.923,288.48z M368.156,349.945l0.078-0.56l-0.218-0.714l-0.033-0.116l-0.197,0.176l-0.065,0.6
	l0.203,0.628L368.156,349.945z M350.167,342.002l0.327-0.25l0.353-0.063l-0.325-0.421l-0.295-0.045l-0.016,0.091l0.047,0.108
	l0.034,0.061l-0.237,0.285L350.167,342.002z M351.131,343.644l0.49,0.144h0.082l-0.063-0.439l0.407-0.194l0.246-0.159l-0.106-0.093
	l0.03-0.222l-0.358-0.106l-0.298-0.03l0.141,0.184l-0.141,0.267L351.131,343.644z"/>
</svg>
